<svg id="Layer_1" data-name="Layer 1" xmlns="http://www.w3.org/2000/svg" xmlns:xlink="http://www.w3.org/1999/xlink" width="512" height="512" viewBox="0 0 512 512">
  <defs>
    <style>
      .cls-1 {
        fill: #dbd6cb;
      }

      .cls-2 {
        fill: url(#Áåçûìÿííûé_ãðàäèåíò_480);
      }

      .cls-3 {
        fill: url(#Áåçûìÿííûé_ãðàäèåíò_480-2);
      }

      .cls-4 {
        fill: url(#Áåçûìÿííûé_ãðàäèåíò_480-3);
      }

      .cls-5 {
        isolation: isolate;
      }

      .cls-6 {
        fill: url(#Áåçûìÿííûé_ãðàäèåíò_480-4);
      }

      .cls-7 {
        fill: #ada49b;
      }

      .cls-8 {
        fill: #f8f6ec;
      }

      .cls-9 {
        fill: #f1eae0;
      }

      .cls-10 {
        fill: #eae6da;
      }

      .cls-11 {
        fill: url(#Áåçûìÿííûé_ãðàäèåíò_479);
      }
    </style>
    <linearGradient id="Áåçûìÿííûé_ãðàäèåíò_480" data-name="Áåçûìÿííûé ãðàäèåíò 480" x1="302.6574" y1="387.4558" x2="354.9995" y2="387.4558" gradientTransform="matrix(-1, 0, 0, 1, 745.391, 0)" gradientUnits="userSpaceOnUse">
      <stop offset="0" stop-color="#eee8de"/>
      <stop offset="0.4729" stop-color="#f5f2e8"/>
      <stop offset="1" stop-color="#f9f7ee"/>
    </linearGradient>
    <linearGradient id="Áåçûìÿííûé_ãðàäèåíò_480-2" x1="303.5935" y1="382.6067" x2="354.0842" y2="382.6067" xlink:href="#Áåçûìÿííûé_ãðàäèåíò_480"/>
    <linearGradient id="Áåçûìÿííûé_ãðàäèåíò_480-3" x1="307.1312" y1="374.9065" x2="349.4486" y2="374.9065" xlink:href="#Áåçûìÿííûé_ãðàäèåíò_480"/>
    <linearGradient id="Áåçûìÿííûé_ãðàäèåíò_480-4" x1="326.9049" y1="361.8572" x2="347.8751" y2="361.8572" xlink:href="#Áåçûìÿííûé_ãðàäèåíò_480"/>
    <linearGradient id="Áåçûìÿííûé_ãðàäèåíò_479" data-name="Áåçûìÿííûé ãðàäèåíò 479" x1="309.5213" y1="366.6987" x2="353.4447" y2="338.1485" gradientTransform="matrix(-1, 0, 0, 1, 745.391, 0)" gradientUnits="userSpaceOnUse">
      <stop offset="0" stop-color="#c4bcb1"/>
      <stop offset="1" stop-color="#cfcac0"/>
    </linearGradient>
  </defs>
  <g id="Companion">
    <g id="Chess_Knight" data-name="Chess Knight">
      <g>
        <path class="cls-1" d="M442.7336,385.4407l.0167,5.9132c.0109,3.8155-2.45,7.6416-7.4042,10.6029-10.0747,6.0227-26.6435,6.19-37.0081.3744-5.2672-2.9559-7.9187-6.888-7.93-10.8316l-.0167-5.9131Z"/>
        <path class="cls-2" d="M397.7961,374.9831l.6616-.3837c-5.1839,3.099-7.538,7.1793-7.0887,11.1634.3929,3.4848,2.9308,6.8961,7.5952,9.5136a30.1256,30.1256,0,0,0,6.9106,2.7542c9.4695,2.544,21.0932,1.4852,28.7883-3.115,9.7182-5.8092,9.4912-15.0664-.5068-20.6767l.6475.37c10.3644,5.8158,10.6,15.4127.5253,21.4349-7.9775,4.7688-20.0271,5.8665-29.8438,3.2291a31.21,31.21,0,0,1-7.1639-2.8549c-4.8358-2.7135-7.4666-6.25-7.8738-9.8629C389.9816,382.4253,392.4221,378.1956,397.7961,374.9831Z"/>
        <path class="cls-3" d="M398.45,371.7334q.1566-.0933.3164-.1856l4.7123-2.7207c-.0779.045-.1555.0905-.2318.1365l26.209-.2649,4.6927,2.6739c9.9978,5.61,10.2248,14.8677.5068,20.677-7.6894,4.5968-19.3006,5.6576-28.7663,3.1207a30.1249,30.1249,0,0,1-6.9321-2.76c-4.6771-2.6243-7.2161-6.0472-7.5988-9.5417C390.9227,378.8932,393.2779,374.8251,398.45,371.7334Z"/>
        <path class="cls-1" d="M398.9563,392.4106c9.9977,5.61,25.9808,5.4485,35.6986-.3608,4.779-2.8567,7.1532-6.5477,7.1426-10.2286l.0081,2.8661c.0107,3.6808-2.3636,7.3716-7.1425,10.2283-9.718,5.81-25.7009,5.9711-35.6989.3608-5.0809-2.8513-7.6384-6.6444-7.6491-10.4484l-.0084-2.866C391.3176,385.766,393.8752,389.5593,398.9563,392.4106Z"/>
        <path class="cls-1" d="M401.11,384.0008c8.76,4.9157,22.7642,4.7742,31.279-.3157,4.1874-2.5035,6.2676-5.7371,6.2586-8.9625l.01,3.6677c.0092,3.225-2.0708,6.4588-6.2583,8.962-8.5149,5.09-22.5189,5.2317-31.2791.3162-4.4522-2.4987-6.6928-5.8219-6.7021-9.1551l-.01-3.6673C394.4168,378.1791,396.6575,381.5028,401.11,384.0008Z"/>
        <ellipse class="cls-4" cx="416.5178" cy="374.9065" rx="22.1631" ry="12.796"/>
      </g>
      <g class="cls-5">
        <path class="cls-1" d="M397.7825,373.0248l9.2529,5.3775c-.4158.9413-.3528,1.8455.1551,2.1929a6.791,6.791,0,0,1,3.5169,4.8455l-9.2528-5.3774a6.7913,6.7913,0,0,0-3.5172-4.8453C397.43,374.8706,397.3665,373.9664,397.7825,373.0248Z"/>
        <path class="cls-6" d="M397.7825,373.0248q.034-.0764.072-.1534c1.5035-3.0573,4.7217-9.6714,7.3384-15.5936,1.398-3.1648,2.6243-6.1317,3.3255-8.2532a8.7256,8.7256,0,0,0,.5818-4.7124.5366.5366,0,0,0-.24-.3289l9.2531,5.3772a.5377.5377,0,0,1,.24.3291,8.7232,8.7232,0,0,1-.5822,4.7122c-.7009,2.1214-1.9274,5.0886-3.3254,8.2532-2.6167,5.9224-5.8349,12.5363-7.3384,15.5938q-.0379.0768-.072.1535a2.8339,2.8339,0,0,0-.2664,1.3288l-9.2429-5.3365A2.7678,2.7678,0,0,1,397.7825,373.0248Z"/>
        <path class="cls-7" d="M394.4451,354.8959l9.2531,5.3772-.0582,1.042a.9341.9341,0,0,0,.3673.9149l-9.2528-5.3775a.9324.9324,0,0,1-.3674-.9146Z"/>
        <path class="cls-1" d="M419.0217,321.2983l9.2529,5.3772c-2.8658-1.6653-5.9932-.9465-8.6191.4412l-9.2529-5.3772C413.0282,320.3518,416.1559,319.633,419.0217,321.2983Z"/>
        <g class="cls-5">
          <g class="cls-5">
            <path class="cls-8" d="M411.4568,334.7445l-9.2529-5.3772a26.9211,26.9211,0,0,0-3.4063,5.4086l9.2529,5.3772a26.93,26.93,0,0,1,3.4063-5.4086Z"/>
            <path class="cls-9" d="M408.0505,340.1531l-9.2529-5.3772c-1.0811,2.4487-.9211,3.8943-2.106,6.5738l9.2529,5.3772c1.1849-2.6793,1.0248-4.1251,2.106-6.5738Z"/>
            <path class="cls-8" d="M405.9445,346.7269l-9.2529-5.3772a34.9264,34.9264,0,0,1-4.1968,6.7087,8.9256,8.9256,0,0,0-1.0919,1.6853l9.2529,5.3772a8.93,8.93,0,0,1,1.0918-1.6853,34.9127,34.9127,0,0,0,4.1969-6.7087Z"/>
            <path class="cls-1" d="M391.4029,349.7437l9.2529,5.3772a5.6868,5.6868,0,0,0-.377,2.4342c.007,2.48.2641,3.5344.7552,3.82l-9.2529-5.3772c-.4913-.2856-.7484-1.3394-.7555-3.82A5.6846,5.6846,0,0,1,391.4029,349.7437Z"/>
          </g>
        </g>
        <g class="cls-5">
          <path class="cls-10" d="M419.6555,327.1169l-9.2529-5.3774c-4.2523.86-8.9343,1.5177-10.7757,2.5808l9.2531,5.3772c1.8415-1.0631,6.5231-1.721,10.7755-2.5806Z"/>
        </g>
        <g class="cls-5">
          <g class="cls-5">
            <path class="cls-8" d="M398.9017,324.9853a1.0614,1.0614,0,0,1,.1533-.2229,2.2663,2.2663,0,0,1,.5719-.4421l9.2531,5.3772a2.26,2.26,0,0,0-.5719.4423,1.0615,1.0615,0,0,0-.1535.2227c-.0224.0477-9.2753-5.3295-9.2753-5.3295Z"/>
            <path class="cls-1" d="M408.1322,330.41l-9.2529-5.3772c-.6126,1.38,2.8041,1.73,3.3246,4.3343l9.2529,5.3772c-.52-2.6044-3.9372-2.9536-3.3246-4.3343Z"/>
          </g>
        </g>
        <path class="cls-11" d="M401.7476,353.4356c8.1213-10.7842,2.6522-9.486,9.7092-18.6911-.5264-2.6341-4.0156-2.9613-3.3022-4.382a1.7654,1.7654,0,0,1,.7254-.665c1.8412-1.0631,6.5234-1.721,10.7755-2.5808,3.9479-2.0861,9.0295-2.6608,12.6512,4.1063,1.9874,3.72,2.8561,8.5861,2.757,14.02a269.4215,269.4215,0,0,1-2.1893,27.4l-22.167,12.7981a6.791,6.791,0,0,0-3.5169-4.8455c-.5355-.3662-.5765-1.3512-.0831-2.3464,2.307-4.6912,8.6509-17.7557,10.6638-23.847a8.7232,8.7232,0,0,0,.5822-4.7122.537.537,0,0,0-.7567-.3526,9.7744,9.7744,0,0,0-1.7364.801c-1.9761,1.1407-4.8435,3.5719-6.961,8.6232a6.0475,6.0475,0,0,1-.7514,1.46,4.6933,4.6933,0,0,1-1.3644,1.0934,12.7231,12.7231,0,0,1-2.1028.9433c-.6328.2164-1.0844-.172-1.0407-.9429l.0582-1.042c-.4781.2872-.9085.5751-1.29.7953-1.3817.7976-2.1178.7073-2.13-3.5133A5.3078,5.3078,0,0,1,401.7476,353.4356Z"/>
      </g>
    </g>
  </g>
</svg>
