<svg id="Layer_1" data-name="Layer 1" xmlns="http://www.w3.org/2000/svg" xmlns:xlink="http://www.w3.org/1999/xlink" width="512" height="512" viewBox="0 0 512 512">
  <defs>
    <style>
      .cls-1 {
        fill: none;
      }

      .cls-2 {
        fill: #d74446;
      }

      .cls-3 {
        fill: #751212;
      }

      .cls-4 {
        fill: #ae1f20;
      }

      .cls-5 {
        fill: #f3941f;
      }

      .cls-6 {
        fill: #c83537;
      }

      .cls-7 {
        fill: #e5e5e5;
      }

      .cls-8 {
        fill: #adadad;
      }

      .cls-9 {
        fill: #364c95;
      }

      .cls-10 {
        fill: #4f5d9e;
      }

      .cls-11 {
        clip-path: url(#clip-path);
      }

      .cls-12 {
        fill: #c1c1c3;
      }

      .cls-13 {
        fill: #ca1f4f;
      }

      .cls-14 {
        fill: #ca1d52;
      }

      .cls-15 {
        fill: #681030;
      }

      .cls-16 {
        fill: #e83b56;
      }

      .cls-17 {
        fill: #ea3b54;
      }

      .cls-18 {
        fill: #d2ecfb;
      }

      .cls-19 {
        fill: #e9f6ff;
      }

      .cls-20 {
        fill: #d4ebfb;
      }

      .cls-21 {
        fill: #f8fcff;
      }
    </style>
    <clipPath id="clip-path">
      <path class="cls-1" d="M418.6235,379.3472l28.4776-16.4954-29.1292-41.515q-13.913,20.7575-27.826,41.515Z"/>
    </clipPath>
  </defs>
  <g id="Companion">
    <g>
      <g id="White">
        <path class="cls-2" d="M418.6235,381.8511l32.8-18.9993-32.8-18.9992-32.8,18.9992Z"/>
        <path class="cls-3" d="M418.6235,379.3472l28.4776-16.4954-28.4776-16.4953-28.4776,16.4953Z"/>
        <path class="cls-4" d="M451.4239,362.8518l22.9369-7.0806-32.9516-17.928-22.7857,6.0094Z"/>
        <polygon class="cls-5" points="385.823 362.852 385.823 400.85 418.624 419.85 418.624 381.851 385.823 362.852"/>
        <path class="cls-6" d="M406.7179,403.3532l-4.1317-5.0314a.555.555,0,0,0-.4169-.2415l-4.1317.2448c-.3287.0195-.7128-.5419-.65-.95l.7891-5.1306a.9119.9119,0,0,0-.1288-.5561l-3.3427-5.8934c-.2659-.4688-.1191-.9322.2483-.7842l4.6194,1.8605a.2465.2465,0,0,0,.3373-.1022l2.0659-3.8872c.1643-.3092.639-.0342.8034.4654l2.0658,6.28a1.0436,1.0436,0,0,0,.3373.493l4.6194,3.491c.3674.2776.5142.911.2483,1.0718l-3.3427,2.021a.3972.3972,0,0,0-.1288.4069l.7891,6.0447C407.4307,403.6369,407.0466,403.7533,406.7179,403.3532Z"/>
        <polygon class="cls-6" points="451.424 362.852 418.624 381.851 418.624 419.85 451.424 400.85 451.424 362.852"/>
        <path class="cls-5" d="M447.7752,398.7369l-25.503,14.7724V383.9646l25.503-14.7724Zm-1.859-26.3144-21.7851,12.6188V410.279L445.9162,397.66Z"/>
        <path class="cls-6" d="M389.6456,398.7369l25.503,14.7724V383.9646l-25.503-14.7724Zm1.8589-26.3144L413.29,385.0413V410.279L391.5045,397.66Z"/>
      </g>
      <g>
        <ellipse class="cls-7" cx="435.0237" cy="391.3508" rx="3.9587" ry="2.2818" transform="translate(-120.8944 573.9873) rotate(-60.1618)"/>
        <path class="cls-8" d="M434.3064,393.1438a.969.969,0,0,1-.4867-.9639,3.1765,3.1765,0,0,1,1.4314-2.4874,1.003,1.003,0,0,1,1.0122-.1006l4.3281,1.3181.1414.0617a1.52,1.52,0,0,1,.4193.93,3.1763,3.1763,0,0,1-1.4315,2.4875,1.05,1.05,0,0,1-.9447.1348Z"/>
        <path class="cls-8" d="M438.63,387.4744a.9692.9692,0,0,1-.4867-.9639,3.1763,3.1763,0,0,1,1.4315-2.4875,1.0032,1.0032,0,0,1,1.0122-.1006l4.3281,1.3182.1414.0616a1.52,1.52,0,0,1,.4192.93,3.1765,3.1765,0,0,1-1.4314,2.4874,1.05,1.05,0,0,1-.9448.1348Z"/>
        <path class="cls-8" d="M441.1022,392.2568a.9693.9693,0,0,1-.9013.5947,3.1763,3.1763,0,0,1-2.6361-1.1346,1.0032,1.0032,0,0,1-.2168-.9938q.4047-2.2257.81-4.4514l.045-.1475a1.52,1.52,0,0,1,.8751-.5238,3.1763,3.1763,0,0,1,2.6361,1.1346,1.05,1.05,0,0,1,.243.9228Z"/>
        <path class="cls-9" d="M447.085,386.039a4.7849,4.7849,0,0,1-2.1563,3.7471c-1.1909.69-2.1563.1306-2.1563-1.2491a4.7848,4.7848,0,0,1,2.1563-3.747C446.12,384.1,447.085,384.6594,447.085,386.039Z"/>
        <path class="cls-10" d="M443.9484,389.5014a1.1527,1.1527,0,0,1-.5788-1.1464,3.7781,3.7781,0,0,1,1.7024-2.9585,1.1931,1.1931,0,0,1,1.2039-.12l8.6885,2.6375q-1.0265,2.1678-2.0527,4.3357Z"/>
        <path class="cls-9" d="M455.6377,389.0955a3.7772,3.7772,0,0,1-1.7022,2.958c-.94.5446-1.7022.1031-1.7022-.986a3.7774,3.7774,0,0,1,1.7022-2.958C454.8756,387.565,455.6377,388.0064,455.6377,389.0955Z"/>
      </g>
      <g class="cls-11">
        <path class="cls-12" d="M430.3167,378.2906l-1.7025-1.4113-1.6714-1.7215c-.9574-.4044-1.7875-.6963-2.4226-.9014,0,0-2.7523-.8888-4.3818-.4319-.1382.0387-.45.13-.4883.3255-.0316.1614.1355.3313.3061.4678a7.8512,7.8512,0,0,0,2.9052,1.13c.8848.1731,1.6266.3091,2.1659.4055l-.4107.8028a17.7843,17.7843,0,0,1-2.273-.3948,15.0146,15.0146,0,0,1-1.8323-.5846,5.434,5.434,0,0,1-1.29-.7261,2.7454,2.7454,0,0,1-.3974-.3935,1.03,1.03,0,0,1-.3382-.6568.81.81,0,0,1,.1374-.3964,1.2387,1.2387,0,0,1,.3167-.3531,2.2345,2.2345,0,0,1,.9588-.3594,5.4176,5.4176,0,0,1,.66-.1,12.2416,12.2416,0,0,1,3.2675.3707,13.9787,13.9787,0,0,1,4.2266,1.6021,11.7912,11.7912,0,0,1,1.666,1.2332l1.0248-3.6007c-.1859-.1583-.3835-.317-.5934-.4743a14.8943,14.8943,0,0,0-2.0715-1.2551,14.0546,14.0546,0,0,0-2.765-1.0048,10.316,10.316,0,0,0-3.31-.3191c-.4629.0387-1.62.1355-1.6776.5007-.0469.2967.653.6352.964.7856a8.8286,8.8286,0,0,0,4.5321.6417,17.2049,17.2049,0,0,0,2.2911-.2754,8.0746,8.0746,0,0,0,3.69-1.7085.9467.9467,0,0,0,.275-.47c.1493-.7239-.7907-1.4743-.973-1.62a4.3524,4.3524,0,0,0-.7042-.4406c-2.0034-1.1-1.8465-1.048-2.088-1.1507a9.6676,9.6676,0,0,0-2.2723-.601,14.3646,14.3646,0,0,0-2.2911-.2441,4.4939,4.4939,0,0,0-2.7794.5822c-.4375.2961-.4411.4633-.4391.5067.0265.5842,2.0584.9214,2.28.9581a11.8457,11.8457,0,0,0,5.2958-.5259,9.1052,9.1052,0,0,0,3.1737-1.5587,2.157,2.157,0,0,0,.7229-1.1615,1.2119,1.2119,0,0,0,.0013-.5763c-.06-.2124-.1961-.4264-.6619-.7665a5.3845,5.3845,0,0,0-1.07-.6122,17.504,17.504,0,0,0-2.47-.883,12.4733,12.4733,0,0,0-3.8221-.135,8.0182,8.0182,0,0,0-2.3525.4725c-.4443.1634-1.1868.4366-1.1644.7136.0321.395,1.5982.5512,1.7278.5635a9.5874,9.5874,0,0,0,2.6667-.2442,14.2409,14.2409,0,0,0,2.9826-.7843,10.0077,10.0077,0,0,0,1.4069-.6858,5.913,5.913,0,0,0,1.4749-1.13c.4616-.5051.794-.8688.7647-1.3252-.04-.6248-.7332-1.0323-1.3044-1.3682a7.0253,7.0253,0,0,0-2.8087-.8431,10.8589,10.8589,0,0,0-2.6371-.0424c-.2376.025-.399.05-.6716.0919a8.7493,8.7493,0,0,0-3.5078,1.0538c-.3627.2329-.7612.4886-.7136.7137.0834.395,1.4853.43,2.216.3943a9.5651,9.5651,0,0,0,2.93-.676,12.6784,12.6784,0,0,0,2.3916-1.097,8.6084,8.6084,0,0,0,2.3392-1.98c.0508-.0541.9781-1.0621.6443-1.7741-.1145-.2443-.348-.3908-.7281-.6292a4.711,4.711,0,0,0-1.11-.509,10.1706,10.1706,0,0,0-2.8-.3818,15.7136,15.7136,0,0,0-3.6105.6058,6.1658,6.1658,0,0,0-2.8623,1.3c-.31.2777-.4813.5107-.4241.6906.11.3476,1.0216.3406,1.3521.338a7.8463,7.8463,0,0,0,3.1737-.8075,12.8877,12.8877,0,0,0,2.6892-1.434,11.7024,11.7024,0,0,0,2.25-2.2467,3.0655,3.0655,0,0,0,.6642-1.76l-.0012-.0159c-.0619-.6921-1.6527-1.06-2.1421-1.1736a8.6928,8.6928,0,0,0-3.3088-.0919,23.2328,23.2328,0,0,0-2.9116.9007,6.6926,6.6926,0,0,0-2.7043,1.4085c-.2266.2138-.76.7174-.6288,1.0107.1561.3477,1.16.2059,1.53.1536a8.9843,8.9843,0,0,0,3.4367-1.4085,16.02,16.02,0,0,0,2.19-1.6055,6.98,6.98,0,0,0,1.96-2.3569,1.9669,1.9669,0,0,0,.2817-1.5024c-.2963-.7717-1.4266-.9744-2.1148-1.0979a7.8271,7.8271,0,0,0-3.0871.159,11.14,11.14,0,0,0-4.2723,1.9061c-.1943.1441-1.8448,1.3685-1.6244,1.8122.152.3061,1.1292.1089,1.39.0563a5.9068,5.9068,0,0,0,2.2536-1.07,15.7879,15.7879,0,0,0,2.61-2.1127,8.6914,8.6914,0,0,0,1.8967-2.4882c.3809-.8.733-1.5388.4132-2.1409-.3689-.6945-1.42-.8071-2.13-.8833a5.2448,5.2448,0,0,0-1.9071.1509l.5634-2.4226,1.4085-.1971a7.4741,7.4741,0,0,1-.4789,1.5586,4.01,4.01,0,0,1,.6479-.0287,3.4528,3.4528,0,0,1,2.5543,1.0539,3.0256,3.0256,0,0,1,.1958,2.5132,7,7,0,0,1-2.1026,3.23,15.3117,15.3117,0,0,1-2.7317,2.284,14.8887,14.8887,0,0,1-2.81,1.4969c-1.449.5847-2.0141.5457-2.4314.3372a1.4393,1.4393,0,0,1-.7469-.8587,1.9465,1.9465,0,0,1,.6917-1.6335c2.2573-2.5489,6.47-3.4772,6.7387-3.5339a8.03,8.03,0,0,1,3.2628-.1771c.6292.1158,2.5652.4617,2.9627,1.7406a2.3415,2.3415,0,0,1-.0959,1.38,6.89,6.89,0,0,1-2.3975,3.274,15.3826,15.3826,0,0,1-2.1125,1.5766,16.414,16.414,0,0,1-2.7153,1.3556,6.02,6.02,0,0,1-3.13.6965c-.3553-.0467-1.0429-.1461-1.2594-.6195a1.1019,1.1019,0,0,1,.0752-.8883,4.6869,4.6869,0,0,1,1.9763-2.0913,12.0258,12.0258,0,0,1,3.5869-1.4273,16.6366,16.6366,0,0,1,2.8837-.46,7.7673,7.7673,0,0,1,2.7125.0846c.6986.1788,2.0985.537,2.5322,1.6507a2.733,2.733,0,0,1-.1985,2.0232,6.4461,6.4461,0,0,1-2.6215,2.8087,16.6645,16.6645,0,0,1-3.6819,1.9445,7.5968,7.5968,0,0,1-3.55.8786c-.2873-.0212-1.9457-.1439-2.1887-.9676a1.094,1.094,0,0,1,.1171-.7454,3.33,3.33,0,0,1,1.8735-1.5457,11.8251,11.8251,0,0,1,1.9632-.6742c.3139-.0906.8333-.2429,1.507-.3833a15.7269,15.7269,0,0,1,2.7435-.3848,11.1232,11.1232,0,0,1,3.3519.3423,3.5192,3.5192,0,0,1,1.4632.6615,2.4727,2.4727,0,0,1,.9476,1.454,2.5082,2.5082,0,0,1-.6976,2.0544,9.1628,9.1628,0,0,1-2.3192,2.0143,15.5588,15.5588,0,0,1-1.8146.9357l-.0622.027a20.6587,20.6587,0,0,1-3.0264,1.1081,6.79,6.79,0,0,1-2.6356.1781c-.204-.0289-2.4259-.3307-2.4851-1.2036-.0392-.5793.68-1.0578,1.2125-1.4123a7.0739,7.0739,0,0,1,2.9057-1.02,17.3338,17.3338,0,0,1,4.7375-.3692,6.9778,6.9778,0,0,1,3.5362.8538c.4744.2972,1.685,1.0555,1.7325,2.2169a2.4485,2.4485,0,0,1-.6456,1.6611,8.8075,8.8075,0,0,1-2.9327,2.074,16.5778,16.5778,0,0,1-2.162.7876c-.11.0317-.6129.1737-1.3666.3285a12.7251,12.7251,0,0,1-3.9817.3235,3.4691,3.4691,0,0,1-.865-.1854c-.53-.1942-1.5435-.7233-1.5417-1.3315.0025-.8213,1.7236-1.4015,2.3726-1.62a10.0752,10.0752,0,0,1,2.8475-.4378,16.2032,16.2032,0,0,1,3.6594.149c.51.083.9169.1785,1.1988.2516a10.1157,10.1157,0,0,1,1.7964.6247,4.89,4.89,0,0,1,1.3192.883,2.421,2.421,0,0,1,.7092.9173,2.1576,2.1576,0,0,1,.0467,1.352,2.4789,2.4789,0,0,1-.4473.8584,4.3823,4.3823,0,0,1-1.4286,1.1841,9.6527,9.6527,0,0,1-1.7562.807,19.3683,19.3683,0,0,1-4.1923,1.1438,9.1775,9.1775,0,0,1-4.6027-.7035c-.4208-.2065-1.2786-.6406-1.33-1.3094a.9432.9432,0,0,1,.092-.466c.4941-1.0876,3.1052-1.5129,5.2019-1.446a13.3474,13.3474,0,0,1,3.1361.4882,18.0425,18.0425,0,0,1,2.9484,1.2019c.2551.1292.4487.2576.6409.3633a3.7231,3.7231,0,0,1,.8476.6368,2.8872,2.8872,0,0,1,.9853,1.8921,2.57,2.57,0,0,1-1.4968,2.1781,10.2431,10.2431,0,0,1-3.9993,1.31,18.67,18.67,0,0,1-2.0608.1387c-.7146.0085-1.2526-.0259-1.4273-.038a16.7405,16.7405,0,0,1-2.2329-.3074,6.4269,6.4269,0,0,1-2.0293-.7628,1.5722,1.5722,0,0,1-.6942-.6912,1.0955,1.0955,0,0,1-.0888-.7448c.04-.1292.2-.5192,1.3646-.8388a7.5723,7.5723,0,0,1,2.3036-.2253,15.09,15.09,0,0,1,2.7257.3485c.2667.0541.694.14,1.2515.2965a16.98,16.98,0,0,1,2.5931.9656,7.5411,7.5411,0,0,1,2.4412,1.7354q-.2725,2.9185-.545,5.8369a2.2761,2.2761,0,0,1,.1956,1.6569,2.3393,2.3393,0,0,1-1.0638,1.2942,4.7787,4.7787,0,0,1-1.4135.5812c-.19.0478-.1495.1-.06.21a4.706,4.706,0,0,1,.6447.981,1.2272,1.2272,0,0,1-.9231.3608.272.272,0,0,1-.1588-.1192.49.49,0,0,0-.2008-.19c-.27-.2841-.5415-.5672-.81-.8529a.2987.2987,0,0,0-.2669-.1183,17.0081,17.0081,0,0,1-3.31-.1723c-.5994-.1776-1.3425-.8691-1.814-3.2868-.1851-.06-.4614-.1443-.8013-.2253-.47-.112-2.5121-.5988-2.8044-.025a.5624.5624,0,0,0,.0125.4131,1.2862,1.2862,0,0,0,.6886.6886,14.384,14.384,0,0,0,1.5524.7637l-.56.6095-.0255-.011a6.3427,6.3427,0,0,1-2.18-1.3608,1.4847,1.4847,0,0,1-.5169-1.0746.8079.8079,0,0,1,.5409-.7349,3.1039,3.1039,0,0,1,1.6251-.2538,12.3386,12.3386,0,0,1,3.0138.6484,15.2623,15.2623,0,0,1,4.71,2.4723,1.1147,1.1147,0,0,0,1.097.217,5.0483,5.0483,0,0,0,1.8432-.72.594.594,0,0,0,.243-.88A2.2052,2.2052,0,0,0,430.3167,378.2906Z"/>
      </g>
      <g>
        <ellipse class="cls-13" cx="413.1871" cy="332.009" rx="3.2551" ry="4.6323"/>
        <path class="cls-14" d="M396.3465,320.8666l4.8306,5.07,10.4041,5.8577-14.55,9.2047q.341,2.5981.6817,5.1964l22.7967-10.7718.0333-7.7624-22.6568-9.3552Z"/>
        <path class="cls-15" d="M410.2667,339.9276a10.4906,10.4906,0,0,1,.5446-3.6369,10.8933,10.8933,0,0,1,2.4954-4.0305,11.4493,11.4493,0,0,1,6.5688-3.2308q.0249,3.5306.05,7.061Z"/>
        <path class="cls-16" d="M420.9271,333.8072l1.3521,4.6318a25.2036,25.2036,0,0,1-3.7057,4.432,27.2645,27.2645,0,0,1-8.0376,5.1581c-3.1263,1.4362-5.7983,2.6255-9.3593,2.3842a14.156,14.156,0,0,1-2.3341-.3561,1.0757,1.0757,0,0,1-.701-.4507l-2.5791-4.9828a135.9389,135.9389,0,0,0,14.8983-5.6088C414.2609,337.324,417.7505,335.5621,420.9271,333.8072Z"/>
        <path class="cls-16" d="M420.9271,329.104l1.3521-4.6318a25.2071,25.2071,0,0,0-3.7057-4.4319,27.2624,27.2624,0,0,0-8.0376-5.1581c-3.1263-1.4363-5.7983-2.6255-9.3593-2.3843a14.1668,14.1668,0,0,0-2.3341.3561,1.0768,1.0768,0,0,0-.701.4507l-2.5791,4.9828a135.98,135.98,0,0,1,14.8983,5.6088C414.2609,325.5873,417.7505,327.3492,420.9271,329.104Z"/>
        <g>
          <ellipse class="cls-13" cx="420.9271" cy="330.8322" rx="3.2551" ry="4.6323"/>
          <ellipse class="cls-17" cx="420.9021" cy="330.8322" rx="1.928" ry="3.5386"/>
          <path class="cls-18" d="M425.1019,329.251a3.4894,3.4894,0,0,1-.2651-.5053,3.5509,3.5509,0,0,1-.26-1.7758,2.3281,2.3281,0,0,1,.6385-1.5493,2.5034,2.5034,0,0,1,1.8028-.4789c.5978.0021,1.0553.0037,1.3521.3193.417.4434.2387,1.2112.0752,1.9154a5.6618,5.6618,0,0,1-.8648,1.9374l.5079.9641a5.2914,5.2914,0,0,1,.5822.5352,4.6759,4.6759,0,0,1,.6667.8826,2.1091,2.1091,0,0,1,.46,1.4085c-.1711.8158-1.342,1.14-1.6338,1.2206a2.328,2.328,0,0,1-1.6808-.0563,1.6494,1.6494,0,0,1-.7678-.6941,2.3,2.3,0,0,1-.1243-1.24,13.3306,13.3306,0,0,1,.1409-1.4272Zm1.6165-2.781c-.3127-.0882-.67.21-.7989.6658s.0209.8969.3337.985.6705-.21.799-.6658S427.0312,326.5581,426.7184,326.47Zm.743,4.9758a.76.76,0,1,0,.8358.5025A.6951.6951,0,0,0,427.4614,331.4458Z"/>
          <path class="cls-19" d="M421.6407,329.4425a1.3006,1.3006,0,0,0-.7511.3756,1.3549,1.3549,0,0,0-.3381,1.0767,1.2452,1.2452,0,0,0,.4633.9014,1.1435,1.1435,0,0,0,.6259.2128l6.1972-1.7527a.5779.5779,0,0,0-.0876-1.1518Z"/>
        </g>
        <g>
          <path class="cls-20" d="M397.9568,340.0916a5.22,5.22,0,0,0,.6854,1.0892,1.7845,1.7845,0,0,0,.7283.5236,1.2569,1.2569,0,0,0,1.725-.8669,2.794,2.794,0,0,0,.0068-1.328,4.7946,4.7946,0,0,0-.1624-.8212,4.7455,4.7455,0,0,0-.3676-.8838,1.9794,1.9794,0,0,0-.3676-.5444.9458.9458,0,0,0-.3606-.2474.8812.8812,0,0,0-.4383-.0212,1.9665,1.9665,0,0,0-.7636.3111,6.1854,6.1854,0,0,0-.9533.7384.9208.9208,0,0,0-.1991.3221,1.0455,1.0455,0,0,0-.0025.6206A4.3654,4.3654,0,0,0,397.9568,340.0916Z"/>
          <path class="cls-20" d="M395.8535,342.0729a3.3834,3.3834,0,0,0,.7606,1.1549,1.5377,1.5377,0,0,0,.7418.4225,1.0328,1.0328,0,0,0,.6412-.0368,1.1824,1.1824,0,0,0,.582-.7948,2.6247,2.6247,0,0,0-.1434-1.45c-.0964-.3628-.1059-.2672-.2536-.7793a5.6877,5.6877,0,0,0-.3662-1.0141,1.211,1.211,0,0,0-.2253-.3192.8347.8347,0,0,0-.3286-.2254.8908.8908,0,0,0-.4508,0,1.575,1.575,0,0,0-.6854.2532,1.5349,1.5349,0,0,0-.4976.62,1.7788,1.7788,0,0,0-.1691.5352,1.7982,1.7982,0,0,0,.0282.601A3.8981,3.8981,0,0,0,395.8535,342.0729Z"/>
          <path class="cls-20" d="M400.7959,337.9354a5.5151,5.5151,0,0,0,.611,1.2137,1.8854,1.8854,0,0,0,.7129.6236,1.3272,1.3272,0,0,0,1.9-.7379,2.9518,2.9518,0,0,0,.1407-1.3952,4.77,4.77,0,0,0-.3858-1.8454,2.0937,2.0937,0,0,0-.3317-.6092.9974.9974,0,0,0-.3542-.2963.9307.9307,0,0,0-.4586-.0664,2.0777,2.0777,0,0,0-.8338.25,6.5293,6.5293,0,0,0-1.0763.68.97.97,0,0,0-.2416.3185,1.1035,1.1035,0,0,0-.065.6521A4.6092,4.6092,0,0,0,400.7959,337.9354Z"/>
          <path class="cls-20" d="M403.8667,335.88a5.0011,5.0011,0,0,0,.6278,1.06,1.7086,1.7086,0,0,0,.6834.52,1.2033,1.2033,0,0,0,1.6733-.7849,2.6763,2.6763,0,0,0,.041-1.2707,4.6061,4.6061,0,0,0-.1341-.79,4.55,4.55,0,0,0-.3289-.8553,1.8978,1.8978,0,0,0-.3377-.5305.9043.9043,0,0,0-.3387-.2462.8442.8442,0,0,0-.4189-.0317,1.8828,1.8828,0,0,0-.7388.2779,5.9208,5.9208,0,0,0-.9315.682.8806.8806,0,0,0-.1989.303,1.0007,1.0007,0,0,0-.0185.5939A4.1806,4.1806,0,0,0,403.8667,335.88Z"/>
          <path class="cls-20" d="M406.4577,334.1239a4.7353,4.7353,0,0,0,.5931,1.0017,1.6152,1.6152,0,0,0,.6457.4912,1.1369,1.1369,0,0,0,1.5811-.7416,2.5294,2.5294,0,0,0,.0387-1.2006,4.3508,4.3508,0,0,0-.1267-.7466,4.3043,4.3043,0,0,0-.3107-.8081,1.7941,1.7941,0,0,0-.3191-.5013.8545.8545,0,0,0-.32-.2325.7978.7978,0,0,0-.3959-.03,1.78,1.78,0,0,0-.698.2626,5.5993,5.5993,0,0,0-.88.6443.8326.8326,0,0,0-.1879.2864.9447.9447,0,0,0-.0175.5611A3.9522,3.9522,0,0,0,406.4577,334.1239Z"/>
          <path class="cls-21" d="M403.8253,341.5376a7.8878,7.8878,0,0,0,1.5024,2.4226,2.443,2.443,0,0,0,.818.6031,1.6793,1.6793,0,0,0,1.4731.0166,1.5838,1.5838,0,0,0,.6338-.9309,2.8025,2.8025,0,0,0,.08-1.1912,8.5481,8.5481,0,0,0-.7324-2.7793c-.1556-.35-.3034-.628-.4038-.8075a.5554.5554,0,0,0-.3529-.2464.5095.5095,0,0,0-.2292.0116,7.877,7.877,0,0,0-2.9671,1.5024.7356.7356,0,0,0-.1454.2771.7607.7607,0,0,0,.0327.4835C403.5936,341.0352,403.694,341.2614,403.8253,341.5376Z"/>
          <path class="cls-21" d="M400.3664,343.6076a7.5214,7.5214,0,0,0,1.2,1.8006,2.3949,2.3949,0,0,0,.746.593,1.5742,1.5742,0,0,0,1.38.0656,1.55,1.55,0,0,0,.6256-.8508,2.987,2.987,0,0,0,.2122-1.1243,8.1084,8.1084,0,0,0-.8464-3.0194,1.1649,1.1649,0,0,0-.1932-.37.5964.5964,0,0,0-.3223-.2429.4771.4771,0,0,0-.2152.0031,7.3857,7.3857,0,0,0-2.8316,1.307.7862.7862,0,0,0-.1456.2547.89.89,0,0,0-.0028.5136A4.7547,4.7547,0,0,0,400.3664,343.6076Z"/>
          <path class="cls-21" d="M396.4425,343.8622a7.8387,7.8387,0,0,0,1.27,2.3327,2.2356,2.2356,0,0,0,.6761.5728,1.4675,1.4675,0,0,0,1.0516.169,1.5469,1.5469,0,0,0,.9015-.8451,2.4473,2.4473,0,0,0,.26-1.0689,6.5162,6.5162,0,0,0-.7012-2.6681,1.2446,1.2446,0,0,0-.432-.5916.893.893,0,0,0-.223-.1125,1.0183,1.0183,0,0,0-.5844.0048,4.7761,4.7761,0,0,0-1.0142.3237,5.432,5.432,0,0,0-.9859.5915.758.758,0,0,0-.3474.4319.8393.8393,0,0,0-.0094.3193A1.86,1.86,0,0,0,396.4425,343.8622Z"/>
          <path class="cls-21" d="M394.7971,342.7691a9.4041,9.4041,0,0,0,.6708,2.1053,3.36,3.36,0,0,0,1.0322,1.414.8487.8487,0,0,0,.6221.2191c.5467-.0868.76-.9833.7706-1.0322a2.4759,2.4759,0,0,0-.007-.87c-.179-1.7831-.2912-2.059-.5161-2.2906a2.2989,2.2989,0,0,0-.5232-.3818,2.4159,2.4159,0,0,0-.806-.2757,1.9077,1.9077,0,0,0-.7282.0283.6961.6961,0,0,0-.4667.2612.6319.6319,0,0,0-.0711.294A1.8991,1.8991,0,0,0,394.7971,342.7691Z"/>
          <path class="cls-21" d="M407.62,339.7078a7.8308,7.8308,0,0,0,1.6376,2.3076,2.4247,2.4247,0,0,0,.8476.5472,1.6665,1.6665,0,0,0,1.46-.0743,1.5721,1.5721,0,0,0,.5706-.9613,2.7812,2.7812,0,0,0,.0057-1.185,8.4845,8.4845,0,0,0-.8967-2.7084c-.1757-.3374-.3393-.6036-.45-.7752a.5513.5513,0,0,0-.3648-.2223.5037.5037,0,0,0-.2264.0256,7.82,7.82,0,0,0-2.8471,1.671.733.733,0,0,0-.127.2835.757.757,0,0,0,.0621.477C407.36,339.2243,407.473,339.4422,407.62,339.7078Z"/>
          <path class="cls-21" d="M411.28,337.6041a7.83,7.83,0,0,0,1.51,2.3933,2.7171,2.7171,0,0,0,.8165.5925,1.4866,1.4866,0,0,0,1.0129.165,1.6123,1.6123,0,0,0,.9155-1.0483,3.1461,3.1461,0,0,0,.15-1.3239,5.9929,5.9929,0,0,0-.2508-1.6572c-.0042-.0139.0013.0046-.2958-.78a3.7106,3.7106,0,0,0-.5323-1.014.6042.6042,0,0,0-.3522-.2419.5043.5043,0,0,0-.2274.0133,7.8152,7.8152,0,0,0-2.9338,1.5136.73.73,0,0,0-.1422.2762.756.756,0,0,0,.036.48C411.046,337.1071,411.1474,337.3308,411.28,337.6041Z"/>
          <path class="cls-21" d="M415.009,335.6058a8.7216,8.7216,0,0,0,1.0136,2.3074,2,2,0,0,0,.8638.7606,1.36,1.36,0,0,0,1.0141-.0094,1.4942,1.4942,0,0,0,.7042-.8263,3.7246,3.7246,0,0,0,.2254-1.5962,8.4687,8.4687,0,0,0-.385-2.4977,1.5557,1.5557,0,0,0-.3937-.62,1.1536,1.1536,0,0,0-.4194-.2593,1.1093,1.1093,0,0,0-.49-.0377,2.4251,2.4251,0,0,0-1.0093.3979,6.4916,6.4916,0,0,0-1.0457.7969.9059.9059,0,0,0-.2545.4384.9856.9856,0,0,0,0,.3888A3.9165,3.9165,0,0,0,415.009,335.6058Z"/>
          <path class="cls-14" d="M398.9427,348.9555a20.4066,20.4066,0,0,0,3.6056,0,24.0741,24.0741,0,0,0,10.8225-4.06,36.4883,36.4883,0,0,0,7.9569-6.55l.263.4243a34.9008,34.9008,0,0,1-7.8037,6.6465c-2.67,1.6624-6.2091,3.8106-11.1663,4.1739a19.9142,19.9142,0,0,1-3.49-.0521Z"/>
        </g>
        <g>
          <path class="cls-20" d="M397.9568,322.82a5.2233,5.2233,0,0,1,.6854-1.0892,1.7852,1.7852,0,0,1,.7283-.5235,1.2568,1.2568,0,0,1,1.725.8669,2.794,2.794,0,0,1,.0068,1.328,4.7964,4.7964,0,0,1-.1624.8212,4.7442,4.7442,0,0,1-.3676.8837,1.9779,1.9779,0,0,1-.3676.5444.9466.9466,0,0,1-.3606.2475.8824.8824,0,0,1-.4383.0212,1.968,1.968,0,0,1-.7636-.3111,6.1854,6.1854,0,0,1-.9533-.7384.9208.9208,0,0,1-.1991-.3221,1.0455,1.0455,0,0,1-.0025-.6206A4.366,4.366,0,0,1,397.9568,322.82Z"/>
          <path class="cls-20" d="M395.8535,320.8384a3.3814,3.3814,0,0,1,.7606-1.1549,1.5377,1.5377,0,0,1,.7418-.4226,1.0337,1.0337,0,0,1,.6412.0369,1.1825,1.1825,0,0,1,.582.7947,2.6246,2.6246,0,0,1-.1434,1.45c-.0964.3629-.1059.2673-.2536.7794a5.6877,5.6877,0,0,1-.3662,1.0141,1.211,1.211,0,0,1-.2253.3192.8358.8358,0,0,1-.3286.2254.8921.8921,0,0,1-.4508,0,1.5763,1.5763,0,0,1-.6854-.2532,1.5351,1.5351,0,0,1-.4976-.62,1.778,1.778,0,0,1-.1691-.5352,1.7976,1.7976,0,0,1,.0282-.6009A3.8981,3.8981,0,0,1,395.8535,320.8384Z"/>
          <path class="cls-20" d="M400.7959,324.9759a5.5165,5.5165,0,0,1,.611-1.2138,1.8861,1.8861,0,0,1,.7129-.6235,1.3272,1.3272,0,0,1,1.9.7379,2.9518,2.9518,0,0,1,.1407,1.3952,4.77,4.77,0,0,1-.3858,1.8454,2.0929,2.0929,0,0,1-.3317.6091.997.997,0,0,1-.3542.2964.9322.9322,0,0,1-.4586.0663,2.0761,2.0761,0,0,1-.8338-.25,6.5361,6.5361,0,0,1-1.0763-.68.9711.9711,0,0,1-.2416-.3185,1.1036,1.1036,0,0,1-.065-.6521A4.6092,4.6092,0,0,1,400.7959,324.9759Z"/>
          <path class="cls-20" d="M403.8667,327.0314a4.9983,4.9983,0,0,1,.6278-1.06,1.7088,1.7088,0,0,1,.6834-.52,1.2035,1.2035,0,0,1,1.6733.7849,2.6768,2.6768,0,0,1,.041,1.2708,4.6076,4.6076,0,0,1-.1341.79,4.5528,4.5528,0,0,1-.3289.8553,1.8993,1.8993,0,0,1-.3377.53.9057.9057,0,0,1-.3387.2462.8442.8442,0,0,1-.4189.0317,1.8844,1.8844,0,0,1-.7388-.2779,5.9273,5.9273,0,0,1-.9315-.682.88.88,0,0,1-.1989-.3031,1,1,0,0,1-.0185-.5938A4.1806,4.1806,0,0,1,403.8667,327.0314Z"/>
          <path class="cls-20" d="M406.4577,328.7874a4.7325,4.7325,0,0,1,.5931-1.0017,1.6154,1.6154,0,0,1,.6457-.4913,1.1371,1.1371,0,0,1,1.5811.7416,2.53,2.53,0,0,1,.0387,1.2007,4.3483,4.3483,0,0,1-.1267.7465,4.2988,4.2988,0,0,1-.3107.8081,1.7911,1.7911,0,0,1-.3191.5013.854.854,0,0,1-.32.2326.7981.7981,0,0,1-.3959.03,1.7784,1.7784,0,0,1-.698-.2625,5.601,5.601,0,0,1-.88-.6444.8321.8321,0,0,1-.1879-.2863.9447.9447,0,0,1-.0175-.5611A3.9508,3.9508,0,0,1,406.4577,328.7874Z"/>
          <path class="cls-21" d="M403.8253,321.3736a7.8884,7.8884,0,0,1,1.5024-2.4225,2.4446,2.4446,0,0,1,.818-.6032,1.6794,1.6794,0,0,1,1.4731-.0165,1.5838,1.5838,0,0,1,.6338.9309,2.802,2.802,0,0,1,.08,1.1911,8.5485,8.5485,0,0,1-.7324,2.7794c-.1556.35-.3034.628-.4038.8075a.555.555,0,0,1-.3529.2463.5066.5066,0,0,1-.2292-.0116,7.8748,7.8748,0,0,1-2.9671-1.5023.7364.7364,0,0,1-.1454-.2771.7607.7607,0,0,1,.0327-.4835C403.5936,321.8761,403.694,321.65,403.8253,321.3736Z"/>
          <path class="cls-21" d="M400.3664,319.3037a7.5214,7.5214,0,0,1,1.2-1.8006,2.3949,2.3949,0,0,1,.746-.593,1.5745,1.5745,0,0,1,1.38-.0657,1.5507,1.5507,0,0,1,.6256.8509,2.987,2.987,0,0,1,.2122,1.1243,8.11,8.11,0,0,1-.8464,3.0194,1.1649,1.1649,0,0,1-.1932.37.5965.5965,0,0,1-.3223.2428.4774.4774,0,0,1-.2152-.003,7.3857,7.3857,0,0,1-2.8316-1.307.7862.7862,0,0,1-.1456-.2547.89.89,0,0,1-.0028-.5136A4.75,4.75,0,0,1,400.3664,319.3037Z"/>
          <path class="cls-21" d="M396.4425,319.0491a7.84,7.84,0,0,1,1.27-2.3328,2.2346,2.2346,0,0,1,.6761-.5727,1.467,1.467,0,0,1,1.0516-.169,1.5465,1.5465,0,0,1,.9015.845,2.4479,2.4479,0,0,1,.26,1.069,6.5165,6.5165,0,0,1-.7012,2.6681,1.2451,1.2451,0,0,1-.432.5916.8913.8913,0,0,1-.223.1124,1.0176,1.0176,0,0,1-.5844-.0047,4.7761,4.7761,0,0,1-1.0142-.3237,5.432,5.432,0,0,1-.9859-.5915.7586.7586,0,0,1-.3474-.432.8387.8387,0,0,1-.0094-.3192A1.8586,1.8586,0,0,1,396.4425,319.0491Z"/>
          <path class="cls-21" d="M394.7971,320.1422a9.4062,9.4062,0,0,1,.6708-2.1054,3.3581,3.3581,0,0,1,1.0322-1.4139.849.849,0,0,1,.6221-.2192c.5467.0869.76.9834.7706,1.0322a2.476,2.476,0,0,1-.007.87c-.179,1.7832-.2912,2.0591-.5161,2.2907a2.2944,2.2944,0,0,1-.5232.3817,2.4109,2.4109,0,0,1-.806.2757,1.9064,1.9064,0,0,1-.7282-.0282.6964.6964,0,0,1-.4667-.2612.632.632,0,0,1-.0711-.2941A1.8986,1.8986,0,0,1,394.7971,320.1422Z"/>
          <path class="cls-21" d="M407.62,323.2034a7.8316,7.8316,0,0,1,1.6376-2.3075,2.4247,2.4247,0,0,1,.8476-.5472,1.6668,1.6668,0,0,1,1.46.0742,1.5723,1.5723,0,0,1,.5706.9613,2.7812,2.7812,0,0,1,.0057,1.185,8.4849,8.4849,0,0,1-.8967,2.7085c-.1757.3374-.3393.6035-.45.7752a.5517.5517,0,0,1-.3648.2223.5052.5052,0,0,1-.2264-.0256,7.8182,7.8182,0,0,1-2.8471-1.6711.7324.7324,0,0,1-.127-.2834.7568.7568,0,0,1,.0621-.477C407.36,323.687,407.473,323.4691,407.62,323.2034Z"/>
          <path class="cls-21" d="M411.28,325.3072a7.8293,7.8293,0,0,1,1.51-2.3933,2.7171,2.7171,0,0,1,.8165-.5925,1.4866,1.4866,0,0,1,1.0129-.165,1.612,1.612,0,0,1,.9155,1.0482,3.1466,3.1466,0,0,1,.15,1.324,5.9929,5.9929,0,0,1-.2508,1.6572c-.0042.0139.0013-.0046-.2958.78a3.7109,3.7109,0,0,1-.5323,1.0141.6042.6042,0,0,1-.3522.2419.5057.5057,0,0,1-.2274-.0133,7.8175,7.8175,0,0,1-2.9338-1.5137.7306.7306,0,0,1-.1422-.2761.7563.7563,0,0,1,.036-.48C411.046,325.8042,411.1474,325.58,411.28,325.3072Z"/>
          <path class="cls-21" d="M415.009,327.3055a8.718,8.718,0,0,1,1.0136-2.3074,2,2,0,0,1,.8638-.7606,1.359,1.359,0,0,1,1.0141.0094,1.4939,1.4939,0,0,1,.7042.8263,3.7238,3.7238,0,0,1,.2254,1.5962,8.4687,8.4687,0,0,1-.385,2.4977,1.5563,1.5563,0,0,1-.3937.62,1.1536,1.1536,0,0,1-.4194.2593,1.1108,1.1108,0,0,1-.49.0377,2.4241,2.4241,0,0,1-1.0093-.398,6.4857,6.4857,0,0,1-1.0457-.7969.9055.9055,0,0,1-.2545-.4383.9856.9856,0,0,1,0-.3888A3.9139,3.9139,0,0,1,415.009,327.3055Z"/>
          <path class="cls-14" d="M398.9427,313.9558a20.4066,20.4066,0,0,1,3.6056,0,24.0741,24.0741,0,0,1,10.8225,4.06,36.49,36.49,0,0,1,7.9569,6.55l.263-.4243a34.9035,34.9035,0,0,0-7.8037-6.6465c-2.67-1.6624-6.2091-3.81-11.1663-4.1738a19.8945,19.8945,0,0,0-3.49.0521Z"/>
        </g>
      </g>
    </g>
  </g>
</svg>
