<svg id="Layer_1" data-name="Layer 1" xmlns="http://www.w3.org/2000/svg" width="512" height="512" viewBox="0 0 512 512"><defs><style>.cls-1{fill:#9b7113;}.cls-2{fill:#ffb805;}</style></defs><g id="Companion"><g id="Meeple"><path class="cls-1" d="M421.9676,320.1024a8.9144,8.9144,0,0,1,2.9317,2.0242,15.4533,15.4533,0,0,1,2.666,3.2583,18.9488,18.9488,0,0,1,2.3241,6.061,51.8487,51.8487,0,0,1,.8773,6.061,3.58,3.58,0,0,0,.1937,1.1886,3.78,3.78,0,0,0,.4215.8393,6.9981,6.9981,0,0,0,1.5608,1.6862c.3331.2708.8211.6785,1.39,1.1962a38.28,38.28,0,0,1,4.5344,5.047c4.3166,5.437,4.1209,5.1246,4.4774,5.6509a33.2946,33.2946,0,0,1,3.2546,6.2336,12.4513,12.4513,0,0,1,.7063,2.8009c.3162,2.36-.2459,3.2872-.4254,3.5545a3.2417,3.2417,0,0,1-.676.7292q-1.755,1.1367-3.6684,2.2785-2.2541,1.3416-4.4053,2.4913c.3677,1.021.8948,2.493,1.5191,4.2685,2.0019,5.6929,2.9959,8.5414,3.7824,11.2561a77.2214,77.2214,0,0,1,2.2375,10.3889c.0344.1892.1912,1.1384-.3319,1.5515a.8025.8025,0,0,1-.1359.0867l-14.5828,8.5674q-1.0368-3.697-2.0735-7.394a26.9673,26.9673,0,0,0-3.9875-6.3116,28.315,28.315,0,0,0-13.3752-8.6358l-9.7113,5.5028.3019-16.4531a2.9576,2.9576,0,0,1-1.8467-3.3933,28.1128,28.1128,0,0,1,1.39-5.7078,42.6388,42.6388,0,0,1,2.21-5.1495c1.3138-2.5117,2.814-4.7394,2.814-4.74a30.6181,30.6181,0,0,0,2.2216-4.01,8.0111,8.0111,0,0,0,.41-1.1392,3.24,3.24,0,0,0,.2364-1.305,2.2789,2.2789,0,0,0-.4529-1.0989,3.8937,3.8937,0,0,0-1.595-1.2532s-.2614-.1256-3.0988-1.9368a19.1418,19.1418,0,0,1-3.3723-3.0077c-1.4341-1.4937-5.1253-2.8785-14.9477-2.4908q2.8079-1.5048,5.6625-3.1031,5.6079-3.1413,10.8232-6.323l1.4611-1.148c1.8406-1.079,4.378-2.5678,6.2177-3.6484q4.1875-2.4592,8.3651-4.919A7.6288,7.6288,0,0,1,421.9676,320.1024Z"/><path class="cls-2" d="M407.3848,328.67a9.2727,9.2727,0,0,1,2.9317,2.0241,15.4533,15.4533,0,0,1,2.666,3.2583,18.95,18.95,0,0,1,2.3241,6.061,51.8562,51.8562,0,0,1,.8772,6.061,3.5826,3.5826,0,0,0,.1937,1.1886,3.7844,3.7844,0,0,0,.4216.8393,6.996,6.996,0,0,0,1.5608,1.6862c.3331.2708.8211.6785,1.39,1.1962a38.2791,38.2791,0,0,1,4.5343,5.047c4.3167,5.4371,4.121,5.1246,4.4775,5.6509a29.2852,29.2852,0,0,1,3.2545,6.2336,9.4,9.4,0,0,1,.7079,3.5062c-.0081,1.0973-.02,2.7919-1.1029,3.5784-.99.72-2.3642.3067-3.9533-.1709a13.5387,13.5387,0,0,1-4.4887-2.3583,1.1852,1.1852,0,0,0-.7862-.2734.7063.7063,0,0,0-.5354.2051.6632.6632,0,0,0-.133.5164c.0872.6031.2337,1.473.4842,2.5051a29.7835,29.7835,0,0,0,1.08,3.45c.6232,1.7107,1.16,3.452,1.7773,5.1647.8906,2.4694,2.65,7.3475,3.7824,11.2561a77.2356,77.2356,0,0,1,2.2375,10.389c.0148.0873.1645,1.0231-.2171,1.4466a.8929.8929,0,0,1-.2507.1915.8814.8814,0,0,1-.6456.019c-.6252-.3672-1.5856-.93-2.7609-1.614-4.7392-2.7574-7.1089-4.1361-7.4623-4.2951-1.3128-.5908-2.4878-1.45-3.748-2.1461a2.9855,2.9855,0,0,1-.8395-.6641,3.2036,3.2036,0,0,1-.6684-1.3368c-.2653-.9855-.7559-1.8979-1.0633-2.871-.6474-2.0488-.7621-1.746-2.0052-5.1647-.6566-1.8058-.9848-2.7087-1.1089-3.0989-.3233-1.0171-.8683-1.9529-1.2152-2.9621a2.1765,2.1765,0,0,0-.7139-1.033,1.0221,1.0221,0,0,0-.7292-.2734c-.2616.0358-.4416.2277-.7747.6835a7.891,7.891,0,0,0-.7747,1.17c-.3953.8173-.568.7977-2.628,3.9192-.3662.5549-.9153,1.3959-1.5775,2.447a.9991.9991,0,0,1-.4322.3822.8949.8949,0,0,1-.9068-.0456l-7.599-4.4546L387.19,382.598a2.9576,2.9576,0,0,1-1.8466-3.3934,28.1151,28.1151,0,0,1,1.39-5.7078,42.6138,42.6138,0,0,1,2.21-5.1495c1.3138-2.5117,2.814-4.7394,2.814-4.7394a30.6261,30.6261,0,0,0,2.2216-4.01,8.0122,8.0122,0,0,0,.41-1.1393,3.2381,3.2381,0,0,0,.2363-1.305,2.2785,2.2785,0,0,0-.4528-1.0989,3.8946,3.8946,0,0,0-1.595-1.2532s-.2614-.1256-3.0989-1.9367a14.812,14.812,0,0,1-3.3722-3.0078,10.0789,10.0789,0,0,1-2.4153-4.8647,6.5409,6.5409,0,0,1,.8317-5.0812,6.1477,6.1477,0,0,1,3.1216-1.971,13.17,13.17,0,0,1,6.8129-.4557c1.4519.3178,2.9989.1937,4.4092.6627a1.0856,1.0856,0,0,0,.9227-.0133,1.0479,1.0479,0,0,0,.3176-.8547,19.9667,19.9667,0,0,1,.2178-2.8024,11.3385,11.3385,0,0,1,.7633-3.1217c.4758-1.0833,1.13-2.5734,2.6-3.13A4.9934,4.9934,0,0,1,407.3848,328.67Z"/></g></g></svg>