<svg id="Layer_1" data-name="Layer 1" xmlns="http://www.w3.org/2000/svg" xmlns:xlink="http://www.w3.org/1999/xlink" width="512" height="512" viewBox="0 0 512 512"><defs><style>.cls-1{fill:url(#linear-gradient);}.cls-2{fill:url(#linear-gradient-2);}.cls-3{fill:#e5e5e5;}</style><linearGradient id="linear-gradient" x1="413.4248" y1="369.7428" x2="443.497" y2="369.7428" gradientUnits="userSpaceOnUse"><stop offset="0" stop-color="#ccc"/><stop offset="0.2725" stop-color="#bcbcbc"/><stop offset="0.8054" stop-color="#919191"/><stop offset="1" stop-color="gray"/></linearGradient><linearGradient id="linear-gradient-2" x1="383.1564" y1="369.7426" x2="413.4255" y2="369.7426" xlink:href="#linear-gradient"/></defs><g id="Companion"><g id="Mini-Dice"><g id="White"><polygon class="cls-1" points="413.426 361.111 443.497 343.636 443.497 378.374 413.425 395.85 413.426 361.111"/><polygon class="cls-2" points="413.426 361.111 413.425 395.85 383.156 378.374 383.156 343.635 413.426 361.111"/><polygon class="cls-3" points="383.156 343.635 413.228 326.16 443.497 343.636 413.426 361.111 383.156 343.635"/></g><g id="Three"><path d="M435.2047,354.0392c1.8215-1.0517,3.3044-.2139,3.31,1.8853a7.2523,7.2523,0,0,1-3.2882,5.6943c-1.8208,1.0513-3.3029.207-3.3088-1.8853A7.2352,7.2352,0,0,1,435.2047,354.0392Z"/><path d="M428.45,366.4227c1.8282-1.0554,3.3037-.2058,3.31,1.8861a7.24,7.24,0,0,1-3.2875,5.6943c-1.8215,1.0517-3.3036.2066-3.31-1.8853A7.2484,7.2484,0,0,1,428.45,366.4227Z"/><path d="M421.6935,377.8674c1.8223-1.0509,3.3029-.2058,3.31,1.8861a7.2445,7.2445,0,0,1-3.2874,5.6943c-1.82,1.0517-3.3036.2066-3.31-1.8857A7.255,7.255,0,0,1,421.6935,377.8674Z"/></g><g id="Two"><path d="M407.2049,379.6443a6.89,6.89,0,0,0-2.3963-2.5283,2.4144,2.4144,0,0,0-2.4021-.2427c-1.3309.7533-1.3383,3.22-.0162,5.51a6.9052,6.9052,0,0,0,2.3962,2.5282,2.4187,2.4187,0,0,0,2.4035.2424C408.515,384.3924,408.5224,381.9262,407.2049,379.6443Z"/><path d="M394.1909,357.1027a6.9043,6.9043,0,0,0-2.3962-2.5286,2.418,2.418,0,0,0-2.4036-.2424c-1.325.7559-1.3324,3.2222-.0147,5.5092a6.9041,6.9041,0,0,0,2.3961,2.5286,2.4177,2.4177,0,0,0,2.4037.2424C395.5012,361.8505,395.5086,359.3842,394.1909,357.1027Z"/></g><path id="One" d="M416.8623,341.5825a7.8164,7.8164,0,0,0-7.0946,0c-1.9493,1.1327-1.939,2.9723.0265,4.1074a7.8146,7.8146,0,0,0,7.0877,0C418.8349,344.5548,418.8247,342.7154,416.8623,341.5825Z"/></g></g></svg>