<svg id="Layer_1" data-name="Layer 1" xmlns="http://www.w3.org/2000/svg" xmlns:xlink="http://www.w3.org/1999/xlink" width="512" height="512" viewBox="0 0 512 512">
  <defs>
    <style>
      .cls-1 {
        fill: none;
      }

      .cls-2 {
        fill: url(#radial-gradient);
      }

      .cls-3 {
        fill: #cc8200;
      }

      .cls-4 {
        fill: #ffc33e;
      }

      .cls-5 {
        fill: #3f2800;
      }

      .cls-6 {
        fill: #ff354b;
      }

      .cls-7 {
        clip-path: url(#clip-path);
      }

      .cls-8 {
        fill: #960cd4;
      }

      .cls-9 {
        fill: url(#radial-gradient-2);
      }

      .cls-10 {
        fill: #e23b3b;
      }

      .cls-11 {
        fill: url(#radial-gradient-3);
      }

      .cls-12 {
        fill: #980bd4;
      }

      .cls-13 {
        fill: #a52336;
      }

      .cls-14 {
        fill: #fed104;
      }

      .cls-15 {
        fill: url(#radial-gradient-4);
      }

      .cls-16 {
        fill: #fec70a;
      }

      .cls-17 {
        fill: #a87e07;
      }
    </style>
    <radialGradient id="radial-gradient" cx="203.1363" cy="110.3363" r="9.2378" gradientTransform="translate(263.8499 -112.716) rotate(76.7175)" gradientUnits="userSpaceOnUse">
      <stop offset="0" stop-color="#ffb805"/>
      <stop offset="0.3706" stop-color="#fcb505"/>
      <stop offset="0.6484" stop-color="#f3ab03"/>
      <stop offset="0.8952" stop-color="#e49b01"/>
      <stop offset="1" stop-color="#db9200"/>
    </radialGradient>
    <clipPath id="clip-path">
      <path class="cls-1" d="M320.0035,240.87A136.5858,136.5858,0,0,1,205.8,245.8q.0111-14.512.0223-29.0239l113.763-7.8155Z"/>
    </clipPath>
    <radialGradient id="radial-gradient-2" cx="265.702" cy="243.4832" r="9.9282" gradientTransform="translate(441.626 -71.0519) rotate(76.7175)" xlink:href="#radial-gradient"/>
    <radialGradient id="radial-gradient-3" cx="112.2353" cy="164.6658" r="9.9282" gradientTransform="translate(246.7098 17.6004) rotate(76.7175)" xlink:href="#radial-gradient"/>
    <radialGradient id="radial-gradient-4" cx="378.3747" cy="159.2494" r="9.9282" gradientTransform="translate(446.4313 -245.5914) rotate(76.7175)" xlink:href="#radial-gradient"/>
  </defs>
  <g id="Crown_Hats" data-name="Crown &amp; Hats">
    <g id="Joker">
      <g>
        <circle class="cls-2" cx="203.1363" cy="110.3363" r="9.2378" transform="translate(49.0804 282.6884) rotate(-76.7175)"/>
        <path class="cls-3" d="M194.4609,107.1551a1.31,1.31,0,0,0-.7228.4152l-.3053,1.1695,15.6735,1.0653,3.3487-1.2009a1.41,1.41,0,0,0,.0946-.66,1.3431,1.3431,0,0,0-.05-.2509,1.1752,1.1752,0,0,0-.1237-.173,1.2558,1.2558,0,0,0-.5646-.3668l.197.6a2.035,2.035,0,0,1-.3485.2288,2.0737,2.0737,0,0,1-.7775.2231,72.8613,72.8613,0,0,1-15.8967-.0441.8674.8674,0,0,1-.4941-.2.84.84,0,0,1-.2087-.27Z"/>
        <path class="cls-4" d="M212.6051,110.66a1.5868,1.5868,0,0,1-.1671.3669,2.314,2.314,0,0,1-1.5566.9116,47.2656,47.2656,0,0,1-7.6181.5,52.8531,52.8531,0,0,1-8.6311-.763,1.8648,1.8648,0,0,1-1.1263-.6919,1.3915,1.3915,0,0,1-.1617-.3234,3.3549,3.3549,0,0,1-.1616-1.4087,4.0664,4.0664,0,0,1,.5555-1.6806.9246.9246,0,0,0,.068.48,1.0471,1.0471,0,0,0,.716.5542,64.96,64.96,0,0,0,8.6142.5774c2.2535-.0894,3.1081-.05,5.5312-.2252,1-.0724,1.84-.1506,2.4519-.2122a2.936,2.936,0,0,0,.8651-.2826c.3459-.1776.43-.3128.47-.4a.6584.6584,0,0,0,.0455-.3683,5.4291,5.4291,0,0,1,.29,1.5921A4.08,4.08,0,0,1,212.6051,110.66Z"/>
        <circle class="cls-5" cx="202.9747" cy="114.7589" r="1.9168"/>
        <rect class="cls-5" x="202.5705" y="115.6942" width="0.5658" height="3.8799"/>
      </g>
      <path class="cls-6" d="M336.7333,206.6475c0,11.9679-7.882,23.9359-23.6462,33.0671-31.5283,18.2625-82.6458,18.2625-114.1741,0-15.7641-9.1312-23.6462-21.0992-23.6462-33.0671V180.1406H336.7333Z"/>
      <g class="cls-7">
        <path class="cls-8" d="M336.7333,206.6475c0,11.9679-7.882,23.9359-23.6462,33.0671-31.5283,18.2625-82.6458,18.2625-114.1741,0-15.7641-9.1312-23.6462-21.0992-23.6462-33.0671V180.1406H336.7333Z"/>
      </g>
      <g>
        <circle class="cls-9" cx="265.702" cy="243.4833" r="9.9282" transform="translate(-32.3136 446.1365) rotate(-76.7175)"/>
        <path class="cls-3" d="M256.3782,240.0643a1.4073,1.4073,0,0,0-.7768.4461l-.3281,1.257,16.8448,1.145,3.599-1.2907a1.5138,1.5138,0,0,0,.1017-.7093,1.4527,1.4527,0,0,0-.0538-.27,1.27,1.27,0,0,0-.133-.1859,1.3482,1.3482,0,0,0-.6068-.3943l.2117.6452a2.1911,2.1911,0,0,1-.3745.2459,2.2281,2.2281,0,0,1-.8356.24,78.314,78.314,0,0,1-17.0848-.0474.932.932,0,0,1-.5311-.215.9058.9058,0,0,1-.2243-.29Z"/>
        <path class="cls-4" d="M275.8784,243.8307a1.6969,1.6969,0,0,1-.18.3943,2.4867,2.4867,0,0,1-1.6728.98,50.7969,50.7969,0,0,1-8.1875.5371,56.8031,56.8031,0,0,1-9.2762-.82,2.0048,2.0048,0,0,1-1.21-.7437,1.4869,1.4869,0,0,1-.1737-.3475,3.605,3.605,0,0,1-.1738-1.514,4.3714,4.3714,0,0,1,.5971-1.8063.994.994,0,0,0,.0731.5156,1.1255,1.1255,0,0,0,.7694.5957,69.8056,69.8056,0,0,0,9.2581.62c2.4219-.096,3.34-.0533,5.9445-.242,1.075-.0778,1.978-.1619,2.6352-.2281a3.155,3.155,0,0,0,.93-.3037c.3717-.1909.4619-.3362.5046-.43a.7064.7064,0,0,0,.0488-.3958,5.8342,5.8342,0,0,1,.3121,1.7111A4.3856,4.3856,0,0,1,275.8784,243.8307Z"/>
        <circle class="cls-5" cx="265.5283" cy="248.2364" r="2.0601"/>
        <rect class="cls-5" x="265.0939" y="249.2416" width="0.6081" height="4.1699"/>
      </g>
      <ellipse class="cls-10" cx="256.0001" cy="180.1406" rx="80.7333" ry="46.764"/>
      <g>
        <circle class="cls-11" cx="112.2353" cy="164.6658" r="9.9282" transform="translate(-73.8119 236.0663) rotate(-76.7175)"/>
        <path class="cls-3" d="M102.9115,161.2468a1.4082,1.4082,0,0,0-.7768.4462l-.3281,1.257,16.8449,1.1449,3.599-1.2906a1.5156,1.5156,0,0,0,.1017-.7093,1.4551,1.4551,0,0,0-.0539-.27,1.2555,1.2555,0,0,0-.133-.1859,1.3485,1.3485,0,0,0-.6067-.3942l.2117.6452a2.1883,2.1883,0,0,1-.3746.2459,2.2272,2.2272,0,0,1-.8355.24,78.3066,78.3066,0,0,1-17.0849-.0473.9325.9325,0,0,1-.531-.215.9041.9041,0,0,1-.2243-.29Z"/>
        <path class="cls-4" d="M122.4118,165.0133a1.7031,1.7031,0,0,1-.18.3943,2.4873,2.4873,0,0,1-1.6729.98,50.8008,50.8008,0,0,1-8.1874.5372,56.8023,56.8023,0,0,1-9.2762-.82,2.0045,2.0045,0,0,1-1.21-.7437,1.4959,1.4959,0,0,1-.1738-.3475,3.6048,3.6048,0,0,1-.1737-1.5141,4.372,4.372,0,0,1,.597-1.8062.9953.9953,0,0,0,.0731.5156,1.1258,1.1258,0,0,0,.7695.5957,69.8221,69.8221,0,0,0,9.258.62c2.422-.0961,3.34-.0534,5.9446-.242,1.075-.0779,1.978-.1619,2.6352-.2282a3.1483,3.1483,0,0,0,.93-.3037c.3717-.1908.4619-.3361.5046-.43a.7066.7066,0,0,0,.0489-.3958,5.8335,5.8335,0,0,1,.312,1.7112A4.3852,4.3852,0,0,1,122.4118,165.0133Z"/>
        <circle class="cls-5" cx="112.0616" cy="169.4189" r="2.0601"/>
        <rect class="cls-5" x="111.6272" y="170.4242" width="0.6081" height="4.1699"/>
      </g>
      <path class="cls-12" d="M205.8223,216.7761a71.5607,71.5607,0,0,1,3.9886-26.5725c7.7887-22.0181,24.3556-33.739,30.6558-37.7369A106.5242,106.5242,0,0,0,212.6,129.9333c-9.0219-5.036-29.3245-16.3688-53.7333-12.1333a70.0293,70.0293,0,0,0-17.4405,5.6256c-5.9576,2.8068-17.8322,8.5862-25.8929,21.4411A50.256,50.256,0,0,0,110.5,155.5a3.7525,3.7525,0,0,0,3.0833.1,22.9088,22.9088,0,0,1,4.6667-4c12.5762-8.1009,29.3305-.8569,32.0833.3333,17.3367,7.4958,23.6629,24.5347,24.9335,28.2073a29.9851,29.9851,0,0,0,.5013,5.2036C179.2207,203.92,199.47,213.9216,205.8223,216.7761Z"/>
      <path class="cls-13" d="M239.05,197.75a107.5212,107.5212,0,0,0-10.65-13.0167l7.8918,16.1263a70.04,70.04,0,0,0,.5594,24.7173c3.4578.4832,7.1993.8723,11.1957,1.1016,3.5105.2015,6.836.2577,9.9513.2117-5.1758-7.0887-9.0016-13.0593-11.5493-17.2217C243.3822,204.6582,242.026,202.0286,239.05,197.75Z"/>
      <path class="cls-14" d="M216.3165,74.6832A16.5519,16.5519,0,0,1,218.7,74.1c13.0913-2.1869,25.5762,12.1793,36.7,25.3a198.5663,198.5663,0,0,1,24.242,36.0182l-14.1087,14.31-18.36.6205Z"/>
      <path class="cls-14" d="M204.5,102.6a11.16,11.16,0,0,1,6.2331-3.5333q-.65-1.6666-1.3-3.3334L205.3,97.3Z"/>
      <g>
        <circle class="cls-15" cx="378.3747" cy="159.2494" r="9.9282" transform="translate(136.4527 490.9142) rotate(-76.7175)"/>
        <path class="cls-3" d="M369.0509,155.83a1.4082,1.4082,0,0,0-.7768.4462l-.3281,1.257,16.8448,1.1449,3.599-1.2906a1.5167,1.5167,0,0,0,.1018-.7093,1.4547,1.4547,0,0,0-.054-.27,1.2544,1.2544,0,0,0-.1329-.1859,1.3492,1.3492,0,0,0-.6068-.3942l.2117.6452a2.1911,2.1911,0,0,1-.3745.2459,2.2276,2.2276,0,0,1-.8356.24,78.3057,78.3057,0,0,1-17.0848-.0473.9335.9335,0,0,1-.5311-.215.907.907,0,0,1-.2243-.29Z"/>
        <path class="cls-4" d="M388.5511,159.5969a1.6988,1.6988,0,0,1-.18.3943,2.4869,2.4869,0,0,1-1.6728.98,50.8013,50.8013,0,0,1-8.1875.5372,56.8031,56.8031,0,0,1-9.2762-.82,2.0048,2.0048,0,0,1-1.2105-.7437,1.4907,1.4907,0,0,1-.1737-.3475,3.6036,3.6036,0,0,1-.1738-1.5141,4.37,4.37,0,0,1,.5971-1.8062.9942.9942,0,0,0,.0731.5156,1.1259,1.1259,0,0,0,.7694.5957,69.8233,69.8233,0,0,0,9.2581.62c2.4219-.0961,3.34-.0534,5.9445-.242,1.075-.0779,1.978-.1619,2.6352-.2282a3.152,3.152,0,0,0,.93-.3037c.3717-.1908.4619-.3361.5046-.43a.7064.7064,0,0,0,.0488-.3958,5.8342,5.8342,0,0,1,.3121,1.7111A4.3859,4.3859,0,0,1,388.5511,159.5969Z"/>
        <circle class="cls-5" cx="378.2009" cy="164.0025" r="2.0601"/>
        <rect class="cls-5" x="377.7666" y="165.0078" width="0.6081" height="4.1699"/>
      </g>
      <path class="cls-12" d="M265.5333,149.7283c4.3439-5.7214,17.8605-21.9241,41.0667-27.1283,28.4471-6.3795,55.7823,7.2832,70.2,23.6,1.4953,1.6923,2.6413,3.1751,3.4,4.2a2.7087,2.7087,0,0,1-1.8667.4667A2.6655,2.6655,0,0,1,376.9,150.2a21.3747,21.3747,0,0,0-9.3-4.6667c-11.2787-2.4075-20.3709,5.9732-21.1,6.6667,0,0-9.5688,9.1021-9.7447,27.7647a28.4881,28.4881,0,0,1-.2922,4.01,29.8969,29.8969,0,0,1-1.2369,5.1837,31.8936,31.8936,0,0,1-1.9637,4.5912,35.0128,35.0128,0,0,1-2.0425,3.3986,46.7462,46.7462,0,0,1-8.2825,9.1764c-.8578.7358-1.981,1.6487-3.3522,2.6356a72.53,72.53,0,0,0-54.052-59.2323Z"/>
      <path class="cls-14" d="M264.8629,149.7509A80.1953,80.1953,0,0,1,277.1,137.4a71.2859,71.2859,0,0,1,23.4574-13.1347,67.6919,67.6919,0,0,1,20.1093-3.3986,64.7606,64.7606,0,0,1,22.3172,3.7716A68.9826,68.9826,0,0,0,297.75,126.8a68.2185,68.2185,0,0,0-29.5784,23.65c-.663-.1768-1.3666-.3418-2.1091-.4873Q265.4484,149.8422,264.8629,149.7509Z"/>
      <path class="cls-6" d="M240.4667,152.4667a45.8428,45.8428,0,0,1,10.1333-3.2A257.3342,257.3342,0,0,1,260.6,182a257.9819,257.9819,0,0,1,6.7,52.5,3.3682,3.3682,0,0,1-3.45-.05,196.453,196.453,0,0,1-16.1833-23.05c-2.3432-3.9252-4.5739-7.9967-8.6167-13.65a129.3171,129.3171,0,0,0-10.65-13.0167L236.2729,201q3.4323,7.4511,6.86,14.9332,2.4636,5.377,4.9136,10.7452a118.6829,118.6829,0,0,1-42.2246-9.9024c-.06-8.0888.8695-27.1933,12.7777-44.5761C222.312,166.7814,228.64,157.7878,240.4667,152.4667Z"/>
      <path class="cls-16" d="M250.6,149.2667a64.052,64.052,0,0,1,26.1333.5333,52.4192,52.4192,0,0,1,20.1333,8.6667c10.1373,7.3794,14.5991,16.7016,16.9334,21.7333a63.6214,63.6214,0,0,1,5.7853,28.7606,86.82,86.82,0,0,1-12.2772,7.29,92.7819,92.7819,0,0,1-16.6552,6.1415,113.1718,113.1718,0,0,1-14.9524,3.1046q-.3888-7.3912-.7-14.8964-.7463-18-1-35.4.5,17.7,1,35.4c-.7546,3.138-1.6393,6.415-2.6786,9.808-1.5611,5.0965-3.27,9.7988-5.0214,14.092a3.3288,3.3288,0,0,1-.8125.3375,3.4344,3.4344,0,0,1-.37.0754,3.4727,3.4727,0,0,1-.5676.0371,264.8913,264.8913,0,0,0-14.95-85.6833Z"/>
      <path class="cls-6" d="M247.1733,150.3488Q230.5331,74.0539,217,74.6q-7.963.3221-14.85,27.25a3.5339,3.5339,0,0,0,2.35.75q2.5622-5.0925,4.1-4.8,3.5871.6824,1.6,30.6667a91.3295,91.3295,0,0,1,30.2667,24Z"/>
      <path class="cls-17" d="M270.3512,226.1623A84.2458,84.2458,0,0,0,274.35,208.7c.6574-5.5839.5807-9.8811.45-17.2-.1209-6.7732-.4832-12.38-.8-16.3a188.1836,188.1836,0,0,1,4.7067,49.8392c-1.18.19-2.1974.3411-3.0062.4572-1.0656.1528-2.3244.3324-3.9852.52C271.1573,226.08,270.6888,226.1283,270.3512,226.1623Z"/>
      <path class="cls-14" d="M141.4262,123.4256a85.9779,85.9779,0,0,1,96.6729,30.0023l2.3676-.9612a87.71,87.71,0,0,0-26.2191-23.9041A86.532,86.532,0,0,0,188.1319,118.19a78.71,78.71,0,0,0-16.73-1.638,74.6335,74.6335,0,0,0-11.1565,1.003c-2.4662.414-4.562.8965-6.1663,1.3113A73.2337,73.2337,0,0,0,141.4262,123.4256Z"/>
    </g>
  </g>
</svg>
