<svg xmlns="http://www.w3.org/2000/svg" xmlns:xlink="http://www.w3.org/1999/xlink" width="512" height="512" viewBox="0 0 512 512"><defs><style>.cls-1{isolation:isolate;}.cls-11,.cls-2{fill:#fff;}.cls-3{fill:#4474b8;}.cls-4{fill:#4a7fbf;}.cls-5{fill:#1f8c37;}.cls-6{fill:#29a73c;}.cls-7{fill:#c60013;}.cls-8{fill:#f4001e;}.cls-9{fill:url(#radial-gradient);}.cls-10{fill:url(#linear-gradient);}.cls-11{mix-blend-mode:overlay;}.cls-12{fill:#c95400;}.cls-13{fill:#bfbfbf;}.cls-14{fill:#ffe605;}.cls-15{fill:url(#linear-gradient-2);}.cls-16{fill:url(#linear-gradient-3);}.cls-17{fill:url(#linear-gradient-4);}.cls-18{fill:url(#linear-gradient-5);}.cls-19{fill:url(#linear-gradient-6);}.cls-20{fill:url(#linear-gradient-7);}.cls-21{fill:url(#linear-gradient-8);}.cls-22{fill:#fd7701;}.cls-23{fill:url(#radial-gradient-2);}.cls-24{fill:url(#radial-gradient-3);}.cls-25{fill:url(#radial-gradient-4);}.cls-26{fill:url(#radial-gradient-5);}.cls-27{fill:url(#radial-gradient-6);}.cls-28{fill:url(#radial-gradient-7);}.cls-29{fill:url(#Degradado_sin_nombre_30);}.cls-30{fill:url(#Degradado_sin_nombre_337);}.cls-31{fill:#a50018;}.cls-32{fill:url(#radial-gradient-8);}.cls-33{fill:url(#Degradado_sin_nombre_30-2);}.cls-34{fill:url(#Degradado_sin_nombre_337-2);}.cls-35{fill:url(#radial-gradient-9);}.cls-36{fill:url(#Degradado_sin_nombre_30-3);}.cls-37{fill:url(#radial-gradient-10);}.cls-38{fill:url(#radial-gradient-11);}</style><radialGradient id="radial-gradient" cx="337.4432" cy="144.992" r="0.7874" gradientUnits="userSpaceOnUse"><stop offset="0" stop-color="#f4aec2"/><stop offset="0.0902" stop-color="#f791a0"/><stop offset="0.1995" stop-color="#f9747f"/><stop offset="0.3171" stop-color="#fb5c63"/><stop offset="0.4437" stop-color="#fd4a4e"/><stop offset="0.5835" stop-color="#fe3d3f"/><stop offset="0.747" stop-color="#ff3536"/><stop offset="0.9916" stop-color="#f33"/></radialGradient><linearGradient id="linear-gradient" x1="181.9579" y1="153.9525" x2="329.9078" y2="153.9525" gradientUnits="userSpaceOnUse"><stop offset="0" stop-color="#ff8205"/><stop offset="0.1684" stop-color="#ffab05"/><stop offset="0.2581" stop-color="#ffbb05"/><stop offset="0.3948" stop-color="#ffb204"/><stop offset="0.6212" stop-color="#fe9803"/><stop offset="0.9077" stop-color="#fc7001"/><stop offset="1" stop-color="#fc6100"/></linearGradient><linearGradient id="linear-gradient-2" x1="243.1106" y1="207.1723" x2="304.3936" y2="196.1235" gradientUnits="userSpaceOnUse"><stop offset="0" stop-color="#ff8205"/><stop offset="0.1614" stop-color="#ffab05"/><stop offset="0.2473" stop-color="#ffbb05"/><stop offset="0.3421" stop-color="#ffc405"/><stop offset="0.4987" stop-color="#ffdd05"/><stop offset="0.5645" stop-color="#ffea05"/><stop offset="0.6358" stop-color="#ffda05"/><stop offset="0.7443" stop-color="#ffc905"/><stop offset="0.8611" stop-color="#ffbe05"/><stop offset="1" stop-color="#ffbb05"/></linearGradient><linearGradient id="linear-gradient-3" x1="194.8468" y1="125.0623" x2="181.4756" y2="161.0909" xlink:href="#linear-gradient"/><linearGradient id="linear-gradient-4" x1="182.9749" y1="171.3115" x2="220.3918" y2="207.4304" xlink:href="#linear-gradient-2"/><linearGradient id="linear-gradient-5" x1="326.8834" y1="188.4336" x2="335.7037" y2="144.4211" xlink:href="#linear-gradient-2"/><linearGradient id="linear-gradient-6" x1="283.7863" y1="114.5558" x2="319.3495" y2="145.1047" xlink:href="#linear-gradient-2"/><linearGradient id="linear-gradient-7" x1="213.3422" y1="124.2818" x2="257.0781" y2="117.7811" xlink:href="#linear-gradient"/><linearGradient id="linear-gradient-8" x1="173.6125" y1="206.6029" x2="337.0769" y2="206.6029" xlink:href="#linear-gradient-2"/><radialGradient id="radial-gradient-2" cx="331.8834" cy="132.5035" r="5.9963" gradientUnits="userSpaceOnUse"><stop offset="0" stop-color="#ffea05"/><stop offset="0.1523" stop-color="#ffe405"/><stop offset="0.363" stop-color="#ffd205"/><stop offset="0.5587" stop-color="#ffbb05"/><stop offset="0.6842" stop-color="#ffb205"/><stop offset="1" stop-color="#ff9f06"/></radialGradient><radialGradient id="radial-gradient-3" cx="236.5776" cy="187.3353" r="7.4162" xlink:href="#radial-gradient-2"/><radialGradient id="radial-gradient-4" cx="311.7386" cy="176.1208" r="6.7853" xlink:href="#radial-gradient-2"/><radialGradient id="radial-gradient-5" cx="275.4308" cy="100.2401" r="5.8785" xlink:href="#radial-gradient-2"/><radialGradient id="radial-gradient-6" cx="199.6412" cy="112.5482" r="6.1944" xlink:href="#radial-gradient-2"/><radialGradient id="radial-gradient-7" cx="180.8987" cy="155.8995" r="6.5662" xlink:href="#radial-gradient-2"/><radialGradient id="Degradado_sin_nombre_30" cx="-545.6693" cy="-2954.5718" r="2.3513" gradientTransform="translate(-103.8097 -2762.5908) rotate(-175.9953)" gradientUnits="userSpaceOnUse"><stop offset="0" stop-color="#80cef4"/><stop offset="0.096" stop-color="#7ac6ef"/><stop offset="0.4376" stop-color="#69addf"/><stop offset="0.7488" stop-color="#5f9dd5"/><stop offset="1" stop-color="#5b98d2"/></radialGradient><radialGradient id="Degradado_sin_nombre_337" cx="562.8389" cy="187.5668" r="1.1066" gradientTransform="matrix(0.679, 0.7341, -0.7341, 0.679, -9.6693, -329.2106)" gradientUnits="userSpaceOnUse"><stop offset="0" stop-color="#b3d6a6"/><stop offset="0.0886" stop-color="#a9d29e"/><stop offset="0.7094" stop-color="#65b866"/><stop offset="1" stop-color="#4aae50"/></radialGradient><radialGradient id="radial-gradient-8" cx="1377.3083" cy="643.9301" r="1.6518" gradientTransform="translate(-515.459 1522.8082) rotate(-85.456)" xlink:href="#radial-gradient"/><radialGradient id="Degradado_sin_nombre_30-2" cx="325.0818" cy="218.2956" r="2.6249" gradientTransform="translate(28.6107 -55.755) rotate(8.8081)" xlink:href="#Degradado_sin_nombre_30"/><radialGradient id="Degradado_sin_nombre_337-2" cx="330.6166" cy="213.0828" r="1.1832" gradientTransform="matrix(1.1519, 0.1862, -0.1352, 0.9261, -35.4304, -59.8557)" xlink:href="#Degradado_sin_nombre_337"/><radialGradient id="radial-gradient-9" cx="1402.2956" cy="711.313" r="1.4304" gradientTransform="matrix(-0.0264, -1.0414, 0.9997, -0.0253, -357.9957, 1668.1068)" xlink:href="#radial-gradient"/><radialGradient id="Degradado_sin_nombre_30-3" cx="175.0168" cy="185.159" r="2.5242" gradientTransform="matrix(1, 0, 0, 1, 0, 0)" xlink:href="#Degradado_sin_nombre_30"/><radialGradient id="radial-gradient-10" cx="167.8357" cy="180.5226" r="0.9072" gradientTransform="translate(-6.0262 7.825) rotate(-4.3338)" gradientUnits="userSpaceOnUse"><stop offset="0" stop-color="#b3d6a6"/><stop offset="0.0135" stop-color="#b0d5a4"/><stop offset="0.213" stop-color="#8cc786"/><stop offset="0.4131" stop-color="#6fbc6e"/><stop offset="0.6118" stop-color="#5ab45d"/><stop offset="0.8082" stop-color="#4eb053"/><stop offset="1" stop-color="#4aae50"/></radialGradient><radialGradient id="radial-gradient-11" cx="1453.8749" cy="406.8743" r="0.973" gradientTransform="matrix(0.0503, -0.9087, -1.0664, -0.0591, 536.9108, 1512.2739)" xlink:href="#radial-gradient"/></defs><g class="cls-1"><g id="Layer_1" data-name="Layer 1"><g id="Crown_Hats" data-name="Crown &amp; Hats"><g id="King_s_Crown" data-name="King&apos;s Crown"><path class="cls-2" d="M173.3465,204.4216a.7519.7519,0,0,0,.6055.8789.7615.7615,0,0,0,.8749-.621.752.752,0,0,0-.6055-.879A.7616.7616,0,0,0,173.3465,204.4216Z"/><ellipse class="cls-2" cx="337.8897" cy="203.072" rx="0.7901" ry="0.7783" transform="translate(-25.8839 354.9813) rotate(-53.671)"/><path class="cls-2" d="M336.9771,169.75a.8663.8663,0,0,0,1.0051.7085.8774.8774,0,0,0,.698-1.02.8665.8665,0,0,0-1.0052-.7085A.8775.8775,0,0,0,336.9771,169.75Z"/><g id="Rubi"><path class="cls-3" d="M337.51,166.4853q-.156-4.0132-.3119-8.0267l1.0628,1.3537.1975,4.5415Z"/><path class="cls-4" d="M338.2613,159.8123l-1.0325-.51-.03-.8438Z"/><path class="cls-4" d="M338.4588,164.3538l-.8844.811-.064,1.32Z"/></g><g id="Rubi-2" data-name="Rubi"><path class="cls-5" d="M337.1117,157.08q-.2194-3.42-.439-6.84.6811,1.52,1.3625,3.04Q337.5735,155.18,337.1117,157.08Z"/><path class="cls-6" d="M336.7936,153.408l-.1209-3.1678q.6811,1.52,1.3625,3.04Z"/></g><g id="Rubi-3" data-name="Rubi"><path class="cls-7" d="M336.5378,148.8614q-.2194-3.42-.439-6.84l1.2324,1.8631.23,2.2144Z"/><path class="cls-8" d="M336.2286,142.1586l-.2883,1.9182,1.3909-.192-.0064,1.248-.9578,2.3605.1708,1.3681,1.0238-2.7622-1.1946,1.3941q-.2135-1.7082-.4267-3.4165l1.3845,1.056.0064-1.248Z"/><polygon class="cls-9" points="337.331 143.885 337.325 145.133 337.562 146.099 337.331 143.885"/></g><path class="cls-10" d="M328.4224,139.199a27.1418,27.1418,0,0,0-1.0862-2.62q-.6076-1.2966-1.3628-2.5756c-2.6826,27.1359-35.8322-4.5067-41.3629-13.6526-3.5548-5.8831-5.1958-9.4184-6.07-13.3314-1.48-.2765-2.9746-.5237-4.4756-.7435q-2.2457-.33-4.5126-.5784c-6.177,24.3209-52.2354,27.167-60.1314,17.12-1.4914-1.9-1.4914-1.9-2.6147-7.0823q-1.1709.6013-2.2991,1.2362c-.4359.2434-.86.4906-1.279.7358q-1.7373,1.0221-3.3309,2.0947c-.9772,6.3407-1.3821,8.9649-6.01,19.0414l-11.83,26.3046c-.0331,11.5229-.0662,25.1249-.0992,36.6516.033-11.1394,7.5222-22.2515,22.4013-30.6012,29.2753-16.4267,76.0775-15.9574,104.5373,1.0572,13.9952,8.3652,20.9451,19.1757,20.9158,29.9528.0313-11.4742.0644-25.0255.0955-36.4978C329.7248,156.8541,328.7865,148.0431,328.4224,139.199Z"/><path class="cls-11" d="M329.8123,199.5954c.0293-10.7754-6.9206-21.5858-20.9158-29.9511-28.46-17.0146-75.262-17.4856-104.5373-1.0589-14.8012,8.3048-22.2807,19.3449-22.3936,30.4239,0,.9617-.004,1.9371-.0077,2.8676.033-11.1374,7.5222-22.2476,22.4013-30.5971,29.2753-16.4307,76.0775-15.9557,104.5373,1.0569,13.9952,8.3653,20.9451,19.1717,20.9158,29.9491.0313-11.4723.0644-25.5688.0955-37.0431,0-.06-.004-.1186-.0058-.177C329.8727,176.0434,329.8416,188.9368,329.8123,199.5954Z"/><path class="cls-12" d="M329.8123,200.0607c.0293-10.7774-6.9206-21.5859-20.9158-29.9511-28.46-17.0146-75.262-17.4877-104.5373-1.057-14.8012,8.3049-22.2807,19.343-22.3936,30.422,0,.9616-.004,1.9371-.0077,2.8676.033-11.1374,7.5222-22.2477,22.4013-30.5972,29.2753-16.4307,76.0775-15.9576,104.5373,1.0552,13.9952,8.365,20.9451,19.1755,20.9158,29.9509.0313-11.4723.0644-25.5688.0955-37.0411,0-.0622-.004-.1226-.0058-.181C329.8727,176.5087,329.8416,189.4021,329.8123,200.0607Z"/><path class="cls-11" d="M268.285,109.8867a25.5131,25.5131,0,0,1-1.8982,2.7137c-7.1464,10.4424-22.9774,15.2469-36.3264,15.63a63.4129,63.4129,0,0,1-10.9466-.1362C234.3219,131.0772,260.9341,126.1266,268.285,109.8867Z"/><path class="cls-11" d="M182.0551,165.8072l.002-.0018,11.8305-26.3046c4.6275-10.0764,5.0324-12.7006,6.01-19.0413l-.0973-.0233c-.913,5.8869-1.4425,8.6786-5.9123,18.4066l-11.83,26.3046C182.0571,165.3615,182.0571,165.5912,182.0551,165.8072Z"/><path class="cls-11" d="M284.6105,120.35c-3.3989-5.6242-5.0382-9.105-5.9414-12.8194l-.1286.1481c.8742,3.911,2.5152,7.4482,6.07,13.3294,3.3815,5.5871,17.0674,19.563,27.8134,23.3961a11.7417,11.7417,0,0,0,6.5295.2219C308.1956,146.47,288.7338,127.1662,284.6105,120.35Z"/><path class="cls-11" d="M319.9812,144.3618c-.1363.0428-.2725.0837-.4108.1208.1441-.0391.31-.0662.45-.1053C320.0066,144.3715,319.993,144.3657,319.9812,144.3618Z"/><path class="cls-13" d="M325.878,182.8142c-1.2186,1.6042-10.5165,8.885-13.5164-7.1972q-1.5828,1.0746-3.3114,2.1005-.7329.4355-1.4874.8606-1.2468.695-2.5269,1.351a36.4052,36.4052,0,0,1-5.3342,14.4878c-14.254,21.9361-50.9992,22.8764-57.4643-4.5944q-2.2661-.2538-4.5127-.59-2.2514-.3329-4.47-.7554c-1.3743,5.4939-1.3743,5.4939-3.1284,7.7521-9.1108,11.7468-40.993,10.5533-44.12-34.8295q-.7476-1.2849-1.3568-2.5872c-.399-.87-.7573-1.7425-1.0649-2.6224-.1907,3.1947-.4517,7.571-1.5282,8.9571q-.05,17.2843-.0992,34.5686c-.0311,10.7774,6.9225,21.5856,20.914,29.9489,28.46,17.0128,75.2637,17.4878,104.541,1.0591,14.8792-8.35,22.37-19.4578,22.3994-30.5991q.0469-17.2055.0955-34.4149C329.8727,176.33,327.5932,180.558,325.878,182.8142Z"/><path class="cls-14" d="M318.4413,180.2251q-1.755,1.1883-3.6676,2.3264c-.5413.3192-1.0941.6385-1.6508.9539-.919.5119-1.85,1.0143-2.7957,1.4969l-5.2913-5.0732q1.2819-.654,2.5269-1.351.7536-.4264,1.4874-.8606,1.7286-1.0248,3.3114-2.1005Z"/><path class="cls-15" d="M310.3272,185.0023a40.3227,40.3227,0,0,1-5.91,16.0473c-15.79,24.3014-56.4931,25.341-63.6553-5.0909l1.4758-6.1362c6.4651,27.4708,43.21,26.5305,57.4643,4.5944a36.4052,36.4052,0,0,0,5.3342-14.4878Z"/><path class="cls-14" d="M230.8117,194.4713q2.4589.4674,4.9527.8373,2.4851.3678,4.9972.65l1.4758-6.1362q-2.2661-.2538-4.5127-.59-2.2514-.3329-4.47-.7554Z"/><path class="cls-16" d="M182.0571,165.1474l11.8306-26.3046c4.6274-10.0765,5.0323-12.7007,6.01-19.0414l-6.0369-1.4056c-1.0824,7.0241-1.53,9.9306-6.66,21.0933l-13.1038,29.1391Z"/><path class="cls-14" d="M175.79,158.7037l7.7949-2.5134,2.4217,5.21-7.534,3.0759A18.859,18.859,0,0,1,175.79,158.7037Z"/><path class="cls-17" d="M230.1266,196.2294c-9.1108,11.7468-40.993,10.5533-44.12-34.8295l-7.534,3.0759c3.4635,50.2711,38.7835,51.5949,48.8735,38.5829,1.7911-2.3089,1.9332-2.4979,3.14-7.2966C230.3738,195.908,230.257,196.0619,230.1266,196.2294Z"/><path class="cls-18" d="M336.2327,139.8842l-7.81-.6852c.3641,8.8441,1.3024,17.6551,1.4854,26.511-.0351,10.62-2.3146,14.848-4.03,17.1042a9.1922,9.1922,0,0,1-5.8579,3.0214c4.2264,10.2459,12.2161,3.913,13.3918,2.3634,1.9-2.5,4.429-7.1855,4.4678-18.9518C337.6754,159.4415,336.6338,149.68,336.2327,139.8842Z"/><path class="cls-14" d="M335.0316,136.9817q-.6775-1.4368-1.5126-2.8541l-7.5456-.1246q.7563,1.2762,1.3628,2.5756a27.1418,27.1418,0,0,1,1.0862,2.62l7.81.6852A31.2969,31.2969,0,0,0,335.0316,136.9817Z"/><path class="cls-19" d="M287.702,119.0032c-4.1485-6.3853-5.7566-10.4326-6.728-14.7661l-2.4335,2.7819c.8742,3.913,2.5152,7.4483,6.07,13.3314,4.2283,6.9928,24.6014,27.1184,35.1566,24.0737C307.1269,140.3048,290.1063,122.7059,287.702,119.0032Z"/><path class="cls-14" d="M278.5405,107.019c-1.48-.2765-2.9746-.5237-4.4756-.7435q-2.2457-.33-4.5126-.5784l1.466-2.924q2.5141.2745,5.0013.6385c1.6623.2454,3.3171.52,4.9544.8255Z"/><path class="cls-20" d="M219.1138,127.4367c15.2081,2.9824,41.82-1.9682,49.1712-18.2081C259.39,123.94,235.375,129.1692,219.1138,127.4367Z"/><path class="cls-14" d="M199.8972,119.8014q1.5944-1.0716,3.3309-2.0947c.4186-.2452.8431-.4924,1.279-.7358q1.13-.6336,2.2991-1.2362l-5.2931-1.8435q-1.2939.6656-2.5465,1.3705c-.4808.2685-.9518.5412-1.4171.8157q-1.9245,1.13-3.6892,2.3184Z"/><path class="cls-21" d="M333.4119,188.199c-1.3492,1.7754-11.6475,9.8389-14.9706-7.9739q-1.755,1.1883-3.6676,2.3264c-.5413.3192-1.0941.6385-1.6508.9539-.919.5119-1.85,1.0143-2.7957,1.4969a40.3227,40.3227,0,0,1-5.91,16.0473c-15.79,24.3014-56.4931,25.341-63.6553-5.0909q-2.5111-.28-4.9972-.65-2.4939-.3711-4.9527-.8373c-1.5242,6.0838-1.5242,6.0838-3.4652,8.5874-10.09,13.012-45.41,11.6882-48.8735-38.5829q-.8292-1.4251-1.5008-2.8656-.6687-1.4455-1.1818-2.9065c-.21,3.541-.5,8.39-1.6937,9.9245-.0348,12.7629.0351,25.446,0,38.2129-.0348,11.94,7.6684,23.91,23.1705,33.1767,31.522,18.8446,83.3681,19.37,115.799,1.172,16.4834-9.2492,24.78-21.5545,24.8135-33.8932.0351-12.7084-.0369-25.339,0-38.0494C337.8409,181.0135,335.3119,185.6994,333.4119,188.199Z"/><path class="cls-11" d="M304.4169,201.8516a40.3381,40.3381,0,0,0,5.91-16.0491l-.1266-.1206a39.37,39.37,0,0,1-5.7837,15.3677c-15.722,24.1981-56.1407,25.3215-63.554-4.7171l-.1013.4284C247.9238,227.1906,288.6267,226.151,304.4169,201.8516Z"/><path class="cls-11" d="M337.872,169.81c-.1189,11.3417-2.5912,15.93-4.46,18.389-1.1466,1.5107-8.7565,7.5514-13.0549-1.6061-.113.0118-.2239.0389-.3369.0429,4.2264,10.2457,12.2161,3.913,13.3918,2.3632,1.9-2.5,4.429-7.1855,4.4678-18.9458v-.0038C337.8777,169.9694,337.8739,169.8877,337.872,169.81Z"/><path class="cls-11" d="M178.5412,165.2487l-.0682.0271c3.4635,50.2732,38.7835,51.5951,48.8735,38.5829,1.7911-2.3089,1.9332-2.4977,3.14-7.2964-.0953.1226-.1966.257-.3036.3931-.9423,3.6523-1.2071,4.0027-2.8365,6.1033C217.3071,216.0008,182.3219,214.7411,178.5412,165.2487Z"/><path class="cls-11" d="M337.88,193.6558c-.0331,12.3385-8.33,24.644-24.8135,33.893-32.4309,18.1983-84.277,17.6728-115.799-1.172C181.7651,217.11,174.0619,205.14,174.0967,193.2v4.4716c-.0348,11.94,7.6684,23.912,23.1705,33.1787,31.522,18.8426,83.3681,19.3683,115.799,1.17,16.4834-9.2492,24.78-21.5546,24.8135-33.8932Z"/><path class="cls-11" d="M337.88,194.561c-.0331,12.3385-8.33,24.6441-24.8135,33.893-32.4309,18.1984-84.277,17.6729-115.799-1.1719-15.5021-9.2665-23.2053-21.2372-23.1705-33.1766v4.4716c-.0348,11.94,7.6684,23.912,23.1705,33.1788,31.522,18.8445,83.3681,19.3682,115.799,1.17,16.4834-9.2491,24.78-21.5545,24.8135-33.8932Z"/><path class="cls-22" d="M337.88,194.2475c-.0331,12.3386-8.33,24.644-24.8135,33.8932-32.4309,18.1983-84.277,17.6726-115.799-1.172-15.5021-9.2665-23.2053-21.2372-23.1705-33.1767v4.4717c-.0348,11.9394,7.6684,23.9121,23.1705,33.1786,31.522,18.8448,83.3681,19.3685,115.799,1.17,16.4834-9.2492,24.78-21.5546,24.8135-33.8932Z"/><path class="cls-12" d="M313.0662,231.637c-32.4309,18.1983-84.277,17.6747-115.799-1.17-15.5021-9.2667-23.2053-21.2392-23.1705-33.1788v.9754c-.0348,11.9394,7.6684,23.9121,23.1705,33.1786,31.522,18.8448,83.3681,19.3685,115.799,1.17,16.4834-9.2492,24.78-21.5546,24.8135-33.8932v-.9755C337.8466,210.0845,329.55,222.3881,313.0662,231.637Z"/><ellipse class="cls-2" cx="250.1248" cy="250.3267" rx="1.2371" ry="1.2558"/><ellipse class="cls-2" cx="242.4448" cy="249.7806" rx="1.2371" ry="1.2558"/><ellipse class="cls-2" cx="234.7648" cy="248.8249" rx="1.2371" ry="1.2558"/><ellipse class="cls-2" cx="227.0848" cy="247.5689" rx="1.2371" ry="1.2558"/><ellipse class="cls-2" cx="219.4048" cy="245.5721" rx="1.2371" ry="1.2558"/><ellipse class="cls-2" cx="211.9808" cy="243.06" rx="1.2371" ry="1.2558"/><ellipse class="cls-2" cx="204.864" cy="240.0904" rx="1.2371" ry="1.2558"/><ellipse class="cls-2" cx="198.2592" cy="236.6088" rx="1.2371" ry="1.2558"/><ellipse class="cls-2" cx="192.2176" cy="232.4616" rx="1.2371" ry="1.2558"/><ellipse class="cls-2" cx="186.4832" cy="227.8536" rx="1.2371" ry="1.2558"/><ellipse class="cls-2" cx="181.9578" cy="222.8631" rx="1.2004" ry="1.2186"/><ellipse class="cls-2" cx="178.473" cy="217.7431" rx="1.0488" ry="1.0647"/><ellipse class="cls-2" cx="176.1178" cy="212.7255" rx="0.9335" ry="0.9196" transform="translate(-84.4298 304.2927) rotate(-69.7418)"/><ellipse class="cls-2" cx="174.4453" cy="208.1175" rx="0.7624" ry="0.751" transform="translate(-81.2002 299.7111) rotate(-69.7418)"/><ellipse class="cls-2" cx="257.8048" cy="250.3267" rx="1.2371" ry="1.2558"/><ellipse class="cls-2" cx="265.4848" cy="250.0195" rx="1.2371" ry="1.2558"/><ellipse class="cls-2" cx="273.1648" cy="249.2003" rx="1.2371" ry="1.2558"/><ellipse class="cls-2" cx="280.8448" cy="248.0739" rx="1.2371" ry="1.2558"/><ellipse class="cls-2" cx="288.5248" cy="246.4356" rx="1.2371" ry="1.2558"/><ellipse class="cls-2" cx="296.2048" cy="244.3364" rx="1.2371" ry="1.2558"/><ellipse class="cls-2" cx="303.4752" cy="241.8244" rx="1.2371" ry="1.2558"/><ellipse class="cls-2" cx="310.3275" cy="238.5757" rx="1.2371" ry="1.2558"/><ellipse class="cls-2" cx="316.7703" cy="235.0515" rx="1.2371" ry="1.2558"/><ellipse class="cls-2" cx="322.4023" cy="230.9928" rx="1.2371" ry="1.2558"/><ellipse class="cls-2" cx="327.1127" cy="226.6803" rx="1.2004" ry="1.2186"/><ellipse class="cls-2" cx="330.7479" cy="222.3795" rx="1.1539" ry="1.1367" transform="translate(-44.3494 357.097) rotate(-53.671)"/><ellipse class="cls-2" cx="333.6663" cy="217.9091" rx="0.9459" ry="0.9318" transform="translate(-39.5585 357.6261) rotate(-53.671)"/><ellipse class="cls-2" cx="335.6119" cy="213.8814" rx="0.9147" ry="0.9011" transform="translate(-35.5206 357.5519) rotate(-53.671)"/><ellipse class="cls-2" cx="336.9836" cy="209.9902" rx="0.7901" ry="0.7783" transform="translate(-31.8267 357.0711) rotate(-53.671)"/><ellipse class="cls-2" cx="337.8897" cy="206.223" rx="0.7901" ry="0.7783" transform="translate(-28.4224 356.2656) rotate(-53.671)"/><circle class="cls-23" cx="331.8834" cy="132.5035" r="5.9963"/><circle class="cls-24" cx="236.5776" cy="187.3353" r="7.4162"/><circle class="cls-25" cx="311.7386" cy="176.1208" r="6.7853"/><circle class="cls-26" cx="275.4308" cy="100.2401" r="5.8785"/><circle class="cls-27" cx="199.6412" cy="112.5482" r="6.1944"/><circle class="cls-28" cx="180.8987" cy="155.8995" r="6.5662"/><ellipse class="cls-2" cx="233.5397" cy="232.1544" rx="1.2371" ry="1.2558"/><g id="Emerald"><polygon class="cls-3" points="237.017 225.841 237.399 220.377 236.235 219.037 232.659 218.787 231.349 219.925 230.965 225.417 232.09 226.711 235.671 226.962 237.017 225.841"/><path class="cls-4" d="M236.0685,224.8483l.9484.9926-1.3463,1.1211-.4978-1.3678-2.3823-.1668-.701,1.2839-1.1248-1.2941,1.0775-.8508.2558-3.6539-.9487-.9879,1.3094-1.138.51,1.3687,2.3792.1666.6866-1.2849,1.1646,1.34-1.0765.8365Z"/><polygon class="cls-29" points="236.068 224.848 236.323 221.213 235.548 220.322 233.169 220.155 232.298 220.912 232.042 224.566 232.791 225.427 235.173 225.594 236.068 224.848"/></g><g id="Rubi-4" data-name="Rubi"><polygon class="cls-5" points="231.296 211.227 234.993 207.807 238.382 211.471 234.679 214.896 231.296 211.227"/><path class="cls-6" d="M231.2958,211.2268l1.9724.0888,1.6182-1.5318.1065-1.9767,3.3887,3.6636-2.0052-.0883-1.6321,1.5157-.0657,1.9977Z"/><path class="cls-30" d="M233.2682,211.3156l1.6182-1.5318,1.49,1.5986-1.6321,1.5157Z"/></g><g id="Diamond"><polygon class="cls-31" points="235.254 203.853 232.836 202.144 233.073 199.166 235.731 197.842 238.267 199.523 238.024 202.575 235.254 203.853"/><path class="cls-7" d="M238.0244,202.575l-.7027-1.582-2.0681,2.86-2.4172-1.709,1.6934.1345-.7194-1.5649-.974,1.43.2367-2.9782.7373,1.5478,1.9209-2.872,1.59,3.1511.9452-1.47Z"/><path class="cls-8" d="M238.0244,202.575l-1.7463-.1387-1.0245,1.417-.7238-1.5745-1.4567-3.1127,5.1938.3573-.9452,1.47Z"/><path class="cls-32" d="M236.2781,202.4363l-1.7483-.1575-.7271-1.5537.965-1.4425,1.7418.1011.8122,1.6093Z"/></g><path class="cls-11" d="M228.239,238.0133a4.6457,4.6457,0,0,0,1.9681-.122,5.5411,5.5411,0,0,0,3.3536-3.29,7.19,7.19,0,0,0,5.0549,5.1518,11.18,11.18,0,0,1-10.3766-1.74Z"/><path class="cls-22" d="M228.6067,238.6817a4.6144,4.6144,0,0,0,2.202-.2784,4.9111,4.9111,0,0,0,2.6224-2.604,6.5385,6.5385,0,0,0,5.0417,4.5277,9.0963,9.0963,0,0,1-9.8661-1.6453Z"/><path class="cls-11" d="M313.6865,227.19a6.8126,6.8126,0,0,0,3.3951-5.784,2.2616,2.2616,0,0,0,1.6384,1.8432,2.1043,2.1043,0,0,0,1.4266-.2145l-1.9688,3.8254Z"/><path class="cls-22" d="M313.4853,227.9038a7.1071,7.1071,0,0,0,2.9-2.6653,6.9977,6.9977,0,0,0,.934-2.6648,2.0222,2.0222,0,0,0,1.1957,1.2215,2.0755,2.0755,0,0,0,1.8962-.3621q-1.1168,1.7134-2.2336,3.4269Z"/><path class="cls-2" d="M315.5358,218.6921a1.2387,1.2387,0,0,0,1.318,1.1636,1.2544,1.2544,0,0,0,1.1509-1.3413,1.2387,1.2387,0,0,0-1.318-1.1636A1.2545,1.2545,0,0,0,315.5358,218.6921Z"/><g id="Emerald-2" data-name="Emerald"><path class="cls-3" d="M318.9419,211.4219l-.0085-4.9459-1.1862-.9933-2.9054.651-1.3367,1.2238q.0522,2.7993.1046,5.5985l1.0392.939,3.5079-1.0054Z"/><path class="cls-4" d="M318.464,210.91l.4779.512-.7851,1.4677-.3072-.8021-2.2825.5589-.9182,1.2486-1.0392-.939.9251-.88q-.0226-2.037-.0452-4.074l-.9845-.6448,1.3368-1.2238.5936,1.23,2.2264-.4643.0853-1.4165,1.1862.9933-.4523.9864Z"/><path class="cls-33" d="M318.464,210.91l.0171-3.4475-.8192-.5632-2.2264.4643-.9459.6388q.0226,2.037.0452,4.074l1.0323.57,2.2825-.5589Z"/></g><g id="Rubi-5" data-name="Rubi"><path class="cls-5" d="M313.3723,199.1792l2.8956-3.6516,2.7525,3.2539-2.777,3.751Z"/><path class="cls-6" d="M313.3723,199.1792l2.1386-.0814,1.1032-1.3913-.3462-2.1789,2.7525,3.2539-1.3575.1648-1.0581,1.4292q-.1807,1.0785-.3614,2.157Z"/><path class="cls-34" d="M315.5109,199.0979l1.1032-1.3914,1.0488,1.24-1.0581,1.4292Q316.0579,199.7367,315.5109,199.0979Z"/></g><g id="Diamond-2" data-name="Diamond"><path class="cls-31" d="M316.0138,192.8084l-2.5151-1.0485-.328-2.957,2.4229-1.8607,2.383,1.0024q.1669,1.5053.3338,3.01Z"/><path class="cls-7" d="M318.31,190.9551l-.721-1.34-.6579,1.3958-.9177,1.7973-2.5151-1.0485,1.8889-.6052-.7776-1.3427q-.5556.9739-1.1113,1.9479l-.328-2.957,1.4393,1.0091q.354-.7008.7079-1.4016l.2757-1.4682,1.1282,1.3309.8676,1.3422.3872-1.6707Q318.1436,189.45,318.31,190.9551Z"/><path class="cls-8" d="M318.31,190.9551l-1.3789.056-.9177,1.7973-.6262-1.6537-.7776-1.3427-1.4393-1.0091,2.1472-.3925,1.4039-.1373,1.2548-.3285-.3872,1.6707Z"/><path class="cls-35" d="M316.9315,191.0111l-1.5438.1436-.7777-1.3427q.354-.7008.7079-1.4016l1.4039-.1373.8676,1.3422Z"/></g><path class="cls-11" d="M175.0513,200.5229q-.073-.5935-.12-1.2269a24.8337,24.8337,0,0,1,.0107-3.7376q-.2567,2.0124-.4352,2.0053-.0628-.0024-.1159-.254.0741,2.0172.1483,4.0343Z"/><path class="cls-22" d="M174.9757,200.8235c-.0881-.6125-.1573-1.284-.1917-2.0075-.0284-.5984-.03-1.1626-.0128-1.6875-.0581.3612-.1549.6321-.2475.6315-.0956-.0006-.1934-.2909-.243-.6993l-.0471,1.1409.3055,3.1424Z"/><path class="cls-2" d="M174.4833,193.6293a.8665.8665,0,0,0,1.0052.7085.8775.8775,0,0,0,.698-1.02.8665.8665,0,0,0-1.0052-.7085A.8775.8775,0,0,0,174.4833,193.6293Z"/><g id="Emerald-3" data-name="Emerald"><path class="cls-3" d="M173.6533,187.3408q.111-2.752.2219-5.504l.6144-.7936,2.5116,1.472.6116,1.4976-.4608,4.864L176,189.56l-1.8841-1.139Z"/><path class="cls-4" d="M173.5183,186.3777l.135.9631,1.8432,1.0581L176,189.56l1.152-.6827-.8277-1.1349.1911-3.5513,1.0974-.1778-.6116-1.4976-.9537.53-1.9212-1.126.3633-.8758-.6144.7936-.2189.6893Z"/><path class="cls-36" d="M173.5183,186.3777l.138-3.8516.47-.6071,1.9212,1.126.4679,1.1456-.1911,3.5513-.8278.657-1.8432-1.0581Z"/></g><g id="Rubi-6" data-name="Rubi"><path class="cls-5" d="M174.5352,175.0018l1.4-2.9776q.4569,1.9963.9137,3.9926l-1.4334,2.4278-.6213-2.068Z"/><path class="cls-6" d="M174.5352,175.0018l.5347-1.075h0l.8658-1.9026.9137,3.9926-1.4307-.5657-.624.9255.6213,2.068-.6213-2.068Z"/><path class="cls-37" d="M174.5352,175.0018l.5347-1.075.3488,1.5243-.624.9255Z"/></g><g id="Diamond-3" data-name="Diamond"><path class="cls-31" d="M176.1786,169.4256l1.4862-.8286.3012-2.2042-1.3045-1.2056-1.4238.8624-.2237,2.2348Z"/><path class="cls-7" d="M175.014,168.2844l.2392-1.2492-.2392,1.2492,1.1646,1.1412,1.4862-.8286-1.0017-.4931.4653-.8691.5364,1.3622.3012-2.2042-.8376.842-.263-1.0455-.2039-1.0021-.7909.9534-.6174.8946-.0155-.9856Z"/><path class="cls-8" d="M175.014,168.2844l.5289-.2549.6357,1.3961.4845-1.3217.4653-.8691.8376-.842-1.1006-.2035-.9948-.0487-.6329-.091.0155.9856Z"/><path class="cls-38" d="M175.5429,168.03l1.12.0744.4653-.8691-.263-1.0455-.9948-.0487-.6174.8946Z"/></g></g></g></g></g></svg>