<svg xmlns="http://www.w3.org/2000/svg" xmlns:xlink="http://www.w3.org/1999/xlink" width="512" height="512" viewBox="0 0 512 512"><defs><style>.cls-1{isolation:isolate;}.cls-2{fill:url(#linear-gradient);}.cls-3{fill:#fff;mix-blend-mode:overlay;}.cls-4{fill:#c95400;}.cls-5{fill:url(#linear-gradient-2);}.cls-6{fill:#ffe605;}.cls-7{fill:url(#linear-gradient-3);}.cls-8{fill:url(#linear-gradient-4);}.cls-9{fill:url(#linear-gradient-5);}.cls-10{fill:url(#linear-gradient-6);}.cls-11{fill:#fd7701;}</style><linearGradient id="linear-gradient" x1="181.9579" y1="158.9713" x2="329.9078" y2="158.9713" gradientUnits="userSpaceOnUse"><stop offset="0" stop-color="#ff8205"/><stop offset="0.1684" stop-color="#ffab05"/><stop offset="0.2581" stop-color="#ffbb05"/><stop offset="0.3948" stop-color="#ffb204"/><stop offset="0.6212" stop-color="#fe9803"/><stop offset="0.9077" stop-color="#fc7001"/><stop offset="1" stop-color="#fc6100"/></linearGradient><linearGradient id="linear-gradient-2" x1="258.0159" y1="212.4154" x2="338.305" y2="160.4623" gradientUnits="userSpaceOnUse"><stop offset="0" stop-color="#ff8205"/><stop offset="0.1832" stop-color="#ffab05"/><stop offset="0.2808" stop-color="#ffbb05"/><stop offset="0.321" stop-color="#ffc405"/><stop offset="0.3874" stop-color="#ffdd05"/><stop offset="0.4153" stop-color="#ffea05"/><stop offset="0.4286" stop-color="#ffd704"/><stop offset="0.4605" stop-color="#feb103"/><stop offset="0.4921" stop-color="#fd9202"/><stop offset="0.5229" stop-color="#fc7d02"/><stop offset="0.5525" stop-color="#fc6f01"/><stop offset="0.5798" stop-color="#fc6b01"/><stop offset="0.6426" stop-color="#fd8302"/><stop offset="0.7491" stop-color="#fea604"/><stop offset="0.8366" stop-color="#ffbb05"/><stop offset="0.8936" stop-color="#ffc305"/><stop offset="0.9057" stop-color="#ffb905"/><stop offset="0.9423" stop-color="#ff9e05"/><stop offset="0.9749" stop-color="#ff8e05"/><stop offset="1" stop-color="#ff8805"/></linearGradient><linearGradient id="linear-gradient-3" x1="194.8468" y1="125.0623" x2="181.4756" y2="161.0909" xlink:href="#linear-gradient"/><linearGradient id="linear-gradient-4" x1="180.4379" y1="147.688" x2="230.5055" y2="196.0187" gradientUnits="userSpaceOnUse"><stop offset="0" stop-color="#ff8205"/><stop offset="0.1614" stop-color="#ffab05"/><stop offset="0.2473" stop-color="#ffbb05"/><stop offset="0.3421" stop-color="#ffc405"/><stop offset="0.4987" stop-color="#ffdd05"/><stop offset="0.5645" stop-color="#ffea05"/><stop offset="0.6358" stop-color="#ffda05"/><stop offset="0.7443" stop-color="#ffc905"/><stop offset="0.8611" stop-color="#ffbe05"/><stop offset="1" stop-color="#ffbb05"/></linearGradient><linearGradient id="linear-gradient-5" x1="247.6041" y1="115.5188" x2="304.802" y2="164.6519" xlink:href="#linear-gradient-4"/><linearGradient id="linear-gradient-6" x1="173.1271" y1="209.4915" x2="337.1336" y2="209.4915" xlink:href="#linear-gradient-4"/></defs><g class="cls-1"><g id="Layer_1" data-name="Layer 1"><g id="Crown_Hats" data-name="Crown &amp; Hats"><g id="Prince_s_Crown" data-name="Prince&apos;s Crown"><path class="cls-2" d="M328.4224,139.199a27.1418,27.1418,0,0,0-1.0862-2.62q-.6076-1.2966-1.3628-2.5756c.7148,3.9708-.4613,7.6329-2.895,9.06A8.7266,8.7266,0,0,1,319.13,144a9.0156,9.0156,0,0,1-3.584-.7936c-8.8768-3.8593-26.5153-12.3677-39.5776-14.8992-6.6409-1.287-11.9388-.9982-17.1008-.7168-10.843.5911-18.0008,2.9987-26.3168,2.56a56.976,56.976,0,0,1-13.7216-2.3552s-6.5831-1.6375-9.4079-4.9782c-.1847-.2184-1.1545-1.647-1.1547-1.6473l0,0,0,0c-.4827-.9274-.7418-2.1227-1.46-5.4347q-1.1709.6013-2.2991,1.2362c-.4359.2434-.86.4906-1.279.7358q-1.7373,1.0221-3.3309,2.0947c-.9772,6.3407-1.3821,8.9649-6.01,19.0414l-11.8306,26.3046c-.0331,11.5229-.0662,25.1249-.0992,36.6516.033-11.1394,7.5222-22.2515,22.4013-30.6012,29.2753-16.4267,76.0775-15.9574,104.5373,1.0572,13.9952,8.3652,20.9451,19.1757,20.9158,29.9528.0313-11.4742.0644-25.0255.0955-36.4978C329.7248,156.8541,328.7864,148.0431,328.4224,139.199Z"/><path class="cls-3" d="M329.8123,199.5954c.0293-10.7754-6.9206-21.5858-20.9158-29.9511-28.46-17.0146-75.262-17.4856-104.5373-1.0589-14.8012,8.3048-22.2807,19.3449-22.3936,30.4239,0,.9617-.004,1.9371-.0077,2.8676.033-11.1374,7.5222-22.2476,22.4013-30.5971,29.2753-16.4307,76.0775-15.9557,104.5373,1.0569,13.9952,8.3653,20.9451,19.1717,20.9158,29.9491.0313-11.4723.0644-25.5688.0955-37.0431,0-.06-.004-.1186-.0058-.177C329.8727,176.0434,329.8416,188.9368,329.8123,199.5954Z"/><path class="cls-4" d="M329.8123,200.0607c.0293-10.7774-6.9206-21.5859-20.9158-29.9511-28.46-17.0146-75.262-17.4877-104.5373-1.057-14.8012,8.3049-22.2807,19.343-22.3936,30.422,0,.9616-.004,1.9371-.0077,2.8676.033-11.1374,7.5222-22.2477,22.4013-30.5972,29.2753-16.4307,76.0775-15.9576,104.5373,1.0552,13.9952,8.365,20.9451,19.1755,20.9158,29.9509.0313-11.4723.0644-25.5688.0955-37.0411,0-.0622-.004-.1226-.0058-.181C329.8727,176.5087,329.8416,189.4021,329.8123,200.0607Z"/><path class="cls-3" d="M182.0551,165.8072a10.3154,10.3154,0,0,0,.1635,6.8567,22.032,22.032,0,0,1,.1046-4.2927,25.4893,25.4893,0,0,1,1.22-5.0773,36.8617,36.8617,0,0,1,1.3141-3.4475c4.5315-10.303,8.9344-20.07,8.9344-20.07,2.5758-5.6415,3.7525-8.2962,4.7918-12.3524a55.027,55.027,0,0,0,1.3134-6.9641l-.0973-.0233c-.913,5.8869-1.4425,8.6786-5.9122,18.4066a230.6854,230.6854,0,0,0-10.0285,21.6692q-.936,2.3328-1.8021,4.6354C182.0573,165.2567,182.0572,165.3664,182.0551,165.8072Z"/><path class="cls-3" d="M274.33,128q-5.8367-.1159-11.9808,0a302.1821,302.1821,0,0,0-30.5065,2.1553c1.91.1073,4.8055.2192,8.3369.1487,4.7367-.0945,6.134-.4492,12.0832-.7168,2.0615-.0927,5.5379-.2435,10.0362-.1741,2.8994.0448,6.5793.1108,11.3654.6349a64.3676,64.3676,0,0,1,9.9759,1.6325,67.417,67.417,0,0,1,10.214,3.6923c2.5014,1.06,6.9053,3.0413,9.3525,4.224.4075.1969,1.7813.8606,3.6851,1.674.5238.2239,1.0893.4577,1.7165.7068a33.0511,33.0511,0,0,0,5.7856,1.92c4.4181.9435,6.529.2,7.2192-.0768a8.71,8.71,0,0,0,1.4656-.7578,11.0268,11.0268,0,0,1-3.2576.86,11.6878,11.6878,0,0,1-5.0944-.6656,100.6656,100.6656,0,0,1-12.4416-5.53c-1.7695-.8776-4.4236-2.1327-7.7824-3.4816Z"/><path class="cls-5" d="M336.2327,139.8842c.3765,2.5216.6921,5.1853.9193,7.9814a119.8656,119.8656,0,0,1,.2707,15.1214,62.1528,62.1528,0,0,1-1.5763,14.3442,54.9219,54.9219,0,0,1-6.17,16.1125c-7.4046,12.3613-19.0915,17.6948-25.5146,20.6747a68.78,68.78,0,0,1-22.6746,5.9756c-7.6152.6683-15.0671,1.3256-23.3071-2.57A31.1919,31.1919,0,0,1,244.9067,206.2a30.0876,30.0876,0,0,1-4.1451-10.2408q.738-3.0681,1.4758-6.1362a28.4457,28.4457,0,0,0,7.1066,15.0116c.8475.91,4.6164,4.83,12.288,7.5776,19.28,6.9051,38.26-2.5291,41.3013-4.096,5.0385-2.5956,12.1986-6.2843,17.8176-14.1994,9.036-12.7283,8.65-28.7143,8.23-45.3223-.1024-4.045-.3552-7.3743-.5581-9.595Z"/><path class="cls-6" d="M230.8117,194.4713q2.4589.4674,4.9527.8373,2.4851.3678,4.9972.65l1.4758-6.1362q-2.2661-.2538-4.5127-.59-2.2514-.3329-4.47-.7554Z"/><path class="cls-7" d="M182.0571,165.1474l11.8306-26.3046c4.6274-10.0765,5.0323-12.7007,6.01-19.0414l-6.0369-1.4056c-1.0824,7.0241-1.53,9.9306-6.66,21.0933l-13.1038,29.1391Z"/><path class="cls-8" d="M229.4945,199.3952a6.7793,6.7793,0,0,1-.7412,1.0582,8.914,8.914,0,0,1-3.9853,2.401,35.445,35.445,0,0,1-25.6-2.4576c-14.3153-9.5435-18.5354-27.0607-16.6912-33.9968a75.0381,75.0381,0,0,1,2.97-8.6869c.5225-1.2368,1.3845-3.1644,2.6255-5.9393.8568-1.9157,1.51-3.3586,1.6673-3.707,5.4656-12.0768,7.0341-14.7822,8.3663-19.632a69.5165,69.5165,0,0,0,1.7917-8.6334l-6.0369-1.4056a66.4421,66.4421,0,0,1-1.6975,8.5976c-1.6568,6.2045-3.6277,9.9466-8.5105,19.5126-7.8906,15.4582-8.978,17.899-9.5556,22.1222a34.1684,34.1684,0,0,0,.3929,12.415c2.932,12.9383,13.85,22.6819,25.088,26.4533,10.4457,3.5054,19.0634,1.0454,20.9152.2859a24.9565,24.9565,0,0,0,4.3924-2.4308,18.36,18.36,0,0,0,2.4428-2.1,5.1429,5.1429,0,0,0,1.4592-1.8432c.0568-.1571.1978-.5913.48-1.3845C229.3624,199.7577,229.4417,199.54,229.4945,199.3952Z"/><path class="cls-6" d="M335.0316,136.9817q-.6775-1.4368-1.5126-2.8541l-7.5456-.1246q.7563,1.2762,1.3628,2.5756a27.1418,27.1418,0,0,1,1.0862,2.62l7.81.6852A31.2969,31.2969,0,0,0,335.0316,136.9817Z"/><path class="cls-9" d="M273.1008,127.0784a100.3829,100.3829,0,0,0-20.1387.1365c-1.0547.0937-6.6337.5966-15.4965,1.3995a66.6008,66.6008,0,0,1-8.2944.41,53.7858,53.7858,0,0,1-10.8443-1.3661c.71.226,1.7092.5281,2.9161.8406a54.4114,54.4114,0,0,0,8.767,1.5315,55.105,55.105,0,0,0,7.66.0863c7.2864-.3,10.3062-.7294,14.6432-.99,4.4541-.2676,7.8121-.2064,11.027-.1427,3.9188.0775,6.5309.1293,10.0333.5182a73.24,73.24,0,0,1,10.7605,1.9541c6.4164,1.713,12.1328,4.2616,23.3216,9.856a37.9424,37.9424,0,0,0,6.3488,2.2272,13.9711,13.9711,0,0,0,5.5552.64,11.537,11.537,0,0,0,3.7184-1.1162,9.4739,9.4739,0,0,1-5.0351.645,8.7347,8.7347,0,0,1-2.5786-.8565c-3.1719-1.5762-4.758-2.3642-11.0295-6.0451a67.7691,67.7691,0,0,0-8.09-3.8912A78.2077,78.2077,0,0,0,273.1008,127.0784Z"/><path class="cls-6" d="M199.8972,119.8014q1.5944-1.0716,3.3309-2.0947c.4186-.2452.8431-.4924,1.279-.7358q1.13-.6336,2.2991-1.2362l-5.2931-1.8435q-1.2939.6656-2.5465,1.3705c-.4808.2685-.9518.5412-1.4171.8157q-1.9245,1.13-3.6892,2.3184Z"/><path class="cls-10" d="M332.3392,188.0235a49.97,49.97,0,0,1-6.1952,10.0693,50.9162,50.9162,0,0,1-10.0352,9.2672,62.8534,62.8534,0,0,1-15.4179,7.8438c-6.08,2.1645-18.2506,6.3358-33.1426,3.7108-5.6373-.9937-11.1266-1.9523-16.5627-6.325a30.761,30.761,0,0,1-10.224-16.6309q-2.4211-.268-4.9973-.65-2.4937-.3711-4.9526-.8373c-.9484,3.7855-1.3067,5.2156-1.91,6.3589a13.225,13.225,0,0,1-1.5556,2.2285,16.155,16.155,0,0,1-7.067,4.5743c-7.7352,2.82-16.3083,1.0622-16.3083,1.0622-2.9809-.68-15.577-3.8927-23.44-15.5347-1.1785-1.7449-6.0256-8.9215-6.4-18.3637-.0973-2.4546-.0243-6.2665-.0345-6.1686-.126,1.2214-.3207,3.3419-.4263,5.9894-.2719,6.8164.36,9.2724.4263,18.5827.0218,3.0639.2228,3.6955.0345,6.5565a37.8951,37.8951,0,0,0,.512,9.216c2.9622,16.395,16.2445,26.2917,22.624,31.045,26.251,19.56,77.6434,22.582,115.799,1.172,16.4834-9.2491,24.78-21.5545,24.8135-33.8932.0036-1.3518.0663-2.7359.0663-2.7359.015-1.79-.0278-3.3066-.0772-4.4455q.0054-3.23.0109-6.4594c0-.9677,0-4.2541,0-5.2263-.0043-14.56-.4632-25.8665-.4565-25.4425A57.3813,57.3813,0,0,1,332.3392,188.0235Z"/><path class="cls-3" d="M337.4851,166.2633c.0119-.6841.0165-1.8336-.0624-3.2763a57.5106,57.5106,0,0,1-6.09,26.0093A48.1159,48.1159,0,0,1,322.15,201.728a52.6428,52.6428,0,0,1-7.7056,6.17,57.8273,57.8273,0,0,1-9.9072,5.1968,69.9919,69.9919,0,0,1-15.1552,4.71,57.3426,57.3426,0,0,1-21.9136.41c-6.0555-1.1257-12.2871-2.2842-17.9883-7.3728a29.2067,29.2067,0,0,1-8.6176-14.5091l-.1013.4284a28.4218,28.4218,0,0,0,8.0363,14.3538c5.8569,5.4759,12.7844,6.7939,18.1589,7.8165a53.28,53.28,0,0,0,11.776.8192,68.071,68.071,0,0,0,11.6736-1.4336,72.5434,72.5434,0,0,0,15.4624-5.0176c4.413-2.0476,10.7367-4.9817,16.9984-11.3664A49.1493,49.1493,0,0,0,334.08,183.9616c.1973-.5934.3518-1.1063.512-1.6384A56.9886,56.9886,0,0,0,337.4851,166.2633Z"/><path class="cls-3" d="M174.0967,168.6282l0-.0043c-.0943.6277-.2153,1.5644-.2853,2.7041a34.6159,34.6159,0,0,0,3.8016,17.4976,37.2888,37.2888,0,0,0,3.9424,6.3232c8.1473,10.46,22.188,16.1892,33.2983,14.6464a21.6108,21.6108,0,0,0,9.3257-3.51,13.7373,13.7373,0,0,0,4.3947-4.736,12.6246,12.6246,0,0,0,.9206-2.1536,14.4275,14.4275,0,0,1-1.2973,2.5649,15.1154,15.1154,0,0,1-.98,1.3551,14.1214,14.1214,0,0,1-3.7291,3.0464,18.9189,18.9189,0,0,1-7.6286,2.944h0a25.0711,25.0711,0,0,1-10.0864-.3456,42.5421,42.5421,0,0,1-26.9312-18.7776,38.0793,38.0793,0,0,1-4.4032-12.7744,56.9889,56.9889,0,0,1-.384-7.2192A9.4727,9.4727,0,0,0,174.0967,168.6282Z"/><path class="cls-3" d="M337.88,193.6558c-.0331,12.3385-8.33,24.644-24.8135,33.893-32.4309,18.1983-84.277,17.6728-115.799-1.172C181.7651,217.11,174.0619,205.14,174.0967,193.2v4.4716c-.0348,11.94,7.6684,23.912,23.1705,33.1787,31.522,18.8426,83.3681,19.3683,115.799,1.17,16.4834-9.2492,24.78-21.5545,24.8135-33.8932Z"/><path class="cls-3" d="M337.88,194.561c-.0331,12.3385-8.33,24.6441-24.8135,33.893-32.4309,18.1984-84.277,17.6729-115.799-1.1719-15.5021-9.2665-23.2053-21.2372-23.1705-33.1766v4.4716c-.0348,11.94,7.6684,23.912,23.1705,33.1788,31.522,18.8445,83.3681,19.3682,115.799,1.17,16.4834-9.2491,24.78-21.5545,24.8135-33.8932Z"/><path class="cls-11" d="M337.88,194.2475c-.0331,12.3386-8.33,24.644-24.8135,33.8932-32.4309,18.1983-84.277,17.6726-115.799-1.172-15.5021-9.2665-23.2053-21.2372-23.1705-33.1767v4.4717c-.0348,11.9394,7.6684,23.9121,23.1705,33.1786,31.522,18.8448,83.3681,19.3685,115.799,1.17,16.4834-9.2492,24.78-21.5546,24.8135-33.8932Z"/><path class="cls-4" d="M313.0662,231.637c-32.4309,18.1983-84.277,17.6747-115.799-1.17-15.5021-9.2667-23.2053-21.2392-23.1705-33.1788v.9754c-.0348,11.9394,7.6684,23.9121,23.1705,33.1786,31.522,18.8448,83.3681,19.3685,115.799,1.17,16.4834-9.2492,24.78-21.5546,24.8135-33.8932v-.9755C337.8466,210.0845,329.55,222.3881,313.0662,231.637Z"/></g></g></g></g></svg>