<svg id="Layer_1" data-name="Layer 1" xmlns="http://www.w3.org/2000/svg" xmlns:xlink="http://www.w3.org/1999/xlink" width="512" height="512" viewBox="0 0 512 512">
  <defs>
    <style>
      .cls-1 {
        fill: url(#linear-gradient);
      }

      .cls-2 {
        fill: url(#linear-gradient-2);
      }

      .cls-3 {
        fill: url(#linear-gradient-3);
      }

      .cls-4 {
        fill: url(#linear-gradient-4);
      }

      .cls-5 {
        fill: url(#linear-gradient-5);
      }

      .cls-6 {
        fill: url(#linear-gradient-6);
      }

      .cls-7 {
        fill: url(#linear-gradient-7);
      }

      .cls-8 {
        fill: url(#linear-gradient-8);
      }

      .cls-9 {
        fill: url(#linear-gradient-9);
      }

      .cls-10 {
        fill: url(#radial-gradient);
      }

      .cls-11 {
        fill: #ffd7ef;
        opacity: 0.39;
      }

      .cls-12 {
        fill: #fff;
      }
    </style>
    <linearGradient id="linear-gradient" x1="177.3441" y1="174.0128" x2="334.6559" y2="174.0128" gradientUnits="userSpaceOnUse">
      <stop offset="0" stop-color="#dd6719"/>
      <stop offset="0.1975" stop-color="#e06e17"/>
      <stop offset="0.4803" stop-color="#e88111"/>
      <stop offset="0.813" stop-color="#f69f07"/>
      <stop offset="1" stop-color="#ffb400"/>
    </linearGradient>
    <linearGradient id="linear-gradient-2" x1="177.3441" y1="219.5735" x2="334.6559" y2="219.5735" gradientUnits="userSpaceOnUse">
      <stop offset="0" stop-color="#dd6719"/>
      <stop offset="0.0287" stop-color="#e06e17"/>
      <stop offset="0.156" stop-color="#eb870e"/>
      <stop offset="0.2975" stop-color="#f49b08"/>
      <stop offset="0.4588" stop-color="#faa903"/>
      <stop offset="0.657" stop-color="#feb201"/>
      <stop offset="1" stop-color="#ffb400"/>
    </linearGradient>
    <linearGradient id="linear-gradient-3" x1="180.6507" y1="180.2111" x2="331.272" y2="180.2111" xlink:href="#linear-gradient"/>
    <linearGradient id="linear-gradient-4" x1="177.3512" y1="186.6081" x2="334.6559" y2="186.6081" gradientUnits="userSpaceOnUse">
      <stop offset="0" stop-color="#ffb500"/>
      <stop offset="0.1067" stop-color="#ffc210"/>
      <stop offset="0.3143" stop-color="#ffd72a"/>
      <stop offset="0.5289" stop-color="#ffe53c"/>
      <stop offset="0.7526" stop-color="#ffee47"/>
      <stop offset="1" stop-color="#fff14b"/>
    </linearGradient>
    <linearGradient id="linear-gradient-5" x1="177.1642" y1="209.7058" x2="334.6559" y2="209.7058" xlink:href="#linear-gradient-2"/>
    <linearGradient id="linear-gradient-6" x1="177.1642" y1="209.7058" x2="334.6559" y2="209.7058" xlink:href="#linear-gradient-2"/>
    <linearGradient id="linear-gradient-7" x1="194.3832" y1="205.0274" x2="302.7521" y2="200.9257" gradientUnits="userSpaceOnUse">
      <stop offset="0.0196" stop-color="#9b4a0d"/>
      <stop offset="0.0397" stop-color="#a14d0e"/>
      <stop offset="0.1272" stop-color="#b75612"/>
      <stop offset="0.2302" stop-color="#c85e15"/>
      <stop offset="0.3567" stop-color="#d46317"/>
      <stop offset="0.5324" stop-color="#db6619"/>
      <stop offset="1" stop-color="#dd6719"/>
    </linearGradient>
    <linearGradient id="linear-gradient-8" x1="190.9138" y1="205.9607" x2="216.222" y2="205.9607" gradientUnits="userSpaceOnUse">
      <stop offset="0" stop-color="#ff317e"/>
      <stop offset="0.1783" stop-color="#fc2f79"/>
      <stop offset="0.3897" stop-color="#f4276b"/>
      <stop offset="0.6181" stop-color="#e71c53"/>
      <stop offset="0.8568" stop-color="#d40c32"/>
      <stop offset="1" stop-color="#c7001a"/>
    </linearGradient>
    <linearGradient id="linear-gradient-9" x1="190.9138" y1="205.9607" x2="216.222" y2="205.9607" gradientUnits="userSpaceOnUse">
      <stop offset="0" stop-color="#c7001a"/>
      <stop offset="0.3252" stop-color="#dc123f"/>
      <stop offset="0.774" stop-color="#f5286c"/>
      <stop offset="1" stop-color="#ff317e"/>
    </linearGradient>
    <radialGradient id="radial-gradient" cx="173.024" cy="160.1221" r="11.0243" gradientTransform="matrix(-0.137, -0.9906, 0.4377, -0.0606, 155.1071, 386.3415)" gradientUnits="userSpaceOnUse">
      <stop offset="0" stop-color="#ff4893"/>
      <stop offset="0.1499" stop-color="#fc448d"/>
      <stop offset="0.3492" stop-color="#f43a7c"/>
      <stop offset="0.5766" stop-color="#e82a61"/>
      <stop offset="0.8228" stop-color="#d6133a"/>
      <stop offset="1" stop-color="#c7001a"/>
    </radialGradient>
  </defs>
  <g id="Crown_Hats" data-name="Crown &amp; Hats">
    <g id="Queen_s_Crown" data-name="Queen&apos;s Crown">
      <path class="cls-1" d="M177.3441,186.6255c0-11.66,7.6793-23.32,23.0378-32.2163,30.717-17.7925,80.5192-17.7926,111.2362,0,15.3586,8.8963,23.0378,20.5563,23.0378,32.2163v20.3352h-2.5892L328.3226,190.72l-26.3892-18.6667-29.0686-9.5991L247,162.9862l-26.1336,3.1992-27.7331,15.4675-15.7893,25.3078Z"/>
      <path class="cls-2" d="M334.6559,206.9607c0,11.66-7.6792,23.32-23.0377,32.2163-30.717,17.7926-80.5192,17.7926-111.2362,0-15.3586-8.8963-23.0379-20.5563-23.0379-32.2163V186.6255h2.5892l3.7442,16.2412,26.3892,18.6666,29.0686,9.5991L265,230.6l26.1336-3.1992,27.7331-15.4675,15.7892-25.3078Z"/>
      <path class="cls-3" d="M331.272,192.6125c-3.6214-6.9548-10.1647-13.5075-19.6538-19.004-30.717-17.7926-80.5192-17.7926-111.2362,0-9.5613,5.5383-16.1261,12.15-19.7313,19.1637a3.1236,3.1236,0,0,1,.5755,1.03,27.955,27.955,0,0,0,3.1437,6.3556c2.0512-8.7619,8.8633-17.2207,20.49-23.9556,28.2438-16.36,74.0358-16.36,102.2795,0,11.36,6.58,18.1236,14.8055,20.3437,23.3514C328.6691,197.2084,330.03,194.9391,331.272,192.6125Z"/>
      <path class="cls-4" d="M258.9017,228.4743c17.53-.4014,34.8536-4.4737,48.2381-12.2266,28.2437-16.36,28.2437-42.8845,0-59.2444s-74.0357-16.36-102.2795,0c-24.325,14.09-27.68,35.7148-10.1046,51.8969-1.3576,1.0414-2.729,2.0648-4.1031,3.0851-20.5326-17.7112-17.2973-41.9211,9.7294-57.576,30.717-17.7926,80.5192-17.7926,111.2362,0s30.717,46.64,0,64.4326c-14.6209,8.469-33.565,12.9041-52.7171,13.31H241.3l-9.1-8.1087L223.6,205.61l-7.3-23.01-13.4421-15.0673L209.1,165a8.52,8.52,0,0,1,4.6.7c1.915.906,2.9006,2.347,4.2,4.3a27.7527,27.7527,0,0,1,3.4,7.2l14.4441,36.6028A21.5209,21.5209,0,0,0,240.1,221.15C246.9384,228.6572,256.9626,228.5349,258.9017,228.4743Z"/>
      <path class="cls-5" d="M177.3441,186.6255c.2736,4.9885,1.3169,6.2653,2.2059,6.5245,2.1913.6389,5.0695-4.4312,12.4177-13.79,3.1926-4.066,5.9291-7.2859,7.7323-9.36a7.8488,7.8488,0,0,1,7.5667-3,8.3274,8.3274,0,0,1,6,5.02c2.5378,5.1225,6.0846,12.6044,9.8884,21.8482,8.1169,19.7251,9.4469,28.1362,17.6959,33.722,3.4224,2.3174,9.0289,4.8211,18.0493,4.5093,1.7824-.0161,4.021-.077,6.6-.2455,1.573-.1028,5.1991-.3714,9.8761-1.0653a121.5886,121.5886,0,0,0,14.8659-3.1332c1.6356-.4614,4.357-1.2354,7.8286-2.5231a84.8248,84.8248,0,0,0,18.5143-9.447,48.2027,48.2027,0,0,0,8.1738-6.91,46.1408,46.1408,0,0,0,3.841-4.7095c4.1938-6.0429,5.5674-13.0066,6.0559-17.4412v20.3352a27.851,27.851,0,0,1-.4274,4.7534,32.8692,32.8692,0,0,1-2.2925,7.1538C330.188,222.6444,324.75,231.0184,313,238.4a75.35,75.35,0,0,1-15.0161,7.1,108.2551,108.2551,0,0,1-25.3582,5.9978,131.62,131.62,0,0,1-20.229.9762,128.496,128.496,0,0,1-25.8181-3.2484,103.9848,103.9848,0,0,1-22.638-8.1094A66.1741,66.1741,0,0,1,193.832,234.88a52.5454,52.5454,0,0,1-7.8645-7.151,38.75,38.75,0,0,1-4.8977-6.8861,35.0439,35.0439,0,0,1-1.94-4.2059,27.5314,27.5314,0,0,1-1.7855-9.6762C176.9471,191.1962,177.3288,186.3456,177.3441,186.6255Z"/>
      <path class="cls-6" d="M177.3441,186.6255c.2736,4.9885,1.3169,6.2653,2.2059,6.5245,2.1913.6389,5.0695-4.4312,12.4177-13.79,3.1926-4.066,5.9291-7.2859,7.7323-9.36a7.8488,7.8488,0,0,1,7.5667-3,8.3274,8.3274,0,0,1,6,5.02c2.5378,5.1225,6.0846,12.6044,9.8884,21.8482,8.1169,19.7251,9.4469,28.1362,17.6959,33.722,3.4224,2.3174,9.0289,4.8211,18.0493,4.5093,1.7824-.0161,4.021-.077,6.6-.2455,1.573-.1028,5.1991-.3714,9.8761-1.0653a121.5886,121.5886,0,0,0,14.8659-3.1332c1.6356-.4614,4.357-1.2354,7.8286-2.5231a84.8248,84.8248,0,0,0,18.5143-9.447,48.2027,48.2027,0,0,0,8.1738-6.91,46.1408,46.1408,0,0,0,3.841-4.7095c4.1938-6.0429,5.5674-13.0066,6.0559-17.4412v20.3352a27.851,27.851,0,0,1-.4274,4.7534,32.8692,32.8692,0,0,1-2.2925,7.1538C330.188,222.6444,324.75,231.0184,313,238.4a75.35,75.35,0,0,1-15.0161,7.1,108.2551,108.2551,0,0,1-25.3582,5.9978,131.62,131.62,0,0,1-20.229.9762,128.496,128.496,0,0,1-25.8181-3.2484,103.9848,103.9848,0,0,1-22.638-8.1094A66.1741,66.1741,0,0,1,193.832,234.88a52.5454,52.5454,0,0,1-7.8645-7.151,38.75,38.75,0,0,1-4.8977-6.8861,35.0439,35.0439,0,0,1-1.94-4.2059,27.5314,27.5314,0,0,1-1.7855-9.6762C176.9471,191.1962,177.3288,186.3456,177.3441,186.6255Z"/>
      <path class="cls-7" d="M177.1642,192.5333a4.4656,4.4656,0,0,0,1.1691,2.7334,2.7033,2.7033,0,0,0,1.8,1,2.6029,2.6029,0,0,0,1.4-.4,2.8333,2.8333,0,0,0,.7167-.6167l18.2667-22.9167a6.3664,6.3664,0,0,1,4.3989-2.2192,5.5773,5.5773,0,0,1,1.5344.1859,6.707,6.707,0,0,1,3.7384,2.5766,6.5568,6.5568,0,0,1,.7879,1.4834Q229.77,219.26,229.8,219.3332l0,0a23.0418,23.0418,0,0,0,2.3333,4.2667,26.9688,26.9688,0,0,0,7.0334,6.7333,32.196,32.196,0,0,0,5.4,3.2334A33.4759,33.4759,0,0,0,253.4,236.2a35.0466,35.0466,0,0,0,6.725.4c3.4814-.2361,6.4727-.5467,8.8417-.8333,1.2961-.1568,7.3886-.9093,13.2333-2.1667,2.1729-.4674,4.3065-1.0023,4.3066-1.0023,1.262-.3165,2.45-.6364,3.7434-.9977,2.7577-.77,5.2214-1.5473,7.35-2.2666l0,0A110.2835,110.2835,0,0,0,321.825,216.5a30.3431,30.3431,0,0,0,9.0416-9.2333,28.5345,28.5345,0,0,0,3.7893-10.8v.6833a28.0742,28.0742,0,0,1-3.5309,10.325,29.9571,29.9571,0,0,1-8.95,9.35A106.0342,106.0342,0,0,1,297.6,229.8a136.69,136.69,0,0,1-37.5279,7.2555A34.382,34.382,0,0,1,246.975,235.1a35.1551,35.1551,0,0,1-8.1583-4.25,24.7392,24.7392,0,0,1-7.1-6.8167,21.772,21.772,0,0,1-2.2667-4.46v0L210.4,173.95a6.772,6.772,0,0,0-2.1667-2.3667,5.4316,5.4316,0,0,0-3.6-1.0666,5.5453,5.5453,0,0,0-2.3166.8666,6.7733,6.7733,0,0,0-1.4667,1.2c-10.21,12.8327-17.7067,22.217-18.3664,22.9917a3.1247,3.1247,0,0,1-.6836.6,2.9247,2.9247,0,0,1-1.7.5,2.9833,2.9833,0,0,1-2.025-1.05,3.5613,3.5613,0,0,1-.909-2.225Z"/>
      <g>
        <polygon class="cls-8" points="190.914 199.379 202.074 231.454 216.222 212.703 203.643 180.467 190.914 199.379"/>
        <path class="cls-9" d="M201.9126,193.8729q2.4462,7.14,5.0331,14.6909l9.2763,4.1392q-6.897,9.1416-14.1479,18.7513-.52-7.5981-1.014-14.8212-3.1017-7.3812-6.0355-14.3627l-4.1108-2.8914q6.5473-9.7279,12.7288-18.9119Z"/>
        <path class="cls-10" d="M206.9457,208.5638q-2.91,3.99-5.8856,8.0693-3.1017-7.3812-6.0355-14.3627,3.4847-4.2486,6.888-8.3975Q204.3588,201.0126,206.9457,208.5638Z"/>
        <path class="cls-10" d="M206.9457,208.5638q-2.91,3.99-5.8856,8.0693-3.1017-7.3812-6.0355-14.3627,3.4847-4.2486,6.888-8.3975Q204.3588,201.0126,206.9457,208.5638Z"/>
        <path class="cls-11" d="M196.9322,203.0758c-.0562-2.2942,1.45-4.6749,1.8747-3.6513.922,2.2236.4075,8.4327-.365,8.1541C197.6673,207.2991,196.9685,204.5556,196.9322,203.0758Z"/>
        <path class="cls-11" d="M198.8592,208.6989a3.9569,3.9569,0,0,0,1.3286,3.1162C200.8552,212.1029,199.3511,207.2873,198.8592,208.6989Z"/>
      </g>
      <circle class="cls-12" cx="188.1835" cy="198.2609" r="1.1693"/>
      <circle class="cls-12" cx="204.2667" cy="176.364" r="1.1693"/>
      <circle class="cls-12" cx="219.0756" cy="213.6725" r="1.1693"/>
      <circle class="cls-12" cx="202.153" cy="234.8032" r="1.1693"/>
    </g>
  </g>
</svg>
