<svg id="Layer_1" data-name="Layer 1" xmlns="http://www.w3.org/2000/svg" xmlns:xlink="http://www.w3.org/1999/xlink" width="512" height="512" viewBox="0 0 512 512"><defs><style>.cls-1{fill:#100933;}.cls-1,.cls-3,.cls-4,.cls-5,.cls-6,.cls-7,.cls-8{fill-rule:evenodd;}.cls-2{fill:url(#radial-gradient);}.cls-3{fill:url(#linear-gradient);}.cls-4{fill:#332410;}.cls-5{fill:url(#radial-gradient-2);}.cls-6{fill:#777;}.cls-7{fill:url(#radial-gradient-3);}.cls-8{fill:url(#radial-gradient-4);}</style><radialGradient id="radial-gradient" cx="254.46" cy="201.8393" r="80.5672" gradientUnits="userSpaceOnUse"><stop offset="0.0907" stop-color="#6a47cc"/><stop offset="0.1226" stop-color="#6644c6"/><stop offset="0.3459" stop-color="#4f31a3"/><stop offset="0.5561" stop-color="#3f248a"/><stop offset="0.7462" stop-color="#351c7a"/><stop offset="0.8986" stop-color="#311975"/></radialGradient><linearGradient id="linear-gradient" x1="198.8181" y1="189.5301" x2="310.1909" y2="189.5301" gradientUnits="userSpaceOnUse"><stop offset="0" stop-color="#563e24"/><stop offset="0.1937" stop-color="#775b39"/><stop offset="1" stop-color="#423014"/></linearGradient><radialGradient id="radial-gradient-2" cx="227.5665" cy="121.9996" r="123.9217" xlink:href="#radial-gradient"/><radialGradient id="radial-gradient-3" cx="220.4771" cy="195.958" r="4.7132" gradientTransform="translate(7.9666 -8.5744) rotate(2.3171)" gradientUnits="userSpaceOnUse"><stop offset="0" stop-color="#e5e5e5"/><stop offset="1" stop-color="#848484"/></radialGradient><radialGradient id="radial-gradient-4" cx="214.6041" cy="192.7314" r="17.7002" xlink:href="#radial-gradient-3"/></defs><g id="Crown_Hats" data-name="Crown &amp; Hats"><g id="Sorcerer_Hat" data-name="Sorcerer Hat"><path class="cls-1" d="M306.7476,154.25c14.3028,5.5336,37.0737,14.3436,44.1077,35.6427,3.95,11.9592,1.2553,22.7608.2148,26.7193-4.657,17.7182-17.9229,28.4075-25.0949,32.2553a96.7618,96.7618,0,0,1-13.19,5.63c-.6956.2395-4.0753,1.3941-8.69,2.59-3.6288.9407-6.8213,1.5962-9.3989,2.0584-2.8429-5.0851-4.8866-7.4717-5.5372-7.4625-.6045.0086-.6572,2.2016-.6093,6.1679a13.509,13.509,0,0,1-.1535,2.3082,207.4636,207.4636,0,0,1-35.7405,1.3416A204.3663,204.3663,0,0,1,212.35,255.5c-3.935-1.0035-7.1847-1.9609-9.46-2.6627-5.2231-1.5972-9.6251-3.274-13.0924-4.7263a106.8679,106.8679,0,0,1-11.2208-5.3539c-2.2152-1.2276-4.28-2.4807-5.3071-3.1569a39.0649,39.0649,0,0,1-15.9156-22.9881,38.3128,38.3128,0,0,1,1.5383-21.9365L165,189.325l-3.1-1.15.09-1.0807.6851-.6193a91.7721,91.7721,0,0,1,31.8714-29.1179c19.1186-10.3336,36.7981-10.4464,57.7956-10.72C268.4474,146.427,285.939,146.1989,306.7476,154.25Z"/><path class="cls-2" d="M171.4,173.6c31.0426-35.4553,88.9887-32.795,124.1-23.2,15.5174,4.24,44.8945,12.2685,54.2455,36.1694,5.0333,12.865,2.2988,25.2845,1.7591,27.54-4.5392,18.97-20.1784,29.3442-25.2077,32.3994l-13.2487,5.6548a126.64,126.64,0,0,1-18.17,4.67c-2.8555-5.1079-4.9085-7.5054-5.5619-7.4959-.7162.01-.9537,3.0861-.7663,8.5142a187.68,187.68,0,0,1-35.9,1.3479,213.0578,213.0578,0,0,1-40.4876-6.0281l-9.5022-2.6748a134.1588,134.1588,0,0,1-24.4225-10.1258l-5.3311-3.1712c-2.1654-1.4023-13.011-8.7395-15.986-23.09a36.522,36.522,0,0,1,2.8414-22.8766l6.305-3.1656-4.0768-.9724A75.44,75.44,0,0,1,171.4,173.6Z"/><path class="cls-3" d="M203.2622,166.8265H305.747c.52,5.62,1.871,10.1244,3.734,15.6862a12.5712,12.5712,0,0,1-.9239,10.37c-6.0911,11.1193-27.9817,19.3507-54.0524,19.3507s-47.9619-8.2314-54.052-19.3507a12.5676,12.5676,0,0,1-.9246-10.37c1.8624-5.5618,3.2138-10.0663,3.7341-15.6862Z"/><path class="cls-4" d="M254.5047,146.279c28.3232,0,51.2834,9.5862,51.2834,21.412s-22.96,21.4118-51.2834,21.4118-51.2839-9.5866-51.2839-21.4118,22.96-21.412,51.2839-21.412Z"/><path class="cls-5" d="M302.1484,167.691c0,10.9859-21.3309,19.8923-47.6437,19.8923s-47.644-8.9064-47.644-19.8923a17.45,17.45,0,0,1,1.4469-5.643,101.3552,101.3552,0,0,0,6.0573-27.0405c.758-7.7818.4431-4.7388,5.3432-9.5972,7.271-8.2418,14.3053-16.6815,21.3372-25.1251,4.3191-5.4231,7.7537-11.7151,11.88-17.4747,1.655-2.3815,3.983-6.5448,6.3391-9.2373,1.2732-1.4552,5.2653-1.5636,8.5344-2.7968,3.3292-1.2555,5.9357-3.6231,7.08-3.6083,2.2218.03,4.339,1.2034,6.6774,2.3463,3.7205,1.8178,7.1023,4.315,10.8281,6.2618,11.1939,5.6954,12.4952,5.9055,24.8114,8.0518,5.9363,1.0346,11.4029,2.6979,17.6034,3.5941,1.4256.206,2.6192.3492,1.8628,1.3913a4.3287,4.3287,0,0,1-.5567.6079c-6.84,5.9409-22.8812,11.0388-36.5067,11.4312a270.0559,270.0559,0,0,0-6.046,26.9518c1.414,2.8953,3.9924,2.3966,4.1785,5.867a176.6336,176.6336,0,0,0,2.687,23.6459C301.3168,162.5115,302.1484,164.4763,302.1484,167.691Z"/><path class="cls-6" d="M221.07,208.1005a16.4194,16.4194,0,0,0,4.5863-1.0668,2.5792,2.5792,0,0,0,1.0718-.8139,25.07,25.07,0,0,0,3.0857-6.5709,21.9546,21.9546,0,0,0,.7131-9.5042,7.0632,7.0632,0,0,0-1.6462-3.935,7.2786,7.2786,0,0,0-2.7342-1.9392c-2.7059-1.1751-8.03-3.6687-15.1213-6.9474a1.8281,1.8281,0,0,0-.8137-.1682q-.8678-.0282-1.7763-.0338-1.0581-.0057-2.0624.021l-.1156,1.3055,18.4418,9.8264.9964,7.2608-8.2618-3.0336a.7835.7835,0,0,0-.1705-.0414.7757.7757,0,0,0-.1657-.003q-.2485.0086-.512.0274c-.2606.0189-.51.0447-.7476.0753l9.4823,5.2666-.9688,3.89-2.8793,3.5666Z"/><path class="cls-7" d="M223.9708,199.5972l-8.1292-3.4327a2.2536,2.2536,0,0,1-1.1376-2.2975h0c.1242-.9781.862-1.5392,1.6429-1.2249l8.498,3.4206a2.0854,2.0854,0,0,1,1.0866,2.4365h0A1.4522,1.4522,0,0,1,223.9708,199.5972Z"/><path class="cls-8" d="M204.1071,178.5a35.8963,35.8963,0,0,0-2.8677,16.1124,5.9213,5.9213,0,0,0,1.1541,4.0634,5.6609,5.6609,0,0,0,2.12,1.6721l13.2782,7.1012a5.0112,5.0112,0,0,0,6.7741-1.5967,20.1938,20.1938,0,0,0,1.1966-2.0738,22.94,22.94,0,0,0,1.9654-13.345,6.0153,6.0153,0,0,0-3.9557-5.06l-16.46-8.2146a3.2713,3.2713,0,0,0-3.2049,1.3411Zm3.5815,2.4455a88.99,88.99,0,0,0,13.8788,6.86,3.854,3.854,0,0,1,2.46,3.0749c.8335,4.0182.5068,10.4416-2.8385,13.3642a2.84,2.84,0,0,1-2.5214.4518c-3.06-.889-10.9689-5.23-13.81-7.042a3.1964,3.1964,0,0,1-1.6953-2.7151c-.457-3.8137.278-10.8177,2.6173-13.9886.6567-.89,1.1852-.4394,1.9085-.0051Z"/><path class="cls-6" d="M205.78,180.951c-2.3393,3.1709-3.0743,10.1749-2.6173,13.9886a3.1964,3.1964,0,0,0,1.6953,2.7151c2.841,1.8125,10.75,6.153,13.81,7.042a2.84,2.84,0,0,0,2.5214-.4518c.0609-.0538.1216-.1079.181-.1642-3.0664-.89-10.8735-5.1744-13.6778-6.964a3.1557,3.1557,0,0,1-1.6734-2.68c-.4233-3.5323.19-9.8382,2.1747-13.1885q-.25-.149-.5053-.3023C206.9653,180.5116,206.4368,180.0607,205.78,180.951Z"/></g></g></svg>