<svg id="Layer_1_copy_4" data-name="Layer 1 copy 4" xmlns="http://www.w3.org/2000/svg" viewBox="0 0 1000 1000"><defs><style>.cls-1{fill:#fff;}</style></defs><path class="cls-1" d="M515.37,513.92V990.2L928,750.52l-.15-474.74ZM636.49,525.4c25.83-14.92,46.88-3,47,26.74S662.63,618,636.79,632.93s-46.86,2.92-46.92-26.76S610.67,540.3,636.49,525.4Zm1,334.53c-25.82,14.92-46.86,2.93-47-26.75s20.83-65.87,46.65-80.78,46.86-2.92,47,26.75S663.28,845,637.44,859.93Zm95.85-162.35c-25.84,14.92-46.87,2.93-46.95-26.75S707.15,605,733,590s46.87-2.92,46.95,26.76S759.2,682.6,733.29,697.58ZM828.8,414.37c25.84-14.92,46.88-3,47,26.74S854.94,507,829.11,521.89s-46.85,2.94-46.93-26.74S803,429.27,828.8,414.37Zm1,334.53c-25.85,14.91-46.86,2.93-46.95-26.75s20.81-65.87,46.63-80.79,46.88-2.93,46.95,26.76S855.59,734,829.77,748.9Z"/><path class="cls-1" d="M501.25,489.46l413.88-239L498.6,9.8,85.93,249.67ZM449.51,219.22c27.71-16.1,72.75-16.11,100.65,0s28,42.16.28,58.26-72.72,16.08-100.55,0S421.86,235.28,449.51,219.22Z"/><path class="cls-1" d="M72,274.25q0,238.14,0,476.27L487.13,990.2V513.92ZM202.19,538.19c-9.44,5.37-21.79,3.67-34.1-3.44s-24.61-19.63-34-35.87c-18.69-32.45-18.59-67.44.21-78.16,9.44-5.38,21.79-3.67,34.1,3.44S193,443.79,202.4,460C221.09,492.4,221,527.38,202.19,538.19Zm92.27,159.9c-9.4,5.36-21.71,3.64-34-3.46s-24.66-19.65-34-35.88c-18.73-32.41-18.65-67.4.23-78.16,9.42-5.36,21.75-3.63,34.06,3.48s24.61,19.61,34,35.79C313.44,652.35,313.34,687.33,294.46,698.09ZM386.81,858c-9.44,5.38-21.77,3.68-34.1-3.43s-24.61-19.63-34-35.87c-18.76-32.49-18.65-67.47.23-78.16,9.44-5.38,21.77-3.67,34.08,3.44s24.61,19.63,34,35.87C405.71,812.18,405.61,847.17,386.81,858Z"/></svg>