{
  "accessors": [
    {
      "bufferView": 2,
      "componentType": 5126,
      "count": 6243,
      "max": [
        1.6431783437728882,
        7.441337585449219,
        1.6431783437728882
      ],
      "min": [
        -1.6431783437728882,
        4.154980659484863,
        -1.6431783437728882
      ],
      "type": "VEC3"
    },
    {
      "bufferView": 2,
      "byteOffset": 74916,
      "componentType": 5126,
      "count": 6243,
      "max": [
        1.0,
        1.0,
        1.0
      ],
      "min": [
        -1.0,
        -1.0,
        -1.0
      ],
      "type": "VEC3"
    },
    {
      "bufferView": 1,
      "componentType": 5126,
      "count": 6243,
      "max": [
        1.0000001192092896,
        1.0
      ],
      "min": [
        0.0,
        0.0
      ],
      "type": "VEC2"
    },
    {
      "bufferView": 0,
      "componentType": 5125,
      "count": 28446,
      "type": "SCALAR"
    },
    {
      "bufferView": 2,
      "byteOffset": 149832,
      "componentType": 5126,
      "count": 952,
      "max": [
        1.6431783437728882,
        7.441337585449219,
        1.6431783437728882
      ],
      "min": [
        -1.6431783437728882,
        4.154980659484863,
        -1.6431783437728882
      ],
      "type": "VEC3"
    },
    {
      "bufferView": 2,
      "byteOffset": 161256,
      "componentType": 5126,
      "count": 952,
      "max": [
        1.0,
        1.0,
        1.0
      ],
      "min": [
        -1.0,
        -1.0,
        -1.0
      ],
      "type": "VEC3"
    },
    {
      "bufferView": 1,
      "byteOffset": 49944,
      "componentType": 5126,
      "count": 952,
      "max": [
        0.875,
        1.0
      ],
      "min": [
        0.125,
        0.0
      ],
      "type": "VEC2"
    },
    {
      "bufferView": 0,
      "byteOffset": 113784,
      "componentType": 5125,
      "count": 2940,
      "type": "SCALAR"
    }
  ],
  "asset": {
    "extras": {
      "author": "Marxtodon (https://sketchfab.com/Marxtodon)",
      "license": "CC-BY-4.0 (http://creativecommons.org/licenses/by/4.0/)",
      "source": "https://sketchfab.com/3d-models/dice-68f47210c2434c2aa21e263de7cce790",
      "title": "Dice"
    },
    "generator": "Sketchfab-12.66.0",
    "version": "2.0"
  },
  "bufferViews": [
    {
      "buffer": 0,
      "byteLength": 125544,
      "name": "floatBufferViews",
      "target": 34963
    },
    {
      "buffer": 0,
      "byteLength": 57560,
      "byteOffset": 125544,
      "byteStride": 8,
      "name": "floatBufferViews",
      "target": 34962
    },
    {
      "buffer": 0,
      "byteLength": 172680,
      "byteOffset": 183104,
      "byteStride": 12,
      "name": "floatBufferViews",
      "target": 34962
    }
  ],
  "buffers": [
    {
      "byteLength": 355784,
      "uri": "scene.bin"
    }
  ],
  "materials": [
    {
      "doubleSided": true,
      "name": "DadoColorAgujeros",
      "pbrMetallicRoughness": {
        "baseColorFactor": [
          0.0,
          0.0,
          0.0,
          1.0
        ],
        "metallicFactor": 0.0,
        "roughnessFactor": 0.6
      }
    },
    {
      "doubleSided": true,
      "emissiveFactor": [
        0.083871,
        0.083871,
        0.083871
      ],
      "name": "DadoColor",
      "pbrMetallicRoughness": {
        "metallicFactor": 0.0,
        "roughnessFactor": 0.6
      }
    }
  ],
  "meshes": [
    {
      "name": "Dado:pCube8_DadoColorAgujeros_0",
      "primitives": [
        {
          "attributes": {
            "NORMAL": 1,
            "POSITION": 0,
            "TEXCOORD_0": 2
          },
          "indices": 3,
          "material": 0,
          "mode": 4
        }
      ]
    },
    {
      "name": "Dado:pCube8_DadoColor_0",
      "primitives": [
        {
          "attributes": {
            "NORMAL": 5,
            "POSITION": 4,
            "TEXCOORD_0": 6
          },
          "indices": 7,
          "material": 1,
          "mode": 4
        }
      ]
    }
  ],
  "nodes": [
    {
      "children": [
        1
      ],
      "matrix": [
        1.0,
        0.0,
        0.0,
        0.0,
        0.0,
        2.220446049250313e-16,
        -1.0,
        0.0,
        0.0,
        1.0,
        2.220446049250313e-16,
        0.0,
        0.0,
        0.0,
        0.0,
        1.0
      ],
      "name": "Sketchfab_model"
    },
    {
      "children": [
        2
      ],
      "matrix": [
        1.0,
        0.0,
        0.0,
        0.0,
        0.0,
        0.0,
        1.0,
        0.0,
        0.0,
        -1.0,
        0.0,
        0.0,
        0.0,
        0.0,
        0.0,
        1.0
      ],
      "name": "80b3ae61aeec4ab0b6768dbb17a58f93.fbx"
    },
    {
      "children": [
        3
      ],
      "name": "RootNode"
    },
    {
      "children": [
        4
      ],
      "name": "ArmarioYContenido"
    },
    {
      "children": [
        5
      ],
      "matrix": [
        1.0,
        0.0,
        0.0,
        0.0,
        0.0,
        1.0,
        0.0,
        0.0,
        0.0,
        0.0,
        1.0,
        0.0,
        0.0,
        0.0,
        -0.2976902723312378,
        1.0
      ],
      "name": "Dado1"
    },
    {
      "children": [
        6,
        7
      ],
      "matrix": [
        0.1788902127329582,
        0.1457855759797488,
        0.08001547263029922,
        0.0,
        -0.16400262205951555,
        0.135185532091127,
        0.1203562632623782,
        0.0,
        0.027550861721568363,
        -0.1418769043401077,
        0.19689975182540798,
        0.0,
        1.649721384048462,
        3.3563482761383057,
        4.5474324226379395,
        1.0
      ],
      "name": "Dado:pCube8"
    },
    {
      "mesh": 0,
      "name": "Dado:pCube8_DadoColorAgujeros_0"
    },
    {
      "mesh": 1,
      "name": "Dado:pCube8_DadoColor_0"
    }
  ],
  "scene": 0,
  "scenes": [
    {
      "name": "Sketchfab_Scene",
      "nodes": [
        0
      ]
    }
  ]
}
