<svg id="Layer_1" data-name="Layer 1" xmlns="http://www.w3.org/2000/svg" xmlns:xlink="http://www.w3.org/1999/xlink" width="512" height="512" viewBox="0 0 512 512">
  <defs>
    <style>
      .cls-1 {
        fill: none;
      }

      .cls-2 {
        fill: #ff8605;
      }

      .cls-3 {
        fill: #ffe005;
      }

      .cls-4 {
        fill: #aa5100;
      }

      .cls-5 {
        clip-path: url(#clip-path);
      }

      .cls-6 {
        clip-path: url(#clip-path-2);
      }

      .cls-7 {
        clip-path: url(#clip-path-3);
      }

      .cls-8 {
        clip-path: url(#clip-path-4);
      }

      .cls-9 {
        clip-path: url(#clip-path-5);
      }

      .cls-10 {
        clip-path: url(#clip-path-6);
      }
    </style>
    <clipPath id="clip-path">
      <path class="cls-1" d="M149.0263,370.4231a11.7184,11.7184,0,0,1-.64,3.2383,12.3748,12.3748,0,0,1-1.7526,3.2569,16.8434,16.8434,0,0,1-2.8684,3.0561c-.244.2089-.4324.36-.5583.46a24.7141,24.7141,0,0,1-3.4526,2.2949,33.3193,33.3193,0,0,1-4.05,1.9115c-.05.02-.2684.1059-.5568.2145a42.252,42.252,0,0,1-4.79,1.4686c-.5438.1334-2.2221.5343-4.4693.862a52.57,52.57,0,0,1-5.5877.4984,53.83,53.83,0,0,1-6.0832-.119,52.1154,52.1154,0,0,1-5.4916-.7073,47.0737,47.0737,0,0,1-5.659-1.4043,39.72,39.72,0,0,1-5.51-2.2247c-.9806-.4893-1.6728-.8932-1.9787-1.075a27.11,27.11,0,0,1-2.7075-1.8267,20.3531,20.3531,0,0,1-1.95-1.6894,16.4843,16.4843,0,0,1-1.8749-2.1507,14.5218,14.5218,0,0,1-1.4438-2.44,12.2338,12.2338,0,0,1-.5082-1.3027,11.1817,11.1817,0,0,1-.447-1.9729,10.7039,10.7039,0,0,1-.0863-1.1239c.0549-1.6837.0888-2.9947.11-3.911.0136-.5837.0481-2.1342.0543-2.134l0,.0011a10.7672,10.7672,0,0,0,.0961,1.0825c.034.2429.0864.5589.1706.9242s.1716.6554.2349.8581a12.47,12.47,0,0,0,1.5452,3.2041c.0365.0554.1643.2487.3417.4965a17.371,17.371,0,0,0,1.2938,1.5844,21.111,21.111,0,0,0,2.53,2.3116c.5015.392.8935.6649,1.1361.8333a29.5142,29.5142,0,0,0,3.03,1.8293c.0685.0362.26.1369.52.2686a37.1847,37.1847,0,0,0,4.9871,2.0662c.0615.0206.26.0871.5222.1711a46.8125,46.8125,0,0,0,5.133,1.3162,52.0652,52.0652,0,0,0,6.0406.82,53.7318,53.7318,0,0,0,5.5319.1435,52.79,52.79,0,0,0,5.5773-.4319,48.7725,48.7725,0,0,0,5.0307-.93,42.5955,42.5955,0,0,0,4.79-1.4592c1.4326-.5375,2.4923-1.0347,2.9479-1.2538.732-.352,1.2586-.6374,1.413-.7216,1.1437-.6238,1.9617-1.1691,2.1935-1.3252a22.1521,22.1521,0,0,0,2.04-1.527,19.49,19.49,0,0,0,2.3283-2.3186c.2775-.3346.506-.6423.539-.6868a13.7178,13.7178,0,0,0,.8432-1.2621,12.8735,12.8735,0,0,0,.9344-1.9336c.0588-.1545.1628-.4146.267-.7714,0,0,.05-.17.0958-.3577.1683-.6841.3142-1.8727.3318-2.0177l-.0709,2.8989Z"/>
    </clipPath>
    <clipPath id="clip-path-2">
      <path class="cls-1" d="M152.12,362.2026a11.7227,11.7227,0,0,1-.64,3.2384,12.3762,12.3762,0,0,1-1.7527,3.2569,16.8507,16.8507,0,0,1-2.8683,3.0561c-.244.2089-.4325.36-.5583.46a24.72,24.72,0,0,1-3.4527,2.2949,33.3176,33.3176,0,0,1-4.05,1.9114c-.05.02-.2683.106-.5567.2146a42.2958,42.2958,0,0,1-4.79,1.4686c-.5439.1334-2.2222.5342-4.4694.8619a52.5387,52.5387,0,0,1-5.5877.4984,53.8307,53.8307,0,0,1-6.0832-.119,52.1335,52.1335,0,0,1-5.4916-.7072,47.0858,47.0858,0,0,1-5.659-1.4044,39.7432,39.7432,0,0,1-5.51-2.2246c-.9805-.4894-1.6728-.8932-1.9787-1.0751a27.0857,27.0857,0,0,1-2.7075-1.8267,20.3467,20.3467,0,0,1-1.95-1.6893,16.4988,16.4988,0,0,1-1.8749-2.1507,14.518,14.518,0,0,1-1.4437-2.44,12.2606,12.2606,0,0,1-.5083-1.3027,11.1931,11.1931,0,0,1-.447-1.9729,10.7291,10.7291,0,0,1-.0862-1.1239c.0549-1.6837.0888-2.9947.11-3.9111.0135-.5836.0481-2.1341.0542-2.134l0,.0011a10.7965,10.7965,0,0,0,.096,1.0825c.034.2429.0865.5589.1707.9242s.1716.6554.2348.8582a12.4649,12.4649,0,0,0,1.5453,3.204c.0364.0554.1642.2488.3416.4965A17.3566,17.3566,0,0,0,93.5,363.5334a21.0978,21.0978,0,0,0,2.53,2.3116c.5015.3921.8935.665,1.1361.8333a29.4838,29.4838,0,0,0,3.03,1.8294c.0686.0361.26.1369.52.2686a37.2013,37.2013,0,0,0,4.9872,2.0662c.0614.0206.26.0871.5221.1711a46.8677,46.8677,0,0,0,5.133,1.3162,52.0918,52.0918,0,0,0,6.0406.82,53.7617,53.7617,0,0,0,5.532.1435,52.8092,52.8092,0,0,0,5.5773-.432,48.8134,48.8134,0,0,0,5.0307-.93,42.6328,42.6328,0,0,0,4.79-1.4592c1.4326-.5375,2.4923-1.0347,2.9479-1.2538.732-.3521,1.2586-.6375,1.413-.7217,1.1437-.6237,1.9616-1.1691,2.1934-1.3252a22.1123,22.1123,0,0,0,2.04-1.5269,19.4857,19.4857,0,0,0,2.3282-2.3187c.2776-.3346.5061-.6422.5391-.6868a13.7245,13.7245,0,0,0,.8432-1.2621,12.8757,12.8757,0,0,0,.9343-1.9335c.0588-.1545.1629-.4147.267-.7715,0,0,.05-.17.0959-.3577.1683-.6841.3142-1.8727.3318-2.0177l-.0709,2.8989Z"/>
    </clipPath>
    <clipPath id="clip-path-3">
      <path class="cls-1" d="M149.1051,356.7869a11.722,11.722,0,0,1-.64,3.2384,12.3745,12.3745,0,0,1-1.7527,3.2569,16.8472,16.8472,0,0,1-2.8683,3.0561c-.2441.2089-.4325.36-.5583.46a24.72,24.72,0,0,1-3.4527,2.2949,33.3176,33.3176,0,0,1-4.05,1.9114c-.05.02-.2683.106-.5568.2146a42.27,42.27,0,0,1-4.79,1.4686c-.5439.1334-2.2222.5342-4.4694.8619a52.5387,52.5387,0,0,1-5.5877.4984,53.8307,53.8307,0,0,1-6.0832-.119,52.1335,52.1335,0,0,1-5.4916-.7072,47.0858,47.0858,0,0,1-5.659-1.4044,39.73,39.73,0,0,1-5.51-2.2246c-.9805-.4893-1.6728-.8932-1.9787-1.075a27.1235,27.1235,0,0,1-2.7075-1.8267,20.3655,20.3655,0,0,1-1.95-1.6894,16.4988,16.4988,0,0,1-1.8749-2.1507,14.518,14.518,0,0,1-1.4437-2.44,12.2432,12.2432,0,0,1-.5083-1.3027,11.1931,11.1931,0,0,1-.447-1.9729,10.7291,10.7291,0,0,1-.0862-1.1239c.0549-1.6837.0888-2.9947.11-3.9111.0135-.5836.0481-2.1341.0542-2.134l0,.0012a10.802,10.802,0,0,0,.096,1.0825c.034.2428.0865.5588.1707.9241s.1716.6554.2348.8582a12.4649,12.4649,0,0,0,1.5453,3.204c.0364.0554.1642.2488.3416.4965a17.3673,17.3673,0,0,0,1.2938,1.5845,21.11,21.11,0,0,0,2.53,2.3115c.5015.3921.8935.665,1.1361.8333a29.4838,29.4838,0,0,0,3.03,1.8294c.0686.0361.26.1369.52.2686a37.1954,37.1954,0,0,0,4.9872,2.0662c.0614.0206.26.0871.5221.1711a46.8434,46.8434,0,0,0,5.133,1.3162,52.0918,52.0918,0,0,0,6.0406.82,53.7617,53.7617,0,0,0,5.532.1435,52.8183,52.8183,0,0,0,5.5773-.4319,48.8019,48.8019,0,0,0,5.0307-.93,42.6328,42.6328,0,0,0,4.79-1.4592c1.4326-.5375,2.4923-1.0347,2.9479-1.2538.7319-.352,1.2586-.6374,1.4129-.7216,1.1438-.6238,1.9617-1.1691,2.1935-1.3253a22.1123,22.1123,0,0,0,2.04-1.5269,19.4779,19.4779,0,0,0,2.3282-2.3187c.2776-.3346.5061-.6422.5391-.6867a13.7388,13.7388,0,0,0,.8432-1.2621,12.88,12.88,0,0,0,.9343-1.9336c.0588-.1545.1629-.4147.267-.7714,0,0,.05-.17.0959-.3577.1682-.6842.3142-1.8728.3318-2.0178l-.0709,2.8989Z"/>
    </clipPath>
    <clipPath id="clip-path-4">
      <path class="cls-1" d="M152.1983,348.6229a11.7146,11.7146,0,0,1-.64,3.2384,12.3748,12.3748,0,0,1-1.7526,3.2569,16.8434,16.8434,0,0,1-2.8684,3.0561c-.244.2089-.4324.36-.5583.46a24.7141,24.7141,0,0,1-3.4526,2.2949,33.3258,33.3258,0,0,1-4.05,1.9114c-.05.02-.2684.106-.5568.2146a42.245,42.245,0,0,1-4.79,1.4686c-.5438.1334-2.2221.5342-4.4693.8619a52.5415,52.5415,0,0,1-5.5877.4984,53.858,53.858,0,0,1-6.0832-.1189,52.1478,52.1478,0,0,1-5.4916-.7073,47.0858,47.0858,0,0,1-5.659-1.4044,39.7244,39.7244,0,0,1-5.51-2.2246c-.9806-.4893-1.6728-.8932-1.9787-1.075a27.11,27.11,0,0,1-2.7075-1.8267,20.3531,20.3531,0,0,1-1.95-1.6894,16.4912,16.4912,0,0,1-1.8749-2.1507,14.5218,14.5218,0,0,1-1.4438-2.44,12.2338,12.2338,0,0,1-.5082-1.3027,11.1931,11.1931,0,0,1-.447-1.9729,10.7332,10.7332,0,0,1-.0863-1.1239c.0549-1.6837.0888-2.9947.11-3.9111.0136-.5836.0481-2.1341.0543-2.134l0,.0012a10.7994,10.7994,0,0,0,.0961,1.0825c.034.2428.0864.5588.1706.9241s.1716.6554.2349.8582a12.4672,12.4672,0,0,0,1.5452,3.204c.0365.0554.1643.2488.3417.4966a17.371,17.371,0,0,0,1.2938,1.5844,21.12,21.12,0,0,0,2.53,2.3116c.5015.392.8935.6649,1.1361.8332a29.4894,29.4894,0,0,0,3.03,1.8294c.0685.0362.26.1369.52.2686a37.1954,37.1954,0,0,0,4.9872,2.0662c.0614.0206.26.0871.5221.1711a46.8368,46.8368,0,0,0,5.133,1.3162,52.0883,52.0883,0,0,0,6.0406.82,53.7606,53.7606,0,0,0,5.5319.1435,52.7849,52.7849,0,0,0,5.5773-.4319,48.796,48.796,0,0,0,5.0307-.93,42.6181,42.6181,0,0,0,4.79-1.4592c1.4326-.5375,2.4924-1.0347,2.9479-1.2538.732-.352,1.2586-.6374,1.413-.7216,1.1437-.6238,1.9617-1.1691,2.1935-1.3252a22.1521,22.1521,0,0,0,2.04-1.527,19.4845,19.4845,0,0,0,2.3283-2.3187c.2776-.3346.506-.6422.539-.6867a13.7345,13.7345,0,0,0,.8433-1.2621,12.88,12.88,0,0,0,.9343-1.9336c.0588-.1545.1628-.4146.267-.7714,0,0,.05-.17.0958-.3577.1683-.6842.3142-1.8728.3318-2.0178l-.0709,2.8989Z"/>
    </clipPath>
    <clipPath id="clip-path-5">
      <path class="cls-1" d="M150.4749,341.0963a11.719,11.719,0,0,1-.64,3.2384,12.3732,12.3732,0,0,1-1.7527,3.2569,16.8542,16.8542,0,0,1-2.8683,3.0561c-.244.2089-.4324.36-.5583.46a24.732,24.732,0,0,1-3.4526,2.295,33.3307,33.3307,0,0,1-4.0506,1.9114c-.05.02-.2683.1059-.5567.2146a42.2958,42.2958,0,0,1-4.79,1.4686c-.5438.1333-2.2221.5342-4.4694.8619a52.5667,52.5667,0,0,1-5.5876.4984,53.832,53.832,0,0,1-6.0833-.119,52.1545,52.1545,0,0,1-5.4915-.7072,47.0744,47.0744,0,0,1-5.659-1.4044,39.7464,39.7464,0,0,1-5.51-2.2246c-.9805-.4894-1.6728-.8933-1.9787-1.0751a27.0841,27.0841,0,0,1-2.7074-1.8267,20.3489,20.3489,0,0,1-1.95-1.6893,16.4858,16.4858,0,0,1-1.875-2.1508,14.5266,14.5266,0,0,1-1.4437-2.44,12.2512,12.2512,0,0,1-.5082-1.3027,11.1964,11.1964,0,0,1-.4471-1.9729,10.731,10.731,0,0,1-.0862-1.1239c.0549-1.6838.0888-2.9948.11-3.9111.0135-.5837.0481-2.1341.0542-2.134l0,.0011a10.7672,10.7672,0,0,0,.0961,1.0825c.0339.2429.0864.5589.1706.9242s.1716.6554.2349.8581a12.465,12.465,0,0,0,1.5452,3.2041c.0364.0554.1642.2487.3417.4965a17.3566,17.3566,0,0,0,1.2938,1.5844,21.1022,21.1022,0,0,0,2.53,2.3116c.5015.392.8935.6649,1.1361.8333a29.4952,29.4952,0,0,0,3.03,1.8293c.0685.0362.26.1369.52.2686a37.171,37.171,0,0,0,4.9871,2.0662c.0615.0206.26.0871.5222.1712a46.857,46.857,0,0,0,5.1329,1.3162,52.115,52.115,0,0,0,6.0406.82,53.7925,53.7925,0,0,0,5.532.1435,52.8092,52.8092,0,0,0,5.5773-.432,48.7725,48.7725,0,0,0,5.0307-.93,42.6113,42.6113,0,0,0,4.79-1.4591c1.4326-.5376,2.4923-1.0348,2.9479-1.2539.732-.352,1.2586-.6374,1.413-.7216,1.1437-.6238,1.9617-1.1691,2.1935-1.3252a22.1279,22.1279,0,0,0,2.04-1.5269,19.4857,19.4857,0,0,0,2.3282-2.3187c.2776-.3346.5061-.6422.5391-.6868a13.7388,13.7388,0,0,0,.8432-1.2621,12.86,12.86,0,0,0,.9343-1.9335c.0589-.1545.1629-.4147.2671-.7715,0,0,.05-.17.0958-.3577.1683-.6841.3142-1.8727.3318-2.0177l-.0709,2.8989Z"/>
    </clipPath>
    <clipPath id="clip-path-6">
      <path class="cls-1" d="M76.841,328.69a11.7193,11.7193,0,0,1,3.2206.7237,12.3806,12.3806,0,0,1,3.21,1.837,16.85,16.85,0,0,1,2.98,2.947c.2024.2494.3482.4417.4453.57a24.7273,24.7273,0,0,1,2.2042,3.5113,33.3468,33.3468,0,0,1,1.8052,4.099c.0186.0509.0989.271.2.5622A42.2839,42.2839,0,0,1,92.25,347.767c.1191.5471.4761,2.2353.7451,4.49a52.5289,52.5289,0,0,1,.3526,5.5988,53.8417,53.8417,0,0,1-.2775,6.078,52.1407,52.1407,0,0,1-.85,5.4713,47.0714,47.0714,0,0,1-1.5514,5.62,39.7264,39.7264,0,0,1-2.3675,5.45c-.5148.9675-.9366,1.649-1.1263,1.95a27.1035,27.1035,0,0,1-1.8966,2.659,20.36,20.36,0,0,1-1.74,1.9051,16.483,16.483,0,0,1-2.1988,1.8182,14.52,14.52,0,0,1-2.4766,1.38,12.2486,12.2486,0,0,1-1.3155.4742,11.1923,11.1923,0,0,1-1.9839.3954,10.735,10.735,0,0,1-1.1258.0569c-1.6817-.0987-2.9913-.1668-3.9068-.212-.5831-.0288-2.1322-.1037-2.1319-.11l.0011,0a10.8006,10.8006,0,0,0,1.0847-.0678c.2436-.0276.5609-.0718.9283-.1465s.66-.1544.864-.2124a12.4674,12.4674,0,0,0,3.2432-1.4612c.0563-.035.2529-.1577.5053-.3286a17.39,17.39,0,0,0,1.6176-1.252,21.1227,21.1227,0,0,0,2.3767-2.4693c.405-.4911.688-.8758.8626-1.114a29.4977,29.4977,0,0,0,1.9078-2.9814c.0379-.0676.1436-.2563.282-.5133a37.1783,37.1783,0,0,0,2.1955-4.9316c.0222-.0609.0939-.2579.1847-.5175a46.85,46.85,0,0,0,1.45-5.0969,52.1223,52.1223,0,0,0,.977-6.0172,53.7612,53.7612,0,0,0,.2876-5.5264A52.7734,52.7734,0,0,0,86.88,352.57a48.7989,48.7989,0,0,0-.7988-5.0532,42.6323,42.6323,0,0,0-1.3338-4.8263c-.5-1.4461-.9694-2.5184-1.1766-2.98-.3328-.7409-.6044-1.2747-.6845-1.4313-.5938-1.16-1.1176-1.9915-1.2676-2.2273a22.1354,22.1354,0,0,0-1.4732-2.0792,19.4882,19.4882,0,0,0-2.2572-2.3879c-.3273-.2862-.6288-.5227-.6725-.5568a13.733,13.733,0,0,0-1.24-.8758,12.8656,12.8656,0,0,0-1.9086-.9844c-.1529-.0628-.41-.1736-.7642-.2871,0,0-.1688-.0541-.3551-.1051-.68-.186-1.8639-.3629-2.0083-.3843l2.896.1465Z"/>
    </clipPath>
  </defs>
  <g id="Item">
    <g id="Coins">
      <g>
        <path class="cls-2" d="M149.0263,370.4231c-.1784,4.5036-3.2723,8.9461-9.2715,12.3063-12.2709,6.8731-32.05,6.6155-44.1772-.5753-5.9123-3.5056-8.9146-8.0117-9.0175-12.5061l.2009-7.3746,62.41,2.2432Z"/>
        <ellipse class="cls-3" cx="117.9562" cy="363.5194" rx="18.0072" ry="31.2407" transform="translate(-247.2276 476.2175) rotate(-89.1732)"/>
        <ellipse class="cls-4" cx="117.9562" cy="363.5194" rx="15.9778" ry="27.7198" transform="translate(-247.2276 476.2175) rotate(-89.1732)"/>
        <ellipse class="cls-3" cx="117.9562" cy="363.5194" rx="15.3494" ry="26.6296" transform="translate(-247.2276 476.2175) rotate(-89.1732)"/>
        <ellipse class="cls-3" cx="117.9562" cy="363.5194" rx="15.3494" ry="26.6296" transform="translate(-247.2276 476.2175) rotate(-89.1732)"/>
        <g id="White">
          <path class="cls-2" d="M118.8285,364.6606l-6.4374,11.4109,19.9482-3.4616q3.2188-5.7054,6.4375-11.4109Z"/>
          <polygon class="cls-2" points="137.7 358.621 124.189 350.671 104.241 354.133 117.752 362.082 137.7 358.621"/>
          <polygon class="cls-2" points="109.795 375.224 116.233 363.814 102.722 355.864 96.284 367.275 109.795 375.224"/>
        </g>
        <g class="cls-5">
          <polygon class="cls-4" points="146.752 365.928 146.595 380.483 146.029 380.571 146.241 365.927 146.752 365.928"/>
          <polygon class="cls-4" points="143.883 369.052 143.727 383.608 143.16 383.696 143.372 369.052 143.883 369.052"/>
          <polygon class="cls-4" points="140.059 371.09 139.903 385.646 139.336 385.734 139.549 371.09 140.059 371.09"/>
          <polygon class="cls-4" points="135.827 373.186 135.671 387.741 135.104 387.829 135.317 373.185 135.827 373.186"/>
          <polygon class="cls-4" points="131.034 374.884 130.878 389.44 130.311 389.528 130.523 374.884 131.034 374.884"/>
          <polygon class="cls-4" points="125.992 376.6 125.836 391.156 125.269 391.243 125.481 376.6 125.992 376.6"/>
          <polygon class="cls-4" points="120.416 376.954 120.259 391.51 119.693 391.597 119.905 376.954 120.416 376.954"/>
          <polygon class="cls-4" points="114.879 377.126 114.723 391.682 114.156 391.77 114.368 377.126 114.879 377.126"/>
          <polygon class="cls-4" points="108.84 376.197 108.684 390.753 108.117 390.84 108.329 376.197 108.84 376.197"/>
          <polygon class="cls-4" points="103.173 375.505 103.017 390.061 102.451 390.149 102.663 375.505 103.173 375.505"/>
          <polygon class="cls-4" points="97.664 373.325 97.507 387.881 96.941 387.968 97.153 373.325 97.664 373.325"/>
          <polygon class="cls-4" points="92.975 370.545 92.819 385.101 92.252 385.188 92.465 370.545 92.975 370.545"/>
          <path class="cls-4" d="M89.1536,366.4073l-.1563,14.5558-.395.0612q.1089-7.3084.2179-14.6171Z"/>
          <path class="cls-4" d="M87.1887,363.8664l-.1563,14.5559-.395.0612q.1089-7.3086.2179-14.6171Z"/>
          <path class="cls-4" d="M148.8715,363.5054l-.1563,14.5559-.395.0612q.109-7.3086.2179-14.6172Z"/>
        </g>
      </g>
      <g>
        <path class="cls-2" d="M152.12,362.2026c-.1784,4.5037-3.2724,8.9462-9.2716,12.3064-12.2708,6.873-32.05,6.6155-44.1772-.5754-5.9122-3.5055-8.9146-8.0117-9.0174-12.506l.2008-7.3746,62.41,2.2431Z"/>
        <ellipse class="cls-3" cx="121.0494" cy="355.299" rx="18.0072" ry="31.2407" transform="translate(-235.9594 471.2086) rotate(-89.1732)"/>
        <ellipse class="cls-4" cx="121.0494" cy="355.299" rx="15.9778" ry="27.7198" transform="translate(-235.9594 471.2086) rotate(-89.1732)"/>
        <ellipse class="cls-3" cx="121.0494" cy="355.299" rx="15.3494" ry="26.6296" transform="translate(-235.9594 471.2086) rotate(-89.1732)"/>
        <ellipse class="cls-3" cx="121.0494" cy="355.299" rx="15.3494" ry="26.6296" transform="translate(-235.9594 471.2086) rotate(-89.1732)"/>
        <g id="White-2" data-name="White">
          <path class="cls-2" d="M121.9218,356.44l-6.4375,11.4109,19.9483-3.4615q3.2187-5.7056,6.4375-11.4109Z"/>
          <polygon class="cls-2" points="140.793 350.4 127.283 342.451 107.334 345.913 120.845 353.862 140.793 350.4"/>
          <polygon class="cls-2" points="112.889 367.004 119.326 355.593 105.815 347.644 99.378 359.055 112.889 367.004"/>
        </g>
        <g class="cls-6">
          <polygon class="cls-4" points="149.845 357.707 149.689 372.263 149.122 372.351 149.334 357.707 149.845 357.707"/>
          <polygon class="cls-4" points="146.976 360.832 146.82 375.388 146.253 375.475 146.466 360.832 146.976 360.832"/>
          <polygon class="cls-4" points="143.152 362.87 142.996 377.425 142.429 377.513 142.642 362.869 143.152 362.87"/>
          <polygon class="cls-4" points="138.921 364.965 138.764 379.521 138.198 379.609 138.41 364.965 138.921 364.965"/>
          <polygon class="cls-4" points="134.127 366.664 133.971 381.22 133.404 381.307 133.617 366.664 134.127 366.664"/>
          <polygon class="cls-4" points="129.085 368.379 128.929 382.935 128.362 383.023 128.574 368.379 129.085 368.379"/>
          <polygon class="cls-4" points="123.509 368.733 123.353 383.289 122.786 383.377 122.998 368.733 123.509 368.733"/>
          <polygon class="cls-4" points="117.972 368.906 117.816 383.462 117.249 383.55 117.462 368.906 117.972 368.906"/>
          <polygon class="cls-4" points="111.933 367.976 111.777 382.532 111.21 382.62 111.423 367.976 111.933 367.976"/>
          <polygon class="cls-4" points="106.267 367.285 106.11 381.84 105.544 381.928 105.756 367.284 106.267 367.285"/>
          <polygon class="cls-4" points="100.757 365.104 100.6 379.66 100.034 379.748 100.246 365.104 100.757 365.104"/>
          <polygon class="cls-4" points="96.068 362.324 95.912 376.88 95.346 376.968 95.558 362.324 96.068 362.324"/>
          <path class="cls-4" d="M92.2468,358.1868l-.1562,14.5559-.3951.0612q.109-7.3086.218-14.6171Z"/>
          <path class="cls-4" d="M90.282,355.646l-.1563,14.5558-.3951.0612q.109-7.3084.218-14.6171Z"/>
          <path class="cls-4" d="M151.9648,355.285l-.1563,14.5558-.395.0612q.1089-7.3086.2179-14.6171Z"/>
        </g>
      </g>
      <g>
        <path class="cls-2" d="M149.1051,356.7869c-.1784,4.5037-3.2724,8.9462-9.2716,12.3064-12.2708,6.8731-32.05,6.6155-44.1772-.5753-5.9122-3.5056-8.9146-8.0118-9.0174-12.5061l.2008-7.3746,62.41,2.2431Z"/>
        <ellipse class="cls-3" cx="118.0349" cy="349.8833" rx="18.0072" ry="31.2407" transform="translate(-233.5152 462.8569) rotate(-89.1732)"/>
        <ellipse class="cls-4" cx="118.0349" cy="349.8833" rx="15.9778" ry="27.7198" transform="translate(-233.5152 462.8569) rotate(-89.1732)"/>
        <ellipse class="cls-3" cx="118.0349" cy="349.8833" rx="15.3494" ry="26.6296" transform="translate(-233.5152 462.8569) rotate(-89.1732)"/>
        <ellipse class="cls-3" cx="118.0349" cy="349.8833" rx="15.3494" ry="26.6296" transform="translate(-233.5152 462.8569) rotate(-89.1732)"/>
        <g id="White-3" data-name="White">
          <path class="cls-2" d="M118.9073,351.0245,112.47,362.4353l19.9483-3.4615q3.2187-5.7056,6.4375-11.4109Z"/>
          <polygon class="cls-2" points="137.779 344.985 124.268 337.035 104.32 340.497 117.831 348.446 137.779 344.985"/>
          <polygon class="cls-2" points="109.874 361.588 116.312 350.177 102.801 342.228 96.363 353.639 109.874 361.588"/>
        </g>
        <g class="cls-7">
          <polygon class="cls-4" points="146.83 352.291 146.674 366.847 146.107 366.935 146.32 352.291 146.83 352.291"/>
          <polygon class="cls-4" points="143.962 355.416 143.805 369.972 143.239 370.06 143.451 355.416 143.962 355.416"/>
          <polygon class="cls-4" points="140.138 357.454 139.982 372.01 139.415 372.097 139.627 357.454 140.138 357.454"/>
          <polygon class="cls-4" points="135.906 359.549 135.75 374.105 135.183 374.193 135.395 359.549 135.906 359.549"/>
          <polygon class="cls-4" points="131.113 361.248 130.956 375.804 130.39 375.892 130.602 361.248 131.113 361.248"/>
          <polygon class="cls-4" points="126.071 362.964 125.914 377.519 125.348 377.607 125.56 362.963 126.071 362.964"/>
          <polygon class="cls-4" points="120.494 363.318 120.338 377.873 119.771 377.961 119.984 363.317 120.494 363.318"/>
          <polygon class="cls-4" points="114.958 363.49 114.802 378.046 114.235 378.134 114.447 363.49 114.958 363.49"/>
          <polygon class="cls-4" points="108.919 362.561 108.763 377.117 108.196 377.204 108.408 362.561 108.919 362.561"/>
          <polygon class="cls-4" points="103.252 361.869 103.096 376.425 102.529 376.513 102.742 361.869 103.252 361.869"/>
          <polygon class="cls-4" points="97.742 359.689 97.586 374.244 97.019 374.332 97.232 359.689 97.742 359.689"/>
          <polygon class="cls-4" points="93.054 356.909 92.898 371.465 92.331 371.552 92.543 356.909 93.054 356.909"/>
          <path class="cls-4" d="M89.2323,352.7712l-.1562,14.5558-.3951.0612q.109-7.3084.218-14.6171Z"/>
          <path class="cls-4" d="M87.2674,350.23l-.1562,14.5558-.3951.0612q.109-7.3084.218-14.6171Z"/>
          <path class="cls-4" d="M148.95,349.8693l-.1563,14.5558-.395.0612q.1089-7.3085.2179-14.6171Z"/>
        </g>
      </g>
      <g>
        <path class="cls-2" d="M152.1983,348.6229c-.1783,4.5037-3.2723,8.9462-9.2715,12.3064-12.2709,6.8731-32.05,6.6155-44.1772-.5753-5.9123-3.5056-8.9146-8.0117-9.0175-12.5061l.2009-7.3746,62.41,2.2431Z"/>
        <ellipse class="cls-3" cx="121.1282" cy="341.7193" rx="18.0072" ry="31.2407" transform="translate(-222.3035 457.9036) rotate(-89.1732)"/>
        <ellipse class="cls-4" cx="121.1282" cy="341.7193" rx="15.9778" ry="27.7198" transform="translate(-222.3035 457.9036) rotate(-89.1732)"/>
        <ellipse class="cls-3" cx="121.1282" cy="341.7193" rx="15.3494" ry="26.6296" transform="translate(-222.3035 457.9036) rotate(-89.1732)"/>
        <ellipse class="cls-3" cx="121.1282" cy="341.7193" rx="15.3494" ry="26.6296" transform="translate(-222.3035 457.9036) rotate(-89.1732)"/>
        <g id="White-4" data-name="White">
          <path class="cls-2" d="M122.0005,342.8605l-6.4374,11.4109,19.9482-3.4616q3.2188-5.7054,6.4375-11.4109Z"/>
          <polygon class="cls-2" points="140.872 336.821 127.361 328.871 107.413 332.333 120.924 340.282 140.872 336.821"/>
          <polygon class="cls-2" points="112.967 353.424 119.405 342.013 105.894 334.064 99.456 345.475 112.967 353.424"/>
        </g>
        <g class="cls-8">
          <polygon class="cls-4" points="149.924 344.127 149.767 358.683 149.201 358.771 149.413 344.127 149.924 344.127"/>
          <polygon class="cls-4" points="147.055 347.252 146.899 361.808 146.332 361.896 146.544 347.252 147.055 347.252"/>
          <polygon class="cls-4" points="143.231 349.29 143.075 363.846 142.508 363.933 142.721 349.29 143.231 349.29"/>
          <polygon class="cls-4" points="138.999 351.385 138.843 365.941 138.276 366.029 138.489 351.385 138.999 351.385"/>
          <polygon class="cls-4" points="134.206 353.084 134.05 367.64 133.483 367.728 133.695 353.084 134.206 353.084"/>
          <polygon class="cls-4" points="129.164 354.8 129.008 369.355 128.441 369.443 128.653 354.799 129.164 354.8"/>
          <polygon class="cls-4" points="123.588 355.154 123.431 369.709 122.865 369.797 123.077 355.153 123.588 355.154"/>
          <polygon class="cls-4" points="118.051 355.326 117.895 369.882 117.328 369.97 117.54 355.326 118.051 355.326"/>
          <polygon class="cls-4" points="112.012 354.397 111.856 368.953 111.289 369.04 111.501 354.397 112.012 354.397"/>
          <polygon class="cls-4" points="106.345 353.705 106.189 368.261 105.623 368.349 105.835 353.705 106.345 353.705"/>
          <polygon class="cls-4" points="100.836 351.525 100.679 366.08 100.113 366.168 100.325 351.525 100.836 351.525"/>
          <polygon class="cls-4" points="96.147 348.745 95.991 363.301 95.424 363.388 95.637 348.745 96.147 348.745"/>
          <path class="cls-4" d="M92.3256,344.6072l-.1563,14.5558-.395.0612q.1089-7.3084.2179-14.6171Z"/>
          <path class="cls-4" d="M90.3607,342.0663l-.1563,14.5559-.395.0612q.1089-7.3086.2179-14.6172Z"/>
          <path class="cls-4" d="M152.0435,341.7053l-.1563,14.5558-.395.0612q.109-7.3084.218-14.6171Z"/>
        </g>
      </g>
      <g>
        <path class="cls-2" d="M150.4749,341.0963c-.1784,4.5036-3.2724,8.9461-9.2715,12.3064-12.2709,6.873-32.05,6.6154-44.1773-.5754-5.9122-3.5055-8.9145-8.0117-9.0174-12.506l.2008-7.3746,62.41,2.2431Z"/>
        <ellipse class="cls-3" cx="119.4048" cy="334.1926" rx="18.0072" ry="31.2407" transform="translate(-216.4762 448.7623) rotate(-89.1732)"/>
        <ellipse class="cls-4" cx="119.4048" cy="334.1926" rx="15.9778" ry="27.7198" transform="translate(-216.4762 448.7623) rotate(-89.1732)"/>
        <ellipse class="cls-3" cx="119.4048" cy="334.1926" rx="15.3494" ry="26.6296" transform="translate(-216.4762 448.7623) rotate(-89.1732)"/>
        <ellipse class="cls-3" cx="119.4048" cy="334.1926" rx="15.3494" ry="26.6296" transform="translate(-216.4762 448.7623) rotate(-89.1732)"/>
        <g id="White-5" data-name="White">
          <path class="cls-2" d="M120.2771,335.3338,113.84,346.7447l19.9483-3.4616q3.2187-5.7054,6.4375-11.4109Z"/>
          <polygon class="cls-2" points="139.149 329.294 125.638 321.345 105.69 324.806 119.201 332.756 139.149 329.294"/>
          <polygon class="cls-2" points="111.244 345.898 117.681 334.487 104.171 326.537 97.733 337.948 111.244 345.898"/>
        </g>
        <g class="cls-9">
          <polygon class="cls-4" points="148.2 336.601 148.044 351.157 147.477 351.244 147.69 336.601 148.2 336.601"/>
          <polygon class="cls-4" points="145.332 339.725 145.175 354.281 144.609 354.369 144.821 339.725 145.332 339.725"/>
          <polygon class="cls-4" points="141.508 341.763 141.351 356.319 140.785 356.407 140.997 341.763 141.508 341.763"/>
          <polygon class="cls-4" points="137.276 343.859 137.12 358.415 136.553 358.502 136.765 343.859 137.276 343.859"/>
          <polygon class="cls-4" points="132.482 345.557 132.326 360.113 131.76 360.201 131.972 345.557 132.482 345.557"/>
          <polygon class="cls-4" points="127.44 347.273 127.284 361.829 126.718 361.917 126.93 347.273 127.44 347.273"/>
          <polygon class="cls-4" points="121.864 347.627 121.708 362.183 121.141 362.271 121.354 347.627 121.864 347.627"/>
          <polygon class="cls-4" points="116.328 347.8 116.171 362.356 115.605 362.443 115.817 347.8 116.328 347.8"/>
          <polygon class="cls-4" points="110.289 346.87 110.132 361.426 109.566 361.514 109.778 346.87 110.289 346.87"/>
          <polygon class="cls-4" points="104.622 346.178 104.466 360.734 103.899 360.822 104.111 346.178 104.622 346.178"/>
          <polygon class="cls-4" points="99.112 343.998 98.956 358.554 98.389 358.642 98.602 343.998 99.112 343.998"/>
          <polygon class="cls-4" points="94.424 341.218 94.267 355.774 93.701 355.862 93.913 341.218 94.424 341.218"/>
          <path class="cls-4" d="M90.6022,337.0805l-.1563,14.5559-.3951.0612q.1091-7.3086.218-14.6171Z"/>
          <path class="cls-4" d="M88.6373,334.54l-.1563,14.5559-.3951.0612q.1091-7.3086.218-14.6171Z"/>
          <path class="cls-4" d="M150.32,334.1786l-.1563,14.5559-.395.0612q.1089-7.3086.2179-14.6171Z"/>
        </g>
      </g>
      <g>
        <path class="cls-2" d="M76.841,328.69c4.4975.2958,8.8578,3.5045,12.0605,9.5892,6.5508,12.4459,5.7777,32.2113-1.7268,44.1472-3.6585,5.8189-8.2414,8.7028-12.7369,8.6884l-7.3668-.393,3.8693-62.33Z"/>
        <ellipse class="cls-3" cx="69.1297" cy="359.5696" rx="31.2407" ry="18.0072" transform="translate(-292.9441 414.0832) rotate(-87.6794)"/>
        <ellipse class="cls-4" cx="69.1297" cy="359.5696" rx="27.7198" ry="15.9778" transform="translate(-292.9441 414.0832) rotate(-87.6794)"/>
        <ellipse class="cls-3" cx="69.1297" cy="359.5696" rx="26.6296" ry="15.3494" transform="matrix(0.0405, -0.9992, 0.9992, 0.0405, -292.9441, 414.0832)"/>
        <ellipse class="cls-3" cx="69.1297" cy="359.5696" rx="26.6296" ry="15.3494" transform="translate(-292.9441 414.0832) rotate(-87.6794)"/>
        <g id="White-6" data-name="White">
          <path class="cls-2" d="M70.2933,358.7273,81.5325,365.46q-1.47-10.0158-2.94-20.0317l-11.2392-6.7328Q68.8231,348.7115,70.2933,358.7273Z"/>
          <polygon class="cls-2" points="64.747 339.705 56.449 353.004 59.389 373.035 67.688 359.736 64.747 339.705"/>
          <polygon class="cls-2" points="80.618 368.033 69.379 361.3 61.08 374.599 72.319 381.332 80.618 368.033"/>
        </g>
        <g class="cls-10">
          <polygon class="cls-4" points="72.288 330.847 86.835 331.382 86.907 331.951 72.274 331.357 72.288 330.847"/>
          <polygon class="cls-4" points="75.337 333.796 89.883 334.331 89.956 334.9 75.323 334.306 75.337 333.796"/>
          <polygon class="cls-4" points="77.274 337.671 91.821 338.207 91.894 338.776 77.261 338.182 77.274 337.671"/>
          <polygon class="cls-4" points="79.258 341.957 93.805 342.492 93.878 343.061 79.245 342.467 79.258 341.957"/>
          <polygon class="cls-4" points="80.832 346.793 95.378 347.328 95.451 347.897 80.818 347.303 80.832 346.793"/>
          <polygon class="cls-4" points="82.415 351.878 96.962 352.413 97.035 352.982 82.402 352.388 82.415 351.878"/>
          <polygon class="cls-4" points="82.624 357.461 97.17 357.997 97.243 358.566 82.61 357.972 82.624 357.461"/>
          <polygon class="cls-4" points="82.652 363 97.199 363.536 97.272 364.105 82.639 363.511 82.652 363"/>
          <polygon class="cls-4" points="81.565 369.013 96.112 369.549 96.185 370.117 81.552 369.523 81.565 369.013"/>
          <polygon class="cls-4" points="80.726 374.66 95.273 375.195 95.346 375.764 80.712 375.17 80.726 374.66"/>
          <polygon class="cls-4" points="78.403 380.111 92.95 380.647 93.023 381.215 78.389 380.621 78.403 380.111"/>
          <polygon class="cls-4" points="75.502 384.725 90.048 385.261 90.121 385.83 75.488 385.236 75.502 384.725"/>
          <path class="cls-4" d="M71.2658,388.4376l14.5468.5357.0509.3965-14.6064-.5989Z"/>
          <path class="cls-4" d="M68.6746,390.3356l14.5468.5357.0509.3965-14.6065-.5989Z"/>
          <path class="cls-4" d="M69.9216,328.6643l14.5469.5357.0508.3965-14.6064-.5989Z"/>
        </g>
      </g>
    </g>
  </g>
</svg>
