<svg xmlns="http://www.w3.org/2000/svg" xmlns:xlink="http://www.w3.org/1999/xlink" width="512" height="512" viewBox="0 0 512 512">
  <defs>
    <style>
      .cls-1 {
        fill: none;
      }

      .cls-2 {
        isolation: isolate;
      }

      .cls-3 {
        fill: #1f8b37;
      }

      .cls-4 {
        fill: #29a63c;
      }

      .cls-5 {
        fill: #efd76f;
      }

      .cls-6, .cls-8 {
        fill: #fbbc00;
      }

      .cls-7 {
        clip-path: url(#clip-path);
      }

      .cls-14, .cls-16, .cls-17, .cls-18, .cls-19, .cls-21, .cls-8 {
        mix-blend-mode: multiply;
        opacity: 0.7;
      }

      .cls-12, .cls-9 {
        fill: #fff;
      }

      .cls-12, .cls-26, .cls-9 {
        mix-blend-mode: overlay;
      }

      .cls-9 {
        opacity: 0.8;
      }

      .cls-10 {
        fill: #ffdb12;
      }

      .cls-11 {
        fill: url(#linear-gradient);
      }

      .cls-13 {
        fill: url(#linear-gradient-2);
      }

      .cls-14 {
        fill: url(#linear-gradient-3);
      }

      .cls-15 {
        fill: url(#linear-gradient-4);
      }

      .cls-16 {
        fill: url(#linear-gradient-5);
      }

      .cls-17 {
        fill: url(#linear-gradient-6);
      }

      .cls-18 {
        fill: url(#linear-gradient-7);
      }

      .cls-19 {
        fill: url(#linear-gradient-8);
      }

      .cls-20 {
        fill: url(#linear-gradient-9);
      }

      .cls-21 {
        fill: url(#linear-gradient-10);
      }

      .cls-22 {
        fill: url(#linear-gradient-11);
      }

      .cls-23 {
        fill: url(#linear-gradient-12);
      }

      .cls-24 {
        fill: #fab200;
      }

      .cls-25 {
        fill: url(#linear-gradient-13);
      }

      .cls-26 {
        fill: url(#radial-gradient);
      }

      .cls-27 {
        fill: url(#Degradado_sin_nombre_337);
      }

      .cls-28 {
        fill: url(#Degradado_sin_nombre_337-2);
      }

      .cls-29 {
        fill: url(#Degradado_sin_nombre_337-3);
      }

      .cls-30 {
        fill: url(#radial-gradient-2);
      }

      .cls-31 {
        fill: url(#radial-gradient-3);
      }

      .cls-32 {
        fill: url(#radial-gradient-4);
      }

      .cls-33 {
        fill: url(#radial-gradient-5);
      }

      .cls-34 {
        fill: url(#radial-gradient-6);
      }

      .cls-35 {
        fill: #a40018;
      }

      .cls-36 {
        fill: #c50013;
      }

      .cls-37 {
        fill: #f3001e;
      }

      .cls-38 {
        fill: url(#radial-gradient-7);
      }

      .cls-39 {
        fill: url(#radial-gradient-8);
      }

      .cls-40 {
        fill: url(#radial-gradient-9);
      }
    </style>
    <clipPath id="clip-path">
      <path class="cls-1" d="M82.0907,392.8114l-.1177,2.182c0,7.8187,10.8656,14.2248,24.47,14.3613,13.7524.1386,25.0954-6.1814,25.3353-14.1154q-.0592-1.27-.1184-2.54Z"/>
    </clipPath>
    <linearGradient id="linear-gradient" x1="120.3224" y1="387.3445" x2="93.9" y2="398.7386" gradientUnits="userSpaceOnUse">
      <stop offset="0" stop-color="#ffe705"/>
      <stop offset="1" stop-color="#ff9805"/>
    </linearGradient>
    <linearGradient id="linear-gradient-2" x1="112.2907" y1="386.0582" x2="97.0049" y2="400.7264" xlink:href="#linear-gradient"/>
    <linearGradient id="linear-gradient-3" x1="111.417" y1="387.5693" x2="93.8333" y2="386.6387" gradientTransform="translate(-29.7076 8.7163) rotate(-4.671)" gradientUnits="userSpaceOnUse">
      <stop offset="0" stop-color="#fbbc00"/>
      <stop offset="1" stop-color="#fbbc00" stop-opacity="0.2"/>
    </linearGradient>
    <linearGradient id="linear-gradient-4" x1="112.8025" y1="368.5638" x2="104.024" y2="368.5638" xlink:href="#linear-gradient"/>
    <linearGradient id="linear-gradient-5" x1="102.6717" y1="357.2134" x2="109.0391" y2="365.0503" gradientTransform="matrix(1, 0, 0, 1, 0, 0)" xlink:href="#linear-gradient-3"/>
    <linearGradient id="linear-gradient-6" x1="78.045" y1="292.2218" x2="136.1786" y2="305.5562" gradientTransform="matrix(1, 0, 0, 1, 0, 0)" xlink:href="#linear-gradient-3"/>
    <linearGradient id="linear-gradient-7" x1="79.086" y1="306.3783" x2="134.9366" y2="319.1891" gradientTransform="matrix(1, 0, 0, 1, 0, 0)" xlink:href="#linear-gradient-3"/>
    <linearGradient id="linear-gradient-8" x1="105.9755" y1="350.6363" x2="112.7839" y2="361.6081" gradientTransform="matrix(1, 0, 0, 1, 0, 0)" xlink:href="#linear-gradient-3"/>
    <linearGradient id="linear-gradient-9" x1="118.7105" y1="288.2553" x2="70.5575" y2="338.3283" xlink:href="#linear-gradient"/>
    <linearGradient id="linear-gradient-10" x1="56.895" y1="345.374" x2="95.2611" y2="312.6225" gradientTransform="matrix(1, 0, 0, 1, 0, 0)" xlink:href="#linear-gradient-3"/>
    <linearGradient id="linear-gradient-11" x1="96.8926" y1="279.1106" x2="78.9842" y2="297.7331" gradientUnits="userSpaceOnUse">
      <stop offset="0" stop-color="#ffe712"/>
      <stop offset="1" stop-color="#fbbc00"/>
    </linearGradient>
    <linearGradient id="linear-gradient-12" x1="144.0377" y1="292.0657" x2="137.8957" y2="333.4423" xlink:href="#linear-gradient"/>
    <linearGradient id="linear-gradient-13" x1="106.7871" y1="267.0204" x2="107.7462" y2="331.3022" xlink:href="#linear-gradient"/>
    <radialGradient id="radial-gradient" cx="1763.3862" cy="601.3283" r="7.4448" gradientTransform="matrix(0.3028, -0.3436, 0.7503, 0.6611, -866.9395, 591.4821)" gradientUnits="userSpaceOnUse">
      <stop offset="0" stop-color="#fff"/>
      <stop offset="0.151" stop-color="#fff" stop-opacity="0.7696"/>
      <stop offset="0.321" stop-color="#fff" stop-opacity="0.5384"/>
      <stop offset="0.4852" stop-color="#fff" stop-opacity="0.3458"/>
      <stop offset="0.6393" stop-color="#fff" stop-opacity="0.1957"/>
      <stop offset="0.7809" stop-color="#fff" stop-opacity="0.0882"/>
      <stop offset="0.9055" stop-color="#fff" stop-opacity="0.023"/>
      <stop offset="1" stop-color="#fff" stop-opacity="0"/>
    </radialGradient>
    <radialGradient id="Degradado_sin_nombre_337" data-name="Degradado sin nombre 337" cx="567.5092" cy="366.1977" r="1.2869" gradientTransform="matrix(0.679, 0.7341, -0.7341, 0.679, -9.6693, -329.2106)" gradientUnits="userSpaceOnUse">
      <stop offset="0" stop-color="#b2d5a5"/>
      <stop offset="0.0806" stop-color="#a9d19d"/>
      <stop offset="0.7069" stop-color="#65b766"/>
      <stop offset="1" stop-color="#4aad50"/>
    </radialGradient>
    <radialGradient id="Degradado_sin_nombre_337-2" cx="190.7581" cy="385.9667" r="1.376" gradientTransform="matrix(1.1519, 0.1862, -0.1352, 0.9261, -35.4304, -59.8557)" xlink:href="#Degradado_sin_nombre_337"/>
    <radialGradient id="Degradado_sin_nombre_337-3" cx="137.6878" cy="396.6374" r="1.376" gradientTransform="matrix(-1.1519, 0.1862, 0.1352, 0.9261, 187.8221, -59.8557)" xlink:href="#Degradado_sin_nombre_337"/>
    <radialGradient id="radial-gradient-2" cx="106.8883" cy="297.4256" r="12.5786" gradientUnits="userSpaceOnUse">
      <stop offset="0" stop-color="#ffe712"/>
      <stop offset="1" stop-color="#f89900" stop-opacity="0.7"/>
    </radialGradient>
    <radialGradient id="radial-gradient-3" cx="90.218" cy="295.4981" r="11.9192" gradientTransform="translate(0 -31.2573) scale(1 1.1065)" xlink:href="#radial-gradient-2"/>
    <radialGradient id="radial-gradient-4" cx="98.9179" cy="295.4981" r="11.9192" gradientTransform="matrix(-1, 0, 0, 1.1065, 223.6641, -31.2573)" xlink:href="#radial-gradient-2"/>
    <radialGradient id="radial-gradient-5" cx="75.728" cy="290.5113" r="12.9881" gradientTransform="translate(4.3986) scale(0.9366 1)" xlink:href="#radial-gradient-2"/>
    <radialGradient id="radial-gradient-6" cx="108.4062" cy="290.5113" r="12.9881" gradientTransform="matrix(-0.9355, 0, 0, 1, 240.7778, 0)" xlink:href="#radial-gradient-2"/>
    <radialGradient id="radial-gradient-7" cx="1209.3395" cy="468.6214" r="1.1315" gradientTransform="matrix(0.3439, -0.8426, -0.9889, -0.4035, 140.229, 1597.5596)" gradientUnits="userSpaceOnUse">
      <stop offset="0" stop-color="#f3adc1"/>
      <stop offset="0.0879" stop-color="#f691a0"/>
      <stop offset="0.1975" stop-color="#f9747f"/>
      <stop offset="0.3154" stop-color="#fb5c63"/>
      <stop offset="0.4423" stop-color="#fd4a4e"/>
      <stop offset="0.5825" stop-color="#fe3d3f"/>
      <stop offset="0.7464" stop-color="#ff3536"/>
      <stop offset="0.9916" stop-color="#f33"/>
    </radialGradient>
    <radialGradient id="radial-gradient-8" cx="1210.6374" cy="465.9113" r="1.1315" gradientTransform="matrix(-0.3439, -0.8426, 0.9889, -0.4035, 76.5169, 1597.5596)" xlink:href="#radial-gradient-7"/>
    <radialGradient id="radial-gradient-9" cx="1174.2556" cy="529.8281" r="1.2819" gradientTransform="translate(-455.0401 1552.9261) rotate(-88.4218)" xlink:href="#radial-gradient-7"/>
  </defs>
  <g class="cls-2">
    <g id="Layer_1" data-name="Layer 1">
      <g id="Item">
        <g id="Holy_Grail" data-name="Holy Grail">
          <g id="Rubi">
            <path class="cls-3" d="M144.0017,324.8744q1.0845-3.8346,2.1689-7.6694.1579,1.9305.316,3.8609Z"/>
            <path class="cls-4" d="M145.0757,320.7252q.5473-1.76,1.0949-3.52.1579,1.9305.316,3.8609Z"/>
          </g>
          <g id="Rubi-2" data-name="Rubi">
            <path class="cls-3" d="M69.7565,324.8744q-1.0845-3.8346-2.1689-7.6694-.1579,1.9305-.316,3.8609Z"/>
            <path class="cls-4" d="M68.6826,320.7252l-1.095-3.52q-.1579,1.9305-.316,3.8609Z"/>
          </g>
          <ellipse class="cls-5" cx="106.8746" cy="394.83" rx="25.0841" ry="14.5297"/>
          <path class="cls-6" d="M128.6294,389.6338l-43.6964-.2157a3.3,3.3,0,0,1-2.96,3.4733v2.102c0,7.8187,10.8655,14.2248,24.47,14.3613,13.7524.1386,25.0954-6.1814,25.3353-14.1154v-1.8619A3.3165,3.3165,0,0,1,128.6294,389.6338Z"/>
          <g class="cls-7">
            <path class="cls-8" d="M94.3862,394.553h7.9115v14.6032a45.0489,45.0489,0,0,1-7.9115-1.3777Zm11.769,14.7965c.0964.0013.1913.0049.2877.0055a48.8669,48.8669,0,0,0,11.9927-1.332V395.81h-12.28Zm-15.8833-2.975q1.1961.5032,2.5236.9343V393.1619l-2.5236-.01Zm-7.2982-5.4286a13.71,13.71,0,0,0,5.4625,4.5742V393.1449l-5.4625-.022Z"/>
          </g>
          <path class="cls-9" d="M130.1117,391.0415l-46.3453-.2383a3.1961,3.1961,0,0,1-1.6757,2.0082c1.1733,7.4913,11.5457,13.4161,24.3522,13.55,13.1637.1383,24.0925-5.8947,25.2169-13.6622A3.1243,3.1243,0,0,1,130.1117,391.0415Z"/>
          <g>
            <path class="cls-10" d="M118.2237,381.59c-.14-.04-.2839-.0791-.4283-.1177C117.93,381.508,118.0717,381.5471,118.2237,381.59Z"/>
            <path class="cls-10" d="M117.7954,381.4721c-.2061-.0551-.3985-.1054-.5593-.1467C117.4271,381.3721,117.6106,381.4223,117.7954,381.4721Z"/>
            <path class="cls-11" d="M131.4948,391.8168a14.6589,14.6589,0,0,0-.95-1.778,15.4861,15.4861,0,0,0-1.2408-1.71,18.26,18.26,0,0,0-3.4395-3.1654,22.6133,22.6133,0,0,0-4.0478-2.2915,26.2055,26.2055,0,0,0-3.5927-1.2818l-22.6084-.0239a26.4107,26.4107,0,0,0-3.9278,1.4181,23.2584,23.2584,0,0,0-3.937,2.28A17.99,17.99,0,0,0,84.36,388.44a15.6234,15.6234,0,0,0-1.1475,1.5976,13.808,13.808,0,0,0-.9505,1.78,6.11,6.11,0,0,0-.285,1.151c-.3674,2.6029,3.683,6.26,3.6831,6.26a25.5017,25.5017,0,0,0,7.9653,4.8414,36.3392,36.3392,0,0,0,13.1355,2.2941c3.4853-.0119,10.88-.1272,17.9868-4.5543,5.953-3.7086,7.0995-7.575,7.0305-8.5433A6.5961,6.5961,0,0,0,131.4948,391.8168Z"/>
            <path class="cls-12" d="M130.5445,390.0388a15.4824,15.4824,0,0,0-1.2409-1.71,18.2571,18.2571,0,0,0-3.4394-3.1654,21.8942,21.8942,0,0,0-3.2836-1.9356l.247.9791a24.1175,24.1175,0,0,1,8.0292,6.3547C130.7622,390.3946,130.6586,390.22,130.5445,390.0388Z"/>
            <path class="cls-8" d="M124.5492,393.1554c-.46,4.72-11.0259,7.841-18.9329,7.79-8.0475-.0522-18.6537-3.4255-19.018-8.1845-.3674-4.7986,9.698-10.7488,19.018-10.677C115.01,382.1557,125.0171,388.3559,124.5492,393.1554Z"/>
            <path class="cls-10" d="M95.7923,381.516c.2388-.0657.4811-.13.73-.191C96.271,381.3881,96.0293,381.4516,95.7923,381.516Z"/>
            <path class="cls-10" d="M95.6153,381.5658c.0593-.0169.117-.0333.177-.05C95.7328,381.5325,95.6741,381.5489,95.6153,381.5658Z"/>
          </g>
          <g>
            <path class="cls-13" d="M124.5194,391.9521a14.2111,14.2111,0,0,0-.51-1.76c-.1519-.3769-.3385-.89-.51-1.2541-.2279-.4838-.5464-1.1209-.82-1.5672a17.7274,17.7274,0,0,0-1.7455-2.4631,20.8555,20.8555,0,0,0-1.9992-2.0845,23.833,23.833,0,0,0-2.0938-1.7,24.9076,24.9076,0,0,0-2.8451-1.7768,22.8635,22.8635,0,0,0-2.6549-1.214,15.6057,15.6057,0,0,0-2.08-.6437l-4.79.0054a20.1184,20.1184,0,0,0-5.0146,2.0158,25.234,25.234,0,0,0-2.8584,1.8433,22.6621,22.6621,0,0,0-2.0767,1.7461,20.2353,20.2353,0,0,0-1.9657,2.1313c-.3161.4006-.7206.9564-1.0107,1.3867-.2188.3246-.482.7864-.6852,1.127a11.61,11.61,0,0,0-.7842,1.6008c-.293.76-.6217,1.81-.84,2.6084a3.2488,3.2488,0,0,0-.0778.5865c-.1706,4.1459,7.6238,7.5649,17.4094,7.6369s17.8572-3.23,18.0278-7.375A3.2644,3.2644,0,0,0,124.5194,391.9521Z"/>
            <path class="cls-9" d="M106.5608,399.9341c-6.1823-.0446-11.5857-1.362-14.7829-3.3364,3.0622,2.1086,8.5146,3.5334,14.79,3.579,6.5111.0485,12.26-1.3988,15.43-3.5922C118.6826,398.6414,112.984,399.9809,106.5608,399.9341Z"/>
            <path class="cls-10" d="M109.2624,377.4884l-.0146-.0033Z"/>
            <path class="cls-10" d="M109.2478,377.4851c-.1164-.0264-.2168-.0484-.2919-.0644C109.0549,377.4405,109.1522,377.4626,109.2478,377.4851Z"/>
            <path class="cls-10" d="M104.4721,377.4939l.0924-.0215Z"/>
            <path class="cls-10" d="M104.5645,377.4724c.0773-.0176.1553-.0357.2353-.0517C104.7278,377.4356,104.6478,377.4532,104.5645,377.4724Z"/>
          </g>
          <path class="cls-14" d="M111.8587,379.133c-.0989-1.2115-2.7615-1.852-5.9471-1.43a14.2784,14.2784,0,0,0-2.5448.57l-.1694-.0678a24.5015,24.5015,0,0,0-3.8256,1.7051,26.5389,26.5389,0,0,0-2.7277,1.7161,22.2388,22.2388,0,0,0-1.955,1.5741,18.2548,18.2548,0,0,0-1.819,1.875c-.2887.3481-.6553.8283-.9162,1.1981-.1967.2791-.4287.6721-.6089.9627a8.7864,8.7864,0,0,0-.6763,1.3519,21.24,21.24,0,0,0-.6655,2.1672,2.1451,2.1451,0,0,0-.039.4783c.048,1.5634,1.815,2.8574,4.6768,3.7188a119.0268,119.0268,0,0,1,15.4953-13.9653l-.0009,0C111.2408,380.4351,111.9107,379.7688,111.8587,379.133Z"/>
          <path class="cls-15" d="M99.7452,356.5634c.0828.5606,1.6557,11.215,2.307,22.434.1271.861,2.1852,1.5523,4.7412,1.5674,2.6134.016,4.7787-.6815,4.9093-1.5674.6518-11.22,2.2245-21.8738,2.3071-22.4349Z"/>
          <path class="cls-9" d="M106.7914,380.3906c-2.2806-.0137-4.1727-.5451-4.699-1.255.3141.7952,2.2838,1.415,4.701,1.4292,2.4753.0151,4.5455-.61,4.8689-1.4292C111.12,379.8673,109.1331,380.4044,106.7914,380.3906Z"/>
          <path class="cls-16" d="M99.7452,356.5634c.0242.1626.1741,1.18.39,2.81.3274,2.4688.8066,6.3521,1.2349,10.8441,6.6662-8.5681,10.7627-11.3874,10.7933-11.4083.156-.0982.311-.2.4368-.2945a9.1723,9.1723,0,0,0,1.0364-.87c.0338-.0315.1258-.1191.2546-.2585.0649-.4563.1071-.7446.1186-.8237Z"/>
          <g>
            <path class="cls-10" d="M96.67,350.8857h0c.002-.0249.0031-.0511.0058-.0751C96.6733,350.8355,96.6711,350.8608,96.67,350.8857Z"/>
            <path class="cls-10" d="M117.0855,351.0079,96.67,350.8857c-.0049.0524-.01.1044-.0129.1586a6.3538,6.3538,0,0,0,.2061,1.8566,6.827,6.827,0,0,0,.429,1.1853,7.381,7.381,0,0,0,.4887.8769,7.93,7.93,0,0,0,1.2253,1.4519,9.5967,9.5967,0,0,0,.74.6193c.2841.2088.6826.4616.9829.6468a13.2785,13.2785,0,0,0,6.0234,1.1991,13.572,13.572,0,0,0,6.273-1.1991c.255-.1541.5971-.3594.8352-.5384a9.1694,9.1694,0,0,0,1.0365-.8694,7.6352,7.6352,0,0,0,1.0764-1.3093,7.0981,7.0981,0,0,0,.8108-1.6975,6.71,6.71,0,0,0,.3123-1.678A3.5755,3.5755,0,0,0,117.0855,351.0079Z"/>
          </g>
          <path class="cls-10" d="M95.4089,352.2571h0c.002-.0249.0032-.0511.0058-.0751C95.4125,352.2069,95.41,352.2322,95.4089,352.2571Z"/>
          <path class="cls-6" d="M142.9693,269.2788v31.07c-.0254,1.0565-.036,2.4666-.0889,3.5217-1.029,20.17-11.7055,35.8211-36.0028,35.6762,24.2973.1449,34.9738-15.5057,36.0028-35.6762-.1511,1.9641-.3657,4.587-.6788,6.5325a58.4761,58.4761,0,0,1-1.3635,6.14,39.58,39.58,0,0,1-4.5715,10.3554,36.69,36.69,0,0,1-3.2778,4.3533,31.8164,31.8164,0,0,1-3.3462,3.2343c-.5464.4518-1.287,1.0418-1.873,1.44-.9121.62-2.1649,1.3906-3.1152,1.9485-.5122.3-1.2244.646-1.7619.8965-.6162.2875-1.4559.634-2.0837.8966a37.464,37.464,0,0,1-4.6309,1.4536c-1.24.2795-1.8064.407-2.5688.5269-1.056.167-2.0529.3243-3.5292.4358a40.5964,40.5964,0,0,1-5.5025.06c-1.6666-.1067-2.2817-.188-3.5063-.3506-.7593-.1-2.2174-.382-2.491-.4451-1.7042-.3927-1.8826-.4341-2.73-.69-.7333-.2208-1.7376-.5237-3.0892-1.0644a31.0308,31.0308,0,0,1-3.5955-1.6847c-.5446-.2763-1.2308-.7179-1.7553-1.03a29.9766,29.9766,0,0,1-2.4967-1.7508c-.5756-.4381-1.3035-1.0725-1.845-1.5514a32.3293,32.3293,0,0,1-3.1788-3.35,50.2479,50.2479,0,0,1-3.1376-4.5448c-.4558-.72-.9314-1.7562-1.3277-2.5109A41.52,41.52,0,0,1,73.2,317.49c-.27-.885-.6307-2.0672-.8215-2.9722-.3947-1.8721-.8619-4.3817-1.1286-6.2765-.1378-.9779-.2519-2.2924-.31-3.2787-.0809-1.38-.1415-3.2232-.1535-4.6052v-31.07q0-.11.0053-.22c.3479-6.8164,16.7861-12.2457,36.7165-12.1267C127.2223,257.0589,142.9693,262.562,142.9693,269.2788Z"/>
          <path class="cls-17" d="M142.9693,269.2788v31.07c-.0254,1.0565-.036,2.4666-.0889,3.5217-1.029,20.17-11.7055,35.8211-36.0028,35.6762,24.2973.1449,34.9738-15.5057,36.0028-35.6762-.1511,1.9641-.3657,4.587-.6788,6.5325a58.4761,58.4761,0,0,1-1.3635,6.14,39.58,39.58,0,0,1-4.5715,10.3554,36.69,36.69,0,0,1-3.2778,4.3533,31.8164,31.8164,0,0,1-3.3462,3.2343c-.5464.4518-1.287,1.0418-1.873,1.44-.9121.62-2.1649,1.3906-3.1152,1.9485-.5122.3-1.2244.646-1.7619.8965-.6162.2875-1.4559.634-2.0837.8966a37.464,37.464,0,0,1-4.6309,1.4536c-1.24.2795-1.8064.407-2.5688.5269-1.056.167-2.0529.3243-3.5292.4358a40.5964,40.5964,0,0,1-5.5025.06c-1.6666-.1067-2.2817-.188-3.5063-.3506-.7593-.1-2.2174-.382-2.491-.4451-1.7042-.3927-1.8826-.4341-2.73-.69-.7333-.2208-1.7376-.5237-3.0892-1.0644a31.0308,31.0308,0,0,1-3.5955-1.6847c-.5446-.2763-1.2308-.7179-1.7553-1.03a29.9766,29.9766,0,0,1-2.4967-1.7508c-.5756-.4381-1.3035-1.0725-1.845-1.5514a32.3293,32.3293,0,0,1-3.1788-3.35,50.2479,50.2479,0,0,1-3.1376-4.5448c-.4558-.72-.9314-1.7562-1.3277-2.5109A41.52,41.52,0,0,1,73.2,317.49c-.27-.885-.6307-2.0672-.8215-2.9722-.3947-1.8721-.8619-4.3817-1.1286-6.2765-.1378-.9779-.2519-2.2924-.31-3.2787-.0809-1.38-.1415-3.2232-.1535-4.6052v-31.07q0-.11.0053-.22c.3479-6.8164,16.7861-12.2457,36.7165-12.1267C127.2223,257.0589,142.9693,262.562,142.9693,269.2788Z"/>
          <path class="cls-18" d="M107.508,277.7992c-19.93-.119-36.3686,5.31-36.7165,12.1267-.0035.0733-.0053.1466-.0053.2194v17.19c.012,1.382.0726,3.2253.1535,4.6052.058.9863.1721,2.3008.31,3.2786.2667,1.8949.7339,4.4045,1.1286,6.2766.1908.905.552,2.0872.8215,2.9722a41.51,41.51,0,0,0,2.2246,5.6821c.3963.7548.8719,1.7913,1.3277,2.511a50.2479,50.2479,0,0,0,3.1376,4.5448,32.3394,32.3394,0,0,0,3.1788,3.35c.5415.4789,1.2694,1.1133,1.845,1.5514a29.9766,29.9766,0,0,0,2.4967,1.7508c.5245.3119,1.2107.7535,1.7553,1.03a31.0308,31.0308,0,0,0,3.5955,1.6847c1.3516.5406,2.3559.8436,3.0892,1.0644.8474.2559,1.0258.2973,2.73.69.2736.0631,1.7317.3448,2.491.4452,1.2246.1626,1.84.2439,3.5063.3506a40.5964,40.5964,0,0,0,5.5025-.06c1.4763-.1115,2.4732-.2688,3.5292-.4358.7624-.12,1.3284-.2475,2.5688-.5269a37.481,37.481,0,0,0,4.6309-1.4536c.6278-.2626,1.4675-.6091,2.0837-.8966.5375-.25,1.25-.5962,1.7619-.8965.95-.558,2.2031-1.3288,3.1152-1.9485.586-.3986,1.3266-.9885,1.873-1.44a31.8265,31.8265,0,0,0,3.3462-3.2343,36.69,36.69,0,0,0,3.2778-4.3533,39.5815,39.5815,0,0,0,4.5715-10.3554,58.4761,58.4761,0,0,0,1.3635-6.14c.3131-1.9455.5277-4.5684.6788-6.5325.0529-1.0551.0635-2.4652.0889-3.5217V290.1369C142.9693,283.42,127.2223,277.9169,107.508,277.7992Z"/>
          <path class="cls-19" d="M117.0855,351.0079,96.67,350.8857c-.0049.0524-.01.1044-.0129.1586a6.3538,6.3538,0,0,0,.2061,1.8566,6.827,6.827,0,0,0,.429,1.1853,5.5008,5.5008,0,0,0,.3272.6113v0c.05.0831.1028.17.1615.2652a7.93,7.93,0,0,0,1.2253,1.4519,9.5967,9.5967,0,0,0,.74.6193c.2841.2088.6826.4616.9829.6468a8.1423,8.1423,0,0,0,2.234.7988c2.0192-1.5976,5.8539-2.92,7.9414-3.495.2378-.0582.4723-.1191.7015-.1808.0174-.004.0392-.01.056-.0138h-.0035a31.25,31.25,0,0,0,4.2378-1.4892c.3465-.1484.6837-.3016,1.0094-.4562a7.19,7.19,0,0,0,.191-1.2564A3.5755,3.5755,0,0,0,117.0855,351.0079Z"/>
          <path class="cls-20" d="M100.2107,354.055c-.8729-.2154-2.0363-.51-2.893-.7832-.9421-.3008-2.1874-.741-3.0974-1.128-.6566-.28-1.5365-.6451-2.1681-.9778-1.2574-.6628-2.9443-1.5412-4.1223-2.3373a41.3192,41.3192,0,0,1-6.2679-4.9926,45.35,45.35,0,0,1-4.9442-5.6559c-1.0129-1.372-2.2182-3.305-3.1048-4.7621-.49-.806-1.0549-1.9321-1.4789-2.7749-.4021-.7987-.913-1.8779-1.2455-2.7074-.5977-1.4887-1.337-3.4968-1.8528-5.0157-.2624-.7721-.5625-1.8184-.75-2.6123a49.3625,49.3625,0,0,1-1.0287-4.9c-.1168-.7108-.259-1.6629-.3189-2.3808-.0547-.6576-.1448-1.5336-.1813-2.1925-.0368-.6535-.0626-1.5265-.0635-2.1814V277.0955c0-.9813.0012-2.4127.006-4.3021a36.2738,36.2738,0,0,0,9.4581,9.1967c6.8058,4.5008,13.8593,5.6885,21.5139,6.9774a63.9976,63.9976,0,0,0,8.5049,1.0348c4.3285.1946,17.4156.6058,30.162-7.4889a47.5777,47.5777,0,0,0,10.7229-9.3624c-.0042,1.5014-.0049,2.6883-.005,3.3492-.0006,3.9676,0,28.96,0,32.3878q0,.8217-.0439,1.6984c-.0565.73-.0991,1.7073-.1951,2.4333-.0906.6845-.1946,1.5989-.303,2.28-.1177.7424-.2954,1.729-.4505,2.4652-.3127,1.4842-.8476,3.4368-1.2648,4.8958-.2283.7979-.6015,1.841-.8836,2.6211-.291.8055-.694,1.8757-1.05,2.6541-.693,1.5149-1.6606,3.5172-2.4452,4.9868a51.0159,51.0159,0,0,1-3.3857,5.26c-1.0431,1.3551-2.5159,3.1-3.6643,4.3675-.6793.75-1.6869,1.6523-2.42,2.3507-.5963.5673-1.4479,1.2643-2.1,1.7659-.8614.6616-2.0418,1.5007-2.9419,2.109a38.424,38.424,0,0,1-5.783,3.1178,37.0354,37.0354,0,0,1-6.5791,2.1613,31.2582,31.2582,0,0,1-6.881.6776A30.86,30.86,0,0,1,100.2107,354.055Z"/>
          <path class="cls-21" d="M120.1247,351.8937q.3039-.1292.5988-.263c-29.7706-3.4351-38.06-24.2546-38.06-38.9487V287.2283c-9.7139-2.5127-15.97-6.4965-15.97-10.9631v32.3877c.0009.6549.0267,1.5279.0635,2.1814.0365.6589.1266,1.5349.1813,2.1925.06.7179.2021,1.67.3189,2.3808a49.3625,49.3625,0,0,0,1.0287,4.9c.1877.7939.4878,1.84.75,2.6123.5158,1.5189,1.2551,3.527,1.8528,5.0157.3325.83.8434,1.9087,1.2455,2.7074.424.8428.9887,1.9689,1.4789,2.7749.8866,1.4571,2.0919,3.39,3.1048,4.7621a45.35,45.35,0,0,0,4.9442,5.6559,41.3192,41.3192,0,0,0,6.2679,4.9926c1.178.7961,2.8649,1.6745,4.1223,2.3373.6316.3327,1.5115.6979,2.1681.9778.91.387,2.1553.8272,3.0974,1.128.8567.2737,2.02.5678,2.893.7832a30.86,30.86,0,0,0,6.4539.6776,31.2582,31.2582,0,0,0,6.881-.6776A37.0354,37.0354,0,0,0,120.1247,351.8937Z"/>
          <path class="cls-22" d="M100.4653,291.2964a94.1418,94.1418,0,0,0,22.883-2.4981l.0029,0a157.7368,157.7368,0,0,1-17.1751,1.2045A71.7072,71.7072,0,0,1,76.9714,282.63a12.14,12.14,0,0,1-5.0349-4.3473,11.0981,11.0981,0,0,1-1.5356-4.2582l-3.7017-.7169c-.0046,1.6074-.0058,2.8892-.006,3.7883v6.895C73.5922,288.29,86.0789,291.2022,100.4653,291.2964Z"/>
          <path class="cls-23" d="M141.345,281.9126v29.2851q0,.92-.0444,1.9c-.056.8169-.0987,1.911-.1942,2.7228-.0906.766-.195,1.7888-.303,2.5516-.1181.83-.2959,1.9345-.45,2.7578-.3132,1.6614-.8486,3.8463-1.2657,5.4787-.2279.8927-.6011,2.06-.8828,2.9331-.291.901-.6944,2.0985-1.05,2.9695-.693,1.6951-1.66,3.9358-2.4447,5.5806a58.4851,58.4851,0,0,1-3.3858,5.8849c-.3461.5028-.7415,1.0553-1.1546,1.6187.1778-.16.4506-.4068.7806-.7106,1.04-.9571,1.85-1.7465,2.091-1.9849a47.6878,47.6878,0,0,0,3.95-4.66,49.88,49.88,0,0,0,3.43-5.3168,52.7314,52.7314,0,0,0,2.4452-4.9868c.5827-1.364.99-2.4786,1.2-3.0712.122-.3439.4669-1.3283.859-2.6459.7215-2.4246,1.11-4.32,1.2463-5.0143.2171-1.1028.36-2.0178.4477-2.6292.0722-.503.1825-1.2786.276-2.306.0335-.3684.0908-1.0533.1262-1.8613.017-.3873.0253-.7186.0287-.8643.01-.4213.0107-.75.0108-.9083,0-.3192-.004-.5532-.004-.5794v-34.159Z"/>
          <polygon class="cls-24" points="66.707 287.309 66.699 273.307 73.174 282.303 98.039 289.743 122.773 289.136 138.578 283.37 147.046 273.371 147.046 287.453 147.014 288.512 146.637 289.511 146.276 290.795 144.919 292.645 142.544 295.141 140.355 296.837 133.799 300.022 128.874 301.554 120.851 303.098 110.541 304.203 101.839 304.269 94.189 303.481 87.031 302.113 80.42 300.307 74.137 297.253 69.978 294.188 67.953 291.507 66.968 289.405 66.738 288.497 66.707 287.309"/>
          <path class="cls-25" d="M147.056,273.3839c-.3874,9.3407-18.69,16.7814-40.88,16.6179s-39.8638-7.8677-39.4769-17.2084,18.69-16.78,40.88-16.6174S147.443,264.0437,147.056,273.3839Zm-4.0925-.03c.3483-8.39-15.5266-15.3094-35.4555-15.4554s-36.3686,6.5358-36.7165,14.9251,15.5264,15.3089,35.4563,15.4554,36.3682-6.5357,36.7157-14.9251"/>
          <path class="cls-9" d="M70.7991,273.5226c-.0029-.1374-.0133-.2748-.0076-.4133.3479-8.57,16.7861-15.3962,36.7165-15.2465s35.8038,7.2177,35.4555,15.7883c-.0005.0151-.0036.03-.0045.0441.0018.0564.01.1123.01.1693v-.8826c0-8.4454-15.747-15.3638-35.4613-15.5124-19.93-.15-36.3686,6.6766-36.7165,15.2471-.0035.0916-.0053.1838-.0053.276v.8825q0-.1383.0053-.2765C70.7926,273.574,70.7975,273.5483,70.7991,273.5226Z"/>
          <path class="cls-9" d="M106.1761,289.8851c-21.7574-.16-39.1635-7.5677-39.4687-16.6588-.0013.0268-.0069.0541-.0082.0809-.3869,9.337,17.2872,17.0386,39.4769,17.2015s40.4925-7.2743,40.88-16.6112c.0071-.1765-.004-.3514-.01-.527C146.5367,282.6622,128.2889,290.048,106.1761,289.8851Z"/>
          <path class="cls-9" d="M106.1761,303.9675c-21.7574-.16-39.1635-7.5677-39.4687-16.6588-.0013.0268-.0069.0541-.0082.0809-.3869,9.337,17.2872,17.0387,39.4769,17.2015s40.4925-7.2742,40.88-16.6112c.0071-.1765-.004-.3514-.01-.5269C146.5367,296.7446,128.2889,304.13,106.1761,303.9675Z"/>
          <path class="cls-12" d="M113.263,378.67c3.188,1.8975,6.875,3.7247,10.3447,8.2456-.0364-.0684-.0724-.1369-.1075-.1973a13.9043,13.9043,0,0,0-.82-1.2652,14.7684,14.7684,0,0,0-1.7455-1.9885,19.1919,19.1919,0,0,0-1.9991-1.683,23.6232,23.6232,0,0,0-2.0939-1.3723,26.3918,26.3918,0,0,0-2.8451-1.4345C113.8192,378.8979,113.57,378.7922,113.263,378.67Z"/>
          <path class="cls-26" d="M120.4446,380.5626c3.0849,2.718,4.5763,6.0668,3.3315,7.48s-4.7545.3545-7.84-2.3635-4.5768-6.0674-3.332-7.48S117.36,377.8441,120.4446,380.5626Z"/>
          <path class="cls-9" d="M112,359.894s.0431.24.0787.6544c.0235.2084.0355.4594.0537.7477s.0187.6122.0306.9667c.0094.7069-.0151,1.5287-.0768,2.4057-.0595.877-.1684,1.8087-.2835,2.7394-.0555.466-.123.93-.1914,1.3874s-.1244.9081-.2052,1.3422c-.0756.4344-.1484.8547-.2177,1.2528-.0787.3971-.1533.773-.2217,1.12-.1489.6921-.2835,1.2683-.3874,1.6708s-.1733.6313-.1733.6313a.2.2,0,0,1-.39-.036s-.0257-.2376-.0555-.6526-.0564-1.0053-.0769-1.7131c-.004-.3536-.0088-.7365-.0137-1.1417.0044-.4038.0089-.83.0137-1.2711,0-.4411.028-.8951.0423-1.3567.0164-.4621.0346-.9312.0648-1.399.056-.9366.1191-1.8726.22-2.7456.0991-.8743.2248-1.6864.363-2.38.076-.3461.1346-.6642.2057-.945s.1284-.5251.1888-.7255c.1106-.4016.1968-.629.1968-.629a.4353.4353,0,0,1,.8352.0768Z"/>
          <g id="Rubi-3" data-name="Rubi">
            <polygon class="cls-3" points="102.758 335.931 107.057 331.954 110.998 336.215 106.692 340.198 102.758 335.931"/>
            <path class="cls-4" d="M102.7576,335.9312l2.2938.1032,1.8818-1.7813.1239-2.2987,3.9407,4.26-2.3319-.1028-1.898,1.7627-.0764,2.3232Z"/>
            <path class="cls-27" d="M105.0514,336.0344l1.8818-1.7813,1.7327,1.859-1.898,1.7627Q105.91,336.9547,105.0514,336.0344Z"/>
          </g>
          <g id="Rubi-4" data-name="Rubi">
            <path class="cls-3" d="M128.3757,333.2637q1.6836-2.1232,3.3673-4.2466l3.2009,3.784-3.2294,4.3621Z"/>
            <path class="cls-4" d="M128.3757,333.2637l2.4869-.0947,1.283-1.618-.4026-2.5339,3.2009,3.784-1.5787.1917-1.23,1.662q-.21,1.2543-.42,2.5084Z"/>
            <path class="cls-28" d="M130.8626,333.169l1.283-1.618,1.22,1.4418-1.23,1.662Q131.4987,333.912,130.8626,333.169Z"/>
          </g>
          <g id="Rubi-5" data-name="Rubi">
            <path class="cls-3" d="M86.5885,333.2637q-1.6836-2.1232-3.3673-4.2466l-3.2009,3.784,3.2294,4.3621Z"/>
            <path class="cls-4" d="M86.5885,333.2637l-2.4869-.0947-1.283-1.618.4026-2.5339-3.2009,3.784,1.5787.1917,1.23,1.662q.21,1.2543.42,2.5084Z"/>
            <path class="cls-29" d="M84.1016,333.169l-1.283-1.618-1.22,1.4418,1.23,1.662Q83.4656,333.912,84.1016,333.169Z"/>
          </g>
          <circle class="cls-30" cx="106.8883" cy="297.4256" r="3.6295"/>
          <path class="cls-31" d="M93.8475,296.1826a3.0922,3.0922,0,0,1-3.6,3.0919,4.2036,4.2036,0,0,1-3.6592-4.02,3.0945,3.0945,0,0,1,3.6592-3.0843A4.2077,4.2077,0,0,1,93.8475,296.1826Z"/>
          <path class="cls-32" d="M121.1167,296.1826a3.0922,3.0922,0,0,0,3.6,3.0919,4.2035,4.2035,0,0,0,3.6592-4.02,3.0944,3.0944,0,0,0-3.6592-3.0843A4.2077,4.2077,0,0,0,121.1167,296.1826Z"/>
          <path class="cls-33" d="M78.7214,291.8618a2.2959,2.2959,0,0,1-3.3877,2.2714,5.7726,5.7726,0,0,1-3.4107-4.9722,2.2984,2.2984,0,0,1,3.4107-2.2622A5.7785,5.7785,0,0,1,78.7214,291.8618Z"/>
          <path class="cls-34" d="M135.9644,291.8618a2.2938,2.2938,0,0,0,3.3841,2.2714,5.7727,5.7727,0,0,0,3.4069-4.9722,2.2962,2.2962,0,0,0-3.4069-2.2622A5.7785,5.7785,0,0,0,135.9644,291.8618Z"/>
          <g id="Diamond">
            <path class="cls-35" d="M91.7624,391.9667l1.9481-.3475,1.1668-2.3089L93.9,387.49l-1.8923.4083-1.0932,2.3721Z"/>
            <path class="cls-36" d="M90.9149,390.2706l.7365-1.2827-.7365,1.2827.8475,1.6961,1.9481-.3475-.9143-.9219.8411-.779.0732,1.7009,1.1668-2.3089-1.24.608.1073-1.2491L93.9,387.49l-1.231.7483-1.018.7494.3567-1.0894Z"/>
            <path class="cls-37" d="M90.9149,390.2706l.6781-.08.1694,1.7759,1.0338-1.2694.8411-.779,1.24-.608-1.1327-.6411-1.0752-.4307-.6613-.34-.3567,1.0894Z"/>
            <path class="cls-38" d="M91.593,390.1908l1.2032.5065.8411-.779.1073-1.2491-1.0752-.4307-1.018.7494Z"/>
          </g>
          <g id="Diamond-2" data-name="Diamond">
            <path class="cls-35" d="M121.8572,391.9667l-1.948-.3475-1.1669-2.3089.9769-1.82,1.8924.4083,1.0932,2.3721Z"/>
            <path class="cls-36" d="M122.7048,390.2706l-.7366-1.2827.7366,1.2827-.8476,1.6961-1.948-.3475.9142-.9219-.841-.779-.0732,1.7009-1.1669-2.3089,1.24.608-.1073-1.2491-.1559-1.179,1.2311.7483,1.0179.7494-.3566-1.0894Z"/>
            <path class="cls-37" d="M122.7048,390.2706l-.6781-.08-.1695,1.7759-1.0338-1.2694-.841-.779-1.24-.608,1.1328-.6411,1.0752-.4307.6613-.34.3566,1.0894Z"/>
            <path class="cls-39" d="M122.0267,390.1908l-1.2033.5065-.841-.779-.1073-1.2491,1.0752-.4307,1.0179.7494Z"/>
          </g>
          <g id="Diamond-3" data-name="Diamond">
            <polygon class="cls-35" points="106.809 396.053 104.867 394.826 104.931 392.508 106.938 391.375 108.971 392.576 108.905 394.951 106.809 396.053"/>
            <path class="cls-36" d="M108.9052,394.9513l-.6081-1.1979-1.488,2.3-1.942-1.2276,1.3178.0363-.62-1.1839-.6974,1.1476.0639-2.3176.6335,1.17,1.3735-2.3031,1.3591,2.3784.6736-1.177Z"/>
            <path class="cls-37" d="M108.9052,394.9513l-1.3589-.0374-.7372,1.1394-.6242-1.1913-1.2539-2.3539,4.04.0683-.6736,1.177Z"/>
            <path class="cls-40" d="M107.5463,394.9139l-1.3614-.0519-.6259-1.1749.69-1.1567,1.354.0083.6941,1.2147Z"/>
          </g>
        </g>
      </g>
    </g>
  </g>
</svg>
