<svg xmlns="http://www.w3.org/2000/svg" xmlns:xlink="http://www.w3.org/1999/xlink" width="512" height="512" viewBox="0 0 512 512"><defs><style>.cls-1{isolation:isolate;}.cls-2{fill:#963;}.cls-3{fill:#ab6377;}.cls-10,.cls-13,.cls-18,.cls-19,.cls-3,.cls-4,.cls-5,.cls-6{mix-blend-mode:multiply;}.cls-18,.cls-3{opacity:0.5;}.cls-4,.cls-5{opacity:0.6;}.cls-4{fill:url(#linear-gradient);}.cls-5{fill:url(#linear-gradient-2);}.cls-6{fill:url(#_111);}.cls-7{fill:url(#linear-gradient-3);}.cls-8{fill:#ffb805;}.cls-9{fill:#fff65f;}.cls-10{fill:url(#linear-gradient-4);}.cls-11{fill:#221229;}.cls-12{fill:url(#linear-gradient-5);}.cls-13{fill:#803689;opacity:0.1;}.cls-14{fill:url(#linear-gradient-6);}.cls-15{fill:url(#linear-gradient-7);}.cls-16{fill:url(#linear-gradient-8);}.cls-17{fill:#5f5273;}.cls-18{fill:#904f98;}.cls-19{fill:#a6587c;opacity:0.4;}.cls-20{fill:url(#linear-gradient-9);}.cls-21{fill:url(#linear-gradient-10);}.cls-22{fill:#9fa0ad;}.cls-23{fill:#c50013;}.cls-24{fill:#f3001e;}.cls-25{fill:url(#radial-gradient);}.cls-26{fill:url(#radial-gradient-2);}.cls-27{fill:url(#radial-gradient-3);}.cls-28{fill:url(#radial-gradient-4);}.cls-29{fill:url(#radial-gradient-5);}.cls-30{fill:url(#radial-gradient-6);}</style><linearGradient id="linear-gradient" x1="105.2776" y1="362.7031" x2="-111.4312" y2="180.9143" gradientTransform="matrix(-0.8511, 0.7503, 0.7446, 0.8447, -104.3705, 14.6277)" gradientUnits="userSpaceOnUse"><stop offset="0" stop-color="#fff"/><stop offset="0.1118" stop-color="#fcfafa"/><stop offset="0.2512" stop-color="#f3eaeb"/><stop offset="0.4053" stop-color="#e4d1d2"/><stop offset="0.5701" stop-color="#d0adb0"/><stop offset="0.7433" stop-color="#b58084"/><stop offset="0.9209" stop-color="#96494f"/><stop offset="1" stop-color="#862e35"/></linearGradient><linearGradient id="linear-gradient-2" x1="109.0314" y1="354.2094" x2="-95.5774" y2="182.571" xlink:href="#linear-gradient"/><linearGradient id="_111" x1="150.8926" y1="391.5766" x2="-162.5434" y2="128.6471" gradientTransform="matrix(-0.8511, 0.7503, 0.7446, 0.8447, -104.3705, 14.6277)" gradientUnits="userSpaceOnUse"><stop offset="0" stop-color="#862e57"/><stop offset="0.0791" stop-color="#96496d"/><stop offset="0.2567" stop-color="#b58099"/><stop offset="0.4299" stop-color="#d0adbd"/><stop offset="0.5947" stop-color="#e4d1da"/><stop offset="0.7488" stop-color="#f3eaee"/><stop offset="0.8882" stop-color="#fcfafb"/><stop offset="1" stop-color="#fff"/></linearGradient><linearGradient id="linear-gradient-3" x1="58.7106" y1="320.109" x2="2.4125" y2="286.7013" gradientTransform="matrix(-0.8511, 0.7503, 0.7446, 0.8447, -104.3705, 14.6277)" gradientUnits="userSpaceOnUse"><stop offset="0" stop-color="#ffb805"/><stop offset="0.234" stop-color="#efab04"/><stop offset="0.6914" stop-color="#c48802"/><stop offset="1" stop-color="#a46e00"/></linearGradient><linearGradient id="linear-gradient-4" x1="197.5933" y1="362.2061" x2="-72.9921" y2="255.396" gradientTransform="matrix(-0.8511, 0.7503, 0.7446, 0.8447, -104.3705, 14.6277)" gradientUnits="userSpaceOnUse"><stop offset="0" stop-color="#fff"/><stop offset="0.1108" stop-color="#f6f0f5"/><stop offset="0.3233" stop-color="#e0c9d9"/><stop offset="0.6159" stop-color="#bb8aad"/><stop offset="0.9742" stop-color="#8a3471"/><stop offset="1" stop-color="#862e6c"/></linearGradient><linearGradient id="linear-gradient-5" x1="-18.442" y1="283.0859" x2="-31.9112" y2="181.6461" gradientTransform="matrix(-0.8405, 0.7622, 0.7564, 0.8342, -104.1842, 16.4509)" gradientUnits="userSpaceOnUse"><stop offset="0" stop-color="#666173"/><stop offset="0.1922" stop-color="#6a6677"/><stop offset="0.4054" stop-color="#767383"/><stop offset="0.6287" stop-color="#8a8998"/><stop offset="0.8575" stop-color="#a6a8b4"/><stop offset="1" stop-color="#bbbfc9"/></linearGradient><linearGradient id="linear-gradient-6" x1="-93.521" y1="203.1212" x2="24.0593" y2="203.1212" gradientTransform="matrix(-0.8405, 0.7622, 0.7564, 0.8342, -104.1842, 16.4509)" gradientUnits="userSpaceOnUse"><stop offset="0" stop-color="#5e4f65"/><stop offset="0.4236" stop-color="#594d67"/><stop offset="0.8926" stop-color="#4c496b"/><stop offset="1" stop-color="#48476d"/></linearGradient><linearGradient id="linear-gradient-7" x1="2.3848" y1="168.1967" x2="49.1613" y2="243.9781" gradientTransform="matrix(-0.8405, 0.7622, 0.7564, 0.8342, -104.1842, 16.4509)" gradientUnits="userSpaceOnUse"><stop offset="0" stop-color="#76657d"/><stop offset="0.3397" stop-color="#71637c"/><stop offset="0.7158" stop-color="#645b7b"/><stop offset="1" stop-color="#555379"/></linearGradient><linearGradient id="linear-gradient-8" x1="37.705" y1="203.6674" x2="150.6237" y2="203.6674" gradientTransform="matrix(1, 0, 0, 1, 0, 0)" xlink:href="#linear-gradient-6"/><linearGradient id="linear-gradient-9" x1="63.8758" y1="157.7223" x2="93.4005" y2="157.7223" gradientTransform="translate(22.6562 -9.3893) rotate(7.9795)" gradientUnits="userSpaceOnUse"><stop offset="0" stop-color="#666173"/><stop offset="0.5889" stop-color="#6b6276"/><stop offset="1" stop-color="#72637c"/></linearGradient><linearGradient id="linear-gradient-10" x1="63.8873" y1="156.2294" x2="93.3889" y2="156.2294" gradientTransform="matrix(1, 0, 0, 1, 0, 0)" xlink:href="#linear-gradient-9"/><radialGradient id="radial-gradient" cx="427.6883" cy="292.0233" r="1.4254" gradientTransform="matrix(0.679, 0.7341, -0.7341, 0.679, -9.6693, -329.2106)" gradientUnits="userSpaceOnUse"><stop offset="0" stop-color="#f3adc1"/><stop offset="0.0879" stop-color="#f691a0"/><stop offset="0.1975" stop-color="#f9747f"/><stop offset="0.3154" stop-color="#fb5c63"/><stop offset="0.4423" stop-color="#fd4a4e"/><stop offset="0.5825" stop-color="#fe3d3f"/><stop offset="0.7464" stop-color="#ff3536"/><stop offset="0.9916" stop-color="#f33"/></radialGradient><radialGradient id="radial-gradient-2" cx="443.471" cy="301.1742" r="1.4254" xlink:href="#radial-gradient"/><radialGradient id="radial-gradient-3" cx="458.2076" cy="310.6962" r="1.4254" xlink:href="#radial-gradient"/><radialGradient id="radial-gradient-4" cx="454.2485" cy="226.5361" r="1.4254" gradientTransform="translate(86.3252 -347.3018) rotate(57.9106)" xlink:href="#radial-gradient"/><radialGradient id="radial-gradient-5" cx="470.0312" cy="235.687" r="1.4254" gradientTransform="translate(86.3252 -347.3018) rotate(57.9106)" xlink:href="#radial-gradient"/><radialGradient id="radial-gradient-6" cx="484.7678" cy="245.2089" r="1.4254" gradientTransform="translate(86.3252 -347.3018) rotate(57.9106)" xlink:href="#radial-gradient"/></defs><g class="cls-1"><g id="Layer_1" data-name="Layer 1"><g id="Item"><g id="Mace"><path class="cls-2" d="M90.1294,279.0255c.9567,1.1475,2.8618,1.4255,5.1235,1.1176l.004-.0036a17.9824,17.9824,0,0,0,2.209-.4534,27.2261,27.2261,0,0,0,6.0017-2.4578,21.0231,21.0231,0,0,0,3.9653-2.7929,8.43,8.43,0,0,0,1.8767-2.3619c.4468-.9087.3131-4.2162-.21-9.0566-1.1127-10.2137-3.9766-27.4347-6.8159-43.4115-.0991-.5664-.2024-1.13-.3026-1.6889C98.6244,199.15,95.42,182.6289,95.42,182.6289s-14.4473,1.92-16.0763,4.4256c-.6838,1.0543.63,17.5667,2.59,36.2389.1256,1.2223.2567,2.4589.3876,3.6935.0506.4949.1087.99.1626,1.488.1867,1.7041.3788,3.4205.57,5.1332.5114,4.5612,1.0518,9.109,1.5966,13.4639.01.109.024.2141.038.3193.3318,2.6276.6653,5.1886.991,7.6373C87.4053,267.8942,89.0731,277.7585,90.1294,279.0255Z"/><path class="cls-3" d="M83.0544,233.6081c8.0645-14.1963,15.4457-15.8966,18.9268-15.6916C98.6244,199.15,95.42,182.6289,95.42,182.6289s-14.4473,1.92-16.0763,4.4256c-.6838,1.0543.63,17.5667,2.59,36.2389.1256,1.2223.2567,2.4589.3876,3.6935.0506.4949.1087.99.1626,1.488C82.6706,230.179,82.8627,231.8954,83.0544,233.6081Z"/><path class="cls-4" d="M103.4676,277.2283a21.0231,21.0231,0,0,0,3.9653-2.7929c-5.8927-7.4678-7.8387-27.6093-7.3033-42.5818.61-17.1439-5.0382-23.6064-5.0382-23.6064s-3.61,1.5548,1.061,5.7191c4.636,4.1328,2.611,28.8677,3.7418,48.6217C100.3183,269.9872,101.7854,274.4849,103.4676,277.2283Z"/><path class="cls-5" d="M95.2529,280.1431l.004-.0036a17.9824,17.9824,0,0,0,2.209-.4534,41.2731,41.2731,0,0,1-4.8668-9.1929c-3.8009-9.4344,6.4485-28.052,4.9017-39.3816l-.0032-.0041q-.0206-.2017-.0535-.3921c-1.252-7.6783-5.3879-11.7523-8.9894-14a26.8346,26.8346,0,0,0-4.4953-2.2011l-2.4949,2.3234A19.2058,19.2058,0,0,1,95.5437,231.49c1.455,6.5348-.5876,14.8766-2.7073,22.46l-.0041.0038a.1078.1078,0,0,1-.0076.0344c-.0077.0344-.0261.0992-.05.1832-1.8119,6.48-3.6641,12.3973-3.4007,16.1431a12.1259,12.1259,0,0,0,2.3327,6.2724l.0031.0038A16.1667,16.1667,0,0,0,95.2529,280.1431Z"/><path class="cls-3" d="M91.7063,276.5862a18.262,18.262,0,0,1-2.0527-6.6028c-.2268-3.1783,2.6686-14.1118,3.1207-15.8127-1.8119,6.48-3.6641,12.3973-3.4007,16.1431A12.1259,12.1259,0,0,0,91.7063,276.5862Z"/><path class="cls-6" d="M90.1294,279.0255c3.1584,3.7883,16.6958-1.91,19.18-6.952.4468-.9087.3131-4.2162-.21-9.0566-2.2608,3.71-6.0027,7.0252-12.0113,5.7171-11.4223-2.4755-13.9234-51.8414,5.1954-49.1286-3.4606-19.449-6.8634-36.9765-6.8634-36.9765s-14.4473,1.92-16.0763,4.4256C77.7225,189.5509,86.95,275.2122,90.1294,279.0255Z"/><path class="cls-7" d="M96.62,294.6065c3.0908-.0026,9.8378-2.0666,13.454-5.2047,3.63-3.15,8.0242-15.4243,8.2362-17.0307.2143-1.624-8.8121-4.8291-8.8121-4.8291s-7.1659,6.9716-12.2924,7.773c-5.1373.8031-8.5364-1.2308-8.5931-1.5314-.0555-.25-4.9139,7.5678-5.7012,10.2725l-.0111.0359a1.3129,1.3129,0,0,0-.0564.7509C83.4054,286.0632,93.51,294.6089,96.62,294.6065Z"/><path class="cls-8" d="M82.844,284.8429s7.3437,4.0121,18.1409.0109A42.9238,42.9238,0,0,0,118.31,272.3711c.2143-1.624-8.8121-4.8291-8.8121-4.8291s-7.1659,6.9716-12.2924,7.773c-5.1373.8031-8.5364-1.2308-8.5931-1.5314-.0555-.25-4.9139,7.5678-5.7012,10.2725l-.0111.0359Z"/><path class="cls-9" d="M117.3862,273.4637a33.849,33.849,0,0,1-22.8668,12.9824,47.8412,47.8412,0,0,0,22.8668-12.9824Z"/><path class="cls-10" d="M109.4982,267.542A37.6349,37.6349,0,0,1,98.2,273.7657c-5.8893,1.7514-9.587.0179-9.587.0179s2.9767,4.908,9.7953,2.0061A31.1071,31.1071,0,0,0,109.4982,267.542Z"/><path class="cls-11" d="M148.8114,161.5929s-2.004,4.2968-1.341,4.8115,1.5141.6624,1.7626.9977,1.65,3.3847,1.3756,3.8785-4.6707.21-4.6707.21l-2.3553-5.6395,5.4052-6.7433Z"/><path class="cls-12" d="M20.8913,222.62c.6839.4895,8.7332,4.6443,16.6945,8.2369l.0336.0127a.5631.5631,0,0,0,.0856.0375c7.3769,3.3331,14.6638,6.1658,16.033,5.1958,2.8521-2.0269,93.1953-37.9883,94.5065-40.8424.5606-1.2313,1.5792-12.1257,2.3641-23.98a25.3962,25.3962,0,0,1-2.3577-1.6512,6.2968,6.2968,0,0,1-2.134-2.4242c-.2931-.9684,1.4219-3.7862,3.2213-6.3833.6945-.9913,1.3928-1.9494,2.0025-2.7635.4372-9.936.48-18.0286-.3536-18.1748-2.1705-.3717-40.1871-1.9734-41.5-1.4594-2.3045.8808-95.8366,35.6437-102.919,40.2527a1.52,1.52,0,0,0-.2766.2407C4.7537,181.2413,19.5591,221.6644,20.8913,222.62Z"/><path class="cls-13" d="M59.7589,228.5234c4.7851,2.1223,78.3249-30.9614,82.6781-36.1062,1.9969-2.3595,4.2907-12.4231,5.8139-22.7878a6.2968,6.2968,0,0,1-2.134-2.4242c-.2931-.9684,1.4219-3.7862,3.2213-6.3833.906-9.045.9067-16.5449-.8173-16.7547-3.114-.3835-104.4853,38.8512-105.6481,41.1022C41.7164,187.4121,54.948,226.39,59.7589,228.5234Z"/><path class="cls-14" d="M6.2912,178.92s24.5981,4.414,30.16,4.1132c5.546-.3,113.7593-40.1931,114.5338-43.151-2.1674-.3686-40.185-1.9725-41.4979-1.461-2.3021.8823-95.839,35.6456-102.9184,40.2563C6.3889,178.8393,6.2912,178.92,6.2912,178.92Z"/><path class="cls-15" d="M20.8907,222.6176c1.331.9528,30.0027,15.5034,32.8469,13.4861,1.2738-2.26-17.2864-53.0706-17.2864-53.0706s-26.0523-4.6354-30.16-4.1132C4.7523,181.2393,19.5574,221.6632,20.8907,222.6176Z"/><path class="cls-16" d="M37.705,230.9068c7.3769,3.3331,14.6638,6.1658,16.033,5.1958,2.8521-2.0269,93.1953-37.9883,94.5065-40.8424.5616-1.2394,1.5944-12.2775,2.3792-24.2211-1.4483,10.1872-3.4437,20.92-5.5032,23.02-4.0346,4.1041-82.8659,39.3-87.4245,37.3663C53.56,229.6692,47.3838,213.6442,46.2041,210.5c1.2252,3.3737,7.6883,21.5948,4.9112,23.0529C48.2521,235.05,38.8728,231.3715,37.705,230.9068Z"/><path class="cls-17" d="M56.7,158.3448S17.4263,172.9784,19.4142,175.774c1.98,2.7836,17.2285,4.4087,24.3087,2.6467,7.0654-1.7583,66.726-21.5908,66.726-21.5908s-68.8028,26.1367-73.8215,26.6865c-5.03.5512-31.2048-3.2057-30.3362-4.5965S56.7,158.3448,56.7,158.3448Z"/><path class="cls-8" d="M128.5361,204a29.8974,29.8974,0,0,1-2.6054,1.7607s1.59.8332,2.2734,1.1076c.6858.2782,10.3641-3.4671,10.8867-3.849.5184-.3781,2.867-60.7372.8158-61.11-2.0546-.3737-44.46-1.8128-45.6665-1.1516-1.2021.657-11.5254,4.1227-12.1428,4.5909-.6139.4726-2.3319,4.2346-2.3319,4.2346l4.54-1.7154s40.8312,2.7127,42.047,2.9012C127.5707,150.9617,129.0038,203.5552,128.5361,204Z"/><path class="cls-8" d="M82.0973,145.3485s46.225-.2094,47.4813,1.4782c.4877-.471,9.984-4.2191,10.328-4.9175-2.0546-.3737-44.46-1.8128-45.6665-1.1516C93.038,141.4146,82.7147,144.88,82.0973,145.3485Z"/><path class="cls-8" d="M63.6933,231.7125s4.0109.9912,4.4987.9989,10.3776-3.7255,10.7445-4.2369-8.9048-57.05-10.1972-57.7905c-2.3224-1.321-34.9548-5.2129-36.6085-4.9908s-14.4714,4.7409-15.1105,5.3725a15.0715,15.0715,0,0,0-1.59,3.5187s2.8891-1.0639,4.2919-1.5344c.9945-.3289,17.724,1.8876,27.4789,3.3394,3.9625.5864,6.7869,1.0491,6.982,1.1661,2.16,1.3319,13.9576,51.4376,13.34,52.03A28.5755,28.5755,0,0,1,63.6933,231.7125Z"/><path class="cls-18" d="M128.5361,204a29.8974,29.8974,0,0,1-2.6054,1.7607s1.59.8332,2.2734,1.1076c0,0,2.063-1.1666,2.423-1.9885.3635-.8183.2045-56.37-1.0485-58.0532-1.2563-1.6876-47.4813-1.4782-47.4813-1.4782-.6139.4726-2.3319,4.2346-2.3319,4.2346l4.54-1.7154s40.8312,2.7127,42.047,2.9012C127.5707,150.9617,129.0038,203.5552,128.5361,204Z"/><path class="cls-18" d="M63.6933,231.7125s4.0109.9912,4.4987.9989a12.3257,12.3257,0,0,0,1.19-3.889c-.065-.76-10.9535-52.5056-12.0952-53.51C55.16,173.4408,17.02,171.0657,17.02,171.0657a15.0715,15.0715,0,0,0-1.59,3.5187s2.8891-1.0639,4.2919-1.5344a.4137.4137,0,0,1,.0889-.0143.1748.1748,0,0,1,.0564-.0067c.0522-.0026.1166-.009.1927-.0108.0922-.0012.2083-.0016.34.0072.06-.0023.1279.0042.1918.0065.2.0067.4192.0183.67.04.3344.0285.7167.0586,1.1426.0945.2187.02.4412.045.6758.0658.266.03.5522.0575.8421.0887.0914.0074.1828.0148.27.0263.1313.0087.2621.0261.4008.0436.151.0137.3056.0319.46.05.5908.0672,1.2169.14,1.87.2178.2615.026.5226.06.78.0907.3246.0367.649.0734.9809.1189.5654.0663,1.1423.1372,1.7263.2168.49.0594.9907.1234,1.4915.1874.7571.094,1.5291.1971,2.3006.3.4724.0586.9484.1217,1.4242.1847,3.6979.5,7.4744,1.0316,10.6428,1.495.32.0448.6315.0891.9311.1374l.0157.0005c3.9546.5861,6.7712,1.0486,6.9663,1.1656,2.16,1.3319,13.9576,51.4376,13.34,52.03A28.5755,28.5755,0,0,1,63.6933,231.7125Z"/><path class="cls-8" d="M17.02,171.0657s38.1394,2.3751,40.2667,4.2469c4.1141-1.5663,11.4523-4.6286,11.4523-4.6286-2.3224-1.321-34.9548-5.2129-36.6085-4.9908S17.6594,170.4341,17.02,171.0657Z"/><path class="cls-19" d="M79.7654,149.5831s2.5937-2.4,3.95-2.5973,16.6.415,21.3236.6522c4.71.2364,22.3515.6633,22.9608,2.6266.6078,1.9582,2.1911,53.08,1.4858,53.8706s-3.555,1.6256-3.555,1.6256,2.0639-1.8425,2.1969-2.6479-.6332-50.5786-3.0844-51.3957C122.5862,150.8983,82.1362,148.1922,79.7654,149.5831Z"/><path class="cls-19" d="M15.4305,174.5844a6.26,6.26,0,0,1,3.4455-2.4927c2.07-.41,35.7744,2.2233,36.8556,4.4141,1.0778,2.184,13.75,51.9732,12.4964,53.482s-4.5347,1.7247-4.5347,1.7247,3.09-1.5823,3.3743-2.753-12.1494-49.86-15.0854-50.6973C45.6054,176.4445,20.5373,173.6778,15.4305,174.5844Z"/><path class="cls-9" d="M123.83,141.17s9.9074.7443,9.5076,2.026c-.3993,1.28-4.0163,2.5688-6.16,2.4637-2.1465-.1053-10.3022.0365-10.3022.0365s11.1633,1.3968,12.7915,1.249,10.9861-4.7252,10.2395-5.0362S124.6606,141.1984,123.83,141.17Z"/><path class="cls-9" d="M56.7055,168.4838s12.1639.9473,12.0338,2.2c-.13,1.2512-10.5348,5.0186-11.4523,4.6286s-10.6393-1.6142-10.4177-1.8313,9.2278,1.55,11.5514-.7206C60.7472,170.4876,56.7055,168.4838,56.7055,168.4838Z"/><path class="cls-9" d="M99.0141,140.5881a33.5124,33.5124,0,0,0-4.774.1695c-.9222.2631-12.225,4.2758-12.1428,4.5909s9.1322-.0066,9.1322-.0066-4.7828-.4611-4.3672-1.1,5.8928-2.7717,7.9624-3.1365C96.8927,140.7414,99.0141,140.5881,99.0141,140.5881Z"/><path class="cls-9" d="M41.242,166.5269s-7.5941-1.2581-9.2335-.8133S16.35,170.674,17.02,171.0657s12.405.8668,12.405.8668-7.2514-1.2586-6.0344-2.1535a19.1276,19.1276,0,0,1,9.3813-3.0056C36.538,166.8179,41.242,166.5269,41.242,166.5269Z"/><path class="cls-9" d="M60.098,185.9209c.0453.1105,1.7373,9.3174,3.1591,15.7769,1.41,6.4066,4.6467,19.9068,4.6467,19.9068a141.2965,141.2965,0,0,0-2.8592-18.6138A141.2944,141.2944,0,0,0,60.098,185.9209Z"/><path class="cls-3" d="M100.6961,253.7038a.1062.1062,0,0,1-.0072.0345A.2823.2823,0,0,1,100.7,253.7Z"/><ellipse class="cls-20" cx="78.6381" cy="157.7223" rx="14.895" ry="4.165" transform="translate(-21.1334 12.4435) rotate(-7.9795)"/><path class="cls-21" d="M63.8873,159.79v-3.5111l29.5016-4.1354v3.5111A54.1377,54.1377,0,0,1,63.8873,159.79Z"/><ellipse class="cls-22" cx="78.6381" cy="154.2112" rx="14.895" ry="4.165" transform="matrix(0.9903, -0.1388, 0.1388, 0.9903, -20.6461, 12.4096)"/><g id="Rubi"><polygon class="cls-23" points="62.37 184.307 65.459 179.309 69.385 181.857 66.363 186.786 62.37 184.307"/><path class="cls-24" d="M62.37,184.307l2.4638-.6879,1.3371-2.2147-.7119-2.0952,3.9263,2.5481-1.4812.6455-1.34,2.1884-.2012,2.0953Z"/><path class="cls-25" d="M64.8334,183.6191l1.3371-2.2147,1.7333,1.0984-1.34,2.1884Z"/></g><g id="Rubi-2" data-name="Rubi"><polygon class="cls-23" points="66.369 202.107 69.458 197.109 73.384 199.657 70.362 204.586 66.369 202.107"/><path class="cls-24" d="M66.3686,202.107l2.4638-.6879,1.3371-2.2147-.7119-2.0952,3.9263,2.5481-1.4812.6455-1.34,2.1884-.2012,2.0953Z"/><path class="cls-26" d="M68.8324,201.4191l1.3371-2.2147,1.7333,1.0984-1.34,2.1884Z"/></g><g id="Rubi-3" data-name="Rubi"><polygon class="cls-23" points="69.385 219.391 72.474 214.393 76.4 216.941 73.378 221.871 69.385 219.391"/><path class="cls-24" d="M69.3849,219.3911q1.2318-.3441,2.4638-.6879l1.3371-2.2147-.7119-2.0952,3.9262,2.548-1.4811.6456-1.34,2.1884-.2012,2.0953Z"/><path class="cls-27" d="M71.8487,218.7032l1.3371-2.2147,1.7332,1.0984-1.34,2.1884Z"/></g><g id="Rubi-4" data-name="Rubi"><polygon class="cls-23" points="131.56 158.385 135.522 154.046 138.908 157.277 135.025 161.561 131.56 158.385"/><path class="cls-24" d="M131.56,158.3845l2.5486-.22,1.7243-1.9285-.3113-2.1909,3.3861,3.2315-1.5751.36-1.7221,1.9023-.586,2.0217Z"/><path class="cls-28" d="M134.1086,158.1651l1.7243-1.9286,1.5,1.4-1.7221,1.9023Z"/></g><g id="Rubi-5" data-name="Rubi"><polygon class="cls-23" points="132.192 176.617 136.153 172.278 139.539 175.51 135.656 179.794 132.192 176.617"/><path class="cls-24" d="M132.1916,176.6173l2.5486-.22,1.7244-1.9286-.3114-2.1908,3.3861,3.2314-1.575.36q-.8612.951-1.7222,1.9022l-.586,2.0217Z"/><path class="cls-29" d="M134.74,176.3978l1.7244-1.9286,1.5,1.4-1.7222,1.9023Z"/></g><g id="Rubi-6" data-name="Rubi"><polygon class="cls-23" points="131.953 194.161 135.915 189.822 139.301 193.053 135.418 197.337 131.953 194.161"/><path class="cls-24" d="M131.9531,194.1609l2.5486-.2194,1.7244-1.9286-.3113-2.1909,3.3861,3.2315-1.5751.36-1.7221,1.9023-.586,2.0217Z"/><path class="cls-30" d="M134.5018,193.9415l1.7243-1.9286,1.5,1.4-1.7222,1.9023Z"/></g></g></g></g></g></svg>