<svg xmlns="http://www.w3.org/2000/svg" xmlns:xlink="http://www.w3.org/1999/xlink" width="512" height="512" viewBox="0 0 512 512"><defs><style>.cls-1{isolation:isolate;}.cls-2{fill:#875a00;}.cls-10,.cls-11,.cls-12,.cls-13,.cls-14,.cls-15,.cls-16,.cls-17,.cls-18,.cls-19,.cls-2,.cls-20,.cls-21,.cls-22,.cls-23,.cls-24,.cls-25,.cls-26,.cls-27,.cls-28,.cls-29,.cls-3,.cls-30,.cls-31,.cls-32,.cls-33,.cls-34,.cls-35,.cls-4,.cls-5,.cls-6,.cls-7,.cls-8,.cls-9{fill-rule:evenodd;}.cls-3{fill:#ffb805;}.cls-4{fill:url(#linear-gradient);}.cls-5{fill:url(#linear-gradient-2);}.cls-6{fill:url(#linear-gradient-3);}.cls-10,.cls-11,.cls-13,.cls-7,.cls-8{mix-blend-mode:screen;}.cls-7{fill:url(#radial-gradient);}.cls-8{fill:url(#radial-gradient-2);}.cls-12,.cls-9{mix-blend-mode:multiply;}.cls-9{fill:url(#radial-gradient-3);}.cls-10{fill:url(#radial-gradient-4);}.cls-11{fill:url(#radial-gradient-5);}.cls-12{opacity:0.5;fill:url(#linear-gradient-4);}.cls-13{fill:url(#linear-gradient-5);}.cls-14{fill:url(#linear-gradient-6);}.cls-15{fill:url(#radial-gradient-6);}.cls-16{fill:url(#radial-gradient-7);}.cls-17{fill:url(#radial-gradient-8);}.cls-18{fill:url(#radial-gradient-9);}.cls-19{fill:url(#radial-gradient-10);}.cls-20{fill:url(#radial-gradient-11);}.cls-21{fill:url(#radial-gradient-12);}.cls-22{fill:url(#radial-gradient-13);}.cls-23{fill:url(#radial-gradient-14);}.cls-24{fill:url(#radial-gradient-15);}.cls-25{fill:url(#radial-gradient-16);}.cls-26{fill:url(#radial-gradient-17);}.cls-27{fill:url(#radial-gradient-18);}.cls-28{fill:url(#radial-gradient-19);}.cls-29{fill:url(#radial-gradient-20);}.cls-30{fill:url(#radial-gradient-21);}.cls-31{fill:url(#radial-gradient-22);}.cls-32{fill:url(#radial-gradient-23);}.cls-33{fill:url(#radial-gradient-24);}.cls-34{fill:url(#radial-gradient-25);}.cls-35{fill:url(#radial-gradient-26);}</style><linearGradient id="linear-gradient" x1="60.9168" y1="317.2029" x2="152.1909" y2="317.2029" gradientUnits="userSpaceOnUse"><stop offset="0" stop-color="#ff0606"/><stop offset="0.2107" stop-color="#ef0505"/><stop offset="0.6225" stop-color="#c40303"/><stop offset="1" stop-color="#980000"/></linearGradient><linearGradient id="linear-gradient-2" x1="60.9168" y1="316.373" x2="106.4921" y2="316.373" xlink:href="#linear-gradient"/><linearGradient id="linear-gradient-3" x1="97.7207" y1="394.6028" x2="97.7207" y2="266.695" gradientUnits="userSpaceOnUse"><stop offset="0" stop-color="#db9307"/><stop offset="1" stop-color="#945800"/></linearGradient><radialGradient id="radial-gradient" cx="81.2884" cy="251.7956" r="46.8545" gradientUnits="userSpaceOnUse"><stop offset="0"/><stop offset="1" stop-color="#ffd857"/></radialGradient><radialGradient id="radial-gradient-2" cx="127.9804" cy="301.4413" r="145.9725" xlink:href="#radial-gradient"/><radialGradient id="radial-gradient-3" cx="23.696" cy="353.4378" r="84.632" gradientUnits="userSpaceOnUse"><stop offset="0" stop-color="#fff"/><stop offset="0.1068" stop-color="#fdfcfa"/><stop offset="0.2305" stop-color="#f9f4ec"/><stop offset="0.3627" stop-color="#f1e6d5"/><stop offset="0.5007" stop-color="#e6d3b4"/><stop offset="0.6434" stop-color="#d9ba8a"/><stop offset="0.79" stop-color="#c89c57"/><stop offset="0.937" stop-color="#b4781c"/><stop offset="1" stop-color="#ab6800"/></radialGradient><radialGradient id="radial-gradient-4" cx="66.6988" cy="292.4178" r="130.2853" gradientUnits="userSpaceOnUse"><stop offset="0" stop-color="#d44660"/><stop offset="1"/></radialGradient><radialGradient id="radial-gradient-5" cx="131.4637" cy="237.7165" r="154.2418" xlink:href="#radial-gradient-4"/><linearGradient id="linear-gradient-4" x1="106.2788" y1="319.0152" x2="130.439" y2="319.0152" gradientUnits="userSpaceOnUse"><stop offset="0" stop-color="#ab6800"/><stop offset="0.063" stop-color="#b4781c"/><stop offset="0.21" stop-color="#c89c57"/><stop offset="0.3566" stop-color="#d9ba8a"/><stop offset="0.4993" stop-color="#e6d3b4"/><stop offset="0.6373" stop-color="#f1e6d5"/><stop offset="0.7695" stop-color="#f9f4ec"/><stop offset="0.8932" stop-color="#fdfcfa"/><stop offset="1" stop-color="#fff"/></linearGradient><linearGradient id="linear-gradient-5" x1="89.3264" y1="316.3181" x2="106.506" y2="316.3181" xlink:href="#radial-gradient"/><linearGradient id="linear-gradient-6" x1="67.5545" y1="252.7123" x2="79.2996" y2="252.7123" xlink:href="#linear-gradient-3"/><radialGradient id="radial-gradient-6" cx="67.2599" cy="296.4295" r="1.8666" gradientTransform="translate(-176.5859 -155.0424) rotate(-20.842) scale(1 1.7161)" gradientUnits="userSpaceOnUse"><stop offset="0" stop-color="#ffb805"/><stop offset="0.2232" stop-color="#fbb505"/><stop offset="0.4288" stop-color="#f0ac04"/><stop offset="0.6274" stop-color="#de9d03"/><stop offset="0.8206" stop-color="#c38802"/><stop offset="1" stop-color="#a46e00"/></radialGradient><radialGradient id="radial-gradient-7" cx="89.3264" cy="302.9628" r="1.8666" gradientTransform="translate(-179.1309 -151.1359) rotate(-20.842) scale(1 1.7161)" xlink:href="#radial-gradient-6"/><radialGradient id="radial-gradient-8" cx="92.8598" cy="309.4961" r="1.8666" gradientTransform="translate(-182.8887 -153.8234) rotate(-20.842) scale(1 1.7161)" xlink:href="#radial-gradient-6"/><radialGradient id="radial-gradient-9" cx="96.7931" cy="316.0295" r="1.8666" gradientTransform="translate(-186.6203 -156.3685) rotate(-20.842) scale(1 1.7161)" xlink:href="#radial-gradient-6"/><radialGradient id="radial-gradient-10" cx="76.7783" cy="297.2012" r="1.8666" gradientTransform="translate(-176.4342 -152.1218) rotate(-20.842) scale(1 1.7161)" xlink:href="#radial-gradient-6"/><radialGradient id="radial-gradient-11" cx="81.1382" cy="307.9961" r="1.8666" gradientTransform="translate(-182.7398 -157.0882) rotate(-20.842) scale(1 1.7161)" xlink:href="#radial-gradient-6"/><radialGradient id="radial-gradient-12" cx="128.4681" cy="323.7214" r="1.5041" gradientTransform="translate(-189.244 -149.7429) rotate(-20.842) scale(1 1.7161)" xlink:href="#radial-gradient-6"/><radialGradient id="radial-gradient-13" cx="128.4681" cy="332.9702" r="1.5041" gradientTransform="translate(-194.8909 -155.327) rotate(-20.842) scale(1 1.7161)" xlink:href="#radial-gradient-6"/><radialGradient id="radial-gradient-14" cx="131.6181" cy="330.0964" r="1.5041" gradientTransform="translate(-192.9301 -152.4711) rotate(-20.842) scale(1 1.7161)" xlink:href="#radial-gradient-6"/><radialGradient id="radial-gradient-15" cx="134.8181" cy="336.4714" r="1.5041" gradientTransform="translate(-196.613 -155.1816) rotate(-20.842) scale(1 1.7161)" xlink:href="#radial-gradient-6"/><radialGradient id="radial-gradient-16" cx="134.8181" cy="327.1793" r="1.5041" gradientTransform="translate(-190.9397 -149.5714) rotate(-20.842) scale(1 1.7161)" xlink:href="#radial-gradient-6"/><radialGradient id="radial-gradient-17" cx="141.8181" cy="330.5351" r="1.5041" gradientTransform="translate(-192.5306 -149.107) rotate(-20.842) scale(1 1.7161)" xlink:href="#radial-gradient-6"/><radialGradient id="radial-gradient-18" cx="141.8181" cy="335.8351" r="1.5041" gradientTransform="translate(-195.7665 -152.3069) rotate(-20.842) scale(1 1.7161)" xlink:href="#radial-gradient-6"/><radialGradient id="radial-gradient-19" cx="141.8181" cy="341.1351" r="1.5041" gradientTransform="translate(-199.0025 -155.5068) rotate(-20.842) scale(1 1.7161)" xlink:href="#radial-gradient-6"/><radialGradient id="radial-gradient-20" cx="146.8181" cy="343.4565" r="1.5041" gradientTransform="translate(-200.0926 -155.1294) rotate(-20.842) scale(1 1.7161)" xlink:href="#radial-gradient-6"/><radialGradient id="radial-gradient-21" cx="146.8181" cy="338.1565" r="1.5041" gradientTransform="translate(-196.8567 -151.9295) rotate(-20.842) scale(1 1.7161)" xlink:href="#radial-gradient-6"/><radialGradient id="radial-gradient-22" cx="146.8181" cy="332.8565" r="1.5041" gradientTransform="translate(-193.6207 -148.7295) rotate(-20.842) scale(1 1.7161)" xlink:href="#radial-gradient-6"/><radialGradient id="radial-gradient-23" cx="113.6181" cy="316.3181" r="1.8666" gradientTransform="translate(-185.6956 -150.5566) rotate(-20.842) scale(1 1.7161)" xlink:href="#radial-gradient-6"/><radialGradient id="radial-gradient-24" cx="120.0181" cy="319.5714" r="1.8666" gradientTransform="translate(-187.2631 -150.2437) rotate(-20.842) scale(1 1.7161)" xlink:href="#radial-gradient-6"/><radialGradient id="radial-gradient-25" cx="120.0181" cy="328.2138" r="1.8666" gradientTransform="translate(-192.5397 -155.4617) rotate(-20.842) scale(1 1.7161)" xlink:href="#radial-gradient-6"/><radialGradient id="radial-gradient-26" cx="113.6181" cy="325.333" r="1.8666" gradientTransform="translate(-191.1996 -155.9994) rotate(-20.842) scale(1 1.7161)" xlink:href="#radial-gradient-6"/></defs><g class="cls-1"><g id="Layer_1" data-name="Layer 1"><g id="Item"><g id="Shield"><path class="cls-2" d="M52.6506,254.1806l8.2662-3.0994a8.1233,8.1233,0,0,0,5.0553-.3844c4.3971-1.9426,6.8163-8.6228,5.2866-16.47l-6.0733-4.3737,8.4973-3.99a111.0066,111.0066,0,0,1,41.312,2.1543,224.1991,224.1991,0,0,1,23.8241,22.6835,224.2291,224.2291,0,0,1,19.5155,24.8379,31.9283,31.9283,0,0,0-.1267,22.6836,31.4906,31.4906,0,0,0,12.031,14.8341q-1.2673,23.9692-2.5346,47.9383A48.2478,48.2478,0,0,1,162.9,378.3a49.235,49.235,0,0,1-7.5,11,52.0762,52.0762,0,0,1-16.51,12.7784,46.3964,46.3964,0,0,1-4.9214,1.9784Z"/><path class="cls-3" d="M106.506,403.3754c-25.4535-22.7526-50.6525-62.151-52.1177-101.9685l-1.7377-47.2263c5.8519,2.9,10.676,1.6407,13.3215-3.4837,2.6475-5.1287,2.3633-12.677-.7867-20.8436,13.3845-2.0341,28.1673-1.6965,41.0934,2.4041,12.967,10.9059,27.8843,27.8237,41.4667,45.5827-3.1785,4.5333-3.4475,11.8118-.7427,20.1086s7.6218,15.2805,13.5875,19.2886l-1.6482,45.6992c-1.3884,38.5077-26.881,48.0063-52.4361,40.4389Z"/><path class="cls-3" d="M106.506,403.3754l-.2272-171.118c-12.9261-4.1006-27.7089-4.4382-41.0934-2.4041,3.15,8.1666,3.4342,15.7149.7867,20.8436-2.6455,5.1246-7.47,6.3838-13.3215,3.4837l1.7377,47.2263c1.4652,39.8175,26.6642,79.2159,52.1177,101.9685Z"/><path class="cls-4" d="M106.2926,242.7105c-10.6573-3.0864-21.5781-3.3217-31.1-2.45,1.1754,7.4678.49,14.1988-2.09,19.1913-2.6846,5.1907-6.9686,7.715-12.1858,7.4022l1.42,38.78c1.1909,32.48,21.2661,66.0563,44.1549,87.2912,22.9659,5.977,43.2319-3.833,44.3561-35.2065l1.3427-37.4769a61.0612,61.0612,0,0,1-12.4048-21.8759c-2.63-8.07-3.3416-15.6556-2.1709-21.7966-9.6326-12.0389-20.6354-24.5548-31.3226-33.8588Z"/><path class="cls-5" d="M106.4921,392.9252l-.1994-150.2147c-10.6574-3.0865-21.5782-3.3217-31.1-2.45,1.1754,7.4678.49,14.199-2.09,19.1913-2.6846,5.1907-6.9686,7.715-12.1858,7.4022l1.42,38.78C63.5281,338.1144,83.6033,371.69,106.4921,392.9252Z"/><path class="cls-6" d="M65.0393,308.9379q-.54-21.1215-1.08-42.2429a11.821,11.821,0,0,1-3.0429.1591q.71,19.39,1.42,38.78c.0372.9933.1044,2.34.2348,3.93a95.1366,95.1366,0,0,0,1.3926,9.9883,114.1179,114.1179,0,0,0,4.0834,15.1728,132.9025,132.9025,0,0,0,6.9772,16.3576c.8209,1.6269,3.293,6.4468,7.0847,12.4211a155.0769,155.0769,0,0,0,9.2978,13.0688c3.5074,4.4314,6.39,7.58,7.2951,8.5592,2.8533,3.0885,5.5113,5.6871,7.7893,7.7939a47.4791,47.4791,0,0,0,6.8793,1.3243,39.42,39.42,0,0,0,8.9833.1687,32.09,32.09,0,0,0,6.8687-1.3627,31.0671,31.0671,0,0,0,5.3013-2.2484,52.3235,52.3235,0,0,1-15.2214,2.1181l-11.5952-1.9725A140.2275,140.2275,0,0,1,90.41,371.1838,145.98,145.98,0,0,1,65.0393,308.9379Z"/><path class="cls-7" d="M59.9251,255.5784c7.0569.2186,12.35-6.8852,10.4474-20.7638.74-5.6945,12.8048-5.7454,18.457-5.8705a103.5178,103.5178,0,0,0-23.6441.9092c3.15,8.1666,3.4342,15.7149.7867,20.8436a8.5027,8.5027,0,0,1-6.047,4.8815Z"/><path class="cls-8" d="M54.3735,259.33c-.046-2.9388,1.497-3.6139,3.1761-3.6594a13.9441,13.9441,0,0,1-4.899-1.49l1.7377,47.2263c.9384,25.4957,11.5914,50.79,25.8043,71.6592-5.7048-9.4555-11.2414-18.7547-15.1839-29.5162-8.6379-23.5767-9.83-33.1332-10.6352-84.22Z"/><path class="cls-9" d="M61.1572,273.4258c.7522-.8475,1.8169,1.5108,1.9538,3.1678.4993,6.0317.5771,11.8606.8164,17.7633.71,17.4878.3107,23.8919,5.9595,43.1862.7468,2.55,1.5034,4.9715,2.1291,7.2245a150.3693,150.3693,0,0,0,22.0992,35.1147C78.1077,359.6945,65.956,333.997,65.0393,308.938q-.54-21.1216-1.0795-42.243a12.3024,12.3024,0,0,1-3.043.1591Q61.0369,270.14,61.1572,273.4258Z"/><path class="cls-2" d="M107.7081,390.9527a136.0758,136.0758,0,0,1-11.2151-11.88,139.6588,139.6588,0,0,1-13.2978-18.9685A146.8312,146.8312,0,0,1,68.44,324.7466a105.1975,105.1975,0,0,1-3.4106-16.1951c-.9857-8.0716-.5248-12.8816-.6753-26.4262-.0743-6.69-.26-12.0941-.3944-15.43-.333.0514-.686.0945-1.0574.1253a15.1236,15.1236,0,0,1-1.9855.0338c.3239,7.0074.5009,12.6713.6,16.3675.3957,14.6938.1218,18.8955,1.158,27.4877A116.51,116.51,0,0,0,65.1,324.7026a120.4691,120.4691,0,0,0,6.6813,19.6793A131.6181,131.6181,0,0,0,81.793,362.9784a153.242,153.242,0,0,0,12.3222,16.9039,150.4064,150.4064,0,0,0,12.3769,13.0429,50.3375,50.3375,0,0,0,9.7072,1.5777,39.2521,39.2521,0,0,0,5.8919-.0336,33.9134,33.9134,0,0,0,5.8088-1.0318,31.7285,31.7285,0,0,0,4.5165-1.5952c.8575-.3808,1.5708-.745,2.1082-1.0352a52.357,52.357,0,0,1-6.2,1.4179,54.127,54.127,0,0,1-9.0217.7,35.703,35.703,0,0,1-3.9284-.1667A31.3241,31.3241,0,0,1,107.7081,390.9527Z"/><path class="cls-10" d="M109.9088,256.9928a4.5137,4.5137,0,0,0-1.3591,3.1609c-.9242,19.3255-1.7939,85.3983-.1037,113.6531.4293,7.1868,1.5368,11.3877,3.6529,13.7428,1.6878,1.8784,5.8413,2.5914,10.9989,1.0156,7.8856-2.41,16.944-9.389,21.6889-23.4361,1.725-5.1022,4.4455-36.5035,2.2578-40.84-3.4171-6.773-19.3738-17.4571-21.7147-53.633C125.2061,268.7439,113.1677,254.0424,109.9088,256.9928Z"/><path class="cls-11" d="M102.7123,252.8092a13.0447,13.0447,0,0,1,1.3679,4.7446c.9766,20.4264,2.0232,87.6135.4063,113.908-.4107,6.6861-1.5078,9.5776-3.6176,9.4246-1.6814-.1219-5.8251-4.3289-10.968-12.0013a155.5307,155.5307,0,0,1-20.89-48.4234c-1.7157-7.0855-2.8438-41.9725-.6964-43.7469,3.3573-2.775,16.8223,5.2354,19.0532-28.1435.1181-1.7656,12.0788-2.4991,15.3442,4.2379Z"/><path class="cls-2" d="M61.5475,284.067l2.8126-1.369L99.3443,300.06l16.9123-47.8969,3.11,2.9733v55.8219l32.5291,17.52.0071,2.8167-32.6.51v61.1209l-3.104,1.5776-8.1456-8.2706L106.506,321.92Z"/><path class="cls-3" d="M99.1679,241.0573q0,31.2279.0005,62.4559L61.5475,284.067q.0669,5.9878.2384,12.1282.1043,3.7039.2446,7.35l37.138,19.3569-.01,62.7208q1.7973,1.8963,3.7465,3.8361,1.8108,1.7994,3.5867,3.4664c1.154.3185,2.4.6146,3.7333.8665a46.47,46.47,0,0,0,5.9627.7313l.0006-62.7345,35.0837,18.3824.63-18.8761L116.1887,312.59V252.0951q-2.8814-2.9493-6.12-5.9719-1.9027-1.77-3.7756-3.4127-1.42-.41-2.9626-.7845C101.8858,241.5777,100.4952,241.2919,99.1679,241.0573Z"/><path class="cls-12" d="M109.18,236.9041a.5443.5443,0,0,1,.2146-.2708,2.482,2.482,0,0,1,1.9487.0932q-2.5734-2.3709-5.0646-4.4692l.005,3.8019.0089,6.6513q.1,75.1072.1994,150.2147.0069,5.2251.0139,10.45a55.0889,55.0889,0,0,0,15.9665,2.3977c-.9-.32-7.2246-2.5887-9.6387-4.5538a2.3079,2.3079,0,0,1-.4064-3.7734c1.0226-1.1326,2.4235-1.21,4.1552-1.5024a30.9886,30.9886,0,0,0,5.5086-1.4742c-1.099.09-2.2885.14-3.5572.1275-.8145-.0083-1.5937-.0418-2.3347-.094-1.28-.0938-2.3363-.2246-3.0876-.3313-3.755-.5334-4.4877-1.116-4.8651-1.6348a3.0323,3.0323,0,0,1-.5385-1.584l.2156-136.5954a8.4013,8.4013,0,0,1,.3615-3.0424c.272-.8683.7922-2.5287,1.8465-3.0216,1.4536-.68,4.09.7817,6.1249,3.87,6.7267,7.2561,11.5553,12.601,12.2536,13.4128.6837.7951,1.3687,1.6011,1.3688,1.6011q.28.33.56.66c-4.95-6.38-13.765-16.2413-19.1347-22.69a9.4188,9.4188,0,0,1-1.9344-3.279C109.0633,240.8575,108.7542,237.8687,109.18,236.9041Z"/><path class="cls-13" d="M100.3964,232.5866c2.6735,2.6142,4.6836,8.0321,1.8827,8.6058a7.6921,7.6921,0,0,1-1.754.1191,5.2479,5.2479,0,0,1,3.405,2.1346,4.9761,4.9761,0,0,1,.8317,2.4711q.3326,69.7932.6652,139.5864a2.953,2.953,0,0,1-.0316.8871,2.7137,2.7137,0,0,1-1.489,2.0592,2.4707,2.4707,0,0,1-2.5028-.4752c-2.174-2.17-4.434-4.5942-6.7164-7.2866-1.98-2.3362-3.7617-4.62-5.3608-6.8107,1.0873,1.8813,2.294,3.8331,3.6334,5.8325,2.0381,3.0425,4.1,5.7719,6.0994,8.2014a8.3369,8.3369,0,0,1,1.9813,4.516c.089.9432.2379,2.5208-.6507,3.04-.7486.4374-2.0527.0179-3.1216-1.1069q2.1156,2.2242,4.4522,4.5126,2.4257,2.37,4.7856,4.5025-.0069-5.2251-.0139-10.45l-.2133-160.6679a76.6189,76.6189,0,0,0-14.2356-2.9964C94.9111,229.7589,98.1807,230.4206,100.3964,232.5866Z"/><path class="cls-14" d="M72.0515,261.2286a20.3023,20.3023,0,0,1-4.497,4.2171,18.4238,18.4238,0,0,0,4.8925-3.1139c8.4-7.473,6.8349-20.3453,6.5609-22.3528l-3.8149.2816c.0863.5426.1873,1.2419.2792,2.0594.1858,1.6524.2355,2.9093.2473,3.2331a37.6623,37.6623,0,0,1-.0939,4.5079c-.025.2912-.0644.744-.1423,1.3472a27.0909,27.0909,0,0,1-1.04,4.7737,20.232,20.232,0,0,1-1.0251,2.6313A19.5794,19.5794,0,0,1,72.0515,261.2286Z"/><path class="cls-15" d="M69.4333,297.5583c0,1.4657-.9755,2.1451-2.1767,1.519a4.6141,4.6141,0,0,1-2.17-3.7753c-.0007-1.4613.9695-2.1445,2.169-1.5245A4.61,4.61,0,0,1,69.4333,297.5583Z"/><path class="cls-16" d="M91.5,304.0917c0,1.4657-.9755,2.1451-2.1767,1.519a4.6142,4.6142,0,0,1-2.17-3.7753c-.0006-1.4614.9695-2.1446,2.1691-1.5245A4.61,4.61,0,0,1,91.5,304.0917Z"/><path class="cls-17" d="M95.0332,310.625c0,1.4657-.9755,2.1451-2.1767,1.519a4.6141,4.6141,0,0,1-2.17-3.7753c-.0007-1.4613.9695-2.1445,2.169-1.5245A4.61,4.61,0,0,1,95.0332,310.625Z"/><path class="cls-18" d="M98.9666,317.1583c0,1.4657-.9755,2.1451-2.1767,1.519a4.614,4.614,0,0,1-2.17-3.7753c-.0007-1.4613.9695-2.1445,2.169-1.5245A4.61,4.61,0,0,1,98.9666,317.1583Z"/><path class="cls-19" d="M78.9518,298.33c0,1.4657-.9755,2.1451-2.1767,1.519a4.6142,4.6142,0,0,1-2.17-3.7753c-.0007-1.4614.9695-2.1446,2.169-1.5245A4.6093,4.6093,0,0,1,78.9518,298.33Z"/><path class="cls-20" d="M83.3116,309.125c0,1.4657-.9755,2.1451-2.1767,1.519a4.6141,4.6141,0,0,1-2.17-3.7753c-.0007-1.4613.97-2.1445,2.169-1.5245A4.61,4.61,0,0,1,83.3116,309.125Z"/><path class="cls-21" d="M130.2194,324.631c0,1.1811-.786,1.7285-1.754,1.224a3.7179,3.7179,0,0,1-1.7487-3.0421c-.0006-1.1776.7812-1.7281,1.7478-1.2285A3.7145,3.7145,0,0,1,130.2194,324.631Z"/><path class="cls-22" d="M130.2194,333.88c0,1.181-.786,1.7285-1.754,1.224a3.718,3.718,0,0,1-1.7487-3.0422c-.0006-1.1775.7812-1.728,1.7478-1.2284A3.7145,3.7145,0,0,1,130.2194,333.88Z"/><path class="cls-23" d="M133.3694,331.006c0,1.1811-.786,1.7285-1.754,1.224a3.7179,3.7179,0,0,1-1.7487-3.0421c-.0006-1.1776.7812-1.7281,1.7478-1.2285A3.7145,3.7145,0,0,1,133.3694,331.006Z"/><path class="cls-24" d="M136.5694,337.381c0,1.1811-.786,1.7285-1.754,1.224a3.7179,3.7179,0,0,1-1.7487-3.0421c-.0006-1.1776.7812-1.7281,1.7478-1.2285A3.7145,3.7145,0,0,1,136.5694,337.381Z"/><path class="cls-25" d="M136.5694,328.089c0,1.1811-.786,1.7285-1.754,1.224a3.7179,3.7179,0,0,1-1.7487-3.0421c-.0006-1.1776.7812-1.7281,1.7478-1.2285A3.7145,3.7145,0,0,1,136.5694,328.089Z"/><path class="cls-26" d="M143.5694,331.4448c0,1.181-.786,1.7285-1.754,1.224a3.718,3.718,0,0,1-1.7487-3.0422c-.0006-1.1775.7812-1.728,1.7478-1.2284A3.7144,3.7144,0,0,1,143.5694,331.4448Z"/><path class="cls-27" d="M143.5694,336.7448c0,1.181-.786,1.7285-1.754,1.224a3.718,3.718,0,0,1-1.7487-3.0422c-.0006-1.1775.7812-1.728,1.7478-1.2284A3.7144,3.7144,0,0,1,143.5694,336.7448Z"/><path class="cls-28" d="M143.5694,342.0448c0,1.181-.786,1.7285-1.754,1.224a3.718,3.718,0,0,1-1.7487-3.0422c-.0006-1.1775.7812-1.728,1.7478-1.2284A3.7144,3.7144,0,0,1,143.5694,342.0448Z"/><path class="cls-29" d="M148.5694,344.3661c0,1.1811-.786,1.7285-1.754,1.224a3.7179,3.7179,0,0,1-1.7487-3.0421c-.0006-1.1776.7812-1.7281,1.7478-1.2285A3.7145,3.7145,0,0,1,148.5694,344.3661Z"/><path class="cls-30" d="M148.5694,339.0661c0,1.1811-.786,1.7285-1.754,1.224a3.7179,3.7179,0,0,1-1.7487-3.0421c-.0006-1.1776.7812-1.7281,1.7478-1.2285A3.7145,3.7145,0,0,1,148.5694,339.0661Z"/><path class="cls-31" d="M148.5694,333.7661c0,1.1811-.786,1.7285-1.754,1.224a3.7179,3.7179,0,0,1-1.7487-3.0421c-.0006-1.1776.7812-1.7281,1.7478-1.2285A3.7145,3.7145,0,0,1,148.5694,333.7661Z"/><path class="cls-32" d="M115.7915,317.447c0,1.4657-.9755,2.1451-2.1767,1.519a4.6141,4.6141,0,0,1-2.17-3.7753c-.0007-1.4613.97-2.1445,2.169-1.5245A4.61,4.61,0,0,1,115.7915,317.447Z"/><path class="cls-33" d="M122.1915,320.7c0,1.4657-.9755,2.1451-2.1767,1.519a4.6141,4.6141,0,0,1-2.17-3.7753c-.0007-1.4613.9695-2.1445,2.169-1.5245A4.61,4.61,0,0,1,122.1915,320.7Z"/><path class="cls-34" d="M122.1915,329.3426c0,1.4657-.9755,2.1451-2.1767,1.519a4.6141,4.6141,0,0,1-2.17-3.7753c-.0007-1.4613.9695-2.1445,2.169-1.5245A4.61,4.61,0,0,1,122.1915,329.3426Z"/><path class="cls-35" d="M115.7915,326.4618c0,1.4657-.9755,2.1451-2.1767,1.519a4.6141,4.6141,0,0,1-2.17-3.7753c-.0007-1.4613.97-2.1445,2.169-1.5245A4.61,4.61,0,0,1,115.7915,326.4618Z"/></g></g></g></g></svg>