<svg id="Layer_1" data-name="Layer 1" xmlns="http://www.w3.org/2000/svg" width="1000" height="1000" viewBox="0 0 1000 1000">
  <defs>
    <style>
      .cls-1 {
        fill: #fbae17;
      }
    </style>
  </defs>
  <g id="All">
    <path class="cls-1" d="M368.39,448.7966H152.9932a73.6158,73.6158,0,0,1-73.4-73.4V160a73.6158,73.6158,0,0,1,73.4-73.4H368.39a73.6158,73.6158,0,0,1,73.4,73.4V375.3966A73.6158,73.6158,0,0,1,368.39,448.7966Zm20.58-84.82V171.42a32.0941,32.0941,0,0,0-32-32H164.4136a32.0941,32.0941,0,0,0-32,32v192.556a32.0941,32.0941,0,0,0,32,32H356.97A32.0941,32.0941,0,0,0,388.97,363.9763Z"/>
    <path class="cls-1" d="M368.39,913.4H152.9932a73.6158,73.6158,0,0,1-73.4-73.4V624.6034a73.6158,73.6158,0,0,1,73.4-73.4H368.39a73.6158,73.6158,0,0,1,73.4,73.4V840A73.6158,73.6158,0,0,1,368.39,913.4Zm20.58-84.82V636.0237a32.0941,32.0941,0,0,0-32-32H164.4136a32.0941,32.0941,0,0,0-32,32V828.58a32.0941,32.0941,0,0,0,32,32H356.97A32.0941,32.0941,0,0,0,388.97,828.58Z"/>
    <path class="cls-1" d="M847.0068,448.7966H631.61a73.6158,73.6158,0,0,1-73.4-73.4V160a73.6158,73.6158,0,0,1,73.4-73.4H847.0068a73.6158,73.6158,0,0,1,73.4,73.4V375.3966A73.6158,73.6158,0,0,1,847.0068,448.7966Zm20.58-84.82V171.42a32.0941,32.0941,0,0,0-32-32H643.0305a32.0941,32.0941,0,0,0-32,32v192.556a32.0941,32.0941,0,0,0,32,32H835.5864A32.0941,32.0941,0,0,0,867.5864,363.9763Z"/>
    <path class="cls-1" d="M847.0068,913.4H631.61a73.6158,73.6158,0,0,1-73.4-73.4V624.6034a73.6158,73.6158,0,0,1,73.4-73.4H847.0068a73.6158,73.6158,0,0,1,73.4,73.4V840A73.6158,73.6158,0,0,1,847.0068,913.4Zm20.58-84.82V636.0237a32.0941,32.0941,0,0,0-32-32H643.0305a32.0941,32.0941,0,0,0-32,32V828.58a32.0941,32.0941,0,0,0,32,32H835.5864A32.0941,32.0941,0,0,0,867.5864,828.58Z"/>
  </g>
</svg>
