<svg id="Layer_1" data-name="Layer 1" xmlns="http://www.w3.org/2000/svg" width="1000" height="1000" viewBox="0 0 1000 1000"><defs><style>.cls-1{fill:#6b7280;}</style></defs><path class="cls-1" d="M788,872.2H212A84.2,84.2,0,0,1,127.8,788V212A84.2,84.2,0,0,1,212,127.8H788A84.2,84.2,0,0,1,872.2,212V788A84.2,84.2,0,0,1,788,872.2Zm46.8-93.5333V221.3333A56.1333,56.1333,0,0,0,778.6667,165.2H221.3333A56.1333,56.1333,0,0,0,165.2,221.3333V778.6667A56.1333,56.1333,0,0,0,221.3333,834.8H778.6667A56.1333,56.1333,0,0,0,834.8,778.6667Z"/><rect class="cls-1" x="363.0667" y="165.2" width="38" height="669.6"/><rect class="cls-1" x="598.9333" y="165.2" width="38" height="669.6"/><rect class="cls-1" x="481" y="283.1333" width="38" height="669.6" transform="translate(-117.9333 1117.9333) rotate(-90)"/><rect class="cls-1" x="481" y="47.2667" width="38" height="669.6" transform="translate(117.9333 882.0667) rotate(-90)"/><rect class="cls-1" x="433.2667" y="433.2667" width="133.4667" height="133.4667"/><rect class="cls-1" x="433.2667" y="197.4" width="133.4667" height="133.4667"/><path class="cls-1" d="M232.4,197.4h98.4667a0,0,0,0,1,0,0V330.8667a0,0,0,0,1,0,0H197.4a0,0,0,0,1,0,0V232.4A35,35,0,0,1,232.4,197.4Z"/><path class="cls-1" d="M669.1333,197.4H767.6a35,35,0,0,1,35,35v98.4667a0,0,0,0,1,0,0H669.1333a0,0,0,0,1,0,0V197.4A0,0,0,0,1,669.1333,197.4Z"/><rect class="cls-1" x="197.4" y="433.2667" width="133.4667" height="133.4667"/></svg>