<svg id="Layer_1" data-name="Layer 1" xmlns="http://www.w3.org/2000/svg" width="1000" height="1000" viewBox="0 0 1000 1000">
  <defs>
    <style>
      .cls-1 {
        fill: #fbae17;
      }
    </style>
  </defs>
  <g id="All">
    <path class="cls-1" d="M351.2309,685.9758,285.0552,717.33a51.3858,51.3858,0,0,1-68.2386-24.3638L71.6292,386.5328A51.3859,51.3859,0,0,1,95.993,318.2941L402.4262,173.1068a51.3859,51.3859,0,0,1,68.2386,24.3637l39.6319,83.6475L356.5935,617.7394c-4.0981,6.7875-12.6125,23.0829-11.1261,44.5043A73.26,73.26,0,0,0,351.2309,685.9758Zm47.3546-443.5324a55.75,55.75,0,1,0,55.75,55.75A55.75,55.75,0,0,0,398.5855,242.4434ZM199.0338,335.7589a55.75,55.75,0,1,0,55.75,55.75A55.75,55.75,0,0,0,199.0338,335.7589Zm92.5978,200.27a55.75,55.75,0,1,0,55.75,55.75A55.75,55.75,0,0,0,291.6316,536.0284Z"/>
    <path class="cls-1" d="M748.9241,844.7054,398.5414,686.468a28.6345,28.6345,0,0,1-14.2692-37.7714L542.51,298.3138a28.6347,28.6347,0,0,1,37.7715-14.2692L930.6637,442.282a28.6347,28.6347,0,0,1,14.2693,37.7714L786.6956,830.4362A28.6347,28.6347,0,0,1,748.9241,844.7054ZM663.9366,508.0338a55.75,55.75,0,1,0,55.75,55.75A55.75,55.75,0,0,0,663.9366,508.0338ZM718.61,654.4674a55.75,55.75,0,1,0,55.75,55.75A55.75,55.75,0,0,0,718.61,654.4674ZM608.1866,361.6a55.75,55.75,0,1,0,55.75,55.75A55.75,55.75,0,0,0,608.1866,361.6Z"/>
  </g>
</svg>
