<svg id="Layer_1" data-name="Layer 1" xmlns="http://www.w3.org/2000/svg" width="1000" height="1000" viewBox="0 0 1000 1000">
  <defs>
    <style>
      .cls-1 {
        fill: #9b9b9b;
      }

      .cls-2 {
        fill: #141414;
      }

      .cls-3 {
        fill: #cccecf;
      }

      .cls-4 {
        fill: #fbae17;
      }
    </style>
  </defs>
  <g>
    <path class="cls-1" d="M754.2042,290.5592H807.463a104.23,104.23,0,0,1,104.23,104.23V719.57A104.23,104.23,0,0,1,807.463,823.8H192.537a104.23,104.23,0,0,1-104.23-104.23V394.79a104.23,104.23,0,0,1,104.23-104.23h91.8142v0c19.3389-24.772,34.1058-44.3408,43.4565-56.8527,23.8388-31.8984,39.17-53.6521,64.613-57.0572a51.1871,51.1871,0,0,1,6.29-.4492H602.5966c1.0674.0215,2.7114.09,4.6968.3267,26.1381,3.1129,41.6821,26.9869,62.9385,55.5459,10.4225,14.003,25.9782,34.1841,46.7239,58.4865v0Z"/>
    <circle class="cls-2" cx="499.9592" cy="557.4655" r="196.657"/>
    <circle class="cls-3" cx="499.9592" cy="557.4655" r="148.9937"/>
    <circle class="cls-4" cx="194.4975" cy="397.0767" r="30.3869"/>
    <rect class="cls-3" x="423.8694" y="234.3598" width="157.8157" height="43.1298" rx="8.8"/>
  </g>
</svg>
