<svg id="Layer_1" data-name="Layer 1" xmlns="http://www.w3.org/2000/svg" width="1000" height="1000" viewBox="0 0 1000 1000">
  <defs>
    <style>
      .cls-1 {
        fill: #9b9b9b;
      }

      .cls-2 {
        fill: #fff;
        opacity: 0.75;
      }

      .cls-3 {
        fill: #4b86ff;
      }

      .cls-4 {
        fill: #68a432;
      }

      .cls-5 {
        fill: #fbae17;
      }
    </style>
  </defs>
  <g>
    <circle class="cls-1" cx="554.9382" cy="365.3884" r="226.8767"/>
    <circle class="cls-2" cx="554.9382" cy="365.3884" r="192"/>
    <circle class="cls-3" cx="554.9382" cy="365.3884" r="88.0916"/>
    <circle class="cls-1" cx="660.1097" cy="634.6116" r="226.8767"/>
    <circle class="cls-2" cx="660.1097" cy="634.6116" r="192"/>
    <circle class="cls-1" cx="339.8903" cy="508.2527" r="226.8767"/>
    <circle class="cls-2" cx="339.8903" cy="508.2527" r="192"/>
    <path class="cls-4" d="M690.9753,526.14l-93.4917,90.6514q15.88,63.1459,31.7606,126.2919l93.4917-90.6514Q706.8556,589.286,690.9753,526.14Z"/>
    <path class="cls-5" d="M330.8153,416.8266,359.4173,458.9a10.0918,10.0918,0,0,0,11.1626,4.0169l48.8527-14.2008a10.0916,10.0916,0,0,1,10.7917,15.8745l-31.1757,40.2035a10.0918,10.0918,0,0,0-.3709,11.8576L427.28,558.7251a10.0915,10.0915,0,0,1-11.7627,15.1689l-47.87-17.2262a10.0917,10.0917,0,0,0-11.3918,3.3115L325.08,600.1828a10.0915,10.0915,0,0,1-18.0614-6.5l1.5905-50.85a10.0915,10.0915,0,0,0-6.67-9.8109l-47.87-17.2262a10.0916,10.0916,0,0,1,.6-19.1859L303.5226,482.41a10.0917,10.0917,0,0,0,7.27-9.375l1.5906-50.85A10.0915,10.0915,0,0,1,330.8153,416.8266Z"/>
  </g>
</svg>
