<svg id="Layer_1" data-name="Layer 1" xmlns="http://www.w3.org/2000/svg" width="1000" height="1000" viewBox="0 0 1000 1000">
  <defs>
    <style>
      .cls-1 {
        fill: #fbae17;
      }

      .cls-2 {
        fill: #4b86ff;
      }

      .cls-3 {
        fill: #68a432;
      }
    </style>
  </defs>
  <g>
    <g>
      <circle class="cls-1" cx="500.0764" cy="329.5886" r="141.3813"/>
      <path class="cls-1" d="M729.0236,767.5343c-11.0431,14.2243-23.8424,21.3686-31.025,25.2839A124.3718,124.3718,0,0,1,650.91,807.0259c-56.0037,6.1174-125.8776,4.7224-159.0105,4.4073-8.7556-.0833-69.5432-.6105-120.7946-4.4653a230.04,230.04,0,0,1-58.3773-13.7631,98.7233,98.7233,0,0,1-22.539-11.83,94.2712,94.2712,0,0,1-20.6254-19.9294c-12.5913-16.7638-15.8658-33.6831-18.0351-45.6-.5524-3.0352-2.5483-14.5706-1.817-37.1527a321.886,321.886,0,0,1,7.6161-60.5423A286.6736,286.6736,0,0,1,302.56,515.0428a282.7232,282.7232,0,0,1,64.2924-65.2975c7.0746,7.9713,55.4867,60.6824,134.79,60.02,77.5551-.6474,124.5531-51.8394,131.8128-60.02a289.7626,289.7626,0,0,1,66.3413,68.6609c40.3339,58.7723,46.7577,115.3465,49.872,142.7731,1.9259,16.9615,2.9919,38.7039-2.728,63.9727C740.9063,751.8082,731.3663,764.5167,729.0236,767.5343Z"/>
    </g>
    <g>
      <circle class="cls-2" cx="231.1736" cy="348.8995" r="109.5444"/>
      <path class="cls-2" d="M128.4721,440.8147c7.6686,8.6688,33.1652,35.2868,76.2931,43.6866,45.19,8.8013,80.1921-8.1531,90.14-13.4154-21.4895,26.0105-57.1446,76.6924-71.56,149.3839a331.9189,331.9189,0,0,0-4.5233,98.4683c-8.5416.1754-20.9435.2978-35.9156-.0387-26.8032-.6025-45.2483-1.1024-68.197-5.7991-17.7224-3.627-29.1646-6.0923-41.9853-14.7683-5.0355-3.4076-16.2747-11.2-24.0854-25.6318-4.8273-8.9192-6.5922-17.1356-7.9262-23.3461a120.5876,120.5876,0,0,1-2.4735-24.5929,185.75,185.75,0,0,1,1.8557-29.8073c1.7471-12.7054,4.8938-34.4893,15.9474-61.0061A225.1914,225.1914,0,0,1,90.0226,477.396,221.9272,221.9272,0,0,1,128.4721,440.8147Z"/>
    </g>
    <g>
      <circle class="cls-3" cx="769.3272" cy="348.8995" r="109.5444"/>
      <path class="cls-3" d="M871.5279,440.8147c-7.6686,8.6688-33.1652,35.2868-76.2931,43.6866-45.19,8.8013-80.1921-8.1531-90.14-13.4154,21.49,26.0105,57.1446,76.6924,71.56,149.3839a331.9189,331.9189,0,0,1,4.5233,98.4683c8.5416.1754,20.9435.2978,35.9156-.0387,26.8032-.6025,45.2483-1.1024,68.197-5.7991,17.7224-3.627,29.1646-6.0923,41.9853-14.7683,5.0355-3.4076,16.2747-11.2,24.0854-25.6318,4.8273-8.9192,6.5922-17.1356,7.9262-23.3461a120.5876,120.5876,0,0,0,2.4735-24.5929,185.75,185.75,0,0,0-1.8557-29.8073c-1.7471-12.7054-4.8938-34.4893-15.9474-61.0061a225.1914,225.1914,0,0,0-33.9809-56.5518A221.9272,221.9272,0,0,0,871.5279,440.8147Z"/>
    </g>
  </g>
</svg>
