<svg id="Layer_1" data-name="Layer 1" xmlns="http://www.w3.org/2000/svg" width="1000" height="1000" viewBox="0 0 1000 1000">
  <defs>
    <style>
      .cls-1 {
        fill: #fbae17;
      }
    </style>
  </defs>
  <path class="cls-1" d="M634.0463,498.7744Q567.503,353.121,500.96,207.4676a1.8394,1.8394,0,0,0-3.4318,0q-66.445,145.6341-132.89,291.2682L91.6005,386.2129a3.8787,3.8787,0,0,0-5.8177,4.2488l163.083,389.1906a21.1378,21.1378,0,0,0,4.9682,7.8537,22.4791,22.4791,0,0,0,14.9757,6.2031H730.43a24.1254,24.1254,0,0,0,14.9756-6.2031,25.2151,25.2151,0,0,0,5.0266-6.9356c6.1279-12.8948,153.1149-362.29,163.68-387.4052a5.1039,5.1039,0,0,0-6.6686-7.2138Z"/>
</svg>
