<svg id="Layer_1" data-name="Layer 1" xmlns="http://www.w3.org/2000/svg" width="1000" height="1000" viewBox="0 0 1000 1000">
  <defs>
    <style>
      .cls-1 {
        fill: #af176c;
      }

      .cls-2 {
        fill: #e82990;
      }

      .cls-3 {
        fill: #6f013e;
      }

      .cls-4 {
        fill: #fff;
      }
    </style>
  </defs>
  <g>
    <polygon class="cls-1" points="500.232 67.2 56.26 406.868 52.004 616.5 500 931.747 947.996 616.5 943.74 406.868 500.232 67.2"/>
    <path class="cls-2" d="M500.2322,67.2,679.4041,412.88,788.2692,622.9165,500.2322,758.5606,211.7308,623.8123Q266.3956,518.3464,321.06,412.88Z"/>
    <polygon class="cls-1" points="211.731 623.812 52.004 616.5 56.26 406.868 500.232 67.2 211.731 623.812"/>
    <polygon class="cls-1" points="788.269 622.916 500.232 67.2 943.74 406.868 947.996 616.5 788.269 622.916"/>
    <polygon class="cls-3" points="52.004 616.5 500 931.747 947.996 616.5 788.269 622.916 500.232 758.561 211.731 623.812 52.004 616.5"/>
  </g>
  <g>
    <path class="cls-4" d="M438.2861,408.9609V649.0488H389.1406V452.3057h-1.6113L332.583,491.3V446.1826l53.0127-37.2217Z"/>
    <path class="cls-4" d="M571.06,652.2715q-30.296,0-51.7237-14.583-21.432-14.5811-32.8711-42.0557-11.4426-27.47-11.44-66.4668,0-38.8316,11.44-66.4673,11.439-27.6327,32.8711-42.2973,21.4278-14.661,51.7237-14.6631,30.2914,0,51.8047,14.7436,21.51,14.7437,32.9511,42.2974,11.439,27.5537,11.4405,66.3867,0,38.9956-11.36,66.4668-11.3584,27.4746-32.8711,42.0557Q601.5147,652.2739,571.06,652.2715Zm0-40.7666q14.8227,0,25.0566-9.668,10.23-9.668,15.6289-28.0371t5.3985-44.6338q0-26.4243-5.3985-44.956-5.3994-18.5282-15.6289-28.1983-10.2348-9.668-25.0566-9.6679a35.0344,35.0344,0,0,0-24.9756,9.7485q-10.314,9.7507-15.63,28.1982-5.3173,18.4519-5.3174,44.8755,0,26.2662,5.3174,44.6338,5.3173,18.3691,15.63,28.0371A35.19,35.19,0,0,0,571.06,611.5049Z"/>
  </g>
</svg>
