<svg xmlns="http://www.w3.org/2000/svg" xmlns:xlink="http://www.w3.org/1999/xlink" viewBox="0 0 1000 1000"><defs><style>.cls-1{isolation:isolate;}.cls-2{fill:url(#linear-gradient);}.cls-3{fill:url(#linear-gradient-2);}.cls-4,.cls-7{fill:#fff;mix-blend-mode:overlay;}.cls-4{opacity:0.8;}.cls-5{fill:#e5e5e5;}.cls-6{fill:url(#linear-gradient-3);}.cls-8{fill:#c95400;}.cls-9{fill:#bfbfbf;}.cls-10{fill:#ffe605;}.cls-11{fill:url(#linear-gradient-4);}.cls-12{fill:url(#linear-gradient-5);}.cls-13{fill:url(#linear-gradient-6);}.cls-14{fill:url(#linear-gradient-7);}.cls-15{fill:url(#linear-gradient-8);}.cls-16{fill:url(#linear-gradient-9);}.cls-17{fill:url(#linear-gradient-10);}.cls-18{fill:#fd7701;}</style><linearGradient id="linear-gradient" x1="500.74" y1="601.75" x2="728.27" y2="601.75" gradientUnits="userSpaceOnUse"><stop offset="0" stop-color="#ccc"/><stop offset="0.27" stop-color="#bcbcbc"/><stop offset="0.81" stop-color="#919191"/><stop offset="1" stop-color="gray"/></linearGradient><linearGradient id="linear-gradient-2" x1="271.73" y1="601.75" x2="500.75" y2="601.75" xlink:href="#linear-gradient"/><linearGradient id="linear-gradient-3" x1="355.39" y1="300.69" x2="644.35" y2="300.69" gradientUnits="userSpaceOnUse"><stop offset="0" stop-color="#ff8205"/><stop offset="0.17" stop-color="#ffab05"/><stop offset="0.26" stop-color="#ffbb05"/><stop offset="0.39" stop-color="#ffb204"/><stop offset="0.62" stop-color="#fe9803"/><stop offset="0.91" stop-color="#fc7001"/><stop offset="1" stop-color="#fc6100"/></linearGradient><linearGradient id="linear-gradient-4" x1="474.83" y1="404.63" x2="594.52" y2="383.05" gradientUnits="userSpaceOnUse"><stop offset="0" stop-color="#ff8205"/><stop offset="0.16" stop-color="#ffab05"/><stop offset="0.25" stop-color="#ffbb05"/><stop offset="0.34" stop-color="#ffc405"/><stop offset="0.5" stop-color="#ffdd05"/><stop offset="0.56" stop-color="#ffea05"/><stop offset="0.64" stop-color="#ffda05"/><stop offset="0.74" stop-color="#ffc905"/><stop offset="0.86" stop-color="#ffbe05"/><stop offset="1" stop-color="#ffbb05"/></linearGradient><linearGradient id="linear-gradient-5" x1="380.56" y1="244.26" x2="354.44" y2="314.63" xlink:href="#linear-gradient-3"/><linearGradient id="linear-gradient-6" x1="357.37" y1="334.59" x2="430.45" y2="405.14" xlink:href="#linear-gradient-4"/><linearGradient id="linear-gradient-7" x1="638.44" y1="368.03" x2="655.67" y2="282.07" xlink:href="#linear-gradient-4"/><linearGradient id="linear-gradient-8" x1="554.27" y1="223.74" x2="623.73" y2="283.41" xlink:href="#linear-gradient-4"/><linearGradient id="linear-gradient-9" x1="416.68" y1="242.74" x2="502.11" y2="230.04" xlink:href="#linear-gradient-3"/><linearGradient id="linear-gradient-10" x1="339.09" y1="403.52" x2="658.35" y2="403.52" xlink:href="#linear-gradient-4"/></defs><g class="cls-1"><g id="Layer_1" data-name="Layer 1"><polygon class="cls-2" points="500.75 536.44 728.27 404.22 728.27 667.05 500.74 799.27 500.75 536.44"/><polygon class="cls-3" points="500.75 536.44 500.74 799.27 271.73 667.05 271.73 404.22 500.75 536.44"/><polygon class="cls-4" points="271.73 404.22 271.73 409.6 500.74 541.83 728.27 409.61 728.27 404.22 500.75 536.44 271.73 404.22"/><polygon class="cls-5" points="271.73 404.22 499.25 272 728.27 404.22 500.75 536.44 271.73 404.22"/><path d="M526.75,383.69c-14.88-8.59-38.9-8.59-53.68,0s-14.67,22.49.2,31.07,38.88,8.57,53.63,0S541.6,392.26,526.75,383.69Z"/><path d="M453.68,676.66c-5-8.66-11.55-15.34-18.13-19.13s-13.14-4.7-18.17-1.83c-10.07,5.7-10.13,24.36-.12,41.68,5,8.66,11.56,15.34,18.13,19.13s13.15,4.7,18.18,1.83C463.6,712.59,463.65,693.93,453.68,676.66Z"/><path d="M404.44,591.36c-5-8.63-11.54-15.3-18.12-19.09s-13.14-4.72-18.16-1.86c-10.07,5.74-10.12,24.4-.12,41.68,5,8.66,11.56,15.35,18.14,19.14s13.12,4.7,18.14,1.85C414.39,627.34,414.44,608.68,404.44,591.36Z"/><path d="M355.22,506.11c-5-8.66-11.57-15.34-18.13-19.13s-13.15-4.7-18.19-1.83c-10,5.72-10.08,24.38-.11,41.68,5,8.66,11.57,15.34,18.13,19.13s13.15,4.7,18.19,1.83C365.13,542,365.19,523.37,355.22,506.11Z"/><path d="M665.53,482.93c13.78-7.95,25-1.61,25,14.27s-11.1,35.12-24.88,43.08-25,1.57-25-14.26S651.75,490.89,665.53,482.93Z"/><path d="M614.42,576.63c13.83-8,25-1.56,25,14.27S628.41,626,614.59,634s-25,1.56-25-14.26S600.65,584.58,614.42,576.63Z"/><path d="M665.87,604c13.79-8,25-1.56,25,14.27s-11.09,35.13-24.86,43.08-25,1.56-25-14.26S652.1,612,665.87,604Z"/><path d="M563.12,599.5c-13.77,8-25,1.56-25-14.27S549.19,550.1,563,542.15s25-1.62,25,14.27S576.91,591.54,563.12,599.5Z"/><path d="M563.3,663.22c13.79-8,25-1.56,25,14.27s-11.09,35.13-24.87,43.08-25,1.56-25.05-14.27S549.53,671.17,563.3,663.22Z"/><path class="cls-6" d="M641.45,271.87a53.06,53.06,0,0,0-2.12-5.11q-1.19-2.53-2.66-5c-5.24,53-70-8.8-80.79-26.66-6.94-11.49-10.15-18.4-11.86-26-2.89-.54-5.81-1-8.74-1.45s-5.86-.81-8.81-1.13c-12.07,47.5-102,53.06-117.44,33.44-2.92-3.71-2.92-3.71-5.11-13.84-1.53.79-3,1.59-4.49,2.42-.85.47-1.68,1-2.5,1.44q-3.39,2-6.51,4.09c-1.9,12.38-2.7,17.51-11.73,37.19l-23.11,51.37c-.06,22.51-.13,49.08-.19,71.59.06-21.76,14.69-43.46,43.75-59.77,57.18-32.08,148.59-31.17,204.17,2.07,27.34,16.33,40.91,37.45,40.85,58.5.07-22.41.13-48.88.19-71.29C644,306.36,642.16,289.15,641.45,271.87Z"/><path class="cls-7" d="M644.16,389.83c.06-21-13.51-42.16-40.85-58.49-55.58-33.24-147-34.16-204.17-2.07-28.91,16.22-43.52,37.78-43.74,59.42,0,1.88,0,3.78,0,5.6.06-21.75,14.69-43.45,43.75-59.76,57.18-32.09,148.59-31.16,204.17,2.07,27.34,16.33,40.91,37.44,40.85,58.49.07-22.41.13-49.94.19-72.35,0-.12,0-.23,0-.35C644.28,343.83,644.22,369,644.16,389.83Z"/><path class="cls-8" d="M644.16,390.74c.06-21.05-13.51-42.16-40.85-58.49-55.58-33.24-147-34.16-204.17-2.07C370.23,346.4,355.62,368,355.4,389.6c0,1.88,0,3.78,0,5.6.06-21.75,14.69-43.45,43.75-59.76,57.18-32.09,148.59-31.17,204.17,2.06,27.34,16.34,40.91,37.45,40.85,58.5.07-22.41.13-49.94.19-72.35,0-.12,0-.24,0-.35C644.28,344.74,644.22,369.93,644.16,390.74Z"/><path class="cls-7" d="M524,214.62a48.35,48.35,0,0,1-3.7,5.3c-14,20.4-44.88,29.78-70.95,30.53a123.91,123.91,0,0,1-21.38-.26C457.66,256,509.64,246.34,524,214.62Z"/><path class="cls-7" d="M355.58,323.84h0l23.11-51.38c9-19.68,9.83-24.8,11.73-37.19l-.19,0c-1.78,11.49-2.81,17-11.54,36l-23.11,51.37Z"/><path class="cls-7" d="M555.88,235.06c-6.64-11-9.84-17.78-11.6-25l-.26.29c1.71,7.64,4.92,14.55,11.86,26,6.6,10.92,33.33,38.21,54.32,45.7a22.9,22.9,0,0,0,12.76.43C601.94,286.07,563.93,248.37,555.88,235.06Z"/><path class="cls-7" d="M625,282l-.8.23.88-.2S625,282,625,282Z"/><path class="cls-9" d="M636.48,357.06c-2.38,3.13-20.54,17.35-26.4-14.06q-3.09,2.1-6.47,4.1c-1,.57-1.92,1.13-2.9,1.69q-2.43,1.35-4.94,2.63c-1.31,7.21-3.11,17.06-10.42,28.3-27.83,42.84-99.6,44.68-112.23-9-2.95-.33-5.89-.72-8.81-1.15s-5.84-.93-8.73-1.48c-2.69,10.73-2.69,10.73-6.11,15.14-17.8,22.94-80.07,20.61-86.18-68q-1.46-2.5-2.64-5.05c-.78-1.7-1.48-3.4-2.08-5.12-.38,6.24-.89,14.79-3,17.49q-.09,33.76-.19,67.52c-.06,21.05,13.52,42.16,40.84,58.49,55.59,33.23,147,34.16,204.19,2.07,29.06-16.31,43.69-38,43.74-59.76q.11-33.6.19-67.22C644.28,344.39,639.83,352.65,636.48,357.06Z"/><path class="cls-10" d="M622,352q-3.44,2.33-7.17,4.55c-1,.62-2.13,1.24-3.22,1.86-1.8,1-3.61,2-5.46,2.92l-10.34-9.91q2.51-1.28,4.94-2.63c1-.56,1.95-1.12,2.9-1.69q3.38-2,6.47-4.1Z"/><path class="cls-11" d="M606.11,361.33c-1.46,8-3.45,18.9-11.55,31.35-30.84,47.46-110.33,49.49-124.32-9.95l2.88-12c12.63,53.65,84.4,51.81,112.23,9,7.31-11.24,9.11-21.09,10.42-28.3Z"/><path class="cls-10" d="M450.8,379.83c3.21.61,6.43,1.15,9.68,1.63s6.49.91,9.76,1.27l2.88-12c-2.95-.33-5.89-.72-8.81-1.15s-5.84-.93-8.73-1.48Z"/><path class="cls-12" d="M355.58,322.55l23.11-51.37c9-19.68,9.83-24.81,11.73-37.19l-11.79-2.75c-2.11,13.72-3,19.4-13,41.2L340,329.35Z"/><path class="cls-10" d="M343.34,310l15.23-4.91,4.72,10.17-14.71,6A36.91,36.91,0,0,1,343.34,310Z"/><path class="cls-13" d="M449.47,383.26c-17.8,22.94-80.07,20.61-86.18-68l-14.71,6C355.34,419.43,424.33,422,444,396.6c3.49-4.51,3.77-4.88,6.13-14.25Z"/><path class="cls-14" d="M656.7,273.21l-15.25-1.34c.71,17.28,2.54,34.49,2.9,51.78-.07,20.74-4.52,29-7.87,33.41-1.16,1.52-6.05,5.66-11.44,5.9,8.25,20,23.86,7.64,26.16,4.62,3.71-4.89,8.65-14,8.72-37C659.52,311.41,657.49,292.34,656.7,273.21Z"/><path class="cls-10" d="M654.36,267.54q-1.32-2.81-3-5.57l-14.73-.25q1.47,2.5,2.66,5a53.06,53.06,0,0,1,2.12,5.11l15.25,1.34A59.48,59.48,0,0,0,654.36,267.54Z"/><path class="cls-15" d="M561.92,232.43c-8.1-12.47-11.25-20.38-13.14-28.84L544,209c1.71,7.64,4.92,14.55,11.86,26,8.26,13.66,48,53,68.67,47C599.86,274,566.61,239.66,561.92,232.43Z"/><path class="cls-10" d="M544,209c-2.89-.54-5.81-1-8.74-1.45s-5.86-.81-8.81-1.13l2.86-5.71c3.28.36,6.53.77,9.77,1.25s6.48,1,9.68,1.61Z"/><path class="cls-16" d="M428,248.9c29.7,5.82,81.68-3.84,96-35.56C506.62,242.07,459.72,252.28,428,248.9Z"/><path class="cls-10" d="M390.42,234q3.12-2.1,6.51-4.09c.82-.48,1.65-1,2.5-1.44,1.47-.83,3-1.63,4.49-2.42l-10.34-3.6q-2.52,1.31-5,2.68c-.94.52-1.86,1.06-2.77,1.59-2.51,1.48-4.91,3-7.21,4.53Z"/><path class="cls-17" d="M651.2,367.58C648.56,371,628.45,386.79,622,352q-3.44,2.33-7.17,4.55c-1,.62-2.13,1.24-3.22,1.86-1.8,1-3.61,2-5.46,2.92-1.46,8-3.45,18.9-11.55,31.35-30.84,47.46-110.33,49.49-124.32-9.95-3.27-.36-6.53-.79-9.76-1.27s-6.47-1-9.68-1.63c-3,11.88-3,11.88-6.76,16.77-19.71,25.41-88.7,22.83-95.46-75.36q-1.62-2.78-2.93-5.6T343.34,310c-.41,6.91-1,16.39-3.31,19.38-.07,24.93.07,49.7,0,74.64-.07,23.32,15,46.7,45.26,64.79,61.56,36.81,162.83,37.84,226.17,2.29,32.19-18.06,48.4-42.09,48.46-66.19.07-24.83-.07-49.49,0-74.32C659.85,353.54,654.91,362.69,651.2,367.58Z"/><path class="cls-7" d="M594.56,394.24c8.1-12.45,10.09-23.37,11.55-31.34l-.25-.24c-1.45,7.84-3.63,18.22-11.3,30-30.7,47.26-109.65,49.45-124.12-9.22l-.2.84C484.23,443.73,563.72,441.7,594.56,394.24Z"/><path class="cls-7" d="M659.91,331.66c-.24,22.15-5.06,31.11-8.71,35.92-2.24,2.95-17.11,14.74-25.5-3.14-.22,0-.44.08-.66.08,8.25,20,23.86,7.65,26.16,4.62,3.71-4.88,8.65-14,8.72-37h0C659.92,332,659.91,331.81,659.91,331.66Z"/><path class="cls-7" d="M348.71,322.75l-.13.05C355.34,421,424.33,423.58,444,398.16c3.49-4.51,3.77-4.88,6.13-14.25l-.59.77c-1.84,7.13-2.36,7.82-5.54,11.92C424.43,421.88,356.1,419.42,348.71,322.75Z"/><path class="cls-7" d="M659.92,378.23c-.06,24.1-16.27,48.14-48.46,66.2C548.12,480,446.85,479,385.29,442.14,355,424,340,400.66,340,377.34v8.74c-.07,23.32,15,46.7,45.26,64.8,61.56,36.8,162.83,37.83,226.17,2.29,32.19-18.07,48.4-42.1,48.46-66.2Z"/><path class="cls-7" d="M659.92,380c-.06,24.1-16.27,48.13-48.46,66.2-63.34,35.54-164.61,34.52-226.17-2.29C355,425.81,340,402.43,340,379.11v8.74c-.07,23.32,15,46.7,45.26,64.8,61.56,36.8,162.83,37.83,226.17,2.28,32.19-18.06,48.4-42.1,48.46-66.19Z"/><path class="cls-18" d="M659.92,379.39c-.06,24.1-16.27,48.13-48.46,66.2-63.34,35.54-164.61,34.51-226.17-2.29C355,425.2,340,401.82,340,378.5v8.73c-.07,23.32,15,46.71,45.26,64.81,61.56,36.8,162.83,37.82,226.17,2.28,32.19-18.06,48.4-42.1,48.46-66.2Z"/><path class="cls-8" d="M611.46,452.42c-63.34,35.54-164.61,34.52-226.17-2.29C355,432,340,408.65,340,385.33v1.9c-.07,23.32,15,46.71,45.26,64.81,61.56,36.8,162.83,37.82,226.17,2.28,32.19-18.06,48.4-42.1,48.46-66.2v-1.9C659.86,410.32,643.65,434.35,611.46,452.42Z"/></g></g></svg>