<svg id="Layer_1" data-name="Layer 1" xmlns="http://www.w3.org/2000/svg" width="1000" height="1000" viewBox="0 0 1000 1000">
  <defs>
    <style>
      .cls-1 {
        fill: #9bc1ff;
      }

      .cls-2 {
        fill: #4b86ff;
      }

      .cls-3 {
        fill: #fff;
      }

      .cls-4 {
        fill: #ffe7c7;
      }

      .cls-5 {
        fill: #fbae17;
      }
    </style>
  </defs>
  <g>
    <polygon class="cls-1" points="365.903 491.589 810.44 491.589 814.519 768.914 364.374 770.444 365.903 491.589"/>
    <path class="cls-2" d="M911.8829,558.283V505.4776A52.8876,52.8876,0,0,0,858.995,452.59l-537.3133,0a52.8881,52.8881,0,0,0-52.8879,52.8879V558.52a77.8978,77.8978,0,0,1,20.5128,154.29c-.6969,25.2623-4.6328,50.0527-13.9535,73.7613a8.9369,8.9369,0,0,1-1.0158,1.8606,52.8384,52.8384,0,0,0,47.3446,29.4218H858.995a52.888,52.888,0,0,0,52.8879-52.8879V713.8177a77.8958,77.8958,0,1,1,0-155.5347ZM802.8316,721.23a40.8022,40.8022,0,0,1-40.8023,40.8022H418.6476A40.8023,40.8023,0,0,1,377.8452,721.23V549.2139a40.8023,40.8023,0,0,1,40.8024-40.8022H762.0293a40.8021,40.8021,0,0,1,40.8023,40.8021Z"/>
    <polygon class="cls-3" points="635.492 634.932 604.608 645.977 596.199 677.68 576.151 651.722 543.401 653.521 561.894 626.432 550.062 595.841 581.54 605.058 606.977 584.352 607.939 617.137 635.492 634.932"/>
    <polygon class="cls-4" points="162.453 557.135 476.788 242.8 675.771 436.016 358.552 755.397 162.453 557.135"/>
    <polygon class="cls-3" points="410.056 546.924 399.01 516.041 367.307 507.632 393.266 487.583 391.466 454.834 418.555 473.326 449.146 461.495 439.93 492.973 460.635 518.41 427.85 519.372 410.056 546.924"/>
    <path class="cls-5" d="M741.8265,364.3768,705.659,328.2093a77.8958,77.8958,0,1,1-109.98-109.98L558.34,180.8906a52.8878,52.8878,0,0,0-74.7948,0L103.6076,560.8283a52.8881,52.8881,0,0,0,0,74.7949L141.1145,673.13A77.899,77.899,0,1,1,250.8487,782.8643l36.245,36.2451a52.8881,52.8881,0,0,0,74.7951,0L741.8265,439.1717A52.8881,52.8881,0,0,0,741.8265,364.3768ZM633.7893,468.2646,390.9817,711.0722a40.8023,40.8023,0,0,1-57.7032,0L211.6449,589.4386a40.8023,40.8023,0,0,1,0-57.7032L454.4525,288.9278a40.8021,40.8021,0,0,1,57.703,0L633.7893,410.5614A40.8023,40.8023,0,0,1,633.7893,468.2646Z"/>
  </g>
</svg>
