<svg id="Layer_1" data-name="Layer 1" xmlns="http://www.w3.org/2000/svg" xmlns:xlink="http://www.w3.org/1999/xlink" width="1000" height="1000" viewBox="0 0 1000 1000">
  <defs>
    <style>
      .cls-1 {
        fill: url(#linear-gradient);
      }

      .cls-2 {
        fill: #fff;
        opacity: 0.75;
      }

      .cls-3 {
        fill: #fbae17;
      }

      .cls-4 {
        fill: #4b86ff;
      }

      .cls-5 {
        fill: #68a432;
      }

      .cls-6 {
        fill: #e84d4d;
      }
    </style>
    <linearGradient id="linear-gradient" x1="134.0884" y1="500" x2="865.9116" y2="500" gradientUnits="userSpaceOnUse">
      <stop offset="0" stop-color="#ccc"/>
      <stop offset="0.2725" stop-color="#bcbcbc"/>
      <stop offset="0.8054" stop-color="#919191"/>
      <stop offset="1" stop-color="gray"/>
    </linearGradient>
  </defs>
  <g>
    <path class="cls-1" d="M451.9577,873.723a188.3211,188.3211,0,0,1-53.2138-48.6265c-8.506-11.7191-27.7561-41.293-32.8122-81.96-9.0513-72.7993,37.8265-97.154,18.8325-154.6574-9.6568-29.2352-31.4883-52.3505-33.1179-54.0466-13.1129-13.6487-25.588-21.2145-38.715-29.1757-8.1368-4.9347-16.0455-9.1331-68.0067-31.5615-31.6814-13.6748-32.6774-13.8131-38.6208-17.2854-12.8464-7.5053-33.1861-19.672-49.3981-43.0383a141.8482,141.8482,0,0,1-20.7394-50.2171C124.62,302.4,164.1307,247.695,182.4317,222.3562c42.2635-58.5162,96.2573-84.361,120.4436-95.5823a338.3281,338.3281,0,0,1,76.4176-24.656c13.69-2.7026,78.9509-14.7206,161.22,6.0067,13.4146,3.38,59.9545,15.8618,112.4406,47.8025C685.1031,175.4918,804.676,248.2586,849.71,401.0435c43.599,147.9183-12.4925,269.6546-31.6939,311.3279-37.6169,81.6407-88.744,125.3221-99.34,134.1424-33.27,27.6929-59.8369,38.7269-66.4715,41.389-11.1628,4.4789-59.094,22.651-121.1385,13.221C514.3822,898.5883,484.547,893.7461,451.9577,873.723Z"/>
    <path class="cls-2" d="M451.9577,873.723a188.3211,188.3211,0,0,1-53.2138-48.6265c-8.506-11.7191-27.7561-41.293-32.8122-81.96-9.0513-72.7993,37.8265-97.154,18.8325-154.6574-9.6568-29.2352-31.4883-52.3505-33.1179-54.0466-13.1129-13.6487-25.588-21.2145-38.715-29.1757-8.1368-4.9347-16.0455-9.1331-68.0067-31.5615-31.6814-13.6748-32.6774-13.8131-38.6208-17.2854-12.8464-7.5053-33.1861-19.672-49.3981-43.0383a141.8482,141.8482,0,0,1-20.7394-50.2171C124.62,302.4,164.1307,247.695,182.4317,222.3562c42.2635-58.5162,96.2573-84.361,120.4436-95.5823a338.3281,338.3281,0,0,1,76.4176-24.656c13.69-2.7026,78.9509-14.7206,161.22,6.0067,13.4146,3.38,59.9545,15.8618,112.4406,47.8025C685.1031,175.4918,804.676,248.2586,849.71,401.0435c43.599,147.9183-12.4925,269.6546-31.6939,311.3279-37.6169,81.6407-88.744,125.3221-99.34,134.1424-33.27,27.6929-59.8369,38.7269-66.4715,41.389-11.1628,4.4789-59.094,22.651-121.1385,13.221C514.3822,898.5883,484.547,893.7461,451.9577,873.723Z"/>
    <circle class="cls-3" cx="338.3199" cy="280.3423" r="83.5649"/>
    <circle class="cls-4" cx="562.3196" cy="261.9297" r="83.5649"/>
    <circle class="cls-5" cx="713.8694" cy="429.0594" r="83.5649"/>
    <circle class="cls-6" cx="675.6278" cy="655.676" r="83.5649"/>
  </g>
</svg>
