<svg id="Layer_1" data-name="Layer 1" xmlns="http://www.w3.org/2000/svg" width="1000" height="1000" viewBox="0 0 1000 1000">
  <defs>
    <style>
      .cls-1 {
        fill: #e84d4d;
      }

      .cls-2 {
        fill: #fbae17;
      }
    </style>
  </defs>
  <g>
    <path class="cls-1" d="M726.45,338.8587c-2.1026,15.4213-8.2929,44.1682-29.6034,71.8941a147.3562,147.3562,0,0,1-30.5433,29.6035c1.43-43.1152-2.0407-117.2449-38.0615-198.766C570.7,111.3644,467.61,47.175,429.4753,25.9081c1.872,126.02-32.6028,201.6631-64.8456,247.6351-27.2821,38.8989-69.3782,79.955-124.0525,170.1023-15.4994,25.5555-28.9532,50.0167-39.9412,82.7017A371.2653,371.2653,0,0,0,181.7643,655.779c0,174.6213,143.6916,318.3129,318.3129,318.3129S818.39,830.4,818.39,655.779a575.8553,575.8553,0,0,0-91.9405-316.92Z"/>
    <path class="cls-2" d="M647.0371,660.7375c-20.6835-33.2348-29.9069-35.805-53.0983-69.5446-10.28-14.9559-25.07-36.765-36.6518-65.7855-8.0741-20.2305-18.0542-52.7543-18.7959-96.3287a314.6238,314.6238,0,0,0-76.1231,93.0394c-48.7889,91.1935-37.24,180.38-31.483,212.393a116.0274,116.0274,0,0,1-43.7-36.6519c-26.8428-37.6094-21.2865-79.1431-19.7356-88.81a318.8729,318.8729,0,0,0-54.0551,178.36c0,102.4115,84.2718,186.6833,186.6833,186.6833S686.76,889.82,686.76,787.4086c0-34.2306-11.5294-69.3437-11.5295-69.3439C666.881,692.8635,656.0631,675.2405,647.0371,660.7375Z"/>
  </g>
</svg>
