<svg id="Layer_1" data-name="Layer 1" xmlns="http://www.w3.org/2000/svg" xmlns:xlink="http://www.w3.org/1999/xlink" width="1000" height="1000" viewBox="0 0 1000 1000">
  <defs>
    <style>
      .cls-1, .cls-3 {
        fill: none;
      }

      .cls-2 {
        clip-path: url(#clip-path);
      }

      .cls-3 {
        stroke: #4b86ff;
        stroke-miterlimit: 10;
        stroke-width: 110px;
      }

      .cls-4 {
        fill: #68a432;
      }

      .cls-5 {
        fill: #90dc42;
      }

      .cls-6 {
        fill: #fbae17;
      }
    </style>
    <clipPath id="clip-path">
      <rect class="cls-1" x="139.7206" y="139.7206" width="720.5587" height="720.5587" rx="129.3707"/>
    </clipPath>
  </defs>
  <g>
    <g class="cls-2">
      <path class="cls-3" d="M264.4,139.7206H735.6A124.6794,124.6794,0,0,1,860.2794,264.4V735.6A124.6794,124.6794,0,0,1,735.6,860.2794H264.4A124.6793,124.6793,0,0,1,139.7206,735.6V264.4A124.6793,124.6793,0,0,1,264.4,139.7206Z"/>
      <path class="cls-4" d="M145.2839,825.4038a51.4019,51.4019,0,0,0,51.8821,14.2618h66.2846c43.6934,0,87.422-1.273,131.0833-2.9109,30.2707-1.1356,61.1608.5849,91.33-3.1414V607.0871L363.363,494.9049c-4.042-3.5725-21.1523-17.8764-47.06-17.7081-22.3286.1451-38.5895,12.3276-49,20.3764-53.4686,41.3374-110.5841,96.9584-127.5824,113.6752V773.2605a160.7943,160.7943,0,0,0,5.5633,52.1433Z"/>
      <path class="cls-5" d="M790.209,860.2794H209.7911a69.0208,69.0208,0,0,1-28.23-2.2282c-6.2212-1.8423-16.736-4.9563-25.74-14.647a48.8238,48.8238,0,0,1-10.5375-18C411.2254,585.1086,606.7184,411.5927,641.7186,382.9562c7.7512-6.3419,25.4627-20.2235,49-20.3764,25.9074-.1683,43.0177,14.1356,47.06,17.708Q799.029,436.379,860.2793,492.47q0,148.87,0,297.739c-.13,4.974-1.2942,30.0826-21.9461,49.991C818.89,858.9432,795.5931,860.1411,790.209,860.2794Z"/>
    </g>
    <circle class="cls-6" cx="409.9982" cy="331.1663" r="64.04"/>
  </g>
</svg>
