<svg id="Layer_1" data-name="Layer 1" xmlns="http://www.w3.org/2000/svg" width="1000" height="1000" viewBox="0 0 1000 1000">
  <defs>
    <style>
      .cls-1 {
        fill: #fbae17;
      }
    </style>
  </defs>
  <g>
    <rect class="cls-1" x="399.1049" y="257.8713" width="614.6357" height="72.0634" transform="translate(371.6956 -394.1157) rotate(41.4672)"/>
    <rect class="cls-1" x="-13.7406" y="257.8713" width="614.6357" height="72.0634" transform="translate(708.185 319.7305) rotate(138.5328)"/>
    <path class="cls-1" d="M498.9983,220.8973,174.1466,505.6491V914.4333A22.1666,22.1666,0,0,0,196.3131,936.6H396.677V756.1722a18.2066,18.2066,0,0,1,18.2067-18.2065H583.1129A18.2065,18.2065,0,0,1,601.32,756.1722V936.6h200.364A22.1666,22.1666,0,0,0,823.85,914.4333V505.6491Q661.4241,363.2733,498.9983,220.8973Z"/>
    <path class="cls-1" d="M823.85,296.2728,706.4227,190.6744V121.125H823.85Z"/>
  </g>
</svg>
