<svg id="Layer_1" data-name="Layer 1" xmlns="http://www.w3.org/2000/svg" width="1000" height="1000" viewBox="0 0 1000 1000">
  <defs>
    <style>
      .cls-1 {
        fill: #f7a914;
      }

      .cls-2 {
        fill: #e22d2d;
      }
    </style>
  </defs>
  <g>
    <rect class="cls-1" x="213.2677" y="81.8" width="573.4646" height="836.4" rx="80"/>
    <rect class="cls-2" x="252.5933" y="126.4488" width="494.8135" height="747.1024" rx="70"/>
    <path class="cls-1" d="M558.9344,499.4625,500.5721,371.716a.8066.8066,0,0,0-1.5049,0l-58.2762,127.73L321.0562,450.101a1.7009,1.7009,0,0,0-2.5512,1.8633Q354.2634,537.3,390.0216,622.6357A9.27,9.27,0,0,0,392.2,626.08a9.858,9.858,0,0,0,6.5673,2.72H601.2013a10.5793,10.5793,0,0,0,6.5673-2.72,11.057,11.057,0,0,0,2.2043-3.0414c2.6872-5.6548,67.1453-158.8748,71.7782-169.8885a2.2382,2.2382,0,0,0-2.9244-3.1634Z"/>
  </g>
</svg>
