<svg id="Layer_1" data-name="Layer 1" xmlns="http://www.w3.org/2000/svg" width="1000" height="1000" viewBox="0 0 1000 1000"><defs><style>.cls-1,.cls-2,.cls-4{fill:#6b7280;}.cls-2{stroke:#fff;stroke-miterlimit:10;stroke-width:20px;}.cls-3{fill:#fff;}.cls-4{font-size:180px;font-family:MyriadPro-Bold, Myriad Pro;font-weight:700;}.cls-5{letter-spacing:-0.003em;}.cls-6{letter-spacing:-0.025em;}.cls-7{font-size:117.6183px;}</style></defs><rect class="cls-1" x="496.1277" y="112.8721" width="403.5337" height="625.6623" rx="56.4" transform="translate(57.6567 -82.6033) rotate(7.0648)"/><rect class="cls-1" x="106.9904" y="627.5087" width="395.0365" height="126.7791" rx="25.3707"/><path class="cls-1" d="M167.624,635.7768c-1.8352-15.4432-2.5476-39.8245,7.3494-66.1457,6.2638-16.6583,15.1162-29.6762,49.6094-67.4087,16.0119-17.5159,37.64-40.4564,64.3083-66.72V407.942c-10.6705,11.6511-21.3283,16.3227-27.5607,18.3737-8.9929,2.9593-16.8739,2.97-32.2691,2.8708a276.4726,276.4726,0,0,1-31.1206-1.9521,85.0669,85.0669,0,0,1-20.211,22.9673c-6.7678,5.3276-19.6469,15.4663-38.585,16.5363-17.1365.9683-29.8661-6.0181-34.4509-8.6127C87.0361,448.1324,72.62,429.2582,70.243,407.942c-2.0012-17.9488,5.0881-32.661,11.0243-43.1784,31.3819-55.6,98.5518-114.4572,119.4295-132.2913-4.7543-4.8533-15.7523-17.4618-18.1441-36.5178a60.458,60.458,0,0,1,.7408-19.4224c1.9281-6.6,5.3945-13.2687,11.6616-17.44,6.51-4.3331,13.978-4.5974,40.652-1.0335,21.5976,2.8856,29.627,4.4784,29.6276,4.4786,16.36,3.2453,45.6484,9.0553,58.1568,12.6018,32.64,9.2544,90.4806,42.6375,124.4327,103.2678,24.44,43.6441,26.671,83.726,28.4794,118.511,1.8693,35.9582-3.0494,57.493-17.4551,152.5024-6.6244,43.69-11.6393,79.07-14.699,101.0557Z"/><rect class="cls-2" x="380.9754" y="486.7051" width="267.5827" height="267.5827" rx="50.4"/><circle class="cls-3" cx="514.7667" cy="620.4964" r="21.2147"/><circle class="cls-3" cx="583.0167" cy="688.7464" r="21.2147"/><circle class="cls-3" cx="446.5168" cy="552.2464" r="21.2147"/><polygon class="cls-3" points="709.93 328.592 641.827 418.755 753.962 432.652 709.93 328.592"/><polygon class="cls-3" points="685.859 522.815 753.962 432.652 641.827 418.755 685.859 522.815"/><text class="cls-4" transform="translate(87.6359 901.0883)">NO I<tspan class="cls-5" x="340.9141" y="0">M</tspan><tspan class="cls-6" x="492.6548" y="0">A</tspan><tspan x="606.2339" y="0">GE</tspan><tspan class="cls-7" x="825.1118" y="0"> </tspan></text></svg>