<svg id="Layer_1" data-name="Layer 1" xmlns="http://www.w3.org/2000/svg" xmlns:xlink="http://www.w3.org/1999/xlink" width="1000" height="1000" viewBox="0 0 1000 1000">
  <defs>
    <style>
      .cls-1 {
        fill: none;
      }

      .cls-2 {
        fill: #fbae17;
      }

      .cls-3 {
        clip-path: url(#clip-path);
      }

      .cls-4 {
        fill: #e22d2d;
      }

      .cls-5 {
        fill: #f9db49;
      }

      .cls-6 {
        fill: #eb9b28;
      }

      .cls-7 {
        fill: #68a432;
      }

      .cls-8 {
        fill: #a52121;
      }

      .cls-9 {
        fill: #4b86ff;
      }

      .cls-10 {
        fill: #174884;
      }
    </style>
    <clipPath id="clip-path">
      <path class="cls-1" d="M280.8287,402.2539A1853.3906,1853.3906,0,0,0,88.4966,855.371c1.0479,5.8616,5.372,25.8643,23.6048,41.1182a69.1694,69.1694,0,0,0,34.2652,15.229A2182.3355,2182.3355,0,0,0,415.1576,812.73c66.9179-29.7691,127.9328-60.953,183.0044-91.9391Z"/>
    </clipPath>
  </defs>
  <g>
    <path class="cls-2" d="M280.8287,402.2539A1853.3906,1853.3906,0,0,0,88.4966,855.371c1.0479,5.8616,5.372,25.8643,23.6048,41.1182a69.1694,69.1694,0,0,0,34.2652,15.229A2182.3355,2182.3355,0,0,0,415.1576,812.73c66.9179-29.7691,127.9328-60.953,183.0044-91.9391Z"/>
    <g class="cls-3">
      <path class="cls-4" d="M95.0958,796.9934a155.9894,155.9894,0,0,0,95.1809,116.6284l-47.9712,12.31L69.7142,860.955Q82.405,828.9741,95.0958,796.9934Z"/>
      <path class="cls-4" d="M123.1425,728.2093,148.6509,665.39a337.9635,337.9635,0,0,0,157.62,196.6438L251.4464,884.306A291.2256,291.2256,0,0,1,123.1425,728.2093Z"/>
      <path class="cls-4" d="M189.3884,559.1679l43.4025-84.5207a268.5539,268.5539,0,0,0,2.6651,56.7279c9.3241,60.3314,36.9914,101.221,56.3471,129.8268A399.9369,399.9369,0,0,0,456.2757,800.9275L391.172,827.959c-37.5811-23.009-87.1447-59.8927-130.5883-115.74-21.17-27.2141-51.6907-67.2968-66.2459-127.5425C191.8012,574.1774,190.2928,565.3146,189.3884,559.1679Z"/>
    </g>
    <ellipse class="cls-5" cx="448.7623" cy="552.4159" rx="104.9928" ry="226.5339" transform="translate(-259.1776 479.1218) rotate(-45)"/>
    <ellipse class="cls-6" cx="450.1261" cy="551.0521" rx="91.1435" ry="210.5565" transform="translate(-257.8138 479.6867) rotate(-45)"/>
    <circle class="cls-2" cx="261.3452" cy="200.5261" r="21.7013"/>
    <circle class="cls-7" cx="598.162" cy="289.6155" r="23.3479"/>
    <circle class="cls-2" cx="859.843" cy="698.5128" r="27.4121"/>
    <path class="cls-7" d="M269.7211,327.18q-8.7058,4.3265-17.7671,8.63-8.8529,4.2013-17.5133,8.1221a53.4829,53.4829,0,0,1-19.29-25.6354,52.4723,52.4723,0,0,1-2.5382-22.8435A51.2542,51.2542,0,0,1,250.0039,279.18a130.1934,130.1934,0,0,0,19.7172,48Z"/>
    <path class="cls-4" d="M784.2058,506.3742a220.0208,220.0208,0,0,0-58.6315,10.9141,117.7633,117.7633,0,0,1-8.3758-38.58A123.9313,123.9313,0,0,1,775.06,468.5089a60.3657,60.3657,0,0,1,9.1456,37.8653Z"/>
    <path class="cls-7" d="M744.3568,751.3065a234.7229,234.7229,0,0,0-50.0017,50.5094l-35.0267-36.8034a94.3333,94.3333,0,0,1,52.54-47.7173,83.2852,83.2852,0,0,1,32.4885,34.0113Z"/>
    <path class="cls-4" d="M787.6958,198.8129a74.2686,74.2686,0,0,1-38.6434-35.4073,69.3106,69.3106,0,0,1,22.4627-30.4579,197.9442,197.9442,0,0,0,21.8916,16.5614A197.9244,197.9244,0,0,0,815.679,162.073a107.92,107.92,0,0,1-27.9832,36.74Z"/>
    <path class="cls-2" d="M816.6309,227.7479a72.7213,72.7213,0,0,1-65.8653,28.7446A74.0417,74.0417,0,0,1,728.39,200.7953,169.4381,169.4381,0,0,0,794.93,176.16a156.5389,156.5389,0,0,1,21.7013,51.5881Z"/>
    <path class="cls-2" d="M641.8252,207.3513l-24.2217-9.3155a11.0357,11.0357,0,0,0-10.2007,1.1976l-21.4055,14.6722a11.0357,11.0357,0,0,1-17.26-9.6872l1.3746-25.9149a11.0356,11.0356,0,0,0-4.2911-9.3313l-20.5688-15.8239a11.0357,11.0357,0,0,1,3.88-19.4083l25.0713-6.7008a11.0357,11.0357,0,0,0,7.5486-6.9646l8.6933-24.4519a11.0357,11.0357,0,0,1,19.6572-2.3078l14.12,21.7735a11.0358,11.0358,0,0,0,8.9564,5.027l25.9415.7118a11.0356,11.0356,0,0,1,8.2693,17.9819l-16.3445,20.1576a11.0358,11.0358,0,0,0-2.0132,10.0715l7.3394,24.8918A11.0357,11.0357,0,0,1,641.8252,207.3513Z"/>
    <path class="cls-2" d="M857.548,602.0058l-8.402-16.81a7.9915,7.9915,0,0,0-6.0392-4.3414l-18.6112-2.6087a7.9918,7.9918,0,0,1-4.4978-13.609l13.3913-13.1855a7.9916,7.9916,0,0,0,2.2628-7.0852l-3.27-18.5064a7.9917,7.9917,0,0,1,11.553-8.483l16.6783,8.6613A7.992,7.992,0,0,0,868.0507,526l16.59-8.8289a7.9917,7.9917,0,0,1,11.6379,8.3662l-3.0835,18.5384a7.9916,7.9916,0,0,0,2.334,7.0621l13.5234,13.05a7.9917,7.9917,0,0,1-4.36,13.6536l-18.584,2.7961a7.9918,7.9918,0,0,0-5.9952,4.402l-8.2322,16.8942A7.9918,7.9918,0,0,1,857.548,602.0058Z"/>
    <path class="cls-4" d="M358.5566,471.0938a499.3384,499.3384,0,0,0,53.0476-47.21c13.47-13.8374,30.2829-32.7347,44.7469-59.5424,14.6347-27.1241,12.2652-35.2872,10.0773-39.192-6.3967-11.4159-26.1329-13.0087-34.7727-13.706-7.1308-.5755-13.2991.2085-25.6355,1.7767-20.9113,2.6581-24.2651,5.122-37.0739,5.7948-12.9216.6786-21.4011,1.124-30.4411-2.749-20.509-8.7867-31.7537-34.5944-31.2193-56.3472a63.6525,63.6525,0,0,1,9.6449-31.727c7.2163-11.5632,16.2388-17.501,25.1278-23.351,11.3829-7.4912,20.8578-10.8313,34.7727-15.7366a233.0191,233.0191,0,0,1,38.2006-10.1059,209.6565,209.6565,0,0,1,33.8832-2.8387,28.4044,28.4044,0,0,1,8.1221,10.1526,29.591,29.591,0,0,1,1.5229,20.3053,304.7561,304.7561,0,0,0-37.5648,6.0916c-25.4619,5.7757-42.2072,13.005-47.21,15.2289a136.0868,136.0868,0,0,0-38.5038,25.9432c-4.6341,4.51-8.838,9.3435-8.7059,15.6827.1384,6.6426,4.9849,12.3875,9.8988,15.2289,6.3518,3.6729,13.2337,2.7357,16.2442,2.2843,49.78-7.4625,62.4017-9.9857,77.4138-7.897,7.7131,1.0731,23.1343,3.4287,36.0418,15.5115,12.04,11.2707,15.7566,25.2609,17.26,31.2193,3.6259,14.3752,1.7239,25.9478,0,35.7881-1.0487,5.9859-4.8469,25.1138-20.3052,50.5093-11.3995,18.7276-22.6141,30.1426-41.1182,48.7327a551.1325,551.1325,0,0,1-47.7174,42.6411,29.9088,29.9088,0,0,1-10.66-9.1374C356.5951,484.6033,358.1315,473.6423,358.5566,471.0938Z"/>
    <path class="cls-8" d="M338.5052,316.2662c9.04,3.873,17.5195,3.4276,30.4411,2.749,12.8088-.6728,16.1626-3.1367,37.0739-5.7948,12.3364-1.5682,18.5047-2.3522,25.6355-1.7767,8.64.6973,28.376,2.29,34.7727,13.706,1.1519,2.0557,2.354,5.2916,1.0989,11.8529a50.3948,50.3948,0,0,0,3.601-13.614,52.6842,52.6842,0,0,0-4.9538-28.6968c-14.7571-11.121-27.4632-14.3179-36.0418-15.5115-15.0121-2.0887-27.6334.4345-77.4138,7.897-3.2744.4909-10.1022,1.3757-16.2442-2.2843a20.6464,20.6464,0,0,1-8.4077-10.2161,19.403,19.403,0,0,1-.758-9.7371,53.96,53.96,0,0,0,.5359,33.913A51.9787,51.9787,0,0,0,338.5052,316.2662Z"/>
    <path class="cls-9" d="M469.601,500.1558a43.27,43.27,0,0,1,9.01-4.315,45.5884,45.5884,0,0,1,24.2394-1.269c14.91,17.0442,32.576,24.7147,42.8979,19.235,12.1037-6.4258,11.813-29.38,11.8-30.4029-.0576-4.3443-.7184-5.9032-2.2844-14.3406-.9761-5.2594-4.0619-21.8853-4.3149-33.3768-.23-10.438-.6729-30.5725,12.1832-41.6258,9.6578-8.3034,22.3659-7.6518,37.9455-6.853,7.6614.3928,19.0843,1.1128,29.95,8.249,2.3561,1.5474,5.1241,4.035,10.66,9.01,15.5152,13.9437,17.5875,18.2173,21.3206,17.64,5.2641-.8137,7.7777-10.3375,11.1678-23.7318,5.9865-23.6529,2.4817-27.6208,7.8684-40.9913,2.4236-6.0157,8.6576-21.489,23.6048-28.1735,8.2058-3.67,16.77-3.6764,21.8282-3.68A73.8074,73.8074,0,0,1,766.82,337.46c5.2752,3.5621,6.1666,5.3251,15.102,13.96,12.48,12.06,18.8072,18.0833,23.0972,17.767,9.0478-.6668,15.5845-14.6952,17.5133-24.3663,2.72-13.6371-3.1736-24.4416-4.9277-27.4121a59.9017,59.9017,0,0,1,33.8628-4.4449c8.1008,13.5219,7.0455,24.0313,6.3453,28.05-4.0842,23.4409-32.5278,35.1823-50.7632,37.6916a69.4715,69.4715,0,0,1-34.5614-4.1879c-29.4161-11.9153-35.779-39.3351-46.4565-36.6014-7.6212,1.9512-10.5591,17.5024-14.6707,39.2665-3.795,20.0884-2.0646,28.0294-9.5181,38.0723-6.7329,9.0721-15.8559,12.9822-20.0514,14.7214-16.7,6.9229-32.281,3.2316-37.0571,2.03-31.8288-8.0044-41.8322-36.56-52.1591-32.3616-9.7064,3.9464-7.5617,31.8951-7.2337,36.1688.7926,10.3292,3.5426,20.108,6.7261,44.7985a31.9978,31.9978,0,0,1-.2539,12.158c-2.6278,11.2564-11.4855,17.9823-15.3558,20.8381-12.4679,9.2-25.8355,9.94-36.5495,10.5333a99.6461,99.6461,0,0,1-36.2957-4.9493A102.5745,102.5745,0,0,1,469.601,500.1558Z"/>
    <path class="cls-10" d="M541.1391,515.325c-10.4819,1.6938-25.4128-6.0346-38.2882-20.7532a45.5884,45.5884,0,0,0-24.2394,1.269,43.27,43.27,0,0,0-9.01,4.315,87.9595,87.9595,0,0,0,71.5381,15.1692Z"/>
    <path class="cls-10" d="M589.7184,401.8548a6.0145,6.0145,0,0,1,2.25-1.906,6.9431,6.9431,0,0,1,4.557-.2089,11.6379,11.6379,0,0,1,5.235,3.1409c2.9285,2.7266,4.3928,4.09,7.6144,7.5669a67.268,67.268,0,0,0,8.9894,7.8689,73.9252,73.9252,0,0,0,16.6619,10.3107,65.9091,65.9091,0,0,0,9.7084,3.3789,62.6926,62.6926,0,0,0,18.7507,2.0464,58.3461,58.3461,0,0,0,24.5416-7.01,48.0282,48.0282,0,0,1-27.742-5.4877c-9.4574-8.2184-15.0018-13.858-18.5961-17.0883-5.5361-4.9754-8.3041-7.463-10.66-9.01q-1.38-.9063-2.7692-1.6782c-14.3319-7.9911-28.45-.987-28.45-.9869A27.6692,27.6692,0,0,0,589.7184,401.8548Z"/>
    <path class="cls-10" d="M760.085,333.5443A61.82,61.82,0,0,1,766.82,337.46c1.2645.8538,2.2772,1.6044,3.2092,2.371A138.627,138.627,0,0,1,781.9215,351.42c1.6145,1.7286,6.2689,5.8586,15.5779,14.1185,1.3665,1.2124,4.0071,3.4906,7.551,3.4582a8.9218,8.9218,0,0,0,3.7152-.8821A58.6886,58.6886,0,0,1,792.328,372.74a60.8131,60.8131,0,0,1-32.2437-4.9065,45.6128,45.6128,0,0,1-10.8416-8.3554,118.2718,118.2718,0,0,1-9.9983-12.4143,31.8633,31.8633,0,0,0-5.294-5.98c-3.3594-2.9473-5.11-3.1919-5.909-3.2334a7.8692,7.8692,0,0,0-5.2536,1.94,37.7418,37.7418,0,0,1,14.97-7.6608C747.0752,329.7982,755.8208,331.3878,760.085,333.5443Z"/>
    <path class="cls-4" d="M427.6244,652.8283a321.9193,321.9193,0,0,1,192.87-52.2884c24.5264,1.224,62.991,3.5244,106.6026,24.3663a244.2364,244.2364,0,0,1,45.6869,28.4274,56.9256,56.9256,0,0,1-6.5991,31.9808,261.01,261.01,0,0,0-50.2556-29.95c-7.7867-3.5228-42.84-18.9173-92.389-22.8434-13.832-1.096-59.8293-3.7573-115.74,13.706a318.215,318.215,0,0,0-56.5813,23.89q-5.6633-3.8517-11.5274-8.1286Q433.3878,657.3812,427.6244,652.8283Z"/>
  </g>
</svg>
