<svg id="Layer_1" data-name="Layer 1" xmlns="http://www.w3.org/2000/svg" viewBox="0 0 1000 1000"><defs><style>.cls-1{fill:#fff;}</style></defs><circle class="cls-1" cx="500" cy="284.44" r="178.84"/><path class="cls-1" d="M789.6,838.42c-14,18-30.16,27-39.24,32-25.78,14.05-49.49,16.87-59.57,18-70.84,7.74-159.23,6-201.14,5.58-11.07-.11-88-.78-152.8-5.65A291.21,291.21,0,0,1,263,870.89a124.7,124.7,0,0,1-28.51-15,118.89,118.89,0,0,1-26.09-25.21c-15.93-21.2-20.07-42.6-22.81-57.68-.7-3.84-3.23-18.43-2.3-47a407,407,0,0,1,9.63-76.59c5.11-22,17.83-74.53,57.22-130.42a357.37,357.37,0,0,1,81.33-82.6c8.94,10.08,70.18,76.76,170.5,75.92,98.1-.82,157.55-65.57,166.73-75.92a366.48,366.48,0,0,1,83.92,86.85c51,74.35,59.15,145.91,63.09,180.6,2.43,21.46,3.78,49-3.46,80.92C804.63,818.52,792.56,834.6,789.6,838.42Z"/></svg>