<svg id="Layer_1" data-name="Layer 1" xmlns="http://www.w3.org/2000/svg" width="1000" height="1000" viewBox="0 0 1000 1000">
  <defs>
    <style>
      .cls-1 {
        fill: #141414;
      }

      .cls-2 {
        fill: #9b9b9b;
      }
    </style>
  </defs>
  <g>
    <path class="cls-1" d="M695.8,500c0,108.1374-87.6626,195.8-195.8,195.8S304.2,608.1374,304.2,500,391.8626,304.2,500,304.2,695.8,391.8626,695.8,500ZM500,263.9788c-130.3509,0-236.0212,105.67-236.0212,236.0212S369.6491,736.0212,500,736.0212,736.0212,630.3509,736.0212,500,630.3509,263.9788,500,263.9788Z"/>
    <path class="cls-2" d="M674.3333,500A174.3333,174.3333,0,1,1,500,325.6667,174.3333,174.3333,0,0,1,674.3333,500ZM500,296.5122c-112.3832,0-203.4878,91.1046-203.4878,203.4878S387.6168,703.4878,500,703.4878,703.4878,612.3832,703.4878,500,612.3832,296.5122,500,296.5122Z"/>
    <path class="cls-2" d="M825,499.7314a155.1516,155.1516,0,0,1,75.3981-133.19c8.1581-4.8988,11.6494-17.2484,7.6333-27.4513A438.7543,438.7543,0,0,0,840.274,223.16c-4.9348-6.0743-12.36-7.5936-18.5458-3.7481a154.0914,154.0914,0,0,1-81.62,23.2485c-85.6041,0-155-69.4875-155-155.2046l0-.1825c.0123-10.3734-5.9686-19.2112-14.131-20.5424a442.4015,442.4015,0,0,0-140.8214-.1835C421.98,67.859,415.9749,76.709,415.9992,87.0964q0,.18,0,.36c0,85.7171-69.3959,155.2046-155,155.2046a154.1029,154.1029,0,0,1-82.2942-23.6656c-6.1874-3.89-13.6367-2.39-18.59,3.69A438.7661,438.7661,0,0,0,91.97,339.086c-4.0169,10.2042-.5271,22.5557,7.6321,27.4552a155.34,155.34,0,0,1-.1594,266.4771c-8.1618,4.8878-11.6594,17.233-7.6538,27.442A438.7633,438.7633,0,0,0,160.114,777.3136c4.954,6.0805,12.4034,7.5817,18.5913,3.6915A154.1034,154.1034,0,0,1,261,757.3393c85.6041,0,155,69.4875,155,155.2047q0,.18,0,.36c-.0243,10.3874,5.9809,19.2374,14.1566,20.5487a442.4015,442.4015,0,0,0,140.8214-.1835c8.1624-1.3312,14.1433-10.169,14.131-20.5424l0-.1824c0-85.7172,69.3959-155.2047,155-155.2047a154.09,154.09,0,0,1,81.62,23.2486c6.1869,3.8458,13.6116,2.3253,18.5469-3.75A438.7479,438.7479,0,0,0,908.212,660.4566c4.0049-10.2076.5058-22.5509-7.6549-27.438A155.1541,155.1541,0,0,1,825,499.7314ZM500,732.9575c-128.4892,0-232.65-104.2986-232.65-232.9575S371.51,267.0426,500,267.0426,732.65,371.3412,732.65,500,628.4888,732.9575,500,732.9575Z"/>
  </g>
</svg>
