<svg id="Layer_1" data-name="Layer 1" xmlns="http://www.w3.org/2000/svg" width="1000" height="1000" viewBox="0 0 1000 1000">
  <defs>
    <style>
      .cls-1 {
        fill: #4b86ff;
      }

      .cls-2 {
        fill: #fbae17;
      }
    </style>
  </defs>
  <g>
    <path class="cls-1" d="M524.169,625.6383A211.3226,211.3226,0,0,0,565.3358,500c0-117.2843-95.0777-212.362-212.362-212.362S140.6118,382.7157,140.6118,500,235.69,712.362,352.9738,712.362q2.8353,0,5.6527-.0749a354.7276,354.7276,0,0,0,97.92,90.1047,318.8283,318.8283,0,0,1-103.5726,17.182C176.478,819.5738,33.4,676.4958,33.4,500S176.478,180.4262,352.9738,180.4262,672.5476,323.5042,672.5476,500a318.0166,318.0166,0,0,1-50.7024,172.7715,175.1066,175.1066,0,0,1-97.6762-47.1332Z"/>
    <path class="cls-2" d="M475.1689,375.2688A211.3232,211.3232,0,0,0,434.667,501.1231c.62,117.2826,96.2,211.8562,213.4822,211.236s211.8562-96.2,211.236-213.4822-96.2-211.8562-213.4822-211.236q-2.8353.015-5.6522.1049A354.727,354.727,0,0,0,541.8557,198.16a318.83,318.83,0,0,1,103.48-17.7295c176.4933-.9334,320.3259,141.386,321.2593,317.8793S825.21,818.6359,648.7162,819.5693,328.39,678.1833,327.4568,501.69a318.017,318.017,0,0,1,49.7879-173.0372,175.1072,175.1072,0,0,1,97.9242,46.616Z"/>
  </g>
</svg>
