<svg id="Layer_1" data-name="Layer 1" xmlns="http://www.w3.org/2000/svg" width="1000" height="1000" viewBox="0 0 1000 1000">
  <defs>
    <style>
      .cls-1 {
        fill: #49262b;
      }

      .cls-2 {
        fill: #96566a;
      }

      .cls-3 {
        fill: #fbae17;
      }

      .cls-4 {
        fill: #e84d4d;
      }
    </style>
  </defs>
  <g>
    <path class="cls-1" d="M547.9711,190.4314a54.8322,54.8322,0,0,1,54.8322,54.8322v32.78c16.477-.2913,32.9553-.5378,49.4321-.8347V203.8668a60.09,60.09,0,0,0-60.09-60.09H458.3449a361.4467,361.4467,0,0,1-11.3508,46.6541Z"/>
    <path class="cls-2" d="M613.66,857.7642H142.8a38.575,38.575,0,0,1-38.575-38.575V166.775A38.575,38.575,0,0,1,142.8,128.2H613.66a38.575,38.575,0,0,1,38.575,38.575V819.1892A38.575,38.575,0,0,1,613.66,857.7642Zm-10.8571-89.6168V210.0541a35.2,35.2,0,0,0-35.2-35.2H188.857a35.2,35.2,0,0,0-35.2,35.2V768.1474a35.2,35.2,0,0,0,35.2,35.2H567.6033A35.2,35.2,0,0,0,602.8033,768.1474Z"/>
    <path class="cls-3" d="M182.527,838.2406l244.46,30.4277c1.8551.7413,23.1845,8.8333,42.9934-4.3616,21.1226-14.07,20.6157-39.0879,20.5621-40.5011q-.1559-325.41-.3116-650.8208c-.0385-1.6763-.98-24.9713-21.1851-37.3855-17.5742-10.7978-35.7778-4.7966-38.2164-3.9463L182.527,166.1308a63.0363,63.0363,0,0,0-63.0363,63.0363V775.2044A63.0363,63.0363,0,0,0,182.527,838.2406Z"/>
    <circle class="cls-2" cx="403.6212" cy="492.6316" r="30.5316"/>
    <path class="cls-4" d="M680.9824,627.6351H523.2551a23.366,23.366,0,0,1-23.366-23.3659V465.7348a23.366,23.366,0,0,1,23.366-23.366H680.9824V397.8445a10.1991,10.1991,0,0,1,15.2986-8.8326L890.6755,526.1694a10.199,10.199,0,0,1,0,17.6652L696.281,680.9921a10.1991,10.1991,0,0,1-15.2986-8.8326V627.6351Z"/>
  </g>
</svg>
