<svg id="Layer_1" data-name="Layer 1" xmlns="http://www.w3.org/2000/svg" width="1000" height="1000" viewBox="0 0 1000 1000">
  <defs>
    <style>
      .cls-1 {
        fill: #4b86ff;
      }

      .cls-2 {
        fill: #fbae17;
      }
    </style>
  </defs>
  <g>
    <path class="cls-1" d="M901.8666,275.2946l-54.5828,0a77.2018,77.2018,0,0,0,16.9107-46.2872,79.6428,79.6428,0,0,0-12.7231-43.51,86.941,86.941,0,0,0-21.5974-22.3591c-23.8428-17.3417-48.9074-17.78-56.4294-17.8054a97.7308,97.7308,0,0,0-28.9957,4.2819,94.3143,94.3143,0,0,0-32.2009,17.2019,86.4983,86.4983,0,0,0-13.8965,14.514,78.4552,78.4552,0,0,0-15.6277,43.6344c-.9673,26.564,12.5432,45.1447,16.6,50.33H645.0224c-6.7688.1914-34.1734,1.73-55.39,22.9433A80.5609,80.5609,0,0,0,570.21,330.3356a78.3089,78.3089,0,0,0-3.5212,23.2922v72.533a76.6708,76.6708,0,0,1,47.7952-16.9268c45.38,0,82.1671,40.6373,82.1671,90.766s-36.7875,90.766-82.1672,90.766a76.6712,76.6712,0,0,1-47.795-16.9267q0,36.2664,0,72.5328c0,5.2171.5212,32.9679,22.9433,55.39a78.0881,78.0881,0,0,0,55.39,22.9433H901.8666A78.3333,78.3333,0,0,0,980.2,646.3721V353.6278c.1484-6.8567-.2367-29.1965-16.2667-49.4278C941.2574,275.5809,906.3538,275.26,901.8666,275.2946Z"/>
    <path class="cls-2" d="M354.9776,275.2946h-54.583A76.6705,76.6705,0,0,1,317.3214,323.09c0,45.38-40.6373,82.1671-90.766,82.1671s-90.766-36.7875-90.766-82.1671a76.67,76.67,0,0,1,16.9268-47.795l-54.5829,0A78.3333,78.3333,0,0,0,19.8,353.6278V646.3721c.0769,6.9867,1.2086,29.8947,18.2976,50.3142a79.2454,79.2454,0,0,0,34.6085,23.8,78.306,78.306,0,0,0,25.4272,4.2192l54.5828,0A76.9425,76.9425,0,0,0,139.6,748.867a75.1336,75.1336,0,0,0-1.1306,43.5123,79.2422,79.2422,0,0,0,10.34,22.5476A86.6984,86.6984,0,0,0,166.4,834c25.836,20.7593,56.8549,20.7251,61.8121,20.6506A92.3344,92.3344,0,0,0,270.0646,844.63c6.8426-3.5247,37.3221-20.3526,45.2882-55.0441a77.6512,77.6512,0,0,0-.77-37.1946,76.4716,76.4716,0,0,0-14.1885-27.6854h54.583c6.7692-.1915,34.1736-1.73,55.39-22.9433a80.5628,80.5628,0,0,0,19.4212-32.0949,78.3077,78.3077,0,0,0,3.5221-23.2951q0-36.2664,0-72.5328a77.6291,77.6291,0,0,0,21.2136,12.072,75.1219,75.1219,0,0,0,40.1007,3.6275,81.7748,81.7748,0,0,0,34.5835-15.9444c22.2629-17.3935,28.8683-40.9112,30.8826-48.4966a100.4378,100.4378,0,0,0-1.0822-54.0339A88.28,88.28,0,0,0,538.75,435.3181c-4.7-4.96-22.84-23.5342-51.5408-25.8363a76.612,76.612,0,0,0-53.8982,16.679v-72.533a78.1509,78.1509,0,0,0-22.7818-55.225,79.7724,79.7724,0,0,0-33.9974-20.1054A78.3028,78.3028,0,0,0,354.9776,275.2946Z"/>
  </g>
</svg>
