<svg id="Layer_1" data-name="Layer 1" xmlns="http://www.w3.org/2000/svg" width="1000" height="1000" viewBox="0 0 1000 1000">
  <defs>
    <style>
      .cls-1 {
        fill: #6c4927;
      }

      .cls-2 {
        fill: #f7a914;
      }

      .cls-3 {
        fill: #fbae17;
      }

      .cls-4 {
        fill: #ffe177;
      }

      .cls-5 {
        fill: #e22d2d;
      }

      .cls-6 {
        fill: #a52626;
      }

      .cls-7 {
        fill: #d48c2f;
      }

      .cls-8 {
        fill: #4b86ff;
      }
    </style>
  </defs>
  <g>
    <path class="cls-1" d="M293.2966,730.5365H717.8909L706.7034,862.9874l-68.38-86.4512H359.8009l-66.5043,86.4512Z"/>
    <path class="cls-2" d="M724.2851,141.5529H664.347v43.9937a8.4553,8.4553,0,0,1-9.6286,9.55H358.23a10.5479,10.5479,0,0,1-8.2195-2.5832,10.7206,10.7206,0,0,1-3.17-8.924V141.5529H286.1444V698.7794a.758.758,0,0,0,.758.758H724.2851a.758.758,0,0,0,.758-.758Q724.6642,420.1661,724.2851,141.5529Z"/>
    <path class="cls-3" d="M706.7034,586.5784A65.0513,65.0513,0,1,1,771.7546,651.63V901.2667H706.7034Z"/>
    <path class="cls-3" d="M293.2966,586.5784A65.0513,65.0513,0,1,0,228.2454,651.63V901.2667h65.0512Z"/>
    <rect class="cls-4" x="293.2966" y="678.8713" width="413.4068" height="51.6652"/>
    <rect class="cls-5" x="371.2642" y="261.792" width="268.6592" height="379.5046" rx="27.6"/>
    <path class="cls-6" d="M377.8966,573.1924H622.1035a84.6,84.6,0,0,1,84.6,84.6v17.4211a15.4,15.4,0,0,1-15.4,15.4H308.6966a15.4,15.4,0,0,1-15.4-15.4V657.7924a84.6,84.6,0,0,1,84.6-84.6Z"/>
    <path class="cls-7" d="M505.5938,129.6542,436.063,173.59a25.4668,25.4668,0,0,0-12.82,23.0722v65.13H587.945v-65.13a24.7319,24.7319,0,0,0-.7828-6.5755c-3.1628-12.1684-14.8579-18.075-17.8938-19.499Z"/>
    <path class="cls-4" d="M538.3933,261.792h-66.14v-111.07l33.341-21.0679,32.7916,21.08Z"/>
    <circle class="cls-8" cx="316.4925" cy="138.2651" r="39.4535"/>
    <circle class="cls-8" cx="694.3284" cy="138.1868" r="39.4535"/>
    <path class="cls-3" d="M532.1711,420.2992q-13.3546-29.2317-26.71-58.4632a.3691.3691,0,0,0-.6887,0q-13.3352,29.2276-26.67,58.4554l-54.7967-22.5825a.7784.7784,0,0,0-1.1675.8527q16.3647,39.0539,32.73,78.1078a4.2424,4.2424,0,0,0,.997,1.5761,4.5118,4.5118,0,0,0,3.0056,1.245h92.6438a4.8421,4.8421,0,0,0,3.0055-1.245,5.061,5.061,0,0,0,1.0088-1.3919c1.23-2.5879,30.729-72.709,32.8493-77.7494a1.0244,1.0244,0,0,0-1.3384-1.4478Z"/>
  </g>
</svg>
