<svg id="Layer_1" data-name="Layer 1" xmlns="http://www.w3.org/2000/svg" viewBox="0 0 1000 1000"><defs><style>.cls-1{fill:#6b7280;}</style></defs><path class="cls-1" d="M771.31,500.71c-2.79-32.58-15.15-56.95-22.48-71-10-19.29-16.73-25.52-25-39a197.48,197.48,0,0,1-10.4-19.57,247.35,247.35,0,0,1-11.29-28l-36.13.47a60.92,60.92,0,0,1-7.51,23.9,73.69,73.69,0,0,1-14,17.82,57.43,57.43,0,0,0,14,9.12c8.82,4,13.3,3.3,22.06,7.42,5.61,2.65,12.37,5.83,14.84,10.61,5.92,11.42-11.55,34-27.36,47.29-31.92,26.82-78.78,33.94-119,23.76a145.15,145.15,0,0,1-49.2-23.12,146.69,146.69,0,0,1-62.36,25.87c-6.68,1.06-58.71,8.45-101.38-23.32-4.07-3-37.15-28.15-31.39-47.09,1.9-6.24,7.78-11.05,8-11.25,7.18-5.76,13.24-3.76,28-9.11,7.63-2.76,13.69-5,14.36-9.18s-4.43-7.31-8.41-11.23c-5.77-5.71-12-15.49-13.8-33.35l-35.19,0a244.8,244.8,0,0,1-19.31,43.55c-13.49,24.3-19.64,26.32-29.62,43.74-18.5,32.29-19.71,64.34-20.44,83.51-1.11,29.54,4.16,50.54,12.3,81.87a572,572,0,0,0,39.45,106.47,591.07,591.07,0,0,1-11.45-113.26c-.08-18.81.75-36.57,2.19-53.16,0-9.94,8.72-17.3,17.33-16.2,8,1,14.4,9.15,13.09,18.25-5.11,38.81-9.62,114.4,22.78,199.93A409.32,409.32,0,0,0,401.43,863.8a445.94,445.94,0,0,1-37.72-135.47,435.87,435.87,0,0,1-2.72-50c-.42-8.51,5.4-15.47,12-16.41,7.81-1.1,16.65,6.21,16.4,16.55A480.79,480.79,0,0,0,432.82,863a475.94,475.94,0,0,0,67,106,494.19,494.19,0,0,0,63.62-101,499.78,499.78,0,0,0,46.79-187.11c-.35-11.53,9.47-19.61,17.9-18.41,7.38,1.06,14,9.27,12.94,19.09A522.3,522.3,0,0,1,597,866.35a416.83,416.83,0,0,0,70-109c41-93.32,37.15-178.84,32-222.05a13.9,13.9,0,1,1,27.58-3.15,400.9,400.9,0,0,1-8.92,171.33,460.55,460.55,0,0,0,29.48-67,449.81,449.81,0,0,0,20.79-86C771.07,527.68,772.64,516.28,771.31,500.71Z"/><path class="cls-1" d="M498.71,376.85c9.68-5.57,27.44-13.62,49.48-11.88,21.11,1.66,36.58,11.55,46.38,17.82,12.62,8.06,14.86,12.68,33.93,26.86,11.41,8.48,21.23,14.73,27.72,18.66-8.09,7.81-27.62,24.42-57.13,29.13-54.33,8.67-93.72-30.8-97.84-35.06C496.44,426.46,441.09,472,381.94,452a102.74,102.74,0,0,1-39.33-24.79,160.85,160.85,0,0,0,26.58-13.57c23.63-15,26.4-25.46,47.79-37.05,8.67-4.69,21-11.21,37.89-11.87C475.44,363.88,491.27,372.22,498.71,376.85Z"/><path class="cls-1" d="M307,318.13V107.92l102,75.5Q454.21,107.21,499.41,31l90.28,152.42q51.93-44.53,103.85-89.08V318.13Z"/></svg>