<?xml version="1.0" encoding="UTF-8"?>
<svg width="512" height="512" viewBox="0 0 512 512" xmlns="http://www.w3.org/2000/svg" xmlns:xlink="http://www.w3.org/1999/xlink">
  <defs>
    <style>.bg-cls-1{fill:#262626;}</style>
    <style>.dice-cls-1{fill:#e5e5e5;}.dice-cls-2{fill:url(#dice-linear-gradient);}.dice-cls-3{fill:url(#dice-linear-gradient-2);}</style><linearGradient id="dice-linear-gradient" x1="139.1273" y1="308.5069" x2="256.0001" y2="308.5069" gradientUnits="userSpaceOnUse"><stop offset="0" stop-color="#ccc"/><stop offset="0.2725" stop-color="#bcbcbc"/><stop offset="0.8054" stop-color="#919191"/><stop offset="1" stop-color="gray"/></linearGradient><linearGradient id="dice-linear-gradient-2" x1="256.0001" y1="308.5069" x2="372.8727" y2="308.5069" xlink:href="#dice-linear-gradient"/>
  </defs>
  <g id="bg-Backgrounds"><g id="bg-Backgrounds"><rect id="bg-Black" class="bg-cls-1" width="512" height="512"/></g></g>
  <g id="dice-Dice"><g id="dice-Dice"><g id="dice-White"><path class="dice-cls-1" d="M256,274.6582l116.8726-67.6975L256,139.2633,139.1273,206.9607Z"/><polygon class="dice-cls-2" points="139.127 206.961 139.127 342.356 256 410.053 256 274.658 139.127 206.961"/><polygon class="dice-cls-3" points="372.873 206.961 256 274.658 256 410.053 372.873 342.356 372.873 206.961"/></g></g></g>
  <g id="pattern-Pattern"><g id="pattern-Pattern"><g id="pattern-Right"><g id="pattern-Thre"><path d="M340.75,247.2623c7.056-4.0739,12.8-.8287,12.8232,7.3033.02,8.1037-5.6844,17.9846-12.7378,22.0585s-12.7945.8019-12.8173-7.3032C327.9957,261.1859,333.697,251.3334,340.75,247.2623Z"/><path d="M314.5834,295.2332c7.0821-4.0882,12.7977-.7971,12.8206,7.3062s-5.6587,17.97-12.7348,22.0586c-7.056,4.0739-12.7975.8-12.82-7.3033C301.8231,309.1884,307.53,299.3072,314.5834,295.2332Z"/><path d="M288.4112,339.5674c7.0589-4.071,12.7948-.7972,12.82,7.3062s-5.6785,17.9861-12.7345,22.0585c-7.05,4.074-12.7977.8-12.8235-7.3047C275.6535,353.524,281.3607,343.64,288.4112,339.5674Z"/></g></g><g id="pattern-Left"><g id="pattern-Two"><path d="M232.2854,346.4507a26.6836,26.6836,0,0,0-9.2824-9.794c-3.3608-1.9434-6.7274-2.409-9.3053-.94-5.1556,2.9179-5.1842,12.4717-.0629,21.3427a26.7531,26.7531,0,0,0,9.2824,9.794c3.3666,1.9417,6.7332,2.4061,9.3108.9388C237.3608,364.8439,237.39,355.29,232.2854,346.4507Z"/><path d="M181.8724,259.13a26.7448,26.7448,0,0,0-9.2825-9.7954c-3.3607-1.9417-6.7329-2.4076-9.3108-.9388-5.1327,2.9279-5.1614,12.4819-.0571,21.3412a26.7461,26.7461,0,0,0,9.2822,9.7955c3.361,1.942,6.7332,2.4076,9.3111.9388C186.948,277.5217,186.9767,267.9677,181.8724,259.13Z"/></g></g><g id="pattern-Top"><path id="pattern-One" d="M269.6963,199.0079c-7.6178-4.3977-19.9178-4.3959-27.4831,0-7.551,4.3878-7.5112,11.5142.1029,15.9111,7.6,4.39,19.9052,4.3886,27.4561,0C277.3374,210.5221,277.2978,203.3967,269.6963,199.0079Z"/></g></g></g>
</svg>