<svg id="Layer_1" data-name="Layer 1" xmlns="http://www.w3.org/2000/svg" width="936.5935" height="811.1138" viewBox="0 0 936.5935 811.1138"><defs><style>.cls-1{fill:#0797d6;}.cls-2{fill:#d3b174;}.cls-3{fill:#49723a;}.cls-4{fill:#75706d;}.cls-5{fill:#88c043;}.cls-6{fill:#d2a234;}.cls-7{fill:#a4661d;}</style></defs><polygon class="cls-1" points="702.445 0 234.148 0 0 405.557 234.148 811.114 702.445 811.114 936.593 405.557 702.445 0"/><polygon class="cls-2" points="543.574 449.018 543.574 362.095 468.297 318.634 393.019 362.095 393.019 449.018 468.297 492.48 543.574 449.018"/><polygon class="cls-3" points="694.13 449.018 694.13 362.095 618.852 318.634 543.574 362.095 543.574 449.018 618.852 492.48 694.13 449.018"/><polygon class="cls-4" points="844.685 449.018 844.685 362.095 769.407 318.634 694.13 362.095 694.13 449.018 769.407 492.48 844.685 449.018"/><polygon class="cls-3" points="393.019 449.018 393.019 362.095 317.742 318.634 242.464 362.095 242.464 449.018 317.742 492.48 393.019 449.018"/><polygon class="cls-5" points="543.574 188.142 543.574 101.219 468.297 57.757 393.019 101.219 393.019 188.142 468.297 231.603 543.574 188.142"/><polygon class="cls-3" points="694.13 188.142 694.13 101.219 618.852 57.757 543.574 101.219 543.574 188.142 618.852 231.603 694.13 188.142"/><polygon class="cls-4" points="393.019 188.142 393.019 101.219 317.742 57.757 242.464 101.219 242.464 188.142 317.742 231.603 393.019 188.142"/><polygon class="cls-6" points="543.574 709.895 543.574 622.972 468.297 579.511 393.019 622.972 393.019 709.895 468.297 753.357 543.574 709.895"/><polygon class="cls-5" points="694.13 709.895 694.13 622.972 618.852 579.511 543.574 622.972 543.574 709.895 618.852 753.357 694.13 709.895"/><polygon class="cls-7" points="393.019 709.895 393.019 622.972 317.742 579.511 242.464 622.972 242.464 709.895 317.742 753.357 393.019 709.895"/><polygon class="cls-3" points="317.742 579.457 317.742 492.534 242.464 449.072 167.186 492.534 167.186 579.457 242.464 622.918 317.742 579.457"/><polygon class="cls-4" points="468.297 579.457 468.297 492.534 393.019 449.072 317.742 492.534 317.742 579.457 393.019 622.918 468.297 579.457"/><polygon class="cls-6" points="618.852 579.457 618.852 492.534 543.574 449.072 468.297 492.534 468.297 579.457 543.574 622.918 618.852 579.457"/><polygon class="cls-5" points="769.407 579.457 769.407 492.534 694.13 449.072 618.852 492.534 618.852 579.457 694.13 622.918 769.407 579.457"/><polygon class="cls-6" points="317.742 318.58 317.742 231.657 242.464 188.195 167.186 231.657 167.186 318.58 242.464 362.042 317.742 318.58"/><polygon class="cls-7" points="468.297 318.58 468.297 231.657 393.019 188.195 317.742 231.657 317.742 318.58 393.019 362.042 468.297 318.58"/><polygon class="cls-5" points="618.852 318.58 618.852 231.657 543.574 188.195 468.297 231.657 468.297 318.58 543.574 362.042 618.852 318.58"/><polygon class="cls-7" points="769.407 318.58 769.407 231.657 694.13 188.195 618.852 231.657 618.852 318.58 694.13 362.042 769.407 318.58"/><polygon class="cls-6" points="242.464 449.018 242.464 362.095 167.186 318.634 91.909 362.095 91.909 449.018 167.186 492.48 242.464 449.018"/></svg>