<svg id="Layer_1" data-name="Layer 1" xmlns="http://www.w3.org/2000/svg" width="512" height="512" viewBox="0 0 512 512"><defs><style>.cls-1{fill:#986633;}.cls-1,.cls-2,.cls-3{stroke:#000;stroke-miterlimit:10;stroke-width:3px;}.cls-2{fill:#33cb33;}.cls-3{fill:#3366cb;}</style></defs><g id="Backgrounds"><g id="BoardGame"><path class="cls-1" d="M256,446.7761l178.8442-103.368L256,240.04,77.1558,343.4081Z"/><path class="cls-2" d="M-101.6883,446.7761,77.1558,343.4081-101.6883,240.04l-178.8442,103.368Z"/><path class="cls-2" d="M613.6883,446.7761l178.8442-103.368L613.6883,240.04,434.8442,343.4081Z"/><path class="cls-2" d="M256,240.04l178.8442-103.368L256,33.3041,77.1558,136.6721Z"/><path class="cls-1" d="M-101.6883,240.04,77.1558,136.6721-101.6883,33.3041l-178.8442,103.368Z"/><path class="cls-3" d="M613.6883,240.04l178.8442-103.368L613.6883,33.3041,434.8442,136.6721Z"/><path class="cls-3" d="M256,33.3041,434.8442-70.064,256-173.432,77.1558-70.064Z"/><path class="cls-2" d="M256,653.5122,434.8442,550.1441,256,446.7761,77.1558,550.1441Z"/><path class="cls-1" d="M-101.6883,653.5122,77.1558,550.1441l-178.8441-103.368-178.8442,103.368Z"/><path class="cls-1" d="M613.6883,653.5122,792.5325,550.1441,613.6883,446.7761,434.8442,550.1441Z"/><path class="cls-2" d="M434.8441,343.4081,613.6883,240.04,434.8441,136.6721,256,240.04Z"/><path class="cls-1" d="M77.1558,343.4081,256,240.04,77.1558,136.6721-101.6883,240.04Z"/><path class="cls-3" d="M434.8441,136.6721,613.6883,33.3041,434.8441-70.064,256,33.3041Z"/><path class="cls-2" d="M77.1558,136.6721,256,33.3041,77.1558-70.064-101.6883,33.3041Z"/><path class="cls-1" d="M77.1558,550.1441,256,446.7761,77.1558,343.4081l-178.8441,103.368Z"/><path class="cls-1" d="M434.8441,550.1441l178.8442-103.368L434.8441,343.4081,256,446.7761Z"/></g></g></svg>