<svg id="Layer_1" data-name="Layer 1" xmlns="http://www.w3.org/2000/svg" width="512" height="512" viewBox="0 0 512 512"><defs><style>.cls-1{fill:#ffb805;}</style></defs><g id="Accessories"><g id="Belt"><polygon points="139.127 310.4 256 379.8 256 402.4 139.127 334.6 139.127 310.4"/><path d="M372.8727,310.4023,256,379.8l0,22.6,116.8727-67.7906Z"/><path class="cls-1" d="M205.9991,373.9157l-16.77-9.7288c-2.7718-1.608-5.0179-6.25-4.9839-10.2943l.09-10.697c.0335-3.98,2.3033-5.8919,5.0369-4.2687l16.5416,9.8225c2.6771,1.59,4.8812,6.1118,4.9051,10.0688l.0645,10.6338C210.9072,373.4723,208.7128,375.49,205.9991,373.9157Zm2.9143-6.6892-.0425-8.493c-.0158-3.1655-1.7784-6.7839-3.9214-8.0535l-14.6033-8.6516c-2.1823-1.2929-3.9907.2415-4.0139,3.4227l-.0624,8.536c-.0235,3.2222,1.7666,6.9192,3.9732,8.2024l14.7643,8.5857C207.1738,372.035,208.9294,370.4323,208.9134,367.2265Z"/><path class="cls-1" d="M209.5445,364.8535l-12.4689-7.3092a1.531,1.531,0,0,1-.5919-1.219l.0023-1.276c.0008-.4782.2681-.7125.5939-.521l12.4486,7.3177a1.5349,1.5349,0,0,1,.5889,1.21l.0072,1.2721C210.1273,364.8055,209.8663,365.0421,209.5445,364.8535Z"/></g></g></svg>