<svg id="Layer_1" data-name="Layer 1" xmlns="http://www.w3.org/2000/svg" width="512" height="512" viewBox="0 0 512 512">
  <defs>
    <style>
      .cls-1 {
        fill: #f279ae;
      }

      .cls-2 {
        fill: #9b456e;
      }

      .cls-3 {
        fill: #e86da8;
      }
    </style>
  </defs>
  <g id="Bow">
    <path class="cls-1" d="M185,238.4667c-4.1107-5.4959-7.2457-9.8909-9.2-12.6667-4.736-6.7268-6.2413-9.2038-9.8667-10.611-.9924-.3852-5.4961-2.2277-9.7333,0a10.81,10.81,0,0,0-4.9333,5.9443c-1.062,3.08.2814,3.858,0,9.3334-.2479,4.8224-1.3551,5.4857-.8,8.8a11.166,11.166,0,0,0,2.6666,6.1333c2.3249,2.3846,5.4223,2.6768,11.4667,3.0667,6.1174.3946,11.3954.64,15.6.8Z"/>
    <path class="cls-1" d="M197.0988,247q-1.3829,4-2.7655,8c1.4765,1.5208,11.991,12.3068,19.5667,17.9,1.5348,1.1332,3.9937,2.8245,7,2.5a8.4412,8.4412,0,0,0,4.7126-2.2718c1.6625-1.536,2.2693-3.2548,3.5207-8.9282,2.2949-10.4039,1.8425-11.95,1.2-13.2a9.6057,9.6057,0,0,0-4.56-4c-4.04-2.0861-7.7413-1.3887-13.707-.8C208.4877,246.5532,203.4,246.9358,197.0988,247Z"/>
    <path class="cls-2" d="M172.3318,244.7333l8.04.9416.1767-.8749Z"/>
    <path class="cls-2" d="M174.0138,242.65l7.05,1.35.2058-.5612Z"/>
    <polygon class="cls-2" points="194.933 251.133 200.8 255.807 195.267 250.4 194.933 251.133"/>
    <path class="cls-3" d="M185.4,253.4c-3.3711-1.2947-5.0782-1.9726-6.1333-3.4667-2.3316-3.3015-.902-7.4515-.8-7.7333A8.9118,8.9118,0,0,1,183.4,237c5.1379-1.8686,10.0594,3.0017,10.9333,3.8667,1.0364,1.0255,3.932,3.8911,3.8667,8.1333-.0107.6964-.0718,4.6631-2.6667,6.2667C193.5122,256.5156,190.8081,255.4771,185.4,253.4Z"/>
    <path class="cls-2" d="M179.7,235.1c-4.2891-3.4409-18.4246-14.872-19.3-17.4-.0887-.2562-.3387-.978,0-1.4.5231-.652,2.1183-.1742,2.7,0C166.7137,217.3823,176.62,230.8484,179.7,235.1Z"/>
    <path class="cls-2" d="M202.1,248.4a46.1339,46.1339,0,0,0,14.7,0c.267-.0483,5.2215-.9475,7.5.9.2531.2052,1.0424.8452.9,1.4-.1282.4993-.9512.6954-1.5.8a16.816,16.816,0,0,1-6.6.1C213.744,250.7653,208.632,249.748,202.1,248.4Z"/>
  </g>
</svg>
