<svg id="Layer_1" data-name="Layer 1" xmlns="http://www.w3.org/2000/svg" width="512" height="512" viewBox="0 0 512 512">
  <defs>
    <style>
      .cls-1 {
        fill: #fff;
      }
    </style>
  </defs>
  <g id="Accessories">
    <g id="Sunglasses">
      <path d="M139.2,246.2,256,313.4v3.1333A22.117,22.117,0,0,1,249.8,327.4c-6.7744,6.3689-15.5423,5.9083-17.6467,5.7978C216.0086,332.35,206.57,315.931,205,313.2a46.1383,46.1383,0,0,1-5.6-27.4c-3.4728,12.7052-9.7082,15.9848-11.7333,16.8667C174.0094,308.6141,153.6342,291.8278,145,275a54.7771,54.7771,0,0,1-5.8727-24.2Q139.1636,248.5,139.2,246.2Z"/>
      <path d="M256,313.4l53.2-30.5a11.4054,11.4054,0,0,1,2.9-.6c1.5476-.114,2.5655-.189,3.2.5a2.6563,2.6563,0,0,1,.1,3,3.5937,3.5937,0,0,1-3,1.4,5.3509,5.3509,0,0,1-3.4-1l-53,30.3333Z"/>
      <path class="cls-1" d="M173.1763,302.1645,167.9333,283.8l-3.0666,1.4667-8.054-28.9334,9.8891,5.69,3.3649,16.31,3.11-1.3333,7.1364,26.8405a23.937,23.937,0,0,1-7.1364-1.676Z"/>
      <path class="cls-1" d="M227.41,332.48l-4.8762-17.08-3.0666,1.4666q-4.0536-14.575-8.107-29.15l9.8945,5.6928,3.4125,16.524,3.11-1.3333,6.7413,24.643a26.5037,26.5037,0,0,1-7.1081-.7633Z"/>
    </g>
  </g>
</svg>
