<svg id="Layer_1" data-name="Layer 1" xmlns="http://www.w3.org/2000/svg" width="512" height="512" viewBox="0 0 512 512"><g id="Pattern"><g id="Right"><g id="Six"><path d="M340.0048,248.1875c6.436-3.716,11.6756-.756,11.6964,6.6615.0181,7.3916-5.1849,16.4043-11.6185,20.12s-11.67.7314-11.691-6.6615C328.3709,260.8875,333.5712,251.9008,340.0048,248.1875Z"/><path d="M340.0048,280.195c6.436-3.7159,11.6756-.7559,11.6964,6.6615.0181,7.3916-5.1849,16.4043-11.6185,20.12s-11.67.7313-11.691-6.6616C328.3709,292.8951,333.5712,283.9083,340.0048,280.195Z"/><path d="M340.006,311.69c6.436-3.7146,11.6756-.73,11.694,6.6642.0232,7.3913-5.1822,16.4056-11.6131,20.12-6.4387,3.7146-11.6732.7285-11.694-6.6628C328.3694,324.42,333.5751,315.4059,340.006,311.69Z"/><path d="M288.73,304.7761c-6.4306,3.7146-11.6729.7285-11.6886-6.6642-.0235-7.4175,5.1822-16.4082,11.6131-20.1189,6.4336-3.7159,11.6756-.7559,11.694,6.6616C300.3688,292.0472,295.1658,301.06,288.73,304.7761Z"/><path d="M288.73,336.7867c-6.4306,3.7147-11.6729.7285-11.6886-6.6642-.0235-7.4174,5.1822-16.4082,11.6131-20.1188,6.4336-3.716,11.6756-.756,11.694,6.6615C300.3688,324.0579,295.1658,333.0708,288.73,336.7867Z"/><path d="M288.6568,341.5123c6.4386-3.7133,11.6705-.7272,11.6937,6.6642s-5.18,16.4055-11.6155,20.12c-6.4309,3.7159-11.6732.73-11.6967-6.6629C277.02,354.2425,282.2259,345.2269,288.6568,341.5123Z"/></g></g><g id="Left"><g id="Five"><path d="M232.7974,346.9627a26.6836,26.6836,0,0,0-9.2824-9.794c-3.3608-1.9434-6.7274-2.409-9.3053-.94-5.1556,2.9179-5.1842,12.4717-.0629,21.3427a26.7531,26.7531,0,0,0,9.2824,9.794c3.3666,1.9417,6.7332,2.4061,9.3108.9388C237.8728,365.3559,237.9015,355.8021,232.7974,346.9627Z"/><path d="M207.073,302.7739a26.6939,26.6939,0,0,0-9.2766-9.7727c-3.3607-1.942-6.7273-2.4134-9.2994-.9517-5.1555,2.9394-5.1784,12.4934-.0629,21.3427a26.6933,26.6933,0,0,0,9.288,9.7981c3.3611,1.9406,6.7218,2.4079,9.2883.9462C212.166,321.1986,212.1944,311.6445,207.073,302.7739Z"/><path d="M232.755,287.97a26.6951,26.6951,0,0,0-9.2766-9.7726c-3.3607-1.942-6.7273-2.4134-9.2994-.9517-5.1556,2.9394-5.1784,12.4934-.0629,21.3427a26.6941,26.6941,0,0,0,9.288,9.7981c3.361,1.9406,6.7218,2.4079,9.2883.9461C237.8479,306.3952,237.8763,296.8411,232.755,287.97Z"/><path d="M181.3917,317.3829a26.6943,26.6943,0,0,0-9.2766-9.7726c-3.3608-1.942-6.7274-2.4135-9.3-.9517-5.1555,2.9393-5.1783,12.4934-.0629,21.3427a26.6941,26.6941,0,0,0,9.288,9.7981c3.3611,1.94,6.7218,2.4079,9.2883.9461C186.4846,335.8076,186.513,326.2536,181.3917,317.3829Z"/><path d="M181.3985,258.6177a26.7446,26.7446,0,0,0-9.2824-9.7954c-3.3608-1.9417-6.7329-2.4076-9.3108-.9388-5.1328,2.9279-5.1615,12.4819-.0571,21.3412A26.7459,26.7459,0,0,0,172.03,279.02c3.3611,1.942,6.7333,2.4076,9.3112.9388C186.4742,277.01,186.5029,267.4557,181.3985,258.6177Z"/></g></g><g id="Top"><g id="Four"><path d="M328.5763,199.0079c-7.6178-4.3977-19.9178-4.3959-27.4831,0-7.551,4.3878-7.5112,11.5142.1029,15.9111,7.6,4.39,19.9052,4.3886,27.4561,0C336.2174,210.5221,336.1778,203.3967,328.5763,199.0079Z"/><path d="M210.8163,199.0079c-7.6178-4.3977-19.9178-4.3959-27.4831,0-7.551,4.3878-7.5112,11.5142.1029,15.9111,7.6,4.39,19.9052,4.3886,27.4561,0C218.4574,210.5221,218.4178,203.3967,210.8163,199.0079Z"/><path d="M269.6963,233.3119c-7.6178-4.3977-19.9178-4.3959-27.4831,0-7.551,4.3878-7.5112,11.5142.1029,15.9111,7.6,4.39,19.9052,4.3886,27.4561,0C277.3374,244.8261,277.2978,237.7007,269.6963,233.3119Z"/><path d="M269.6963,164.7039c-7.6178-4.3977-19.9178-4.3959-27.4831,0-7.551,4.3878-7.5112,11.5142.1029,15.9111,7.6,4.39,19.9052,4.3886,27.4561,0C277.3374,176.2181,277.2978,169.0927,269.6963,164.7039Z"/></g></g></g></svg>