<svg id="Layer_1" data-name="Layer 1" xmlns="http://www.w3.org/2000/svg" width="512" height="512" viewBox="0 0 512 512"><g id="Pattern"><g id="Right"><path id="One" d="M314.5834,295.2332c7.0821-4.0882,12.7977-.7971,12.8206,7.3062s-5.6587,17.97-12.7348,22.0586c-7.056,4.0739-12.7975.8-12.82-7.3033C301.8231,309.1884,307.53,299.3072,314.5834,295.2332Z"/></g><g id="Left"><g id="Four"><path d="M232.7974,346.9627a26.6836,26.6836,0,0,0-9.2824-9.794c-3.3608-1.9434-6.7274-2.409-9.3053-.94-5.1556,2.9179-5.1842,12.4717-.0629,21.3427a26.7531,26.7531,0,0,0,9.2824,9.794c3.3666,1.9417,6.7332,2.4061,9.3108.9388C237.8728,365.3559,237.9015,355.8021,232.7974,346.9627Z"/><path d="M232.755,287.97a26.6951,26.6951,0,0,0-9.2766-9.7726c-3.3607-1.942-6.7273-2.4134-9.2994-.9517-5.1556,2.9394-5.1784,12.4934-.0629,21.3427a26.6941,26.6941,0,0,0,9.288,9.7981c3.361,1.9406,6.7218,2.4079,9.2883.9461C237.8479,306.3952,237.8763,296.8411,232.755,287.97Z"/><path d="M181.3917,317.3829a26.6943,26.6943,0,0,0-9.2766-9.7726c-3.3608-1.942-6.7274-2.4135-9.3-.9517-5.1555,2.9393-5.1783,12.4934-.0629,21.3427a26.6941,26.6941,0,0,0,9.288,9.7981c3.3611,1.94,6.7218,2.4079,9.2883.9461C186.4846,335.8076,186.513,326.2536,181.3917,317.3829Z"/><path d="M181.3985,258.6177a26.7446,26.7446,0,0,0-9.2824-9.7954c-3.3608-1.9417-6.7329-2.4076-9.3108-.9388-5.1328,2.9279-5.1615,12.4819-.0571,21.3412A26.7459,26.7459,0,0,0,172.03,279.02c3.3611,1.942,6.7333,2.4076,9.3112.9388C186.4742,277.01,186.5029,267.4557,181.3985,258.6177Z"/></g></g><g id="Top"><g id="Five"><path d="M328.5763,199.0079c-7.6178-4.3977-19.9178-4.3959-27.4831,0-7.551,4.3878-7.5112,11.5142.1029,15.9111,7.6,4.39,19.9052,4.3886,27.4561,0C336.2174,210.5221,336.1778,203.3967,328.5763,199.0079Z"/><path d="M210.8163,199.0079c-7.6178-4.3977-19.9178-4.3959-27.4831,0-7.551,4.3878-7.5112,11.5142.1029,15.9111,7.6,4.39,19.9052,4.3886,27.4561,0C218.4574,210.5221,218.4178,203.3967,210.8163,199.0079Z"/><path d="M269.6963,199.0079c-7.6178-4.3977-19.9178-4.3959-27.4831,0-7.551,4.3878-7.5112,11.5142.1029,15.9111,7.6,4.39,19.9052,4.3886,27.4561,0C277.3374,210.5221,277.2978,203.3967,269.6963,199.0079Z"/><path d="M269.6963,233.3119c-7.6178-4.3977-19.9178-4.3959-27.4831,0-7.551,4.3878-7.5112,11.5142.1029,15.9111,7.6,4.39,19.9052,4.3886,27.4561,0C277.3374,244.8261,277.2978,237.7007,269.6963,233.3119Z"/><path d="M269.6963,164.7039c-7.6178-4.3977-19.9178-4.3959-27.4831,0-7.551,4.3878-7.5112,11.5142.1029,15.9111,7.6,4.39,19.9052,4.3886,27.4561,0C277.3374,176.2181,277.2978,169.0927,269.6963,164.7039Z"/></g></g></g></svg>