<svg id="Layer_1" data-name="Layer 1" xmlns="http://www.w3.org/2000/svg" width="512" height="512" viewBox="0 0 512 512"><g id="Pattern"><g id="Right"><g id="Two"><path d="M340.9274,309.2484c7.056-4.0725,12.8-.8,12.8206,7.3062.0254,8.1033-5.6815,17.986-12.7319,22.0585-7.0589,4.0724-12.7977.7986-12.82-7.3048C328.17,323.2047,333.877,313.3223,340.9274,309.2484Z"/><path d="M288.32,306.9449c-7.05,4.0725-12.7975.7987-12.8147-7.3062-.0258-8.132,5.6814-17.9889,12.7318-22.057,7.0534-4.0739,12.8-.8288,12.8206,7.3033C301.08,292.99,295.3759,302.871,288.32,306.9449Z"/></g></g><g id="Left"><g id="Three"><path d="M207.073,302.7739a26.6939,26.6939,0,0,0-9.2766-9.7727c-3.3607-1.942-6.7273-2.4134-9.2994-.9517-5.1555,2.9394-5.1784,12.4934-.0629,21.3427a26.6933,26.6933,0,0,0,9.288,9.7981c3.3611,1.9406,6.7218,2.4079,9.2883.9462C212.166,321.1986,212.1944,311.6445,207.073,302.7739Z"/><path d="M232.755,287.97a26.6951,26.6951,0,0,0-9.2766-9.7726c-3.3607-1.942-6.7273-2.4134-9.2994-.9517-5.1556,2.9394-5.1784,12.4934-.0629,21.3427a26.6941,26.6941,0,0,0,9.288,9.7981c3.361,1.9406,6.7218,2.4079,9.2883.9461C237.8479,306.3952,237.8763,296.8411,232.755,287.97Z"/><path d="M181.3917,317.3829a26.6943,26.6943,0,0,0-9.2766-9.7726c-3.3608-1.942-6.7274-2.4135-9.3-.9517-5.1555,2.9393-5.1783,12.4934-.0629,21.3427a26.6941,26.6941,0,0,0,9.288,9.7981c3.3611,1.94,6.7218,2.4079,9.2883.9461C186.4846,335.8076,186.513,326.2536,181.3917,317.3829Z"/></g></g><g id="Top"><g id="Six"><path d="M330.2232,199.7619c-6.8969-3.9815-18.0329-3.98-24.8822,0-6.8365,3.9727-6.8,10.4246.0931,14.4054,6.88,3.9742,18.0215,3.9733,24.8577,0C337.1412,210.1865,337.1053,203.7354,330.2232,199.7619Z"/><path d="M299.5525,217.7059c-6.8969-3.9815-18.0329-3.98-24.8822,0-6.8364,3.9727-6.8,10.4246.0931,14.4054,6.88,3.9742,18.0215,3.9734,24.8578,0C306.4705,228.1305,306.4347,221.6794,299.5525,217.7059Z"/><path d="M206.4481,199.7605c-6.8969-3.9816-18.0328-3.98-24.8822,0-6.8364,3.9726-6.8,10.4245.0931,14.4054,6.8805,3.9741,18.0215,3.9733,24.8578,0C213.3661,210.185,213.33,203.7339,206.4481,199.7605Z"/><path d="M268.4,235.6005c-6.8969-3.9816-18.0328-3.98-24.8822,0-6.8364,3.9726-6.8,10.4245.0931,14.4054,6.8805,3.9741,18.0215,3.9733,24.8578,0C275.3181,246.025,275.2823,239.5739,268.4,235.6005Z"/><path d="M268.7805,163.5828c-6.8968-3.9815-18.0328-3.98-24.8822,0-6.8364,3.9727-6.8,10.4246.0932,14.4054,6.88,3.9742,18.0214,3.9734,24.8577,0C275.6985,174.0074,275.6627,167.5563,268.7805,163.5828Z"/><path d="M237.8769,181.5787c-6.8969-3.9815-18.0329-3.98-24.8822,0-6.8364,3.9727-6.8,10.4246.0931,14.4054,6.8805,3.9742,18.0215,3.9734,24.8578,0C244.7949,192.0033,244.7591,185.5522,237.8769,181.5787Z"/></g></g></g></svg>