<svg id="Layer_1" data-name="Layer 1" xmlns="http://www.w3.org/2000/svg" width="512" height="512" viewBox="0 0 512 512"><defs><style>.cls-1{opacity:0.35;}.cls-2{fill:#2d2d2d;}</style></defs><g id="Pattern"><g id="Mistery"><g class="cls-1"><path class="cls-2" d="M358.24,241.792c4.4125-2.5433,8.0021-8.765,7.9851-13.8278-.0117-5.0941-3.6238-7.1245-8.0363-4.58-4.4243,2.5563-7.9966,8.7367-7.9793,13.8278C350.2212,242.2767,353.8163,244.35,358.24,241.792Z"/><path class="cls-2" d="M270.7724,292.2966c4.43-2.558,7.9963-8.7653,7.979-13.8278-.0114-5.0929-3.6007-7.1391-8.03-4.58-4.4354,2.5592-8.0022,8.7352-7.9849,13.8278C262.753,292.78,266.3368,294.8544,270.7724,292.2966Z"/><path class="cls-2" d="M271.001,374.376c-4.43,2.5592-7.9963,8.765-7.9793,13.8278.0114,5.0941,3.601,7.1406,8.0308,4.5811,4.4353-2.5577,8.0018-8.7378,7.9848-13.83C279.02,373.8917,275.4363,371.8183,271.001,374.376Z"/><path class="cls-2" d="M358.4805,323.8717c-4.4356,2.5592-7.9965,8.7636-7.9848,13.8278.017,5.0926,3.6007,7.1391,8.0361,4.5811,4.4069-2.5434,7.9965-8.7364,7.9851-13.8293C366.5,323.3874,362.8816,321.3283,358.4805,323.8717Z"/><path class="cls-2" d="M344.0425,341.4261l-58.552,33.8059c-.0231-9.1765-6.5275-12.8776-14.5068-8.2708l-.1884-67.2513c7.9848-4.6112,14.438-15.7911,14.4093-24.9679l58.5521-33.803c.0228,9.1753,6.5274,12.8776,14.5123,8.2652l.1887,67.2556C350.4726,321.07,344.0139,332.2525,344.0425,341.4261Zm-44.5144-46.6777,6.55,5.3516c.16-.26,3.1781-5.1956,6.4417-7.082,2.6063-1.503,4.8526-.8387,4.8582,1.8191.0231,6.5717-10.6655,14.6165-10.6368,25.1649l.0169,3.8881,11.2944-6.52-.0055-2.7992c-.0173-6.9647,11.5855-15.5439,11.5513-28.3559-.0342-10.0726-8.2476-10.5669-15.8725-6.1673A40.7831,40.7831,0,0,0,299.5281,294.7484ZM317.83,334.7859l-.0284-11.6944-10.757,6.2129.0286,11.6932Z"/></g><g class="cls-1"><path class="cls-2" d="M241.6105,292.2966c4.4327,2.5578,8.022.4829,8.0364-4.58.0143-5.0926-3.5524-11.27-7.9849-13.8278-4.4268-2.5592-8.0249-.5145-8.0393,4.577C233.6113,283.5287,237.1781,289.7371,241.6105,292.2966Z"/><path class="cls-2" d="M241.379,374.376c-4.4353-2.5577-8.0249-.4858-8.0392,4.5784-.0115,5.0927,3.5524,11.2728,7.9878,13.83,4.4268,2.56,8.0222.513,8.0337-4.5811C249.3753,383.141,245.8088,376.9352,241.379,374.376Z"/><path class="cls-2" d="M153.9,323.87c-4.4067-2.5434-8.0191-.4843-8.0364,4.58-.0114,5.0927,3.5782,11.2857,7.9852,13.83,4.43,2.558,8.0191.51,8.0363-4.5825C161.8987,332.6353,158.3322,326.4309,153.9,323.87Z"/><path class="cls-2" d="M154.1339,241.7894c4.4327,2.5607,8.0194.4843,8.0334-4.577.0144-5.0926-3.55-11.2686-7.9819-13.8293-4.4011-2.5434-8.0249-.513-8.0364,4.5785C146.1347,233.027,149.73,239.2472,154.1339,241.7894Z"/><path class="cls-2" d="M226.8869,375.2291l-58.5494-33.803c.0257-9.1765-6.4072-20.3436-14.4149-24.9692l.1885-67.2527c8.0106,4.6238,14.4865.91,14.5123-8.2667l58.5521,33.8045c-.0287,9.1738,6.4244,20.3553,14.4151,24.9679l-.1914,67.2542C233.4115,362.3514,226.9153,366.054,226.8869,375.2291Zm-36.8237-43.031,10.74,6.1973.0313-11.6944L190.1,320.5036Zm6.9589-53.0922c-9.1081-5.2583-13.9578-1.8806-14.215-1.7032l6.4988,12.8861a7.1841,7.1841,0,0,1,6.4616.3673c2.5806,1.49,4.8126,4.7411,4.807,7.3989-.0173,6.5732-10.6857,2.2906-10.7173,12.839l-.0055,3.89,11.2657,6.5061.0085-2.7966c.02-6.9687,11.6631-2.119,11.7-14.9337C212.8575,293.4868,204.6411,283.5055,197.0221,279.1059Z"/></g><g class="cls-1"><path class="cls-2" d="M264.2335,252.8263c-4.4069-2.5434-11.5686-2.5607-15.97,0-4.4011,2.5551-4.35,6.7019.0512,9.2482,4.4357,2.5577,11.5689,2.5577,15.97,0S268.6633,255.3814,264.2335,252.8263Z"/><path class="cls-2" d="M351.1416,202.3193c-4.407-2.5436-11.5918-2.5436-15.97,0-4.4011,2.5578-4.3555,6.7046.0515,9.2509,4.4353,2.5577,11.5686,2.5577,15.97,0C355.5711,209.0239,355.5711,204.8771,351.1416,202.3193Z"/><path class="cls-2" d="M247.7722,161.0773c4.4067,2.5463,11.5686,2.5577,15.97,0,4.3727-2.5437,4.3554-6.7045-.0515-9.2482-4.43-2.5577-11.5914-2.5434-15.97,0C243.32,154.39,243.3424,158.5222,247.7722,161.0773Z"/><path class="cls-2" d="M176.7827,202.3334c-4.43-2.5577-11.5686-2.5577-15.97,0-4.4011,2.5606-4.378,6.6931.0515,9.2511,4.4069,2.5434,11.5686,2.5577,15.97,0C181.2353,209.0239,181.1893,204.8771,176.7827,202.3334Z"/><path class="cls-2" d="M328.7872,215.3081,270.6466,249.1c-7.9849-4.61-20.8967-4.61-28.83,0L183.287,215.3081c7.9337-4.61,7.8936-12.0886-.0913-16.6983l58.1462-33.7916c7.9793,4.6127,20.8911,4.6127,28.8531-.0144l58.5293,33.7916C320.7678,203.22,320.8079,210.6984,328.7872,215.3081ZM260.0323,187.21l-1.383,8.365c.3029.0056,6.0929.1542,9.3509,2.0377,2.5779,1.4887,3.1266,3.7637.8288,5.1011-5.6586,3.2867-17.9419-1.9262-27.064,3.3725l-3.3838,1.9718,11.2885,6.5187,2.4521-1.42c5.9957-3.4866,19.2277,2.2777,30.305-4.1582,8.7106-5.0613,5.03-12.4547-2.5894-16.8558A40.6585,40.6585,0,0,0,260.0323,187.21Zm-25.572,35.872,10.134-5.8872L233.86,210.9928l-10.14,5.89Z"/></g></g></g></svg>