<svg id="Layer_1" data-name="Layer 1" xmlns="http://www.w3.org/2000/svg" width="512" height="512" viewBox="0 0 512 512"><defs><style>.cls-1{fill:#d2a06a;}.cls-2{fill:#bd8652;}.cls-3{fill:#ebc49a;}.cls-4{fill:#ffc866;}.cls-5{fill:#ffb948;}.cls-6{fill:#d88e2e;}</style></defs><g id="Dice"><g id="Box"><polygon class="cls-1" points="139.127 206.961 256 274.658 256 410.053 139.127 342.356 139.127 206.961"/><polygon class="cls-2" points="256 274.658 372.873 206.961 372.873 342.356 256 410.053 256 274.658"/><polygon class="cls-3" points="139.127 206.961 256 139.263 372.873 206.961 256 274.658 139.127 206.961"/><polygon class="cls-4" points="247.152 377.65 247.152 393.378 233.448 385.466 233.448 369.738 247.152 377.65"/><path class="cls-5" d="M301.48,248.3143,181.7938,182.2466l27.4189-15.8822,119.5238,66.1618q-2.667,13.5-5.3339,27.0006-9.0072,5.2344-18.0144,10.4687Q303.4342,259.155,301.48,248.3143Z"/><path class="cls-6" d="M301.48,248.3143l27.2565-15.7881L328.1,264.3l-3.1-.8q-1.0272,2.3822-2.0542,4.7642L320.8,266.2l-2.5,5-3.8-2.4q-1.1,2.35-2.2,4.7l-3.6-1.8-2.1,4.6-2.5-2-3.1,6.0333Z"/></g></g></svg>