<svg id="Layer_1" data-name="Layer 1" xmlns="http://www.w3.org/2000/svg" width="512" height="512" viewBox="0 0 512 512"><defs><style>.cls-1{fill:#ff0606;}.cls-2{fill:#4a86ff;}.cls-3{fill:#ff8415;}.cls-4{fill:#fff;}.cls-5{fill:#f2f214;}.cls-6{fill:#75c536;}</style></defs><g id="Dice"><g id="Rubik"><polygon class="cls-1" points="218.041 252.093 256 230.105 293.961 252.093 256 274.081 218.041 252.093"/><path d="M256,230.6831l36.9623,21.41L256,273.5034l-8.993-5.2091-27.9695-16.201,17.9849-10.4176L256,230.6831m0-1.1556-38.9576,22.5658L256,274.6591l38.9574-22.5658L256,229.5275Z"/><polygon class="cls-2" points="256.998 229.527 294.958 207.539 332.918 229.527 294.958 251.515 256.998 229.527"/><path d="M294.9577,208.1167,317.2336,221.02l14.6865,8.507-36.9624,21.41-36.9624-21.41,27.5734-15.9716,9.389-5.4385m0-1.1557L256,229.5268l38.9575,22.5658,38.9575-22.5658L294.9577,206.961Z"/><polygon class="cls-3" points="295.955 206.961 333.915 184.973 371.875 206.961 333.915 228.949 295.955 206.961"/><path d="M333.9152,185.5509l31.2315,18.09,5.7309,3.32-36.9624,21.41-22.2759-12.9031-14.6865-8.5071,19.7-11.4109,17.2626-9.9992m0-1.1556L294.9577,206.961l38.9575,22.5658,38.9575-22.5658-38.9575-22.5657Z"/><polygon class="cls-4" points="179.083 229.527 217.043 207.539 255.002 229.527 217.043 251.515 179.083 229.527"/><path d="M217.0428,208.117l21.64,12.5346,15.3227,8.8756-36.9623,21.41L199.29,240.6541l-19.21-11.1269,36.9625-21.41m0-1.1556-38.9576,22.5658,38.9576,22.5657L256,229.5272l-38.9574-22.5658Z"/><polygon class="cls-5" points="218.04 206.961 256 184.973 293.96 206.961 256 228.949 218.04 206.961"/><path d="M256,185.5506l9.0824,5.2609,27.88,16.1492L256,228.3708l-23.1151-13.3892-13.8473-8.0209,18.8741-10.9327L256,185.5506m0-1.1557-38.9575,22.5658L256,229.5265l38.9575-22.5658L256,184.3949Z"/><polygon class="cls-1" points="256.998 184.395 294.958 162.407 332.918 184.395 294.958 206.383 256.998 184.395"/><path d="M294.9577,162.9848l11.833,6.8542L331.92,184.3949l-36.9623,21.41-17.2626-9.9993-19.7-11.4109,14.6865-8.507,22.2759-12.9031m0-1.1557L256,184.3949l38.9575,22.5658,38.9575-22.5658-38.9575-22.5658Z"/><polygon class="cls-2" points="140.125 206.961 178.085 184.973 216.045 206.961 178.085 228.949 140.125 206.961"/><path d="M178.0848,185.5509l18.9775,10.9926,17.9849,10.4175-36.9624,21.41-18.9775-10.9926L141.1224,206.961l17.9849-10.4175,18.9775-10.9926m0-1.1556L139.1273,206.961l38.9575,22.5658,38.9575-22.5658-38.9575-22.5657Z"/><polygon class="cls-4" points="179.083 184.395 217.042 162.406 255.002 184.395 217.042 206.383 179.083 184.395"/><path d="M217.0423,162.9844l17.8307,10.3283,19.1317,11.0819-36.9624,21.41-11.4662-6.6417L180.08,184.3946l26.3245-15.2482,10.6379-6.162m0-1.1556-38.9575,22.5658L217.0423,206.96,256,184.3946l-38.9575-22.5658Z"/><polygon class="cls-6" points="218.04 161.829 256 139.841 293.96 161.829 256 183.817 218.04 161.829"/><path d="M256,140.4187l9.0824,5.2609,27.88,16.1492L256,183.239l-36.9624-21.41,21.6588-12.5457L256,140.4187m0-1.1557-38.9575,22.5658L256,184.3946l38.9575-22.5658L256,139.263Z"/><polygon class="cls-3" points="217.542 387.199 217.542 343.224 255.5 365.21 255.5 409.187 217.542 387.199"/><path d="M218.0427,344.0909,255,365.4982v42.82l-36.9575-21.4073v-42.82m-1-1.7349v45.1316L256,410.0533V364.9218L217.0427,342.356Z"/><polygon class="cls-6" points="217.542 342.067 217.542 298.092 255.5 320.078 255.5 364.055 217.542 342.067"/><path d="M218.0427,298.9594,255,320.3666v42.82L218.0427,341.78v-42.82m-1-1.735V342.356L256,364.9218V319.79l-38.9575-22.5658Z"/><polygon class="cls-2" points="217.542 296.937 217.542 252.96 255.5 274.947 255.5 318.923 217.542 296.937"/><path d="M218.0427,253.8279,255,275.2351v42.82l-36.9575-21.4073v-42.82m-1-1.7349v45.1315L256,319.79V274.6587L217.0427,252.093Z"/><polygon class="cls-5" points="178.585 364.634 178.585 320.657 216.542 342.644 216.542 386.62 178.585 364.634"/><path d="M179.0847,321.5248l36.9576,21.4074v42.82l-36.9576-21.4072v-42.82m-1-1.7348v45.1316l38.9576,22.5657V342.3558L178.0847,319.79Z"/><polygon class="cls-1" points="178.585 319.502 178.585 275.525 216.542 297.513 216.542 341.488 178.585 319.502"/><path d="M179.0847,276.3933l36.9576,21.4072v42.82l-36.9576-21.4073v-42.82m-1-1.7349V319.79l38.9576,22.5658V297.2241l-38.9576-22.5657Z"/><polygon class="cls-6" points="178.585 274.37 178.585 230.395 216.542 252.381 216.542 296.357 178.585 274.37"/><path d="M179.0847,231.2618l36.9576,21.4073v42.82L179.0847,274.082v-42.82m-1-1.7349v45.1315l38.9576,22.5658V252.0927l-38.9576-22.5658Z"/><polygon class="cls-6" points="139.627 342.068 139.627 298.092 177.585 320.078 177.585 364.055 139.627 342.068"/><path d="M140.1276,298.9594l36.9576,21.4073v42.82L140.1276,341.78v-42.82m-1-1.7349V342.356l38.9576,22.5658V319.79l-38.9576-22.5658Z"/><polygon class="cls-3" points="139.627 296.937 139.627 252.96 177.585 274.946 177.585 318.923 139.627 296.937"/><path d="M140.1276,253.8277l36.9576,21.4073v42.82L140.1276,296.648v-42.82m-1-1.7348v45.1315L178.0852,319.79V274.6586l-38.9576-22.5657Z"/><polygon class="cls-5" points="139.627 251.805 139.627 207.829 177.585 229.815 177.585 273.792 139.627 251.805"/><path d="M140.1276,208.6963l36.9576,21.4072v42.82l-36.9576-21.4073v-42.82m-1-1.7349V252.093l38.9576,22.5657V229.5272l-38.9576-22.5658Z"/><polygon class="cls-4" points="256.5 365.21 294.458 343.224 294.458 387.199 256.5 409.187 256.5 365.21"/><path d="M293.9577,344.0909v42.82L257,408.3185v-42.82l36.9575-21.4073m1-1.7349L256,364.9218v45.1315l38.9575-22.5657V342.356Z"/><polygon class="cls-1" points="256.5 320.078 294.458 298.092 294.458 342.067 256.5 364.055 256.5 320.078"/><path d="M293.9577,298.9593v42.82L257,363.1869v-42.82l36.9575-21.4073m1-1.7349L256,319.79v45.1316l38.9575-22.5658V297.2244Z"/><polygon class="cls-4" points="256.5 274.947 294.458 252.96 294.458 296.937 256.5 318.923 256.5 274.947"/><path d="M293.9577,253.8279v42.82L257,318.0554v-42.82l36.9575-21.4072m1-1.7349L256,274.6587V319.79l38.9575-22.5658V252.093Z"/><polygon class="cls-1" points="295.458 342.644 333.415 320.657 333.415 364.634 295.458 386.62 295.458 342.644"/><path d="M332.9152,321.5248v42.82l-36.9575,21.4074v-42.82l36.9575-21.4073m1-1.7349-38.9575,22.5658v45.1315l38.9575-22.5658V319.79Z"/><polygon class="cls-6" points="295.458 297.512 333.415 275.525 333.415 319.502 295.458 341.488 295.458 297.512"/><path d="M332.9152,276.3931v42.82l-36.9575,21.4073v-42.82l36.9575-21.4074m1-1.7348-38.9575,22.5658v45.1315L333.9152,319.79V274.6583Z"/><polygon class="cls-3" points="295.458 252.381 333.415 230.395 333.415 274.37 295.458 296.357 295.458 252.381"/><path d="M332.9152,231.2617v42.82l-36.9575,21.4073v-42.82l36.9575-21.4073m1-1.7349-38.9575,22.5658v45.1315l38.9575-22.5657V229.5268Z"/><polygon class="cls-2" points="334.415 320.078 372.373 298.092 372.373 342.068 334.415 364.055 334.415 320.078"/><path d="M371.8726,298.9594v42.82L334.9152,363.187v-42.82l36.9574-21.4073m1-1.7349L333.9152,319.79v45.1315l38.9574-22.5658V297.2245Z"/><polygon class="cls-5" points="334.415 274.946 372.373 252.96 372.373 296.937 334.415 318.923 334.415 274.946"/><path d="M371.8726,253.8277v42.82l-36.9574,21.4073v-42.82l36.9574-21.4073m1-1.7348-38.9574,22.5657V319.79l38.9574-22.5658V252.0929Z"/><polygon class="cls-1" points="334.415 229.815 372.373 207.829 372.373 251.805 334.415 273.792 334.415 229.815"/><path d="M371.8726,208.6963v42.82l-36.9574,21.4072v-42.82l36.9574-21.4072m1-1.7349-38.9574,22.5658v45.1315l38.9574-22.5657V206.9614Z"/></g></g></svg>