<svg id="Layer_1" data-name="Layer 1" xmlns="http://www.w3.org/2000/svg" width="512" height="512" viewBox="0 0 512 512"><defs><style>.cls-1{fill:#2d4253;}.cls-2{fill:#172530;}.cls-3{fill:#283a48;}.cls-4{fill:#32495b;}.cls-5{fill:#4c6d80;}.cls-6{fill:#18252e;}.cls-7{fill:#19232c;}.cls-8{fill:#3e5d71;}.cls-9{fill:#adadad;}.cls-10{fill:#e2ddda;}.cls-11{fill:#091e11;}.cls-12{fill:#123e23;}</style></defs><g id="Dice"><g id="Safe"><path class="cls-1" d="M148.3,345.55q1.249,5.8083,2.498,11.6167l10.5728,6,7.78-7.0686Z"/><path class="cls-2" d="M161.3708,363.1667,173.8,361.6l-4.6491-5.5019Z"/><path class="cls-1" d="M225.65,389.45q1.2084,6.2084,2.4167,12.4166l10.5727,6L247.65,399.7Z"/><path class="cls-2" d="M238.6394,407.8666,251.15,406.5l-3.5-6.8Z"/><path class="cls-3" d="M256,274.6582l116.8726-67.6975L256,139.2633,139.1273,206.9607Z"/><polygon class="cls-4" points="139.127 206.961 139.127 342.356 256 410.053 256 274.658 139.127 206.961"/><polygon class="cls-5" points="155.493 235.4 155.493 332.876 239.634 381.614 239.634 284.138 155.493 235.4"/><polygon class="cls-6" points="372.873 206.961 256 274.658 256 410.053 372.873 342.356 372.873 206.961"/><polygon class="cls-7" points="159.386 237.655 159.386 331.133 155.493 332.876 155.493 235.4 159.386 237.655"/><polygon class="cls-8" points="159.386 331.133 239.634 377.267 239.634 381.614 155.493 332.876 159.386 331.133"/><path class="cls-9" d="M229.227,340.1993l-1.0943.6291q.5472,3.6542,1.0943,7.3084l5.7574,4.5979,1.0943-.6292V344.168Z"/><polygon class="cls-10" points="228.133 340.828 228.133 348.766 234.984 352.735 234.984 344.797 228.133 340.828"/><path class="cls-9" d="M219.8527,334.8008l-1.0943.6292q.5472,3.654,1.0943,7.3083l5.7573,4.5979,1.0943-.6291V338.77Z"/><polygon class="cls-10" points="218.758 335.43 218.758 343.368 225.61 347.336 225.61 339.399 218.758 335.43"/><path class="cls-9" d="M210.4783,329.3659l-1.0943.6291q.5472,3.6542,1.0943,7.3083,2.8787,2.2991,5.7574,4.598l1.0943-.6292v-7.9375Z"/><polygon class="cls-10" points="209.384 329.995 209.384 337.933 216.236 341.901 216.236 333.964 209.384 329.995"/><path class="cls-9" d="M229.227,329.7671l-1.0943.6291q.5472,3.6541,1.0943,7.3084l5.7574,4.5979,1.0943-.6291v-7.9376Z"/><polygon class="cls-10" points="228.133 330.396 228.133 338.334 234.984 342.303 234.984 334.365 228.133 330.396"/><path class="cls-9" d="M219.8527,324.3686l-1.0943.6292q.5472,3.6542,1.0943,7.3083l5.7573,4.598,1.0943-.6292v-7.9376Z"/><polygon class="cls-10" points="218.758 324.998 218.758 332.935 225.61 336.904 225.61 328.967 218.758 324.998"/><path class="cls-9" d="M210.4783,318.9337l-1.0943.6291q.5472,3.6542,1.0943,7.3084l5.7574,4.5979,1.0943-.6291v-7.9376Z"/><polygon class="cls-10" points="209.384 319.563 209.384 327.5 216.236 331.469 216.236 323.532 209.384 319.563"/><path class="cls-9" d="M229.227,319.262l-1.0943.6291q.5472,3.6542,1.0943,7.3084l5.7574,4.5979,1.0943-.6292v-7.9375Z"/><polygon class="cls-10" points="228.133 319.891 228.133 327.829 234.984 331.797 234.984 323.86 228.133 319.891"/><path class="cls-9" d="M219.8527,313.8635l-1.0943.6292q.5472,3.6542,1.0943,7.3083l5.7573,4.5979,1.0943-.6291v-7.9376Z"/><polygon class="cls-10" points="218.758 314.493 218.758 322.43 225.61 326.399 225.61 318.461 218.758 314.493"/><path class="cls-9" d="M210.4783,308.4286l-1.0943.6291q.5472,3.6542,1.0943,7.3084l5.7574,4.5979,1.0943-.6292v-7.9375Z"/><polygon class="cls-10" points="209.384 309.058 209.384 316.995 216.236 320.964 216.236 313.027 209.384 309.058"/><polygon class="cls-11" points="209.384 298.002 210.478 297.373 236.079 312.175 236.079 320.113 234.984 320.742 209.384 298.002"/><polygon class="cls-12" points="209.384 298.002 234.984 312.805 234.984 320.742 209.384 305.94 209.384 298.002"/><path class="cls-9" d="M167.4781,285.97l-7.23,7.4555,2.7112,13.5932,6.3259,14.8734,12.0493,7.0036,9.5642-.6024q-1.983-2.2131-3.9658-4.4264a20.7379,20.7379,0,0,1-7.6-2.0666,22.8505,22.8505,0,0,1-9.2666-9c-1.6847-2.6545-4.3415-6.8408-4.2667-12.7333a20.1529,20.1529,0,0,1,2.2667-8.9333l21.57,35.0979,2.497-3.8313-21.2666-36Z"/><polygon class="cls-10" points="166.643 310.902 187.405 298.916 190.071 299.525 189.694 302.793 168.608 315.34 166.643 310.902"/><path class="cls-10" d="M166.6431,289.4338l21.6955,37.5036,2.56-1.3931-22.5926-38.445Z"/><path class="cls-9" d="M193.0315,332.6356l-.3648-2.6406,2.4-6.395.7333-8.5891-1.4-10.9442-7.0667-10.5334-9.8391-8.6666-13.8828-3.1882,2.683-1.5491c8.2223-4.7471,21.4736,2.8117,29.5977,16.8831s8.0447,29.3269-.1776,34.074Z"/><path class="cls-10" d="M193.2091,298.5616c8.1242,14.0714,8.0447,29.3268-.1776,34.074s-21.4736-2.8118-29.5977-16.8832-8.0446-29.3268.1776-34.0739S185.085,284.49,193.2091,298.5616Zm-25.226-9.3112c-5.7787,3.3363-5.8346,14.058-.1249,23.9475S182.8812,328.4,188.66,325.0637s5.8345-14.0581.1248-23.9477S173.7617,285.9141,167.9831,289.25Z"/></g></g></svg>