<svg id="Layer_1" data-name="Layer 1" xmlns="http://www.w3.org/2000/svg" width="512" height="512" viewBox="0 0 512 512"><g id="Pattern"><g id="Right"><g id="Four"><path d="M340.75,247.2623c7.056-4.0739,12.8-.8287,12.8232,7.3033.02,8.1037-5.6844,17.9846-12.7378,22.0585s-12.7945.8019-12.8173-7.3032C327.9957,261.1859,333.697,251.3334,340.75,247.2623Z"/><path d="M340.9274,309.2484c7.056-4.0725,12.8-.8,12.8206,7.3062.0254,8.1033-5.6815,17.986-12.7319,22.0585-7.0589,4.0724-12.7977.7986-12.82-7.3048C328.17,323.2047,333.877,313.3223,340.9274,309.2484Z"/><path d="M288.32,306.9449c-7.05,4.0725-12.7975.7987-12.8147-7.3062-.0258-8.132,5.6814-17.9889,12.7318-22.057,7.0534-4.0739,12.8-.8288,12.8206,7.3033C301.08,292.99,295.3759,302.871,288.32,306.9449Z"/><path d="M288.4112,339.5674c7.0589-4.071,12.7948-.7972,12.82,7.3062s-5.6785,17.9861-12.7345,22.0585c-7.05,4.074-12.7977.8-12.8235-7.3047C275.6535,353.524,281.3607,343.64,288.4112,339.5674Z"/></g></g><g id="Left"><path id="One" d="M207.073,302.7739a26.6939,26.6939,0,0,0-9.2766-9.7727c-3.3607-1.942-6.7273-2.4134-9.2994-.9517-5.1555,2.9394-5.1784,12.4934-.0629,21.3427a26.6933,26.6933,0,0,0,9.288,9.7981c3.3611,1.9406,6.7218,2.4079,9.2883.9462C212.166,321.1986,212.1944,311.6445,207.073,302.7739Z"/></g><g id="Top"><g id="Two"><path d="M269.6963,233.3119c-7.6178-4.3977-19.9178-4.3959-27.4831,0-7.551,4.3878-7.5112,11.5142.1029,15.9111,7.6,4.39,19.9052,4.3886,27.4561,0C277.3374,244.8261,277.2978,237.7007,269.6963,233.3119Z"/><path d="M269.6963,164.7039c-7.6178-4.3977-19.9178-4.3959-27.4831,0-7.551,4.3878-7.5112,11.5142.1029,15.9111,7.6,4.39,19.9052,4.3886,27.4561,0C277.3374,176.2181,277.2978,169.0927,269.6963,164.7039Z"/></g></g></g></svg>