<svg id="Layer_1" data-name="Layer 1" xmlns="http://www.w3.org/2000/svg" width="512" height="512" viewBox="0 0 512 512"><g id="Pattern"><g id="Right"><g id="Five"><path d="M340.75,247.2623c7.056-4.0739,12.8-.8287,12.8232,7.3033.02,8.1037-5.6844,17.9846-12.7378,22.0585s-12.7945.8019-12.8173-7.3032C327.9957,261.1859,333.697,251.3334,340.75,247.2623Z"/><path d="M314.5834,295.2332c7.0821-4.0882,12.7977-.7971,12.8206,7.3062s-5.6587,17.97-12.7348,22.0586c-7.056,4.0739-12.7975.8-12.82-7.3033C301.8231,309.1884,307.53,299.3072,314.5834,295.2332Z"/><path d="M340.9274,309.2484c7.056-4.0725,12.8-.8,12.8206,7.3062.0254,8.1033-5.6815,17.986-12.7319,22.0585-7.0589,4.0724-12.7977.7986-12.82-7.3048C328.17,323.2047,333.877,313.3223,340.9274,309.2484Z"/><path d="M288.32,306.9449c-7.05,4.0725-12.7975.7987-12.8147-7.3062-.0258-8.132,5.6814-17.9889,12.7318-22.057,7.0534-4.0739,12.8-.8288,12.8206,7.3033C301.08,292.99,295.3759,302.871,288.32,306.9449Z"/><path d="M288.4112,339.5674c7.0589-4.071,12.7948-.7972,12.82,7.3062s-5.6785,17.9861-12.7345,22.0585c-7.05,4.074-12.7977.8-12.8235-7.3047C275.6535,353.524,281.3607,343.64,288.4112,339.5674Z"/></g></g><g id="Left"><g id="Six"><path d="M233.3871,351.502a22.3488,22.3488,0,0,0-7.7743-8.2028c-2.8148-1.6277-5.6344-2.0176-7.7935-.7875-4.3179,2.4439-4.3419,10.4454-.0527,17.8752a22.4069,22.4069,0,0,0,7.7744,8.2027c2.82,1.6262,5.6392,2.0152,7.7981.7863C237.6379,366.9068,237.6619,358.9052,233.3871,351.502Z"/><path d="M233.3761,287.8047a22.358,22.358,0,0,0-7.7694-8.1849c-2.8148-1.6265-5.6344-2.0213-7.7886-.7971-4.3179,2.4618-4.337,10.4636-.0527,17.8752a22.3563,22.3563,0,0,0,7.779,8.2061c2.815,1.6253,5.63,2.0167,7.7792.7924C237.6415,303.2359,237.6653,295.2341,233.3761,287.8047Z"/><path d="M233.3761,319.84a22.3584,22.3584,0,0,0-7.7694-8.1848c-2.8148-1.6265-5.6344-2.0214-7.7886-.7971-4.3179,2.4618-4.337,10.4636-.0527,17.8751a22.3567,22.3567,0,0,0,7.779,8.2062c2.815,1.6253,5.63,2.0167,7.7792.7924C237.6415,335.2717,237.6653,327.27,233.3761,319.84Z"/><path d="M177.7383,319.3284a22.3576,22.3576,0,0,0-7.7694-8.1848c-2.8148-1.6265-5.6344-2.0214-7.7886-.7971-4.3179,2.4618-4.337,10.4636-.0527,17.8751a22.3567,22.3567,0,0,0,7.779,8.2062c2.815,1.6253,5.63,2.0167,7.7792.7924C182.0037,334.76,182.0275,326.7579,177.7383,319.3284Z"/><path d="M177.744,256.0612a22.3986,22.3986,0,0,0-7.7743-8.204c-2.8147-1.6263-5.639-2.0165-7.7981-.7863-4.2988,2.4522-4.3228,10.454-.0478,17.8739a22.4022,22.4022,0,0,0,7.7741,8.204c2.815,1.6265,5.6393,2.0164,7.7983.7863C181.995,271.4649,182.0191,263.4632,177.744,256.0612Z"/><path d="M177.744,288.33a22.3986,22.3986,0,0,0-7.7743-8.204c-2.8147-1.6262-5.639-2.0164-7.7981-.7863-4.2988,2.4522-4.3228,10.454-.0478,17.8739a22.4022,22.4022,0,0,0,7.7741,8.204c2.815,1.6265,5.6393,2.0164,7.7983.7863C181.995,303.7342,182.0191,295.7324,177.744,288.33Z"/></g></g><g id="Top"><g id="Three"><path d="M328.5763,199.0079c-7.6178-4.3977-19.9178-4.3959-27.4831,0-7.551,4.3878-7.5112,11.5142.1029,15.9111,7.6,4.39,19.9052,4.3886,27.4561,0C336.2174,210.5221,336.1778,203.3967,328.5763,199.0079Z"/><path d="M210.8163,199.0079c-7.6178-4.3977-19.9178-4.3959-27.4831,0-7.551,4.3878-7.5112,11.5142.1029,15.9111,7.6,4.39,19.9052,4.3886,27.4561,0C218.4574,210.5221,218.4178,203.3967,210.8163,199.0079Z"/><path d="M269.6963,199.0079c-7.6178-4.3977-19.9178-4.3959-27.4831,0-7.551,4.3878-7.5112,11.5142.1029,15.9111,7.6,4.39,19.9052,4.3886,27.4561,0C277.3374,210.5221,277.2978,203.3967,269.6963,199.0079Z"/></g></g></g></svg>