<svg id="Layer_1" data-name="Layer 1" xmlns="http://www.w3.org/2000/svg" width="512" height="512" viewBox="0 0 512 512">
  <defs>
    <style>
      .cls-1 {
        fill: #ffb805;
      }
    </style>
  </defs>
  <g id="Accessories">
    <g id="Belt">
      <polygon points="101.934 261.077 256 352.563 256 382.355 101.934 292.978 101.934 261.077"/>
      <path d="M256,171.701l154.0669,89.3858q-.0006,15.9521-.001,31.904L256,203.6117Z"/>
      <path d="M410.0657,261.08,256,352.5627l0,29.7922,154.0659-89.364Z"/>
      <path d="M256,171.701,101.9339,261.0771v31.8987L256,203.6117Z"/>
      <g>
        <path class="cls-1" d="M190.0867,344.8058,167.9793,331.981c-3.6539-2.12-6.6147-8.2386-6.57-13.57l.1185-14.1012c.0441-5.2467,3.0363-7.767,6.64-5.6272l21.8057,12.9484c3.529,2.0956,6.4345,8.0568,6.4661,13.2731l.085,14.0179C196.5567,344.2213,193.6641,346.8811,190.0867,344.8058Zm3.8418-8.8179-.0561-11.1959c-.0208-4.1728-2.3443-8.9426-5.1693-10.6163l-19.2506-11.4049c-2.8768-1.7044-5.2607.3184-5.2913,4.5119l-.0822,11.2525c-.031,4.2477,2.3287,9.1212,5.2376,10.8127l19.4629,11.318C191.6353,342.3266,193.95,340.2139,193.9285,335.9879Z"/>
        <path class="cls-1" d="M194.7605,332.86l-16.437-9.6353a2.0177,2.0177,0,0,1-.78-1.6069l.003-1.6821c.0011-.63.3534-.9392.7829-.6867l16.41,9.6463a2.0237,2.0237,0,0,1,.7764,1.5949l.01,1.6769C195.5287,332.7964,195.1847,333.1083,194.7605,332.86Z"/>
      </g>
    </g>
  </g>
</svg>
