<svg id="Layer_1" data-name="Layer 1" xmlns="http://www.w3.org/2000/svg" width="512" height="512" viewBox="0 0 512 512">
  <defs>
    <style>
      .cls-1 {
        fill: #f279ae;
      }

      .cls-2 {
        fill: #9b456e;
      }

      .cls-3 {
        fill: #e86da8;
      }
    </style>
  </defs>
  <g id="Bow">
    <path class="cls-1" d="M238.6427,236.3909c-12.78-17.086-22.5259-30.75-28.6017-39.3792-14.7236-20.9126-19.4034-28.6134-30.6742-32.9881-3.0853-1.1975-17.0867-6.9258-30.26,0-10.5067,5.524-14.4477,15.9-15.3372,18.48-3.3017,9.5766.8748,11.9938,0,29.0162-.7706,14.9924-4.2127,17.0545-2.4871,27.358.6265,3.74,1.9759,12.5909,8.29,19.0678,7.2276,7.4135,16.8573,8.3218,35.6485,9.5339,19.0182,1.2268,35.4268,1.9912,48.4985,2.4871Q231.1815,253.1787,238.6427,236.3909Z"/>
    <path class="cls-1" d="M276.2562,262.92q-4.2987,12.4355-8.5973,24.871c4.59,4.7281,37.2785,38.26,60.83,55.6489,4.7716,3.5229,12.4158,8.7811,21.7621,7.7722,7.7753-.8392,13.0933-5.6234,14.651-7.0627,5.1683-4.7752,7.0549-10.119,10.9454-27.7567,7.1346-32.3445,5.728-37.1511,3.7307-41.0372-3.5793-6.9641-9.9183-10.2373-14.1755-12.4355-12.56-6.4855-24.0666-4.3174-42.6133-2.4871C311.663,261.5309,295.8468,262.72,276.2562,262.92Z"/>
    <path class="cls-2" d="M199.259,255.8731,224.2543,258.8q.2748-1.36.5493-2.72Z"/>
    <path class="cls-2" d="M204.4879,249.3963l21.9175,4.197.64-1.7447Z"/>
    <polygon class="cls-2" points="269.524 275.77 287.763 290.299 270.561 273.49 269.524 275.77"/>
    <path class="cls-3" d="M239.8863,282.8167c-10.48-4.0251-15.7874-6.1325-19.0678-10.7775-7.2487-10.2639-2.804-23.166-2.4871-24.0419.5355-1.48,4.63-12.2722,15.3371-16.1661,15.9731-5.8093,31.2733,9.332,33.99,12.0209,3.2218,3.1883,12.224,12.0971,12.021,25.2856-.0333,2.1648-.2231,14.4969-8.29,19.4822C265.1061,292.5028,256.7,289.2741,239.8863,282.8167Z"/>
    <path class="cls-2" d="M222.1657,225.9243c-13.3342-10.6973-57.28-46.2351-60.0013-54.0944-.2758-.7965-1.0528-3.04,0-4.3525,1.6263-2.0268,6.5855-.5416,8.394,0C181.793,170.8421,212.59,212.7065,222.1657,225.9243Z"/>
    <path class="cls-2" d="M291.8045,267.2723c20.8495,2.8973,35.5295,1.8389,45.7,0,.83-.15,16.2331-2.9455,23.3166,2.798.7869.638,3.2408,2.6277,2.798,4.3525-.3985,1.5523-2.957,2.1617-4.6633,2.487-12.3221,2.35-20.5183.311-20.5186.3109C328.0044,274.6257,312.1117,271.463,291.8045,267.2723Z"/>
  </g>
</svg>
