<svg id="Layer_1" data-name="Layer 1" xmlns="http://www.w3.org/2000/svg" xmlns:xlink="http://www.w3.org/1999/xlink" width="512" height="512" viewBox="0 0 512 512">
  <defs>
    <style>
      .cls-1 {
        fill: #008b2e;
      }

      .cls-2 {
        fill: #fff;
      }

      .cls-3 {
        fill: #c44d5d;
      }

      .cls-4 {
        fill: #4d4d4d;
      }

      .cls-5 {
        fill: #b38548;
      }

      .cls-6 {
        fill: #ffe6bc;
      }

      .cls-7 {
        fill: #e6b573;
      }

      .cls-8 {
        fill: #33271c;
      }

      .cls-9 {
        fill: #3f3429;
      }

      .cls-10 {
        fill: #574d44;
      }

      .cls-11 {
        fill: #1f1b18;
      }

      .cls-12 {
        fill: #98b243;
      }

      .cls-13 {
        fill: #281b0f;
      }

      .cls-14 {
        fill: #453a30;
      }

      .cls-15 {
        fill: #322519;
      }

      .cls-16 {
        fill: #211306;
      }

      .cls-17 {
        fill: #6a5f56;
      }

      .cls-18 {
        fill: #4e453c;
      }

      .cls-19 {
        fill: #676059;
      }

      .cls-20 {
        fill: #5f574f;
      }

      .cls-21 {
        fill: url(#Áåçûìÿííûé_ãðàäèåíò_2);
      }

      .cls-22 {
        fill: url(#Áåçûìÿííûé_ãðàäèåíò_2-2);
      }

      .cls-23 {
        fill: url(#Áåçûìÿííûé_ãðàäèåíò_2-3);
      }

      .cls-24 {
        fill: url(#Áåçûìÿííûé_ãðàäèåíò_2-4);
      }

      .cls-25 {
        fill: url(#Áåçûìÿííûé_ãðàäèåíò_2-5);
      }

      .cls-26 {
        fill: url(#Áåçûìÿííûé_ãðàäèåíò_2-6);
      }

      .cls-27 {
        fill: url(#Áåçûìÿííûé_ãðàäèåíò_2-7);
      }

      .cls-28 {
        fill: url(#Áåçûìÿííûé_ãðàäèåíò_2-8);
      }

      .cls-29 {
        fill: url(#Áåçûìÿííûé_ãðàäèåíò_2345);
      }

      .cls-30 {
        fill: url(#Áåçûìÿííûé_ãðàäèåíò_2345-2);
      }

      .cls-31 {
        fill: url(#Áåçûìÿííûé_ãðàäèåíò_2-9);
      }

      .cls-32 {
        fill: url(#Áåçûìÿííûé_ãðàäèåíò_2345-3);
      }

      .cls-33 {
        fill: url(#Áåçûìÿííûé_ãðàäèåíò_2345-4);
      }

      .cls-34 {
        fill: url(#Áåçûìÿííûé_ãðàäèåíò_74);
      }
    </style>
    <linearGradient id="Áåçûìÿííûé_ãðàäèåíò_2" data-name="Áåçûìÿííûé ãðàäèåíò 2" x1="139.4874" y1="83.9198" x2="160.758" y2="83.9198" gradientTransform="matrix(-1, 0, 0, 1, 245.4216, 0)" gradientUnits="userSpaceOnUse">
      <stop offset="0" stop-color="#858585"/>
      <stop offset="0.2129" stop-color="#8a8a8a"/>
      <stop offset="0.3891" stop-color="#939393"/>
      <stop offset="0.3946" stop-color="#a9a9a9"/>
      <stop offset="0.3964" stop-color="#b2b2b2"/>
      <stop offset="0.6218" stop-color="#b8b8b8"/>
      <stop offset="0.6291" stop-color="#d1d1d1"/>
      <stop offset="0.7389" stop-color="#d7d7d7"/>
      <stop offset="0.8841" stop-color="#e8e8e8"/>
      <stop offset="1" stop-color="#fafafa"/>
    </linearGradient>
    <linearGradient id="Áåçûìÿííûé_ãðàäèåíò_2-2" x1="132.3328" y1="49.1983" x2="134.4073" y2="45.6051" xlink:href="#Áåçûìÿííûé_ãðàäèåíò_2"/>
    <linearGradient id="Áåçûìÿííûé_ãðàäèåíò_2-3" x1="167.3298" y1="50.2216" x2="165.0535" y2="46.2791" xlink:href="#Áåçûìÿííûé_ãðàäèåíò_2"/>
    <linearGradient id="Áåçûìÿííûé_ãðàäèåíò_2-4" x1="143.1338" y1="73.4695" x2="157.5121" y2="73.4695" xlink:href="#Áåçûìÿííûé_ãðàäèåíò_2"/>
    <linearGradient id="Áåçûìÿííûé_ãðàäèåíò_2-5" x1="141.2754" y1="64.5026" x2="159.3714" y2="64.5026" xlink:href="#Áåçûìÿííûé_ãðàäèåíò_2"/>
    <linearGradient id="Áåçûìÿííûé_ãðàäèåíò_2-6" x1="145.4041" y1="57.0697" x2="155.2429" y2="57.0697" xlink:href="#Áåçûìÿííûé_ãðàäèåíò_2"/>
    <linearGradient id="Áåçûìÿííûé_ãðàäèåíò_2-7" x1="145.6484" y1="50.8685" x2="154.9986" y2="50.8685" xlink:href="#Áåçûìÿííûé_ãðàäèåíò_2"/>
    <linearGradient id="Áåçûìÿííûé_ãðàäèåíò_2-8" x1="135.0819" y1="67.3282" x2="132.9222" y2="63.5875" xlink:href="#Áåçûìÿííûé_ãðàäèåíò_2"/>
    <radialGradient id="Áåçûìÿííûé_ãðàäèåíò_2345" data-name="Áåçûìÿííûé ãðàäèåíò 2345" cx="121.7442" cy="72.4286" r="3.1409" gradientTransform="matrix(-1, 0, 0, 1, 245.4216, 0)" gradientUnits="userSpaceOnUse">
      <stop offset="0.0784" stop-color="#f7f7fb"/>
      <stop offset="0.4387" stop-color="#f7faf8"/>
      <stop offset="0.4902" stop-color="#f7fbf7"/>
      <stop offset="0.4959" stop-color="#f7fbf2"/>
      <stop offset="0.498" stop-color="#f7fbee"/>
      <stop offset="0.5009" stop-color="#f7f9ea"/>
      <stop offset="0.502" stop-color="#f7f7e7"/>
      <stop offset="0.7035" stop-color="#e7e7d7"/>
      <stop offset="0.9686" stop-color="#ccccbc"/>
      <stop offset="0.985" stop-color="#b4b4a4"/>
    </radialGradient>
    <radialGradient id="Áåçûìÿííûé_ãðàäèåíò_2345-2" cx="325.2755" cy="20.31" r="3.1408" gradientTransform="matrix(-0.7772, -0.6292, -0.6292, 0.7772, 332.8365, 229.1389)" xlink:href="#Áåçûìÿííûé_ãðàäèåíò_2345"/>
    <linearGradient id="Áåçûìÿííûé_ãðàäèåíò_2-9" x1="165.1488" y1="68.0101" x2="167.7821" y2="63.4492" xlink:href="#Áåçûìÿííûé_ãðàäèåíò_2"/>
    <radialGradient id="Áåçûìÿííûé_ãðàäèåíò_2345-3" cx="386.8043" cy="71.4001" r="3.1408" gradientTransform="translate(-322.3882)" xlink:href="#Áåçûìÿííûé_ãðàäèåíò_2345"/>
    <radialGradient id="Áåçûìÿííûé_ãðàäèåíò_2345-4" cx="539.5572" cy="215.7362" r="3.1404" gradientTransform="translate(-409.8715 268.8272) rotate(-45)" xlink:href="#Áåçûìÿííûé_ãðàäèåíò_2345"/>
    <radialGradient id="Áåçûìÿííûé_ãðàäèåíò_74" data-name="Áåçûìÿííûé ãðàäèåíò 74" cx="203.0365" cy="132.8943" r="5.4704" gradientTransform="matrix(-1, 0, 0, 1, 245.4216, 0)" gradientUnits="userSpaceOnUse">
      <stop offset="0.0784" stop-color="#fbfbff"/>
      <stop offset="0.3483" stop-color="#f9fbfc"/>
      <stop offset="0.4902" stop-color="#f6faf6"/>
      <stop offset="0.498" stop-color="#fbfff2"/>
      <stop offset="0.5002" stop-color="#fcfff6"/>
      <stop offset="0.502" stop-color="#fff"/>
      <stop offset="0.5921" stop-color="#f1f1ef"/>
      <stop offset="0.768" stop-color="#ccccc6"/>
      <stop offset="0.9686" stop-color="#9c9c8f"/>
      <stop offset="0.985" stop-color="#7d7d72"/>
    </radialGradient>
  </defs>
  <g id="Backgrounds">
    <g id="Casino">
      <rect class="cls-1" width="512" height="512"/>
      <g>
        <path class="cls-2" d="M549.3634,113.7087l28.8743,16.67-58.3874,33.71L490.976,147.4175Zm23.3289,16.67-23.3289-13.4667-52.8421,30.5054,23.329,13.4671Z"/>
        <path class="cls-3" d="M557.4163,125.9406c-5.9889-3.4583-21.0026-.3964-33.534,6.839s-17.8329,15.902-11.844,19.36,21.003.3964,33.533-6.8372C558.1027,138.0672,563.4056,129.3989,557.4163,125.9406Z"/>
        <path class="cls-2" d="M523.2614,98.64l28.8743,16.67-58.3878,33.71-28.8743-16.6713ZM546.59,115.31l-23.3285-13.4668-52.842,30.5058,23.3285,13.4668Z"/>
        <path class="cls-3" d="M531.3155,110.8716c-5.9889-3.4568-21.0027-.3963-33.5341,6.8387s-17.8329,15.9023-11.8436,19.3606,21.0026.3963,33.534-6.8376S537.3047,114.33,531.3155,110.8716Z"/>
        <path class="cls-2" d="M497.1605,83.57l28.8743,16.67-58.3874,33.7114-28.8746-16.6712Zm23.3286,16.67L497.1605,86.7737l-52.842,30.507,23.3289,13.4667Z"/>
        <path class="cls-2" d="M552.7675,51.4612l28.8743,16.6712-58.38,33.71L494.3886,85.1711Zm23.3289,16.6712L552.7675,54.6657,499.9339,85.1711,523.2614,98.64Z"/>
        <path class="cls-4" d="M505.215,95.8023c-5.9908-3.4583-21.0031-.3964-33.5341,6.8386s-17.8333,15.9023-11.844,19.3606,21.0027.3964,33.5326-6.8387S511.2039,99.2605,505.215,95.8023Z"/>
        <path class="cls-2" d="M471.06,68.5013l28.8743,16.67-58.3874,33.7118-28.8743-16.6716Zm23.329,16.67L471.06,71.7044l-52.842,30.5069,23.3289,13.4671Z"/>
        <path class="cls-2" d="M526.6736,36.3933,555.541,53.0649,497.1605,86.7737,468.2862,70.1021Zm23.322,16.6716-23.322-13.4686L473.832,70.1021,497.1605,83.57Z"/>
        <path class="cls-3" d="M479.1141,80.7333c-5.9893-3.4583-21.0027-.3967-33.5341,6.8372-12.53,7.2354-17.8329,15.9037-11.844,19.3617s21.003.3952,33.5341-6.8387S485.1033,84.1912,479.1141,80.7333Z"/>
        <path class="cls-4" d="M534.7876,48.5905c-5.9889-3.4583-21.0026-.3964-33.5326,6.8375S483.4206,71.33,489.41,74.7883c5.9908,3.4582,21.0031.3963,33.5345-6.8373C535.4751,60.7156,540.7769,52.0473,534.7876,48.5905Z"/>
        <path class="cls-2" d="M444.9577,53.432l28.8743,16.67-58.3878,33.7115L386.57,87.1423Zm23.3285,16.67L444.9577,56.6365l-52.842,30.5058,23.3285,13.4667Z"/>
        <path class="cls-2" d="M500.5731,21.3243l28.8743,16.6712L471.06,71.7044l-28.8743-16.67Zm23.3285,16.6712L500.5731,24.5273l-52.842,30.5069L471.06,68.5013Z"/>
        <path class="cls-2" d="M556.18-10.7838l28.8743,16.67-58.3808,33.71L497.8,22.9265Zm23.3286,16.67L556.18-7.5793,503.345,22.9265l23.3286,13.4668Z"/>
        <path class="cls-4" d="M453.0132,65.6639c-5.99-3.4582-21.0027-.3963-33.5341,6.8376s-17.8329,15.9034-11.8436,19.36c5.9889,3.46,21.0027.3978,33.5326-6.8372C453.7,77.7891,459.0024,69.1222,453.0132,65.6639Z"/>
        <path class="cls-4" d="M508.6868,33.52c-5.9893-3.4568-21.0027-.3949-33.5341,6.8387S457.32,56.261,463.309,59.7193s21.0027.3963,33.5341-6.8376S514.676,36.9783,508.6868,33.52Z"/>
        <path class="cls-2" d="M418.8568,38.363l28.8743,16.6712-58.3874,33.71L360.4694,72.073Zm23.3285,16.6712L418.8568,41.5675,366.0148,72.073,389.3437,85.54Z"/>
        <path class="cls-2" d="M474.4722,6.2549,503.345,22.9265l-58.3873,33.71L416.083,39.9653ZM497.8,22.9265,474.4722,9.458,421.63,39.9653,444.9577,53.432Z"/>
        <path class="cls-2" d="M530.0792-25.8531l28.8743,16.67-58.38,33.71-28.8743-16.67Zm23.3289,16.67L530.0792-22.6486,477.2442,7.8572l23.3289,13.4671Z"/>
        <path class="cls-4" d="M426.9127,50.5949c-5.9893-3.4582-21.0031-.3967-33.5345,6.8387-12.53,7.2339-17.8329,15.9023-11.8436,19.3591,5.9889,3.4594,21.0027.3978,33.5341-6.8376S432.9016,54.0518,426.9127,50.5949Z"/>
        <path class="cls-3" d="M482.5859,18.4507c-5.9889-3.4579-21.0027-.3964-33.5327,6.839-12.531,7.2336-17.8343,15.9019-11.845,19.36s21.0026.3964,33.5341-6.8387C483.2722,30.5773,488.5752,21.9089,482.5859,18.4507Z"/>
        <path class="cls-4" d="M538.26-13.6918c-5.9893-3.4582-21.003-.3963-33.533,6.8387S486.8925,9.0492,492.8817,12.506c5.99,3.4583,21.0031.3978,33.5341-6.8372S544.2491-10.235,538.26-13.6918Z"/>
        <path class="cls-2" d="M392.7559,23.2936,421.63,39.9653l-58.3889,33.71L334.3685,57.004ZM416.083,39.9653,392.7559,26.4982,339.9143,57.004l23.327,13.4667Z"/>
        <path class="cls-2" d="M448.3713-8.8141,477.2442,7.8572l-58.3874,33.71L389.9825,24.8959ZM471.6988,7.8572,448.3713-5.611,395.5279,24.8959,418.8568,38.363Z"/>
        <path class="cls-2" d="M503.9772-40.9221l28.8743,16.6712L474.4722,9.458l-28.8743-16.67Zm23.3286,16.6712L503.9772-37.7176,451.1436-7.2118,474.4722,6.2549Z"/>
        <path class="cls-3" d="M400.8118,35.5256c-5.9907-3.4583-21.0041-.3964-33.5341,6.8376s-17.8333,15.9019-11.844,19.3616c5.9893,3.4568,21.0031.3964,33.533-6.8386S406.8011,38.9839,400.8118,35.5256Z"/>
        <path class="cls-4" d="M456.4854,3.3817c-5.9893-3.4583-21.0027-.3964-33.5341,6.8387s-17.8329,15.9022-11.844,19.3605,21.003.3964,33.5341-6.839C457.1713,15.5083,462.4743,6.84,456.4854,3.3817Z"/>
        <path class="cls-2" d="M366.6539,8.2247l28.874,16.6712-58.3874,33.71L308.2662,41.9321Zm23.3286,16.6712L366.6539,11.4292l-52.842,30.5029,23.3286,13.47Z"/>
        <path class="cls-2" d="M422.2693-23.8834,451.1436-7.2118l-58.3877,33.71L363.8816,9.8269ZM445.5979-7.2118,422.2693-20.6789,369.4273,9.8269l23.3286,13.4667Z"/>
        <path class="cls-2" d="M337.1405,55.4017l.6918.4019,106.4862,61.4771L406.3144,139.222l-.69-.4023L299.1448,77.34Zm101.6323,61.879L337.1405,58.6062,304.69,77.34l101.6242,58.6773Z"/>
        <path class="cls-2" d="M441.5465,115.6784l.69.4,106.4877,61.4771L510.72,199.4986l-.69-.4022L403.5424,137.62Zm101.6323,61.8775-101.6323-58.673L409.0878,137.62,510.72,196.2941Z"/>
        <path class="cls-2" d="M406.3144,136.0174l54.9763,31.7406L423.288,189.7,368.32,157.96Zm49.4309,31.7406-49.4309-28.536L373.8655,157.96l49.4225,28.5361Z"/>
        <path class="cls-2" d="M458.5187,166.1558l54.9752,31.7406-38.003,21.9413-54.9763-31.741Zm49.4295,31.7406L458.5187,169.36,426.06,188.0967l49.4309,28.5375Z"/>
        <path class="cls-2" d="M301.9182,75.7378l54.9752,31.7436L318.89,129.42,263.9141,97.6806Zm49.4294,31.7436-49.4294-28.539L269.46,97.6806,318.89,126.2152Z"/>
        <path class="cls-2" d="M354.12,105.88,409.0878,137.62l-37.996,21.9424-54.9749-31.7446ZM403.5424,137.62,354.12,109.0836l-32.4573,18.7339,49.4291,28.54Z"/>
        <path class="cls-2" d="M510.72,196.2941l54.9767,31.7392L527.6926,249.976l-54.9751-31.741ZM560.15,228.0333,510.72,199.4986,478.2632,218.235l49.4294,28.5376Z"/>
        <path class="cls-2" d="M545.9512,175.9536l.6914.4019,106.4862,61.4756-38.0026,21.9427-.6918-.4018L507.9482,197.8964Zm101.6323,61.8775-101.6323-58.673-32.4573,18.7383,101.6323,58.6744Z"/>
        <polygon class="cls-4" points="436.127 175.168 400.949 170.857 392.38 149.911 427.65 154.805 436.127 175.168"/>
        <polygon class="cls-3" points="488.329 205.306 453.151 200.996 444.582 180.05 479.852 184.944 488.329 205.306"/>
      </g>
      <g>
        <path class="cls-5" d="M-44.6422,91.1093l16.7705-22.0715A104.94,104.94,0,0,1-3.4965,50.1451C51.1444,18.5975,139.46,18.438,193.76,49.7887A102.2523,102.2523,0,0,1,218.357,69.0378L234.293,92.3q.0061,7.305.0124,14.61h-.0132c-.2213,20.5251-13.9406,41.0561-41.15,56.765-54.6417,31.5472-142.9558,31.707-197.2564.3561-27.2611-15.7386-40.7568-36.4275-40.5331-57.1211H-44.66Q-44.6511,99.01-44.6422,91.1093Z"/>
        <path class="cls-6" d="M-3.4965,35.0489C51.1444,3.5016,139.46,3.3419,193.76,34.6928s54.024,82.34-.6177,113.8859-142.9558,31.707-197.2564.3564S-58.1382,66.5964-3.4965,35.0489Z"/>
        <path class="cls-7" d="M5.9484,139.3954c44.717,25.4871,115.1044,27.5,164.3391,6.0934a131.293,131.293,0,0,0,12.8633-6.4048c49.09-27.9933,49.3276-73.2219.5488-101.0329C134.9207,10.2584,55.5875,10.3871,6.4972,38.38-42.5919,66.3559-42.83,111.5847,5.9484,139.3954Z"/>
        <path class="cls-8" d="M31.7052,73.0985c35.0785-19.9951,91.7725-20.0961,126.6309-.2257s34.681,52.1905-.3963,72.1871-91.7724,20.0972-126.6309.2257S-3.3709,93.0951,31.7052,73.0985Z"/>
        <path class="cls-5" d="M183.7017,48.6605c-48.78-27.8078-128.1163-27.6662-177.2034.3164-22.2642,12.6914-34.45,28.9291-36.5931,45.481C-32.698,74.3918-20.5133,53.775,6.4983,38.3754,55.5854,10.3942,134.9218,10.2526,183.7017,38.06c26.6444,15.1882,38.6214,35.5705,36.0364,55.5029C217.6147,77.1756,205.6266,61.16,183.7017,48.6605Z"/>
        <g>
          <path class="cls-9" d="M34.8425,142.0071c32.9192,19.0061,86.4606,18.9095,119.5863-.2157s33.2934-50.0369.375-69.043c-32.92-19.0061-86.46-18.9095-119.5864.2157S1.9229,123.0009,34.8425,142.0071Z"/>
          <path class="cls-3" d="M38.9269,139.647a83.1546,83.1546,0,0,0,10.0118,4.8907,106.1738,106.1738,0,0,0,18.5579,5.624,130.2368,130.2368,0,0,0,20.5075,2.5677,137.1278,137.1278,0,0,0,20.9832-.6454,122.8342,122.8342,0,0,0,19.98-3.8188,96.6937,96.6937,0,0,0,17.5509-6.7365q1.9753-.9969,3.8511-2.0828a64.5151,64.5151,0,0,0,10.0375-7.0664,42.8462,42.8462,0,0,0,9.2156-10.9324,29.3643,29.3643,0,0,0,3.8925-11.9328,27.1314,27.1314,0,0,0-1.69-12.0877,35.518,35.518,0,0,0-7.1474-11.3758A56.0263,56.0263,0,0,0,152.54,76.1975c-.5962-.3693-1.2046-.7309-1.8266-1.09a86.7022,86.7022,0,0,0-14.3927-6.5659,112.5676,112.5676,0,0,0-19.1779-4.8785,132.2541,132.2541,0,0,0-20.761-1.7751,134.6763,134.6763,0,0,0-20.8733,1.4463,110.6538,110.6538,0,0,0-28.29,7.958,82.1251,82.1251,0,0,0-7.9382,4.016,67.5068,67.5068,0,0,0-6.961,4.5868A48.0114,48.0114,0,0,0,21.8451,90.4487a31.6405,31.6405,0,0,0-5.2576,11.7622,26.6558,26.6558,0,0,0,.284,12.1245,32.4826,32.4826,0,0,0,5.8112,11.6363A49.75,49.75,0,0,0,33.6465,136.28Q36.1122,138.0229,38.9269,139.647Z"/>
          <path class="cls-10" d="M32.3195,79.8949l62.5029,27.4806L47.2187,71.2921a82.1251,82.1251,0,0,0-7.9382,4.016A67.5068,67.5068,0,0,0,32.3195,79.8949Z"/>
          <path class="cls-10" d="M16.5875,102.2109l78.2349,5.1646L21.8451,90.4487A31.6405,31.6405,0,0,0,16.5875,102.2109Z"/>
          <path class="cls-10" d="M22.6827,125.9717l72.14-18.5962-77.9509,6.96A32.4826,32.4826,0,0,0,22.6827,125.9717Z"/>
          <path class="cls-10" d="M38.9269,139.647a83.1546,83.1546,0,0,0,10.0118,4.8907l45.8837-37.1622L33.6465,136.28Q36.1122,138.0229,38.9269,139.647Z"/>
          <path class="cls-10" d="M67.4966,150.1617a130.2368,130.2368,0,0,0,20.5075,2.5677l6.8183-45.3539Z"/>
          <path class="cls-10" d="M108.9873,152.084a122.8342,122.8342,0,0,0,19.98-3.8188l-34.1446-40.89Z"/>
          <path class="cls-10" d="M146.5179,141.5287q1.9753-.9969,3.8511-2.0828a64.5151,64.5151,0,0,0,10.0375-7.0664l-65.5841-25.004Z"/>
          <path class="cls-10" d="M94.8224,107.3755l74.8,14.0716a29.3643,29.3643,0,0,0,3.8925-11.9328Z"/>
          <path class="cls-10" d="M94.8224,107.3755l77.0025-9.9489a35.518,35.518,0,0,0-7.1474-11.3758Z"/>
          <path class="cls-10" d="M94.8224,107.3755,152.54,76.1975c-.5962-.3693-1.2046-.7309-1.8266-1.09a86.7022,86.7022,0,0,0-14.3927-6.5659Z"/>
          <path class="cls-10" d="M94.8224,107.3755l22.3207-43.7126a132.2541,132.2541,0,0,0-20.761-1.7751Z"/>
          <g>
            <path class="cls-11" d="M47.0288,73.8171C44.598,74.9186,42.238,76.1279,40,77.4178c-1.683.9712-3.2874,1.9863-4.7965,3.03L84.1957,101.99Z"/>
            <path class="cls-11" d="M22.4784,92.9357a30.6243,30.6243,0,0,0-4.0913,8.8114L77.2018,105.63Z"/>
            <path class="cls-11" d="M77.403,111.239l-58.66,5.2375A31.4716,31.4716,0,0,0,23.26,125.196Z"/>
            <path class="cls-11" d="M84.6033,114.6588,36.5467,137.3643c1,.6457,2.0354,1.2813,3.1011,1.8965a81.54,81.54,0,0,0,9.0515,4.4775Z"/>
            <path class="cls-11" d="M92.3907,114.7228l-22.545,35.3009a128.9951,128.9951,0,0,0,16.9266,2.06Z"/>
            <path class="cls-11" d="M110.0035,151.3788a122.2554,122.2554,0,0,0,16.4157-3.0552L98.4075,114.7767Z"/>
            <path class="cls-11" d="M146.6109,140.7237q1.55-.805,3.0372-1.6661a66.105,66.105,0,0,0,7.9369-5.35l-51.06-19.4664Z"/>
            <path class="cls-11" d="M168.8642,120.7a28.1223,28.1223,0,0,0,3.0282-8.9283l-59.0034-1.6032Z"/>
            <path class="cls-11" d="M169.7794,97.1a34.6538,34.6538,0,0,0-5.5645-8.5386l-52.5812,16.05Z"/>
            <path class="cls-11" d="M149.6166,77a85.4465,85.4465,0,0,0-12.9555-5.9439l-32.7093,30.6111Z"/>
            <path class="cls-11" d="M114.957,65.6358a130.8748,130.8748,0,0,0-17.1828-1.4271L96.4855,101.811Z"/>
          </g>
          <path class="cls-12" d="M94.8224,107.3755,73.9438,63.5776a99.001,99.001,0,0,0-26.7251,7.7145Z"/>
          <path class="cls-13" d="M50.3118,133.0767c24.429,14.1042,64.1612,14.031,88.7443-.1617s24.7074-37.132.2772-51.2362-64.1612-14.0322-88.7443.16S25.8828,118.9713,50.3118,133.0767Z"/>
          <path class="cls-14" d="M53.0693,83.2249c23.2052-13.3969,60.7089-13.4653,83.768-.1516s22.9428,34.9662-.2615,48.3631-60.7089,13.465-83.768.1513S29.8662,96.6215,53.0693,83.2249Z"/>
          <path class="cls-15" d="M101.8444,83.3484c-5.1492-2.9731-2.1222-10.6527-8.3916-12.2921,15.7534-.3021,31.64,2.9687,43.625,9.8883,23.0592,13.3124,22.9425,34.9662-.2627,48.3628-.2574.15-.54.274-.8006.4188C135.5687,109.7714,116.1237,91.5928,101.8444,83.3484Z"/>
          <g>
            <path class="cls-16" d="M133.6207,81.5991c-1.0858-.6264-2.2377-1.19-3.3851-1.7573a61.9325,61.9325,0,0,1,6.6017,3.2315c23.0606,13.3124,22.9428,34.9662-.2615,48.3631-.2583.1493-.54.2737-.8015.4185-.0237-1.0766-.0909-2.1678-.173-3.2625C156.5406,115.1271,155.91,94.4682,133.6207,81.5991Z"/>
            <path class="cls-16" d="M104.155,76.9351a77.4184,77.4184,0,0,0-10.9415-3.75c.6018-.0112,1.2037.0181,1.8056.0169A68.9066,68.9066,0,0,1,104.155,76.9351Z"/>
          </g>
          <path class="cls-10" d="M71.4724,103.93c12.8152,7.399,33.6582,7.362,46.5543-.0842s12.9612-19.4788.146-26.8779-33.6583-7.3608-46.5543.0842S58.6572,96.5306,71.4724,103.93Z"/>
          <path class="cls-17" d="M78.3484,97.9789c9.0426,5.221,23.7475,5.194,32.8452-.0595s9.1448-13.7425.1031-18.9635c-9.0415-5.2194-23.7475-5.1927-32.8452.06S69.3078,92.7592,78.3484,97.9789Z"/>
          <path class="cls-14" d="M82.7865,95.4169c6.6053,3.814,17.35,3.7951,23.998-.0438,6.648-3.8374,6.6815-10.0408.0753-13.8548s-17.3513-3.7939-23.9981.0438C76.2129,85.4,76.18,91.6029,82.7865,95.4169Z"/>
          <path class="cls-2" d="M83.3537,79.4287c6.3737-3.6805,16.6763-3.6982,23.01-.0415s6.302,9.6054-.0717,13.2846-16.6754,3.6994-23.01.0415S76.9806,83.1082,83.3537,79.4287Z"/>
        </g>
        <path class="cls-18" d="M61.1093,87.4622s-3.9218,10.9625,9.9117,18.3426A49.9567,49.9567,0,0,0,87.2631,111.14s-5.5331,13.3-7.764,22.99c-1.7517,7.61-4.5462,6.3494-4.5462,6.3494a71.9168,71.9168,0,0,1-29.5957-12.9544c-13.7272-10.5517-9.0921-25.014-9.0921-25.014S43.3833,92.931,61.1093,87.4622Z"/>
        <path class="cls-19" d="M59.5342,96.7338a17.9759,17.9759,0,0,0,5.1332,6.9826,40.74,40.74,0,0,0,8.5184,4.7829s-1.7022,4.3788-8.9508,3.2133c-5.4688-.8791-7.976-3.4725-9.3021-6.685A5.973,5.973,0,0,1,59.5342,96.7338Z"/>
        <path class="cls-20" d="M37.08,103.467a28.9931,28.9931,0,0,0,10.1388,20.6689c10.3192,8.9429,29.0425,14.8409,29.0425,14.8409s-11.002,1.0508-29.5321-11.945C34.2652,118.29,37.08,103.467,37.08,103.467Z"/>
        <g>
          <path class="cls-21" d="M87.803,79.5916a16.6254,16.6254,0,0,1,15.0393-.0282c4.141,2.3915,4.12,6.28-.0471,8.6846a16.6233,16.6233,0,0,1-15.04.0269C83.6152,85.8847,83.6354,81.9966,87.803,79.5916Z"/>
          <path class="cls-2" d="M88.7541,75.7912a14.5113,14.5113,0,0,1,13.1306-.0249c3.6153,2.0872,3.5963,5.4813-.04,7.5821a14.519,14.519,0,0,1-13.1321.0234C85.0982,81.2846,85.1163,77.8906,88.7541,75.7912Z"/>
          <g>
            <path class="cls-22" d="M100.2175,55.5464c9.66-5.49,26.3388-15.2987,26.3388-15.2987l-2.33-1.4987s-22.555,10.4785-26.3646,13.5864C96.2441,53.6558,98.329,56.62,100.2175,55.5464Z"/>
            <path class="cls-23" d="M91.33,56.1832C81.1474,51.7336,64.9471,40.899,64.9471,40.899l2.1612-1.7348S89.2232,50.0506,93.3361,52.743C95.083,53.8872,93.3192,57.0531,91.33,56.1832Z"/>
            <path class="cls-24" d="M87.91,66.2634l14.3782-.2011V76.7262h-.0012a3.6123,3.6123,0,0,1-2.121,2.9261,11.2361,11.2361,0,0,1-10.1663.0178,3.5307,3.5307,0,0,1-2.09-2.9439h0Z"/>
            <path class="cls-2" d="M88.388,62.3211a14.8778,14.8778,0,0,1,13.4629-.0246c3.7062,2.14,3.6873,5.6205-.0414,7.7741a14.8823,14.8823,0,0,1-13.4642.0234C84.6391,67.954,84.6569,64.4747,88.388,62.3211Z"/>
            <path class="cls-25" d="M88.72,60.82a14.1441,14.1441,0,0,1,12.7962-.0225c3.522,2.0334,3.504,5.3412-.04,7.3879a14.1436,14.1436,0,0,1-12.7951.0225C85.1578,66.1745,85.1758,62.867,88.72,60.82Z"/>
            <path class="cls-2" d="M90.5123,58.3244a10.1643,10.1643,0,0,1,9.201-.0169c2.5331,1.4617,2.5206,3.8409-.0293,5.3115a10.162,10.162,0,0,1-9.2.0169C87.95,62.1742,87.9636,59.7949,90.5123,58.3244Z"/>
            <path class="cls-26" d="M90.1787,51.8121l9.8388-.1381v7.9515h0a2.4725,2.4725,0,0,1-1.4516,2.0019,7.6874,7.6874,0,0,1-6.9566.0122A2.4156,2.4156,0,0,1,90.18,59.6255h-.0012Z"/>
            <path class="cls-2" d="M91.6307,49.7408a7.6887,7.6887,0,0,1,6.9577-.0124c1.9143,1.1059,1.9051,2.9044-.0225,4.016a7.6828,7.6828,0,0,1-6.9566.0136C89.6939,52.652,89.704,50.8533,91.6307,49.7408Z"/>
            <path class="cls-27" d="M91.8025,48.966a7.31,7.31,0,0,1,6.6118-.0125c1.82,1.0509,1.8109,2.76-.0214,3.8176a7.3074,7.3074,0,0,1-6.6109.0122C89.9622,51.7324,89.9711,50.0237,91.8025,48.966Z"/>
            <path class="cls-2" d="M92.7286,47.6761a5.2537,5.2537,0,0,1,4.7539-.0092c1.3091.7556,1.3023,1.9851-.0149,2.7451a5.2532,5.2532,0,0,1-4.7535.008C91.405,49.6656,91.4115,48.4361,92.7286,47.6761Z"/>
            <path class="cls-28" d="M99.8007,55.6228c9.66,5.4905,26.7556,17.2109,26.7556,17.2109l-2.33,1.4987S101.2538,61.9417,97.4454,58.8341C95.8277,57.5137,97.9125,54.5494,99.8007,55.6228Z"/>
            <path class="cls-29" d="M126.9843,72.7215a2.8818,2.8818,0,1,1-2.8813-2.8822A2.8823,2.8823,0,0,1,126.9843,72.7215Z"/>
            <path class="cls-30" d="M69.639,42.5686a2.8814,2.8814,0,1,1-.4265-4.0533A2.8823,2.8823,0,0,1,69.639,42.5686Z"/>
            <path class="cls-31" d="M91.9494,55.6228c-9.66,5.4905-30.4124,16.1826-30.4124,16.1826l2.33,1.4987s26.63-11.3624,30.438-14.47C95.9227,57.5137,93.8379,54.5494,91.9494,55.6228Z"/>
            <path class="cls-32" d="M61.1093,71.6919a2.8817,2.8817,0,1,0,2.8811-2.881A2.8827,2.8827,0,0,0,61.1093,71.6919Z"/>
            <path class="cls-33" d="M122.0652,42.3977a2.8811,2.8811,0,1,0,0-4.0744A2.8812,2.8812,0,0,0,122.0652,42.3977Z"/>
          </g>
        </g>
        <path class="cls-34" d="M48.1448,133.4034a5.0192,5.0192,0,1,1-5.02-5.0186A5.0212,5.0212,0,0,1,48.1448,133.4034Z"/>
      </g>
    </g>
  </g>
</svg>
