<svg id="Layer_1" data-name="Layer 1" xmlns="http://www.w3.org/2000/svg" xmlns:xlink="http://www.w3.org/1999/xlink" width="512" height="512" viewBox="0 0 512 512">
  <defs>
    <style>
      .cls-1 {
        fill: #e9e9e9;
      }

      .cls-2 {
        fill: #434343;
      }

      .cls-3 {
        fill: url(#Áåçûìÿííûé_ãðàäèåíò_483);
      }

      .cls-4 {
        fill: url(#Áåçûìÿííûé_ãðàäèåíò_480);
      }

      .cls-5 {
        fill: url(#Áåçûìÿííûé_ãðàäèåíò_484);
      }

      .cls-6 {
        fill: url(#Áåçûìÿííûé_ãðàäèåíò_483-2);
      }

      .cls-7 {
        fill: url(#Áåçûìÿííûé_ãðàäèåíò_480-2);
      }

      .cls-8 {
        fill: url(#Áåçûìÿííûé_ãðàäèåíò_484-2);
      }

      .cls-9 {
        fill: url(#Áåçûìÿííûé_ãðàäèåíò_483-3);
      }

      .cls-10 {
        fill: url(#Áåçûìÿííûé_ãðàäèåíò_480-3);
      }

      .cls-11 {
        fill: url(#Áåçûìÿííûé_ãðàäèåíò_484-3);
      }

      .cls-12 {
        fill: url(#Áåçûìÿííûé_ãðàäèåíò_483-4);
      }

      .cls-13 {
        fill: url(#Áåçûìÿííûé_ãðàäèåíò_480-4);
      }

      .cls-14 {
        fill: #dbd6cb;
      }

      .cls-15 {
        fill: url(#Áåçûìÿííûé_ãðàäèåíò_486);
      }

      .cls-16, .cls-29 {
        fill: #fff;
      }

      .cls-17 {
        fill: url(#linear-gradient);
      }

      .cls-18 {
        fill: url(#linear-gradient-2);
      }

      .cls-19 {
        fill: url(#linear-gradient-3);
      }

      .cls-20 {
        fill: #404040;
      }

      .cls-21 {
        fill: url(#linear-gradient-4);
      }

      .cls-22 {
        fill: url(#linear-gradient-5);
      }

      .cls-23 {
        fill: url(#linear-gradient-6);
      }

      .cls-24 {
        fill: url(#linear-gradient-7);
      }

      .cls-25 {
        fill: url(#linear-gradient-8);
      }

      .cls-26 {
        fill: url(#linear-gradient-9);
      }

      .cls-27 {
        fill: url(#linear-gradient-10);
      }

      .cls-28 {
        fill: url(#linear-gradient-11);
      }

      .cls-29 {
        opacity: 0.25;
      }

      .cls-30 {
        fill: url(#linear-gradient-12);
      }

      .cls-31 {
        fill: #494949;
      }

      .cls-32 {
        fill: url(#linear-gradient-13);
      }

      .cls-33 {
        fill: url(#linear-gradient-14);
      }

      .cls-34 {
        fill: url(#linear-gradient-15);
      }

      .cls-35 {
        fill: url(#linear-gradient-16);
      }

      .cls-36 {
        fill: url(#Áåçûìÿííûé_ãðàäèåíò_480-5);
      }

      .cls-37 {
        isolation: isolate;
      }

      .cls-38 {
        fill: #343434;
      }

      .cls-39 {
        fill: url(#linear-gradient-17);
      }

      .cls-40 {
        fill: url(#Áåçûìÿííûé_ãðàäèåíò_480-6);
      }

      .cls-41 {
        fill: url(#Áåçûìÿííûé_ãðàäèåíò_480-7);
      }

      .cls-42 {
        fill: url(#Áåçûìÿííûé_ãðàäèåíò_484-4);
      }

      .cls-43 {
        fill: url(#Áåçûìÿííûé_ãðàäèåíò_483-5);
      }

      .cls-44 {
        fill: url(#Áåçûìÿííûé_ãðàäèåíò_480-8);
      }

      .cls-45 {
        fill: url(#Áåçûìÿííûé_ãðàäèåíò_480-9);
      }

      .cls-46 {
        fill: url(#Áåçûìÿííûé_ãðàäèåíò_484-5);
      }

      .cls-47 {
        fill: url(#Áåçûìÿííûé_ãðàäèåíò_483-6);
      }

      .cls-48 {
        fill: url(#Áåçûìÿííûé_ãðàäèåíò_480-10);
      }

      .cls-49 {
        fill: url(#Áåçûìÿííûé_ãðàäèåíò_483-7);
      }

      .cls-50 {
        fill: url(#Áåçûìÿííûé_ãðàäèåíò_480-11);
      }

      .cls-51 {
        fill: url(#Áåçûìÿííûé_ãðàäèåíò_486-2);
      }
    </style>
    <linearGradient id="Áåçûìÿííûé_ãðàäèåíò_483" data-name="Áåçûìÿííûé ãðàäèåíò 483" x1="334.8065" y1="131.5065" x2="437.0213" y2="131.5065" gradientUnits="userSpaceOnUse">
      <stop offset="0" stop-color="#d6d2c7"/>
      <stop offset="1" stop-color="#f3ece2"/>
    </linearGradient>
    <linearGradient id="Áåçûìÿííûé_ãðàäèåíò_480" data-name="Áåçûìÿííûé ãðàäèåíò 480" x1="334.8152" y1="114.0077" x2="437.0204" y2="114.0077" gradientUnits="userSpaceOnUse">
      <stop offset="0" stop-color="#eee8de"/>
      <stop offset="0.4729" stop-color="#f5f2e8"/>
      <stop offset="1" stop-color="#f9f7ee"/>
    </linearGradient>
    <linearGradient id="Áåçûìÿííûé_ãðàäèåíò_484" data-name="Áåçûìÿííûé ãðàäèåíò 484" x1="338.4643" y1="110.0679" x2="433.4007" y2="110.0679" gradientUnits="userSpaceOnUse">
      <stop offset="0" stop-color="#cac6ba"/>
      <stop offset="1" stop-color="#eee8de"/>
    </linearGradient>
    <linearGradient id="Áåçûìÿííûé_ãðàäèåíò_483-2" x1="334.8442" y1="107.0515" x2="437.0602" y2="107.0515" xlink:href="#Áåçûìÿííûé_ãðàäèåíò_483"/>
    <linearGradient id="Áåçûìÿííûé_ãðàäèåíò_480-2" x1="337.3235" y1="98.1702" x2="434.6121" y2="98.1702" xlink:href="#Áåçûìÿííûé_ãðàäèåíò_480"/>
    <linearGradient id="Áåçûìÿííûé_ãðàäèåíò_484-2" x1="355.7505" y1="92.0763" x2="416.2673" y2="92.0763" xlink:href="#Áåçûìÿííûé_ãðàäèåíò_484"/>
    <linearGradient id="Áåçûìÿííûé_ãðàäèåíò_483-3" x1="355.7559" y1="83.2334" x2="416.2673" y2="83.2334" xlink:href="#Áåçûìÿííûé_ãðàäèåíò_483"/>
    <linearGradient id="Áåçûìÿííûé_ãðàäèåíò_480-3" x1="358.0126" y1="79.9393" x2="414.0336" y2="79.9393" xlink:href="#Áåçûìÿííûé_ãðàäèåíò_480"/>
    <linearGradient id="Áåçûìÿííûé_ãðàäèåíò_484-3" x1="361.2266" y1="71.9499" x2="410.8333" y2="71.9499" xlink:href="#Áåçûìÿííûé_ãðàäèåíò_484"/>
    <linearGradient id="Áåçûìÿííûé_ãðàäèåíò_483-4" x1="355.8066" y1="47.2899" x2="416.369" y2="47.2899" xlink:href="#Áåçûìÿííûé_ãðàäèåíò_483"/>
    <linearGradient id="Áåçûìÿííûé_ãðàäèåíò_480-4" x1="357.8977" y1="43.3978" x2="414.3462" y2="43.3978" xlink:href="#Áåçûìÿííûé_ãðàäèåíò_480"/>
    <radialGradient id="Áåçûìÿííûé_ãðàäèåíò_486" data-name="Áåçûìÿííûé ãðàäèåíò 486" cx="398.6394" cy="-3.2391" r="53.0645" gradientUnits="userSpaceOnUse">
      <stop offset="0" stop-color="#f9f7ee"/>
      <stop offset="0.4487" stop-color="#f6f4eb"/>
      <stop offset="0.8353" stop-color="#eeeae0"/>
      <stop offset="1" stop-color="#e9e4d9"/>
    </radialGradient>
    <linearGradient id="linear-gradient" x1="-60.9597" y1="360.6342" x2="41.2552" y2="360.6342" gradientUnits="userSpaceOnUse">
      <stop offset="0" stop-color="#242424"/>
      <stop offset="1" stop-color="#191919"/>
    </linearGradient>
    <linearGradient id="linear-gradient-2" x1="-60.9509" y1="343.1354" x2="41.2542" y2="343.1354" gradientUnits="userSpaceOnUse">
      <stop offset="0" stop-color="#595959"/>
      <stop offset="1" stop-color="#1e1e1e"/>
    </linearGradient>
    <linearGradient id="linear-gradient-3" x1="-57.3019" y1="339.1955" x2="37.6346" y2="339.1955" xlink:href="#linear-gradient"/>
    <linearGradient id="linear-gradient-4" x1="-58.4427" y1="327.2979" x2="38.8459" y2="327.2979" xlink:href="#linear-gradient-2"/>
    <linearGradient id="linear-gradient-5" x1="-40.0156" y1="321.2039" x2="20.5011" y2="321.2039" xlink:href="#linear-gradient"/>
    <linearGradient id="linear-gradient-6" x1="-40.0103" y1="312.361" x2="20.5011" y2="312.361" xlink:href="#linear-gradient"/>
    <linearGradient id="linear-gradient-7" x1="-34.5396" y1="301.0776" x2="15.0671" y2="301.0776" xlink:href="#linear-gradient-2"/>
    <linearGradient id="linear-gradient-8" x1="-39.9596" y1="276.4176" x2="20.6029" y2="276.4176" xlink:href="#linear-gradient"/>
    <linearGradient id="linear-gradient-9" x1="-37.8685" y1="272.5255" x2="18.58" y2="272.5255" xlink:href="#linear-gradient-2"/>
    <linearGradient id="linear-gradient-10" x1="-37.3806" y1="265.8218" x2="11.6491" y2="265.8218" xlink:href="#linear-gradient"/>
    <linearGradient id="linear-gradient-11" x1="-37.1442" y1="246.5544" x2="18.0024" y2="246.5544" xlink:href="#linear-gradient-2"/>
    <linearGradient id="linear-gradient-12" x1="72.3296" y1="128.6051" x2="179.8035" y2="128.6051" xlink:href="#linear-gradient"/>
    <linearGradient id="linear-gradient-13" x1="74.2855" y1="101.0862" x2="177.925" y2="101.0862" xlink:href="#linear-gradient-2"/>
    <linearGradient id="linear-gradient-14" x1="74.2688" y1="117.4958" x2="177.9247" y2="117.4958" xlink:href="#linear-gradient"/>
    <linearGradient id="linear-gradient-15" x1="88.0919" y1="96.2016" x2="164.1997" y2="96.2016" xlink:href="#linear-gradient"/>
    <linearGradient id="linear-gradient-16" x1="91.8754" y1="51.3452" x2="160.4337" y2="51.3452" xlink:href="#linear-gradient-2"/>
    <linearGradient id="Áåçûìÿííûé_ãðàäèåíò_480-5" x1="100.0083" y1="4.5046" x2="152.5563" y2="4.5046" xlink:href="#Áåçûìÿííûé_ãðàäèåíò_480"/>
    <linearGradient id="linear-gradient-17" x1="87.6715" y1="3.1558" x2="165.8309" y2="3.1558" xlink:href="#linear-gradient"/>
    <linearGradient id="Áåçûìÿííûé_ãðàäèåíò_480-6" x1="448.559" y1="481.4378" x2="583.1785" y2="481.4378" xlink:href="#Áåçûìÿííûé_ãðàäèåíò_480"/>
    <linearGradient id="Áåçûìÿííûé_ãðàäèåíò_480-7" x1="450.9668" y1="468.9661" x2="580.8246" y2="468.9661" xlink:href="#Áåçûìÿííûé_ãðàäèåíò_480"/>
    <linearGradient id="Áåçûìÿííûé_ãðàäèåíò_484-4" x1="489.0374" y1="384.8253" x2="536.9643" y2="468.9897" xlink:href="#Áåçûìÿííûé_ãðàäèåíò_484"/>
    <linearGradient id="Áåçûìÿííûé_ãðàäèåíò_483-5" x1="483.5949" y1="382.5176" x2="548.7559" y2="382.5176" xlink:href="#Áåçûìÿííûé_ãðàäèåíò_483"/>
    <linearGradient id="Áåçûìÿííûé_ãðàäèåíò_480-8" x1="483.6012" y1="369.5643" x2="548.7556" y2="369.5643" xlink:href="#Áåçûìÿííûé_ãðàäèåíò_480"/>
    <linearGradient id="Áåçûìÿííûé_ãðàäèåíò_480-9" x1="469.1937" y1="449.414" x2="560.2123" y2="449.414" xlink:href="#Áåçûìÿííûé_ãðàäèåíò_480"/>
    <linearGradient id="Áåçûìÿííûé_ãðàäèåíò_484-5" x1="492.5582" y1="366.6815" x2="539.7915" y2="366.6815" xlink:href="#Áåçûìÿííûé_ãðàäèåíò_484"/>
    <linearGradient id="Áåçûìÿííûé_ãðàäèåíò_483-6" x1="487.8565" y1="359.0793" x2="544.545" y2="359.0793" xlink:href="#Áåçûìÿííûé_ãðàäèåíò_483"/>
    <linearGradient id="Áåçûìÿííûé_ãðàäèåíò_480-10" x1="487.8702" y1="348.4092" x2="544.5447" y2="348.4092" xlink:href="#Áåçûìÿííûé_ãðàäèåíò_480"/>
    <linearGradient id="Áåçûìÿííûé_ãðàäèåíò_483-7" x1="491.8178" y1="345.9677" x2="539.8765" y2="345.9677" xlink:href="#Áåçûìÿííûé_ãðàäèåíò_483"/>
    <linearGradient id="Áåçûìÿííûé_ãðàäèåíò_480-11" x1="491.8373" y1="335.5683" x2="539.8766" y2="335.5683" xlink:href="#Áåçûìÿííûé_ãðàäèåíò_480"/>
    <radialGradient id="Áåçûìÿííûé_ãðàäèåíò_486-2" cx="521.5571" cy="272.8924" r="71.1244" xlink:href="#Áåçûìÿííûé_ãðàäèåíò_486"/>
  </defs>
  <g id="Backgrounds">
    <g id="ChessBoard">
      <path class="cls-1" d="M256,416.904l129.9333-75.0986L256,266.7068,126.0667,341.8054Z"/>
      <path class="cls-1" d="M-3.8667,416.904l129.9334-75.0986L-3.8667,266.7068-133.8,341.8054Z"/>
      <path class="cls-1" d="M515.8667,416.904,645.8,341.8054,515.8667,266.7068,385.9333,341.8054Z"/>
      <path class="cls-1" d="M256,266.7068l129.9333-75.0987L256,116.51,126.0667,191.6081Z"/>
      <path class="cls-1" d="M-3.8667,266.7068l129.9334-75.0987L-3.8667,116.51-133.8,191.6081Z"/>
      <path class="cls-1" d="M515.8667,266.7068,645.8,191.6081,515.8667,116.51,385.9333,191.6081Z"/>
      <path class="cls-1" d="M256,116.51,385.9333,41.4109,256-33.6878,126.0667,41.4109Z"/>
      <path class="cls-1" d="M515.8667,116.51,645.8,41.4109,515.8667-33.6878,385.9333,41.4109Z"/>
      <path class="cls-1" d="M-3.8667,116.51,126.0667,41.4109-3.8667-33.6878-133.8,41.4109Z"/>
      <path class="cls-1" d="M256,567.1013l129.9333-75.0986L256,416.904,126.0667,492.0027Z"/>
      <path class="cls-1" d="M-3.8667,567.1013l129.9334-75.0986L-3.8667,416.904-133.8,492.0027Z"/>
      <path class="cls-1" d="M515.8667,567.1013,645.8,492.0027,515.8667,416.904,385.9333,492.0027Z"/>
      <path class="cls-2" d="M385.9333,341.8054l129.9334-75.0986L385.9333,191.6081,256,266.7068Z"/>
      <path class="cls-2" d="M126.0666,341.8054,256,266.7068,126.0666,191.6081-3.8667,266.7068Z"/>
      <path class="cls-2" d="M385.9333,191.6081,515.8667,116.51Q450.9,78.96,385.9333,41.4109L256,116.51Z"/>
      <path class="cls-2" d="M126.0666,191.6081,256,116.51Q191.0333,78.96,126.0666,41.4109L-3.8667,116.51Z"/>
      <path class="cls-2" d="M126.0666,41.4109,256-33.6878,126.0666-108.7864-3.8667-33.6878Z"/>
      <path class="cls-2" d="M385.9333,41.4109,515.8667-33.6878,385.9333-108.7864,256-33.6878Z"/>
      <path class="cls-2" d="M126.0666,492.0027,256,416.904,126.0666,341.8054-3.8667,416.904Z"/>
      <path class="cls-2" d="M385.9333,492.0027,515.8667,416.904Q450.9,379.3548,385.9333,341.8054L256,416.904Z"/>
      <path class="cls-2" d="M385.9333,642.2l129.9334-75.0986Q450.9,529.552,385.9333,492.0027L256,567.1013Z"/>
      <path class="cls-2" d="M126.0666,642.2,256,567.1013q-64.9667-37.5494-129.9334-75.0986L-3.8667,567.1013Z"/>
      <g>
        <g>
          <path class="cls-3" d="M334.8153,115.0659l-.0088,3.1383c-.0214,7.45,4.7838,14.9219,14.4582,20.7043,19.6721,11.76,52.0252,12.0872,72.2638.73,10.2852-5.7713,15.4621-13.45,15.4841-21.15l.0087-3.1372Z"/>
          <path class="cls-4" d="M421.0662,91.3149c-7.2395-4.3975-16.0423-7.0388-25.2154-8.1091L352.5252,90.51c-10.2585,5.5257-17.3616,13.7985-17.71,24.5562-.0209,7.4515,4.7848,14.9219,14.4586,20.7059,19.6716,11.7593,52.0247,12.0862,72.2634.73,10.2852-5.7713,15.4621-13.45,15.4831-21.458C436.6311,105.4934,431.2637,97.51,421.0662,91.3149Z"/>
          <path class="cls-5" d="M419.9711,90.9681c-18.273-10.9234-48.3253-11.2274-67.1239-.6786s-19.2254,27.9551-.9524,38.8785c8.549,5.1107,19.6765,7.8962,31.0241,8.3341,12.9056.4974,26.0952-2.0431,36.0989-7.6565a41.0473,41.0473,0,0,0,4.45-2.8713C437.7511,116.3457,436.6686,100.9493,419.9711,90.9681Zm1.3026,33.7093a38.9268,38.9268,0,0,1-4.19,2.7032c-9.4176,5.2841-21.8351,7.676-33.9851,7.2074-10.6827-.4117-21.1589-3.035-29.2071-7.846-17.2022-10.2843-16.8013-26.6705.8969-36.6011s45.99-9.6456,63.1931.6377C433.7009,100.1767,434.72,114.6709,421.2737,124.6774Z"/>
        </g>
        <path class="cls-6" d="M422.03,79.07,345.0318,82.6c-15.0909,12.9723-13.6275,31.7973,5.8034,43.5834,13.1584,7.9824,42.4425,14.7631,69.1856.7268a2.7519,2.7519,0,0,0,1.14-1.2753,2.7593,2.7593,0,0,1-1.14,1.2763c4.1607-2.4664,16.82-9.9715,17.0371-24.5446C437.1529,95.9736,434.4141,87.047,422.03,79.07Z"/>
        <path class="cls-7" d="M420.8494,78.2062a49.9488,49.9488,0,0,0-4.9509-2.5863l-11.276-5.1316a31.2919,31.2919,0,0,1,3.0792,1.6086l-42.7834-.4321q1.2261-.6883,2.5492-1.28l-11.3058,5.0679q-2.1227.9513-4.0993,2.0582c-19.2639,10.81-19.7014,28.6478-.9758,39.8415,7.886,4.7147,17.9149,7.4992,28.3205,8.3352,14.3007,1.1482,29.3152-1.383,40.4656-7.64a40.2536,40.2536,0,0,0,6.2623-4.2894C438.9539,102.9437,437.2678,88.0208,420.8494,78.2062Z"/>
        <path class="cls-8" d="M355.7559,82.3562l-.0053,1.83c-.0127,4.4121,2.8323,8.8354,8.56,12.2591,11.6473,6.9624,30.8015,7.1562,42.7835.4321,6.09-3.4173,9.155-7.9629,9.1681-12.5222l.0054-1.83Z"/>
        <path class="cls-9" d="M406.2846,66.9954c-.1754-.095-39.786-.4949-39.786-.4949-4.8564,2.6891-10.54,7.5586-10.7427,15.8557-.0131,4.4117,2.8328,8.8345,8.56,12.2587,11.6467,6.9628,30.8015,7.1562,42.7839.4321,6.09-3.4169,9.1545-7.963,9.1677-12.6031C416.1133,76.09,412.7559,70.8926,406.2846,66.9954Z"/>
        <path class="cls-10" d="M406.1083,66.9l-2.2931-1.0629c8.3712,5.0045,9.2315,12.6118,2.6969,18.1268a20.4932,20.4932,0,0,1-3.1942,2.1878c-5.6865,3.1909-13.3436,4.4818-20.6367,3.8958a33.8278,33.8278,0,0,1-14.4372-4.2495c-9.5476-5.7084-9.325-14.803.4974-20.3156L366.5,66.5005c-11.0929,6.2243-11.3442,16.4959-.5616,22.9413a38.1869,38.1869,0,0,0,16.3039,4.799c8.2358.662,16.8832-.7956,23.3048-4.399a23.1544,23.1544,0,0,0,3.6078-2.4713C416.5338,81.1432,415.5619,72.5514,406.1083,66.9Z"/>
        <path class="cls-11" d="M410.33,72.9752l-6.7514-19.1616-34.9715-.0984-6.86,19.1226c-1.6178,4.5091.5344,9.3952,6.4976,12.96,9.5482,5.7074,25.251,5.8662,35.0734.3536C409.6128,82.6193,411.9653,77.6158,410.33,72.9752Z"/>
        <g>
          <path class="cls-12" d="M414.7289,40.1164c-3.1358-6.0757-9.8341-9.9339-17.612-11.7578a33.8764,33.8764,0,0,1,9.2437,3.6828c10.8644,6.4952,10.6111,16.8447-.567,23.1173s-29.0464,6.0918-39.9108-.4039c-10.4937-6.273-10.5137-16.1081-.4389-22.4259-4.3542,2.5536-7.736,5.9359-9.023,10.3548-5.4644,18.7665,26.7012,30.7825,49.8808,18.634,2.4644-1.47,9.9549-5.9335,10.0664-14.61A14.0272,14.0272,0,0,0,414.7289,40.1164Z"/>
          <path class="cls-13" d="M406.3611,32.0409c-10.8649-6.4946-28.7341-6.6754-39.9117-.4028s-11.431,16.621-.5661,23.1162a38.8034,38.8034,0,0,0,17.0308,4.88c8.1159.551,16.5655-.9334,22.88-4.4764a23.6332,23.6332,0,0,0,3.4481-2.3349C416.8811,46.5366,415.9652,37.7825,406.3611,32.0409Z"/>
          <path class="cls-14" d="M406.3611,32.0409c-10.8644-6.4951-28.7336-6.6754-39.9117-.4033-4.4463,2.4957-7.0871,5.6417-8.0638,8.9275.377.2543.6605.5378,1.0688.7824a38.7994,38.7994,0,0,0,17.0312,4.88c8.116.5515,16.5656-.9328,22.88-4.4759a23.671,23.671,0,0,0,3.4486-2.3349,13.5589,13.5589,0,0,0,4.6016-6.6218C407.0485,32.5481,406.7576,32.2777,406.3611,32.0409Z"/>
        </g>
        <g>
          <path class="cls-15" d="M413.7677,17.5784a27.6512,27.6512,0,0,0-3.6692-13.8316C397.874-17.4715,366.8113-13.7546,359.74,9.7728c-6.4323,21.4,15.9791,43.8474,39.4217,32.0321A27.5978,27.5978,0,0,0,413.7677,17.5784Z"/>
          <path class="cls-16" d="M405.18,7.6722c-2.1615,3.7433-7.6482,4.6216-12.2552,1.9613s-6.59-7.8509-4.4292-11.5942,7.6483-4.6216,12.2558-1.9617S407.3412,3.9285,405.18,7.6722Z"/>
        </g>
      </g>
      <g>
        <g>
          <path class="cls-17" d="M-60.9509,344.1936l-.0087,3.1382c-.0215,7.4505,4.7838,14.9219,14.4581,20.7044,19.6721,11.76,52.0252,12.0872,72.2638.73,10.2852-5.7712,15.4622-13.45,15.4841-21.15l.0088-3.1372Z"/>
          <path class="cls-18" d="M25.3,320.4426c-7.2395-4.3975-16.0423-7.0388-25.2154-8.1091l-43.3256,7.3039c-10.2584,5.5257-17.3616,13.7985-17.71,24.5562-.0209,7.4515,4.7848,14.9219,14.4586,20.7058,19.6716,11.7594,52.0247,12.0862,72.2634.73,10.2852-5.7713,15.4621-13.45,15.4831-21.458C40.865,334.6211,35.4975,326.6377,25.3,320.4426Z"/>
          <path class="cls-19" d="M24.2049,320.0958c-18.273-10.9234-48.3253-11.2274-67.1239-.6786s-19.2254,27.9551-.9524,38.8784c8.549,5.1107,19.6765,7.8963,31.0242,8.3342,12.9056.4974,26.0951-2.0431,36.0988-7.6565a41.0738,41.0738,0,0,0,4.45-2.8713C41.9849,345.4734,40.9025,330.077,24.2049,320.0958Zm1.3026,33.7093a38.9268,38.9268,0,0,1-4.19,2.7032c-9.4176,5.2841-21.8351,7.676-33.9851,7.2074-10.6827-.4117-21.1589-3.035-29.2071-7.8461-17.2022-10.2842-16.8013-26.6705.8969-36.601s45.99-9.6456,63.1931.6377C37.9347,329.3044,38.9539,343.7985,25.5075,353.8051Z"/>
        </g>
        <path class="cls-20" d="M26.2636,308.1981l-76.998,3.5294c-15.0909,12.9723-13.6275,31.7973,5.8035,43.5834,13.1584,7.9824,42.4424,14.7631,69.1855.7268a2.7517,2.7517,0,0,0,1.14-1.2754,2.7591,2.7591,0,0,1-1.14,1.2764c4.1608-2.4665,16.82-9.9715,17.0371-24.5446C41.3867,325.1012,38.6479,316.1747,26.2636,308.1981Z"/>
        <path class="cls-21" d="M25.0833,307.3339a49.95,49.95,0,0,0-4.951-2.5863L8.8563,299.616a31.2913,31.2913,0,0,1,3.0792,1.6085l-42.7834-.4321q1.2261-.6883,2.5493-1.28L-39.6044,304.58q-2.1228.9514-4.0994,2.0582c-19.2639,10.81-19.7013,28.6479-.9758,39.8416,7.886,4.7147,17.915,7.4992,28.3205,8.3352,14.3008,1.1482,29.3152-1.3831,40.4656-7.64a40.2536,40.2536,0,0,0,6.2623-4.2894C43.1877,332.0714,41.5017,317.1485,25.0833,307.3339Z"/>
        <path class="cls-22" d="M-40.01,311.4839l-.0054,1.83c-.0127,4.4121,2.8323,8.8354,8.56,12.2591,11.6473,6.9623,30.8015,7.1562,42.7835.4321,6.09-3.4174,9.155-7.963,9.1681-12.5222l.0054-1.83Z"/>
        <path class="cls-23" d="M10.5184,296.1231c-.1753-.095-39.786-.4949-39.786-.4949-4.8564,2.689-10.5395,7.5586-10.7426,15.8557-.0132,4.4117,2.8327,8.8345,8.56,12.2587,11.6468,6.9628,30.8015,7.1562,42.7839.4321,6.09-3.4169,9.1546-7.963,9.1677-12.6031C20.3472,305.2172,16.99,300.02,10.5184,296.1231Z"/>
        <path class="cls-20" d="M10.3421,296.0281l-2.293-1.0629c8.3711,5.0044,9.2315,12.6118,2.6968,18.1268A20.4885,20.4885,0,0,1,7.5517,315.28c-5.6865,3.1908-13.3435,4.4818-20.6366,3.8957a33.8259,33.8259,0,0,1-14.4372-4.2494c-9.5477-5.7084-9.3251-14.803.4973-20.3156l-2.2418,1.0177c-11.0929,6.2243-11.3443,16.4958-.5617,22.9413a38.1868,38.1868,0,0,0,16.3039,4.7989c8.2358.6621,16.8832-.7955,23.3048-4.3989a23.1544,23.1544,0,0,0,3.6078-2.4713C20.7676,310.2709,19.7957,301.6791,10.3421,296.0281Z"/>
        <path class="cls-24" d="M14.5637,302.1029,7.8123,282.9413l-34.9715-.0984-6.86,19.1226c-1.6178,4.5091.5344,9.3952,6.4976,12.96,9.5482,5.7075,25.251,5.8663,35.0734.3537C13.8466,311.747,16.1991,306.7435,14.5637,302.1029Z"/>
        <g>
          <path class="cls-25" d="M18.9627,269.2441c-3.1358-6.0757-9.8341-9.9339-17.612-11.7578a33.8764,33.8764,0,0,1,9.2437,3.6828c10.8645,6.4952,10.6112,16.8447-.567,23.1172s-29.0463,6.0919-39.9108-.4038c-10.4937-6.273-10.5136-16.1081-.4389-22.426-4.3541,2.5537-7.7359,5.936-9.023,10.3549-5.4643,18.7665,26.7012,30.7825,49.8808,18.634,2.4645-1.47,9.9549-5.9335,10.0664-14.61A14.026,14.026,0,0,0,18.9627,269.2441Z"/>
          <path class="cls-26" d="M10.5949,261.1686c-10.8649-6.4947-28.7341-6.6754-39.9117-.4028s-11.431,16.621-.5661,23.1162a38.8034,38.8034,0,0,0,17.0308,4.88c8.1159.5509,16.5655-.9334,22.88-4.4764a23.6244,23.6244,0,0,0,3.448-2.335C21.1149,275.6643,20.1991,266.91,10.5949,261.1686Z"/>
          <path class="cls-27" d="M10.5949,261.1686c-10.8644-6.4951-28.7336-6.6754-39.9117-.4033-4.4462,2.4956-7.0871,5.6417-8.0638,8.9275.377.2543.6606.5378,1.0688.7823a38.7986,38.7986,0,0,0,17.0313,4.88c8.1159.5515,16.5655-.9329,22.8794-4.4759a23.6735,23.6735,0,0,0,3.4486-2.3349,13.5589,13.5589,0,0,0,4.6016-6.6218C11.2823,261.6758,10.9914,261.4054,10.5949,261.1686Z"/>
        </g>
        <g>
          <path class="cls-28" d="M18.0015,246.7061a27.6512,27.6512,0,0,0-3.6692-13.8316c-12.2245-21.2183-43.2872-17.5014-50.3586,6.026-6.4324,21.4,15.979,43.8474,39.4216,32.0321A27.598,27.598,0,0,0,18.0015,246.7061Z"/>
          <path class="cls-29" d="M9.4141,236.8c-2.1615,3.7433-7.6483,4.6216-12.2553,1.9613S-9.4313,230.91-7.27,227.167s7.6482-4.6216,12.2557-1.9617S11.5751,233.0562,9.4141,236.8Z"/>
        </g>
      </g>
      <g>
        <g>
          <path class="cls-30" d="M72.3641,106.9034,72.33,119.041c-.0223,7.8318,5.0295,15.686,15.1982,21.7646,20.68,12.3619,54.69,12.7057,75.9647.7679,10.8117-6.0674,16.2542-14.1385,16.2765-22.2333l.0344-12.1372Z"/>
          <path class="cls-31" d="M164.6048,85.438l-1.3584-.7875c10.6411,6.361,15.4732,14.736,14.551,22.914-.8065,7.1531-6.0158,14.1552-15.59,19.5281a61.828,61.828,0,0,1-14.185,5.6535c-19.4375,5.2223-43.2969,3.0485-59.0921-6.3936C68.9819,114.4277,69.4479,95.426,89.97,83.91l-1.3292.76c-21.2744,11.9383-21.7571,31.6369-1.0782,43.9989,16.375,9.7887,41.1087,12.0419,61.2588,6.6282a64.0839,64.0839,0,0,0,14.7049-5.8607c9.9262-5.57,15.3264-12.8294,16.1622-20.2445C180.6453,100.7143,175.6357,92.0318,164.6048,85.438Z"/>
          <path class="cls-32" d="M163.2635,78.7676q-.3212-.1924-.6494-.381l-9.6726-5.5852c.16.093.3192.1863.4758.28L99.62,72.538l-9.6326,5.489c-20.5218,11.516-20.9878,30.5177-1.04,42.4426,15.7836,9.4351,39.6175,11.6126,59.0471,6.4056a61.8438,61.8438,0,0,0,14.2291-5.6651c9.6-5.3873,14.8122-12.4126,15.5978-19.5857C178.7136,93.4641,173.8792,85.1132,163.2635,78.7676Z"/>
          <path class="cls-33" d="M162.2234,121.21c-20.5219,11.5155-53.3295,11.1843-73.2767-.74-9.81-5.864-14.683-13.44-14.6611-20.9953l-.0168,5.8825c-.0218,7.5555,4.8512,15.1318,14.6612,20.9957,19.9476,11.9244,52.7548,12.2561,73.2771.74,10.4293-5.8523,15.6791-13.6386,15.7009-21.4468l.0167-5.8825C177.9029,107.5715,172.6531,115.3573,162.2234,121.21Z"/>
          <path class="cls-34" d="M152.6721,97.9342c-15.0668,8.4544-39.1529,8.2115-53.7982-.5431-7.2019-4.3057-10.78-9.8676-10.7643-15.4152l-.0177,6.3086c-.0158,5.5466,3.5619,11.1085,10.7643,15.4142,14.6444,8.7545,38.731,8.998,53.7982.5436,7.6577-4.2978,11.5109-10.0131,11.5272-15.746l.0181-6.3076C164.1839,87.9207,160.33,93.6373,152.6721,97.9342Z"/>
        </g>
        <path class="cls-20" d="M153.5538,66.8962c2.8521,2.8506,4.9269,6.368,4.9162,10.5422-.0134,5.2219-3.2873,10.4289-9.7919,14.3434-12.7968,7.7013-33.256,7.48-45.6955-.4952-6.1171-3.922-9.1569-8.9882-9.1429-14.0419.0088-3.6065,1.6808-7.2131,4.8088-10.4-6.92,4.2165-10.5236,9.6841-10.5389,15.1313C88.0938,87.523,91.672,93.085,98.8739,97.3907c14.6453,8.755,38.7319,8.9975,53.7982.5435C160.33,93.6373,164.1839,87.9207,164.2,82.1887,164.2183,75.5773,159.2933,70.3559,153.5538,66.8962Z"/>
        <g>
          <path class="cls-35" d="M160.2563,78.0187,152.42,3.0017c.7856,4.4688-1.8342,9.0886-7.8249,12.45-10.4052,5.8388-27.0394,5.6706-37.1533-.3754-5.6572-3.3821-8.0763-7.8862-7.2888-12.2212L92.0645,77.8277c-1.0272,5.6558,2.1292,11.5327,9.51,15.9448,13.1954,7.8881,34.8977,8.1074,48.4732.49C157.8633,89.8761,161.2812,83.8487,160.2563,78.0187Z"/>
          <path class="cls-36" d="M145.1227-6.0673c-10.1139-6.046-26.7482-6.2142-37.1533-.3759s-10.6417,15.4738-.5273,21.52,26.7481,6.2142,37.1533.3754S155.2366-.0213,145.1227-6.0673Z"/>
        </g>
        <g class="cls-37">
          <path class="cls-38" d="M149.6026-20.847c-12.1083-7.2873-32.1549-7.49-44.7752-.4529S91.7913-2.65,103.9,4.637s32.1549,7.4905,44.7756.453S161.7109-13.56,149.6026-20.847Z"/>
          <path class="cls-31" d="M154.922-29.7961c-14.9357-8.9892-39.6634-9.2391-55.2314-.5589S83.6106-7.35,98.5468,1.6387s39.6634,9.239,55.231.5588S169.8578-20.807,154.922-29.7961ZM148.6581-.884c-12.62,7.0374-32.6673,6.8349-44.7752-.453S92.19-20.2365,104.81-27.2735s32.6674-6.8349,44.7757.4525S161.2784-7.921,148.6581-.884Z"/>
          <path class="cls-39" d="M165.7969-14.1928c.0172,5.9606-4.0075,11.923-12.0191,16.39-15.5676,8.68-40.2957,8.43-55.231-.5588C91.2975-2.7242,87.6877-8.3437,87.6715-13.9647l.0339,11.9569c.0158,5.6209,3.626,11.24,10.8753,15.6033,14.9353,8.9892,39.6634,9.2391,55.231.5589,8.0116-4.4674,12.0358-10.43,12.0191-16.39Z"/>
        </g>
      </g>
      <g>
        <path class="cls-14" d="M448.5592,476.2549l-.0431,15.2081c-.028,9.8131,6.3019,19.6542,19.0436,27.2705,25.9107,15.4892,68.5243,15.92,95.1813.9622,13.5474-7.6023,20.3662-17.7152,20.3941-27.8579l.0431-15.2081Z"/>
        <path class="cls-40" d="M564.1346,449.3587l-1.7015-.9861c13.3325,7.97,19.387,18.4638,18.2315,28.7106-1.01,8.9627-7.5377,17.7362-19.5343,24.4683a77.4647,77.4647,0,0,1-17.7734,7.0836c-24.3548,6.5435-54.25,3.82-74.041-8.0109-24.9939-14.9415-24.4106-38.75,1.3033-53.1795l-1.6654.9523c-26.6564,14.9578-27.2612,39.64-1.351,55.13,20.5175,12.2644,51.5088,15.0882,76.7559,8.3049a80.2874,80.2874,0,0,0,18.4248-7.3432c12.4373-6.9789,19.2037-16.0749,20.2509-25.3659C584.2329,468.5,577.9561,457.6211,564.1346,449.3587Z"/>
        <path class="cls-41" d="M562.4541,441.0014q-.4026-.241-.8133-.4779l-12.1194-6.9975c.2.1164.3993.2334.5961.351l-67.4079-.6811L470.64,440.0735c-25.7133,14.4286-26.2972,38.2379-1.3028,53.1794,19.7759,11.822,49.64,14.55,73.984,8.0261a77.4785,77.4785,0,0,0,17.8288-7.0982c12.0291-6.75,18.5592-15.5527,19.5435-24.54C581.8131,459.4157,575.7552,448.9523,562.4541,441.0014Z"/>
        <path class="cls-14" d="M561.1507,494.1808c-25.7134,14.4287-66.8205,14.0136-91.8138-.9279-12.2912-7.3473-18.3975-16.84-18.37-26.3065l-.021,7.3706c-.0274,9.4668,6.0789,18.9592,18.37,26.3072,24.9939,14.9409,66.1,15.3565,91.8144.9273,13.0677-7.3328,19.6455-17.0889,19.6735-26.8724l.0209-7.3706C580.7968,477.0919,574.219,486.8475,561.1507,494.1808Z"/>
        <path class="cls-14" d="M549.1832,465.0167c-18.8783,10.5932-49.0576,10.2888-67.4079-.68-9.0238-5.3949-13.5072-12.3639-13.4874-19.3148l-.0221,7.9038c-.02,6.95,4.463,13.9193,13.4874,19.3143,18.35,10.9692,48.529,11.2742,67.4079.6811,9.5948-5.3851,14.4234-12.5468,14.4438-19.7294l.0221-7.9032C563.6072,452.47,558.778,459.6328,549.1832,465.0167Z"/>
        <path class="cls-42" d="M549.9056,425.859c-4.9054-10.578-6.1209-26.7355-6.6395-37.8409-.1007-2.995-.1741-6.0731-.1648-9.3894-.0116,4.0619-2.7423,8.1116-8.1675,11.1561-10.6747,5.99-27.74,5.8175-38.1163-.3854-5.1022-3.05-7.6366-6.9911-7.6256-10.9209-.007,2.4513-.0937,4.665-.1612,6.9387-.4069,13.4659-1.5572,27.3212-6.6168,39.6438-.0972.2089-.2253.3486-.3423.5856-9.1,5.3332-13.7639,12.3808-13.7837,19.3748-.02,6.9509,4.4636,13.92,13.4874,19.3148,18.35,10.9693,48.53,11.2737,67.4079.68,9.5948-5.3839,14.424-12.5467,14.4438-19.7287C563.6508,436.85,557.2675,430.19,549.9056,425.859Z"/>
        <g>
          <path class="cls-43" d="M483.6014,369.453l-.0064,7.1686c-.0128,4.75,3.05,9.5122,9.2176,13.1987,12.54,7.4969,33.1643,7.7053,46.0662.4662,6.5562-3.6795,9.8567-8.575,9.8707-13.4833l.0064-7.168Z"/>
          <path class="cls-44" d="M539.5388,356.4359a39.13,39.13,0,0,0-10.734-4.268l-5.7657-1.4128a21.1548,21.1548,0,0,1,5.81,2.31l-24.9346-.2526a21.5446,21.5446,0,0,1,5.5126-2.0979l-5.77,1.38a39.7388,39.7388,0,0,0-10.1846,3.8756c-12.9012,7.24-13.1946,19.1857-.6537,26.6814,9.2369,5.5225,22.86,7.09,34.5521,4.64a40.68,40.68,0,0,0,11.5141-4.1737c6.7413-3.7825,10.04-8.8509,9.8643-13.8966C548.5883,364.6093,545.527,360.0153,539.5388,356.4359Z"/>
        </g>
        <path class="cls-45" d="M550.2881,426.1268c3.5735,3.5718,6.1732,7.9789,6.16,13.2092-.0169,6.5428-4.119,13.0671-12.2685,17.9719-16.0347,9.649-41.6695,9.3719-57.256-.62-7.6645-4.9142-11.4733-11.262-11.4558-17.5942.0111-4.5189,2.1061-9.0378,6.0254-13.0316-8.6705,5.2832-13.1859,12.134-13.2051,18.9592-.02,6.9509,4.4636,13.92,13.4874,19.3149,18.35,10.97,48.53,11.2736,67.4079.681,9.5948-5.3839,14.424-12.5467,14.4438-19.7287C563.65,437.0035,557.4794,430.4617,550.2881,426.1268Z"/>
        <g>
          <path class="cls-46" d="M532.6415,363.2483c-9.3457,5.2436-24.2861,5.0928-33.37-.3376-4.4671-2.6707-6.6861-6.12-6.6762-9.5611l-.0373,12.9291c-.0092,3.4409,2.21,6.891,6.6768,9.5611,9.0843,5.43,24.0241,5.5813,33.37.3376,4.7494-2.6654,7.14-6.211,7.15-9.7665l.0367-12.93C539.7816,357.0372,537.3909,360.5828,532.6415,363.2483Z"/>
          <path class="cls-47" d="M487.8705,348.33l-.0139,5.0067c-.0123,4.1318,2.6526,8.274,8.0173,11.4809,10.9081,6.5213,28.8486,6.7023,40.07.4057,5.7035-3.201,8.5745-7.4585,8.5867-11.7289l.014-5.0055Z"/>
          <path class="cls-48" d="M536.5271,337.0069c-10.9082-6.5207-28.8487-6.7023-40.0705-.4045s-11.4774,16.6878-.5687,23.2091,28.8486,6.7024,40.07.4046S547.4357,343.5277,536.5271,337.0069Z"/>
          <path class="cls-49" d="M532.599,345.5767c-9.5128,5.3373-24.72,5.1837-33.9659-.3434-4.5468-2.7185-6.806-6.23-6.7955-9.7323l-.02,6.9533c-.01,3.5019,2.2487,7.0138,6.7961,9.7316,9.2456,5.5277,24.4525,5.6814,33.9647.3435,4.835-2.7126,7.2682-6.3217,7.2787-9.9406l.0192-6.9539C539.8666,339.2545,537.4334,342.8635,532.599,345.5767Z"/>
          <path class="cls-50" d="M533.081,325.9033c-9.2462-5.5271-24.4537-5.6808-33.9659-.3435s-9.7282,14.1458-.482,19.6735,24.4531,5.6807,33.9659.3434S542.3266,331.43,533.081,325.9033Z"/>
          <path class="cls-51" d="M539.547,317.0564a58.1639,58.1639,0,0,0-5.9806-26.2541c-7.0947-13.7272-16.434-18.596-18.0208-18.2607-.1275.0268-13.6754,5.5824-20.535,26.4183-11.6677,35.441,14.9631,47.777,32.4874,38.5733,10.3359-6.203,11.9844-15.491,12.05-20.4774Z"/>
        </g>
      </g>
    </g>
  </g>
</svg>
