<svg id="Layer_1" data-name="Layer 1" xmlns="http://www.w3.org/2000/svg" xmlns:xlink="http://www.w3.org/1999/xlink" width="512" height="512" viewBox="0 0 512 512">
  <defs>
    <style>
      .cls-1 {
        fill: #dbd6cb;
      }

      .cls-2 {
        fill: url(#Áåçûìÿííûé_ãðàäèåíò_480);
      }

      .cls-3 {
        fill: url(#Áåçûìÿííûé_ãðàäèåíò_480-2);
      }

      .cls-4 {
        fill: url(#Áåçûìÿííûé_ãðàäèåíò_480-3);
      }

      .cls-5 {
        isolation: isolate;
      }

      .cls-6 {
        fill: url(#Áåçûìÿííûé_ãðàäèåíò_480-4);
      }

      .cls-7 {
        fill: #ada49b;
      }

      .cls-8 {
        fill: #f8f6ec;
      }

      .cls-9 {
        fill: #f1eae0;
      }

      .cls-10 {
        fill: #eae6da;
      }

      .cls-11 {
        fill: url(#Áåçûìÿííûé_ãðàäèåíò_479);
      }
    </style>
    <linearGradient id="Áåçûìÿííûé_ãðàäèåíò_480" data-name="Áåçûìÿííûé ãðàäèåíò 480" x1="399.8761" y1="337.3483" x2="577.3201" y2="337.3483" gradientTransform="matrix(-1, 0, 0, 1, 745.391, 0)" gradientUnits="userSpaceOnUse">
      <stop offset="0" stop-color="#eee8de"/>
      <stop offset="0.4729" stop-color="#f5f2e8"/>
      <stop offset="1" stop-color="#f9f7ee"/>
    </linearGradient>
    <linearGradient id="Áåçûìÿííûé_ãðàäèåíò_480-2" x1="403.0497" y1="320.9094" x2="574.2173" y2="320.9094" xlink:href="#Áåçûìÿííûé_ãðàäèåíò_480"/>
    <linearGradient id="Áåçûìÿííûé_ãðàäèåíò_480-3" x1="415.0427" y1="294.8049" x2="558.5022" y2="294.8049" xlink:href="#Áåçûìÿííûé_ãðàäèåíò_480"/>
    <linearGradient id="Áåçûìÿííûé_ãðàäèåíò_480-4" x1="482.0771" y1="250.5668" x2="553.168" y2="250.5668" xlink:href="#Áåçûìÿííûé_ãðàäèåíò_480"/>
    <linearGradient id="Áåçûìÿííûé_ãðàäèåíò_479" data-name="Áåçûìÿííûé ãðàäèåíò 479" x1="423.1454" y1="266.9799" x2="572.0492" y2="170.1922" gradientTransform="matrix(-1, 0, 0, 1, 745.391, 0)" gradientUnits="userSpaceOnUse">
      <stop offset="0" stop-color="#c4bcb1"/>
      <stop offset="1" stop-color="#cfcac0"/>
    </linearGradient>
  </defs>
  <g id="Companion">
    <g id="Chess_Knight" data-name="Chess Knight">
      <g>
        <path class="cls-1" d="M345.5148,330.5169l.0567,20.046c.0369,12.9349-8.3066,25.9058-25.1009,35.9449-34.154,20.4174-90.3237,20.9845-125.4607,1.2691-17.8562-10.0207-26.8449-23.3507-26.8818-36.72l-.0568-20.0461Z"/>
        <path class="cls-2" d="M193.173,295.0646l2.2428-1.3006c-17.5739,10.5057-25.5544,24.3383-24.0313,37.8447,1.332,11.8139,9.9355,23.3784,25.7485,32.252a102.1394,102.1394,0,0,0,23.4274,9.3371c32.1024,8.6242,71.5077,5.0349,97.5946-10.56,32.9456-19.6939,32.176-51.0765-1.718-70.0959l2.1952,1.2552c35.1362,19.7161,35.9334,52.25,1.7809,72.6663C293.3686,382.63,252.5193,386.3513,219.24,377.41a105.8057,105.8057,0,0,1-24.286-9.6785c-16.3938-9.199-25.3127-21.1886-26.693-33.4359C166.681,320.2944,174.9547,305.9554,193.173,295.0646Z"/>
        <path class="cls-3" d="M195.3882,284.0479q.5305-.3165,1.0726-.6291l15.9748-9.2235c-.2639.1526-.5271.3069-.7856.4626l88.8506-.8977,15.9088,9.0647c33.8932,19.0194,34.6628,50.4028,1.718,70.0967-26.0677,15.5835-65.4309,19.18-97.52,10.5793a102.1061,102.1061,0,0,1-23.5-9.3563c-15.8559-8.8966-24.4633-20.5-25.7608-32.3471C169.8714,308.32,177.8558,294.529,195.3882,284.0479Z"/>
        <path class="cls-1" d="M197.1061,354.1454c33.8932,19.0179,88.0772,18.4708,121.0213-1.2231,16.2011-9.6846,24.25-22.1975,24.2139-34.6758l.0276,9.7161c.0361,12.4783-8.0127,24.99-24.2139,34.6751-32.9448,19.6946-87.1281,20.2424-121.022,1.223-17.2248-9.6662-25.8951-22.5251-25.9312-35.4208l-.0283-9.7161C171.21,331.62,179.8806,344.4791,197.1061,354.1454Z"/>
        <path class="cls-1" d="M204.4061,325.6354c29.6969,16.6647,77.1725,16.1851,106.0385-1.07,14.1955-8.4869,21.2476-19.4491,21.2169-30.3837l.0345,12.4339c.0315,10.933-7.02,21.8959-21.2161,30.3821-28.8661,17.2562-76.3409,17.7357-106.0386,1.0719-15.0932-8.4708-22.6893-19.7369-22.7207-31.0366L181.6853,294.6C181.7167,305.8994,189.3128,317.1669,204.4061,325.6354Z"/>
        <ellipse class="cls-4" cx="256.6411" cy="294.8049" rx="75.1347" ry="43.3796"/>
      </g>
      <g class="cls-5">
        <path class="cls-1" d="M193.127,288.4261l31.3681,18.23c-1.41,3.1912-1.1962,6.2565.5255,7.4342,5.6258,3.71,10.32,7.6,11.9229,16.4268l-31.3681-18.23c-1.6036-8.8268-6.2979-12.7169-11.9236-16.426C191.9308,294.6832,191.7167,291.618,193.127,288.4261Z"/>
        <path class="cls-6" d="M193.127,288.4261q.115-.2591.244-.52c5.097-10.3644,16.007-32.7867,24.8776-52.8635,4.7395-10.7289,8.8967-20.7872,11.2737-27.9789,2.4369-7.3828,2.9134-12.7131,1.9726-15.9756a1.8193,1.8193,0,0,0-.8125-1.1149l31.3689,18.2291a1.8223,1.8223,0,0,1,.8125,1.1156c.9407,3.2625.4642,8.5921-1.9734,15.9749-2.3763,7.1917-6.5342,17.2508-11.2737,27.9789-8.8706,20.0775-19.7806,42.4991-24.8776,52.8643q-.129.26-.244.52a9.6039,9.6039,0,0,0-.9032,4.5048L192.2577,293.07A9.3787,9.3787,0,0,1,193.127,288.4261Z"/>
        <path class="cls-7" d="M181.8126,226.9675l31.3689,18.2291-.1972,3.5325a3.1658,3.1658,0,0,0,1.2453,3.1014l-31.3681-18.23a3.1617,3.1617,0,0,1-1.2453-3.1006Z"/>
        <path class="cls-1" d="M265.13,113.0689l31.3681,18.2291c-9.7154-5.6457-20.3177-3.2088-29.22,1.4954L235.91,114.5643C244.8112,109.86,255.4143,107.4232,265.13,113.0689Z"/>
        <g class="cls-5">
          <g class="cls-5">
            <path class="cls-8" d="M239.4839,158.6524l-31.3681-18.2291c-6.1628,8.0381-9.5073,13.7136-11.5476,18.3358l31.3681,18.2291c2.04-4.6221,5.3856-10.2977,11.5476-18.3358Z"/>
            <path class="cls-9" d="M227.9363,176.9882l-31.3681-18.2291c-3.6653,8.3012-3.1228,13.2018-7.1395,22.2857l31.3681,18.2291c4.0167-9.0831,3.4742-13.9845,7.1395-22.2857Z"/>
            <path class="cls-8" d="M220.7968,199.2739l-31.3681-18.2291c-2.4292,5.493-6.5258,12.5152-14.2277,22.743A30.2615,30.2615,0,0,0,171.5,209.501l31.368,18.2291a30.2615,30.2615,0,0,1,3.7014-5.7132c7.7028-10.2278,11.7985-17.25,14.2278-22.743Z"/>
            <path class="cls-1" d="M171.5,209.501l31.368,18.2291c-.9353,2.1185-1.289,4.4227-1.2782,8.2522.0237,8.4086.8954,11.9819,2.56,12.9494l-31.3681-18.2291c-1.6658-.9683-2.5374-4.5408-2.5612-12.9494C170.21,213.9236,170.5635,211.62,171.5,209.501Z"/>
          </g>
        </g>
        <g class="cls-5">
          <path class="cls-10" d="M267.278,132.7942l-31.3681-18.23c-14.4157,2.9149-30.2878,5.1454-36.53,8.7494l31.3688,18.2291c6.2426-3.604,22.1139-5.8345,36.53-8.7486Z"/>
        </g>
        <g class="cls-5">
          <g class="cls-5">
            <path class="cls-8" d="M196.9212,125.5679a3.5981,3.5981,0,0,1,.5195-.7557,7.6862,7.6862,0,0,1,1.9389-1.4985l31.3688,18.2291a7.663,7.663,0,0,0-1.939,1.4992,3.5979,3.5979,0,0,0-.52.755c-.076.1619-31.4441-18.0672-31.4441-18.0672C196.869,125.6761,196.8944,125.6224,196.9212,125.5679Z"/>
            <path class="cls-1" d="M228.2133,143.9589,196.8452,125.73c-2.077,4.68,9.5059,5.8644,11.2706,14.6935l31.3681,18.2291c-1.7647-8.8291-13.3476-10.013-11.2706-14.6935Z"/>
          </g>
        </g>
        <path class="cls-11" d="M206.569,222.0169c27.5317-36.5595,8.991-32.1583,32.9149-63.3645-1.7847-8.93-13.6132-10.0391-11.1946-14.8554a5.981,5.981,0,0,1,2.4591-2.2542c6.2419-3.604,22.1146-5.8345,36.53-8.7494,13.3837-7.072,30.6107-9.02,42.8888,13.9209,6.7375,12.6118,9.6823,29.1076,9.3463,47.5278-.3369,18.1232-1.9328,48.2421-7.4219,92.888l-75.1477,43.3868c-1.6029-8.8268-6.2971-12.7169-11.9229-16.4268-1.8153-1.2414-1.9542-4.5806-.2815-7.9544,7.8209-15.9035,29.327-60.1933,36.1513-80.8432,2.4376-7.3828,2.9141-12.7124,1.9734-15.9749a1.82,1.82,0,0,0-2.5651-1.1954,33.1311,33.1311,0,0,0-5.8865,2.7154c-6.6992,3.8671-16.42,12.1093-23.5986,29.2335a20.4969,20.4969,0,0,1-2.5473,4.95,15.9083,15.9083,0,0,1-4.6252,3.7067,43.1322,43.1322,0,0,1-7.1289,3.198c-2.1453.7336-3.676-.5831-3.5279-3.1965l.1972-3.5325c-1.6206.9736-3.08,1.95-4.3728,2.6962-4.6842,2.7039-7.1794,2.3978-7.2193-11.91C201.5694,228.947,202.7794,227.0588,206.569,222.0169Z"/>
      </g>
    </g>
  </g>
</svg>
