<svg id="Layer_1" data-name="Layer 1" xmlns="http://www.w3.org/2000/svg" xmlns:xlink="http://www.w3.org/1999/xlink" width="512" height="512" viewBox="0 0 512 512">
  <defs>
    <style>
      .cls-1 {
        fill: none;
      }

      .cls-2 {
        fill: #ff8605;
      }

      .cls-3 {
        fill: #ffe005;
      }

      .cls-4 {
        fill: #aa5100;
      }

      .cls-5 {
        clip-path: url(#clip-path);
      }

      .cls-6 {
        clip-path: url(#clip-path-2);
      }

      .cls-7 {
        clip-path: url(#clip-path-3);
      }

      .cls-8 {
        clip-path: url(#clip-path-4);
      }

      .cls-9 {
        clip-path: url(#clip-path-5);
      }

      .cls-10 {
        clip-path: url(#clip-path-6);
      }
    </style>
    <clipPath id="clip-path">
      <path class="cls-1" d="M396.7265,305.912a34.8714,34.8714,0,0,1-1.9031,9.6355,36.8169,36.8169,0,0,1-5.2149,9.69,50.13,50.13,0,0,1-8.5343,9.0932c-.7262.6215-1.2868,1.07-1.6612,1.3689a73.5626,73.5626,0,0,1-10.2731,6.8283,99.16,99.16,0,0,1-12.0519,5.6873c-.15.0592-.7984.3152-1.6566.6384a125.7708,125.7708,0,0,1-14.2524,4.37c-1.6181.3968-6.6117,1.59-13.2981,2.5645a156.3754,156.3754,0,0,1-16.6256,1.483,160.18,160.18,0,0,1-18.1-.3541,155.1038,155.1038,0,0,1-16.34-2.1043,140.0668,140.0668,0,0,1-16.8378-4.1786,118.2135,118.2135,0,0,1-16.3954-6.6191c-2.9176-1.456-4.9773-2.6577-5.8875-3.1987a80.625,80.625,0,0,1-8.0558-5.4352,60.5393,60.5393,0,0,1-5.8014-5.0265,49.0694,49.0694,0,0,1-5.5787-6.3992,43.2158,43.2158,0,0,1-4.2957-7.2593,36.439,36.439,0,0,1-1.5122-3.8761,33.3035,33.3035,0,0,1-1.33-5.87,31.9357,31.9357,0,0,1-.2566-3.344c.1633-5.01.2643-8.9105.3276-11.637.04-1.7366.1432-6.35.1614-6.35l.0008.0034a32.1092,32.1092,0,0,0,.2858,3.2209c.1011.7226.2572,1.6629.5077,2.75.2514,1.09.5106,1.95.6988,2.5533a37.0938,37.0938,0,0,0,4.5977,9.5333c.1084.1649.4887.74,1.0166,1.4774a51.6773,51.6773,0,0,0,3.85,4.7142,62.7928,62.7928,0,0,0,7.5288,6.8779c1.4922,1.1665,2.6585,1.9785,3.38,2.4794a87.7542,87.7542,0,0,0,9.016,5.443c.2039.1077.7734.4074,1.5487.7992a110.6314,110.6314,0,0,0,14.8388,6.1478c.1828.0613.7744.2592,1.5535.5092a139.4149,139.4149,0,0,0,15.2727,3.9162,154.9927,154.9927,0,0,0,17.9732,2.4392,159.9541,159.9541,0,0,0,16.46.427,157.1207,157.1207,0,0,0,16.5947-1.2852,145.1787,145.1787,0,0,0,14.9683-2.768,126.7752,126.7752,0,0,0,14.2519-4.3416c4.2625-1.5994,7.4157-3.0788,8.7712-3.7306,2.1779-1.0474,3.7448-1.8966,4.2041-2.1471,3.4031-1.856,5.8368-3.4786,6.5266-3.9431a65.8551,65.8551,0,0,0,6.07-4.5432,57.9781,57.9781,0,0,0,6.9274-6.899c.826-.9956,1.5058-1.9109,1.604-2.0434a40.8962,40.8962,0,0,0,2.5089-3.7553,38.3027,38.3027,0,0,0,2.78-5.7531c.175-.46.4846-1.2338.7946-2.2954,0,0,.1477-.5062.285-1.0643.5008-2.0355.935-5.5721.9874-6.0035q-.1056,4.3126-.2111,8.6253Q396.8359,301.4376,396.7265,305.912Z"/>
    </clipPath>
    <clipPath id="clip-path-2">
      <path class="cls-1" d="M405.93,281.4529a34.8669,34.8669,0,0,1-1.903,9.6355,36.82,36.82,0,0,1-5.2149,9.6905,50.1331,50.1331,0,0,1-8.5344,9.0932c-.7261.6215-1.2867,1.07-1.6612,1.3689a73.5451,73.5451,0,0,1-10.273,6.8282,99.1265,99.1265,0,0,1-12.0519,5.6873c-.15.0593-.7985.3152-1.6566.6385a125.7781,125.7781,0,0,1-14.2524,4.37c-1.6181.3969-6.6117,1.59-13.2982,2.5646a156.354,156.354,0,0,1-16.6255,1.4829,160.1594,160.1594,0,0,1-18.1-.354,155.1112,155.1112,0,0,1-16.34-2.1043,140.0782,140.0782,0,0,1-16.8378-4.1786,118.2247,118.2247,0,0,1-16.3954-6.6191c-2.9175-1.456-4.9773-2.6578-5.8874-3.1987a80.625,80.625,0,0,1-8.0558-5.4352,60.5393,60.5393,0,0,1-5.8014-5.0265,49.0641,49.0641,0,0,1-5.5787-6.3993,43.2049,43.2049,0,0,1-4.2957-7.2592,36.4483,36.4483,0,0,1-1.5123-3.8761,33.31,33.31,0,0,1-1.33-5.87,31.9083,31.9083,0,0,1-.2566-3.344c.1633-5.01.2642-8.9105.3275-11.6371.04-1.7365.1433-6.35.1615-6.3495l.0007.0034a32.1066,32.1066,0,0,0,.2859,3.2209c.1011.7226.2571,1.6628.5077,2.75.2513,1.09.5106,1.95.6988,2.5533a37.0938,37.0938,0,0,0,4.5977,9.5333c.1084.1649.4887.74,1.0166,1.4774a51.67,51.67,0,0,0,3.85,4.7142,62.8016,62.8016,0,0,0,7.5288,6.8779c1.4922,1.1665,2.6586,1.9785,3.38,2.4793a87.7294,87.7294,0,0,0,9.016,5.4431c.2038.1076.7734.4073,1.5486.7992a110.6373,110.6373,0,0,0,14.8388,6.1478c.1828.0613.7745.2592,1.5536.5092a139.3947,139.3947,0,0,0,15.2726,3.9161,154.9682,154.9682,0,0,0,17.9733,2.4393,159.9529,159.9529,0,0,0,16.46.427,157.0835,157.0835,0,0,0,16.5948-1.2853,145.1506,145.1506,0,0,0,14.9682-2.7679,126.8023,126.8023,0,0,0,14.252-4.3416c4.2625-1.5994,7.4156-3.0788,8.7711-3.7306,2.178-1.0475,3.7449-1.8966,4.2042-2.1472,3.4031-1.856,5.8368-3.4785,6.5265-3.943a65.8583,65.8583,0,0,0,6.07-4.5432,57.9883,57.9883,0,0,0,6.9274-6.8991c.8259-.9955,1.5058-1.9108,1.604-2.0434a40.8744,40.8744,0,0,0,2.5088-3.7552,38.3065,38.3065,0,0,0,2.78-5.7531c.175-.46.4846-1.2338.7945-2.2954,0,0,.1478-.5062.2851-1.0643.5008-2.0356.935-5.5721.9873-6.0035q-.1054,4.3127-.211,8.6253Z"/>
    </clipPath>
    <clipPath id="clip-path-3">
      <path class="cls-1" d="M396.9608,265.3391a34.87,34.87,0,0,1-1.9031,9.6354,36.8178,36.8178,0,0,1-5.2149,9.6906,50.1319,50.1319,0,0,1-8.5343,9.0931c-.7262.6216-1.2868,1.07-1.6612,1.3689a73.5383,73.5383,0,0,1-10.2731,6.8283,99.1348,99.1348,0,0,1-12.0519,5.6873c-.15.0593-.7984.3152-1.6566.6384a125.7737,125.7737,0,0,1-14.2523,4.37c-1.6182.3969-6.6118,1.59-13.2982,2.5646a156.3569,156.3569,0,0,1-16.6256,1.4829,160.1839,160.1839,0,0,1-18.1-.354,155.16,155.16,0,0,1-16.34-2.1043,140.0725,140.0725,0,0,1-16.8378-4.1786,118.2323,118.2323,0,0,1-16.3954-6.6191c-2.9176-1.4561-4.9773-2.6578-5.8875-3.1988a80.6512,80.6512,0,0,1-8.0558-5.4351,60.5517,60.5517,0,0,1-5.8014-5.0265,49.0718,49.0718,0,0,1-5.5787-6.3993,43.2,43.2,0,0,1-4.2956-7.2593,36.4163,36.4163,0,0,1-1.5123-3.8761,33.3011,33.3011,0,0,1-1.33-5.87,31.9332,31.9332,0,0,1-.2565-3.3441c.1632-5.01.2642-8.9105.3275-11.637.04-1.7366.1432-6.35.1614-6.3495l.0008.0034a32.107,32.107,0,0,0,.2858,3.2208c.1011.7227.2572,1.6629.5077,2.75.2514,1.09.5106,1.95.6988,2.5533a37.0949,37.0949,0,0,0,4.5977,9.5334c.1085.1648.4888.74,1.0166,1.4773a51.6592,51.6592,0,0,0,3.85,4.7143,62.8019,62.8019,0,0,0,7.5288,6.8779c1.4922,1.1664,2.6585,1.9785,3.38,2.4793a87.76,87.76,0,0,0,9.016,5.4431c.2039.1076.7735.4073,1.5487.7992a110.651,110.651,0,0,0,14.8388,6.1478c.1828.0613.7744.2591,1.5535.5091a139.3663,139.3663,0,0,0,15.2727,3.9162,154.9653,154.9653,0,0,0,17.9732,2.4393,159.9838,159.9838,0,0,0,16.46.427,157.1169,157.1169,0,0,0,16.5948-1.2853,145.1625,145.1625,0,0,0,14.9682-2.7679,126.8323,126.8323,0,0,0,14.252-4.3416c4.2624-1.5994,7.4156-3.0788,8.7711-3.7307,2.1779-1.0474,3.7448-1.8966,4.2042-2.1471,3.4031-1.856,5.8368-3.4785,6.5265-3.943a65.8724,65.8724,0,0,0,6.07-4.5433,57.9853,57.9853,0,0,0,6.9274-6.899c.8259-.9955,1.5057-1.9108,1.6039-2.0434a40.87,40.87,0,0,0,2.5089-3.7552,38.3023,38.3023,0,0,0,2.78-5.7532c.175-.46.4846-1.2337.7946-2.2953,0,0,.1478-.5062.285-1.0643.5008-2.0356.935-5.5721.9874-6.0036q-.1056,4.3128-.2111,8.6254Q397.07,260.8646,396.9608,265.3391Z"/>
    </clipPath>
    <clipPath id="clip-path-4">
      <path class="cls-1" d="M406.1644,241.0479a34.8662,34.8662,0,0,1-1.903,9.6355,36.82,36.82,0,0,1-5.2149,9.69,50.1331,50.1331,0,0,1-8.5344,9.0932c-.7261.6215-1.2867,1.07-1.6611,1.3689a73.5626,73.5626,0,0,1-10.2731,6.8283,99.16,99.16,0,0,1-12.0519,5.6873c-.15.0592-.7984.3152-1.6566.6384a125.7708,125.7708,0,0,1-14.2524,4.37c-1.6181.3968-6.6117,1.59-13.2981,2.5645a156.3783,156.3783,0,0,1-16.6256,1.483,160.18,160.18,0,0,1-18.1-.3541,155.1112,155.1112,0,0,1-16.34-2.1043,140.0684,140.0684,0,0,1-16.8377-4.1786,118.2,118.2,0,0,1-16.3954-6.6191c-2.9176-1.456-4.9773-2.6577-5.8875-3.1987a80.625,80.625,0,0,1-8.0558-5.4352,60.5393,60.5393,0,0,1-5.8014-5.0265,49.0625,49.0625,0,0,1-5.5787-6.3992,43.2158,43.2158,0,0,1-4.2957-7.2593,36.43,36.43,0,0,1-1.5122-3.8761,33.3035,33.3035,0,0,1-1.33-5.87,31.9083,31.9083,0,0,1-.2566-3.344c.1633-5.01.2643-8.91.3276-11.637.04-1.7366.1432-6.35.1614-6.35l.0008.0034a32.1092,32.1092,0,0,0,.2858,3.2209c.1011.7226.2571,1.6629.5077,2.75.2513,1.09.5106,1.95.6988,2.5533a37.0938,37.0938,0,0,0,4.5977,9.5333c.1084.1649.4887.74,1.0166,1.4774a51.6736,51.6736,0,0,0,3.85,4.7142,62.8064,62.8064,0,0,0,7.5289,6.8779c1.4921,1.1665,2.6585,1.9785,3.38,2.4794a87.7542,87.7542,0,0,0,9.016,5.443c.2039.1077.7734.4074,1.5487.7992a110.6314,110.6314,0,0,0,14.8388,6.1478c.1828.0613.7744.2592,1.5535.5092a139.4149,139.4149,0,0,0,15.2727,3.9162,155.0081,155.0081,0,0,0,17.9732,2.4393,159.9882,159.9882,0,0,0,16.46.4269,157.1207,157.1207,0,0,0,16.5947-1.2852,145.1787,145.1787,0,0,0,14.9683-2.768,126.7752,126.7752,0,0,0,14.2519-4.3416c4.2625-1.5994,7.4157-3.0788,8.7711-3.7306,2.178-1.0474,3.7449-1.8966,4.2042-2.1471,3.4031-1.856,5.8368-3.4786,6.5265-3.9431a65.84,65.84,0,0,0,6.07-4.5432,57.9781,57.9781,0,0,0,6.9274-6.899c.8259-.9956,1.5058-1.9109,1.604-2.0434a40.8962,40.8962,0,0,0,2.5089-3.7553,38.3131,38.3131,0,0,0,2.78-5.7531c.175-.46.4846-1.2338.7945-2.2953,0,0,.1478-.5063.2851-1.0644.5008-2.0355.935-5.5721.9874-6.0035q-.1056,4.3127-.2111,8.6253Z"/>
    </clipPath>
    <clipPath id="clip-path-5">
      <path class="cls-1" d="M401.0366,218.6531a34.8708,34.8708,0,0,1-1.9031,9.6355,36.8169,36.8169,0,0,1-5.2149,9.69,50.13,50.13,0,0,1-8.5343,9.0932c-.7262.6215-1.2868,1.07-1.6612,1.3689A73.5626,73.5626,0,0,1,373.45,255.27a99.16,99.16,0,0,1-12.0519,5.6873c-.15.0592-.7984.3152-1.6566.6384a125.7708,125.7708,0,0,1-14.2524,4.37c-1.6181.3968-6.6117,1.5895-13.2981,2.5645a156.3754,156.3754,0,0,1-16.6256,1.483,160.18,160.18,0,0,1-18.1-.3541,155.1038,155.1038,0,0,1-16.34-2.1043,140.0668,140.0668,0,0,1-16.8378-4.1786,118.2,118.2,0,0,1-16.3954-6.6191c-2.9176-1.456-4.9773-2.6577-5.8875-3.1987a80.625,80.625,0,0,1-8.0558-5.4352,60.5393,60.5393,0,0,1-5.8014-5.0265,49.0625,49.0625,0,0,1-5.5787-6.3992,43.2158,43.2158,0,0,1-4.2957-7.2593,36.43,36.43,0,0,1-1.5122-3.8761,33.3035,33.3035,0,0,1-1.33-5.87,31.9357,31.9357,0,0,1-.2566-3.344c.1633-5.01.2643-8.9105.3276-11.637.04-1.7366.1432-6.35.1614-6.35l.0008.0034a32.1092,32.1092,0,0,0,.2858,3.2209c.1011.7226.2572,1.6629.5077,2.75.2514,1.09.5106,1.95.6988,2.5533a37.0938,37.0938,0,0,0,4.5977,9.5333c.1084.1649.4887.74,1.0166,1.4774a51.6629,51.6629,0,0,0,3.85,4.7142,62.7928,62.7928,0,0,0,7.5288,6.8779c1.4922,1.1665,2.6585,1.9785,3.38,2.4794a87.766,87.766,0,0,0,9.016,5.443c.2039.1077.7734.4074,1.5487.7992a110.6314,110.6314,0,0,0,14.8388,6.1478c.1828.0613.7744.2592,1.5535.5092a139.4149,139.4149,0,0,0,15.2727,3.9162,155.0081,155.0081,0,0,0,17.9732,2.4393,159.9891,159.9891,0,0,0,16.46.4269,157.1207,157.1207,0,0,0,16.5947-1.2852,145.1787,145.1787,0,0,0,14.9683-2.768,126.7752,126.7752,0,0,0,14.2519-4.3416c4.2625-1.5994,7.4157-3.0788,8.7712-3.7306,2.1779-1.0474,3.7448-1.8966,4.2042-2.1471,3.403-1.856,5.8368-3.4786,6.5265-3.9431a65.8551,65.8551,0,0,0,6.07-4.5432,57.9781,57.9781,0,0,0,6.9274-6.899c.826-.9956,1.5058-1.9109,1.604-2.0434a40.8752,40.8752,0,0,0,2.5089-3.7553,38.3027,38.3027,0,0,0,2.78-5.7531c.175-.46.4846-1.2338.7946-2.2953,0,0,.1478-.5063.285-1.0644.5008-2.0355.935-5.5721.9874-6.0035q-.1056,4.3126-.2111,8.6253Q401.146,214.1787,401.0366,218.6531Z"/>
    </clipPath>
    <clipPath id="clip-path-6">
      <path class="cls-1" d="M181.9462,181.7393a34.8691,34.8691,0,0,1,9.5826,2.1535,36.8207,36.8207,0,0,1,9.5513,5.4658,50.1347,50.1347,0,0,1,8.8676,8.7685c.6024.7421,1.036,1.3142,1.3251,1.6963a73.5453,73.5453,0,0,1,6.5582,10.4476,99.1668,99.1668,0,0,1,5.3712,12.196c.0553.1514.2943.8064.595,1.6727a125.79,125.79,0,0,1,3.9967,14.3614c.3545,1.628,1.4166,6.651,2.217,13.3606A156.3428,156.3428,0,0,1,231.06,268.52a160.1622,160.1622,0,0,1-.8257,18.0846,155.1061,155.1061,0,0,1-2.53,16.2793,140.0312,140.0312,0,0,1-4.6161,16.7231,118.2158,118.2158,0,0,1-7.0442,16.2173c-1.5316,2.8786-2.7866,4.9063-3.3511,5.8021a80.6568,80.6568,0,0,1-5.6433,7.9113,60.5443,60.5443,0,0,1-5.1761,5.6685,49.0731,49.0731,0,0,1-6.5425,5.41,43.193,43.193,0,0,1-7.3688,4.105,36.4133,36.4133,0,0,1-3.9142,1.4107,33.3038,33.3038,0,0,1-5.9028,1.1766,31.897,31.897,0,0,1-3.35.1693c-5.0038-.2938-8.9006-.4964-11.6245-.6307-1.735-.0856-6.344-.3088-6.3432-.3269l.0034-.0007a32.122,32.122,0,0,0,3.2272-.2018c.7251-.0822,1.669-.2137,2.7621-.4358,1.0965-.2229,1.9628-.46,2.5707-.6321a37.0928,37.0928,0,0,0,9.65-4.3476c.1676-.1041.7526-.4692,1.5033-.9777a51.6813,51.6813,0,0,0,4.813-3.7254,62.8076,62.8076,0,0,0,7.0718-7.3469c1.205-1.4613,2.0471-2.6061,2.5666-3.3146a87.7379,87.7379,0,0,0,5.6763-8.871c.1129-.201.4273-.7626.8393-1.5273a110.65,110.65,0,0,0,6.5325-14.6735c.066-.1812.2793-.7674.5495-1.54a139.4055,139.4055,0,0,0,4.313-15.1653,155,155,0,0,0,2.9069-17.9036,159.9281,159.9281,0,0,0,.8559-16.443,157.0841,157.0841,0,0,0-.8522-16.6227,145.17,145.17,0,0,0-2.3768-15.0353,126.8126,126.8126,0,0,0-3.9686-14.36c-1.4877-4.3027-2.8844-7.4933-3.5007-8.8654-.99-2.2045-1.7983-3.7929-2.0368-4.2587-1.7667-3.45-3.3252-5.9255-3.7716-6.6271a65.88,65.88,0,0,0-4.3834-6.1866,57.99,57.99,0,0,0-6.7161-7.1049c-.9737-.8516-1.871-1.5551-2.0009-1.6567a40.8815,40.8815,0,0,0-3.6886-2.6059,38.3082,38.3082,0,0,0-5.6787-2.929c-.4549-.1869-1.2207-.5166-2.2738-.8541,0,0-.5022-.1609-1.0566-.3127-2.0218-.5536-5.5458-1.08-5.9757-1.1435l8.6169.4358Z"/>
    </clipPath>
  </defs>
  <g id="Item">
    <g id="Coins">
      <g>
        <path class="cls-2" d="M396.7265,305.912c-.5308,13.4-9.7366,26.6184-27.5866,36.6164-36.5107,20.45-95.3606,19.6836-131.4449-1.7119-17.5912-10.43-26.5244-23.8381-26.83-37.2105l.5975-21.9424,185.6944,6.6742Z"/>
        <ellipse class="cls-3" cx="304.2804" cy="285.3709" rx="53.5788" ry="92.9537" transform="translate(14.5482 585.5015) rotate(-89.1732)"/>
        <ellipse class="cls-4" cx="304.2804" cy="285.3709" rx="47.5403" ry="82.4776" transform="translate(14.5482 585.5015) rotate(-89.1732)"/>
        <ellipse class="cls-3" cx="304.2804" cy="285.3709" rx="45.6706" ry="79.2338" transform="translate(14.5482 585.5015) rotate(-89.1732)"/>
        <ellipse class="cls-3" cx="304.2804" cy="285.3709" rx="45.6706" ry="79.2338" transform="translate(14.5482 585.5015) rotate(-89.1732)"/>
        <g id="White">
          <path class="cls-2" d="M306.876,288.7663l-19.1541,33.952,59.3541-10.3,19.1541-33.952Z"/>
          <polygon class="cls-2" points="363.027 270.795 322.827 247.143 263.473 257.442 303.673 281.095 363.027 270.795"/>
          <polygon class="cls-2" points="279.998 320.198 299.152 286.246 258.952 262.594 239.798 296.546 279.998 320.198"/>
        </g>
        <g class="cls-5">
          <polygon class="cls-4" points="389.958 292.536 389.493 335.845 387.807 336.107 388.439 292.536 389.958 292.536"/>
          <polygon class="cls-4" points="381.423 301.833 380.958 345.143 379.272 345.404 379.904 301.833 381.423 301.833"/>
          <polygon class="cls-4" points="370.045 307.896 369.58 351.206 367.895 351.467 368.526 307.896 370.045 307.896"/>
          <polygon class="cls-4" points="357.454 314.132 356.989 357.441 355.303 357.702 355.935 314.131 357.454 314.132"/>
          <polygon class="cls-4" points="343.192 319.186 342.727 362.495 341.041 362.756 341.672 319.185 343.192 319.186"/>
          <polygon class="cls-4" points="328.19 324.29 327.725 367.599 326.039 367.861 326.67 324.29 328.19 324.29"/>
          <polygon class="cls-4" points="311.598 325.343 311.133 368.653 309.447 368.914 310.079 325.343 311.598 325.343"/>
          <polygon class="cls-4" points="295.125 325.857 294.66 369.167 292.974 369.428 293.606 325.857 295.125 325.857"/>
          <polygon class="cls-4" points="277.156 323.091 276.691 366.401 275.005 366.662 275.637 323.091 277.156 323.091"/>
          <polygon class="cls-4" points="260.296 321.033 259.831 364.342 258.145 364.603 258.777 321.033 260.296 321.033"/>
          <polygon class="cls-4" points="243.902 314.546 243.437 357.855 241.751 358.116 242.382 314.545 243.902 314.546"/>
          <polygon class="cls-4" points="229.952 306.274 229.487 349.584 227.801 349.845 228.433 306.274 229.952 306.274"/>
          <path class="cls-4" d="M218.5812,293.9635l-.4651,43.31-1.1754.1821q.3243-21.7459.6485-43.4918Z"/>
          <path class="cls-4" d="M212.7348,286.4034l-.465,43.31-1.1754.1821q.3241-21.7459.6484-43.4918Z"/>
          <path class="cls-4" d="M396.2659,285.3292l-.465,43.3095-1.1754.1821q.3243-21.7459.6485-43.4918Z"/>
        </g>
      </g>
      <g>
        <path class="cls-2" d="M405.93,281.4529c-.5307,13.4-9.7365,26.6183-27.5865,36.6163-36.5108,20.45-95.3607,19.6837-131.4449-1.7119-17.5912-10.43-26.5245-23.838-26.83-37.21l.5976-21.9424L406.36,263.8787Z"/>
        <ellipse class="cls-3" cx="313.484" cy="260.9118" rx="53.5788" ry="92.9537" transform="translate(48.0757 570.598) rotate(-89.1732)"/>
        <ellipse class="cls-4" cx="313.484" cy="260.9118" rx="47.5403" ry="82.4776" transform="translate(48.0757 570.598) rotate(-89.1732)"/>
        <ellipse class="cls-3" cx="313.484" cy="260.9118" rx="45.6706" ry="79.2338" transform="translate(48.0757 570.598) rotate(-89.1732)"/>
        <ellipse class="cls-3" cx="313.484" cy="260.9118" rx="45.6706" ry="79.2338" transform="translate(48.0757 570.598) rotate(-89.1732)"/>
        <g id="White-2" data-name="White">
          <path class="cls-2" d="M316.08,264.3072l-19.1541,33.952,59.3541-10.3,19.1541-33.952Z"/>
          <polygon class="cls-2" points="372.23 246.336 332.03 222.684 272.676 232.983 312.876 256.636 372.23 246.336"/>
          <polygon class="cls-2" points="289.202 295.739 308.356 261.787 268.156 238.135 249.002 272.087 289.202 295.739"/>
        </g>
        <g class="cls-6">
          <polygon class="cls-4" points="399.162 268.077 398.697 311.386 397.011 311.648 397.643 268.077 399.162 268.077"/>
          <polygon class="cls-4" points="390.627 277.374 390.162 320.684 388.476 320.945 389.108 277.374 390.627 277.374"/>
          <polygon class="cls-4" points="379.249 283.437 378.784 326.747 377.098 327.008 377.73 283.437 379.249 283.437"/>
          <polygon class="cls-4" points="366.658 289.672 366.193 332.982 364.507 333.243 365.138 289.672 366.658 289.672"/>
          <polygon class="cls-4" points="352.395 294.727 351.93 338.036 350.245 338.297 350.876 294.726 352.395 294.727"/>
          <polygon class="cls-4" points="337.393 299.831 336.928 343.14 335.242 343.401 335.874 299.831 337.393 299.831"/>
          <polygon class="cls-4" points="320.802 300.884 320.337 344.194 318.651 344.455 319.283 300.884 320.802 300.884"/>
          <polygon class="cls-4" points="304.328 301.398 303.863 344.708 302.178 344.969 302.809 301.398 304.328 301.398"/>
          <polygon class="cls-4" points="286.36 298.632 285.895 341.942 284.209 342.203 284.841 298.632 286.36 298.632"/>
          <polygon class="cls-4" points="269.499 296.574 269.034 339.883 267.349 340.144 267.98 296.573 269.499 296.574"/>
          <polygon class="cls-4" points="253.105 290.087 252.64 333.396 250.954 333.657 251.586 290.086 253.105 290.087"/>
          <polygon class="cls-4" points="239.155 281.815 238.69 325.125 237.005 325.386 237.636 281.815 239.155 281.815"/>
          <path class="cls-4" d="M227.7848,269.5044l-.465,43.3094-1.1754.1821q.3243-21.7458.6485-43.4917Z"/>
          <path class="cls-4" d="M221.9385,261.9442l-.4651,43.3095-1.1754.1821q.3243-21.7458.6485-43.4917Z"/>
          <path class="cls-4" d="M405.47,260.87l-.465,43.3094-1.1754.1821q.3241-21.7458.6484-43.4917Z"/>
        </g>
      </g>
      <g>
        <path class="cls-2" d="M396.9608,265.3391c-.5307,13.4-9.7366,26.6183-27.5866,36.6163-36.5107,20.45-95.3606,19.6837-131.4449-1.7119-17.5912-10.43-26.5244-23.838-26.83-37.21l.5975-21.9423,185.6944,6.6742Z"/>
        <ellipse class="cls-3" cx="304.5147" cy="244.7979" rx="53.5788" ry="92.9537" transform="translate(55.3479 545.7483) rotate(-89.1732)"/>
        <ellipse class="cls-4" cx="304.5147" cy="244.7979" rx="47.5403" ry="82.4776" transform="translate(55.3479 545.7483) rotate(-89.1732)"/>
        <ellipse class="cls-3" cx="304.5147" cy="244.7979" rx="45.6706" ry="79.2338" transform="translate(55.3479 545.7483) rotate(-89.1732)"/>
        <ellipse class="cls-3" cx="304.5147" cy="244.7979" rx="45.6706" ry="79.2338" transform="translate(55.3479 545.7483) rotate(-89.1732)"/>
        <g id="White-3" data-name="White">
          <path class="cls-2" d="M307.11,248.1934l-19.1541,33.9519,59.3541-10.3,19.1542-33.952Z"/>
          <polygon class="cls-2" points="363.261 230.222 323.061 206.57 263.707 216.869 303.907 240.522 363.261 230.222"/>
          <polygon class="cls-2" points="280.233 279.625 299.387 245.673 259.187 222.021 240.033 255.973 280.233 279.625"/>
        </g>
        <g class="cls-7">
          <polygon class="cls-4" points="390.193 251.963 389.728 295.273 388.042 295.534 388.673 251.963 390.193 251.963"/>
          <polygon class="cls-4" points="381.657 261.26 381.192 304.57 379.507 304.831 380.138 261.26 381.657 261.26"/>
          <polygon class="cls-4" points="370.28 267.323 369.815 310.633 368.129 310.894 368.761 267.323 370.28 267.323"/>
          <polygon class="cls-4" points="357.688 273.559 357.223 316.868 355.537 317.129 356.169 273.558 357.688 273.559"/>
          <polygon class="cls-4" points="343.426 278.613 342.961 321.922 341.275 322.183 341.907 278.613 343.426 278.613"/>
          <polygon class="cls-4" points="328.424 283.717 327.959 327.026 326.273 327.288 326.905 283.717 328.424 283.717"/>
          <polygon class="cls-4" points="311.832 284.77 311.367 328.08 309.682 328.341 310.313 284.77 311.832 284.77"/>
          <polygon class="cls-4" points="295.359 285.284 294.894 328.594 293.208 328.855 293.84 285.284 295.359 285.284"/>
          <polygon class="cls-4" points="277.391 282.518 276.926 325.828 275.24 326.089 275.871 282.518 277.391 282.518"/>
          <polygon class="cls-4" points="260.53 280.46 260.065 323.769 258.379 324.031 259.011 280.46 260.53 280.46"/>
          <polygon class="cls-4" points="244.136 273.973 243.671 317.282 241.985 317.543 242.617 273.972 244.136 273.973"/>
          <polygon class="cls-4" points="230.186 265.701 229.721 309.011 228.035 309.272 228.667 265.701 230.186 265.701"/>
          <path class="cls-4" d="M218.8155,253.3905,218.35,296.7l-1.1754.1821q.3243-21.7458.6485-43.4917Z"/>
          <path class="cls-4" d="M212.9691,245.83l-.465,43.31-1.1754.1821q.3243-21.7458.6484-43.4918Z"/>
          <path class="cls-4" d="M396.5,244.7562l-.465,43.3095-1.1754.1821q.3243-21.7458.6485-43.4917Z"/>
        </g>
      </g>
      <g>
        <path class="cls-2" d="M406.1645,241.0479c-.5308,13.4-9.7366,26.6184-27.5866,36.6164-36.5108,20.45-95.3606,19.6836-131.4449-1.7119-17.5912-10.43-26.5245-23.8381-26.83-37.2105L220.9,216.8l185.6944,6.6742Z"/>
        <ellipse class="cls-3" cx="313.7184" cy="220.5068" rx="53.5788" ry="92.9537" transform="translate(88.7074 531.0104) rotate(-89.1732)"/>
        <ellipse class="cls-4" cx="313.7184" cy="220.5068" rx="47.5403" ry="82.4776" transform="translate(88.7074 531.0104) rotate(-89.1732)"/>
        <ellipse class="cls-3" cx="313.7184" cy="220.5068" rx="45.6706" ry="79.2338" transform="translate(88.7074 531.0104) rotate(-89.1732)"/>
        <ellipse class="cls-3" cx="313.7184" cy="220.5068" rx="45.6706" ry="79.2338" transform="translate(88.7074 531.0104) rotate(-89.1732)"/>
        <g id="White-4" data-name="White">
          <path class="cls-2" d="M316.314,223.9022,297.16,257.8542l59.3541-10.2995,19.1541-33.952Z"/>
          <polygon class="cls-2" points="372.465 205.931 332.265 182.279 272.911 192.578 313.111 216.231 372.465 205.931"/>
          <polygon class="cls-2" points="289.436 255.334 308.59 221.382 268.39 197.73 249.236 231.682 289.436 255.334"/>
        </g>
        <g class="cls-8">
          <polygon class="cls-4" points="399.396 227.672 398.931 270.981 397.245 271.243 397.877 227.672 399.396 227.672"/>
          <polygon class="cls-4" points="390.861 236.969 390.396 280.279 388.71 280.54 389.342 236.969 390.861 236.969"/>
          <polygon class="cls-4" points="379.483 243.032 379.018 286.342 377.333 286.603 377.964 243.032 379.483 243.032"/>
          <polygon class="cls-4" points="366.892 249.268 366.427 292.577 364.741 292.838 365.373 249.267 366.892 249.268"/>
          <polygon class="cls-4" points="352.63 254.322 352.165 297.631 350.479 297.892 351.11 254.321 352.63 254.322"/>
          <polygon class="cls-4" points="337.628 259.426 337.163 302.735 335.477 302.997 336.108 259.426 337.628 259.426"/>
          <polygon class="cls-4" points="321.036 260.479 320.571 303.789 318.885 304.05 319.517 260.479 321.036 260.479"/>
          <polygon class="cls-4" points="304.563 260.993 304.098 304.303 302.412 304.564 303.044 260.993 304.563 260.993"/>
          <polygon class="cls-4" points="286.594 258.227 286.129 301.537 284.443 301.798 285.075 258.227 286.594 258.227"/>
          <polygon class="cls-4" points="269.734 256.169 269.269 299.478 267.583 299.739 268.215 256.168 269.734 256.169"/>
          <polygon class="cls-4" points="253.34 249.682 252.875 292.991 251.189 293.252 251.82 249.681 253.34 249.682"/>
          <polygon class="cls-4" points="239.39 241.41 238.925 284.72 237.239 284.981 237.871 241.41 239.39 241.41"/>
          <path class="cls-4" d="M228.0191,229.0994l-.465,43.31-1.1754.1821q.3243-21.7459.6485-43.4918Z"/>
          <path class="cls-4" d="M222.1728,221.5393l-.4651,43.3095-1.1753.1821q.3242-21.7459.6484-43.4918Z"/>
          <path class="cls-4" d="M405.7039,220.4651l-.465,43.31-1.1754.1821q.3243-21.746.6485-43.4918Z"/>
        </g>
      </g>
      <g>
        <path class="cls-2" d="M401.0366,218.6531c-.5308,13.4-9.7366,26.6184-27.5866,36.6164-36.5107,20.45-95.3606,19.6836-131.4449-1.7119-17.5912-10.43-26.5244-23.8381-26.83-37.21l.5975-21.9424,185.6944,6.6742Z"/>
        <ellipse class="cls-3" cx="308.5905" cy="198.112" rx="53.5788" ry="92.9537" transform="translate(106.046 503.8114) rotate(-89.1732)"/>
        <ellipse class="cls-4" cx="308.5905" cy="198.112" rx="47.5403" ry="82.4776" transform="translate(106.046 503.8114) rotate(-89.1732)"/>
        <ellipse class="cls-3" cx="308.5905" cy="198.112" rx="45.6706" ry="79.2338" transform="translate(106.046 503.8114) rotate(-89.1732)"/>
        <ellipse class="cls-3" cx="308.5905" cy="198.112" rx="45.6706" ry="79.2338" transform="translate(106.046 503.8114) rotate(-89.1732)"/>
        <g id="White-5" data-name="White">
          <path class="cls-2" d="M311.1861,201.5074l-19.1541,33.952L351.3861,225.16l19.1541-33.952Z"/>
          <polygon class="cls-2" points="367.337 183.536 327.137 159.884 267.783 170.184 307.983 193.836 367.337 183.536"/>
          <polygon class="cls-2" points="284.309 232.939 303.463 198.987 263.263 175.335 244.109 209.287 284.309 232.939"/>
        </g>
        <g class="cls-9">
          <polygon class="cls-4" points="394.268 205.277 393.803 248.587 392.118 248.848 392.749 205.277 394.268 205.277"/>
          <polygon class="cls-4" points="385.733 214.574 385.268 257.884 383.582 258.145 384.214 214.574 385.733 214.574"/>
          <polygon class="cls-4" points="374.356 220.637 373.89 263.947 372.205 264.208 372.836 220.637 374.356 220.637"/>
          <polygon class="cls-4" points="361.764 226.873 361.299 270.182 359.613 270.443 360.245 226.872 361.764 226.873"/>
          <polygon class="cls-4" points="347.502 231.927 347.037 275.236 345.351 275.498 345.983 231.927 347.502 231.927"/>
          <polygon class="cls-4" points="332.5 237.031 332.035 280.341 330.349 280.602 330.98 237.031 332.5 237.031"/>
          <polygon class="cls-4" points="315.908 238.084 315.443 281.394 313.757 281.655 314.389 238.084 315.908 238.084"/>
          <polygon class="cls-4" points="299.435 238.598 298.97 281.908 297.284 282.169 297.916 238.598 299.435 238.598"/>
          <polygon class="cls-4" points="281.466 235.832 281.001 279.142 279.316 279.403 279.947 235.832 281.466 235.832"/>
          <polygon class="cls-4" points="264.606 233.774 264.141 277.083 262.455 277.345 263.087 233.774 264.606 233.774"/>
          <polygon class="cls-4" points="248.212 227.287 247.747 270.596 246.061 270.857 246.692 227.286 248.212 227.287"/>
          <polygon class="cls-4" points="234.262 219.015 233.797 262.325 232.111 262.586 232.743 219.015 234.262 219.015"/>
          <path class="cls-4" d="M222.8913,206.7046l-.4651,43.31-1.1754.1821q.3243-21.7459.6485-43.4918Z"/>
          <path class="cls-4" d="M217.0449,199.1445l-.465,43.31-1.1754.1821q.3241-21.7459.6484-43.4918Z"/>
          <path class="cls-4" d="M400.576,198.07l-.465,43.3095-1.1754.1821q.3243-21.7459.6485-43.4918Z"/>
        </g>
      </g>
      <g>
        <path class="cls-2" d="M181.9462,181.7393c13.3818.88,26.3555,10.4271,35.8848,28.5317,19.4914,37.0314,17.1911,95.8413-5.1378,131.3556-10.8855,17.3133-24.5214,25.894-37.8973,25.8513l-21.9193-1.1693,11.5126-185.4573Z"/>
        <ellipse class="cls-3" cx="159.0022" cy="273.6185" rx="92.9537" ry="53.5788" transform="translate(-120.8301 421.4111) rotate(-87.6794)"/>
        <ellipse class="cls-4" cx="159.0022" cy="273.6185" rx="82.4776" ry="47.5403" transform="translate(-120.8301 421.4111) rotate(-87.6794)"/>
        <ellipse class="cls-3" cx="159.0022" cy="273.6185" rx="79.2338" ry="45.6706" transform="translate(-120.8301 421.4111) rotate(-87.6794)"/>
        <ellipse class="cls-3" cx="159.0022" cy="273.6185" rx="79.2338" ry="45.6706" transform="matrix(0.0405, -0.9992, 0.9992, 0.0405, -120.8301, 421.4111)"/>
        <g id="White-6" data-name="White">
          <path class="cls-2" d="M162.4641,271.1123l33.4411,20.0326q-4.3743-29.8012-8.7487-59.6024L153.7153,211.51Q158.09,241.311,162.4641,271.1123Z"/>
          <polygon class="cls-2" points="145.963 214.512 121.271 254.082 130.019 313.684 154.712 274.115 145.963 214.512"/>
          <polygon class="cls-2" points="193.185 298.8 159.743 278.767 135.051 318.337 168.492 338.37 193.185 298.8"/>
        </g>
        <g class="cls-10">
          <polygon class="cls-4" points="168.398 188.156 211.681 189.75 211.898 191.442 168.358 189.675 168.398 188.156"/>
          <polygon class="cls-4" points="177.47 196.931 220.753 198.525 220.97 200.217 177.43 198.45 177.47 196.931"/>
          <polygon class="cls-4" points="183.234 208.463 226.517 210.057 226.734 211.749 183.194 209.982 183.234 208.463"/>
          <polygon class="cls-4" points="189.139 221.213 232.422 222.807 232.639 224.499 189.099 222.731 189.139 221.213"/>
          <polygon class="cls-4" points="193.82 235.602 237.103 237.196 237.32 238.888 193.78 237.121 193.82 235.602"/>
          <polygon class="cls-4" points="198.531 250.732 241.814 252.326 242.031 254.018 198.491 252.251 198.531 250.732"/>
          <polygon class="cls-4" points="199.152 267.345 242.434 268.939 242.651 270.631 199.112 268.864 199.152 267.345"/>
          <polygon class="cls-4" points="199.236 283.826 242.519 285.42 242.736 287.112 199.196 285.345 199.236 283.826"/>
          <polygon class="cls-4" points="196.003 301.717 239.285 303.311 239.503 305.003 195.963 303.235 196.003 301.717"/>
          <polygon class="cls-4" points="193.505 318.518 236.788 320.112 237.005 321.804 193.466 320.036 193.505 318.518"/>
          <polygon class="cls-4" points="186.593 334.737 229.876 336.331 230.093 338.023 186.553 336.256 186.593 334.737"/>
          <polygon class="cls-4" points="177.961 348.467 221.244 350.061 221.461 351.753 177.921 349.985 177.961 348.467"/>
          <path class="cls-4" d="M165.3578,359.5126l43.2827,1.5938.1514,1.18-43.46-1.782Z"/>
          <path class="cls-4" d="M157.6479,365.16l43.2826,1.5938.1514,1.18-43.46-1.782Z"/>
          <path class="cls-4" d="M161.3584,181.6631l43.2826,1.5939.1514,1.18-43.46-1.782Z"/>
        </g>
      </g>
    </g>
  </g>
</svg>
