<svg xmlns="http://www.w3.org/2000/svg" xmlns:xlink="http://www.w3.org/1999/xlink" width="512" height="512" viewBox="0 0 512 512">
  <defs>
    <style>
      .cls-1 {
        fill: none;
      }

      .cls-2 {
        isolation: isolate;
      }

      .cls-3 {
        fill: #1f8b37;
      }

      .cls-4 {
        fill: #29a63c;
      }

      .cls-5 {
        fill: #efd76f;
      }

      .cls-6, .cls-8 {
        fill: #fbbc00;
      }

      .cls-7 {
        clip-path: url(#clip-path);
      }

      .cls-14, .cls-16, .cls-17, .cls-18, .cls-19, .cls-21, .cls-8 {
        mix-blend-mode: multiply;
        opacity: 0.7;
      }

      .cls-12, .cls-9 {
        fill: #fff;
      }

      .cls-12, .cls-26, .cls-9 {
        mix-blend-mode: overlay;
      }

      .cls-9 {
        opacity: 0.8;
      }

      .cls-10 {
        fill: #ffdb12;
      }

      .cls-11 {
        fill: url(#linear-gradient);
      }

      .cls-13 {
        fill: url(#linear-gradient-2);
      }

      .cls-14 {
        fill: url(#linear-gradient-3);
      }

      .cls-15 {
        fill: url(#linear-gradient-4);
      }

      .cls-16 {
        fill: url(#linear-gradient-5);
      }

      .cls-17 {
        fill: url(#linear-gradient-6);
      }

      .cls-18 {
        fill: url(#linear-gradient-7);
      }

      .cls-19 {
        fill: url(#linear-gradient-8);
      }

      .cls-20 {
        fill: url(#linear-gradient-9);
      }

      .cls-21 {
        fill: url(#linear-gradient-10);
      }

      .cls-22 {
        fill: url(#linear-gradient-11);
      }

      .cls-23 {
        fill: url(#linear-gradient-12);
      }

      .cls-24 {
        fill: #fab200;
      }

      .cls-25 {
        fill: url(#linear-gradient-13);
      }

      .cls-26 {
        fill: url(#radial-gradient);
      }

      .cls-27 {
        fill: url(#Degradado_sin_nombre_337);
      }

      .cls-28 {
        fill: url(#Degradado_sin_nombre_337-2);
      }

      .cls-29 {
        fill: url(#Degradado_sin_nombre_337-3);
      }

      .cls-30 {
        fill: url(#radial-gradient-2);
      }

      .cls-31 {
        fill: url(#radial-gradient-3);
      }

      .cls-32 {
        fill: url(#radial-gradient-4);
      }

      .cls-33 {
        fill: url(#radial-gradient-5);
      }

      .cls-34 {
        fill: url(#radial-gradient-6);
      }

      .cls-35 {
        fill: #a40018;
      }

      .cls-36 {
        fill: #c50013;
      }

      .cls-37 {
        fill: #f3001e;
      }

      .cls-38 {
        fill: url(#radial-gradient-7);
      }

      .cls-39 {
        fill: url(#radial-gradient-8);
      }

      .cls-40 {
        fill: url(#radial-gradient-9);
      }
    </style>
    <clipPath id="clip-path">
      <path class="cls-1" d="M202.94,384.5351l-.2518,4.671c0,16.7371,23.2593,30.45,52.3814,30.7424,29.4392.2967,53.7206-13.2321,54.2341-30.2161q-.1266-2.7187-.2535-5.4377Z"/>
    </clipPath>
    <linearGradient id="linear-gradient" x1="284.7807" y1="372.8325" x2="228.2195" y2="397.2232" gradientUnits="userSpaceOnUse">
      <stop offset="0" stop-color="#ffe705"/>
      <stop offset="1" stop-color="#ff9805"/>
    </linearGradient>
    <linearGradient id="linear-gradient-2" x1="267.5875" y1="370.0789" x2="234.8659" y2="401.4783" xlink:href="#linear-gradient"/>
    <linearGradient id="linear-gradient-3" x1="268.2055" y1="384.1951" x2="230.5649" y2="382.2029" gradientTransform="translate(-29.7076 8.7163) rotate(-4.671)" gradientUnits="userSpaceOnUse">
      <stop offset="0" stop-color="#fbbc00"/>
      <stop offset="1" stop-color="#fbbc00" stop-opacity="0.2"/>
    </linearGradient>
    <linearGradient id="linear-gradient-4" x1="268.6833" y1="332.6294" x2="249.8915" y2="332.6294" xlink:href="#linear-gradient"/>
    <linearGradient id="linear-gradient-5" x1="246.9966" y1="308.3322" x2="260.6271" y2="325.1082" gradientTransform="matrix(1, 0, 0, 1, 0, 0)" xlink:href="#linear-gradient-3"/>
    <linearGradient id="linear-gradient-6" x1="194.2794" y1="169.2077" x2="318.7233" y2="197.7521" gradientTransform="matrix(1, 0, 0, 1, 0, 0)" xlink:href="#linear-gradient-3"/>
    <linearGradient id="linear-gradient-7" x1="196.5079" y1="199.512" x2="316.0646" y2="226.9354" gradientTransform="matrix(1, 0, 0, 1, 0, 0)" xlink:href="#linear-gradient-3"/>
    <linearGradient id="linear-gradient-8" x1="254.0689" y1="294.2529" x2="268.6433" y2="317.7396" gradientTransform="matrix(1, 0, 0, 1, 0, 0)" xlink:href="#linear-gradient-3"/>
    <linearGradient id="linear-gradient-9" x1="281.33" y1="160.7169" x2="178.2513" y2="267.9057" xlink:href="#linear-gradient"/>
    <linearGradient id="linear-gradient-10" x1="149.0047" y1="282.9881" x2="231.133" y2="212.8785" gradientTransform="matrix(1, 0, 0, 1, 0, 0)" xlink:href="#linear-gradient-3"/>
    <linearGradient id="linear-gradient-11" x1="234.6256" y1="141.1412" x2="196.2898" y2="181.0055" gradientUnits="userSpaceOnUse">
      <stop offset="0" stop-color="#ffe712"/>
      <stop offset="1" stop-color="#fbbc00"/>
    </linearGradient>
    <linearGradient id="linear-gradient-12" x1="335.5468" y1="168.8735" x2="322.399" y2="257.4465" xlink:href="#linear-gradient"/>
    <linearGradient id="linear-gradient-13" x1="255.8062" y1="115.2604" x2="257.8593" y2="252.8654" xlink:href="#linear-gradient"/>
    <radialGradient id="radial-gradient" cx="2028.9389" cy="710.1076" r="15.9367" gradientTransform="matrix(0.3028, -0.3436, 0.7503, 0.6611, -866.9395, 591.4821)" gradientUnits="userSpaceOnUse">
      <stop offset="0" stop-color="#fff"/>
      <stop offset="0.151" stop-color="#fff" stop-opacity="0.7696"/>
      <stop offset="0.321" stop-color="#fff" stop-opacity="0.5384"/>
      <stop offset="0.4852" stop-color="#fff" stop-opacity="0.3458"/>
      <stop offset="0.6393" stop-color="#fff" stop-opacity="0.1957"/>
      <stop offset="0.7809" stop-color="#fff" stop-opacity="0.0882"/>
      <stop offset="0.9055" stop-color="#fff" stop-opacity="0.023"/>
      <stop offset="1" stop-color="#fff" stop-opacity="0"/>
    </radialGradient>
    <radialGradient id="Degradado_sin_nombre_337" data-name="Degradado sin nombre 337" cx="615.1513" cy="207.1752" r="2.7548" gradientTransform="matrix(0.679, 0.7341, -0.7341, 0.679, -9.6693, -329.2106)" gradientUnits="userSpaceOnUse">
      <stop offset="0" stop-color="#b2d5a5"/>
      <stop offset="0.0806" stop-color="#a9d19d"/>
      <stop offset="0.7069" stop-color="#65b766"/>
      <stop offset="1" stop-color="#4aad50"/>
    </radialGradient>
    <radialGradient id="Degradado_sin_nombre_337-2" cx="332.1877" cy="275.0438" r="2.9455" gradientTransform="matrix(1.1519, 0.1862, -0.1352, 0.9261, -35.4304, -59.8557)" xlink:href="#Degradado_sin_nombre_337"/>
    <radialGradient id="Degradado_sin_nombre_337-3" cx="24.9944" cy="336.8105" r="2.9455" gradientTransform="matrix(-1.1519, 0.1862, 0.1352, 0.9261, 187.8221, -59.8557)" xlink:href="#Degradado_sin_nombre_337"/>
    <radialGradient id="radial-gradient-2" cx="256.0228" cy="180.3473" r="26.9265" gradientUnits="userSpaceOnUse">
      <stop offset="0" stop-color="#ffe712"/>
      <stop offset="1" stop-color="#f89900" stop-opacity="0.7"/>
    </radialGradient>
    <radialGradient id="radial-gradient-3" cx="220.3376" cy="187.9313" r="25.5148" gradientTransform="translate(0 -31.2573) scale(1 1.1065)" xlink:href="#radial-gradient-2"/>
    <radialGradient id="radial-gradient-4" cx="-70.5864" cy="187.9313" r="25.5148" gradientTransform="matrix(-1, 0, 0, 1.1065, 223.6641, -31.2573)" xlink:href="#radial-gradient-2"/>
    <radialGradient id="radial-gradient-5" cx="196.52" cy="165.5463" r="27.8029" gradientTransform="translate(4.3986) scale(0.9366 1)" xlink:href="#radial-gradient-2"/>
    <radialGradient id="radial-gradient-6" cx="-90.5958" cy="165.5463" r="27.8029" gradientTransform="matrix(-0.9355, 0, 0, 1, 240.7778, 0)" xlink:href="#radial-gradient-2"/>
    <radialGradient id="radial-gradient-7" cx="1276.8546" cy="357.7066" r="2.4221" gradientTransform="matrix(0.3439, -0.8426, -0.9889, -0.4035, 140.229, 1597.5596)" gradientUnits="userSpaceOnUse">
      <stop offset="0" stop-color="#f3adc1"/>
      <stop offset="0.0879" stop-color="#f691a0"/>
      <stop offset="0.1975" stop-color="#f9747f"/>
      <stop offset="0.3154" stop-color="#fb5c63"/>
      <stop offset="0.4423" stop-color="#fd4a4e"/>
      <stop offset="0.5825" stop-color="#fe3d3f"/>
      <stop offset="0.7464" stop-color="#ff3536"/>
      <stop offset="0.9916" stop-color="#f33"/>
    </radialGradient>
    <radialGradient id="radial-gradient-8" cx="1154.3988" cy="613.4057" r="2.4221" gradientTransform="matrix(-0.3439, -0.8426, 0.9889, -0.4035, 76.5169, 1597.5596)" xlink:href="#radial-gradient-7"/>
    <radialGradient id="radial-gradient-9" cx="1185.6146" cy="678.7521" r="2.7441" gradientTransform="translate(-455.0401 1552.9261) rotate(-88.4218)" xlink:href="#radial-gradient-7"/>
  </defs>
  <g class="cls-2">
    <g id="Layer_1" data-name="Layer 1">
      <g id="Item">
        <g id="Holy_Grail" data-name="Holy Grail">
          <g id="Rubi">
            <path class="cls-3" d="M335.47,239.1057q2.3215-8.2088,4.6428-16.4177.3383,4.1325.6766,8.2651Z"/>
            <path class="cls-4" d="M337.7688,230.2236q1.1718-3.7677,2.3438-7.5356.3383,4.1325.6766,8.2651Z"/>
          </g>
          <g id="Rubi-2" data-name="Rubi">
            <path class="cls-3" d="M176.5366,239.1057l-4.6428-16.4177q-.3381,4.1325-.6765,8.2651Q173.877,235.0294,176.5366,239.1057Z"/>
            <path class="cls-4" d="M174.2377,230.2236l-2.3439-7.5356q-.3381,4.1325-.6765,8.2651Z"/>
          </g>
          <ellipse class="cls-5" cx="255.9936" cy="388.8563" rx="53.6964" ry="31.1031"/>
          <path class="cls-6" d="M302.5631,377.7329l-93.539-.4616c.02,3.5106-2.11,6.9958-6.336,7.4351v4.5c0,16.7371,23.2593,30.45,52.3813,30.7424,29.4392.2967,53.7207-13.2321,54.2342-30.2161v-3.9857C304.5426,385.5106,302.3019,381.536,302.5631,377.7329Z"/>
          <g class="cls-7">
            <path class="cls-8" d="M229.26,388.2634H246.196v31.26a96.4363,96.4363,0,0,1-16.9357-2.9493Zm25.1933,31.6741c.2064.0026.4094.01.6158.0117a104.6076,104.6076,0,0,0,25.6723-2.8513v-26.145H254.4536Zm-34.0007-6.3684q2.5607,1.077,5.4023,2V385.2855l-5.4023-.0209ZM204.83,401.9483c2.291,3.683,6.3343,7.02,11.6932,9.7916V385.249l-11.6932-.0471Z"/>
          </g>
          <path class="cls-9" d="M305.7362,380.7465l-99.2092-.51a6.842,6.842,0,0,1-3.5872,4.2988c2.5118,16.0363,24.7154,28.7192,52.13,29.0056,28.1789.2961,51.5737-12.6184,53.9806-29.246A6.6866,6.6866,0,0,1,305.7362,380.7465Z"/>
          <g>
            <path class="cls-10" d="M280.288,360.5135c-.3-.0865-.6077-.1693-.9168-.2519C279.6594,360.3386,279.9627,360.4222,280.288,360.5135Z"/>
            <path class="cls-10" d="M279.3712,360.2616c-.4412-.118-.8531-.2255-1.1973-.3139C278.5829,360.0475,278.9756,360.155,279.3712,360.2616Z"/>
            <path class="cls-11" d="M308.6968,382.406a31.36,31.36,0,0,0-2.0343-3.806,33.1186,33.1186,0,0,0-2.6561-3.6614,39.0843,39.0843,0,0,0-7.3628-6.7761,48.4233,48.4233,0,0,0-8.6647-4.9053,56.1118,56.1118,0,0,0-7.6909-2.7437l-48.3967-.0514a56.5653,56.5653,0,0,0-8.408,3.0358,49.786,49.786,0,0,0-8.4279,4.88,38.5072,38.5072,0,0,0-7.2577,6.7979,33.4375,33.4375,0,0,0-2.4564,3.42,29.537,29.537,0,0,0-2.0348,3.81,13.09,13.09,0,0,0-.61,2.464c-.7863,5.5718,7.8841,13.4,7.8842,13.4a54.5913,54.5913,0,0,0,17.051,10.3639,77.7871,77.7871,0,0,0,28.1186,4.9109c7.4608-.0256,23.2914-.2723,38.5035-9.7492,12.7432-7.9388,15.1976-16.2155,15.05-18.2883A14.1226,14.1226,0,0,0,308.6968,382.406Z"/>
            <path class="cls-12" d="M306.6625,378.6a33.1358,33.1358,0,0,0-2.6561-3.6614,39.09,39.09,0,0,0-7.3628-6.776,46.8656,46.8656,0,0,0-7.0289-4.1435l.5287,2.096a51.6268,51.6268,0,0,1,17.1878,13.6033C307.1286,379.3617,306.907,378.9879,306.6625,378.6Z"/>
            <path class="cls-8" d="M293.8287,385.2714c-.985,10.103-23.6026,16.7849-40.5287,16.675-17.227-.1118-39.931-7.3328-40.711-17.52-.7864-10.2723,20.76-23.0094,40.711-22.8558C273.4085,361.7251,294.83,374.9974,293.8287,385.2714Z"/>
            <path class="cls-10" d="M232.27,360.3556c.5112-.1407,1.03-.2776,1.5621-.4089C233.295,360.0818,232.7776,360.2177,232.27,360.3556Z"/>
            <path class="cls-10" d="M231.8913,360.4622c.1269-.0362.2506-.0713.3789-.1066C232.1429,360.3909,232.0172,360.426,231.8913,360.4622Z"/>
          </g>
          <g>
            <path class="cls-13" d="M293.7649,382.6957a30.393,30.393,0,0,0-1.0909-3.7683c-.3252-.8068-.7246-1.9047-1.0907-2.6846-.4879-1.0355-1.17-2.3994-1.7547-3.3548a37.9658,37.9658,0,0,0-3.7365-5.2727,44.6782,44.6782,0,0,0-4.28-4.4622,51.0357,51.0357,0,0,0-4.4822-3.6388,53.3522,53.3522,0,0,0-6.09-3.8035,48.9463,48.9463,0,0,0-5.6832-2.5986,33.41,33.41,0,0,0-4.4517-1.3781l-10.2544.0117a43.0623,43.0623,0,0,0-10.7345,4.3149,54.0157,54.0157,0,0,0-6.1189,3.9461,48.509,48.509,0,0,0-4.4455,3.7377,43.2959,43.2959,0,0,0-4.2078,4.5623c-.6767.8576-1.5426,2.0474-2.1636,2.9685-.4683.6949-1.0318,1.6835-1.4669,2.4125a24.8565,24.8565,0,0,0-1.6786,3.4268c-.6271,1.6279-1.3309,3.8756-1.7978,5.5836a6.9478,6.9478,0,0,0-.1664,1.2556c-.3652,8.8748,16.32,16.1937,37.2674,16.3479s38.2261-6.9135,38.5913-15.7872A6.99,6.99,0,0,0,293.7649,382.6957Z"/>
            <path class="cls-9" d="M255.3219,399.7823c-13.2343-.0954-24.8011-2.9155-31.645-7.142,6.5549,4.5139,18.2267,7.5637,31.6612,7.6614,13.9381.1038,26.2433-2.9943,33.0307-7.69C281.27,397.0152,269.0718,399.8824,255.3219,399.7823Z"/>
            <path class="cls-10" d="M261.1051,351.734l-.0314-.0071Z"/>
            <path class="cls-10" d="M261.0737,351.7269c-.2492-.0566-.4641-.1036-.6248-.1379C260.6609,351.6315,260.8692,351.6786,261.0737,351.7269Z"/>
            <path class="cls-10" d="M250.8507,351.7457c.0675-.0153.1336-.0306.1978-.046Z"/>
            <path class="cls-10" d="M251.0485,351.7c.1655-.0376.3324-.0764.5036-.1107C251.398,351.6208,251.2268,351.6586,251.0485,351.7Z"/>
          </g>
          <path class="cls-14" d="M266.6629,355.2544c-.2119-2.5934-5.9116-3.9645-12.7308-3.0619a30.554,30.554,0,0,0-5.4476,1.219l-.3625-.145a52.4305,52.4305,0,0,0-8.1892,3.65,56.7812,56.7812,0,0,0-5.8391,3.6736,47.5921,47.5921,0,0,0-4.1851,3.37,39.05,39.05,0,0,0-3.8938,4.0136c-.618.7452-1.4029,1.7731-1.9612,2.5648-.4211.5974-.9177,1.4386-1.3034,2.0607a18.7842,18.7842,0,0,0-1.4478,2.8941,45.4671,45.4671,0,0,0-1.4247,4.6392,4.5955,4.5955,0,0,0-.0834,1.0239c.1027,3.3467,3.8852,6.1166,10.0115,7.9606a254.7888,254.7888,0,0,1,33.17-29.8949l-.0021-.0009C265.34,358.0417,266.7741,356.6155,266.6629,355.2544Z"/>
          <path class="cls-15" d="M240.7319,306.9408c.1774,1.2,3.5444,24.0073,4.9387,48.0234.272,1.843,4.6775,3.3229,10.1491,3.3553,5.5945.0341,10.23-1.459,10.5092-3.3553,1.3953-24.0179,4.7619-46.8243,4.9387-48.0254Z"/>
          <path class="cls-9" d="M255.8155,357.9466c-4.882-.0295-8.9324-1.1669-10.0589-2.6866.6724,1.7023,4.8887,3.0289,10.0631,3.0594,5.2987.0323,9.73-1.3058,10.4228-3.0594C265.0822,356.8263,260.8283,357.976,255.8155,357.9466Z"/>
          <path class="cls-16" d="M240.7319,306.9407c.0518.3481.3728,2.5259.835,6.0143.7009,5.2847,1.7265,13.5975,2.6434,23.2133,14.27-18.3413,23.0393-24.3765,23.1049-24.4212.3338-.21.6657-.427.9348-.63a19.6058,19.6058,0,0,0,2.2187-1.8612c.0723-.0675.2692-.2549.545-.5535.1389-.9767.2292-1.5939.2539-1.7632Z"/>
          <g>
            <path class="cls-10" d="M234.1485,294.7867h.001c.0042-.0533.0066-.1094.0123-.1607C234.1561,294.6793,234.1514,294.7334,234.1485,294.7867Z"/>
            <path class="cls-10" d="M277.8515,295.0483l-43.702-.2616c-.01.1122-.022.2235-.0276.3395a13.5977,13.5977,0,0,0,.4412,3.9743,14.6128,14.6128,0,0,0,.9183,2.5374,15.7862,15.7862,0,0,0,1.0461,1.8772,16.9861,16.9861,0,0,0,2.6229,3.108,20.5621,20.5621,0,0,0,1.5844,1.3257c.6081.4469,1.4612.9881,2.1041,1.3847,2.6148,1.5092,7.3893,2.5335,12.8939,2.5668,5.6966.0332,10.7189-1.0024,13.4283-2.5668.5459-.33,1.2781-.7694,1.7879-1.1527a19.59,19.59,0,0,0,2.2187-1.8611,16.3411,16.3411,0,0,0,2.3044-2.8026,15.1883,15.1883,0,0,0,1.7355-3.6339,14.3644,14.3644,0,0,0,.6687-3.592A7.643,7.643,0,0,0,277.8515,295.0483Z"/>
          </g>
          <path class="cls-10" d="M231.45,297.7225h.001c.0042-.0532.0067-.1093.0123-.1607C231.4572,297.615,231.4519,297.6693,231.45,297.7225Z"/>
          <path class="cls-6" d="M333.26,120.0948v66.51c-.0543,2.2615-.0771,5.28-.19,7.5387-2.2026,43.178-25.0573,76.6805-77.0694,76.37,52.0121.31,74.8668-33.1924,77.0694-76.37-.3233,4.2045-.7827,9.8192-1.4531,13.9838a125.1409,125.1409,0,0,1-2.9187,13.143,84.74,84.74,0,0,1-9.7859,22.1673,78.5735,78.5735,0,0,1-7.0166,9.3189,68.1465,68.1465,0,0,1-7.1631,6.9235c-1.17.9672-2.7551,2.23-4.01,3.0831-1.9525,1.3267-4.6343,2.9768-6.6685,4.1712-1.0965.6429-2.621,1.3828-3.7718,1.9191-1.319.6154-3.1165,1.3572-4.46,1.9192a80.2181,80.2181,0,0,1-9.9133,3.1117c-2.6553.5982-3.8668.8712-5.4988,1.1279-2.2605.3576-4.3946.6943-7.5548.9329a86.9035,86.9035,0,0,1-11.7789.13c-3.5677-.2283-4.8844-.4023-7.5059-.75-1.6252-.2149-4.7465-.8178-5.3324-.9529-3.6481-.8406-4.03-.9291-5.8439-1.4769-1.57-.4726-3.72-1.1212-6.613-2.2786a66.3947,66.3947,0,0,1-7.6965-3.6062c-1.1659-.5916-2.6347-1.5369-3.7575-2.2045a64.1709,64.1709,0,0,1-5.3447-3.7479c-1.232-.9377-2.79-2.2959-3.95-3.321a69.2,69.2,0,0,1-6.8045-7.1707,107.5684,107.5684,0,0,1-6.7166-9.7289c-.9758-1.5406-1.9939-3.7594-2.8422-5.3751a88.8663,88.8663,0,0,1-4.7622-12.1635c-.5768-1.8945-1.35-4.4251-1.7584-6.3623-.8449-4.0076-1.845-9.38-2.416-13.436-.2949-2.0932-.5392-4.9072-.6634-7.0185-.173-2.9539-.3029-6.9-.3286-9.8582V120.1139q0-.2355.0114-.4708c.7447-14.5914,35.9333-26.2138,78.5973-25.959C299.5509,93.9361,333.26,105.7164,333.26,120.0948Z"/>
          <path class="cls-17" d="M333.26,120.0948v66.51c-.0543,2.2615-.0771,5.28-.19,7.5387-2.2026,43.178-25.0573,76.6805-77.0694,76.37,52.0121.31,74.8668-33.1924,77.0694-76.37-.3233,4.2045-.7827,9.8192-1.4531,13.9838a125.1409,125.1409,0,0,1-2.9187,13.143,84.74,84.74,0,0,1-9.7859,22.1673,78.5735,78.5735,0,0,1-7.0166,9.3189,68.1465,68.1465,0,0,1-7.1631,6.9235c-1.17.9672-2.7551,2.23-4.01,3.0831-1.9525,1.3267-4.6343,2.9768-6.6685,4.1712-1.0965.6429-2.621,1.3828-3.7718,1.9191-1.319.6154-3.1165,1.3572-4.46,1.9192a80.2181,80.2181,0,0,1-9.9133,3.1117c-2.6553.5982-3.8668.8712-5.4988,1.1279-2.2605.3576-4.3946.6943-7.5548.9329a86.9035,86.9035,0,0,1-11.7789.13c-3.5677-.2283-4.8844-.4023-7.5059-.75-1.6252-.2149-4.7465-.8178-5.3324-.9529-3.6481-.8406-4.03-.9291-5.8439-1.4769-1.57-.4726-3.72-1.1212-6.613-2.2786a66.3947,66.3947,0,0,1-7.6965-3.6062c-1.1659-.5916-2.6347-1.5369-3.7575-2.2045a64.1709,64.1709,0,0,1-5.3447-3.7479c-1.232-.9377-2.79-2.2959-3.95-3.321a69.2,69.2,0,0,1-6.8045-7.1707,107.5684,107.5684,0,0,1-6.7166-9.7289c-.9758-1.5406-1.9939-3.7594-2.8422-5.3751a88.8663,88.8663,0,0,1-4.7622-12.1635c-.5768-1.8945-1.35-4.4251-1.7584-6.3623-.8449-4.0076-1.845-9.38-2.416-13.436-.2949-2.0932-.5392-4.9072-.6634-7.0185-.173-2.9539-.3029-6.9-.3286-9.8582V120.1139q0-.2355.0114-.4708c.7447-14.5914,35.9333-26.2138,78.5973-25.959C299.5509,93.9361,333.26,105.7164,333.26,120.0948Z"/>
          <path class="cls-18" d="M257.3495,138.334c-42.664-.2548-77.8526,11.3666-78.5973,25.959-.0076.1569-.0114.3139-.0114.47V201.56c.0257,2.9585.1556,6.9043.3286,9.8582.1242,2.1112.3685,4.9252.6634,7.0184.571,4.0562,1.5711,9.4285,2.416,13.436.4085,1.9373,1.1816,4.4679,1.7584,6.3623a88.87,88.87,0,0,0,4.7622,12.1636c.8483,1.6157,1.8664,3.8345,2.8422,5.3751a107.5669,107.5669,0,0,0,6.7166,9.7288,69.18,69.18,0,0,0,6.8045,7.1707c1.1592,1.0252,2.7175,2.3833,3.95,3.321a64.1472,64.1472,0,0,0,5.3447,3.7479c1.1228.6676,2.5916,1.6129,3.7575,2.2045a66.418,66.418,0,0,0,7.6965,3.6063c2.8935,1.1574,5.0433,1.806,6.613,2.2786,1.8141.5477,2.1958.6363,5.8439,1.4769.5859.1351,3.7072.738,5.3324.9529,2.6215.3481,3.9382.5222,7.5059.75a86.8984,86.8984,0,0,0,11.7789-.1294c3.16-.2387,5.2943-.5753,7.5548-.9329,1.632-.2567,2.8435-.53,5.4988-1.1279a80.2181,80.2181,0,0,0,9.9133-3.1118c1.3438-.562,3.1413-1.3037,4.46-1.9191,1.1508-.5364,2.6753-1.2762,3.7718-1.9191,2.0342-1.1945,4.716-2.8445,6.6685-4.1712,1.2544-.8531,2.84-2.116,4.01-3.0832a68.1355,68.1355,0,0,0,7.1631-6.9234,78.5745,78.5745,0,0,0,7.0166-9.319,84.7372,84.7372,0,0,0,9.7859-22.1672,125.1483,125.1483,0,0,0,2.9187-13.1431c.67-4.1645,1.13-9.7793,1.4531-13.9838.1132-2.2586.136-5.2771.19-7.5387V164.7448C333.26,150.3663,299.5509,138.586,257.3495,138.334Z"/>
          <path class="cls-19" d="M277.8515,295.0483l-43.702-.2616c-.01.1122-.022.2235-.0276.3395a13.5977,13.5977,0,0,0,.4412,3.9743,14.6128,14.6128,0,0,0,.9183,2.5374,11.757,11.757,0,0,0,.7,1.3085v.001c.1075.1778.22.3642.3457.5677a16.9861,16.9861,0,0,0,2.6229,3.108,20.5621,20.5621,0,0,0,1.5844,1.3257c.6081.4469,1.4612.9881,2.1041,1.3847a17.4352,17.4352,0,0,0,4.7822,1.71c4.3224-3.42,12.5311-6.2511,17-7.4816.5089-.1247,1.011-.255,1.5017-.3871.0371-.0086.0837-.0219.12-.0295h-.0076a66.9049,66.9049,0,0,0,9.0717-3.1878c.7418-.3177,1.4636-.6457,2.1607-.9767a15.41,15.41,0,0,0,.409-2.69A7.643,7.643,0,0,0,277.8515,295.0483Z"/>
          <path class="cls-20" d="M241.7286,301.5712c-1.8688-.4611-4.3591-1.0908-6.1931-1.6766-2.0166-.6438-4.6823-1.5863-6.6305-2.4147-1.4055-.5991-3.289-1.3808-4.6409-2.0931-2.6918-1.4188-6.3028-3.2991-8.8245-5.0033a88.4474,88.4474,0,0,1-13.4173-10.6875,97.0707,97.0707,0,0,1-10.584-12.1073c-2.1683-2.9369-4.7484-7.0748-6.6462-10.194-1.0493-1.7253-2.2582-4.136-3.1659-5.94-.8606-1.71-1.9543-4.02-2.6661-5.7955-1.28-3.1868-2.8621-7.4855-3.9662-10.7369-.5617-1.6529-1.2041-3.8925-1.6059-5.592a105.6467,105.6467,0,0,1-2.202-10.49c-.25-1.5215-.5545-3.56-.6829-5.0964-.117-1.4076-.31-3.283-.3879-4.6934-.079-1.3989-.1341-3.2677-.136-4.6695V136.8277c0-2.1008.0026-5.1648.0127-9.2095a77.6525,77.6525,0,0,0,20.2466,19.687c14.5688,9.6347,29.6679,12.1771,46.0538,14.9363a137.02,137.02,0,0,0,18.206,2.2152c9.2659.4164,37.2808,1.2966,64.5663-16.0313a101.8486,101.8486,0,0,0,22.9542-20.0415c-.009,3.214-.01,5.7547-.0108,7.1694-.0014,8.4933,0,61.9933,0,69.3309q0,1.7591-.0941,3.6358c-.1208,1.5626-.2121,3.6548-.4175,5.2088-.194,1.4653-.4166,3.4226-.6486,4.8816-.252,1.5891-.6325,3.7012-.9643,5.2772-.67,3.1772-1.8146,7.3569-2.7076,10.48-.4888,1.7081-1.2876,3.941-1.8915,5.611-.623,1.7242-1.4855,4.0151-2.2474,5.6813-1.4835,3.243-3.5548,7.5293-5.2343,10.6752a109.2283,109.2283,0,0,1-7.2477,11.2591c-2.2329,2.9007-5.3856,6.6352-7.844,9.3493-1.4541,1.6055-3.611,3.5371-5.1811,5.032-1.2763,1.2145-3.0995,2.7065-4.4954,3.78-1.8441,1.4161-4.3709,3.2125-6.2976,4.5144a82.23,82.23,0,0,1-12.38,6.6742,79.2873,79.2873,0,0,1-14.0836,4.6267,66.9154,66.9154,0,0,1-14.73,1.45A66.0491,66.0491,0,0,1,241.7286,301.5712Z"/>
          <path class="cls-21" d="M284.3574,296.9445q.6505-.2765,1.282-.563c-63.7286-7.3533-81.4741-51.9206-81.4741-83.3755V158.5184c-20.794-5.3789-34.1861-13.9067-34.1861-23.4681v69.3308c.0019,1.4018.057,3.2706.136,4.6695.078,1.41.2709,3.2858.3879,4.6934.1284,1.5367.4328,3.5749.6829,5.0964a105.6467,105.6467,0,0,0,2.202,10.49c.4018,1.7,1.0442,3.9391,1.6059,5.592,1.1041,3.2514,2.6866,7.55,3.9662,10.7369.7118,1.7756,1.8055,4.0857,2.6661,5.7955.9077,1.8041,2.1166,4.2148,3.1659,5.94,1.8978,3.1192,4.4779,7.2571,6.6462,10.194a97.0707,97.0707,0,0,0,10.584,12.1073A88.4474,88.4474,0,0,0,215.44,290.3835c2.5217,1.7042,6.1327,3.5845,8.8245,5.0033,1.3519.7123,3.2354,1.494,4.6409,2.0931,1.9482.8284,4.6139,1.7709,6.6305,2.4147,1.834.5858,4.3243,1.2155,6.1931,1.6766a66.0491,66.0491,0,0,0,13.8154,1.45,66.9154,66.9154,0,0,0,14.73-1.45A79.2873,79.2873,0,0,0,284.3574,296.9445Z"/>
          <path class="cls-22" d="M242.2735,167.2268a201.5358,201.5358,0,0,0,48.9845-5.3475l.0062-.0012a337.69,337.69,0,0,1-36.7659,2.5786s-31.5908-.0046-62.5172-15.7824a25.99,25.99,0,0,1-10.7779-9.3061,23.7562,23.7562,0,0,1-3.2871-9.1153l-7.9242-1.5348c-.01,3.441-.0123,6.1848-.0127,8.11v14.76C184.7475,160.79,211.4773,167.0252,242.2735,167.2268Z"/>
          <path class="cls-23" d="M329.7827,147.1394v62.6893q0,1.9691-.095,4.068c-.12,1.7487-.2112,4.0907-.4157,5.8286-.194,1.64-.4175,3.8291-.6486,5.462-.2529,1.7778-.6334,4.1411-.9643,5.9035-.67,3.5566-1.8164,8.2336-2.7094,11.7279-.4879,1.9111-1.2867,4.41-1.89,6.2788-.6228,1.9288-1.4863,4.4923-2.2482,6.3568-1.4835,3.6286-3.5539,8.4252-5.2334,11.946a125.1879,125.1879,0,0,1-7.2477,12.5975c-.7408,1.0765-1.5872,2.2592-2.4717,3.4652.3808-.3427.9647-.8708,1.671-1.5211,2.2257-2.0489,3.9605-3.7388,4.4761-4.249a102.0908,102.0908,0,0,0,8.4548-9.9764,106.7632,106.7632,0,0,0,7.3419-11.3813A112.9225,112.9225,0,0,0,333.037,245.66c1.2473-2.92,2.1191-5.3057,2.569-6.5743.261-.7361.9993-2.8434,1.8387-5.664,1.5446-5.19,2.3751-9.2467,2.6679-10.7337.4648-2.3607.77-4.3195.9584-5.6283.1546-1.0768.3907-2.7371.5909-4.9363.0717-.7887.1942-2.2548.27-3.9845.0364-.8291.0541-1.5382.0613-1.85.02-.902.0229-1.6061.0231-1.9444,0-.6832-.0085-1.1841-.0085-1.24V129.9817Z"/>
          <polygon class="cls-24" points="170.01 158.691 169.992 128.718 183.851 147.975 237.081 163.901 290.027 162.603 323.859 150.259 341.987 128.854 341.987 158.999 341.919 161.267 341.112 163.405 340.339 166.154 337.433 170.114 332.349 175.456 327.663 179.087 313.629 185.905 303.086 189.186 285.912 192.489 263.841 194.855 245.215 194.996 228.837 193.309 213.514 190.38 199.363 186.515 185.914 179.978 177.011 173.417 172.677 167.677 170.568 163.179 170.075 161.234 170.01 158.691"/>
          <path class="cls-25" d="M342.0081,128.8824c-.8294,19.9952-40.0083,35.923-87.51,35.5732s-85.3346-16.8421-84.5064-36.8374S210,91.6975,257.5017,92.0463,342.8363,108.8882,342.0081,128.8824Zm-8.7608-.0633c.7456-17.96-33.2371-32.7721-75.8978-33.0847-42.664-.3137-77.8526,13.9908-78.5973,31.9494s33.2366,32.771,75.9,33.0847,77.8517-13.9908,78.5954-31.9494"/>
          <path class="cls-9" d="M178.7684,129.1793c-.0061-.2941-.0284-.5882-.0162-.8847.7447-18.3455,35.9333-32.958,78.5973-32.6376,42.6607.3194,76.6434,15.4508,75.8978,33.7973-.001.0323-.0076.0634-.01.0945.0038.1207.0219.24.0219.3623v-1.8892c0-18.0788-33.7088-32.8885-75.91-33.2066-42.664-.32-77.8526,14.2921-78.5973,32.6386-.0076.1961-.0114.3934-.0114.5908v1.8891q0-.2959.0114-.5919C178.7547,129.2894,178.7651,129.2343,178.7684,129.1793Z"/>
          <path class="cls-9" d="M254.4983,164.2058c-46.575-.3417-83.8354-16.2-84.4887-35.6608-.0029.0574-.0147.1159-.0177.1731-.8282,19.9874,37.006,36.4739,84.5064,36.8225s86.6805-15.5716,87.51-35.5589c.0152-.3778-.0085-.7522-.0208-1.1279C340.8963,148.744,301.8342,164.5544,254.4983,164.2058Z"/>
          <path class="cls-9" d="M254.4983,194.3513c-46.575-.3417-83.8354-16.2-84.4887-35.6608-.0029.0574-.0147.1159-.0177.1731-.8282,19.9875,37.006,36.4739,84.5064,36.8226s86.6805-15.5717,87.51-35.5589c.0152-.3778-.0085-.7522-.0208-1.128C340.8963,178.89,301.8342,194.7,254.4983,194.3513Z"/>
          <path class="cls-12" d="M269.6689,354.2642c6.8245,4.0618,14.717,7.9734,22.1445,17.6509-.078-.1465-.155-.2929-.23-.4223a29.8114,29.8114,0,0,0-1.7547-2.7084,31.6233,31.6233,0,0,0-3.7365-4.2568,41.0817,41.0817,0,0,0-4.28-3.6025,50.5065,50.5065,0,0,0-4.4822-2.9377,56.5257,56.5257,0,0,0-6.09-3.0708C270.86,354.7512,270.3261,354.5248,269.6689,354.2642Z"/>
          <path class="cls-26" d="M285.0422,358.3146c6.6038,5.8183,9.7963,12.9871,7.1316,16.0123s-10.1778.7589-16.7816-5.0594-9.7974-12.9881-7.1326-16.0123S278.4383,352.4954,285.0422,358.3146Z"/>
          <path class="cls-9" d="M266.9661,314.0705s.0924.5125.1684,1.4008c.05.4461.0761.9834.1151,1.6006.0409.6182.04,1.31.0656,2.0694.02,1.5131-.0324,3.2724-.1645,5.15-.1275,1.8772-.36,3.8716-.6068,5.864-.1188.9976-.2634,1.9914-.41,2.97-.1494.9786-.2664,1.9439-.4394,2.873-.1617.93-.3177,1.83-.466,2.6819-.1684.85-.3282,1.6547-.4745,2.3975-.3187,1.4817-.6068,2.7151-.8294,3.5767-.2244.8607-.3709,1.3514-.3709,1.3514a.4276.4276,0,0,1-.835-.0771s-.0551-.5087-.1189-1.3969c-.0617-.8864-.1207-2.1522-.1645-3.6672-.0085-.757-.019-1.5768-.0295-2.4441.01-.8644.0191-1.7774.0295-2.7209,0-.9443.06-1.9162.09-2.9044.0352-.989.0741-1.9933.1389-2.9947.12-2.0048.2548-4.0085.4706-5.8772.2121-1.8717.4813-3.61.7771-5.0947.1626-.7408.2881-1.4218.44-2.0228.15-.5992.275-1.1241.4043-1.553.2368-.86.4213-1.3467.4213-1.3467a.9318.9318,0,0,1,1.7878.1646Z"/>
          <g id="Rubi-3" data-name="Rubi">
            <polygon class="cls-3" points="247.181 262.774 256.384 254.262 264.82 263.382 255.602 271.908 247.181 262.774"/>
            <path class="cls-4" d="M247.1806,262.7744l4.91.221,4.0285-3.8133.2651-4.9206,8.4357,9.12-4.9918-.22-4.0628,3.7733q-.0819,2.4865-.1636,4.9731Z"/>
            <path class="cls-27" d="M252.0906,262.9954l4.0285-3.8133q1.8544,1.99,3.709,3.98l-4.0628,3.7733Z"/>
          </g>
          <g id="Rubi-4" data-name="Rubi">
            <path class="cls-3" d="M302.02,257.0641l7.2082-9.09q3.4262,4.05,6.8521,8.1l-6.9131,9.3378Z"/>
            <path class="cls-4" d="M302.02,257.0641l5.3236-.2026,2.7465-3.4636-.8619-5.4241q3.4262,4.05,6.8521,8.1l-3.3794.41-2.634,3.5578-.9,5.37Z"/>
            <path class="cls-28" d="M307.3436,256.8615l2.7464-3.4636q1.3056,1.5432,2.6108,3.0864l-2.634,3.5578Z"/>
          </g>
          <g id="Rubi-5" data-name="Rubi">
            <path class="cls-3" d="M212.5681,257.0641l-7.2082-9.09q-3.426,4.05-6.852,8.1l6.913,9.3378Q208.9947,261.238,212.5681,257.0641Z"/>
            <path class="cls-4" d="M212.5681,257.0641l-5.3236-.2026q-1.3731-1.7317-2.7464-3.4636l.8618-5.4241q-3.426,4.05-6.852,8.1l3.3793.41,2.6341,3.5578q.45,2.6848.9,5.37Q208.9947,261.238,212.5681,257.0641Z"/>
            <path class="cls-29" d="M207.2445,256.8615q-1.3734-1.7317-2.7465-3.4636l-2.6108,3.0864q1.3171,1.7788,2.634,3.5578Q205.8827,258.4518,207.2445,256.8615Z"/>
          </g>
          <circle class="cls-30" cx="256.0228" cy="180.3473" r="7.7695"/>
          <path class="cls-31" d="M228.1071,177.6865a6.6193,6.6193,0,0,1-7.7059,6.6186,8.9984,8.9984,0,0,1-7.8331-8.6047,6.6241,6.6241,0,0,1,7.8331-6.6024A9.0071,9.0071,0,0,1,228.1071,177.6865Z"/>
          <path class="cls-32" d="M286.481,177.6865a6.6192,6.6192,0,0,0,7.7058,6.6186A8.9983,8.9983,0,0,0,302.02,175.7a6.6241,6.6241,0,0,0-7.8331-6.6024A9.0071,9.0071,0,0,0,286.481,177.6865Z"/>
          <path class="cls-33" d="M195.7274,168.4372c0,4.2621-3.2408,6.4413-7.252,4.8622a12.3574,12.3574,0,0,1-7.3011-10.6437c0-4.291,3.2749-6.4567,7.3011-4.8427A12.37,12.37,0,0,1,195.7274,168.4372Z"/>
          <path class="cls-34" d="M318.2648,168.4372c0,4.2621,3.2372,6.4413,7.244,4.8622a12.3573,12.3573,0,0,0,7.2932-10.6437c0-4.291-3.2714-6.4566-7.2932-4.8427A12.37,12.37,0,0,0,318.2648,168.4372Z"/>
          <g id="Diamond">
            <path class="cls-35" d="M223.6437,382.727l4.17-.7439q1.249-2.4712,2.4979-4.9427l-2.0912-3.896-4.0508.8739q-1.17,2.5389-2.34,5.0778Z"/>
            <path class="cls-36" d="M221.8294,379.0961l1.5767-2.7457-1.5767,2.7457,1.8143,3.6309,4.17-.7439-1.957-1.9734,1.8-1.6677.1566,3.6411q1.249-2.4712,2.4979-4.9427l-2.6545,1.3016q.1147-1.3368.23-2.6738l.3337-2.5238-2.6353,1.6017-2.179,1.6043q.3816-1.1661.7635-2.3321Q222.9995,376.5572,221.8294,379.0961Z"/>
            <path class="cls-37" d="M221.8294,379.0961l1.4515-.1707q.1815,1.9008.3628,3.8016,1.1066-1.3585,2.213-2.7173l1.8-1.6677,2.6545-1.3016-2.4249-1.3722-2.3016-.9221-1.4155-.7278q-.3818,1.1661-.7635,2.3321Z"/>
            <path class="cls-38" d="M223.2809,378.9254l2.5758,1.0843,1.8-1.6677q.1147-1.3368.23-2.6738l-2.3016-.9221-2.179,1.6043Q223.3436,377.638,223.2809,378.9254Z"/>
          </g>
          <g id="Diamond-2" data-name="Diamond">
            <path class="cls-35" d="M288.0661,382.727l-4.17-.7439-2.4979-4.9427,2.0913-3.896,4.0508.8739q1.17,2.5389,2.34,5.0778Z"/>
            <path class="cls-36" d="M289.8805,379.0961l-1.5767-2.7457,1.5767,2.7457-1.8144,3.6309-4.17-.7439,1.957-1.9734-1.8-1.6677q-.0785,1.8206-.1567,3.6411l-2.4979-4.9427,2.6546,1.3016q-.1149-1.3368-.23-2.6738l-.3336-2.5238,2.6352,1.6017,2.1791,1.6043-.7635-2.3321Q288.71,376.5572,289.8805,379.0961Z"/>
            <path class="cls-37" d="M289.8805,379.0961l-1.4516-.1707q-.1814,1.9008-.3628,3.8016l-2.213-2.7173-1.8-1.6677-2.6546-1.3016,2.4249-1.3722,2.3016-.9221,1.4156-.7278.7635,2.3321Z"/>
            <path class="cls-39" d="M288.4289,378.9254l-2.5758,1.0843-1.8-1.6677q-.1149-1.3368-.23-2.6738l2.3016-.9221,2.1791,1.6043Z"/>
          </g>
          <g id="Diamond-3" data-name="Diamond">
            <polygon class="cls-35" points="255.853 391.475 251.696 388.847 251.833 383.886 256.129 381.46 260.481 384.032 260.34 389.116 255.853 391.475"/>
            <path class="cls-36" d="M260.3405,389.1159l-1.3019-2.5644-3.1852,4.9234-4.1571-2.6278,2.8209.0778-1.3281-2.5345-1.4928,2.4567.1367-4.9613,1.3561,2.5046,2.94-4.93,2.9093,5.0912,1.4419-2.5194Z"/>
            <path class="cls-37" d="M260.3405,389.1159l-2.9091-.08-1.578,2.4391-1.3362-2.55-2.6842-5.0391,8.6475.1463-1.4419,2.5194Z"/>
            <path class="cls-40" d="M257.4314,389.0358l-2.9142-.1109-1.34-2.5152,1.477-2.4762,2.8984.0179,1.4858,2.6Z"/>
          </g>
        </g>
      </g>
    </g>
  </g>
</svg>
