<svg id="Layer_1" data-name="Layer 1" xmlns="http://www.w3.org/2000/svg" width="512" height="512" viewBox="0 0 512 512"><defs><style>.cls-1,.cls-3,.cls-4{fill:#65bed4;}.cls-1,.cls-2{opacity:0.7;}.cls-2,.cls-5{fill:#a2e2ee;}.cls-3,.cls-5{opacity:0.5;}.cls-6{fill:#59b5d4;opacity:0.8;}</style></defs><g id="Dice"><g id="Ice_Cube" data-name="Ice Cube"><path class="cls-1" d="M111.8,333.8c-1.5538,4.26,1.596,9.1513,2.4,10.4,3.7108,5.7629,8.2033,4.9494,16,11.2,5.97,4.7859,4.28,6.02,9.4667,9.8667C148.4634,371.7913,152.15,367.3708,159,373c6.5394,5.3736,7.12,12.6392,15.3333,15.7333a25.092,25.092,0,0,0,2.86.86c7.1753,1.7642,11.0407-.13,14.7033.1083,6.105.3965,6.1689,6.36,18.7037,18.2321A111.1682,111.1682,0,0,0,226.2,420.2a83.6618,83.6618,0,0,0,13.2,7.4667c9.3739,4.1357,14.9712,6.8128,20.2667,4.8,7.8288-2.9758,5.5481-10.6977,14.4-16,7.8717-4.7153,12.4712-.2835,22.8918-5.8667,4.7631-2.552,3.6653-3.5631,10.7082-8.4771A93.4275,93.4275,0,0,1,326.6,392.2c14.767-6.1594,15.0736-3.3881,21.0667-7.7333,6.7778-4.9141,12.0652-12.6291,14.4542-16,4.8079-6.7842,5.0436-8.6859,6.4017-10.3664a13.85,13.85,0,0,1,1.4108-1.367c3.347-2.762,14.566-4.2194,18.6666-7.7333,4.9148-4.2116,5.2776-16.24,0-21.6-7.3687-7.4844-20.3165,3.5306-32.9333-4.2666-8.8034-5.44-6.0289-13.0965-15.8667-18.1334-8.4871-4.3453-12.2868.2557-22-4.2667-9.4706-4.4094-7.3909-9.497-16.9293-13.982-10.178-4.7858-16.49-.8476-22.0041-6.818-3.6481-3.95-1.7661-6.6272-5.8666-10.6666-5.5121-5.43-13.7508-5.3578-16.5333-5.3334-6.7484.0592-7.5889,2.2887-17.6612,4.8653C224.69,272.41,222.1176,269.111,217,273c-7.692,5.8453-3.8322,14.78-10.6667,18.6667-6.7474,3.8375-12.0948-2.447-22.9333,0-6.4961,1.4666-6.9118,4.3475-19.6,14.1333-12.6964,9.792-19.6808,15.1787-30,18.9333C121.9377,329.0494,113.8279,328.24,111.8,333.8Z"/><path class="cls-2" d="M134.5313,350.19a2.0468,2.0468,0,0,0,.8687-1.7237c-.214-1.3729-2.8235-1.4978-5.3333-2.8-2.8631-1.4855-5.95-4.6862-5.8667-7.4667.13-4.363,8.0363-6.7688,7.7333-7.4667-.3826-.8813-13.8258,1.0428-14.9333,6.8C115.735,344.1093,131.1344,352.717,134.5313,350.19Z"/><path class="cls-2" d="M212.4,398.65c-.6015.1087-1.2344-.3942-2.5-1.4-1.1937-.9485-1.3428-1.36-1.4-1.6a1.717,1.717,0,0,1,1.95-2.2c.8517.06,1.4028.5893,2.35,1.5.75.7214,1.1255,1.0821,1.18,1.58A2.1038,2.1038,0,0,1,212.4,398.65Z"/><path class="cls-2" d="M215.1146,402c-.5183,3.5849,4.4341,6.2961,15.6,13.8,12.8,8.602,17.1367,12.3273,22.6,10.8.8759-.2449,2.966-.7146,3.2-1.9.54-2.7373-9.6711-4.5621-20.5-12.3-10.3641-7.4058-14.5557-15.4132-18.5-13.8A4.4018,4.4018,0,0,0,215.1146,402Z"/><path class="cls-2" d="M344.2,374.4667c-2.6184,1.1019-6.1985,2.2975-7.6,5.6-.48,1.1309-.9832,3.1659-.1333,3.8666,2.1977,1.8121,12.3888-6.1665,12.3987-6.1506l.0012.0173c0,.0088,0,.0123,0,.0124.0094.009,11.2278-11.8815,10.2664-12.9458C358.48,364.1431,353.9506,370.3632,344.2,374.4667Z"/><path class="cls-3" d="M261.4157,406.9161l95.3161-55.211a10.8047,10.8047,0,0,0,0-18.6989l-95.3162-55.2111a10.8047,10.8047,0,0,0-10.8312,0l-95.3163,55.2111a10.8047,10.8047,0,0,0,0,18.6989q47.6582,27.6055,95.3163,55.211A10.8047,10.8047,0,0,0,261.4157,406.9161Z"/><path class="cls-4" d="M251.6667,169.8c-.4171,5.3353.2222,7.6717.5333,15.2.2555,6.183.047,9.997,0,13.0667-.1128,7.368.4643,26.1341,3.2,73.8666h3.2c.1329-13.2237-.0649-23.9292-.2667-31.2-.3931-14.1711-.8234-16.101-.9333-28.5333-.092-10.405.17-13.4758-.2-23.4-.0267-.7165-.0134-.3081-1.2-18.8-.6149-9.5825-.7935-12.42-1.4-12.4667C253.6863,157.4633,252.1392,163.7544,251.6667,169.8Z"/><path class="cls-1" d="M250.6343,406.945,144.4668,345.4485a10.7054,10.7054,0,0,1-5.34-9.2635V213.1313a10.7054,10.7054,0,0,1,5.34-9.2635l106.1675-61.4964a10.7051,10.7051,0,0,1,10.7316,0l106.1673,61.4964a10.7054,10.7054,0,0,1,5.3395,9.2635V336.185a10.7054,10.7054,0,0,1-5.3395,9.2635L261.3659,406.945A10.7056,10.7056,0,0,1,250.6343,406.945Z"/><path class="cls-5" d="M278.6,180.6c-8.3206,1.52-13.2442,8.022-20.8,18-6.1534,8.126-11.4223,15.084-12.8,25.6-1.1554,8.819-.2367,25.1983,8.8,29.6,6.3172,3.077,15.8115-2.482,34.8-13.6a129.6942,129.6942,0,0,0,21.02-14.9506c10.1449-8.9344,15.5566-13.7,14.98-19.4494-.5976-5.9562-7.4651-9.5708-21.2-16.8C291.2419,182.6007,285.1629,179.4011,278.6,180.6Z"/><path class="cls-5" d="M146.2,215.8c5.1663,6.97,27.6426,14.4083,31.4806,15.74,13.8266,4.7963,7.6109,7.2935,31.1194,19.86,13.9227,7.4427,26.8046,17.1337,41.6017,22.6366A10.156,10.156,0,0,1,255.2,277.4c2.994,4.0353,1.5808,9.7482,1.2,11.4-3.5858,15.5523-1.8311,31.8712-3.1289,47.7787-2.6234,32.154,2.2106,29.3673.9289,52.8213-.1564,2.8624-.6969,11.4765,2.4,12.6,1.4423.5233,3.1174-.78,3.4-1,4.94-3.8442,2.1479-14.415.8-25.4-1.3054-10.6381.6279-6.3122-.1579-29.87-.6415-19.2327.6115-38.498-.0421-57.73-.0644-1.8959-.26-6.9342,3-10.6A13.29,13.29,0,0,1,269,274c7.2789-2.9893,10.9183-4.4838,15.4847-6.0667,7.0776-2.4534,8.99-6.4726,16.9078-13.7859C318.4341,238.408,340.0294,228.9,344.8,226.8a91.9841,91.9841,0,0,0,14.6-8.4c3.945-2.7577,9.6682-6.7586,9-8.2-.7348-1.5851-9.2265-.135-16.4,4-3.7564,2.1653-5.147,3.9115-8.6,6.8-6.0932,5.0972-10.7538,7.1809-17.8645,10.94a317.6453,317.6453,0,0,0-34.9,21.0344C283.1725,258.2485,274.769,262.08,267.2,267.2a16.9587,16.9587,0,0,1-7.4,3A18.6422,18.6422,0,0,1,249,268c-14.02-6.859-21.6-12.6-21.6-12.6-11.418-8.6478-20.8214-14.271-30.6544-20.1512-17.1681-10.2665-14.9926-6.6514-23.4411-12.8C170.6534,220.52,157.4609,210.7194,149,210.4c-.9152-.0346-3.4936-.1319-4.2,1.2C144.0855,212.9472,145.6539,215.0633,146.2,215.8Z"/><path class="cls-5" d="M348.2,244.2c-2.5329-.9217-3.1525.4031-21.2,8.8-10.9109,5.0765-16.1424,7.1317-22.4,12.8-4.2885,3.8846-7.2174,6.6161-7.6,10.8-.6239,6.823,5.9016,13.3791,11.6,16.4,7.8341,4.1531,11.1726.07,19.6,4.6582,6.2177,3.3852,6.7528,6.8886,11.6,7.3418,6.7046.6269,11.9712-5.4877,12.4-6,3.7565-4.4871,4.1571-9.8052,4.2667-14.4084C356.8715,267.5807,357.3488,247.5292,348.2,244.2Z"/><path class="cls-5" d="M211,221c2.8709-1.8355,3.553-5.6487,4.8-13.2,1.88-11.3859,2.82-17.0789,0-20-7.59-7.8614-40.127,6.2762-39.6,16.6.2249,4.4051,6.441,7.5565,15.6,12.2C199.3573,220.4315,206.3468,223.975,211,221Z"/><path class="cls-6" d="M146.9618,274.03c-.9316.0529-1.1668,8.2455-1.297,12.78-.691,24.0714,3.2279,23.3413,1.2019,34.99-.7692,4.4227-2.2646,9.8778.8,13.8667a9.6246,9.6246,0,0,0,4.4765,3.16c9.5037,3.1869,16.9559,10.7517,25.89,15.2976C204.86,367.7755,239.79,401.1178,246.6,395.4c.1329-.1115,1.8031-1.551,1.6-3.2-.35-2.8431-6.0178-4.2638-7.4667-4.6667-15.9241-4.428-39.4177-29.7183-64.4-42.1333-6.4069-3.1839-11.8877-8.2655-18.63-10.6577A9.2842,9.2842,0,0,1,153,331.5333c-2.2961-3.2066-1.3984-7.4189-1.0667-9.2,1.3672-7.3417.2-16.5389-2.1333-34.9333C149.6216,285.9935,148.0956,273.9657,146.9618,274.03Z"/><path class="cls-5" d="M209.8,172.6c-.6745-2.4637,7.5445-6.1161,19.2-12.6667,19.3161-10.8559,20.0313-13.9129,26.1892-13.7333,6.2871.1835,5.9237,3.3811,21.4108,11.3333,14.053,7.2159,25.6047,10.3608,25.0667,12.9334-.0927.443-.5328.8165-1.6,1.2-6.62,2.3784-15.2345-2.8178-30.2667-11.6-8.8732-5.1839-13.3357-7.7777-14.6108-7.8667-12.6366-.8815-27.628,13.29-29.7892,15.3333-2.7856,2.6333-7.3721,7.44-12.5333,6.6667C212.3652,174.1248,210.1255,173.7892,209.8,172.6Z"/><path class="cls-5" d="M307.9333,372.2c-21.7032,10.1353-32.3565,16.7394-32.8,16-.5693-.9493,16.5233-12.6146,32.8-22.4,5.4415-3.2714,12.4253-7.47,22.2428-12.63C356.42,339.3761,360.7183,340.9749,365,334.2c3.2607-5.1594,2.3072-16.7729.4-40,0,0-1.8546-22.5873-2-36-.0828-7.6425.4824-4.6269.4-10.5333-.0783-5.6053-.5979-9.0748,1.4667-10.5334a3.048,3.048,0,0,1,2.9333-.4c1.9073.9524,1.7108,4.843,1.6,7.3334-.2554,5.74.1425,11.513-.4,17.2333-.034.3582-.0312.3474-.2317,19.2965-.2312,21.8582-.2373,22.0981-.1683,23.6035.3445,7.5189.9386,11.225.9333,20.2667-.0032,5.68-.0049,8.5194-.2666,9.7333-1.8227,8.4542-18.1323,17.6148-30.4,23.6C325.1462,364.6891,320.2809,366.4338,307.9333,372.2Z"/><path class="cls-6" d="M147.4,257.5333c-2.0048-.2057-1.6206-30.6474.4-30.8,1.0739-.081,3.0322,8.3618,2.8,16.1334C150.3949,249.731,148.4341,257.6394,147.4,257.5333Z"/><path class="cls-5" d="M222.6,291.1334c-2.9971-5.7286-10.4714-9.9195-16.2-8.7334-4.5437.9408-4.9983,4.645-9.4,4.9193-5.8751.3661-8.2022-6.036-12.8-4.9193-3.6255.8807-3.7863,5.2509-8.3811,6.3641A9.79,9.79,0,0,1,170,288.2c-7.9055-3-10.6-15.74-10.8667-23.4667-.1173-3.3952-.5457-17.8024,6.4-21.0666,4.591-2.1577,8.6768,2.8907,22.4,10.6666,9.7331,5.5151,24.0021,13.6,41.5283,19.1014,5.22,1.6385,10.4886,2.9723,13.6717,7.832,3.7235,5.6847,2.2153,12.5631,1.4547,16.7311-5.5176,30.2357,4.0455,50.8125-3.3652,53.6578-2.7693,1.0633-6.6316-1.3319-14.3561-6.1223-5.7273-3.5518-8.5909-5.3277-10.1334-8.5333-2.06-4.28-.3223-7.6158,3.2-20.5333C223.6041,303.0049,225.2118,296.1254,222.6,291.1334Z"/><path class="cls-5" d="M277.4,365.8c-13.8227-4.8513-7.5479-57.0612-3.4-57.2,3.439-.1151,4.2218,35.6035,18.6,38.8,4.1908.9317,9.5432-.8981,12,2.4,1.64,2.202,1.2459,5.6912,0,8-2,3.7062-6.3809,4.7164-14.2,6.4C283.1451,365.7621,279.5177,366.5432,277.4,365.8Z"/></g></g></svg>