<svg id="Layer_1" data-name="Layer 1" xmlns="http://www.w3.org/2000/svg" xmlns:xlink="http://www.w3.org/1999/xlink" width="512" height="512" viewBox="0 0 512 512">
  <defs>
    <style>
      .cls-1 {
        fill: none;
      }

      .cls-2 {
        fill: #d74446;
      }

      .cls-3 {
        fill: #751212;
      }

      .cls-4 {
        fill: #ae1f20;
      }

      .cls-5 {
        fill: #f3941f;
      }

      .cls-6 {
        fill: #c83537;
      }

      .cls-7 {
        fill: #e5e5e5;
      }

      .cls-8 {
        fill: #adadad;
      }

      .cls-9 {
        fill: #364c95;
      }

      .cls-10 {
        fill: #4f5d9e;
      }

      .cls-11 {
        clip-path: url(#clip-path);
      }

      .cls-12 {
        fill: #c1c1c3;
      }

      .cls-13 {
        fill: #ca1f4f;
      }

      .cls-14 {
        fill: #ca1d52;
      }

      .cls-15 {
        fill: #681030;
      }

      .cls-16 {
        fill: #e83b56;
      }

      .cls-17 {
        fill: #ea3b54;
      }

      .cls-18 {
        fill: #d2ecfb;
      }

      .cls-19 {
        fill: #e9f6ff;
      }

      .cls-20 {
        fill: #d4ebfb;
      }

      .cls-21 {
        fill: #f8fcff;
      }
    </style>
    <clipPath id="clip-path">
      <path class="cls-1" d="M237.1688,293.7568l81.5239-47.222-83.3893-118.847q-39.8294,59.4234-79.6587,118.847Z"/>
    </clipPath>
  </defs>
  <g id="Companion">
    <g id="Jack_In_The_Box" data-name="Jack In The Box">
      <g id="White">
        <path class="cls-2" d="M237.1688,300.9249l93.8988-54.39-93.8988-54.39-93.899,54.39Z"/>
        <path class="cls-3" d="M237.1688,293.7568l81.5239-47.222-81.5239-47.2221-81.5241,47.2221Q196.4067,270.1459,237.1688,293.7568Z"/>
        <path class="cls-4" d="M331.0677,246.5348l65.6625-20.27q-47.1662-25.6617-94.332-51.3234l-65.2294,17.2034Q284.1182,219.34,331.0677,246.5348Z"/>
        <polygon class="cls-5" points="143.27 246.535 143.27 355.315 237.169 409.705 237.169 300.925 143.27 246.535"/>
        <path class="cls-6" d="M203.0862,362.48,191.2581,348.076a1.59,1.59,0,0,0-1.1935-.6913l-11.8281.701c-.9408.0558-2.04-1.5514-1.8607-2.72l2.2589-14.6876a2.6085,2.6085,0,0,0-.3688-1.5922l-9.5691-16.8712c-.7611-1.342-.3411-2.6686.7107-2.2449l13.2243,5.3262a.7059.7059,0,0,0,.9655-.2927l5.9141-11.128c.47-.8851,1.8295-.0979,2.3,1.3322l5.914,17.9793a2.986,2.986,0,0,0,.9656,1.4113l13.2242,9.9937c1.0518.7949,1.4718,2.6081.7107,3.0683l-9.5691,5.7856a1.1367,1.1367,0,0,0-.3688,1.165l2.2589,17.3044C205.1265,363.2919,204.027,363.6253,203.0862,362.48Z"/>
        <polygon class="cls-6" points="331.068 246.535 237.169 300.925 237.169 409.705 331.068 355.315 331.068 246.535"/>
        <path class="cls-5" d="M320.6224,349.2646l-73.0084,42.29v-84.579l73.0084-42.2894Zm-5.3217-75.3314-62.3651,36.1244v72.2489l62.3651-36.1244Z"/>
        <path class="cls-6" d="M154.2124,349.2646l73.0084,42.29v-84.579l-73.0084-42.2894Zm5.3216-75.3314,62.3652,36.1244v72.2489L159.534,346.1821Z"/>
      </g>
      <g>
        <ellipse class="cls-7" cx="284.1182" cy="328.1199" rx="11.3328" ry="6.5323" transform="translate(-141.8679 411.3166) rotate(-60.1618)"/>
        <path class="cls-8" d="M282.0647,333.253a2.7749,2.7749,0,0,1-1.3932-2.76,9.0932,9.0932,0,0,1,4.0978-7.1209,2.8719,2.8719,0,0,1,2.8977-.2879q6.195,1.8867,12.39,3.7734l.4048.1766a4.3517,4.3517,0,0,1,1.2,2.6616,9.0932,9.0932,0,0,1-4.0978,7.1209,3.0047,3.0047,0,0,1-2.7046.3859Z"/>
        <path class="cls-8" d="M294.4434,317.0228a2.7748,2.7748,0,0,1-1.3933-2.76,9.0933,9.0933,0,0,1,4.0978-7.1209,2.872,2.872,0,0,1,2.8977-.288l12.39,3.7735.4047.1766a4.3517,4.3517,0,0,1,1.2,2.6616,9.0929,9.0929,0,0,1-4.0978,7.1209,3.0047,3.0047,0,0,1-2.7046.3859Z"/>
        <path class="cls-8" d="M301.5194,330.7135a2.7746,2.7746,0,0,1-2.58,1.7026,9.0928,9.0928,0,0,1-7.5465-3.2481,2.8718,2.8718,0,0,1-.6206-2.845q1.1586-6.3715,2.3174-12.7431l.1286-.4225a4.3521,4.3521,0,0,1,2.5053-1.5,9.0935,9.0935,0,0,1,7.5465,3.2481,3.0052,3.0052,0,0,1,.6956,2.642Z"/>
        <path class="cls-9" d="M318.6465,312.9137a13.6974,13.6974,0,0,1-6.1728,10.7268c-3.4093,1.9748-6.1729.3739-6.1729-3.5756a13.6979,13.6979,0,0,1,6.1729-10.7269C315.8829,307.3634,318.6465,308.9641,318.6465,312.9137Z"/>
        <path class="cls-10" d="M309.6674,322.8256c-1.0159-.4463-1.657-1.5916-1.657-3.2819a10.8151,10.8151,0,0,1,4.8737-8.4693,3.4155,3.4155,0,0,1,3.4463-.3425l24.8728,7.5506-5.8763,12.4119Z"/>
        <path class="cls-9" d="M343.1308,321.6637a10.8132,10.8132,0,0,1-4.873,8.468c-2.6913,1.559-4.873.2952-4.873-2.8227a10.8135,10.8135,0,0,1,4.873-8.468C340.9491,317.2822,343.1308,318.5459,343.1308,321.6637Z"/>
      </g>
      <g class="cls-11">
        <path class="cls-12" d="M270.6432,290.7321l-4.8738-4.04q-2.3923-2.4642-4.7847-4.9281c-2.7406-1.1578-5.1171-1.9935-6.9352-2.5806,0,0-7.8791-2.5443-12.5441-1.2363-.3957.1109-1.2881.3719-1.3978.9317-.0906.4623.3879.9484.8762,1.3394,2.6041,2.0848,7.5018,3.0749,8.3171,3.2343,2.5328.4954,4.6565.8848,6.2,1.1608l-1.1757,2.2982a50.9078,50.9078,0,0,1-6.5069-1.13,42.952,42.952,0,0,1-5.2454-1.6736,15.5446,15.5446,0,0,1-3.6927-2.0785,7.8742,7.8742,0,0,1-1.1377-1.1267,2.948,2.948,0,0,1-.9681-1.88,2.3211,2.3211,0,0,1,.3933-1.1348,3.5463,3.5463,0,0,1,.9066-1.0107,6.3963,6.3963,0,0,1,2.745-1.0288,15.4351,15.4351,0,0,1,1.89-.2875,35.0435,35.0435,0,0,1,9.3541,1.061c4.5039,1.1654,7.9761,2.0638,12.1,4.5865a33.7514,33.7514,0,0,1,4.77,3.53q1.4667-5.154,2.9336-10.308c-.5321-.453-1.0978-.9073-1.6987-1.3578a42.6211,42.6211,0,0,0-5.93-3.5928,40.2159,40.2159,0,0,0-7.9156-2.8765,29.5346,29.5346,0,0,0-9.4758-.9137c-1.3252.1108-4.6374.3879-4.8027,1.4335-.1342.8494,1.8693,1.8184,2.76,2.249,1.7247.8341,5.383,2.261,12.9742,1.8369a49.247,49.247,0,0,0,6.5588-.7884c.65-.1267,7.2434-1.4681,10.565-4.8908a2.7107,2.7107,0,0,0,.7875-1.3455c.4272-2.0725-2.2637-4.2208-2.7857-4.6375a12.4349,12.4349,0,0,0-2.0159-1.2612c-5.735-3.15-5.286-3-5.9775-3.2944a27.6753,27.6753,0,0,0-6.5049-1.72,41.1,41.1,0,0,0-6.5588-.6989c-4.5163-.0772-6.5628.7234-7.9566,1.6666-1.2526.8477-1.2627,1.3264-1.2571,1.4506.0759,1.6725,5.8925,2.6377,6.5257,2.7427,5.67.941,10.1666-.192,15.1605-1.5053,0,0,5.836-1.5348,9.0854-4.4621a6.1733,6.1733,0,0,0,2.0693-3.3252,3.4709,3.4709,0,0,0,.004-1.65c-.1705-.608-.5614-1.2205-1.8949-2.1943a15.4075,15.4075,0,0,0-3.0637-1.7523,50.1329,50.1329,0,0,0-7.0713-2.5281c-3.6881-.8187-6.3678-.659-10.9416-.3864a22.9438,22.9438,0,0,0-6.7346,1.3529c-1.272.4677-3.3978,1.25-3.3334,2.0427.0917,1.1306,4.5753,1.5778,4.9462,1.613.7322.0693,2.6822.2121,7.6339-.6989a40.77,40.77,0,0,0,8.5385-2.2453,28.6336,28.6336,0,0,0,4.0276-1.9632,16.9252,16.9252,0,0,0,4.2222-3.2339c1.3214-1.4458,2.2731-2.487,2.1893-3.7935-.1149-1.7887-2.0991-2.9554-3.7343-3.9168a20.1086,20.1086,0,0,0-8.0406-2.4137,31.0842,31.0842,0,0,0-7.5493-.1214c-.68.0715-1.1421.1428-1.9227.2631-6.8041,1.0492-9.2263,2.4933-10.0418,3.0168-1.0384.6666-2.179,1.3988-2.0429,2.043.2389,1.1308,4.252,1.23,6.3438,1.129a27.3785,27.3785,0,0,0,8.3865-1.9355,36.29,36.29,0,0,0,6.8466-3.14,24.64,24.64,0,0,0,6.6964-5.6685c.1454-.1548,2.8-3.0405,1.8446-5.0787-.3279-.6994-.9964-1.1186-2.0846-1.8013a13.4847,13.4847,0,0,0-3.1776-1.4571,29.1221,29.1221,0,0,0-8.0147-1.093c-3.1473.04-5.5435.6045-10.3361,1.7343-2.699.6363-5.67,1.46-8.194,3.7216-.8871.795-1.3777,1.462-1.2141,1.977.3162.9949,2.9246.975,3.8709.9676,2.1936-.0169,4.7391-.4422,9.0855-2.3116a36.8894,36.8894,0,0,0,7.6985-4.1054,33.4889,33.4889,0,0,0,6.4406-6.4317c.3034-.4039,2.0434-2.77,1.9013-5.039l-.0033-.0455c-.1773-1.9813-4.7314-3.0354-6.1325-3.36a24.8865,24.8865,0,0,0-9.472-.2631,66.5172,66.5172,0,0,0-8.3354,2.5787c-3.3712,1.1495-5.6052,2.0164-7.7416,4.032-.6486.612-2.1767,2.0537-1.8,2.8933.4467.9955,3.3216.5895,4.3806.44,1.1162-.1576,4.4314-.7257,9.8382-4.032a45.8657,45.8657,0,0,0,6.2691-4.5963c4.01-3.5019,5.1593-5.747,5.612-6.7473.7094-1.5675,1.33-2.938.8064-4.3008-.8483-2.2094-4.084-2.79-6.0541-3.1429a22.4028,22.4028,0,0,0-8.8377.4549,31.8881,31.8881,0,0,0-12.23,5.4568c-.5562.4126-5.2812,3.9177-4.65,5.1878.4352.8764,3.2326.3117,3.9782.1613a16.9129,16.9129,0,0,0,6.4513-3.0643,45.2074,45.2074,0,0,0,7.4728-6.0481,24.8817,24.8817,0,0,0,5.43-7.1233c1.09-2.2889,2.0983-4.4052,1.1828-6.1287-1.056-1.9881-4.064-2.3106-6.099-2.5287a15.0164,15.0164,0,0,0-5.4595.432l1.6128-6.9352,4.0321-.5643a21.4,21.4,0,0,1-1.3709,4.462,11.4863,11.4863,0,0,1,1.8547-.0824c.8221.03,5.2473.1928,7.3125,3.0172,1.7063,2.3334.99,5.3733.56,7.1946-.8869,3.7632-3.0732,6.0993-6.0191,9.2471a43.8378,43.8378,0,0,1-7.82,6.5387,42.6321,42.6321,0,0,1-8.0432,4.2852c-4.1479,1.6737-5.7659,1.5622-6.96.9652a4.1191,4.1191,0,0,1-2.1381-2.458c-.3522-1.4743.5086-3.0148,1.98-4.6765,6.4619-7.2968,18.5207-9.9544,19.2911-10.1165,5.086-1.07,7.7076-.8076,9.3406-.507,1.8011.3315,7.3433,1.3217,8.4812,4.9829a6.7,6.7,0,0,1-.2743,3.9516c-1.1119,4.1121-3.9333,6.7251-6.8634,9.3727a44.0432,44.0432,0,0,1-6.0478,4.5135,47.0131,47.0131,0,0,1-7.7729,3.8807c-5.4668,2.2221-7.6613,2.1643-8.96,1.9937-1.0171-.1336-2.9856-.4181-3.6053-1.7735a3.1543,3.1543,0,0,1,.2151-2.5427c1.2146-2.9775,3.832-4.86,5.6578-5.9871a34.4251,34.4251,0,0,1,10.2682-4.0858,47.6286,47.6286,0,0,1,8.2554-1.3175c3.4473-.2479,5.3229-.3827,7.7653.2423,2,.5117,6.0074,1.5372,7.2489,4.7254.8564,2.2-.0087,4.3849-.5683,5.7918-1.4434,3.6284-4.12,5.6064-7.5047,8.0408a47.7149,47.7149,0,0,1-10.54,5.5664c-6.3044,2.6228-8.8369,2.6135-10.1641,2.5153-.8225-.0608-5.57-.412-6.2658-2.77a3.1317,3.1317,0,0,1,.3354-2.1341c.9565-2.2928,3.1742-3.3844,5.3633-4.4248a33.8475,33.8475,0,0,1,5.62-1.93c.8988-.2593,2.3856-.6954,4.3144-1.0974a45.0442,45.0442,0,0,1,7.8539-1.1016,31.8424,31.8424,0,0,1,9.5954.98,10.0772,10.0772,0,0,1,4.1889,1.8935,7.08,7.08,0,0,1,2.7129,4.1627,7.182,7.182,0,0,1-1.9972,5.8812,26.2368,26.2368,0,0,1-6.6392,5.7664,44.5676,44.5676,0,0,1-5.1948,2.6787l-.178.0771a59.1494,59.1494,0,0,1-8.664,3.1722,19.4366,19.4366,0,0,1-7.545.51c-.5839-.0828-6.9448-.9468-7.1141-3.4456-.1123-1.6583,1.9464-3.0283,3.4711-4.043,2.4305-1.6176,4.8392-2.3035,8.3182-2.9209a49.6292,49.6292,0,0,1,13.5623-1.0571c4.3321.3191,7.1112.5578,10.1231,2.4443,1.3583.8509,4.8238,3.0215,4.96,6.3464a7.01,7.01,0,0,1-1.848,4.7552,25.2126,25.2126,0,0,1-8.3958,5.9376,47.46,47.46,0,0,1-6.189,2.2545c-.3159.0908-1.7546.4974-3.9124.9405-6.7249,1.3811-10.359,1.0419-11.3986.9261a9.9343,9.9343,0,0,1-2.4762-.5309c-1.5181-.5558-4.4187-2.0706-4.4135-3.8115.0071-2.3513,4.9343-4.0121,6.7923-4.6384a28.845,28.845,0,0,1,8.1516-1.2532,46.383,46.383,0,0,1,10.4757.4265c1.4594.2376,2.6249.511,3.4321.72a28.982,28.982,0,0,1,5.1426,1.7883,14.0035,14.0035,0,0,1,3.7766,2.5278,6.9339,6.9339,0,0,1,2.03,2.626,6.1764,6.1764,0,0,1,.1335,3.8706,7.0929,7.0929,0,0,1-1.28,2.4571,12.545,12.545,0,0,1-4.09,3.39,27.644,27.644,0,0,1-5.0276,2.31c-5.8874,1.98-8.8311,2.97-12.0017,3.2744-1.3406.1286-7.73.6583-13.1762-2.014-1.2046-.5911-3.66-1.8338-3.8066-3.7484a2.7011,2.7011,0,0,1,.2634-1.334c1.4144-3.1135,8.8894-4.331,14.8916-4.1395a38.2011,38.2011,0,0,1,8.978,1.3977,51.6245,51.6245,0,0,1,8.44,3.4407c.73.37,1.2846.7373,1.8348,1.04a10.672,10.672,0,0,1,2.4266,1.8232c.82.8252,2.79,2.806,2.82,5.4166.0289,2.4832-1.7048,4.8706-4.2849,6.2352a29.3245,29.3245,0,0,1-11.4489,3.7507,53.3541,53.3541,0,0,1-5.8995.3971c-2.046.0245-3.586-.074-4.086-.1086a47.9481,47.9481,0,0,1-6.3925-.88,18.4021,18.4021,0,0,1-5.8092-2.1837,4.502,4.502,0,0,1-1.9873-1.9786,3.136,3.136,0,0,1-.2542-2.1324c.1149-.37.5732-1.4862,3.9066-2.4012a21.68,21.68,0,0,1,6.5946-.6451,43.2118,43.2118,0,0,1,7.8029.9979c.7635.1548,1.9866.3994,3.5827.8488a48.6275,48.6275,0,0,1,7.4234,2.764,21.6,21.6,0,0,1,6.9886,4.9682q-.78,8.3548-1.56,16.71a6.5148,6.5148,0,0,1,.56,4.7431,6.6955,6.6955,0,0,1-3.0456,3.705,13.6664,13.6664,0,0,1-4.0464,1.6637c-.5449.1371-.4278.2867-.1708.602a13.4757,13.4757,0,0,1,1.8457,2.8082,3.5122,3.5122,0,0,1-2.6428,1.0328.7786.7786,0,0,1-.4545-.3411,1.4032,1.4032,0,0,0-.5749-.5449c-.7737-.8134-1.55-1.624-2.3191-2.4418a.8559.8559,0,0,0-.7641-.3387c-.5107.0583-7.3317.1415-9.4744-.4932-1.7161-.5084-3.8433-2.488-5.1932-9.4092-.53-.1723-1.3207-.4131-2.2939-.6451-1.3449-.3206-7.1914-1.7142-8.0283-.0716a1.6115,1.6115,0,0,0,.0359,1.1827,3.6816,3.6816,0,0,0,1.9712,1.9712,41.1561,41.1561,0,0,0,4.4442,2.1863l-1.6024,1.745-.0733-.0316a18.1584,18.1584,0,0,1-6.2407-3.8956,4.25,4.25,0,0,1-1.48-3.0764,2.3128,2.3128,0,0,1,1.5485-2.1037,8.8851,8.8851,0,0,1,4.6522-.7267,35.3328,35.3328,0,0,1,8.6277,1.8563,43.6947,43.6947,0,0,1,13.4832,7.0776,3.19,3.19,0,0,0,3.14.621,14.4487,14.4487,0,0,0,5.2766-2.0622,1.7,1.7,0,0,0,.6956-2.52A6.302,6.302,0,0,0,270.6432,290.7321Z"/>
      </g>
      <g>
        <ellipse class="cls-13" cx="221.6057" cy="158.2397" rx="9.3185" ry="13.2609"/>
        <path class="cls-14" d="M173.3953,126.3418l13.8289,14.5126,29.7842,16.7692-41.6538,26.3506q.9759,7.438,1.9517,14.8762l65.2611-30.837q.0477-11.1108.0952-22.2217L177.8019,119.01Z"/>
        <path class="cls-15" d="M213.2453,180.9087a30.0289,30.0289,0,0,1,1.559-10.4115,31.1808,31.1808,0,0,1,7.1439-11.5383,32.7765,32.7765,0,0,1,18.8045-9.2492q.0717,10.1071.1435,20.214Z"/>
        <path class="cls-16" d="M243.7634,163.3875l3.8707,13.26a72.165,72.165,0,0,1-10.6087,12.6876c-8.397,7.969-16.4754,11.7643-23.01,14.7662-8.95,4.1117-16.599,7.5162-26.7932,6.8255a40.53,40.53,0,0,1-6.6818-1.0194,3.0817,3.0817,0,0,1-2.007-1.29l-7.3832-14.2644a389.23,389.23,0,0,0,42.65-16.0565C224.68,173.455,234.67,168.4112,243.7634,163.3875Z"/>
        <path class="cls-16" d="M243.7634,149.9235l3.8707-13.26a72.165,72.165,0,0,0-10.6087-12.6875c-8.397-7.9691-16.4754-11.7643-23.01-14.7663-8.95-4.1117-16.599-7.5162-26.7932-6.8255a40.541,40.541,0,0,0-6.6818,1.0194,3.0817,3.0817,0,0,0-2.007,1.29l-7.3832,14.2645a389.21,389.21,0,0,1,42.65,16.0565C224.68,139.856,234.67,144.9,243.7634,149.9235Z"/>
        <g>
          <ellipse class="cls-13" cx="243.7634" cy="154.8707" rx="9.3185" ry="13.2609"/>
          <ellipse class="cls-17" cx="243.6917" cy="154.8707" rx="5.5194" ry="10.1302"/>
          <path class="cls-18" d="M255.7146,150.3442a9.9909,9.9909,0,0,1-.7588-1.4465,10.1678,10.1678,0,0,1-.745-5.0837,6.6657,6.6657,0,0,1,1.8278-4.4352c1.53-1.3835,3.5084-1.3767,5.1611-1.3709,1.7113.0059,3.0212.0105,3.8707.9139,1.1938,1.2693.6833,3.4674.2152,5.4835a16.2072,16.2072,0,0,1-2.4756,5.5463l1.454,2.76a15.152,15.152,0,0,1,1.6667,1.5322,13.392,13.392,0,0,1,1.9085,2.5267c.9083,1.5915,1.5814,2.771,1.3171,4.0321-.49,2.3356-3.8417,3.2633-4.6771,3.4944a6.6642,6.6642,0,0,1-4.8117-.1613,4.7216,4.7216,0,0,1-2.1981-1.987c-.2538-.4813-.4626-1.1206-.3555-3.55a38.1241,38.1241,0,0,1,.4032-4.0859Q256.6158,152.4282,255.7146,150.3442Zm4.6279-7.9614c-.8955-.2524-1.9195.601-2.2873,1.9061s.06,2.5676.9553,2.82,1.92-.601,2.2873-1.906S261.2379,142.6352,260.3425,142.3828Zm2.1268,14.2446a2.1752,2.1752,0,1,0,2.3928,1.4384A1.99,1.99,0,0,0,262.4693,156.6274Z"/>
          <path class="cls-19" d="M245.8063,150.8924a3.7235,3.7235,0,0,0-2.15,1.0752,3.8781,3.8781,0,0,0-.9678,3.0823,3.5646,3.5646,0,0,0,1.3262,2.5806,3.2744,3.2744,0,0,0,1.792.6092l17.741-5.0176a1.6543,1.6543,0,0,0-.251-3.2974Z"/>
        </g>
        <g>
          <path class="cls-20" d="M178.0052,181.3782a14.9556,14.9556,0,0,0,1.9622,3.1181,5.1111,5.1111,0,0,0,2.085,1.4988,3.5982,3.5982,0,0,0,4.9382-2.4817c.3637-1.06.2489-1.9739.0195-3.8018a13.7468,13.7468,0,0,0-.4649-2.3509,13.6034,13.6034,0,0,0-1.0523-2.53,5.6744,5.6744,0,0,0-1.0526-1.5585,2.7038,2.7038,0,0,0-1.0321-.7083,2.5246,2.5246,0,0,0-1.2549-.0608,5.6343,5.6343,0,0,0-2.1859.8905,17.7224,17.7224,0,0,0-2.7289,2.114,2.633,2.633,0,0,0-.57.922,2.992,2.992,0,0,0-.0072,1.7766A12.4976,12.4976,0,0,0,178.0052,181.3782Z"/>
          <path class="cls-20" d="M171.9841,187.05a9.6808,9.6808,0,0,0,2.1773,3.3063,4.4035,4.4035,0,0,0,2.1235,1.21,2.959,2.959,0,0,0,1.8358-.1056,3.3846,3.3846,0,0,0,1.666-2.275c.3571-1.26.0675-2.3513-.4106-4.1513-.2758-1.0388-.303-.765-.7258-2.2311A16.2955,16.2955,0,0,0,177.602,179.9a3.47,3.47,0,0,0-.6451-.9139,2.3929,2.3929,0,0,0-.9408-.6451,2.5524,2.5524,0,0,0-1.29,0,4.5109,4.5109,0,0,0-1.9622.7248,4.395,4.395,0,0,0-1.4246,1.7751,5.0847,5.0847,0,0,0-.484,1.5321,5.146,5.146,0,0,0,.0808,1.72A11.1546,11.1546,0,0,0,171.9841,187.05Z"/>
          <path class="cls-20" d="M186.1328,175.2053a15.7957,15.7957,0,0,0,1.7492,3.4748,5.3978,5.3978,0,0,0,2.0409,1.785,3.8,3.8,0,0,0,5.44-2.1123c.4888-1.0777.46-2.05.4026-3.9943a14.5226,14.5226,0,0,0-.2524-2.5178,14.373,14.373,0,0,0-.8519-2.765,5.987,5.987,0,0,0-.95-1.7439,2.8567,2.8567,0,0,0-1.0138-.8483,2.666,2.666,0,0,0-1.3129-.19,5.9489,5.9489,0,0,0-2.3871.7164,18.7059,18.7059,0,0,0-3.081,1.9478,2.78,2.78,0,0,0-.6918.9119,3.1591,3.1591,0,0,0-.1861,1.8667A13.1942,13.1942,0,0,0,186.1328,175.2053Z"/>
          <path class="cls-20" d="M194.9239,169.3211a14.3166,14.3166,0,0,0,1.797,3.035,4.8937,4.8937,0,0,0,1.9564,1.4885,3.4449,3.4449,0,0,0,4.79-2.2469,7.6622,7.6622,0,0,0,.1173-3.6379,13.16,13.16,0,0,0-.3839-2.2619,13.02,13.02,0,0,0-.9415-2.4485,5.4272,5.4272,0,0,0-.9668-1.5187,2.59,2.59,0,0,0-.9694-.7047,2.4163,2.4163,0,0,0-1.1994-.0907,5.3915,5.3915,0,0,0-2.115.7955,16.9586,16.9586,0,0,0-2.6665,1.9523,2.52,2.52,0,0,0-.5694.8676,2.8638,2.8638,0,0,0-.053,1.7A11.966,11.966,0,0,0,194.9239,169.3211Z"/>
          <path class="cls-20" d="M202.3413,164.294a13.532,13.532,0,0,0,1.6978,2.8676,4.6237,4.6237,0,0,0,1.8485,1.4063,3.2548,3.2548,0,0,0,4.5261-2.1229,7.2393,7.2393,0,0,0,.1109-3.4373,12.4434,12.4434,0,0,0-.3627-2.1371,12.31,12.31,0,0,0-.89-2.3134,5.1293,5.1293,0,0,0-.9135-1.435,2.4458,2.4458,0,0,0-.916-.6658,2.2831,2.2831,0,0,0-1.1332-.0858,5.0954,5.0954,0,0,0-1.9983.7517,16.0288,16.0288,0,0,0-2.5195,1.8446,2.3832,2.3832,0,0,0-.538.82,2.7072,2.7072,0,0,0-.05,1.6063A11.3074,11.3074,0,0,0,202.3413,164.294Z"/>
          <path class="cls-21" d="M194.8054,185.5177c1.4514,3.0538,2.4393,5.09,4.3008,6.9351a6.9974,6.9974,0,0,0,2.3418,1.7267c.532.2225,2.5359,1.0608,4.217.0475a4.5338,4.5338,0,0,0,1.8144-2.6651,8.0228,8.0228,0,0,0,.2285-3.41,24.4693,24.4693,0,0,0-2.0966-7.9565c-.4454-1.0027-.8687-1.7979-1.1559-2.3118a1.59,1.59,0,0,0-1.01-.7052,1.4555,1.4555,0,0,0-.6561.0332,22.5489,22.5489,0,0,0-8.4942,4.3009,2.1115,2.1115,0,0,0-.4161.7932,2.1794,2.1794,0,0,0,.0935,1.3841C194.1421,184.0793,194.43,184.7268,194.8054,185.5177Z"/>
          <path class="cls-21" d="M184.9034,191.4434a21.54,21.54,0,0,0,3.4339,5.1547,6.8527,6.8527,0,0,0,2.1359,1.6976,4.5073,4.5073,0,0,0,3.95.1879,4.439,4.439,0,0,0,1.7909-2.4357,8.5513,8.5513,0,0,0,.6073-3.2187c.0813-3.8639-1.65-6.03-2.423-8.6437a3.3368,3.3368,0,0,0-.553-1.0581,1.7076,1.7076,0,0,0-.9228-.6952,1.3655,1.3655,0,0,0-.616.0088,21.1454,21.1454,0,0,0-8.1061,3.7415,2.2574,2.2574,0,0,0-.4168.7292,2.5454,2.5454,0,0,0-.0079,1.47A13.5991,13.5991,0,0,0,184.9034,191.4434Z"/>
          <path class="cls-21" d="M173.67,192.1722c1.4219,3.3215,2.1329,4.9822,3.6362,6.6781a6.401,6.401,0,0,0,1.9354,1.64,4.2019,4.2019,0,0,0,3.0106.4838,4.4279,4.4279,0,0,0,2.5805-2.4193,7.0072,7.0072,0,0,0,.7442-3.06c.0841-2.1725-.5728-3.9922-2.0075-7.6383a3.5638,3.5638,0,0,0-1.2365-1.6934,2.56,2.56,0,0,0-.6384-.322,2.9149,2.9149,0,0,0-1.6731.0135,13.6782,13.6782,0,0,0-2.9033.9267,15.5552,15.5552,0,0,0-2.8224,1.6934,2.17,2.17,0,0,0-.9946,1.2366,2.4,2.4,0,0,0-.0269.9139A5.32,5.32,0,0,0,173.67,192.1722Z"/>
          <path class="cls-21" d="M168.96,189.043a26.933,26.933,0,0,0,1.92,6.027c1.4123,2.878,2.4559,3.7019,2.9549,4.0479a2.4312,2.4312,0,0,0,1.7811.6274c1.5649-.2486,2.1745-2.8151,2.206-2.9549a7.0874,7.0874,0,0,0-.02-2.4895c-.5124-5.1047-.8334-5.8945-1.4775-6.5575a6.5671,6.5671,0,0,0-1.4977-1.0929,6.9119,6.9119,0,0,0-2.3073-.7893,5.4575,5.4575,0,0,0-2.0846.0809,1.9939,1.9939,0,0,0-1.3362.7477,1.8081,1.8081,0,0,0-.2034.8418A5.4379,5.4379,0,0,0,168.96,189.043Z"/>
          <path class="cls-21" d="M205.6689,180.2794c1.6259,2.9362,2.73,4.8927,4.6879,6.606a6.944,6.944,0,0,0,2.4263,1.5665c.5408.1877,2.5777.8949,4.1808-.2126a4.5,4.5,0,0,0,1.6335-2.752,7.9632,7.9632,0,0,0,.0165-3.3923,24.292,24.292,0,0,0-2.567-7.7537c-.503-.9659-.9713-1.7277-1.2875-2.2191a1.5782,1.5782,0,0,0-1.0444-.6365,1.4453,1.4453,0,0,0-.648.0733,22.3816,22.3816,0,0,0-8.1506,4.7839,2.0956,2.0956,0,0,0-.3634.8115,2.1633,2.1633,0,0,0,.1778,1.3655C204.9232,178.8952,205.2478,179.519,205.6689,180.2794Z"/>
          <path class="cls-21" d="M216.1456,174.257c1.4638,3.02,2.46,5.0339,4.3216,6.8513a7.78,7.78,0,0,0,2.3374,1.6962,4.2556,4.2556,0,0,0,2.9.4724c1.6139-.4571,2.3187-2.2374,2.621-3.0009a9.0088,9.0088,0,0,0,.43-3.79,17.1573,17.1573,0,0,0-.7181-4.7441c-.0121-.04.0038.0131-.8469-2.2323a10.617,10.617,0,0,0-1.5237-2.903,1.7294,1.7294,0,0,0-1.0082-.6924,1.4449,1.4449,0,0,0-.651.038,22.3823,22.3823,0,0,0-8.3988,4.3332,2.0936,2.0936,0,0,0-.407.79,2.1642,2.1642,0,0,0,.1031,1.3732C215.4763,172.8342,215.7665,173.4747,216.1456,174.257Z"/>
          <path class="cls-21" d="M226.8214,168.5364c1.7756,4.6744,1.9786,5.3806,2.9015,6.6055a5.7271,5.7271,0,0,0,2.473,2.1773,3.8905,3.8905,0,0,0,2.903-.0269,4.2775,4.2775,0,0,0,2.016-2.3654c.2242-.4911.6281-1.5171.6451-4.57a24.2377,24.2377,0,0,0-1.1019-7.15,4.4584,4.4584,0,0,0-1.1271-1.7747,3.3038,3.3038,0,0,0-1.2008-.7422,3.1755,3.1755,0,0,0-1.4032-.1079,6.94,6.94,0,0,0-2.8895,1.1391,18.5838,18.5838,0,0,0-2.9935,2.2813,2.5944,2.5944,0,0,0-.7285,1.2549,2.8206,2.8206,0,0,0,0,1.1131A11.2,11.2,0,0,0,226.8214,168.5364Z"/>
          <path class="cls-14" d="M180.8277,206.7531a58.4171,58.4171,0,0,0,10.322,0c13.6-1.21,23.2536-6.93,30.9818-11.6241A104.46,104.46,0,0,0,244.91,176.3784l.7528,1.2146a99.9071,99.9071,0,0,1-22.34,19.0273c-7.643,4.759-17.775,10.9086-31.966,11.9486a56.9882,56.9882,0,0,1-9.9916-.1491Q181.0965,207.5864,180.8277,206.7531Z"/>
        </g>
        <g>
          <path class="cls-20" d="M178.0052,131.9329a14.9571,14.9571,0,0,1,1.9622-3.1182,5.112,5.112,0,0,1,2.085-1.4988,3.5984,3.5984,0,0,1,4.9382,2.4817c.3637,1.06.2489,1.974.0195,3.8018a13.7494,13.7494,0,0,1-.4649,2.351,13.6021,13.6021,0,0,1-1.0523,2.53,5.6713,5.6713,0,0,1-1.0526,1.5585,2.7047,2.7047,0,0,1-1.0321.7084,2.525,2.525,0,0,1-1.2549.0607,5.6327,5.6327,0,0,1-2.1859-.89,17.7207,17.7207,0,0,1-2.7289-2.1139,2.6345,2.6345,0,0,1-.57-.9221,2.992,2.992,0,0,1-.0072-1.7766A12.4985,12.4985,0,0,1,178.0052,131.9329Z"/>
          <path class="cls-20" d="M171.9841,126.2611a9.6813,9.6813,0,0,1,2.1773-3.3062,4.4027,4.4027,0,0,1,2.1235-1.21,2.958,2.958,0,0,1,1.8358.1055,3.3847,3.3847,0,0,1,1.666,2.2751c.3571,1.26.0675,2.3513-.4106,4.1512-.2758,1.0388-.303.765-.7258,2.2311a16.2927,16.2927,0,0,1-1.0483,2.9031,3.4685,3.4685,0,0,1-.6451.9139,2.3918,2.3918,0,0,1-.9408.6451,2.55,2.55,0,0,1-1.29,0,4.5084,4.5084,0,0,1-1.9622-.7248,4.3948,4.3948,0,0,1-1.4246-1.775,5.0841,5.0841,0,0,1-.484-1.5322,5.1461,5.1461,0,0,1,.0808-1.72A11.1558,11.1558,0,0,1,171.9841,126.2611Z"/>
          <path class="cls-20" d="M186.1328,138.1057a15.7919,15.7919,0,0,1,1.7492-3.4747,5.3969,5.3969,0,0,1,2.0409-1.785,3.8,3.8,0,0,1,5.44,2.1123c.4888,1.0777.46,2.05.4026,3.9942a14.5226,14.5226,0,0,1-.2524,2.5178,14.3707,14.3707,0,0,1-.8519,2.765,5.987,5.987,0,0,1-.95,1.7439,2.8554,2.8554,0,0,1-1.0138.8483,2.6648,2.6648,0,0,1-1.3129.19,5.9457,5.9457,0,0,1-2.3871-.7164,18.7111,18.7111,0,0,1-3.081-1.9477,2.7814,2.7814,0,0,1-.6918-.9119,3.1592,3.1592,0,0,1-.1861-1.8667A13.1948,13.1948,0,0,1,186.1328,138.1057Z"/>
          <path class="cls-20" d="M194.9239,143.99a14.3138,14.3138,0,0,1,1.797-3.035,4.8928,4.8928,0,0,1,1.9564-1.4885,3.4449,3.4449,0,0,1,4.79,2.2469,7.662,7.662,0,0,1,.1173,3.6379,13.16,13.16,0,0,1-.3839,2.2619,13.0211,13.0211,0,0,1-.9415,2.4484,5.43,5.43,0,0,1-.9668,1.5188,2.59,2.59,0,0,1-.9694.7047,2.4175,2.4175,0,0,1-1.1994.0907,5.3915,5.3915,0,0,1-2.115-.7956,16.9569,16.9569,0,0,1-2.6665-1.9522,2.5213,2.5213,0,0,1-.5694-.8676,2.8641,2.8641,0,0,1-.053-1.7A11.964,11.964,0,0,1,194.9239,143.99Z"/>
          <path class="cls-20" d="M202.3413,149.0171a13.5292,13.5292,0,0,1,1.6978-2.8676,4.6239,4.6239,0,0,1,1.8485-1.4064,3.2549,3.2549,0,0,1,4.5261,2.123,7.239,7.239,0,0,1,.1109,3.4372,12.4443,12.4443,0,0,1-.3627,2.1372,12.3057,12.3057,0,0,1-.89,2.3133,5.13,5.13,0,0,1-.9135,1.4351,2.4458,2.4458,0,0,1-.916.6658,2.2835,2.2835,0,0,1-1.1332.0857,5.0954,5.0954,0,0,1-1.9983-.7517,16.0223,16.0223,0,0,1-2.5195-1.8446,2.3826,2.3826,0,0,1-.538-.82,2.7072,2.7072,0,0,1-.05-1.6063A11.306,11.306,0,0,1,202.3413,149.0171Z"/>
          <path class="cls-21" d="M194.8054,127.7933c1.4514-3.0538,2.4393-5.09,4.3008-6.9351a7,7,0,0,1,2.3418-1.7267c.532-.2224,2.5359-1.0607,4.217-.0474a4.5332,4.5332,0,0,1,1.8144,2.6651,8.0226,8.0226,0,0,1,.2285,3.41,24.4693,24.4693,0,0,1-2.0966,7.9565c-.4454,1.0026-.8687,1.7979-1.1559,2.3117a1.59,1.59,0,0,1-1.01.7052,1.4555,1.4555,0,0,1-.6561-.0332,22.5467,22.5467,0,0,1-8.4942-4.3008,2.1123,2.1123,0,0,1-.4161-.7932,2.1792,2.1792,0,0,1,.0935-1.3841C194.1421,129.2317,194.43,128.5843,194.8054,127.7933Z"/>
          <path class="cls-21" d="M184.9034,121.8676a21.5412,21.5412,0,0,1,3.4339-5.1546,6.8532,6.8532,0,0,1,2.1359-1.6977,4.5076,4.5076,0,0,1,3.95-.1879,4.44,4.44,0,0,1,1.7909,2.4357,8.5525,8.5525,0,0,1,.6073,3.2188c.0813,3.8639-1.65,6.03-2.423,8.6436a3.3357,3.3357,0,0,1-.553,1.0581,1.7063,1.7063,0,0,1-.9228.6952,1.3655,1.3655,0,0,1-.616-.0088,21.1471,21.1471,0,0,1-8.1061-3.7414,2.2585,2.2585,0,0,1-.4168-.7292,2.5453,2.5453,0,0,1-.0079-1.47A13.6013,13.6013,0,0,1,184.9034,121.8676Z"/>
          <path class="cls-21" d="M173.67,121.1388c1.4219-3.3215,2.1329-4.9822,3.6362-6.6781a6.3984,6.3984,0,0,1,1.9354-1.64,4.2014,4.2014,0,0,1,3.0106-.4838,4.4278,4.4278,0,0,1,2.5805,2.4192,7.0084,7.0084,0,0,1,.7442,3.06c.0841,2.1724-.5728,3.9922-2.0075,7.6382a3.564,3.564,0,0,1-1.2365,1.6935,2.5619,2.5619,0,0,1-.6384.3219,2.9141,2.9141,0,0,1-1.6731-.0135,13.6725,13.6725,0,0,1-2.9033-.9267,15.5493,15.5493,0,0,1-2.8224-1.6934,2.17,2.17,0,0,1-.9946-1.2365,2.4,2.4,0,0,1-.0269-.9139A5.3214,5.3214,0,0,1,173.67,121.1388Z"/>
          <path class="cls-21" d="M168.96,124.2681a26.9351,26.9351,0,0,1,1.92-6.0271c1.4123-2.878,2.4559-3.7018,2.9549-4.0479a2.4309,2.4309,0,0,1,1.7811-.6273c1.5649.2485,2.1745,2.815,2.206,2.9549a7.0868,7.0868,0,0,1-.02,2.4894c-.5124,5.1048-.8334,5.8945-1.4775,6.5575a6.5716,6.5716,0,0,1-1.4977,1.093,6.9169,6.9169,0,0,1-2.3073.7893,5.4567,5.4567,0,0,1-2.0846-.081,1.9939,1.9939,0,0,1-1.3362-.7477,1.8078,1.8078,0,0,1-.2034-.8418A5.4367,5.4367,0,0,1,168.96,124.2681Z"/>
          <path class="cls-21" d="M205.6689,133.0316c1.6259-2.9361,2.73-4.8926,4.6879-6.606a6.9469,6.9469,0,0,1,2.4263-1.5665c.5408-.1877,2.5777-.8948,4.1808.2126a4.5,4.5,0,0,1,1.6335,2.752,7.9638,7.9638,0,0,1,.0165,3.3924,24.2916,24.2916,0,0,1-2.567,7.7536c-.503.9659-.9713,1.7277-1.2875,2.2191a1.5782,1.5782,0,0,1-1.0444.6365,1.4453,1.4453,0,0,1-.648-.0733,22.3831,22.3831,0,0,1-8.1506-4.7838,2.097,2.097,0,0,1-.3634-.8115,2.1633,2.1633,0,0,1,.1778-1.3655C204.9232,134.4158,205.2478,133.7921,205.6689,133.0316Z"/>
          <path class="cls-21" d="M216.1456,139.0541c1.4638-3.02,2.46-5.034,4.3216-6.8514a7.7771,7.7771,0,0,1,2.3374-1.6961,4.255,4.255,0,0,1,2.9-.4725c1.6139.4571,2.3187,2.2375,2.621,3.0009a9.009,9.009,0,0,1,.43,3.79,17.1566,17.1566,0,0,1-.7181,4.7441c-.0121.04.0038-.0131-.8469,2.2324a10.62,10.62,0,0,1-1.5237,2.903,1.73,1.73,0,0,1-1.0082.6923,1.4452,1.4452,0,0,1-.651-.0379,22.3807,22.3807,0,0,1-8.3988-4.3333,2.0928,2.0928,0,0,1-.407-.7905,2.1643,2.1643,0,0,1,.1031-1.3732C215.4763,140.4768,215.7665,139.8363,216.1456,139.0541Z"/>
          <path class="cls-21" d="M226.8214,144.7747c1.7756-4.6744,1.9786-5.3807,2.9015-6.6055a5.727,5.727,0,0,1,2.473-2.1774,3.891,3.891,0,0,1,2.903.0269,4.2774,4.2774,0,0,1,2.016,2.3655c.2242.4911.6281,1.5171.6451,4.57a24.2378,24.2378,0,0,1-1.1019,7.15,4.4582,4.4582,0,0,1-1.1271,1.7746,3.3032,3.3032,0,0,1-1.2008.7423,3.1772,3.1772,0,0,1-1.4032.1078,6.9386,6.9386,0,0,1-2.8895-1.1391,18.572,18.572,0,0,1-2.9935-2.2813,2.5939,2.5939,0,0,1-.7285-1.2549,2.8206,2.8206,0,0,1,0-1.1131A11.1946,11.1946,0,0,1,226.8214,144.7747Z"/>
          <path class="cls-14" d="M180.8277,106.5579a58.4365,58.4365,0,0,1,10.322,0c13.6,1.21,23.2536,6.93,30.9818,11.6242A104.4563,104.4563,0,0,1,244.91,136.9326l.7528-1.2146a99.9062,99.9062,0,0,0-22.34-19.0272c-7.643-4.7591-17.775-10.9086-31.966-11.9486a56.9783,56.9783,0,0,0-9.9916.1491Q181.0965,105.7246,180.8277,106.5579Z"/>
        </g>
      </g>
    </g>
  </g>
</svg>
