<svg id="Layer_1" data-name="Layer 1" xmlns="http://www.w3.org/2000/svg" xmlns:xlink="http://www.w3.org/1999/xlink" width="512" height="512" viewBox="0 0 512 512">
  <defs>
    <style>
      .cls-1 {
        fill: none;
      }

      .cls-2 {
        fill: url(#radial-gradient);
      }

      .cls-3 {
        fill: #cc8200;
      }

      .cls-4 {
        fill: #ffc33e;
      }

      .cls-5 {
        fill: #3f2800;
      }

      .cls-6 {
        fill: #ff354b;
      }

      .cls-7 {
        clip-path: url(#clip-path);
      }

      .cls-8 {
        fill: #960cd4;
      }

      .cls-9 {
        fill: url(#radial-gradient-2);
      }

      .cls-10 {
        fill: #e23b3b;
      }

      .cls-11 {
        fill: url(#radial-gradient-3);
      }

      .cls-12 {
        fill: #980bd4;
      }

      .cls-13 {
        fill: #a52336;
      }

      .cls-14 {
        fill: #fed104;
      }

      .cls-15 {
        fill: url(#radial-gradient-4);
      }

      .cls-16 {
        fill: #fec70a;
      }

      .cls-17 {
        fill: #a87e07;
      }
    </style>
    <radialGradient id="radial-gradient" cx="200.2595" cy="183.5447" r="12.26" gradientTransform="translate(332.884 -53.5276) rotate(76.7175)" gradientUnits="userSpaceOnUse">
      <stop offset="0" stop-color="#ffb805"/>
      <stop offset="0.3706" stop-color="#fcb505"/>
      <stop offset="0.6484" stop-color="#f3ab03"/>
      <stop offset="0.8952" stop-color="#e49b01"/>
      <stop offset="1" stop-color="#db9200"/>
    </radialGradient>
    <clipPath id="clip-path">
      <path class="cls-1" d="M355.36,356.7829a181.27,181.27,0,0,1-151.5656,6.5428q.0148-19.26.03-38.5192l150.9809-10.3723Z"/>
    </clipPath>
    <radialGradient id="radial-gradient-2" cx="283.2938" cy="360.2511" r="13.1763" gradientTransform="translate(568.8202 1.767) rotate(76.7175)" xlink:href="#radial-gradient"/>
    <radialGradient id="radial-gradient-3" cx="79.62" cy="255.6482" r="13.1763" gradientTransform="translate(310.1365 119.4222) rotate(76.7175)" xlink:href="#radial-gradient"/>
    <radialGradient id="radial-gradient-4" cx="432.8277" cy="248.4598" r="13.1763" gradientTransform="translate(575.1975 -229.8737) rotate(76.7175)" xlink:href="#radial-gradient"/>
  </defs>
  <g id="Hat">
    <g id="Joker">
      <g>
        <circle class="cls-2" cx="200.2595" cy="183.5447" r="12.26" transform="translate(-24.3854 336.2772) rotate(-76.7175)"/>
        <path class="cls-3" d="M188.7459,179.3227a1.7395,1.7395,0,0,0-.9592.551l-.4052,1.5522,20.801,1.4138,4.4443-1.5937a1.8712,1.8712,0,0,0,.1257-.8759,1.8,1.8,0,0,0-.0666-.333,1.55,1.55,0,0,0-.1642-.23,1.6655,1.6655,0,0,0-.7493-.4869l.2615.7967a2.7023,2.7023,0,0,1-.4626.3037,2.752,2.752,0,0,1-1.0318.2961,96.6951,96.6951,0,0,1-21.0974-.0586,1.15,1.15,0,0,1-.6557-.2654,1.1167,1.1167,0,0,1-.277-.3579Z"/>
        <path class="cls-4" d="M212.826,183.9738a2.0977,2.0977,0,0,1-.2218.4869,3.0709,3.0709,0,0,1-2.0657,1.21,62.723,62.723,0,0,1-10.11.6633s-7.7415-.0907-11.4548-1.0126a2.4751,2.4751,0,0,1-1.4948-.9183,1.84,1.84,0,0,1-.2145-.4291,4.4508,4.4508,0,0,1-.2146-1.87,5.3977,5.3977,0,0,1,.7373-2.23,1.2273,1.2273,0,0,0,.09.6366,1.3906,1.3906,0,0,0,.95.7357c3.2268.7023,11.4323.7662,11.4324.7662,2.9908-.1186,4.1249-.0659,7.3407-.2988,1.3275-.0962,2.4425-.2,3.2541-.2818a3.89,3.89,0,0,0,1.1481-.375c.459-.2356.57-.4151.6231-.5307a.8731.8731,0,0,0,.06-.4888,7.2056,7.2056,0,0,1,.3853,2.113A5.4157,5.4157,0,0,1,212.826,183.9738Z"/>
        <circle class="cls-5" cx="200.045" cy="189.4142" r="2.5439"/>
        <rect class="cls-5" x="199.5086" y="190.6555" width="0.7509" height="5.1492"/>
      </g>
      <path class="cls-6" d="M377.5632,311.3643c0,15.8833-10.4607,31.7667-31.3821,43.8852-41.8429,24.2371-109.6836,24.2371-151.5265,0-20.9215-12.1185-31.3823-28.0019-31.3823-43.8852V276.1857H377.5632Z"/>
      <g class="cls-7">
        <path class="cls-8" d="M377.5632,311.3643c0,15.8833-10.4607,31.7667-31.3821,43.8852-41.8429,24.2371-109.6836,24.2371-151.5265,0-20.9215-12.1185-31.3823-28.0019-31.3823-43.8852V276.1857H377.5632Z"/>
      </g>
      <g>
        <circle class="cls-9" cx="283.2938" cy="360.2511" r="13.1763" transform="translate(-132.4078 553.1977) rotate(-76.7175)"/>
        <path class="cls-3" d="M270.92,355.7136a1.8683,1.8683,0,0,0-1.031.5921q-.2178.8342-.4354,1.6682l22.3556,1.5195,4.7764-1.7129a2.01,2.01,0,0,0,.1351-.9413,1.9339,1.9339,0,0,0-.0715-.3579,1.6762,1.6762,0,0,0-.1765-.2467,1.7918,1.7918,0,0,0-.8053-.5233q.14.4282.281.8563a2.9085,2.9085,0,0,1-.4971.3264,2.9574,2.9574,0,0,1-1.1089.3182,103.9344,103.9344,0,0,1-22.6742-.0629,1.2375,1.2375,0,0,1-.7048-.2853,1.2011,1.2011,0,0,1-.2977-.3846Z"/>
        <path class="cls-4" d="M296.8,360.7122a2.2571,2.2571,0,0,1-.2384.5233,3.3007,3.3007,0,0,1-2.22,1.3,67.4189,67.4189,0,0,1-10.8661.7129s-8.32-.0976-12.3109-1.0883a2.6607,2.6607,0,0,1-1.6065-.987,1.979,1.979,0,0,1-.2306-.4612,4.7849,4.7849,0,0,1-.2306-2.0093,5.802,5.802,0,0,1,.7924-2.3972,1.3194,1.3194,0,0,0,.097.6842,1.4935,1.4935,0,0,0,1.0212.7906c3.4679.7548,12.2868.8235,12.2869.8235,3.2143-.1274,4.4331-.0708,7.8893-.3211,1.4266-.1034,2.6251-.2149,3.4973-.3028a4.1846,4.1846,0,0,0,1.2339-.4031c.4933-.2532.613-.4461.67-.57a.9371.9371,0,0,0,.0648-.5253,7.7441,7.7441,0,0,1,.4142,2.271A5.8237,5.8237,0,0,1,296.8,360.7122Z"/>
        <circle class="cls-5" cx="283.0632" cy="366.5592" r="2.7341"/>
        <rect class="cls-5" x="282.4867" y="367.8933" width="0.807" height="5.534"/>
      </g>
      <ellipse class="cls-10" cx="270.4178" cy="276.1857" rx="107.1454" ry="62.063"/>
      <g>
        <circle class="cls-11" cx="79.62" cy="255.6482" r="13.1763" transform="translate(-187.4823 274.4024) rotate(-76.7175)"/>
        <path class="cls-3" d="M67.2459,251.1107a1.8693,1.8693,0,0,0-1.0309.5922l-.4355,1.6682,22.3557,1.5195,4.7764-1.7129a2.0119,2.0119,0,0,0,.135-.9414,1.9181,1.9181,0,0,0-.0715-.3578,1.6636,1.6636,0,0,0-.1765-.2467,1.79,1.79,0,0,0-.8053-.5233l.281.8563a2.9045,2.9045,0,0,1-.4971.3264,2.9569,2.9569,0,0,1-1.1089.3182,103.9344,103.9344,0,0,1-22.6742-.0629,1.238,1.238,0,0,1-.7048-.2853,1.2007,1.2007,0,0,1-.2976-.3847Z"/>
        <path class="cls-4" d="M93.1257,256.1094a2.259,2.259,0,0,1-.2384.5233,3.3,3.3,0,0,1-2.22,1.3,67.4056,67.4056,0,0,1-10.866.7129s-8.32-.0975-12.3109-1.0882a2.6611,2.6611,0,0,1-1.6066-.987,1.98,1.98,0,0,1-.2305-.4612,4.7818,4.7818,0,0,1-.2306-2.0094,5.8006,5.8006,0,0,1,.7924-2.3971,1.3185,1.3185,0,0,0,.097.6842,1.4939,1.4939,0,0,0,1.0211.7906c3.468.7548,12.2868.8235,12.2869.8235,3.2143-.1275,4.4331-.0708,7.8893-.3212,1.4267-.1033,2.6251-.2148,3.4973-.3027a4.1864,4.1864,0,0,0,1.234-.4031c.4933-.2533.613-.4461.67-.57a.9383.9383,0,0,0,.0649-.5253,7.7428,7.7428,0,0,1,.4141,2.2709A5.8191,5.8191,0,0,1,93.1257,256.1094Z"/>
        <circle class="cls-5" cx="79.3894" cy="261.9564" r="2.7341"/>
        <rect class="cls-5" x="78.813" y="263.2905" width="0.807" height="5.534"/>
      </g>
      <path class="cls-12" d="M203.8242,324.8065a94.9726,94.9726,0,0,1,5.2935-35.2657c10.3369-29.2213,32.3236-44.7769,40.6849-50.0827a141.3737,141.3737,0,0,0-36.9833-29.9052c-11.9734-6.6835-38.9181-21.7239-71.3124-16.1028a92.9433,92.9433,0,0,0-23.1462,7.4661c-7.9066,3.7251-23.666,11.3952-34.3638,28.4556a66.6915,66.6915,0,0,0-6.68,14.112,4.9792,4.9792,0,0,0,4.0921.1327,30.4043,30.4043,0,0,1,6.1934-5.3086c16.6905-10.7512,38.926-1.1373,42.58.4424,23.0084,9.9481,31.4042,32.5612,33.09,37.4354a39.792,39.792,0,0,0,.6654,6.9059C168.52,307.7441,195.3932,321.0182,203.8242,324.8065Z"/>
      <path class="cls-13" d="M247.9225,299.556a142.7048,142.7048,0,0,0-14.1342-17.2751l10.4736,21.402a92.9575,92.9575,0,0,0,.7424,32.8037c4.5891.6412,9.5547,1.1577,14.8585,1.462,4.6589.2674,9.0723.3421,13.2069.2809-6.8691-9.4077-11.9465-17.3316-15.3277-22.8557C253.6719,308.7243,251.8721,305.2343,247.9225,299.556Z"/>
      <path class="cls-14" d="M217.7516,136.2275a21.9781,21.9781,0,0,1,3.1633-.774c17.3742-2.9024,33.9435,16.1639,48.7065,33.577a263.5256,263.5256,0,0,1,32.1728,47.8016L283.07,235.8239l-24.3665.8235Z"/>
      <path class="cls-14" d="M202.07,173.2774a14.8107,14.8107,0,0,1,8.2722-4.6892l-1.7253-4.4239-5.4855,2.0792Z"/>
      <g>
        <circle class="cls-15" cx="432.8277" cy="248.4598" r="13.1763" transform="translate(91.571 612.6246) rotate(-76.7175)"/>
        <path class="cls-3" d="M420.4536,243.9223a1.87,1.87,0,0,0-1.031.5922l-.4354,1.6682,22.3557,1.5195,4.7764-1.7129a2.0119,2.0119,0,0,0,.135-.9414,1.9263,1.9263,0,0,0-.0715-.3578,1.6636,1.6636,0,0,0-.1765-.2467,1.79,1.79,0,0,0-.8053-.5233l.281.8563a2.9045,2.9045,0,0,1-.4971.3264,2.9569,2.9569,0,0,1-1.1089.3182,103.9344,103.9344,0,0,1-22.6742-.0629,1.2378,1.2378,0,0,1-.7048-.2853,1.2028,1.2028,0,0,1-.2977-.3847Z"/>
        <path class="cls-4" d="M446.3334,248.921a2.259,2.259,0,0,1-.2384.5233,3.3,3.3,0,0,1-2.22,1.3,67.4056,67.4056,0,0,1-10.866.7129s-8.32-.0975-12.3109-1.0882a2.6611,2.6611,0,0,1-1.6066-.987,1.9809,1.9809,0,0,1-.2306-.4612,4.7831,4.7831,0,0,1-.2305-2.0094,5.8021,5.8021,0,0,1,.7923-2.3971,1.3188,1.3188,0,0,0,.0971.6842,1.4939,1.4939,0,0,0,1.0211.7906c3.4679.7548,12.2868.8235,12.2869.8235,3.2143-.1275,4.4331-.0708,7.8893-.3212,1.4267-.1033,2.6251-.2148,3.4973-.3027a4.1864,4.1864,0,0,0,1.234-.4031c.4933-.2533.613-.4461.67-.57a.9383.9383,0,0,0,.0649-.5253,7.7461,7.7461,0,0,1,.4141,2.2709A5.8217,5.8217,0,0,1,446.3334,248.921Z"/>
        <circle class="cls-5" cx="432.5971" cy="254.768" r="2.7341"/>
        <rect class="cls-5" x="432.0207" y="256.1021" width="0.807" height="5.534"/>
      </g>
      <path class="cls-12" d="M283.07,235.8239c5.765-7.5932,23.7036-29.0967,54.5018-36.0034,37.7537-8.4666,74.0317,9.6659,93.1661,31.3208,1.9846,2.246,3.5055,4.2139,4.5124,5.574a3.5951,3.5951,0,0,1-2.4774.6194,3.538,3.538,0,0,1-1.9022-.8848,28.3664,28.3664,0,0,0-12.3426-6.1934c-14.9685-3.1952-27.0353,7.9273-28.0029,8.8477,0,0-12.6992,12.08-12.9327,36.848a37.8105,37.8105,0,0,1-.3878,5.3224,39.6766,39.6766,0,0,1-1.6416,6.88,42.3022,42.3022,0,0,1-2.6061,6.0932,46.4855,46.4855,0,0,1-2.7107,4.51,62.0431,62.0431,0,0,1-10.9921,12.1785c-1.1385.9765-2.6292,2.188-4.449,3.4978a96.2588,96.2588,0,0,0-71.7352-78.61Z"/>
      <path class="cls-14" d="M282.18,235.8539a106.4255,106.4255,0,0,1,16.24-16.3916,94.6073,94.6073,0,0,1,31.1317-17.4317,89.8377,89.8377,0,0,1,26.688-4.51,85.9468,85.9468,0,0,1,29.6184,5.0056c-7.4844-2.2157-32.2662-8.5286-60.0323,2.8688a90.5366,90.5366,0,0,0-39.255,31.3869c-.88-.2346-1.8138-.4536-2.7992-.6467Q282.9573,235.9751,282.18,235.8539Z"/>
      <path class="cls-6" d="M249.8026,239.4581a60.85,60.85,0,0,1,13.4485-4.2469,341.5123,341.5123,0,0,1,13.2715,43.4422,342.37,342.37,0,0,1,8.8919,69.6755,4.47,4.47,0,0,1-4.5786-.0663,260.7511,260.7511,0,0,1-21.4778-30.5909c-3.11-5.2093-6.07-10.6128-11.4356-18.1157a171.6316,171.6316,0,0,0-14.1342-17.2751q5.2244,10.7943,10.4486,21.5885,4.5552,9.8888,9.1048,19.8187,3.27,7.1361,6.5211,14.26a157.51,157.51,0,0,1-56.0386-13.1421c-.08-10.7349,1.154-36.09,16.958-59.1592C225.7087,258.456,234.107,246.52,249.8026,239.4581Z"/>
      <path class="cls-16" d="M263.2511,235.2112a85.0092,85.0092,0,0,1,34.6829.7078c6.14,1.4223,16.23,3.8656,26.72,11.502,13.4537,9.7936,19.3752,22.1657,22.4732,28.8435a84.4346,84.4346,0,0,1,7.6779,38.17,115.2175,115.2175,0,0,1-16.2936,9.6746,123.1462,123.1462,0,0,1-22.1041,8.1507,150.2032,150.2032,0,0,1-19.8441,4.12q-.5159-9.8091-.93-19.77-.99-23.8893-1.3271-46.9813.6635,23.4906,1.3271,46.9813c-1.0014,4.1646-2.1755,8.5136-3.5549,13.0167-2.0718,6.7638-4.34,13.0045-6.6642,18.7022a4.416,4.416,0,0,1-1.0783.4479,4.5382,4.5382,0,0,1-.4908.1,4.6244,4.6244,0,0,1-.7534.0493,351.564,351.564,0,0,0-5.2422-57.7976A351.5719,351.5719,0,0,0,263.2511,235.2112Z"/>
      <path class="cls-6" d="M258.7034,236.6474q-22.0842-101.2551-40.0446-100.53-10.5684.4275-19.7083,36.165a4.6893,4.6893,0,0,0,3.1192.9953q3.4-6.7584,5.441-6.37,4.7605.9055,2.1234,40.6993a121.21,121.21,0,0,1,40.1685,31.8517Z"/>
      <path class="cls-17" d="M289.464,337.2635a111.81,111.81,0,0,0,5.307-23.1751c.8724-7.4107.7706-13.1138.5972-22.8271-.1605-8.989-.6413-16.43-1.0617-21.6326a249.7526,249.7526,0,0,1,6.2465,66.1443c-1.5654.2515-2.9163.4527-3.99.6067-1.4141.2029-3.0848.4412-5.289.69C290.5338,337.1537,289.912,337.2183,289.464,337.2635Z"/>
      <path class="cls-14" d="M118.3607,200.9162a114.1055,114.1055,0,0,1,128.3,39.8176l3.1422-1.2757a116.4058,116.4058,0,0,0-34.7967-31.7243,114.8412,114.8412,0,0,0-34.66-13.7658,104.4582,104.4582,0,0,0-22.2034-2.1739,99.04,99.04,0,0,0-14.8064,1.3312c-3.2731.5494-6.0545,1.19-8.1837,1.74A97.1854,97.1854,0,0,0,118.3607,200.9162Z"/>
    </g>
  </g>
</svg>
