<svg id="Layer_1" data-name="Layer 1" xmlns="http://www.w3.org/2000/svg" xmlns:xlink="http://www.w3.org/1999/xlink" width="512" height="512" viewBox="0 0 512 512">
  <defs>
    <style>
      .cls-1 {
        fill: #600000;
      }

      .cls-2 {
        fill: url(#linear-gradient);
      }

      .cls-3 {
        fill: #fff;
      }

      .cls-4 {
        fill: url(#radial-gradient);
      }

      .cls-5 {
        fill: url(#radial-gradient-2);
      }
    </style>
    <linearGradient id="linear-gradient" x1="223.1043" y1="308.5879" x2="476.2716" y2="126.6454" gradientUnits="userSpaceOnUse">
      <stop offset="0.3638" stop-color="#ff2f2f"/>
      <stop offset="0.3896" stop-color="#ff3939"/>
      <stop offset="0.4356" stop-color="#ff4646"/>
      <stop offset="0.48" stop-color="#ff4a4a"/>
      <stop offset="0.562" stop-color="#de2626"/>
      <stop offset="0.6327" stop-color="#c70d0d"/>
      <stop offset="0.6758" stop-color="#bf0404"/>
    </linearGradient>
    <radialGradient id="radial-gradient" cx="213.6653" cy="345.2221" r="5.2826" gradientUnits="userSpaceOnUse">
      <stop offset="0" stop-color="#fff"/>
      <stop offset="0.211" stop-color="#ffebb8"/>
      <stop offset="0.4218" stop-color="#ffd978"/>
      <stop offset="0.6124" stop-color="#ffcb47"/>
      <stop offset="0.7783" stop-color="#ffc023"/>
      <stop offset="0.9131" stop-color="#ffba0d"/>
      <stop offset="1" stop-color="#ffb805"/>
    </radialGradient>
    <radialGradient id="radial-gradient-2" cx="57.7964" cy="274.3988" r="5.2826" xlink:href="#radial-gradient"/>
  </defs>
  <g id="Accessories">
    <g id="King_s_Cape" data-name="King&apos;s Cape">
      <path class="cls-1" d="M69.36,277.4814A190.69,190.69,0,0,1,132.6089,262.85c24.6855-1.3174,27.9135,3.5232,57.68,3.4229,37.1058-.1251,45.5179-7.6922,78.8476-7.0875a219.7811,219.7811,0,0,1,51.384,7.0875L347.9843,225.52l-79.2906-1.7718-55.0284-7.53-62.3572,12.403L93.6205,248.9971Z"/>
      <path class="cls-2" d="M211.706,353.7343a95.7,95.7,0,0,0,35.2671,2.11c21.7622-2.854,26.2408-11.5068,49.7356-15.0713,18.3028-2.7769,20.3249,1.7551,40.6928-.9044,18.6794-2.439,32.1047-8.2144,40.9942-12.057,45.5672-19.6974,79.8845-63.9788,87.1126-73.5485-12.0471-1.5447-18.71-5.9954-22.6071-9.9471-5.28-5.3542-5.3386-9.6478-12.3585-15.6743-6.4405-5.529-8.7629-3.9513-14.4686-8.7414-8.8232-7.4075-5.3754-12.8225-13.2628-21.7028-8.7122-9.8089-15.1282-5.5675-25.4957-16.626-6.22-6.634-5.2461-9.1173-11.2785-15.6268-7.8653-8.4875-17.882-12.3356-25.9982-14.2425a90.7432,90.7432,0,0,0-14.2424,8.5907c-7.6951,5.6717-13.2059,10.0057-14.4685,11.0775-13.5622,11.5136-48.1079,23.5843-84.1622,29.2329-20.9857,3.2878-28.4846,2.2068-45.1824,8.3056a135.3153,135.3153,0,0,0-28.239,14.2856l137.2082,15.2823,37.865,24.4445L292.56,292.8725,224.366,335.0457Z"/>
      <path class="cls-3" d="M233.3927,311.9756c-9.9481,7.2383-15.0333,10.9749-20.481,16.7331-8.34,8.815-9.9159,13.0632-10.2486,16.5134-.1587,1.6458-.7133,7.3987,3.1369,11.1779,3.3444,3.2827,8.0584,3.1586,8.92,3.1359,5.9045-.1554,10.6407-4.2445,17.9349-10.2478,8.4309-6.9386,5.9285-3.0392,22.381-14.9206,15.9959-11.5516,15.228-12.9747,23.08-16.8046,2.6959-1.315,1.9749-.7514,21.6066-7.9573,12.8645-4.7218,14.8816-5.5907,16.88-6.5113,7.5733-3.4891,13.7968-6.4247,19.8943-12.5917,5.5883-5.652,7.3187-10.2231,7.8371-11.7233a22.6818,22.6818,0,0,0,1.3564-10.1985c-.4338-3.9664-1.8863-6.6149-4.3707-11.1447a28.7084,28.7084,0,0,0-5.501-7.3931,27.7576,27.7576,0,0,0-7.0014-4.8982c-72.5577-39.59-113.0379-37.0218-127.233-34.9071-8.8719,1.3216-31.6348,6.0653-47.4945,9.37-31.9352,6.6551-39.68,8.9925-47.1892,11.8919a165.7057,165.7057,0,0,0-42.2986,24.1194v32.1021c14.6384-17.3233,28.8853-25.0267,39.383-28.8441,8.7007-3.1638,12.6416-2.8639,28.1646-7.1118a313.3728,313.3728,0,0,0,38.7169-13.536c48.7914-19.0355,143.746,16.9281,142.1275,31.0322-.2054,1.79-1.9771,3.3192-4.1531,5.1969-5.9322,5.1191-11.88,2.9513-21.0247,6.1039a137.3222,137.3222,0,0,0-22.4563,9.94c-2.8993,1.6368-6.5547,4.0828-13.8657,8.9746C245.215,303.6789,239.9956,307.1713,233.3927,311.9756Z"/>
      <circle class="cls-4" cx="213.6653" cy="345.2221" r="5.2826"/>
      <path class="cls-3" d="M64.6023,255.6194a46.7172,46.7172,0,0,1-6.7753,4.9736c-3.9976,2.415-5.5108,2.5125-7.5357,4.6721-2.7294,2.911-3.2109,6.5626-3.4664,8.2893-.3417,2.3085-.73,4.9359.5652,7.6864,2.1,4.4572,7.0209,5.837,8.779,6.33a17.0465,17.0465,0,0,0,8.4332.1507Z"/>
      <circle class="cls-5" cx="57.7964" cy="274.3988" r="5.2826"/>
    </g>
  </g>
</svg>
