<svg xmlns="http://www.w3.org/2000/svg" xmlns:xlink="http://www.w3.org/1999/xlink" width="512" height="512" viewBox="0 0 512 512">
  <defs>
    <style>
      .cls-1 {
        isolation: isolate;
      }

      .cls-11, .cls-2 {
        fill: #fff;
      }

      .cls-3 {
        fill: #4474b7;
      }

      .cls-4 {
        fill: #4a7fbe;
      }

      .cls-5 {
        fill: #1f8b37;
      }

      .cls-6 {
        fill: #29a63c;
      }

      .cls-7 {
        fill: #c50013;
      }

      .cls-8 {
        fill: #f3001e;
      }

      .cls-9 {
        fill: url(#radial-gradient);
      }

      .cls-10 {
        fill: url(#linear-gradient);
      }

      .cls-11 {
        mix-blend-mode: overlay;
      }

      .cls-12 {
        fill: #c95400;
      }

      .cls-13 {
        fill: #bfbfbf;
      }

      .cls-14 {
        fill: #ffe605;
      }

      .cls-15 {
        fill: url(#linear-gradient-2);
      }

      .cls-16 {
        fill: url(#linear-gradient-3);
      }

      .cls-17 {
        fill: url(#linear-gradient-4);
      }

      .cls-18 {
        fill: url(#linear-gradient-5);
      }

      .cls-19 {
        fill: url(#linear-gradient-6);
      }

      .cls-20 {
        fill: url(#linear-gradient-7);
      }

      .cls-21 {
        fill: url(#linear-gradient-8);
      }

      .cls-22 {
        fill: #fd7701;
      }

      .cls-23 {
        fill: url(#radial-gradient-2);
      }

      .cls-24 {
        fill: url(#radial-gradient-3);
      }

      .cls-25 {
        fill: url(#radial-gradient-4);
      }

      .cls-26 {
        fill: url(#radial-gradient-5);
      }

      .cls-27 {
        fill: url(#radial-gradient-6);
      }

      .cls-28 {
        fill: url(#radial-gradient-7);
      }

      .cls-29 {
        fill: url(#Degradado_sin_nombre_30);
      }

      .cls-30 {
        fill: url(#Degradado_sin_nombre_337);
      }

      .cls-31 {
        fill: #a40018;
      }

      .cls-32 {
        fill: url(#radial-gradient-8);
      }

      .cls-33 {
        fill: url(#Degradado_sin_nombre_30-2);
      }

      .cls-34 {
        fill: url(#Degradado_sin_nombre_337-2);
      }

      .cls-35 {
        fill: url(#radial-gradient-9);
      }

      .cls-36 {
        fill: url(#Degradado_sin_nombre_30-3);
      }

      .cls-37 {
        fill: url(#radial-gradient-10);
      }

      .cls-38 {
        fill: url(#radial-gradient-11);
      }
    </style>
    <radialGradient id="radial-gradient" cx="374.7603" cy="213.0633" r="1.1483" gradientUnits="userSpaceOnUse">
      <stop offset="0" stop-color="#f3adc1"/>
      <stop offset="0.0879" stop-color="#f691a0"/>
      <stop offset="0.1975" stop-color="#f9747f"/>
      <stop offset="0.3154" stop-color="#fb5c63"/>
      <stop offset="0.4423" stop-color="#fd4a4e"/>
      <stop offset="0.5825" stop-color="#fe3d3f"/>
      <stop offset="0.7464" stop-color="#ff3536"/>
      <stop offset="0.9916" stop-color="#f33"/>
    </radialGradient>
    <linearGradient id="linear-gradient" x1="147.9925" y1="226.1318" x2="363.7703" y2="226.1318" gradientUnits="userSpaceOnUse">
      <stop offset="0" stop-color="#ff8205"/>
      <stop offset="0.1684" stop-color="#ffab05"/>
      <stop offset="0.2581" stop-color="#ffbb05"/>
      <stop offset="0.3948" stop-color="#ffb204"/>
      <stop offset="0.6212" stop-color="#fe9803"/>
      <stop offset="0.9077" stop-color="#fc7001"/>
      <stop offset="1" stop-color="#fc6100"/>
    </linearGradient>
    <linearGradient id="linear-gradient-2" x1="237.1809" y1="303.7502" x2="326.5591" y2="287.6362" gradientUnits="userSpaceOnUse">
      <stop offset="0" stop-color="#ff8205"/>
      <stop offset="0.1614" stop-color="#ffab05"/>
      <stop offset="0.2473" stop-color="#ffbb05"/>
      <stop offset="0.3421" stop-color="#ffc405"/>
      <stop offset="0.4987" stop-color="#ffdd05"/>
      <stop offset="0.5645" stop-color="#ffea05"/>
      <stop offset="0.6358" stop-color="#ffda05"/>
      <stop offset="0.7443" stop-color="#ffc905"/>
      <stop offset="0.8611" stop-color="#ffbe05"/>
      <stop offset="1" stop-color="#ffbb05"/>
    </linearGradient>
    <linearGradient id="linear-gradient-3" x1="166.7904" y1="183.9968" x2="147.2892" y2="236.5428" xlink:href="#linear-gradient"/>
    <linearGradient id="linear-gradient-4" x1="149.4758" y1="251.4491" x2="204.0466" y2="304.1267" xlink:href="#linear-gradient-2"/>
    <linearGradient id="linear-gradient-5" x1="359.3593" y1="276.4208" x2="372.2234" y2="212.2307" xlink:href="#linear-gradient-2"/>
    <linearGradient id="linear-gradient-6" x1="296.5044" y1="168.6736" x2="348.3715" y2="213.2277" xlink:href="#linear-gradient-2"/>
    <linearGradient id="linear-gradient-7" x1="193.7651" y1="182.8586" x2="257.5518" y2="173.3775" xlink:href="#linear-gradient"/>
    <linearGradient id="linear-gradient-8" x1="135.8212" y1="302.9199" x2="374.226" y2="302.9199" xlink:href="#linear-gradient-2"/>
    <radialGradient id="radial-gradient-2" cx="366.6516" cy="194.8495" r="8.7453" gradientUnits="userSpaceOnUse">
      <stop offset="0" stop-color="#ffea05"/>
      <stop offset="0.1523" stop-color="#ffe405"/>
      <stop offset="0.363" stop-color="#ffd205"/>
      <stop offset="0.5587" stop-color="#ffbb05"/>
      <stop offset="0.6937" stop-color="#ffb105"/>
      <stop offset="1" stop-color="#ff9e06"/>
    </radialGradient>
    <radialGradient id="radial-gradient-3" cx="227.6527" cy="274.8189" r="10.8162" xlink:href="#radial-gradient-2"/>
    <radialGradient id="radial-gradient-4" cx="337.2714" cy="258.4631" r="9.896" xlink:href="#radial-gradient-2"/>
    <radialGradient id="radial-gradient-5" cx="284.3182" cy="147.7948" r="8.5735" xlink:href="#radial-gradient-2"/>
    <radialGradient id="radial-gradient-6" cx="173.7829" cy="165.7456" r="9.0343" xlink:href="#radial-gradient-2"/>
    <radialGradient id="radial-gradient-7" cx="146.4478" cy="228.9715" r="9.5765" xlink:href="#radial-gradient-2"/>
    <radialGradient id="Degradado_sin_nombre_30" data-name="Degradado sin nombre 30" cx="-542.9191" cy="-3058.7955" r="3.4292" gradientTransform="translate(-103.8097 -2762.5908) rotate(-175.9953)" gradientUnits="userSpaceOnUse">
      <stop offset="0" stop-color="#80cdf3"/>
      <stop offset="0.096" stop-color="#7ac5ee"/>
      <stop offset="0.4376" stop-color="#69acde"/>
      <stop offset="0.7488" stop-color="#5f9cd4"/>
      <stop offset="1" stop-color="#5b97d1"/>
    </radialGradient>
    <radialGradient id="Degradado_sin_nombre_337" data-name="Degradado sin nombre 337" cx="628.5327" cy="261.5882" r="1.6139" gradientTransform="matrix(0.679, 0.7341, -0.7341, 0.679, -9.6693, -329.2106)" gradientUnits="userSpaceOnUse">
      <stop offset="0" stop-color="#b2d5a5"/>
      <stop offset="0.0806" stop-color="#a9d19d"/>
      <stop offset="0.7069" stop-color="#65b766"/>
      <stop offset="1" stop-color="#4aad50"/>
    </radialGradient>
    <radialGradient id="radial-gradient-8" cx="1283.1821" cy="641.9913" r="2.409" gradientTransform="translate(-515.459 1522.8082) rotate(-85.456)" xlink:href="#radial-gradient"/>
    <radialGradient id="Degradado_sin_nombre_30-2" cx="367.409" cy="310.6607" r="3.8284" gradientTransform="translate(28.6107 -55.755) rotate(8.8081)" xlink:href="#Degradado_sin_nombre_30"/>
    <radialGradient id="Degradado_sin_nombre_337-2" cx="365.6537" cy="306.2981" r="1.7257" gradientTransform="matrix(1.1519, 0.1862, -0.1352, 0.9261, -35.4304, -59.8557)" xlink:href="#Degradado_sin_nombre_337"/>
    <radialGradient id="radial-gradient-9" cx="1316.6304" cy="736.5936" r="2.0862" gradientTransform="matrix(-0.0264, -1.0414, 0.9997, -0.0253, -357.9957, 1668.1068)" xlink:href="#radial-gradient"/>
    <radialGradient id="Degradado_sin_nombre_30-3" cx="137.8694" cy="271.6449" r="3.6814" gradientTransform="matrix(1, 0, 0, 1, 0, 0)" xlink:href="#Degradado_sin_nombre_30"/>
    <radialGradient id="radial-gradient-10" cx="124.585" cy="259.3765" r="1.3231" gradientTransform="translate(-6.0262 7.825) rotate(-4.3338)" gradientUnits="userSpaceOnUse">
      <stop offset="0" stop-color="#b2d5a5"/>
      <stop offset="0.0087" stop-color="#b0d4a4"/>
      <stop offset="0.2092" stop-color="#8cc686"/>
      <stop offset="0.4103" stop-color="#6fbb6e"/>
      <stop offset="0.6099" stop-color="#5ab35d"/>
      <stop offset="0.8073" stop-color="#4eaf53"/>
      <stop offset="1" stop-color="#4aad50"/>
    </radialGradient>
    <radialGradient id="radial-gradient-11" cx="1365.8407" cy="437.0479" r="1.419" gradientTransform="matrix(0.0503, -0.9087, -1.0664, -0.0591, 536.9108, 1512.2739)" xlink:href="#radial-gradient"/>
  </defs>
  <g class="cls-1">
    <g id="Layer_1" data-name="Layer 1">
      <g id="Hat">
        <g id="King_s_Crown" data-name="King&apos;s Crown">
          <path class="cls-2" d="M135.4333,299.7385a1.0967,1.0967,0,0,0,.8831,1.2819,1.1107,1.1107,0,0,0,1.276-.9058,1.0967,1.0967,0,0,0-.8831-1.2819A1.1106,1.1106,0,0,0,135.4333,299.7385Z"/>
          <ellipse class="cls-2" cx="375.4114" cy="297.7701" rx="1.1523" ry="1.1352" transform="translate(-86.8823 423.8069) rotate(-53.671)"/>
          <g>
            <path class="cls-2" d="M374.08,249.1718a1.2638,1.2638,0,0,0,1.4661,1.0334,1.28,1.28,0,0,0,1.0179-1.4882,1.2636,1.2636,0,0,0-1.466-1.0333A1.28,1.28,0,0,0,374.08,249.1718Z"/>
            <g id="Rubi">
              <path class="cls-3" d="M374.8583,244.41q-.2274-5.8533-.4549-11.7066l1.55,1.9743.288,6.6236Z"/>
              <path class="cls-4" d="M375.9535,234.678l-1.5059-.7436-.0442-1.2307Z"/>
              <path class="cls-4" d="M376.2415,241.3016l-1.29,1.1828q-.0468.9629-.0934,1.9259Z"/>
            </g>
            <g id="Rubi-2" data-name="Rubi">
              <path class="cls-5" d="M374.2768,230.6928q-.32-4.9877-.64-9.9753l1.9872,4.4335Q374.95,227.9218,374.2768,230.6928Z"/>
              <path class="cls-6" d="M373.8129,225.3377l-.1764-4.62,1.9872,4.4335Z"/>
            </g>
            <g id="Rubi-3" data-name="Rubi">
              <path class="cls-7" d="M373.44,218.7066q-.32-4.9877-.64-9.9752l1.7973,2.7171q.1681,1.6149.3361,3.23Z"/>
              <path class="cls-8" d="M372.9888,208.931l-.42,2.7976,2.0285-.28-.0093,1.82-1.3969,3.4427q.1246.9976.2492,1.9952l1.4931-4.0285-1.7423,2.0333q-.3112-2.4913-.6223-4.9828l2.0192,1.54.0093-1.82Z"/>
              <polygon class="cls-9" points="374.597 211.449 374.588 213.269 374.933 214.678 374.597 211.449"/>
            </g>
          </g>
          <g>
            <path class="cls-10" d="M361.604,204.6146a39.6,39.6,0,0,0-1.5843-3.8218q-.8862-1.891-1.9875-3.7564c-3.9125,39.5764-52.26-6.5727-60.3259-19.9116-5.1844-8.58-7.5778-13.7363-8.8527-19.4432-2.1578-.4032-4.3384-.7638-6.5274-1.0844q-3.2751-.4815-6.5815-.8435c-9.0088,35.4709-76.1828,39.6217-87.6987,24.9685-2.175-2.7711-2.175-2.7711-3.8134-10.3292q-1.7077.877-3.3531,1.8029c-.6358.355-1.2548.7155-1.8653,1.0731q-2.5338,1.4907-4.858,3.0551c-1.4252,9.2476-2.0157,13.0749-8.7647,27.7709l-17.2542,38.364c-.0483,16.8056-.0965,36.6434-.1448,53.4545.0483-16.2462,10.9708-32.4526,32.6713-44.63C223.36,227.3257,291.6191,228.01,333.1263,252.825c20.4114,12.2,30.5474,27.9669,30.5047,43.6849.0456-16.7347.0939-36.4986.1393-53.23C363.5034,230.3636,362.1349,217.5132,361.604,204.6146Z"/>
            <path class="cls-11" d="M363.631,292.7c.0427-15.7153-10.0933-31.4819-30.5047-43.6822-41.5072-24.8149-109.7659-25.5019-152.4625-1.5444-21.5868,12.1122-32.4954,28.2137-32.66,44.3718,0,1.4026-.0059,2.8252-.0114,4.1823.0483-16.2433,10.9708-32.4471,32.6713-44.6245,42.6966-23.9633,110.9553-23.27,152.4625,1.5415,20.4114,12.2,30.5474,27.9611,30.5047,43.6793.0456-16.7318.0939-37.2908.1393-54.0255,0-.0878-.0059-.173-.0085-.2582C363.7191,258.35,363.6737,277.1547,363.631,292.7Z"/>
            <path class="cls-12" d="M363.631,293.3783c.0427-15.7183-10.0933-31.4819-30.5047-43.6822-41.5072-24.8149-109.7659-25.5049-152.4625-1.5415-21.5868,12.1122-32.4954,28.2108-32.66,44.3689,0,1.4025-.0059,2.8251-.0114,4.1823.0483-16.2433,10.9708-32.4471,32.6713-44.6245C223.36,228.118,291.6191,228.8079,333.1263,253.62c20.4114,12.2,30.5474,27.9666,30.5047,43.6819.0456-16.7318.0939-37.2908.1393-54.0226,0-.0907-.0059-.1788-.0085-.264C363.7191,259.0288,363.6737,277.8333,363.631,293.3783Z"/>
            <path class="cls-11" d="M273.8965,161.8639a37.221,37.221,0,0,1-2.7684,3.9578c-10.4228,15.23-33.5116,22.237-52.98,22.7964a92.489,92.489,0,0,1-15.9651-.1986C224.3629,192.7693,263.1755,185.549,273.8965,161.8639Z"/>
            <path class="cls-11" d="M148.1344,243.4214l.0029-.0027,17.2542-38.3639c6.749-14.6961,7.3395-18.5234,8.7647-27.7709l-.1419-.034c-1.3316,8.5858-2.1038,12.6573-8.6228,26.8451l-17.2542,38.364C148.1373,242.7713,148.1373,243.1062,148.1344,243.4214Z"/>
            <path class="cls-11" d="M297.7063,177.1248c-4.9571-8.2026-7.3478-13.2792-8.6652-18.6966l-.1875.2161c1.2749,5.704,3.6683,10.8629,8.8527,19.44,4.9319,8.1485,24.892,28.5317,40.5646,34.1221a17.1257,17.1257,0,0,0,9.5229.3236C332.1041,215.219,303.72,187.0652,297.7063,177.1248Z"/>
            <path class="cls-11" d="M349.2929,212.1441c-.1989.0626-.3975.1222-.5992.1762.21-.0569.4515-.0965.6559-.1535C349.33,212.1584,349.31,212.15,349.2929,212.1441Z"/>
            <path class="cls-13" d="M357.893,268.2252c-1.7773,2.34-15.3377,12.9583-19.713-10.4968q-2.3085,1.5673-4.8295,3.0635-1.069.6349-2.1693,1.2551-1.8184,1.0135-3.6854,1.97c-.9824,5.3775-2.3282,12.737-7.78,21.13-20.7888,31.9927-74.38,33.3641-83.8089-6.7007q-3.3048-.37-6.5815-.86-3.2835-.4854-6.519-1.1016c-2.0043,8.0125-2.0043,8.0125-4.5625,11.306-13.2877,17.1321-59.7863,15.3914-64.3463-50.7972q-1.09-1.874-1.9788-3.7732c-.582-1.2694-1.1045-2.5414-1.5531-3.8247-.2782,4.6594-.6588,11.042-2.2288,13.0635q-.0725,25.2084-.1448,50.4166c-.0453,15.7183,10.0962,31.4816,30.5021,43.679,41.5072,24.8123,109.7685,25.5052,152.468,1.5447,21.7-12.1776,32.626-28.3782,32.6684-44.6274q.0684-25.0933.1393-50.1924C363.7191,258.7678,360.3945,264.9346,357.893,268.2252Z"/>
            <path class="cls-14" d="M347.0469,264.4491q-2.5595,1.7331-5.349,3.3929c-.7894.4655-1.5956.9313-2.4076,1.3912-1.34.7466-2.6975,1.4793-4.0774,2.1832l-7.7171-7.399q1.87-.9538,3.6854-1.97,1.0991-.6219,2.1693-1.2551,2.5212-1.4946,4.8295-3.0635Z"/>
            <path class="cls-15" d="M335.2129,271.4164c-1.09,5.9541-2.578,14.1084-8.62,23.4043-23.0292,35.4423-82.3925,36.9585-92.8381-7.425l2.1523-8.9492c9.429,40.0648,63.02,38.6934,83.8089,6.7007,5.4514-8.3928,6.7972-15.7523,7.78-21.13Z"/>
            <path class="cls-14" d="M219.2435,285.2265q3.5862.6817,7.2232,1.2211,3.6245.5365,7.2883.9481l2.1523-8.9492q-3.3048-.37-6.5815-.86-3.2835-.4854-6.519-1.1016Z"/>
            <path class="cls-16" d="M148.1373,242.459l17.2543-38.364c6.7489-14.696,7.3394-18.5233,8.7646-27.7709l-8.8045-2.05c-1.5787,10.2443-2.2317,14.4832-9.713,30.7635l-19.1112,42.498Z"/>
            <path class="cls-14" d="M138.9976,233.0611l11.3685-3.6656,3.5319,7.5979L142.91,241.48A27.5065,27.5065,0,0,1,138.9976,233.0611Z"/>
            <path class="cls-17" d="M218.2443,287.7906c-13.2877,17.1321-59.7863,15.3914-64.3463-50.7972L142.91,241.48c5.0513,73.3179,56.5637,75.2487,71.28,56.2712,2.6123-3.3673,2.82-3.6429,4.58-10.6416C218.6048,287.3219,218.4344,287.5463,218.2443,287.7906Z"/>
            <path class="cls-18" d="M372.9949,205.6138l-11.3909-.9992c.5309,12.8986,1.8994,25.749,2.1663,38.6649-.0512,15.4883-3.3758,21.6551-5.8773,24.9457-.8632,1.1357-4.5173,4.2248-8.5434,4.4065,6.1639,14.9431,17.8165,5.7069,19.5313,3.447,2.771-3.6456,6.4594-10.48,6.516-27.64C375.0989,234.1372,373.58,219.9011,372.9949,205.6138Z"/>
            <path class="cls-14" d="M371.2431,201.3807q-.9882-2.0955-2.2061-4.1625l-11.0048-.1818q1.1029,1.8614,1.9875,3.7564a39.6,39.6,0,0,1,1.5843,3.8218l11.3909.9992A45.65,45.65,0,0,0,371.2431,201.3807Z"/>
            <path class="cls-19" d="M302.2151,175.16c-6.05-9.3127-8.3957-15.2156-9.8124-21.5357l-3.5491,4.0573c1.2749,5.7069,3.6683,10.8629,8.8527,19.4432,6.1669,10.1986,35.88,39.5508,51.2743,35.11C330.5454,206.2273,305.7218,180.56,302.2151,175.16Z"/>
            <path class="cls-14" d="M288.8536,157.6816c-2.1578-.4032-4.3384-.7638-6.5274-1.0844q-3.2751-.4815-6.5815-.8435l2.1381-4.2646q3.6669.4,7.2941.9313c2.4245.3579,4.8379.7582,7.2258,1.2039Z"/>
            <path class="cls-20" d="M202.1826,187.46c22.18,4.35,60.9929-2.87,71.7139-26.5556C260.924,182.3605,225.8989,189.9866,202.1826,187.46Z"/>
            <path class="cls-14" d="M174.1562,176.3241q2.3253-1.563,4.858-3.0551c.6105-.3576,1.23-.7181,1.8653-1.0731q1.648-.9241,3.3531-1.8029l-7.72-2.6887q-1.887.9708-3.7139,1.9988c-.7012.3916-1.3883.7894-2.0669,1.19q-2.8068,1.6481-5.38,3.3813Z"/>
            <path class="cls-21" d="M368.8809,276.0787c-1.9677,2.5893-16.9874,14.3495-21.834-11.63q-2.5595,1.7331-5.349,3.3929c-.7894.4655-1.5956.9313-2.4076,1.3912-1.34.7466-2.6975,1.4793-4.0774,2.1832-1.09,5.9541-2.578,14.1084-8.62,23.4043-23.0292,35.4423-82.3925,36.9585-92.8381-7.425q-3.6626-.4086-7.2883-.9481-3.6372-.5412-7.2232-1.2211c-2.223,8.8728-2.223,8.8728-5.0539,12.5242-14.7158,18.9775-66.2282,17.0467-71.28-56.2712q-1.2093-2.0786-2.189-4.1794-.9752-2.1081-1.7235-4.239c-.3064,5.1644-.73,12.237-2.47,14.4745-.0509,18.614.0512,37.1118,0,55.7316-.0509,17.4133,11.1839,34.8719,33.793,48.3867,45.9732,27.4839,121.5882,28.2506,168.8872,1.7092,24.04-13.4894,36.141-31.4362,36.1892-49.4315.0512-18.5347-.0537-36.9557,0-55.4932C375.34,265.599,371.6519,272.4331,368.8809,276.0787Z"/>
            <path class="cls-11" d="M326.5931,295.99c6.0418-9.2984,7.53-17.4528,8.62-23.4069l-.1846-.1759c-1.0815,5.8544-2.714,13.6084-8.4352,22.4132-22.93,35.2917-81.8784,36.93-92.69-6.88l-.1476.6248C244.2006,332.9459,303.5639,331.43,326.5931,295.99Z"/>
            <path class="cls-11" d="M375.3856,249.2591c-.1733,16.5414-3.779,23.2336-6.5047,26.82-1.6723,2.2032-12.771,11.0132-19.04-2.3425-.1648.0172-.3265.0567-.4913.0625,6.1639,14.9429,17.8165,5.7069,19.5313,3.4467,2.771-3.6455,6.4594-10.48,6.516-27.6316v-.0055C375.394,249.4917,375.3885,249.3725,375.3856,249.2591Z"/>
            <path class="cls-11" d="M143.01,242.6067l-.0994.04c5.0513,73.3211,56.5637,75.249,71.28,56.2713,2.6123-3.3674,2.82-3.6427,4.58-10.6414-.1389.1788-.2866.3748-.4428.5733-1.3743,5.3267-1.76,5.8378-4.1369,8.9013C199.5477,316.6261,148.5234,314.789,143.01,242.6067Z"/>
            <path class="cls-11" d="M375.3969,284.0371c-.0482,17.9951-12.1491,35.9421-36.1892,49.4313-47.299,26.5413-122.914,25.7749-168.8872-1.7092-22.6091-13.5148-33.8439-30.9734-33.793-48.3864v6.5216c-.0509,17.4132,11.1839,34.8745,33.793,48.39,45.9732,27.481,121.5882,28.2477,168.8872,1.7064,24.04-13.4895,36.141-31.4363,36.1892-49.4316Z"/>
            <path class="cls-11" d="M375.3969,285.3574c-.0482,17.995-12.1491,35.9421-36.1892,49.4313-47.299,26.5413-122.914,25.7749-168.8872-1.7093-22.6091-13.5148-33.8439-30.9734-33.793-48.3864v6.5216c-.0509,17.4133,11.1839,34.8745,33.793,48.39,45.9732,27.4839,121.5882,28.2477,168.8872,1.7063,24.04-13.4894,36.141-31.4362,36.1892-49.4315Z"/>
            <path class="cls-22" d="M375.3969,284.9c-.0482,17.9954-12.1491,35.9422-36.1892,49.4316-47.299,26.5414-122.914,25.7747-168.8872-1.7093-22.6091-13.5147-33.8439-30.9733-33.793-48.3866v6.5219c-.0509,17.413,11.1839,34.8745,33.793,48.3892,45.9732,27.4843,121.5882,28.248,168.8872,1.7067,24.04-13.49,36.141-31.4363,36.1892-49.4316Z"/>
            <path class="cls-12" d="M339.2077,339.4309c-47.299,26.5413-122.914,25.7776-168.8872-1.7064-22.6091-13.515-33.8439-30.9762-33.793-48.3895v1.4226c-.0509,17.413,11.1839,34.8745,33.793,48.3892,45.9732,27.4843,121.5882,28.248,168.8872,1.7067,24.04-13.49,36.141-31.4363,36.1892-49.4316v-1.4226C375.3487,307.9976,363.2478,325.9417,339.2077,339.4309Z"/>
          </g>
          <g>
            <ellipse class="cls-2" cx="247.4107" cy="366.6889" rx="1.8042" ry="1.8315"/>
            <ellipse class="cls-2" cx="236.2098" cy="365.8924" rx="1.8042" ry="1.8315"/>
            <ellipse class="cls-2" cx="225.0089" cy="364.4985" rx="1.8042" ry="1.8315"/>
            <ellipse class="cls-2" cx="213.808" cy="362.6667" rx="1.8042" ry="1.8315"/>
            <ellipse class="cls-2" cx="202.6071" cy="359.7544" rx="1.8042" ry="1.8315"/>
            <ellipse class="cls-2" cx="191.7796" cy="356.0908" rx="1.8042" ry="1.8315"/>
            <ellipse class="cls-2" cx="181.4" cy="351.7598" rx="1.8042" ry="1.8315"/>
            <ellipse class="cls-2" cx="171.7673" cy="346.682" rx="1.8042" ry="1.8315"/>
            <ellipse class="cls-2" cx="162.9559" cy="340.6335" rx="1.8042" ry="1.8315"/>
            <ellipse class="cls-2" cx="154.5926" cy="333.913" rx="1.8042" ry="1.8315"/>
            <ellipse class="cls-2" cx="147.9924" cy="326.6345" rx="1.7507" ry="1.7772"/>
            <ellipse class="cls-2" cx="142.9101" cy="319.1672" rx="1.5296" ry="1.5528"/>
            <ellipse class="cls-2" cx="139.4751" cy="311.8493" rx="1.3614" ry="1.3411" transform="translate(-201.3771 334.7187) rotate(-69.7418)"/>
            <ellipse class="cls-2" cx="137.0358" cy="305.1287" rx="1.1119" ry="1.0953" transform="translate(-196.667 328.0368) rotate(-69.7418)"/>
            <ellipse class="cls-2" cx="258.6116" cy="366.6889" rx="1.8042" ry="1.8315"/>
            <ellipse class="cls-2" cx="269.8125" cy="366.2408" rx="1.8042" ry="1.8315"/>
            <ellipse class="cls-2" cx="281.0134" cy="365.0461" rx="1.8042" ry="1.8315"/>
            <ellipse class="cls-2" cx="292.2143" cy="363.4033" rx="1.8042" ry="1.8315"/>
            <ellipse class="cls-2" cx="303.4152" cy="361.0139" rx="1.8042" ry="1.8315"/>
            <ellipse class="cls-2" cx="314.6161" cy="357.9523" rx="1.8042" ry="1.8315"/>
            <ellipse class="cls-2" cx="325.2197" cy="354.2887" rx="1.8042" ry="1.8315"/>
            <ellipse class="cls-2" cx="335.2134" cy="349.5506" rx="1.8042" ry="1.8315"/>
            <ellipse class="cls-2" cx="344.6098" cy="344.4107" rx="1.8042" ry="1.8315"/>
            <ellipse class="cls-2" cx="352.8238" cy="338.4913" rx="1.8042" ry="1.8315"/>
            <ellipse class="cls-2" cx="359.6937" cy="332.2017" rx="1.7507" ry="1.7772"/>
            <ellipse class="cls-2" cx="364.9955" cy="325.9292" rx="1.683" ry="1.6579" transform="translate(-113.8134 426.8925) rotate(-53.671)"/>
            <ellipse class="cls-2" cx="369.2518" cy="319.4094" rx="1.3795" ry="1.3589" transform="translate(-106.8261 427.6642) rotate(-53.671)"/>
            <ellipse class="cls-2" cx="372.0894" cy="313.5351" rx="1.3341" ry="1.3142" transform="translate(-100.9371 427.556) rotate(-53.671)"/>
            <ellipse class="cls-2" cx="374.0899" cy="307.86" rx="1.1523" ry="1.1352" transform="translate(-95.5496 426.8547) rotate(-53.671)"/>
            <ellipse class="cls-2" cx="375.4114" cy="302.3657" rx="1.1523" ry="1.1352" transform="translate(-90.5847 425.68) rotate(-53.671)"/>
          </g>
          <g>
            <circle class="cls-23" cx="366.6516" cy="194.8495" r="8.7453"/>
            <circle class="cls-24" cx="227.6527" cy="274.8189" r="10.8162"/>
            <circle class="cls-25" cx="337.2714" cy="258.4631" r="9.896"/>
            <circle class="cls-26" cx="284.3182" cy="147.7948" r="8.5735"/>
            <circle class="cls-27" cx="173.7829" cy="165.7456" r="9.0343"/>
            <circle class="cls-28" cx="146.4478" cy="228.9715" r="9.5765"/>
          </g>
          <g>
            <ellipse class="cls-2" cx="223.2222" cy="340.1855" rx="1.8042" ry="1.8315"/>
            <g id="Emerald">
              <polygon class="cls-3" points="228.293 330.977 228.851 323.008 227.153 321.054 221.937 320.689 220.027 322.349 219.467 330.359 221.107 332.247 226.33 332.613 228.293 330.977"/>
              <path class="cls-4" d="M226.91,329.53l1.3833,1.4476-1.9636,1.6352-.7259-1.995-3.4745-.2432-1.0224,1.8725-1.64-1.8874,1.5714-1.2408.3731-5.3291-1.3837-1.4407,1.91-1.66.7444,1.9963,3.47.2429,1.0015-1.874,1.6984,1.9541-1.57,1.22Z"/>
              <polygon class="cls-29" points="226.91 329.53 227.281 324.228 226.152 322.928 222.682 322.685 221.411 323.79 221.038 329.119 222.129 330.374 225.604 330.618 226.91 329.53"/>
            </g>
            <g id="Rubi-4" data-name="Rubi">
              <polygon class="cls-5" points="219.949 309.664 225.342 304.676 230.284 310.019 224.883 315.015 219.949 309.664"/>
              <path class="cls-6" d="M219.95,309.6636l2.8766.1294,2.36-2.234.1553-2.8829,4.9422,5.3432-2.9245-.1289-2.38,2.2107q-.048,1.4568-.0959,2.9136Z"/>
              <path class="cls-30" d="M222.8261,309.793l2.36-2.234q1.0864,1.1656,2.173,2.3314l-2.38,2.2107Q223.9025,310.9471,222.8261,309.793Z"/>
            </g>
            <g id="Diamond">
              <polygon class="cls-31" points="225.722 298.91 222.196 296.417 222.542 292.074 226.419 290.142 230.116 292.595 229.763 297.045 225.722 298.91"/>
              <path class="cls-7" d="M229.7628,297.0454l-1.0249-2.3074-3.0161,4.1717-3.5254-2.4926,2.47.1963-1.0492-2.2824-1.42,2.0861.3452-4.3435,1.0753,2.2574,2.8016-4.1887,2.3194,4.5957,1.3786-2.1433Z"/>
              <path class="cls-8" d="M229.7628,297.0454l-2.5468-.2024-1.4942,2.0667-1.0557-2.2963-2.1245-4.54,7.5749.5211-1.3786,2.1433Z"/>
              <path class="cls-32" d="M227.216,296.843l-2.55-.23-1.06-2.266,1.4073-2.1038,2.54.1473,1.1845,2.3471Z"/>
            </g>
            <path class="cls-11" d="M215.4912,348.73a6.7765,6.7765,0,0,0,2.8705-.1778c3.3437-.9643,4.6931-4.2873,4.891-4.7977a10.4859,10.4859,0,0,0,7.3723,7.5135,16.3054,16.3054,0,0,1-15.1338-2.538Z"/>
            <path class="cls-22" d="M216.0276,349.7052a6.73,6.73,0,0,0,3.2115-.406,7.1625,7.1625,0,0,0,3.8246-3.7978,9.5361,9.5361,0,0,0,7.3531,6.6034,13.2669,13.2669,0,0,1-14.3892-2.4Z"/>
          </g>
          <g>
            <path class="cls-11" d="M340.1123,332.9449a9.9356,9.9356,0,0,0,4.9516-8.4357,3.2982,3.2982,0,0,0,2.3895,2.6882,3.0691,3.0691,0,0,0,2.0806-.3127l-2.8713,5.579Z"/>
            <path class="cls-22" d="M339.8189,333.9861a10.3657,10.3657,0,0,0,4.23-3.8871,10.207,10.207,0,0,0,1.3623-3.8865,2.9492,2.9492,0,0,0,1.7438,1.7815,3.0272,3.0272,0,0,0,2.7656-.5282q-1.6288,2.499-3.2576,4.9979Z"/>
            <path class="cls-2" d="M342.8094,320.5513a1.8065,1.8065,0,0,0,1.9222,1.697,1.83,1.83,0,0,0,1.6787-1.9561,1.8066,1.8066,0,0,0-1.9223-1.697A1.83,1.83,0,0,0,342.8094,320.5513Z"/>
            <g id="Emerald-2" data-name="Emerald">
              <path class="cls-3" d="M347.777,309.948l-.0123-7.2133-1.73-1.4487-4.2373.95-1.95,1.7848q.0762,4.0827.1525,8.1653l1.5157,1.3694,5.1161-1.4663Q347.2045,311.0183,347.777,309.948Z"/>
              <path class="cls-4" d="M347.08,309.2013l.6969.7467q-.5724,1.07-1.145,2.1407l-.448-1.17-3.3289.8151-1.3392,1.8211L340,312.1856l1.3494-1.2831-.066-5.9417-1.4359-.94,1.95-1.7848.8657,1.7936,3.2471-.6771.1244-2.066,1.73,1.4487q-.33.7194-.66,1.4387Z"/>
              <path class="cls-33" d="M347.08,309.2013l.0248-5.0279-1.1947-.8214-3.2471.6771-1.38.9317.066,5.9417,1.5055.8314,3.3289-.8151Z"/>
            </g>
            <g id="Rubi-5" data-name="Rubi">
              <path class="cls-5" d="M339.6541,292.0928l4.2231-5.3257q2.0072,2.3727,4.0144,4.7455-2.0251,2.7354-4.05,5.4707Q341.7477,294.538,339.6541,292.0928Z"/>
              <path class="cls-6" d="M339.6541,292.0928l3.119-.1187,1.609-2.0292-.5049-3.1778q2.0072,2.3727,4.0144,4.7455l-1.98.24-1.5432,2.0845-.5271,3.1458Q341.7477,294.538,339.6541,292.0928Z"/>
              <path class="cls-34" d="M342.7731,291.9741l1.609-2.0292,1.53,1.8081-1.5432,2.0845Q343.5708,292.9059,342.7731,291.9741Z"/>
            </g>
            <g id="Diamond-2" data-name="Diamond">
              <path class="cls-31" d="M343.5066,282.8013l-3.6681-1.5293-.4785-4.3127,3.5337-2.7136,3.4755,1.462.4869,4.3906Z"/>
              <path class="cls-7" d="M346.8561,280.0983l-1.0516-1.954q-.48,1.0179-.9595,2.0357l-1.3384,2.6213-3.6681-1.5293,2.7548-.8826q-.567-.9792-1.134-1.9583-.81,1.4205-1.6208,2.8409l-.4785-4.3127,2.0993,1.4718q.5162-1.0221,1.0324-2.0442l.402-2.1412,1.6454,1.941,1.2654,1.9576.5647-2.4366Z"/>
              <path class="cls-8" d="M346.8561,280.0983l-2.0111.0817-1.3384,2.6213-.9133-2.4119q-.567-.9792-1.134-1.9583l-2.0993-1.4718,3.1317-.5724,2.0474-.2,1.83-.479-.5647,2.4366Z"/>
              <path class="cls-35" d="M344.845,280.18l-2.2516.2094q-.5671-.9792-1.1342-1.9583.5163-1.0221,1.0325-2.0442l2.0474-.2,1.2654,1.9576Q345.3248,279.1622,344.845,280.18Z"/>
            </g>
          </g>
          <g>
            <path class="cls-11" d="M137.92,294.0525q-.1065-.8658-.1751-1.7894a36.2378,36.2378,0,0,1,.0155-5.4511q-.3742,2.9349-.6347,2.9246-.0915-.0034-.1689-.37.1081,2.9419.2162,5.8839Z"/>
            <path class="cls-22" d="M137.8093,294.4909c-.1285-.8933-.2293-1.8727-.28-2.9279-.0415-.8728-.0434-1.6955-.0187-2.4611-.0847.5268-.2258.9219-.3609.921-.1395-.0009-.2821-.4243-.3544-1.02l-.0687,1.6639.4455,4.5831Z"/>
            <path class="cls-2" d="M137.0913,283.9985a1.2636,1.2636,0,0,0,1.466,1.0333,1.28,1.28,0,0,0,1.018-1.4882,1.2637,1.2637,0,0,0-1.4661-1.0333A1.28,1.28,0,0,0,137.0913,283.9985Z"/>
            <g id="Emerald-3" data-name="Emerald">
              <path class="cls-3" d="M135.8808,274.827q.1617-4.0137.3236-8.0273l.896-1.1574,3.663,2.1468.8921,2.1842q-.336,3.5469-.6721,7.0939l-1.68.9956-2.7479-1.6612Z"/>
              <path class="cls-4" d="M135.6838,273.4223l.197,1.4047,2.6882,1.5432.7343,1.6926,1.68-.9956-1.2072-1.6553q.1394-2.59.2788-5.1793l1.6-.2593-.8921-2.1842-1.3908.7727-2.802-1.6422.53-1.2773-.896,1.1574-.3192,1.0053Q135.7844,270.6136,135.6838,273.4223Z"/>
              <path class="cls-36" d="M135.6838,273.4223q.1007-2.8086.2014-5.6173l.6854-.8854,2.802,1.6422.6824,1.6708q-.14,2.59-.2788,5.1793l-1.2072.9583-2.6882-1.5432Z"/>
            </g>
            <g id="Rubi-6" data-name="Rubi">
              <path class="cls-5" d="M137.1669,256.8312l2.0426-4.3427,1.3326,5.823-2.0906,3.5408-.9061-3.016Z"/>
              <path class="cls-6" d="M137.1669,256.8312l.78-1.5679h0l1.2627-2.7748,1.3326,5.823-2.0866-.8251-.91,1.35.9061,3.016-.9061-3.016Z"/>
              <path class="cls-37" d="M137.1669,256.8312q.39-.7839.78-1.5679.2544,1.1115.5087,2.2231l-.91,1.35Z"/>
            </g>
            <g id="Diamond-3" data-name="Diamond">
              <path class="cls-31" d="M139.5638,248.6986l2.1674-1.2086q.22-1.6073.4394-3.2146l-1.9025-1.7584-2.0766,1.2578q-.163,1.63-.3262,3.2594Z"/>
              <path class="cls-7" d="M137.8653,247.0342l.3488-1.8219-.3488,1.8219,1.6985,1.6644,2.1674-1.2086-1.4608-.7191.6786-1.2676.7822,1.9867q.22-1.6073.4394-3.2146l-1.2216,1.2279-.3836-1.5247-.2973-1.4616-1.1536,1.3905-.9,1.3048-.0226-1.4375Q138.0285,245.4046,137.8653,247.0342Z"/>
              <path class="cls-8" d="M137.8653,247.0342l.7714-.3719q.4635,1.0182.9271,2.0363l.7066-1.9277.6786-1.2676,1.2216-1.2279-1.6052-.2968-1.4509-.0711-.923-.1327.0226,1.4375Z"/>
              <path class="cls-38" d="M138.6367,246.6623l1.6337.1086.6786-1.2676-.3836-1.5247-1.4509-.0711-.9,1.3048Z"/>
            </g>
          </g>
        </g>
      </g>
    </g>
  </g>
</svg>
