<svg xmlns="http://www.w3.org/2000/svg" xmlns:xlink="http://www.w3.org/1999/xlink" width="512" height="512" viewBox="0 0 512 512">
  <defs>
    <style>
      .cls-1 {
        isolation: isolate;
      }

      .cls-2 {
        fill: #963;
      }

      .cls-3 {
        fill: #ab6377;
      }

      .cls-10, .cls-13, .cls-18, .cls-19, .cls-3, .cls-4, .cls-5, .cls-6 {
        mix-blend-mode: multiply;
      }

      .cls-18, .cls-3 {
        opacity: 0.5;
      }

      .cls-4, .cls-5 {
        opacity: 0.6;
      }

      .cls-4 {
        fill: url(#linear-gradient);
      }

      .cls-5 {
        fill: url(#linear-gradient-2);
      }

      .cls-6 {
        fill: url(#_111);
      }

      .cls-7 {
        fill: url(#linear-gradient-3);
      }

      .cls-8 {
        fill: #ffb805;
      }

      .cls-9 {
        fill: #fff65f;
      }

      .cls-10 {
        fill: url(#linear-gradient-4);
      }

      .cls-11 {
        fill: #221229;
      }

      .cls-12 {
        fill: url(#linear-gradient-5);
      }

      .cls-13 {
        fill: #803689;
        opacity: 0.1;
      }

      .cls-14 {
        fill: url(#linear-gradient-6);
      }

      .cls-15 {
        fill: url(#linear-gradient-7);
      }

      .cls-16 {
        fill: url(#linear-gradient-8);
      }

      .cls-17 {
        fill: #5f5273;
      }

      .cls-18 {
        fill: #904f98;
      }

      .cls-19 {
        fill: #a6587c;
        opacity: 0.4;
      }

      .cls-20 {
        fill: url(#linear-gradient-9);
      }

      .cls-21 {
        fill: url(#linear-gradient-10);
      }

      .cls-22 {
        fill: #9fa0ad;
      }

      .cls-23 {
        fill: #c50013;
      }

      .cls-24 {
        fill: #f3001e;
      }

      .cls-25 {
        fill: url(#radial-gradient);
      }

      .cls-26 {
        fill: url(#radial-gradient-2);
      }

      .cls-27 {
        fill: url(#radial-gradient-3);
      }

      .cls-28 {
        fill: url(#radial-gradient-4);
      }

      .cls-29 {
        fill: url(#radial-gradient-5);
      }

      .cls-30 {
        fill: url(#radial-gradient-6);
      }
    </style>
    <linearGradient id="linear-gradient" x1="121.6161" y1="615.3685" x2="-314.8932" y2="249.1975" gradientTransform="matrix(-0.8511, 0.7503, 0.7446, 0.8447, -104.3705, 14.6277)" gradientUnits="userSpaceOnUse">
      <stop offset="0" stop-color="#fff"/>
      <stop offset="0.1118" stop-color="#fcfafa"/>
      <stop offset="0.2512" stop-color="#f3eaeb"/>
      <stop offset="0.4053" stop-color="#e4d1d2"/>
      <stop offset="0.5701" stop-color="#d0adb0"/>
      <stop offset="0.7433" stop-color="#b58084"/>
      <stop offset="0.9209" stop-color="#96494f"/>
      <stop offset="1" stop-color="#862e35"/>
    </linearGradient>
    <linearGradient id="linear-gradient-2" x1="129.1771" y1="598.2599" x2="-282.9594" y2="252.5344" xlink:href="#linear-gradient"/>
    <linearGradient id="_111" data-name="  111" x1="213.4967" y1="673.5275" x2="-417.8469" y2="143.9175" gradientTransform="matrix(-0.8511, 0.7503, 0.7446, 0.8447, -104.3705, 14.6277)" gradientUnits="userSpaceOnUse">
      <stop offset="0" stop-color="#862e57"/>
      <stop offset="0.0791" stop-color="#96496d"/>
      <stop offset="0.2567" stop-color="#b58099"/>
      <stop offset="0.4299" stop-color="#d0adbd"/>
      <stop offset="0.5947" stop-color="#e4d1da"/>
      <stop offset="0.7488" stop-color="#f3eaee"/>
      <stop offset="0.8882" stop-color="#fcfafb"/>
      <stop offset="1" stop-color="#fff"/>
    </linearGradient>
    <linearGradient id="linear-gradient-3" x1="27.8176" y1="529.5726" x2="-85.5817" y2="462.2806" gradientTransform="matrix(-0.8511, 0.7503, 0.7446, 0.8447, -104.3705, 14.6277)" gradientUnits="userSpaceOnUse">
      <stop offset="0" stop-color="#ffb805"/>
      <stop offset="0.234" stop-color="#efab04"/>
      <stop offset="0.6914" stop-color="#c48802"/>
      <stop offset="1" stop-color="#a46e00"/>
    </linearGradient>
    <linearGradient id="linear-gradient-4" x1="307.5644" y1="614.3675" x2="-237.4667" y2="399.2234" gradientTransform="matrix(-0.8511, 0.7503, 0.7446, 0.8447, -104.3705, 14.6277)" gradientUnits="userSpaceOnUse">
      <stop offset="0" stop-color="#fff"/>
      <stop offset="0.1108" stop-color="#f6f0f5"/>
      <stop offset="0.3233" stop-color="#e0c9d9"/>
      <stop offset="0.6159" stop-color="#bb8aad"/>
      <stop offset="0.9742" stop-color="#8a3471"/>
      <stop offset="1" stop-color="#862e6c"/>
    </linearGradient>
    <linearGradient id="linear-gradient-5" x1="-128.2144" y1="457.6191" x2="-155.3449" y2="253.2924" gradientTransform="matrix(-0.8405, 0.7622, 0.7564, 0.8342, -104.1842, 16.4509)" gradientUnits="userSpaceOnUse">
      <stop offset="0" stop-color="#666173"/>
      <stop offset="0.1922" stop-color="#6a6677"/>
      <stop offset="0.4054" stop-color="#767383"/>
      <stop offset="0.6287" stop-color="#8a8998"/>
      <stop offset="0.8575" stop-color="#a6a8b4"/>
      <stop offset="1" stop-color="#bbbfc9"/>
    </linearGradient>
    <linearGradient id="linear-gradient-6" x1="-279.4434" y1="296.5489" x2="-42.6053" y2="296.5489" gradientTransform="matrix(-0.8405, 0.7622, 0.7564, 0.8342, -104.1842, 16.4509)" gradientUnits="userSpaceOnUse">
      <stop offset="0" stop-color="#5e4f65"/>
      <stop offset="0.4236" stop-color="#594d67"/>
      <stop offset="0.8926" stop-color="#4c496b"/>
      <stop offset="1" stop-color="#48476d"/>
    </linearGradient>
    <linearGradient id="linear-gradient-7" x1="-86.2636" y1="226.2018" x2="7.9567" y2="378.8457" gradientTransform="matrix(-0.8405, 0.7622, 0.7564, 0.8342, -104.1842, 16.4509)" gradientUnits="userSpaceOnUse">
      <stop offset="0" stop-color="#76657d"/>
      <stop offset="0.3397" stop-color="#71637c"/>
      <stop offset="0.7158" stop-color="#645b7b"/>
      <stop offset="1" stop-color="#555379"/>
    </linearGradient>
    <linearGradient id="linear-gradient-8" x1="172.9952" y1="230.2243" x2="400.4436" y2="230.2243" gradientTransform="matrix(1, 0, 0, 1, 0, 0)" xlink:href="#linear-gradient-6"/>
    <linearGradient id="linear-gradient-9" x1="225.7102" y1="137.6788" x2="285.1807" y2="137.6788" gradientTransform="translate(21.5857 -34.1276) rotate(7.9795)" gradientUnits="userSpaceOnUse">
      <stop offset="0" stop-color="#666173"/>
      <stop offset="0.5889" stop-color="#6b6276"/>
      <stop offset="1" stop-color="#72637c"/>
    </linearGradient>
    <linearGradient id="linear-gradient-10" x1="225.7334" y1="134.6716" x2="285.1575" y2="134.6716" gradientTransform="matrix(1, 0, 0, 1, 0, 0)" xlink:href="#linear-gradient-9"/>
    <radialGradient id="radial-gradient" cx="543.4362" cy="175.2028" r="2.8712" gradientTransform="matrix(0.679, 0.7341, -0.7341, 0.679, -9.6693, -329.2106)" gradientUnits="userSpaceOnUse">
      <stop offset="0" stop-color="#f3adc1"/>
      <stop offset="0.0879" stop-color="#f691a0"/>
      <stop offset="0.1975" stop-color="#f9747f"/>
      <stop offset="0.3154" stop-color="#fb5c63"/>
      <stop offset="0.4423" stop-color="#fd4a4e"/>
      <stop offset="0.5825" stop-color="#fe3d3f"/>
      <stop offset="0.7464" stop-color="#ff3536"/>
      <stop offset="0.9916" stop-color="#f33"/>
    </radialGradient>
    <radialGradient id="radial-gradient-2" cx="575.2267" cy="193.6351" r="2.8712" xlink:href="#radial-gradient"/>
    <radialGradient id="radial-gradient-3" cx="604.9103" cy="212.8148" r="2.8712" xlink:href="#radial-gradient"/>
    <radialGradient id="radial-gradient-4" cx="562.0947" cy="17.1383" r="2.8712" gradientTransform="translate(86.3252 -347.3018) rotate(57.9106)" xlink:href="#radial-gradient"/>
    <radialGradient id="radial-gradient-5" cx="593.8852" cy="35.5706" r="2.8712" gradientTransform="translate(86.3252 -347.3018) rotate(57.9106)" xlink:href="#radial-gradient"/>
    <radialGradient id="radial-gradient-6" cx="623.5688" cy="54.7504" r="2.8712" gradientTransform="translate(86.3252 -347.3018) rotate(57.9106)" xlink:href="#radial-gradient"/>
  </defs>
  <g class="cls-1">
    <g id="Layer_1" data-name="Layer 1">
      <g id="Item">
        <g id="Mace">
          <g>
            <path class="cls-2" d="M278.5919,382.0157c1.927,2.3113,5.7644,2.8714,10.32,2.2512l.0081-.0074a36.2064,36.2064,0,0,0,4.45-.9132,54.8422,54.8422,0,0,0,12.089-4.9507,42.3379,42.3379,0,0,0,7.9871-5.6255,16.9782,16.9782,0,0,0,3.78-4.7575c.9-1.8305.6307-8.4926-.4227-18.2425-2.2413-20.5731-8.01-55.2608-13.7291-87.4423-.2-1.141-.4077-2.2752-.6095-3.4018-6.7615-37.8007-13.2152-71.0787-13.2152-71.0787s-29.1006,3.8679-32.3819,8.9144c-1.3775,2.1236,1.27,35.3839,5.2161,72.9946.253,2.4621.5171,4.9529.7808,7.44.1019.9968.2188,1.9934.3274,2.9973.3762,3.4323.7631,6.89,1.1491,10.34,1.03,9.1875,2.1187,18.3478,3.216,27.12.02.2195.0484.4313.0767.6431.6683,5.2927,1.34,10.4513,1.9961,15.3837C273.1049,359.5944,276.4642,379.4636,278.5919,382.0157Z"/>
            <path class="cls-3" d="M264.3409,290.533c16.2442-28.5952,31.1119-32.02,38.1237-31.607-6.7615-37.8007-13.2152-71.0787-13.2152-71.0787s-29.1006,3.8679-32.3819,8.9144c-1.3775,2.1236,1.27,35.3839,5.2161,72.9946.253,2.4621.5171,4.9529.7808,7.44.1019.9968.2188,1.9934.3274,2.9973C263.568,283.6257,263.9549,287.0831,264.3409,290.533Z"/>
            <path class="cls-4" d="M305.4586,378.3956a42.3379,42.3379,0,0,0,7.9871-5.6255c-11.8694-15.0423-15.7892-55.6126-14.7107-85.7713,1.2285-34.5322-10.1482-47.5494-10.1482-47.5494s-7.2724,3.1316,2.1371,11.52c9.338,8.3246,5.2591,58.1472,7.537,97.9369C299.1151,363.81,302.07,372.87,305.4586,378.3956Z"/>
            <path class="cls-5" d="M288.9119,384.2669l.0081-.0074a36.2064,36.2064,0,0,0,4.45-.9132c-2.4127-3.2919-5.9325-8.8852-9.803-18.517-7.656-19.0033,12.9889-56.504,9.8733-79.325l-.0064-.0081q-.0414-.4065-.1078-.79c-2.522-15.4662-10.8526-23.6724-18.1071-28.2a54.0439,54.0439,0,0,0-9.0548-4.4337l-5.0253,4.68s22.8163,4.5747,28.3592,29.5136c2.9307,13.1628-1.1835,29.9653-5.4532,45.24l-.0082.0075a.2116.2116,0,0,1-.0154.0693c-.0153.0693-.0525.2-.1015.369-3.6495,13.0531-7.38,24.9715-6.85,32.5167a24.4252,24.4252,0,0,0,4.6987,12.6342l.0063.0076A32.5669,32.5669,0,0,0,288.9119,384.2669Z"/>
            <path class="cls-3" d="M281.7682,377.1023c-.7765-1.467-3.7149-7.31-4.1347-13.3-.4569-6.4019,5.3752-28.425,6.2859-31.8511-3.6495,13.0531-7.38,24.9715-6.85,32.5167A24.4252,24.4252,0,0,0,281.7682,377.1023Z"/>
            <path class="cls-6" d="M278.5919,382.0157c6.3619,7.6307,33.63-3.8481,38.634-14.0031.9-1.8305.6307-8.4926-.4227-18.2425-4.5539,7.4738-12.0912,14.1506-24.194,11.5157-23.0075-4.9862-28.0455-104.4224,10.4649-98.958-6.9706-39.1756-13.8247-74.4805-13.8247-74.4805s-29.1006,3.8679-32.3819,8.9144C253.6011,201.79,272.1881,374.3347,278.5919,382.0157Z"/>
            <g>
              <path class="cls-7" d="M291.6659,413.4c6.2258-.0052,19.8159-4.1628,27.1-10.4838,7.3118-6.3456,16.1627-31.0686,16.59-34.3043.4316-3.2711-17.75-9.727-17.75-9.727s-14.4341,14.0427-24.76,15.6569c-10.3479,1.6176-17.1947-2.4791-17.3087-3.0847-.1119-.5027-9.898,15.2435-11.4839,20.6915l-.0222.0724a2.6442,2.6442,0,0,0-.1136,1.5126C265.0481,396.1915,285.4005,413.4047,291.6659,413.4Z"/>
              <path class="cls-8" d="M263.9173,393.7336s14.792,8.0813,36.5405.0218c21.7285-8.0608,34.8981-25.1435,34.8981-25.1435.4316-3.2711-17.75-9.727-17.75-9.727s-14.4341,14.0427-24.76,15.6569c-10.3479,1.6176-17.1947-2.4791-17.3087-3.0847-.1119-.5027-9.898,15.2435-11.4839,20.6915l-.0222.0724Z"/>
              <path class="cls-9" d="M333.4945,370.8127a68.1815,68.1815,0,0,1-46.06,26.15,96.3681,96.3681,0,0,0,46.06-26.15Z"/>
              <path class="cls-10" d="M317.6059,358.8849s-10.9125,9.0132-22.7583,12.5361c-11.8626,3.5278-19.3106.0361-19.3106.0361s5.9958,9.886,19.73,4.0409A62.66,62.66,0,0,0,317.6059,358.8849Z"/>
            </g>
          </g>
          <path class="cls-11" d="M396.7931,145.4751s-4.0366,8.6549-2.7011,9.6918,3.05,1.3341,3.55,2.01,3.3236,6.8177,2.7709,7.8123-9.4079.423-9.4079.423l-4.7443-11.3593L397.1484,140.47Z"/>
          <path class="cls-12" d="M139.1279,268.3993c1.3775.9861,17.5911,9.3548,33.6271,16.5915l.0678.0255a1.1479,1.1479,0,0,0,.1724.0756c14.8592,6.7137,29.5369,12.4195,32.2948,10.4656,5.7449-4.0827,187.72-76.5185,190.3612-82.2674,1.1291-2.48,3.1809-24.4244,4.7619-48.3014a51.1076,51.1076,0,0,1-4.749-3.326c-2.045-1.6168-3.8417-3.3874-4.2985-4.883-.59-1.9505,2.8642-7.6263,6.4886-12.8575,1.3989-1.9968,2.8054-3.9267,4.0335-5.5665.8808-20.0138.9666-36.3144-.7121-36.6088-4.3721-.7487-80.9476-3.975-83.5917-2.94-4.6418,1.7742-193.04,71.796-207.3062,81.08a3.0586,3.0586,0,0,0-.5572.4849C106.6225,185.0522,136.4445,266.4752,139.1279,268.3993Z"/>
          <path class="cls-13" d="M217.4176,280.291c9.6385,4.2748,157.7672-62.3644,166.5357-72.7274,4.0223-4.7528,8.6427-25.0236,11.7108-45.9009-2.045-1.6168-3.8417-3.3874-4.2985-4.883-.59-1.9505,2.8642-7.6263,6.4886-12.8575,1.825-18.2192,1.8263-33.3259-1.6462-33.7485-6.2724-.7725-210.4613,78.2568-212.8035,82.7908C181.0752,197.4819,207.7273,275.9932,217.4176,280.291Z"/>
          <path class="cls-14" d="M109.72,180.3764s49.5471,8.8909,60.75,8.2851c11.1711-.6042,229.1415-80.96,230.7016-86.9177-4.3658-.7424-80.9433-3.9732-83.5879-2.9429-4.6369,1.7773-193.0452,71.8-207.305,81.0871C109.9163,180.2139,109.72,180.3764,109.72,180.3764Z"/>
          <path class="cls-15" d="M139.1268,268.3952c2.6808,1.9191,60.4334,31.2279,66.1624,27.1646,2.5657-4.5517-34.82-106.8983-34.82-106.8983s-52.4762-9.337-60.75-8.2851C106.62,185.0482,136.441,266.4727,139.1268,268.3952Z"/>
          <path class="cls-16" d="M172.9952,285.0919c14.8592,6.7137,29.5369,12.4195,32.2948,10.4656,5.7449-4.0827,187.72-76.5185,190.3612-82.2674,1.1312-2.4965,3.2116-24.73,4.7924-48.7878-2.9173,20.52-6.9365,42.1385-11.0849,46.3674-8.1269,8.2668-166.9141,79.16-176.0962,75.2656-8.33-3.5363-20.7716-35.815-23.1478-42.1475,2.4678,6.7956,15.4863,43.4977,9.8925,46.4348C194.24,293.4373,175.3475,286.0279,172.9952,285.0919Z"/>
          <path class="cls-17" d="M211.2559,138.9325s-79.1075,29.4761-75.1031,35.1071c3.9873,5.6069,34.7027,8.88,48.964,5.3312,14.2316-3.5417,134.4039-43.4895,134.4039-43.4895S180.9336,188.5275,170.8246,189.635c-10.1322,1.11-62.8547-6.4573-61.1051-9.2586C111.4711,177.5722,211.2559,138.9325,211.2559,138.9325Z"/>
          <path class="cls-8" d="M355.9532,230.8946a60.239,60.239,0,0,1-5.248,3.5465s3.2032,1.6782,4.5792,2.2309c1.3816.56,20.8762-6.9836,21.9288-7.7529,1.0443-.7615,5.775-122.3409,1.6432-123.0922-4.1384-.7526-89.5543-3.6514-91.9845-2.3195-2.4214,1.3233-23.2152,8.3042-24.4588,9.2471-1.2364.952-4.697,8.53-4.697,8.53l9.1456-3.4553s82.2449,5.4639,84.6937,5.8437C354.0087,124.061,356.8953,229.9983,355.9532,230.8946Z"/>
          <path class="cls-8" d="M262.4131,112.7545s93.1094-.4217,95.64,2.9776c.9823-.9488,20.11-8.4985,20.8032-9.9052-4.1384-.7526-89.5543-3.6514-91.9845-2.3195C284.4505,104.8307,263.6567,111.8116,262.4131,112.7545Z"/>
          <path class="cls-8" d="M225.3426,286.7148s8.0789,1.9964,9.0616,2.0119,20.9032-7.5041,21.6423-8.5342-17.9368-114.914-20.54-116.4055c-4.6779-2.6608-70.4082-10.5-73.7392-10.0527-3.3334.4477-29.1492,9.5494-30.4366,10.8216s-3.2023,7.0876-3.2023,7.0876,5.82-2.1429,8.6451-3.0907c2.0031-.6624,35.7008,3.8022,55.35,6.7264,7.9814,1.1812,13.67,2.1133,14.0635,2.3489,4.35,2.6828,28.1143,103.609,26.871,104.8024C231.8068,283.6313,225.3426,286.7148,225.3426,286.7148Z"/>
          <path class="cls-18" d="M355.9532,230.8946a60.239,60.239,0,0,1-5.248,3.5465s3.2032,1.6782,4.5792,2.2309c0,0,4.1556-2.35,4.8807-4.0052.7322-1.6483.412-113.5447-2.1119-116.9347-2.5307-3.3993-95.64-2.9776-95.64-2.9776-1.2364.952-4.697,8.53-4.697,8.53l9.1456-3.4553s82.2449,5.4639,84.6937,5.8437C354.0087,124.061,356.8953,229.9983,355.9532,230.8946Z"/>
          <path class="cls-18" d="M225.3426,286.7148s8.0789,1.9964,9.0616,2.0119c.4809-.417,2.5211-6.3121,2.3973-7.8334-.1309-1.5308-22.0632-105.76-24.3629-107.783-4.285-3.77-81.1079-8.5544-81.1079-8.5544-1.287,1.2719-3.2023,7.0876-3.2023,7.0876s5.82-2.1429,8.6451-3.0907a.8309.8309,0,0,1,.179-.0287.3509.3509,0,0,1,.1136-.0136c.1051-.0051.2349-.0182.3883-.0217.1855-.0024.4194-.0032.6846.0145.1212-.0046.2575.0085.3863.013.4023.0136.8443.037,1.35.08.6737.0575,1.4437.1181,2.3014.1905.4407.0408.8888.0906,1.3614.1326.5358.0614,1.1122.1156,1.6961.1786.1842.0148.3683.03.544.053.2645.0175.5279.0524.8074.0879.3039.0275.6155.0641.9269.1,1.19.1355,2.4512.2819,3.7674.4387.5268.0524,1.0526.122,1.5708.1828.6537.0739,1.3073.1478,1.9758.2394,1.1389.1335,2.3008.2764,3.4772.4369.9862.12,1.9954.2485,3.0043.3774,1.5249.1894,3.08.3969,4.634.6044.9515.1181,1.91.2451,2.8687.372,7.4485,1.0073,15.0554,2.078,21.4375,3.0114.6439.09,1.272.1795,1.8755.2767l.0316.0011c7.9655,1.1806,13.6388,2.1122,14.0319,2.3478,4.35,2.6828,28.1143,103.609,26.871,104.8024C231.8068,283.6313,225.3426,286.7148,225.3426,286.7148Z"/>
          <path class="cls-8" d="M131.3307,164.5559s76.8229,4.784,81.1079,8.5544c8.2868-3.155,23.0679-9.3233,23.0679-9.3233-4.6779-2.6608-70.4082-10.5-73.7392-10.0527C158.4339,154.182,132.6181,163.2837,131.3307,164.5559Z"/>
          <path class="cls-19" d="M257.7161,121.2843s5.2243-4.8345,7.9565-5.2318c2.7306-.3971,33.4367.836,42.9515,1.3137,9.4863.4762,45.0218,1.3362,46.2492,5.2907,1.2241,3.9444,4.4133,106.9178,2.9927,108.51s-7.1608,3.2744-7.1608,3.2744,4.1574-3.7114,4.4252-5.3336-1.2754-101.8789-6.2127-103.5246C343.9686,123.9333,262.4914,118.4826,257.7161,121.2843Z"/>
          <path class="cls-19" d="M128.1284,171.6435s2.7683-4.1954,6.94-5.0209c4.1688-.8249,72.0593,4.4783,74.2371,8.8912,2.171,4.399,27.6964,104.6877,25.1711,107.727-2.5229,3.0361-9.1341,3.474-9.1341,3.474s6.2249-3.1874,6.7966-5.5454c.5725-2.3608-24.472-100.4323-30.3858-102.1179C188.9088,175.39,138.4148,169.8173,128.1284,171.6435Z"/>
          <path class="cls-9" d="M346.4738,104.3385s19.9563,1.499,19.151,4.0808c-.8043,2.5786-8.09,5.1743-12.4076,4.9625-4.3236-.2121-20.7513.0735-20.7513.0735s22.4858,2.8136,25.7654,2.516c3.2771-.2974,22.1289-9.518,20.6251-10.1444S348.147,104.3951,346.4738,104.3385Z"/>
          <path class="cls-9" d="M211.2674,159.3552s24.5012,1.9081,24.2391,4.4318c-.2616,2.52-21.22,10.1089-23.0679,9.3233-1.85-.7865-21.43-3.2514-20.984-3.6888s18.5873,3.1213,23.2676-1.4515C219.4083,163.3915,211.2674,159.3552,211.2674,159.3552Z"/>
          <path class="cls-9" d="M296.4881,103.1658c-.0874.0175-7.759-.1881-9.6162.3416s-24.6243,8.6125-24.4588,9.2471,18.3947-.0131,18.3947-.0131-9.6339-.9289-8.7967-2.2148,11.87-5.5828,16.0384-6.3177C292.215,103.4746,296.4881,103.1658,296.4881,103.1658Z"/>
          <path class="cls-9" d="M180.12,155.4135s-15.2965-2.5342-18.5986-1.6382-31.54,9.9917-30.19,10.7806,24.987,1.7459,24.987,1.7459-14.6062-2.5351-12.1549-4.3376,11.2943-6.1438,18.8965-6.0541C170.6447,156,180.12,155.4135,180.12,155.4135Z"/>
          <path class="cls-9" d="M218.1007,194.4782c.0911.2225,3.4994,18.7678,6.3632,31.779,2.84,12.9046,9.36,40.0976,9.36,40.0976a284.5849,284.5849,0,0,0-5.7591-37.4932A284.5872,284.5872,0,0,0,218.1007,194.4782Z"/>
          <path class="cls-3" d="M299.876,331.011a.21.21,0,0,1-.0144.0695.5743.5743,0,0,1,.0225-.0771Z"/>
          <ellipse class="cls-20" cx="255.4454" cy="137.6788" rx="30.0025" ry="8.3894" transform="matrix(0.9903, -0.1388, 0.1388, 0.9903, -16.6391, 36.7936)"/>
          <path class="cls-21" d="M225.7334,141.8437v-7.0724l59.4241-8.33v7.0723a109.0475,109.0475,0,0,1-59.4241,8.33Z"/>
          <ellipse class="cls-22" cx="255.4454" cy="130.6064" rx="30.0025" ry="8.3895" transform="translate(-15.6574 36.7254) rotate(-7.9795)"/>
          <g>
            <g id="Rubi">
              <polygon class="cls-23" points="222.676 191.227 228.898 181.16 236.807 186.293 230.719 196.222 222.676 191.227"/>
              <path class="cls-24" d="M222.6762,191.2273l4.9628-1.3856,2.6934-4.4609-1.4339-4.22,7.9084,5.1326-2.9834,1.3q-1.3494,2.204-2.6988,4.408l-.4053,4.2205Z"/>
              <path class="cls-25" d="M227.639,189.8418l2.6934-4.461,3.4911,2.2124-2.6988,4.4082Z"/>
            </g>
            <g id="Rubi-2" data-name="Rubi">
              <polygon class="cls-23" points="230.731 227.081 236.954 217.014 244.862 222.147 238.774 232.076 230.731 227.081"/>
              <path class="cls-24" d="M230.7313,227.0813l4.9627-1.3856,2.6934-4.4609-1.4339-4.22,7.9084,5.1325-2.9833,1.3-2.6988,4.4081-.4054,4.22Z"/>
              <path class="cls-26" d="M235.6941,225.6957q1.3483-2.2334,2.6933-4.461l3.4912,2.2125q-1.3476,2.2011-2.6988,4.4081Z"/>
            </g>
            <g id="Rubi-3" data-name="Rubi">
              <polygon class="cls-23" points="236.807 261.896 243.029 251.829 250.938 256.962 244.85 266.89 236.807 261.896"/>
              <path class="cls-24" d="M236.8069,261.896,241.77,260.51q1.3467-2.23,2.6934-4.4609l-1.4339-4.22,7.9084,5.1326-2.9833,1.3-2.6988,4.408-.4053,4.22Z"/>
              <path class="cls-27" d="M241.77,260.51l2.6934-4.4609,3.4911,2.2124-2.6988,4.4081Q243.5214,261.5958,241.77,260.51Z"/>
            </g>
            <g id="Rubi-4" data-name="Rubi">
              <polygon class="cls-23" points="362.044 139.013 370.024 130.273 376.844 136.782 369.023 145.411 362.044 139.013"/>
              <path class="cls-24" d="M362.0442,139.0126l5.1335-.4421q1.7367-1.9422,3.4733-3.8846-.3135-2.2065-.6271-4.413l6.82,6.509-3.1726.725-3.4688,3.8317-1.18,4.0723Z"/>
              <path class="cls-28" d="M367.1777,138.5706l3.4733-3.8847,3.0208,2.821-3.4688,3.8317Z"/>
            </g>
            <g id="Rubi-5" data-name="Rubi">
              <polygon class="cls-23" points="363.316 175.738 371.296 166.999 378.117 173.508 370.295 182.136 363.316 175.738"/>
              <path class="cls-24" d="M363.3164,175.7382l5.1336-.4421,3.4733-3.8846q-.3136-2.2065-.6271-4.413l6.82,6.509-3.1726.725-3.4689,3.8317-1.18,4.0723Z"/>
              <path class="cls-29" d="M368.45,175.2962l3.4733-3.8847,3.0208,2.821-3.4689,3.8317Q369.97,176.6873,368.45,175.2962Z"/>
            </g>
            <g id="Rubi-6" data-name="Rubi">
              <polygon class="cls-23" points="362.836 211.076 370.816 202.336 377.636 208.845 369.815 217.474 362.836 211.076"/>
              <path class="cls-24" d="M362.8361,211.0759l5.1335-.4421,3.4734-3.8846q-.3136-2.2066-.6272-4.413,3.45,3.2928,6.82,6.509l-3.1726.725-3.4688,3.8316-1.18,4.0723Z"/>
              <path class="cls-30" d="M367.97,210.6338l3.4733-3.8847,3.0207,2.821-3.4688,3.8318Z"/>
            </g>
          </g>
        </g>
      </g>
    </g>
  </g>
</svg>
