<svg id="Layer_1" data-name="Layer 1" xmlns="http://www.w3.org/2000/svg" width="512" height="512" viewBox="0 0 512 512">
  <defs>
    <style>
      .cls-1 {
        fill: #9b7113;
      }

      .cls-2 {
        fill: #ffb805;
      }
    </style>
  </defs>
  <g id="Companion">
    <g id="Meeple">
      <path class="cls-1" d="M263.9568,169.4208a18.3135,18.3135,0,0,1,6.0215,4.1573,31.7464,31.7464,0,0,1,5.4756,6.6924,38.9211,38.9211,0,0,1,4.7735,12.4486c.3742,1.868,1.7935,9.6586,1.8018,12.4487a7.3588,7.3588,0,0,0,.3978,2.4414,7.7719,7.7719,0,0,0,.8658,1.7238,14.3708,14.3708,0,0,0,3.2057,3.4632c.6842.5562,1.6866,1.3936,2.8549,2.457a78.6156,78.6156,0,0,1,9.313,10.366c8.866,11.1672,8.4641,10.5255,9.1962,11.6064a68.3823,68.3823,0,0,1,6.6846,12.8032,25.5623,25.5623,0,0,1,1.4507,5.7529c.65,4.8467-.5051,6.7515-.8736,7.3006a6.6608,6.6608,0,0,1-1.3884,1.4976q-3.6048,2.3347-7.5347,4.68-4.63,2.7555-9.048,5.1167c.7552,2.0971,1.8377,5.1206,3.12,8.7672,4.1118,11.6927,6.1533,17.5432,7.7688,23.1189a158.6393,158.6393,0,0,1,4.5956,21.3379c.0706.3885.3927,2.3382-.6817,3.1867a1.6512,1.6512,0,0,1-.2792.1779L281.725,348.5619l-4.2588-15.1866a55.3867,55.3867,0,0,0-8.19-12.9635,58.1549,58.1549,0,0,0-27.4714-17.737l-19.9461,11.3021q.31-16.8966.62-33.7929a6.0746,6.0746,0,0,1-3.7928-6.97,57.75,57.75,0,0,1,2.8547-11.7233,87.5608,87.5608,0,0,1,4.54-10.5767c2.6984-5.1588,5.78-9.7342,5.78-9.7343a62.9317,62.9317,0,0,0,4.563-8.2368,16.4505,16.4505,0,0,0,.8424-2.34,6.6539,6.6539,0,0,0,.4855-2.68,4.6782,4.6782,0,0,0-.93-2.257,7.9991,7.9991,0,0,0-3.276-2.574s-.537-.258-6.3647-3.978a39.3191,39.3191,0,0,1-6.9264-6.1776c-2.9455-3.0678-10.5268-5.9121-30.701-5.1158q5.7669-3.0909,11.63-6.3734,11.5179-6.4521,22.23-12.9869l3.0008-2.3578c3.78-2.2162,8.992-5.2742,12.7707-7.4935q8.6007-5.0513,17.181-10.1032A15.6684,15.6684,0,0,1,263.9568,169.4208Z"/>
      <path class="cls-2" d="M234.0051,187.0175a19.0454,19.0454,0,0,1,6.0214,4.1573,31.74,31.74,0,0,1,5.4757,6.6924,38.9211,38.9211,0,0,1,4.7735,12.4486c.3742,1.868,1.7935,9.6586,1.8017,12.4487a7.36,7.36,0,0,0,.3979,2.4414,7.7674,7.7674,0,0,0,.8658,1.7238,14.3687,14.3687,0,0,0,3.2057,3.4632c.6842.5562,1.6865,1.3936,2.8548,2.457a78.6167,78.6167,0,0,1,9.3131,10.366c8.866,11.1672,8.464,10.5255,9.1962,11.6064a60.1461,60.1461,0,0,1,6.6846,12.8032,19.3061,19.3061,0,0,1,1.4538,7.2014c-.0166,2.2537-.0421,5.7343-2.2652,7.35-2.0341,1.478-4.8559.63-8.12-.351a27.8057,27.8057,0,0,1-9.2195-4.8438,2.4351,2.4351,0,0,0-1.6147-.5616,1.4518,1.4518,0,0,0-1.1.4213,1.3618,1.3618,0,0,0-.2731,1.0607c.1789,1.2388.48,3.0253.9945,5.1451a61.1622,61.1622,0,0,0,2.2191,7.0852c1.28,3.5136,2.3817,7.09,3.65,10.608,1.8292,5.0717,5.4427,15.0909,7.7688,23.1189a158.655,158.655,0,0,1,4.5956,21.3379c.03.1793.3379,2.1013-.4459,2.9712a1.8342,1.8342,0,0,1-.515.3934,1.8094,1.8094,0,0,1-1.3259.0389c-1.2841-.7542-3.2567-1.9105-5.6706-3.3149-9.734-5.6635-14.601-8.4952-15.3269-8.8218-2.6964-1.2133-5.11-2.9781-7.698-4.4078a6.1307,6.1307,0,0,1-1.7243-1.3641,6.578,6.578,0,0,1-1.3728-2.7456c-.5449-2.024-1.5525-3.8981-2.184-5.8968-1.33-4.2081-1.5653-3.586-4.1184-10.6078-1.3486-3.7089-2.0228-5.5634-2.2776-6.3648-.664-2.089-1.7834-4.011-2.4959-6.0839a4.47,4.47,0,0,0-1.4664-2.1217,2.0993,2.0993,0,0,0-1.4976-.5616c-.5373.0736-.9069.4677-1.5912,1.404a16.2293,16.2293,0,0,0-1.5912,2.4024c-.8119,1.6788-1.1665,1.6384-5.3976,8.05-.7521,1.14-1.88,2.8671-3.24,5.0261a2.0542,2.0542,0,0,1-.8879.7848,1.8376,1.8376,0,0,1-1.8624-.0936l-15.6077-9.1493-11.8616-6.9534a6.0747,6.0747,0,0,1-3.7929-6.9695,57.75,57.75,0,0,1,2.8547-11.7233,87.5765,87.5765,0,0,1,4.54-10.5767c2.6984-5.1588,5.78-9.7342,5.78-9.7343a62.9244,62.9244,0,0,0,4.5629-8.2368,16.4526,16.4526,0,0,0,.8425-2.34,6.651,6.651,0,0,0,.4854-2.68,4.6782,4.6782,0,0,0-.93-2.257,7.9982,7.9982,0,0,0-3.276-2.574s-.537-.258-6.3648-3.978a30.4126,30.4126,0,0,1-6.9263-6.1776,20.7011,20.7011,0,0,1-4.9607-9.9916c-.3353-2.0624-1.0926-6.72,1.7081-10.4364,1.764-2.34,4.1057-3.2009,6.4115-4.0481a27.05,27.05,0,0,1,13.9932-.936c2.982.6526,6.1593.3979,9.056,1.361a2.2284,2.2284,0,0,0,1.895-.0273,2.1513,2.1513,0,0,0,.6524-1.7554,41.02,41.02,0,0,1,.4475-5.7559,23.2753,23.2753,0,0,1,1.5677-6.4115c.9772-2.2251,2.3212-5.2856,5.3408-6.4294C229.1786,185.0551,231.9024,186.1626,234.0051,187.0175Z"/>
    </g>
  </g>
</svg>
