<svg id="Layer_1" data-name="Layer 1" xmlns="http://www.w3.org/2000/svg" xmlns:xlink="http://www.w3.org/1999/xlink" width="512" height="512" viewBox="0 0 512 512">
  <defs>
    <style>
      .cls-1 {
        fill: #e4e4e4;
      }

      .cls-2 {
        fill: url(#linear-gradient);
      }

      .cls-3 {
        fill: url(#linear-gradient-2);
      }
    </style>
    <linearGradient id="linear-gradient" x1="176.5114" y1="279.0215" x2="256.0001" y2="279.0215" gradientUnits="userSpaceOnUse">
      <stop offset="0" stop-color="#cbcbcb"/>
      <stop offset="0.2755" stop-color="#bbb"/>
      <stop offset="0.8144" stop-color="#909090"/>
      <stop offset="1" stop-color="gray"/>
    </linearGradient>
    <linearGradient id="linear-gradient-2" x1="256.0001" y1="279.0215" x2="335.4886" y2="279.0215" xlink:href="#linear-gradient"/>
  </defs>
  <g id="Companion">
    <g id="Mini-Dice">
      <g id="White">
        <path class="cls-1" d="M256,256l79.4885-46.043L256,163.914q-39.7444,23.0214-79.4887,46.043Z"/>
        <polygon class="cls-2" points="176.511 209.957 176.511 302.043 256 348.086 256 256 176.511 209.957"/>
        <polygon class="cls-3" points="335.489 209.957 256 256 256 348.086 335.489 302.043 335.489 209.957"/>
      </g>
      <g id="Three">
        <path d="M313.6412,237.3673c4.799-2.7708,8.7059-.5637,8.7215,4.9672.0135,5.5115-3.8661,12.2318-8.6633,15.0026s-8.702.5454-8.7175-4.9672C304.9664,246.8371,308.844,240.1361,313.6412,237.3673Z"/>
        <path d="M295.8443,269.9937c4.8167-2.7805,8.7041-.5422,8.72,4.9692s-3.8485,12.2221-8.6613,15.0026c-4.799,2.7708-8.7039.5442-8.7194-4.9672C287.1657,279.485,291.0473,272.7645,295.8443,269.9937Z"/>
        <path d="M278.0438,300.1467c4.801-2.7688,8.7021-.5422,8.7194,4.9692s-3.8621,12.2328-8.6611,15.0026c-4.7952,2.7708-8.7041.5442-8.7216-4.9682C269.367,309.639,273.2486,302.9165,278.0438,300.1467Z"/>
      </g>
      <g id="Two">
        <path d="M239.871,304.8282a18.1474,18.1474,0,0,0-6.3133-6.6611c-2.2857-1.3218-4.5754-1.6385-6.3287-.6395-3.5065,1.9846-3.526,8.4823-.0428,14.5158a18.1951,18.1951,0,0,0,6.3132,6.6611c2.29,1.3207,4.5795,1.6365,6.3326.6386C243.3229,317.3379,243.3424,310.84,239.871,304.8282Z"/>
        <path d="M205.5836,245.4387a18.1894,18.1894,0,0,0-6.3132-6.6622c-2.2858-1.3206-4.5793-1.6375-6.3326-.6385-3.4909,1.9913-3.51,8.4893-.0388,14.5148a18.1917,18.1917,0,0,0,6.3131,6.6622c2.2859,1.3208,4.5794,1.6374,6.3327.6385C209.0357,257.9476,209.0552,251.45,205.5836,245.4387Z"/>
      </g>
      <path id="One" d="M265.3153,204.548c-5.1811-2.991-13.5467-2.99-18.6921,0-5.1357,2.9843-5.1086,7.8312.07,10.8217,5.1687,2.9854,13.5381,2.9848,18.6737,0C270.5122,212.3792,270.4853,207.533,265.3153,204.548Z"/>
    </g>
  </g>
</svg>
