<svg xmlns="http://www.w3.org/2000/svg" xmlns:xlink="http://www.w3.org/1999/xlink" width="512" height="512" viewBox="0 0 512 512">
  <defs>
    <style>
      .cls-1 {
        isolation: isolate;
      }

      .cls-2 {
        fill: url(#linear-gradient);
      }

      .cls-3 {
        fill: #fff;
        mix-blend-mode: overlay;
      }

      .cls-4 {
        fill: #c95400;
      }

      .cls-5 {
        fill: url(#linear-gradient-2);
      }

      .cls-6 {
        fill: #ffe605;
      }

      .cls-7 {
        fill: url(#linear-gradient-3);
      }

      .cls-8 {
        fill: url(#linear-gradient-4);
      }

      .cls-9 {
        fill: url(#linear-gradient-5);
      }

      .cls-10 {
        fill: url(#linear-gradient-6);
      }

      .cls-11 {
        fill: #fd7701;
      }
    </style>
    <linearGradient id="linear-gradient" x1="148.3399" y1="218.1122" x2="364.1176" y2="218.1122" gradientUnits="userSpaceOnUse">
      <stop offset="0" stop-color="#ff8205"/>
      <stop offset="0.1684" stop-color="#ffab05"/>
      <stop offset="0.2581" stop-color="#ffbb05"/>
      <stop offset="0.3948" stop-color="#ffb204"/>
      <stop offset="0.6212" stop-color="#fe9803"/>
      <stop offset="0.9077" stop-color="#fc7001"/>
      <stop offset="1" stop-color="#fc6100"/>
    </linearGradient>
    <linearGradient id="linear-gradient-2" x1="259.2668" y1="296.0578" x2="376.3646" y2="220.2868" gradientUnits="userSpaceOnUse">
      <stop offset="0" stop-color="#ff8205"/>
      <stop offset="0.1832" stop-color="#ffab05"/>
      <stop offset="0.2808" stop-color="#ffbb05"/>
      <stop offset="0.321" stop-color="#ffc405"/>
      <stop offset="0.3874" stop-color="#ffdd05"/>
      <stop offset="0.4153" stop-color="#ffea05"/>
      <stop offset="0.4286" stop-color="#fed704"/>
      <stop offset="0.4605" stop-color="#fdb103"/>
      <stop offset="0.4921" stop-color="#fc9202"/>
      <stop offset="0.5229" stop-color="#fc7d02"/>
      <stop offset="0.5525" stop-color="#fb6f01"/>
      <stop offset="0.5798" stop-color="#fb6b01"/>
      <stop offset="0.6405" stop-color="#fc8202"/>
      <stop offset="0.7479" stop-color="#fea504"/>
      <stop offset="0.8361" stop-color="#ffba05"/>
      <stop offset="0.8936" stop-color="#ffc205"/>
      <stop offset="0.9057" stop-color="#ffb805"/>
      <stop offset="0.9423" stop-color="#ff9d05"/>
      <stop offset="0.9749" stop-color="#ff8d05"/>
      <stop offset="1" stop-color="#ff8705"/>
    </linearGradient>
    <linearGradient id="linear-gradient-3" x1="167.1377" y1="168.6576" x2="147.6366" y2="221.2035" xlink:href="#linear-gradient"/>
    <linearGradient id="linear-gradient-4" x1="146.1231" y1="201.6561" x2="219.1443" y2="272.144" gradientUnits="userSpaceOnUse">
      <stop offset="0" stop-color="#ff8205"/>
      <stop offset="0.1614" stop-color="#ffab05"/>
      <stop offset="0.2473" stop-color="#ffbb05"/>
      <stop offset="0.3421" stop-color="#ffc405"/>
      <stop offset="0.4987" stop-color="#ffdd05"/>
      <stop offset="0.5645" stop-color="#ffea05"/>
      <stop offset="0.6358" stop-color="#ffda05"/>
      <stop offset="0.7443" stop-color="#ffc905"/>
      <stop offset="0.8611" stop-color="#ffbe05"/>
      <stop offset="1" stop-color="#ffbb05"/>
    </linearGradient>
    <linearGradient id="linear-gradient-5" x1="244.0818" y1="154.7389" x2="327.502" y2="226.3972" xlink:href="#linear-gradient-4"/>
    <linearGradient id="linear-gradient-6" x1="135.4606" y1="291.7935" x2="374.6561" y2="291.7935" xlink:href="#linear-gradient-4"/>
  </defs>
  <g class="cls-1">
    <g id="Layer_1" data-name="Layer 1">
      <g id="Hat">
        <g id="Prince_s_Crown" data-name="Prince&apos;s Crown">
          <path class="cls-2" d="M361.9513,189.2754a39.5523,39.5523,0,0,0-1.5842-3.8218q-.8862-1.891-1.9875-3.7564c1.0424,5.7912-.6728,11.1322-4.2223,13.2136a12.7282,12.7282,0,0,1-5.7591,1.3665,13.1488,13.1488,0,0,1-5.2271-1.1574c-12.9465-5.6286-38.6712-18.0376-57.722-21.73-9.6854-1.8771-17.4122-1.4559-24.9407-1.0455-15.8139.8621-26.2533,4.3735-38.3817,3.7337a83.1016,83.1016,0,0,1-20.0123-3.435s-9.6011-2.3882-13.721-7.2605c-.2693-.3184-1.6838-2.402-1.684-2.4024l0,0,0,0c-.7041-1.3525-1.082-3.0958-2.1291-7.9262q-1.7078.877-3.3531,1.8029c-.6358.355-1.2548.7155-1.8654,1.0731q-2.5336,1.4907-4.8579,3.0551c-1.4252,9.2476-2.0157,13.0749-8.7647,27.7709L148.4847,227.12c-.0483,16.8056-.0965,36.6434-.1448,53.4545.0483-16.2462,10.9708-32.4526,32.6713-44.63,42.6966-23.9575,110.9553-23.2731,152.4625,1.5418,20.4114,12.2,30.5474,27.9669,30.5047,43.6848.0456-16.7346.0939-36.4985.1392-53.23C363.8508,215.0244,362.4822,202.174,361.9513,189.2754Z"/>
          <path class="cls-3" d="M363.9784,277.3605c.0427-15.7154-10.0933-31.4819-30.5047-43.6822-41.5072-24.8149-109.7659-25.502-152.4625-1.5444-21.5868,12.1122-32.4954,28.2137-32.66,44.3718,0,1.4025-.0058,2.8251-.0113,4.1823.0483-16.2433,10.9708-32.4471,32.6713-44.6245,42.6966-23.9633,110.9553-23.27,152.4625,1.5415,20.4114,12.2,30.5474,27.9611,30.5047,43.6793.0456-16.7318.0939-37.2908.1392-54.0255,0-.0878-.0058-.173-.0084-.2582C364.0665,243.011,364.0211,261.8155,363.9784,277.3605Z"/>
          <path class="cls-4" d="M363.9784,278.0391c.0427-15.7183-10.0933-31.4819-30.5047-43.6822-41.5072-24.8149-109.7659-25.5049-152.4625-1.5415-21.5868,12.1122-32.4954,28.2108-32.66,44.3689,0,1.4025-.0058,2.8251-.0113,4.1823.0483-16.2433,10.9708-32.4471,32.6713-44.6245,42.6966-23.9633,110.9553-23.2734,152.4625,1.5389,20.4114,12.2,30.5474,27.9665,30.5047,43.6819.0456-16.7318.0939-37.2909.1392-54.0226,0-.0908-.0058-.1788-.0084-.264C364.0665,243.69,364.0211,262.4941,363.9784,278.0391Z"/>
          <path class="cls-3" d="M148.4818,228.0821a15.0453,15.0453,0,0,0,.2383,10,32.1364,32.1364,0,0,1,.1527-6.2608,37.178,37.178,0,0,1,1.78-7.405c.8258-2.5343,1.6365-4.391,1.9166-5.028,6.609-15.0264,13.03-29.2716,13.03-29.2717,3.7567-8.2278,5.4729-12.1,6.9887-18.0153a80.2829,80.2829,0,0,0,1.9155-10.1568l-.1419-.0341c-1.3316,8.5859-2.1038,12.6574-8.6228,26.8452a336.4494,336.4494,0,0,0-14.626,31.6035q-1.3651,3.4023-2.6282,6.7605C148.4849,227.2792,148.4848,227.4392,148.4818,228.0821Z"/>
          <path class="cls-3" d="M283.06,172.9421q-8.5125-.1691-17.4734,0a440.6906,440.6906,0,0,0-44.4922,3.1435c2.7861.1564,7.0085.32,12.1589.2168,6.9082-.1379,8.9462-.6552,17.6228-1.0454,3.0066-.1353,8.0767-.3552,14.6373-.2539,4.2286.0653,9.5955.1616,16.5758.9259a93.8726,93.8726,0,0,1,14.5494,2.381,98.314,98.314,0,0,1,14.8966,5.385c3.6482,1.5454,10.071,4.4356,13.64,6.1605.5944.2872,2.5979,1.2552,5.3745,2.4415.764.3264,1.5888.6675,2.5035,1.0308a48.2085,48.2085,0,0,0,8.438,2.8c6.4436,1.376,9.5221.2922,10.5288-.112a12.6946,12.6946,0,0,0,2.1375-1.1052,16.08,16.08,0,0,1-4.751,1.2545,17.0472,17.0472,0,0,1-7.43-.9707,146.805,146.805,0,0,1-18.1454-8.0647c-2.5808-1.28-6.4517-3.11-11.35-5.0777Z"/>
          <path class="cls-5" d="M373.3423,190.2746c.5491,3.6777,1.0092,7.5625,1.3407,11.6405a174.8257,174.8257,0,0,1,.3948,22.0539,90.6534,90.6534,0,0,1-2.299,20.92,80.1,80.1,0,0,1-8.9982,23.4993c-10.7992,18.0282-27.8441,25.8069-37.2117,30.153a100.309,100.309,0,0,1-33.07,8.7151c-11.1065.9747-21.9747,1.9334-33.9923-3.7479a45.4922,45.4922,0,0,1-19.3591-16.5166,43.8765,43.8765,0,0,1-6.0453-14.9357q1.0761-4.4747,2.1523-8.9492a41.4865,41.4865,0,0,0,10.3646,21.8937c1.236,1.3276,6.7329,7.0444,17.9215,11.0515,28.1192,10.0707,55.8-3.6886,60.2359-5.9738,7.3483-3.7856,17.791-9.1654,25.9861-20.7092,13.1786-18.5636,12.6156-41.8783,12.0024-66.1-.1494-5.8994-.518-10.755-.8139-13.9937Z"/>
          <path class="cls-6" d="M219.5909,269.8873q3.5862.6816,7.2232,1.2211,3.6245.5364,7.2882.9481l2.1524-8.9492q-3.305-.37-6.5815-.86-3.2835-.4854-6.519-1.1016Z"/>
          <path class="cls-7" d="M148.4847,227.12l17.2542-38.364c6.749-14.696,7.3395-18.5233,8.7647-27.7709l-8.8045-2.05c-1.5787,10.2442-2.2317,14.4832-9.713,30.7635l-19.1112,42.498Z"/>
          <path class="cls-8" d="M217.67,277.0686a9.8865,9.8865,0,0,1-1.081,1.5432,13,13,0,0,1-5.8124,3.5018c-20.41,6.0482-37.3363-3.5842-37.3363-3.5843-20.8782-13.9188-27.033-39.4667-24.3433-49.5827a109.4409,109.4409,0,0,1,4.331-12.6694c.762-1.8038,2.0193-4.6151,3.8292-8.6621,1.2495-2.794,2.2016-4.8985,2.4316-5.4066,7.9714-17.6134,10.2588-21.559,12.2018-28.6322a101.3757,101.3757,0,0,0,2.6132-12.5914l-8.8045-2.05a96.9133,96.9133,0,0,1-2.4758,12.5392c-2.4164,9.0489-5.2907,14.5066-12.4122,28.4581-11.5079,22.545-13.0939,26.1049-13.9362,32.2642a49.8317,49.8317,0,0,0,.5729,18.1066c4.2763,18.87,20.1989,33.0805,36.59,38.5809,15.2346,5.1125,27.8031,1.5247,30.5038.417a36.3955,36.3955,0,0,0,6.4062-3.5453,26.773,26.773,0,0,0,3.5626-3.0633c1.6229-1.585,1.9531-2.2042,2.1282-2.6882.0829-.2292.2885-.8623.7008-2.0193C217.4772,277.5972,217.5928,277.2791,217.67,277.0686Z"/>
          <path class="cls-6" d="M371.5905,186.0415q-.9882-2.0955-2.2061-4.1626l-11.0048-.1817q1.1029,1.8613,1.9875,3.7564a39.5776,39.5776,0,0,1,1.5842,3.8218l11.3909.9992A45.61,45.61,0,0,0,371.5905,186.0415Z"/>
          <path class="cls-9" d="M281.2675,171.598a146.4069,146.4069,0,0,0-29.3713.1991c-1.5384.1367-9.675.87-22.601,2.0411a97.1532,97.1532,0,0,1-12.0969.5974,78.443,78.443,0,0,1-15.816-1.9924c1.0358.33,2.4929.77,4.2531,1.2259a79.3685,79.3685,0,0,0,12.7861,2.2337,80.3693,80.3693,0,0,0,11.1724.1258c10.6269-.437,15.0311-1.0637,21.3564-1.4437,6.4961-.39,11.3935-.301,16.0824-.2082,5.7153.1132,9.525.1886,14.633.7558a106.8123,106.8123,0,0,1,15.6937,2.85c9.3579,2.4983,17.6951,6.2154,34.0134,14.3745a55.34,55.34,0,0,0,9.2594,3.2483c3.9791,1.05,6.0941,1.1756,8.102.9334a16.8261,16.8261,0,0,0,5.4231-1.6279,13.8181,13.8181,0,0,1-7.3434.9407,12.7449,12.7449,0,0,1-3.7608-1.2491c-4.6261-2.2988-6.9392-3.4482-16.086-8.8166a98.8563,98.8563,0,0,0-11.7983-5.6751A114.061,114.061,0,0,0,281.2675,171.598Z"/>
          <path class="cls-6" d="M174.5036,160.9849q2.3253-1.563,4.8579-3.0551c.6106-.3576,1.23-.7181,1.8654-1.0731q1.6481-.9241,3.3531-1.8029l-7.72-2.6887q-1.887.9708-3.7139,1.9988c-.7012.3916-1.3883.7894-2.0669,1.19q-2.8068,1.6481-5.38,3.3813Z"/>
          <path class="cls-10" d="M367.6637,260.4834a72.8754,72.8754,0,0,1-9.0354,14.6856,74.2528,74.2528,0,0,1-14.6358,13.5158,91.6675,91.6675,0,0,1-22.4862,11.44c-8.8671,3.1568-26.6177,9.24-48.3369,5.412-8.2217-1.4493-16.2276-2.8473-24.1559-9.2247-10.21-8.213-13.6964-19.3186-14.9111-24.2554q-3.5313-.3909-7.2884-.9481-3.6371-.5412-7.2231-1.2211c-1.3832,5.521-1.9057,7.6066-2.7851,9.2742a19.2921,19.2921,0,0,1-2.2688,3.25A23.56,23.56,0,0,1,204.23,289.083c-11.2813,4.1129-23.7848,1.5491-23.7848,1.5491-4.3475-.9924-22.7183-5.6773-34.1861-22.6565-1.7188-2.5449-8.7881-13.0116-9.3341-26.7826-.1419-3.58-.0355-9.1394-.05-8.9966-.1839,1.7813-.4678,4.874-.6218,8.7352-.3965,9.9413.5252,13.5234.6218,27.102.0318,4.4685.3249,5.39.05,9.5623a55.2765,55.2765,0,0,0,.7467,13.4411c4.32,23.9112,23.6919,38.3451,32.996,45.2777,38.2859,28.5268,113.2391,32.9347,168.8873,1.7092,24.04-13.4894,36.141-31.4362,36.1892-49.4316.0053-1.9715.0967-3.99.0967-3.99.0219-2.6105-.0406-4.8225-.1126-6.4835l.0159-9.4207c0-1.4114,0-6.2044-.0007-7.6223-.0063-21.2346-.6756-37.725-.6658-37.1066A83.687,83.687,0,0,1,367.6637,260.4834Z"/>
          <path class="cls-3" d="M375.1687,228.7473c.0174-.9977.0241-2.6743-.0909-4.7783a83.8785,83.8785,0,0,1-8.8826,37.9332,70.1721,70.1721,0,0,1-13.3913,18.5686,76.7787,76.7787,0,0,1-11.2382,8.9981,84.3623,84.3623,0,0,1-14.4492,7.5793,102.09,102.09,0,0,1-22.1031,6.87c-6.6207,1.2307-17.8749,3.2159-31.96.5974-8.8317-1.6418-17.92-3.3314-26.2351-10.7529A42.5963,42.5963,0,0,1,234.25,272.6017l-.1476.6248a41.45,41.45,0,0,0,11.72,20.9343c8.542,7.9864,18.6455,9.9087,26.4839,11.4a77.7052,77.7052,0,0,0,17.1748,1.1948,99.2879,99.2879,0,0,0,17.0253-2.0908,105.8055,105.8055,0,0,0,22.5512-7.318c6.436-2.9862,15.6589-7.2656,24.7913-16.5773,2.456-2.5042,11.7432-12.3445,16.3533-26.21.2878-.8655.5131-1.6136.7467-2.3895C372.6816,246.4173,374.9978,238.5384,375.1687,228.7473Z"/>
          <path class="cls-3" d="M136.8749,232.1964l0-.0064c-.1375.9155-.3139,2.2816-.4161,3.9439a50.4865,50.4865,0,0,0,5.5445,25.5194,54.3868,54.3868,0,0,0,5.75,9.2221c11.8825,15.2551,32.36,23.6111,48.5638,21.361a31.5206,31.5206,0,0,0,13.6012-5.12,20.0359,20.0359,0,0,0,6.4094-6.9073,18.4086,18.4086,0,0,0,1.3427-3.1408,21.048,21.048,0,0,1-1.892,3.7407,22.0593,22.0593,0,0,1-1.43,1.9764,20.5941,20.5941,0,0,1-5.4386,4.443,27.5939,27.5939,0,0,1-11.126,4.2936l0,0a36.5661,36.5661,0,0,1-14.7106-.5041,62.0463,62.0463,0,0,1-39.2778-27.3862,55.5351,55.5351,0,0,1-6.4218-18.6308,83.128,83.128,0,0,1-.56-10.5289A13.8253,13.8253,0,0,0,136.8749,232.1964Z"/>
          <path class="cls-3" d="M375.7443,268.6979c-.0482,17.995-12.1491,35.9421-36.1892,49.4313-47.299,26.5413-122.914,25.7749-168.8873-1.7093-22.609-13.5147-33.8438-30.9734-33.7929-48.3863v6.5215c-.0509,17.4133,11.1839,34.8746,33.7929,48.39,45.9733,27.481,121.5883,28.2477,168.8873,1.7064,24.04-13.4895,36.141-31.4363,36.1892-49.4316Z"/>
          <path class="cls-3" d="M375.7443,270.0182c-.0482,17.995-12.1491,35.9421-36.1892,49.4312-47.299,26.5414-122.914,25.775-168.8873-1.7092-22.609-13.5148-33.8438-30.9734-33.7929-48.3864v6.5216c-.0509,17.4133,11.1839,34.8745,33.7929,48.39,45.9733,27.4839,121.5883,28.2477,168.8873,1.7063,24.04-13.4894,36.141-31.4362,36.1892-49.4316Z"/>
          <path class="cls-11" d="M375.7443,269.5608c-.0482,17.9954-12.1491,35.9421-36.1892,49.4316-47.299,26.5413-122.914,25.7747-168.8873-1.7093-22.609-13.5147-33.8438-30.9733-33.7929-48.3866v6.5219c-.0509,17.4129,11.1839,34.8745,33.7929,48.3892,45.9733,27.4842,121.5883,28.248,168.8873,1.7067,24.04-13.4895,36.141-31.4363,36.1892-49.4316Z"/>
          <path class="cls-4" d="M339.5551,324.0917c-47.299,26.5413-122.914,25.7775-168.8873-1.7064-22.609-13.515-33.8438-30.9763-33.7929-48.3895v1.4225c-.0509,17.413,11.1839,34.8746,33.7929,48.3893,45.9733,27.4842,121.5883,28.248,168.8873,1.7067,24.04-13.4895,36.141-31.4363,36.1892-49.4316V274.66C375.6961,292.6583,363.5952,310.6025,339.5551,324.0917Z"/>
        </g>
      </g>
    </g>
  </g>
</svg>
