<svg id="Layer_1" data-name="Layer 1" xmlns="http://www.w3.org/2000/svg" xmlns:xlink="http://www.w3.org/1999/xlink" width="512" height="512" viewBox="0 0 512 512">
  <defs>
    <style>
      .cls-1 {
        fill: url(#linear-gradient);
      }

      .cls-2 {
        fill: url(#linear-gradient-2);
      }

      .cls-3 {
        fill: url(#linear-gradient-3);
      }

      .cls-4 {
        fill: url(#linear-gradient-4);
      }

      .cls-5 {
        fill: url(#linear-gradient-5);
      }

      .cls-6 {
        fill: url(#linear-gradient-6);
      }

      .cls-7 {
        fill: url(#linear-gradient-7);
      }

      .cls-8 {
        fill: url(#linear-gradient-8);
      }

      .cls-9 {
        fill: url(#linear-gradient-9);
      }

      .cls-10 {
        fill: url(#radial-gradient);
      }

      .cls-11 {
        fill: #ffd7ef;
        opacity: 0.39;
      }

      .cls-12 {
        fill: #fff;
      }
    </style>
    <linearGradient id="linear-gradient" x1="136.0804" y1="221.2266" x2="376.1942" y2="221.2266" gradientUnits="userSpaceOnUse">
      <stop offset="0" stop-color="#dd6719"/>
      <stop offset="0.1975" stop-color="#e06e17"/>
      <stop offset="0.4803" stop-color="#e88111"/>
      <stop offset="0.813" stop-color="#f69f07"/>
      <stop offset="1" stop-color="#ffb400"/>
    </linearGradient>
    <linearGradient id="linear-gradient-2" x1="136.0804" y1="290.7685" x2="376.1942" y2="290.7685" gradientUnits="userSpaceOnUse">
      <stop offset="0" stop-color="#dd6719"/>
      <stop offset="0.0287" stop-color="#e06e17"/>
      <stop offset="0.156" stop-color="#eb870e"/>
      <stop offset="0.2975" stop-color="#f49b08"/>
      <stop offset="0.4588" stop-color="#faa903"/>
      <stop offset="0.657" stop-color="#feb201"/>
      <stop offset="1" stop-color="#ffb400"/>
    </linearGradient>
    <linearGradient id="linear-gradient-3" x1="141.1274" y1="230.6875" x2="371.0291" y2="230.6875" xlink:href="#linear-gradient"/>
    <linearGradient id="linear-gradient-4" x1="136.0912" y1="240.4515" x2="376.1943" y2="240.4515" gradientUnits="userSpaceOnUse">
      <stop offset="0" stop-color="#ffb500"/>
      <stop offset="0.1067" stop-color="#ffc210"/>
      <stop offset="0.3143" stop-color="#ffd72a"/>
      <stop offset="0.5289" stop-color="#ffe53c"/>
      <stop offset="0.7526" stop-color="#ffee47"/>
      <stop offset="1" stop-color="#fff14b"/>
    </linearGradient>
    <linearGradient id="linear-gradient-5" x1="135.8058" y1="275.707" x2="376.1943" y2="275.707" xlink:href="#linear-gradient-2"/>
    <linearGradient id="linear-gradient-6" x1="135.8058" y1="275.707" x2="376.1943" y2="275.707" xlink:href="#linear-gradient-2"/>
    <linearGradient id="linear-gradient-7" x1="162.0881" y1="268.5661" x2="327.4976" y2="262.3053" gradientUnits="userSpaceOnUse">
      <stop offset="0.0196" stop-color="#9b4a0d"/>
      <stop offset="0.0397" stop-color="#a14d0e"/>
      <stop offset="0.1272" stop-color="#b75612"/>
      <stop offset="0.2302" stop-color="#c85e15"/>
      <stop offset="0.3567" stop-color="#d46317"/>
      <stop offset="0.5324" stop-color="#db6619"/>
      <stop offset="1" stop-color="#dd6719"/>
    </linearGradient>
    <linearGradient id="linear-gradient-8" x1="156.7925" y1="269.9906" x2="195.4219" y2="269.9906" gradientUnits="userSpaceOnUse">
      <stop offset="0" stop-color="#ff317e"/>
      <stop offset="0.1783" stop-color="#fc2f79"/>
      <stop offset="0.3897" stop-color="#f4276b"/>
      <stop offset="0.6181" stop-color="#e71c53"/>
      <stop offset="0.8568" stop-color="#d40c32"/>
      <stop offset="1" stop-color="#c7001a"/>
    </linearGradient>
    <linearGradient id="linear-gradient-9" x1="156.7925" y1="269.9906" x2="195.4219" y2="269.9906" gradientUnits="userSpaceOnUse">
      <stop offset="0" stop-color="#c7001a"/>
      <stop offset="0.3252" stop-color="#dc123f"/>
      <stop offset="0.774" stop-color="#f5286c"/>
      <stop offset="1" stop-color="#ff317e"/>
    </linearGradient>
    <radialGradient id="radial-gradient" cx="107.8191" cy="184.9422" r="16.8269" gradientTransform="matrix(-0.137, -0.9906, 0.4377, -0.0606, 106.7502, 386.9122)" gradientUnits="userSpaceOnUse">
      <stop offset="0" stop-color="#ff4893"/>
      <stop offset="0.1499" stop-color="#fc448d"/>
      <stop offset="0.3492" stop-color="#f43a7c"/>
      <stop offset="0.5766" stop-color="#e82a61"/>
      <stop offset="0.8228" stop-color="#d6133a"/>
      <stop offset="1" stop-color="#c7001a"/>
    </radialGradient>
  </defs>
  <g id="Hat">
    <g id="Queen_s_Crown" data-name="Queen&apos;s Crown">
      <path class="cls-1" d="M136.08,240.4782c0-17.7974,11.7213-35.5947,35.1638-49.1736,46.8851-27.1578,122.901-27.1578,169.7861,0,23.4426,13.5789,35.1639,31.3762,35.1639,49.1735v31.0388h-3.952l-5.7149-24.79L326.248,218.2352l-44.369-14.6516-39.4788.8126-39.8892,4.8831-42.33,23.6089-24.1,38.6287Z"/>
      <path class="cls-2" d="M376.1942,271.5169c0,17.7973-11.7212,35.5947-35.1638,49.1735-46.8851,27.1578-122.9009,27.1579-169.7861,0-23.4426-13.5789-35.1639-31.3762-35.1639-49.1736V240.4782h3.9521l5.7149,24.79,40.2793,28.492,44.369,14.6516,39.4788-.8126,39.8891-4.8831,42.3306-23.6089,24.1-38.6287Z"/>
      <path class="cls-3" d="M371.0291,249.6165c-5.5274-10.6155-15.5149-20.6173-29.9987-29.0069-46.8851-27.1578-122.9009-27.1578-169.7861,0C156.65,229.063,146.63,239.1546,141.1274,249.86a4.7661,4.7661,0,0,1,.8784,1.5727,42.6717,42.6717,0,0,0,4.7984,9.701c3.131-13.3739,13.5286-26.285,31.2757-36.5648,43.11-24.9711,113.005-24.971,156.115,0,17.3386,10.0432,27.6629,22.5985,31.0516,35.6425C367.0561,256.6315,369.133,253.1677,371.0291,249.6165Z"/>
      <path class="cls-4" d="M260.5663,304.3543c26.7573-.6127,53.199-6.8285,73.6286-18.6621,43.11-24.971,43.11-65.4571,0-90.4281s-113.005-24.9711-156.115,0c-37.1287,21.5064-42.249,54.5134-15.4233,79.2132-2.0721,1.5894-4.1653,3.1515-6.2627,4.7089-31.34-27.0336-26.4019-63.9865,14.85-87.8815,46.8852-27.1578,122.901-27.1578,169.7861,0s46.8851,71.1891,0,98.347c-22.3166,12.9267-51.2321,19.6963-80.465,20.3151H233.7L219.81,297.59l-13.1267-28.1346-11.1424-35.1217-20.5174-22.998,9.5277-3.8659a13.004,13.004,0,0,1,7.0212,1.0685c2.9229,1.3828,4.4273,3.5824,6.4107,6.5633a42.3641,42.3641,0,0,1,5.19,10.99Q214.1961,254.026,225.22,281.96a32.8457,32.8457,0,0,0,6.6486,11.2144C242.3061,304.6334,257.6065,304.4467,260.5663,304.3543Z"/>
      <path class="cls-5" d="M136.08,240.4782c.4176,7.6142,2.01,9.563,3.3669,9.9586,3.3448.9753,7.7379-6.7636,18.9539-21.048,4.8731-6.2061,9.05-11.1209,11.8022-14.2871a11.98,11.98,0,0,1,11.5494-4.5791c6.6242,1.1462,9.0612,7.4014,9.1579,7.6631,3.8735,7.8187,9.2872,19.2389,15.0931,33.3481,12.3892,30.1075,14.4194,42.9459,27.01,51.4718,5.2237,3.5372,13.7812,7.3587,27.55,6.8828,2.7205-.0245,6.1374-.1174,10.0744-.3747,2.4009-.1568,7.9357-.5669,15.0745-1.626a185.5873,185.5873,0,0,0,22.6906-4.7824c2.4966-.7043,6.65-1.8857,11.9493-3.8512a129.4774,129.4774,0,0,0,28.2594-14.4194,73.5723,73.5723,0,0,0,12.476-10.5468,70.3913,70.3913,0,0,0,5.8628-7.1883c6.4013-9.2236,8.4979-19.8526,9.2436-26.6215v31.0388a42.5263,42.5263,0,0,1-.6525,7.2554,50.1727,50.1727,0,0,1-3.4992,10.9192c-2.668,5.7644-10.9681,18.546-28.903,29.813a115.024,115.024,0,0,1-22.92,10.8369,165.2423,165.2423,0,0,1-38.7055,9.1547,200.9042,200.9042,0,0,1-30.8767,1.49,196.1281,196.1281,0,0,1-39.4077-4.9581A158.7056,158.7056,0,0,1,176.6761,323.65a101,101,0,0,1-15.4294-9.5185,80.199,80.199,0,0,1-12.004-10.915,59.1435,59.1435,0,0,1-7.4756-10.5106,53.4735,53.4735,0,0,1-2.9614-6.42,42.02,42.02,0,0,1-2.7253-14.7693C135.4743,247.4547,136.057,240.0509,136.08,240.4782Z"/>
      <path class="cls-6" d="M136.08,240.4782c.4176,7.6142,2.01,9.563,3.3669,9.9586,3.3448.9753,7.7379-6.7636,18.9539-21.048,4.8731-6.2061,9.05-11.1209,11.8022-14.2871a11.98,11.98,0,0,1,11.5494-4.5791c6.6242,1.1462,9.0612,7.4014,9.1579,7.6631,3.8735,7.8187,9.2872,19.2389,15.0931,33.3481,12.3892,30.1075,14.4194,42.9459,27.01,51.4718,5.2237,3.5372,13.7812,7.3587,27.55,6.8828,2.7205-.0245,6.1374-.1174,10.0744-.3747,2.4009-.1568,7.9357-.5669,15.0745-1.626a185.5873,185.5873,0,0,0,22.6906-4.7824c2.4966-.7043,6.65-1.8857,11.9493-3.8512a129.4774,129.4774,0,0,0,28.2594-14.4194,73.5723,73.5723,0,0,0,12.476-10.5468,70.3913,70.3913,0,0,0,5.8628-7.1883c6.4013-9.2236,8.4979-19.8526,9.2436-26.6215v31.0388a42.5263,42.5263,0,0,1-.6525,7.2554,50.1727,50.1727,0,0,1-3.4992,10.9192c-2.668,5.7644-10.9681,18.546-28.903,29.813a115.024,115.024,0,0,1-22.92,10.8369,165.2423,165.2423,0,0,1-38.7055,9.1547,200.9042,200.9042,0,0,1-30.8767,1.49,196.1281,196.1281,0,0,1-39.4077-4.9581A158.7056,158.7056,0,0,1,176.6761,323.65a101,101,0,0,1-15.4294-9.5185,80.199,80.199,0,0,1-12.004-10.915,59.1435,59.1435,0,0,1-7.4756-10.5106,53.4735,53.4735,0,0,1-2.9614-6.42,42.02,42.02,0,0,1-2.7253-14.7693C135.4743,247.4547,136.057,240.0509,136.08,240.4782Z"/>
      <path class="cls-7" d="M135.8057,249.4956a6.8157,6.8157,0,0,0,1.7846,4.172,4.1255,4.1255,0,0,0,2.7474,1.5264,3.9736,3.9736,0,0,0,2.1369-.6105,4.3232,4.3232,0,0,0,1.0939-.9413l27.8814-34.979a9.7171,9.7171,0,0,1,6.7145-3.3873,8.5152,8.5152,0,0,1,2.3419.2837,10.2366,10.2366,0,0,1,5.7062,3.9328,10.0057,10.0057,0,0,1,1.2025,2.2642q28.6865,68.5338,28.7316,68.6451l0,0a35.1746,35.1746,0,0,0,3.5615,6.5124,41.1658,41.1658,0,0,0,10.7354,10.2775,49.1415,49.1415,0,0,0,8.2424,4.9352,51.0953,51.0953,0,0,0,13.4827,4.0194,53.49,53.49,0,0,0,10.2648.6105c5.3138-.36,9.88-.8345,13.4955-1.2719,1.9783-.2394,11.2777-1.3879,20.1988-3.3071,3.3166-.7135,6.5733-1.53,6.5734-1.53,1.9262-.4829,3.74-.9713,5.7138-1.5227,4.2092-1.1757,7.97-2.3617,11.2182-3.46l0,0A168.3337,168.3337,0,0,0,356.61,286.0773c4.7794-3.4055,9.7687-7.4213,13.8007-14.0934a43.5548,43.5548,0,0,0,5.7839-16.4846v1.043a42.8536,42.8536,0,0,1-5.3895,15.76c-3.9138,6.6969-8.8538,10.7878-13.6609,14.2715a161.8507,161.8507,0,0,1-37.51,19.8044,208.635,208.635,0,0,1-57.2808,11.0744,52.4773,52.4773,0,0,1-19.9909-2.9847,53.6651,53.6651,0,0,1-12.4525-6.487c-3.377-2.359-7.4008-5.2264-10.8371-10.4047a33.2311,33.2311,0,0,1-3.46-6.8073v0q-14.5385-34.8188-29.0771-69.6375a10.3361,10.3361,0,0,0-3.3071-3.6123,8.2908,8.2908,0,0,0-5.4949-1.6282,8.4635,8.4635,0,0,0-3.536,1.3229,10.3369,10.3369,0,0,0-2.2387,1.8316c-15.5834,19.5873-27.0267,33.9109-28.0337,35.0935a4.77,4.77,0,0,1-1.0434.9158,4.4633,4.4633,0,0,1-2.5947.7631,4.5535,4.5535,0,0,1-3.0909-1.6026,5.4362,5.4362,0,0,1-1.3875-3.3962Z"/>
      <g>
        <polygon class="cls-8" points="156.793 259.944 173.827 308.903 195.422 280.282 176.221 231.078 156.793 259.944"/>
        <path class="cls-9" d="M173.5806,251.54q3.7338,10.8978,7.6824,22.4236l14.1589,6.3179q-10.5273,13.9533-21.5947,28.6212-.7932-11.5976-1.5478-22.6225-4.7343-11.2663-9.2123-21.9225-3.16-2.2222-6.2746-4.4134,9.9936-14.8482,19.4288-28.8663Z"/>
        <path class="cls-10" d="M181.263,273.9638q-4.4417,6.09-8.9836,12.3166-4.7343-11.2663-9.2123-21.9225,5.3188-6.4849,10.5135-12.8177Q177.3144,262.438,181.263,273.9638Z"/>
        <path class="cls-10" d="M181.263,273.9638q-4.4417,6.09-8.9836,12.3166-4.7343-11.2663-9.2123-21.9225,5.3188-6.4849,10.5135-12.8177Q177.3144,262.438,181.263,273.9638Z"/>
        <path class="cls-11" d="M165.9788,265.5872c-.0859-3.5018,2.2135-7.1356,2.8614-5.5732,1.4074,3.3939.622,12.8713-.557,12.446C167.1008,272.0335,166.0341,267.8459,165.9788,265.5872Z"/>
        <path class="cls-11" d="M168.92,274.17c-.383,1.0992,1.0069,4.316,2.028,4.7564C171.9667,279.3657,169.6709,272.0154,168.92,274.17Z"/>
      </g>
      <circle class="cls-12" cx="152.6252" cy="258.2379" r="1.7848"/>
      <circle class="cls-12" cx="177.1738" cy="224.8155" r="1.7848"/>
      <circle class="cls-12" cx="199.7774" cy="281.7615" r="1.7848"/>
      <circle class="cls-12" cx="173.9475" cy="314.0144" r="1.7848"/>
    </g>
  </g>
</svg>
