<svg xmlns="http://www.w3.org/2000/svg" xmlns:xlink="http://www.w3.org/1999/xlink" width="512" height="512" viewBox="0 0 512 512">
  <defs>
    <style>
      .cls-1 {
        isolation: isolate;
      }

      .cls-2 {
        fill: #875a00;
      }

      .cls-10, .cls-11, .cls-12, .cls-13, .cls-14, .cls-15, .cls-16, .cls-17, .cls-18, .cls-19, .cls-2, .cls-20, .cls-21, .cls-22, .cls-23, .cls-24, .cls-25, .cls-26, .cls-27, .cls-28, .cls-29, .cls-3, .cls-30, .cls-31, .cls-32, .cls-33, .cls-34, .cls-35, .cls-4, .cls-5, .cls-6, .cls-7, .cls-8, .cls-9 {
        fill-rule: evenodd;
      }

      .cls-3 {
        fill: #ffb805;
      }

      .cls-4 {
        fill: url(#linear-gradient);
      }

      .cls-5 {
        fill: url(#linear-gradient-2);
      }

      .cls-6 {
        fill: url(#linear-gradient-3);
      }

      .cls-10, .cls-11, .cls-13, .cls-7, .cls-8 {
        mix-blend-mode: screen;
      }

      .cls-7 {
        fill: url(#radial-gradient);
      }

      .cls-8 {
        fill: url(#radial-gradient-2);
      }

      .cls-12, .cls-9 {
        mix-blend-mode: multiply;
      }

      .cls-9 {
        fill: url(#radial-gradient-3);
      }

      .cls-10 {
        fill: url(#radial-gradient-4);
      }

      .cls-11 {
        fill: url(#radial-gradient-5);
      }

      .cls-12 {
        opacity: 0.5;
        fill: url(#linear-gradient-4);
      }

      .cls-13 {
        fill: url(#linear-gradient-5);
      }

      .cls-14 {
        fill: url(#linear-gradient-6);
      }

      .cls-15 {
        fill: url(#radial-gradient-6);
      }

      .cls-16 {
        fill: url(#radial-gradient-7);
      }

      .cls-17 {
        fill: url(#radial-gradient-8);
      }

      .cls-18 {
        fill: url(#radial-gradient-9);
      }

      .cls-19 {
        fill: url(#radial-gradient-10);
      }

      .cls-20 {
        fill: url(#radial-gradient-11);
      }

      .cls-21 {
        fill: url(#radial-gradient-12);
      }

      .cls-22 {
        fill: url(#radial-gradient-13);
      }

      .cls-23 {
        fill: url(#radial-gradient-14);
      }

      .cls-24 {
        fill: url(#radial-gradient-15);
      }

      .cls-25 {
        fill: url(#radial-gradient-16);
      }

      .cls-26 {
        fill: url(#radial-gradient-17);
      }

      .cls-27 {
        fill: url(#radial-gradient-18);
      }

      .cls-28 {
        fill: url(#radial-gradient-19);
      }

      .cls-29 {
        fill: url(#radial-gradient-20);
      }

      .cls-30 {
        fill: url(#radial-gradient-21);
      }

      .cls-31 {
        fill: url(#radial-gradient-22);
      }

      .cls-32 {
        fill: url(#radial-gradient-23);
      }

      .cls-33 {
        fill: url(#radial-gradient-24);
      }

      .cls-34 {
        fill: url(#radial-gradient-25);
      }

      .cls-35 {
        fill: url(#radial-gradient-26);
      }
    </style>
    <linearGradient id="linear-gradient" x1="150.8075" y1="259.9375" x2="340.8286" y2="259.9375" gradientUnits="userSpaceOnUse">
      <stop offset="0" stop-color="#ff0606"/>
      <stop offset="0.2107" stop-color="#ef0505"/>
      <stop offset="0.6225" stop-color="#c40303"/>
      <stop offset="1" stop-color="#980000"/>
    </linearGradient>
    <linearGradient id="linear-gradient-2" x1="150.8075" y1="258.2096" x2="245.6896" y2="258.2096" xlink:href="#linear-gradient"/>
    <linearGradient id="linear-gradient-3" x1="227.4287" y1="421.0741" x2="227.4287" y2="154.7863" gradientUnits="userSpaceOnUse">
      <stop offset="0" stop-color="#db9307"/>
      <stop offset="1" stop-color="#945800"/>
    </linearGradient>
    <radialGradient id="radial-gradient" cx="193.2186" cy="123.7677" r="97.545" gradientUnits="userSpaceOnUse">
      <stop offset="0"/>
      <stop offset="1" stop-color="#ffd857"/>
    </radialGradient>
    <radialGradient id="radial-gradient-2" cx="290.4255" cy="227.1237" r="303.8963" xlink:href="#radial-gradient"/>
    <radialGradient id="radial-gradient-3" cx="73.3186" cy="335.3737" r="176.193" gradientUnits="userSpaceOnUse">
      <stop offset="0" stop-color="#fff"/>
      <stop offset="0.1068" stop-color="#fdfcfa"/>
      <stop offset="0.2305" stop-color="#f9f4ec"/>
      <stop offset="0.3627" stop-color="#f1e6d5"/>
      <stop offset="0.5007" stop-color="#e6d3b4"/>
      <stop offset="0.6434" stop-color="#d9ba8a"/>
      <stop offset="0.79" stop-color="#c89c57"/>
      <stop offset="0.937" stop-color="#b4781c"/>
      <stop offset="1" stop-color="#ab6800"/>
    </radialGradient>
    <radialGradient id="radial-gradient-4" cx="162.8449" cy="208.338" r="271.2375" gradientUnits="userSpaceOnUse">
      <stop offset="0" stop-color="#d44660"/>
      <stop offset="1"/>
    </radialGradient>
    <radialGradient id="radial-gradient-5" cx="297.6773" cy="94.4568" r="321.1119" xlink:href="#radial-gradient-4"/>
    <linearGradient id="linear-gradient-4" x1="245.2454" y1="263.7104" x2="295.544" y2="263.7104" gradientUnits="userSpaceOnUse">
      <stop offset="0" stop-color="#ab6800"/>
      <stop offset="0.063" stop-color="#b4781c"/>
      <stop offset="0.21" stop-color="#c89c57"/>
      <stop offset="0.3566" stop-color="#d9ba8a"/>
      <stop offset="0.4993" stop-color="#e6d3b4"/>
      <stop offset="0.6373" stop-color="#f1e6d5"/>
      <stop offset="0.7695" stop-color="#f9f4ec"/>
      <stop offset="0.8932" stop-color="#fdfcfa"/>
      <stop offset="1" stop-color="#fff"/>
    </linearGradient>
    <linearGradient id="linear-gradient-5" x1="209.9528" y1="258.0954" x2="245.7185" y2="258.0954" xlink:href="#radial-gradient"/>
    <linearGradient id="linear-gradient-6" x1="164.6264" y1="125.6762" x2="189.0782" y2="125.6762" xlink:href="#linear-gradient-3"/>
    <radialGradient id="radial-gradient-6" cx="164.013" cy="216.6897" r="3.8859" gradientTransform="translate(-121.5692 -72.4746) rotate(-20.842) scale(1 1.7161)" gradientUnits="userSpaceOnUse">
      <stop offset="0" stop-color="#ffb805"/>
      <stop offset="0.2232" stop-color="#fbb505"/>
      <stop offset="0.4288" stop-color="#f0ac04"/>
      <stop offset="0.6274" stop-color="#de9d03"/>
      <stop offset="0.8206" stop-color="#c38802"/>
      <stop offset="1" stop-color="#a46e00"/>
    </radialGradient>
    <radialGradient id="radial-gradient-7" cx="209.9528" cy="230.2913" r="3.8859" gradientTransform="translate(-126.8677 -64.3417) rotate(-20.842) scale(1 1.7161)" xlink:href="#radial-gradient-6"/>
    <radialGradient id="radial-gradient-8" cx="217.3087" cy="243.8928" r="3.8859" gradientTransform="translate(-134.6909 -69.9367) rotate(-20.842) scale(1 1.7161)" xlink:href="#radial-gradient-6"/>
    <radialGradient id="radial-gradient-9" cx="225.4974" cy="257.4944" r="3.8859" gradientTransform="translate(-142.4596 -75.2353) rotate(-20.842) scale(1 1.7161)" xlink:href="#radial-gradient-6"/>
    <radialGradient id="radial-gradient-10" cx="183.8292" cy="218.2963" r="3.8859" gradientTransform="translate(-121.2535 -66.3942) rotate(-20.842) scale(1 1.7161)" xlink:href="#radial-gradient-6"/>
    <radialGradient id="radial-gradient-11" cx="192.9059" cy="240.77" r="3.8859" gradientTransform="translate(-134.381 -76.7336) rotate(-20.842) scale(1 1.7161)" xlink:href="#radial-gradient-6"/>
    <radialGradient id="radial-gradient-12" cx="291.4407" cy="273.5079" r="3.1313" gradientTransform="translate(-147.9218 -61.4416) rotate(-20.842) scale(1 1.7161)" xlink:href="#radial-gradient-6"/>
    <radialGradient id="radial-gradient-13" cx="291.4407" cy="292.7629" r="3.1313" gradientTransform="translate(-159.678 -73.0671) rotate(-20.842) scale(1 1.7161)" xlink:href="#radial-gradient-6"/>
    <radialGradient id="radial-gradient-14" cx="297.9986" cy="286.7799" r="3.1313" gradientTransform="translate(-155.5959 -67.1215) rotate(-20.842) scale(1 1.7161)" xlink:href="#radial-gradient-6"/>
    <radialGradient id="radial-gradient-15" cx="304.6606" cy="300.0518" r="3.1313" gradientTransform="translate(-163.2633 -72.7643) rotate(-20.842) scale(1 1.7161)" xlink:href="#radial-gradient-6"/>
    <radialGradient id="radial-gradient-16" cx="304.6606" cy="280.707" r="3.1313" gradientTransform="translate(-151.4522 -61.0847) rotate(-20.842) scale(1 1.7161)" xlink:href="#radial-gradient-6"/>
    <radialGradient id="radial-gradient-17" cx="319.2337" cy="287.6933" r="3.1313" gradientTransform="translate(-154.7641 -60.1177) rotate(-20.842) scale(1 1.7161)" xlink:href="#radial-gradient-6"/>
    <radialGradient id="radial-gradient-18" cx="319.2337" cy="298.7272" r="3.1313" gradientTransform="translate(-161.501 -66.7796) rotate(-20.842) scale(1 1.7161)" xlink:href="#radial-gradient-6"/>
    <radialGradient id="radial-gradient-19" cx="319.2337" cy="309.7612" r="3.1313" gradientTransform="translate(-168.2378 -73.4414) rotate(-20.842) scale(1 1.7161)" xlink:href="#radial-gradient-6"/>
    <radialGradient id="radial-gradient-20" cx="329.6431" cy="314.5939" r="3.1313" gradientTransform="translate(-170.5073 -72.6557) rotate(-20.842) scale(1 1.7161)" xlink:href="#radial-gradient-6"/>
    <radialGradient id="radial-gradient-21" cx="329.6431" cy="303.56" r="3.1313" gradientTransform="translate(-163.7705 -65.9939) rotate(-20.842) scale(1 1.7161)" xlink:href="#radial-gradient-6"/>
    <radialGradient id="radial-gradient-22" cx="329.6431" cy="292.5261" r="3.1313" gradientTransform="translate(-157.0337 -59.332) rotate(-20.842) scale(1 1.7161)" xlink:href="#radial-gradient-6"/>
    <radialGradient id="radial-gradient-23" cx="260.5249" cy="258.0954" r="3.8859" gradientTransform="translate(-140.5345 -63.1357) rotate(-20.842) scale(1 1.7161)" xlink:href="#radial-gradient-6"/>
    <radialGradient id="radial-gradient-24" cx="273.8489" cy="264.8682" r="3.8859" gradientTransform="translate(-143.7978 -62.4843) rotate(-20.842) scale(1 1.7161)" xlink:href="#radial-gradient-6"/>
    <radialGradient id="radial-gradient-25" cx="273.8489" cy="282.8606" r="3.8859" gradientTransform="translate(-154.7832 -73.3474) rotate(-20.842) scale(1 1.7161)" xlink:href="#radial-gradient-6"/>
    <radialGradient id="radial-gradient-26" cx="260.5249" cy="276.8631" r="3.8859" gradientTransform="translate(-151.9932 -74.4669) rotate(-20.842) scale(1 1.7161)" xlink:href="#radial-gradient-6"/>
  </defs>
  <g class="cls-1">
    <g id="Layer_1" data-name="Layer 1">
      <g id="Item">
        <g id="Shield">
          <path class="cls-2" d="M133.5984,128.7329l17.2091-6.4525a16.9124,16.9124,0,0,0,10.5247-.8c9.154-4.0443,14.19-17.9516,11.006-34.2883l-12.6439-9.1054,17.69-8.3068a231.1055,231.1055,0,0,1,86.0063,4.485A466.7412,466.7412,0,0,1,312.99,121.489a466.7735,466.7735,0,0,1,40.6288,51.7093c-1.8637,4.7832-8.9716,24.64-.2638,47.2243a65.5626,65.5626,0,0,0,25.047,30.8828l-5.2767,99.8014a100.4442,100.4442,0,0,1-10.0013,36.0269,102.5008,102.5008,0,0,1-15.614,22.9006c-15.1329,17.3149-30.9578,24.9986-34.3712,26.6031a96.5546,96.5546,0,0,1-10.2456,4.1187Q218.2456,284.7446,133.5984,128.7329Z"/>
          <path class="cls-3" d="M245.7185,439.3376C192.7275,391.97,140.2664,309.947,137.2161,227.0521l-3.6177-98.3192c12.1829,6.0377,22.2261,3.4157,27.7337-7.2527,5.5117-10.6772,4.92-26.3917-1.6379-43.3937,27.865-4.2346,58.6408-3.5318,85.5512,5.005,26.9957,22.7048,58.0516,57.9255,86.3285,94.8975-6.6173,9.4377-7.1774,24.5906-1.5463,41.8635,5.63,17.2748,15.8677,31.812,28.2874,40.1566l-3.4312,95.14c-2.8906,80.1683-55.9628,99.9432-109.1653,84.1888Z"/>
          <path class="cls-3" d="M245.7185,439.3376l-.4731-356.2461c-26.91-8.5368-57.6862-9.24-85.5512-5.005,6.558,17.002,7.15,32.7165,1.6379,43.3937-5.5076,10.6689-15.5508,13.29-27.7337,7.2527l3.6177,98.3192c3.05,82.8949,55.5114,164.9175,108.5024,212.2855Z"/>
          <path class="cls-4" d="M245.2743,104.8536c-22.1872-6.4255-44.9229-6.9153-64.7455-5.1,2.4471,15.5468,1.0208,29.56-4.3519,39.9536-5.5891,10.8064-14.5078,16.0618-25.3694,15.4105l2.9572,80.7349c2.4792,67.62,44.2733,137.5208,91.9249,181.7292,47.812,12.4432,90.0033-7.98,92.3437-73.2955l2.7953-78.0222c-11.0514-12.2089-20.1257-28.0543-25.8251-45.5427-5.4745-16.8013-6.9569-32.5931-4.52-45.3779-20.0538-25.0634-42.96-51.12-65.21-70.49Z"/>
          <path class="cls-5" d="M245.69,417.5816l-.4153-312.728c-22.1872-6.4256-44.9229-6.9153-64.7454-5.1,2.447,15.5469,1.0206,29.56-4.352,39.9538-5.589,10.8064-14.5078,16.0616-25.3694,15.41l2.9572,80.7349C156.2439,303.4724,198.0381,373.3732,245.69,417.5816Z"/>
          <path class="cls-6" d="M159.39,242.7307q-1.1238-43.9722-2.2475-87.9444a24.606,24.606,0,0,1-6.3351.3312q1.4787,40.3672,2.9572,80.7343c.0775,2.0679.2173,4.87.4888,8.1812a198.0677,198.0677,0,0,0,2.8992,20.7944,237.5767,237.5767,0,0,0,8.5011,31.5879A276.68,276.68,0,0,0,180.18,330.47c1.7091,3.387,6.8555,13.4213,14.7494,25.8591a322.8875,322.8875,0,0,0,19.3568,27.2077c7.302,9.2256,13.3038,15.78,15.1874,17.8191,5.94,6.43,11.4739,11.84,16.2165,16.2259a98.8308,98.8308,0,0,0,14.3218,2.757,82.0655,82.0655,0,0,0,18.7022.3511,66.7965,66.7965,0,0,0,14.3-2.8369,64.6713,64.6713,0,0,0,11.0366-4.6809,108.93,108.93,0,0,1-31.689,4.41l-24.14-4.1065a291.9484,291.9484,0,0,1-36.0118-41.1564C177.3437,323.9648,164.5607,274.7793,159.39,242.7307Z"/>
          <path class="cls-7" d="M148.7429,131.6429c14.6916.4552,25.711-14.334,21.75-43.2275,1.5409-11.8552,26.658-11.9613,38.4252-12.2217a215.5189,215.5189,0,0,0-49.2241,1.8928c6.558,17.002,7.15,32.7165,1.6379,43.3937-2.9874,5.79-7.3129,9.2094-12.5892,10.1627Z"/>
          <path class="cls-8" d="M137.1852,139.4526c-.0958-6.1182,3.1167-7.5236,6.6124-7.6182a29.0307,29.0307,0,0,1-10.1992-3.1015l3.6177,98.3192c1.9536,53.0788,24.1318,105.738,53.7212,149.1854-11.8766-19.6851-23.403-39.045-31.611-61.449-17.9828-49.0837-20.4652-68.9792-22.1411-175.3359Z"/>
          <path class="cls-9" d="M151.3081,168.7989c1.5659-1.7643,3.7826,3.1453,4.0676,6.5951,1.0394,12.5572,1.2014,24.6922,1.7,36.9809,1.4785,36.4074.6467,49.74,12.4067,89.9081,1.5548,5.3092,3.13,10.35,4.4326,15.0406a313.0485,313.0485,0,0,0,46.0078,73.1043C186.5968,348.4,161.2986,294.9006,159.39,242.7308q-1.1238-43.9724-2.2475-87.9445a25.5956,25.5956,0,0,1-6.3351.3312Q151.0579,161.9583,151.3081,168.7989Z"/>
          <path class="cls-2" d="M248.2211,413.4751a283.2559,283.2559,0,0,1-23.3484-24.7335,290.7512,290.7512,0,0,1-27.6843-39.49A305.6809,305.6809,0,0,1,166.47,275.6423c-2.7437-10.0915-5.4153-19.9177-7.1-33.7162-2.052-16.804-1.0926-26.8178-1.4059-55.0158-.1548-13.9276-.5411-25.1783-.821-32.124-.6934.1071-1.4282.1968-2.2016.2609a31.48,31.48,0,0,1-4.1335.07c.6744,14.5885,1.0429,26.38,1.25,34.075.8237,30.5907.2535,39.3381,2.4108,57.226a242.5688,242.5688,0,0,0,5.048,29.1324,250.8182,250.8182,0,0,0,13.91,40.97,274.02,274.02,0,0,0,20.8431,38.7155,319.0077,319.0077,0,0,0,25.6533,35.1917A313.0612,313.0612,0,0,0,245.69,417.5816a104.8063,104.8063,0,0,0,20.2092,3.2845,81.7446,81.7446,0,0,0,12.2662-.07,70.6123,70.6123,0,0,0,12.0931-2.1481,66.0791,66.0791,0,0,0,9.4027-3.3209c1.7852-.7928,3.27-1.5511,4.3891-2.1553a108.9887,108.9887,0,0,1-12.907,2.9519,112.6911,112.6911,0,0,1-18.782,1.4578,74.3762,74.3762,0,0,1-8.1785-.3471A65.2176,65.2176,0,0,1,248.2211,413.4751Z"/>
          <path class="cls-10" d="M252.8026,134.5876a9.3974,9.3974,0,0,0-2.8294,6.5805c-1.924,40.2333-3.7347,177.7884-.2159,236.6114.8937,14.9619,3.2,23.7077,7.6048,28.6107,3.5139,3.9106,12.1609,5.395,22.8984,2.1144,16.4168-5.0172,35.2752-19.5467,45.1536-48.791,3.5912-10.6221,9.2548-75.9955,4.7-85.0227-7.114-14.1007-40.3339-36.3435-45.2074-111.6572C284.65,159.0518,259.5873,128.4453,252.8026,134.5876Z"/>
          <path class="cls-11" d="M237.8206,125.8779a27.1573,27.1573,0,0,1,2.8478,9.8775c2.033,42.5253,4.212,182.4.8458,237.1421-.855,13.92-3.1391,19.9393-7.5314,19.6208-3.5-.2537-12.1272-9.0122-22.8339-24.9851-16.3316-24.3646-33.6477-60.1578-43.49-100.8114-3.5718-14.7511-5.92-87.3814-1.45-91.0755,6.9894-5.7772,35.022,10.9,39.6663-58.5912.2459-3.6757,25.1466-5.2029,31.9448,8.8228Z"/>
          <path class="cls-2" d="M152.1205,190.9527l5.8557-2.85,72.8325,36.1456,35.2093-99.7153,6.4748,6.19v116.214l67.7215,36.474.0148,5.8641-67.8682,1.0608V417.5816l-6.4621,3.2844-16.9581-17.2183-3.2222-133.89Z"/>
          <path class="cls-3" d="M230.4415,101.4119q.0006,65.0126.001,130.0253l-78.322-40.4845q.14,12.4656.4964,25.2493.2171,7.7111.5092,15.3014l77.3167,40.2985q-.01,65.2884-.02,130.5768,3.7418,3.9477,7.8,7.9862,3.77,3.7461,7.4671,7.2167c2.4025.6631,4.9971,1.28,7.7723,1.8039a96.755,96.755,0,0,0,12.4136,1.5224l.0012-130.6052,73.04,38.27q.6563-19.6488,1.3126-39.2976l-74.3524-38.9414V124.3911q-5.9985-6.14-12.742-12.4327-3.9612-3.6843-7.86-7.1048-2.9568-.8537-6.1677-1.6331C236.1,102.4954,233.2049,101.9,230.4415,101.4119Z"/>
          <path class="cls-12" d="M251.2857,92.7656a1.1321,1.1321,0,0,1,.4468-.5639c1.0935-.5892,2.5886-.338,4.0568.194q-5.3574-4.9359-10.5439-9.3042l.0105,7.9151.0184,13.847q.2076,156.3639.4153,312.728.0144,10.878.0289,21.756a114.6919,114.6919,0,0,0,33.24,4.9917c-1.8734-.6655-15.0408-5.3894-20.0667-9.4805-1.8741-1.5255-2.3965-2.7844-2.4905-3.8024a5.6268,5.6268,0,0,1,1.6445-4.0533c2.129-2.358,5.0455-2.5187,8.6506-3.1278a64.5158,64.5158,0,0,0,11.4683-3.0691c-2.288.1873-4.7644.2919-7.4057.2653-1.6957-.0171-3.318-.0868-4.8605-.1955-2.6648-.1953-4.8639-.4676-6.4281-.69-7.8174-1.11-9.3428-2.3234-10.1284-3.4034a6.311,6.311,0,0,1-1.1212-3.2977l.4489-284.3742a17.4945,17.4945,0,0,1,.7525-6.3341c.5663-1.8075,1.6493-5.2642,3.8442-6.2905,3.0263-1.4149,8.5156,1.6275,12.7513,8.0564,14.0042,15.1064,24.0568,26.2337,25.51,27.9238,1.4235,1.6553,2.85,3.3332,2.85,3.3333q.5835.687,1.1659,1.3749c-10.3044-13.2825-28.6569-33.8124-39.836-47.2368a19.6056,19.6056,0,0,1-4.0272-6.8264C251.0425,100.9959,250.399,94.7736,251.2857,92.7656Z"/>
          <path class="cls-13" d="M232.9991,83.7769c5.5659,5.4424,9.7506,16.7219,3.9195,17.9162a16.0116,16.0116,0,0,1-3.6515.2479,10.9261,10.9261,0,0,1,7.0888,4.4441,10.3585,10.3585,0,0,1,1.7313,5.1446q.6926,145.3,1.385,290.601a6.1433,6.1433,0,0,1-.0659,1.8468c-.1009.5294-.6278,3.2937-3.1,4.287a5.1435,5.1435,0,0,1-5.21-.9893c-4.526-4.5184-9.231-9.5645-13.9826-15.17-4.1229-4.8635-7.8314-9.618-11.1605-14.179,2.2636,3.9167,4.7758,7.98,7.5642,12.1425,4.243,6.3341,8.5351,12.0164,12.6982,17.0744a17.3553,17.3553,0,0,1,4.1248,9.4016c.1853,1.9637.4952,5.2481-1.3547,6.3289-1.5585.9106-4.2733.0371-6.4987-2.3046q4.4044,4.63,9.2688,9.3948,5.05,4.935,9.9631,9.3736-.0144-10.8781-.0289-21.756l-.4442-334.49a159.505,159.505,0,0,0-29.6367-6.2383C221.5793,77.89,228.3864,79.2675,232.9991,83.7769Z"/>
          <path class="cls-14" d="M173.9886,143.406c-2.9307,4.3122-8.9711,8.5106-9.3622,8.7794a38.36,38.36,0,0,0,10.1856-6.4826c17.4875-15.5579,14.2294-42.3565,13.6589-46.5359l-7.942.5864c.18,1.13.39,2.5854.5812,4.2874.3867,3.44.49,6.0567.5149,6.7308a78.4419,78.4419,0,0,1-.1956,9.385c-.052.6063-.134,1.5488-.2963,2.8046a56.384,56.384,0,0,1-2.1655,9.9382,42.1294,42.1294,0,0,1-2.1342,5.4782A40.7493,40.7493,0,0,1,173.9886,143.406Z"/>
          <g>
            <path class="cls-15" d="M168.5379,219.04c0,3.0514-2.0308,4.4658-4.5316,3.1624a9.6062,9.6062,0,0,1-4.5182-7.86c-.0014-3.0422,2.0184-4.4646,4.5156-3.1738A9.5963,9.5963,0,0,1,168.5379,219.04Z"/>
            <g>
              <path class="cls-16" d="M214.4777,232.6414c0,3.0514-2.0309,4.4659-4.5316,3.1624a9.6059,9.6059,0,0,1-4.5182-7.86c-.0014-3.0423,2.0183-4.4646,4.5156-3.1738A9.5963,9.5963,0,0,1,214.4777,232.6414Z"/>
              <path class="cls-17" d="M221.8336,246.243c0,3.0514-2.0308,4.4658-4.5316,3.1624a9.6059,9.6059,0,0,1-4.5181-7.86c-.0014-3.0423,2.0183-4.4647,4.5156-3.1738A9.5963,9.5963,0,0,1,221.8336,246.243Z"/>
              <path class="cls-18" d="M230.0223,259.8446c0,3.0514-2.0308,4.4658-4.5316,3.1624a9.6059,9.6059,0,0,1-4.5181-7.86c-.0014-3.0422,2.0183-4.4646,4.5156-3.1738A9.5966,9.5966,0,0,1,230.0223,259.8446Z"/>
            </g>
            <g>
              <path class="cls-19" d="M188.3541,220.6465c0,3.0514-2.0309,4.4658-4.5316,3.1624a9.6059,9.6059,0,0,1-4.5182-7.86c-.0014-3.0423,2.0183-4.4647,4.5156-3.1738A9.5961,9.5961,0,0,1,188.3541,220.6465Z"/>
              <path class="cls-20" d="M197.4308,243.12c0,3.0514-2.0309,4.4658-4.5317,3.1624a9.6061,9.6061,0,0,1-4.5181-7.86c-.0014-3.0423,2.0183-4.4647,4.5156-3.1738A9.5961,9.5961,0,0,1,197.4308,243.12Z"/>
            </g>
            <g>
              <path class="cls-21" d="M295.0869,275.4017c0,2.4588-1.6365,3.5986-3.6516,2.5483a7.7408,7.7408,0,0,1-3.6408-6.3334c-.0011-2.4515,1.6264-3.5976,3.6387-2.5575A7.7327,7.7327,0,0,1,295.0869,275.4017Z"/>
              <path class="cls-22" d="M295.0869,294.6567c0,2.4588-1.6365,3.5986-3.6516,2.5483a7.7408,7.7408,0,0,1-3.6408-6.3334c-.0011-2.4515,1.6264-3.5976,3.6387-2.5575A7.7327,7.7327,0,0,1,295.0869,294.6567Z"/>
              <path class="cls-23" d="M301.6448,288.6737c0,2.4588-1.6365,3.5985-3.6516,2.5482a7.7408,7.7408,0,0,1-3.6408-6.3334c-.0011-2.4514,1.6264-3.5976,3.6387-2.5574A7.7327,7.7327,0,0,1,301.6448,288.6737Z"/>
              <path class="cls-24" d="M308.3068,301.9456c0,2.4588-1.6365,3.5985-3.6516,2.5482a7.74,7.74,0,0,1-3.6408-6.3333c-.0011-2.4515,1.6264-3.5976,3.6387-2.5575A7.7327,7.7327,0,0,1,308.3068,301.9456Z"/>
              <path class="cls-25" d="M308.3068,282.6008c0,2.4588-1.6365,3.5986-3.6516,2.5483a7.7408,7.7408,0,0,1-3.6408-6.3334c-.0011-2.4515,1.6264-3.5976,3.6387-2.5575A7.7327,7.7327,0,0,1,308.3068,282.6008Z"/>
            </g>
            <g>
              <path class="cls-26" d="M322.88,289.5871c0,2.4588-1.6365,3.5985-3.6516,2.5482a7.74,7.74,0,0,1-3.6408-6.3333c-.0011-2.4515,1.6264-3.5976,3.6387-2.5575A7.7327,7.7327,0,0,1,322.88,289.5871Z"/>
              <path class="cls-27" d="M322.88,300.621c0,2.4588-1.6365,3.5986-3.6516,2.5483a7.7408,7.7408,0,0,1-3.6408-6.3334c-.0011-2.4515,1.6264-3.5976,3.6387-2.5575A7.7327,7.7327,0,0,1,322.88,300.621Z"/>
              <path class="cls-28" d="M322.88,311.6549c0,2.4589-1.6365,3.5986-3.6516,2.5483a7.7408,7.7408,0,0,1-3.6408-6.3334c-.0011-2.4515,1.6264-3.5976,3.6387-2.5574A7.7326,7.7326,0,0,1,322.88,311.6549Z"/>
              <path class="cls-29" d="M333.2892,316.4877c0,2.4588-1.6364,3.5986-3.6516,2.5483a7.7407,7.7407,0,0,1-3.6407-6.3334c-.0011-2.4515,1.6264-3.5976,3.6387-2.5575A7.7328,7.7328,0,0,1,333.2892,316.4877Z"/>
              <path class="cls-30" d="M333.2892,305.4538c0,2.4588-1.6364,3.5985-3.6516,2.5482a7.74,7.74,0,0,1-3.6407-6.3333c-.0011-2.4515,1.6264-3.5977,3.6387-2.5575A7.7328,7.7328,0,0,1,333.2892,305.4538Z"/>
              <path class="cls-31" d="M333.2892,294.42c0,2.4588-1.6364,3.5985-3.6516,2.5482a7.7407,7.7407,0,0,1-3.6407-6.3334c-.0011-2.4514,1.6264-3.5976,3.6387-2.5574A7.7328,7.7328,0,0,1,333.2892,294.42Z"/>
            </g>
            <g>
              <path class="cls-32" d="M265.05,260.4456c0,3.0513-2.0309,4.4658-4.5316,3.1623a9.6059,9.6059,0,0,1-4.5182-7.86c-.0014-3.0423,2.0183-4.4646,4.5156-3.1738A9.5963,9.5963,0,0,1,265.05,260.4456Z"/>
              <path class="cls-33" d="M278.3738,267.2183c0,3.0514-2.0309,4.4659-4.5317,3.1624a9.6061,9.6061,0,0,1-4.5181-7.86c-.0014-3.0423,2.0183-4.4646,4.5156-3.1738A9.5963,9.5963,0,0,1,278.3738,267.2183Z"/>
              <path class="cls-34" d="M278.3738,285.2107c0,3.0514-2.0309,4.4658-4.5317,3.1624a9.6061,9.6061,0,0,1-4.5181-7.86c-.0014-3.0423,2.0183-4.4647,4.5156-3.1738A9.5963,9.5963,0,0,1,278.3738,285.2107Z"/>
              <path class="cls-35" d="M265.05,279.2133c0,3.0514-2.0309,4.4658-4.5316,3.1624a9.606,9.606,0,0,1-4.5182-7.86c-.0014-3.0423,2.0183-4.4646,4.5156-3.1738A9.5963,9.5963,0,0,1,265.05,279.2133Z"/>
            </g>
          </g>
        </g>
      </g>
    </g>
  </g>
</svg>
