<svg id="Layer_1" data-name="Layer 1" xmlns="http://www.w3.org/2000/svg" xmlns:xlink="http://www.w3.org/1999/xlink" width="512" height="512" viewBox="0 0 512 512">
  <defs>
    <style>
      .cls-1 {
        fill: #100933;
      }

      .cls-1, .cls-3, .cls-4, .cls-5, .cls-6, .cls-7, .cls-8 {
        fill-rule: evenodd;
      }

      .cls-2 {
        fill: url(#radial-gradient);
      }

      .cls-3 {
        fill: url(#linear-gradient);
      }

      .cls-4 {
        fill: #332410;
      }

      .cls-5 {
        fill: url(#radial-gradient-2);
      }

      .cls-6 {
        fill: #777;
      }

      .cls-7 {
        fill: url(#radial-gradient-3);
      }

      .cls-8 {
        fill: url(#radial-gradient-4);
      }
    </style>
    <radialGradient id="radial-gradient" cx="255.8491" cy="310.5184" r="117.5033" gradientUnits="userSpaceOnUse">
      <stop offset="0.0907" stop-color="#6a47cc"/>
      <stop offset="0.1226" stop-color="#6644c6"/>
      <stop offset="0.3459" stop-color="#4f31a3"/>
      <stop offset="0.5561" stop-color="#3f248a"/>
      <stop offset="0.7462" stop-color="#351c7a"/>
      <stop offset="0.8986" stop-color="#311975"/>
    </radialGradient>
    <linearGradient id="linear-gradient" x1="174.6982" y1="292.5661" x2="337.13" y2="292.5661" gradientUnits="userSpaceOnUse">
      <stop offset="0" stop-color="#563e24"/>
      <stop offset="0.1937" stop-color="#775b39"/>
      <stop offset="1" stop-color="#423014"/>
    </linearGradient>
    <radialGradient id="radial-gradient-2" cx="216.6262" cy="194.0761" r="180.7337" xlink:href="#radial-gradient"/>
    <radialGradient id="radial-gradient-3" cx="210.5241" cy="302.5125" r="6.874" gradientTransform="translate(7.9666 -8.5744) rotate(2.3171)" gradientUnits="userSpaceOnUse">
      <stop offset="0" stop-color="#e5e5e5"/>
      <stop offset="1" stop-color="#848484"/>
    </radialGradient>
    <radialGradient id="radial-gradient-4" cx="201.9586" cy="297.8067" r="25.8148" xlink:href="#radial-gradient-3"/>
  </defs>
  <g id="Hat">
    <g id="Sorcerer_Hat" data-name="Sorcerer Hat">
      <path class="cls-1" d="M332.1081,241.1114c20.86,8.0706,54.07,20.9195,64.3289,51.9832,5.76,17.4419,1.8307,33.1955.3133,38.9688-6.7921,25.8411-26.14,41.4309-36.6,47.0427a141.1293,141.1293,0,0,1-19.2367,8.211c-1.0146.3493-5.9436,2.0332-12.6742,3.7781-5.2924,1.372-9.9485,2.328-13.7078,3.0021-4.1463-7.4164-7.1268-10.8971-8.0756-10.8837-.8817.0125-.9587,3.2109-.8888,8.9956a19.6834,19.6834,0,0,1-.2239,3.3663,302.567,302.567,0,0,1-52.1257,1.9567,298.0668,298.0668,0,0,1-58.785-8.7527c-5.7389-1.4635-10.4784-2.86-13.7968-3.8834-7.6177-2.3295-14.0378-4.775-19.0947-6.8932a155.84,155.84,0,0,1-16.365-7.8084c-3.2307-1.79-6.2423-3.618-7.74-4.6042a56.9742,56.9742,0,0,1-23.2121-33.5269,55.8774,55.8774,0,0,1,2.2435-31.9933l8.9084-7.8032-4.5212-1.6772.1311-1.5762.9992-.9032c8.0061-11.7015,22.679-29.6009,46.4829-42.4669,27.8835-15.0711,53.6682-15.2356,84.2921-15.6349C276.249,229.7023,301.76,229.37,332.1081,241.1114Z"/>
      <path class="cls-2" d="M134.71,269.3328c45.274-51.71,129.7857-47.83,180.9937-33.8361,22.6314,6.1846,65.4764,17.893,79.1144,52.7513,7.3409,18.763,3.3527,36.8761,2.5657,40.165-6.62,27.6668-29.4293,42.7971-36.7643,47.253l-19.3225,8.2472a184.7028,184.7028,0,0,1-26.5,6.8108c-4.1645-7.45-7.1588-10.9463-8.1118-10.9324-1.0445.0146-1.3908,4.501-1.1176,12.4176a273.7137,273.7137,0,0,1-52.3586,1.9658,310.7454,310.7454,0,0,1-59.0491-8.7916l-13.8586-3.9011a195.6668,195.6668,0,0,1-35.6191-14.768l-7.775-4.625c-3.1582-2.0453-18.976-12.7462-23.3148-33.6763a53.265,53.265,0,0,1,4.144-33.3644l9.1955-4.6169-5.9458-1.4182A110.0181,110.0181,0,0,1,134.71,269.3328Z"/>
      <path class="cls-3" d="M181.18,259.454H330.6487c.7588,8.1963,2.7288,14.7658,5.4459,22.8776a18.3342,18.3342,0,0,1-1.3475,15.1245c-8.8836,16.217-40.81,28.2221-78.8328,28.2221s-69.95-12.0051-78.8322-28.2221a18.33,18.33,0,0,1-1.3485-15.1245c2.7163-8.1118,4.6872-14.6813,5.446-22.8776Z"/>
      <path class="cls-4" d="M255.9143,229.4864c41.308,0,74.7944,13.9811,74.7944,31.2284s-33.4864,31.228-74.7944,31.228-74.7951-13.9815-74.7951-31.228,33.4867-31.2284,74.7951-31.2284Z"/>
      <path class="cls-5" d="M325.4,260.7148c0,16.0223-31.11,29.012-69.486,29.012s-69.4866-12.99-69.4866-29.012c0-2.48,1.0649-5.4986,2.11-8.23,4.944-12.9171,7.4941-25.6793,8.8343-39.4373,1.1054-11.3494.6461-6.9113,7.7928-13.9971,10.6044-12.02,20.8635-24.3292,31.1192-36.6437,6.2993-7.9093,11.3084-17.0859,17.3263-25.486,2.4137-3.4733,5.809-9.5452,9.2452-13.4722,1.8569-2.1223,7.6792-2.28,12.4471-4.079,4.8555-1.831,8.6568-5.2841,10.3256-5.2625,3.24.0437,6.3282,1.7551,9.7386,3.4221,5.4261,2.6511,10.3583,6.2932,15.7923,9.1325,16.3257,8.3064,18.2236,8.6129,36.1862,11.7431,8.6577,1.509,16.63,3.9348,25.6737,5.2418,2.0791.3,3.82.5093,2.7167,2.0291a6.3018,6.3018,0,0,1-.812.8866c-9.9759,8.6646-33.371,16.1-53.2431,16.6719-3.4246,12.9845-6.727,25.99-8.8178,39.3078,2.0623,4.2227,5.8227,3.4954,6.0941,8.5568a257.6136,257.6136,0,0,0,3.9189,34.4864C324.1875,253.1607,325.4,256.0264,325.4,260.7148Z"/>
      <g>
        <path class="cls-6" d="M207.1511,319.65a23.9378,23.9378,0,0,0,6.6889-1.5558,3.7622,3.7622,0,0,0,1.5632-1.1871,36.56,36.56,0,0,0,4.5-9.5833,32.02,32.02,0,0,0,1.04-13.8614,10.3024,10.3024,0,0,0-2.401-5.739,10.6147,10.6147,0,0,0-3.9876-2.8282c-3.9465-1.7139-11.7117-5.3506-22.0537-10.1325a2.667,2.667,0,0,0-1.1867-.2453q-1.2657-.0411-2.5906-.0492-1.5432-.0086-3.0081.0306-.0842.9519-.1685,1.904l26.8964,14.3313q.7266,5.2948,1.4533,10.5894l-12.0495-4.4242a1.1329,1.1329,0,0,0-.49-.0648q-.3625.0125-.7468.04c-.38.0277-.7438.0652-1.09.11l13.83,7.681-1.4129,5.6735-4.1994,5.2018Z"/>
        <path class="cls-7" d="M211.3821,307.2485l-11.856-5.0065a3.2865,3.2865,0,0,1-1.6591-3.3508h0c.181-1.4265,1.2571-2.2449,2.3961-1.7864l12.3938,4.9887a3.0415,3.0415,0,0,1,1.5848,3.5535h0A2.1181,2.1181,0,0,1,211.3821,307.2485Z"/>
        <path class="cls-8" d="M182.4119,276.48a52.3537,52.3537,0,0,0-4.1824,23.4991,8.6357,8.6357,0,0,0,1.6832,5.9262,8.2545,8.2545,0,0,0,3.0924,2.4387l19.3657,10.3568a7.3086,7.3086,0,0,0,9.88-2.3288,29.3976,29.3976,0,0,0,1.7451-3.0245,33.4569,33.4569,0,0,0,2.8665-19.463,8.773,8.773,0,0,0-5.7692-7.38L187.086,274.5238a4.77,4.77,0,0,0-4.6741,1.956Zm5.2235,3.5666a129.7835,129.7835,0,0,0,20.2415,10.0049,5.6206,5.6206,0,0,1,3.5885,4.4845c1.2157,5.86.7391,15.2286-4.14,19.4911a4.1427,4.1427,0,0,1-3.6774.6589c-4.4632-1.2965-15.9975-7.627-20.141-10.27a4.6614,4.6614,0,0,1-2.4725-3.96c-.6666-5.562.4054-15.777,3.8172-20.4016.9577-1.2985,1.7285-.6408,2.7835-.0075Z"/>
        <path class="cls-6" d="M184.8519,280.0539c-3.4118,4.6246-4.4838,14.84-3.8172,20.4016a4.6614,4.6614,0,0,0,2.4725,3.96c4.1435,2.6435,15.6778,8.974,20.141,10.2706a4.143,4.143,0,0,0,3.6774-.659c.0888-.0785.1773-.1574.2639-.24-4.4721-1.2979-15.8584-7.5467-19.9483-10.1567a4.6023,4.6023,0,0,1-2.4406-3.9086c-.6174-5.1517.2765-14.3485,3.1717-19.2348q-.3652-.2174-.7369-.4409C186.58,279.413,185.81,278.7554,184.8519,280.0539Z"/>
      </g>
    </g>
  </g>
</svg>
