<svg id="Layer_1" data-name="Layer 1" xmlns="http://www.w3.org/2000/svg" width="512" height="512" viewBox="0 0 512 512"><defs><style>.cls-1{fill:#ff0606;}.cls-2{fill:#0b0b0b;}</style></defs><g id="Pattern"><g id="Suits"><path class="cls-1" d="M274.4992,198.7965s15.088-4.0133,24.8839,1.3733c10.4895,5.7617-.0195,18.691-23.8763,21.198a192.1958,192.1958,0,0,1-39.6826-.1673,38.1971,38.1971,0,0,1-.2876-22.9857c4.3246-13.818,26.65-19.9079,36.5945-13.8316C281.4311,190.0611,274.4992,198.7965,274.4992,198.7965Z"/><path d="M210.487,309.5213a12.4711,12.4711,0,0,0-5.0351-1.6434c2.5668-.8943,4.193-3.434,4.193-7.3185,0-7.0841-5.3845-15.9607-12.0779-19.9972-6.6986-3.7228-12.0828-1.0807-12.0821,6.0051.0011,3.8852,1.6265,8.3051,4.1936,12.1767a23.4615,23.4615,0,0,0-5.0361-4.1913c-6.6956-3.7207-12.0764-1.0785-12.0787,6.0041.0017,7.0866,5.3824,15.9614,12.078,19.9972,5.5089,3.06,10.1187,1.81,11.586-2.6655-.6314,4.4161-2.1925,14.05-4.1888,17.3956l11.0514,6.4014c-1.9958-5.6553-3.5571-17.1-4.187-22.25a27.3951,27.3951,0,0,0,11.5829,16.0878c6.6976,3.7221,12.0772,1.08,12.0775-6.0039C222.5629,322.434,217.1833,313.5611,210.487,309.5213Z"/><path class="cls-2" d="M332.2772,293.0056c-8.49-2.6713-12.9331-3.8654-17.8385-11.7638-4.9082,13.5832-9.35,19.9219-17.8438,32.43-13.2684,19.5464-5.9095,30.763,4.46,25.5039,6.4642-3.2806,10.3812-10.7182,12.1866-15.0074-.5683,4.7049-1.7333,13.1962-3.191,17.5383l8.7707-5.0794c-1.4559-2.6564-2.6214-9.7964-3.1886-13.8439,1.8041,2.199,5.722,5.0971,12.1851.8891C338.1887,316.9205,345.5486,297.1789,332.2772,293.0056Z"/></g></g></svg>