<svg id="Layer_1" data-name="Layer 1" xmlns="http://www.w3.org/2000/svg" width="512" height="512" viewBox="0 0 512 512">
  <defs>
    <style>
      .cls-1 {
        fill: #fff;
      }
    </style>
  </defs>
  <g id="Sunglasses">
    <path d="M103.2782,207.66l202.0832,116.267v5.4211a38.2651,38.2651,0,0,1-10.7272,18.8012c-11.7208,11.0192-26.8906,10.2223-30.5316,10.031-27.933-1.4674-44.2633-29.8743-46.98-34.5993-11.1124-19.33-10.5563-38.5862-9.6889-47.4065-6.0085,21.982-16.7968,27.6563-20.3006,29.1821-23.6293,10.29-58.8818-18.7531-73.82-47.8679a94.7751,94.7751,0,0,1-10.1607-41.87Q103.2153,211.6393,103.2782,207.66Z"/>
    <path d="M305.3614,323.9269l92.0446-52.77a19.73,19.73,0,0,1,5.0174-1.0381c2.6777-.1973,4.4388-.327,5.5365.8651,1.2,1.3027,1.109,3.6434.1731,5.19-1.3047,2.1565-3.9919,2.34-5.19,2.4222a9.2591,9.2591,0,0,1-5.8826-1.73L305.3614,329.348Z"/>
    <path d="M103.2773,207.66q46.0223-26.3851,92.0446-52.77a19.7291,19.7291,0,0,1,5.0174-1.0382c2.6777-.1972,4.4388-.3269,5.5365.8651,1.2,1.3027,1.109,3.6435.1731,5.19-1.3047,2.1566-3.9919,2.34-5.1905,2.4223a9.2591,9.2591,0,0,1-5.8826-1.73l-91.6985,52.4816Z"/>
    <path class="cls-1" d="M162.0628,304.4876l-9.0713-31.7736-5.3058,2.5376L133.751,225.1922l17.11,9.844,5.8217,28.22,5.38-2.3069L174.41,307.3873a41.4055,41.4055,0,0,1-12.3471-2.9Z"/>
    <path class="cls-1" d="M255.8951,356.9378l-8.4366-29.5507-5.3058,2.5376q-7.0132-25.2172-14.0265-50.4345l17.1192,9.8495,5.9041,28.5892,5.38-2.3068q5.8317,21.3182,11.6635,42.6365a45.8532,45.8532,0,0,1-12.2981-1.3208Z"/>
  </g>
</svg>
